<?xml version="1.0" encoding="UTF-8"?>
<svg width="140px" height="140px" viewBox="0 0 140 140" version="1.1" xmlns="http://www.w3.org/2000/svg" xmlns:xlink="http://www.w3.org/1999/xlink">
    <!-- Generator: Sketch 54.1 (76490) - https://sketchapp.com -->
    <title>all-features-icon</title>
    <desc>Created with Sketch.</desc>
    <g id="WIP---May" stroke="none" stroke-width="1" fill="none" fill-rule="evenodd">
        <g id="9---all-features" transform="translate(-590.000000, -140.000000)">
            <g id="main">
                <g id="content" transform="translate(0.000000, -260.000000)">
                    <g id="top" transform="translate(190.000000, 0.000000)">
                        <g id="art">
                            <g id="icon" transform="translate(400.000000, 400.000000)">
                                <path d="M73.4897033,21.7182203 L110.989703,43.2699444 C112.85191,44.3401782 114,46.3241886 114,48.4720281 L114,91.5279719 C114,93.6758114 112.85191,95.6598218 110.989703,96.7300556 L73.4897033,118.28178 C71.6385374,119.345668 69.3614626,119.345668 67.5102967,118.28178 L30.0102967,96.7300556 C28.14809,95.6598218 27,93.6758114 27,91.5279719 L27,48.4720281 C27,46.3241886 28.14809,44.3401782 30.0102967,43.2699444 L67.5102967,21.7182203 C69.3614626,20.6543318 71.6385374,20.6543318 73.4897033,21.7182203 Z M71.4965678,25.186276 C70.8795125,24.8316466 70.1204875,24.8316466 69.5034322,25.186276 L32.0034322,46.7380002 C31.3826967,47.0947448 31,47.7560816 31,48.4720281 L31,91.5279719 C31,92.2439184 31.3826967,92.9052552 32.0034322,93.2619998 L69.5034322,114.813724 C70.1204875,115.168353 70.8795125,115.168353 71.4965678,114.813724 L108.996568,93.2619998 C109.617303,92.9052552 110,92.2439184 110,91.5279719 L110,48.4720281 C110,47.7560816 109.617303,47.0947448 108.996568,46.7380002 L71.4965678,25.186276 Z" id="base" fill="#F5F9FF" fill-rule="nonzero"></path>
                                <path d="M70.5,73.4720281 L70.5,116.543807 C70.5,117.648376 69.6045695,118.543807 68.5,118.543807 C68.1502698,118.543807 67.8066532,118.4521 67.5034322,118.277835 L30.0102967,96.7300556 C28.14809,95.6598218 27,93.6758114 27,91.5279719 L27,48.4561933 C27,47.3516238 27.8954305,46.4561933 29,46.4561933 C29.3497302,46.4561933 29.6933468,46.5479004 29.9965678,46.7221654 L67.4897033,68.2699444 C69.35191,69.3401782 70.5,71.3241886 70.5,73.4720281 Z" id="left" fill="#FFFFFF" opacity="0.597879"></path>
                                <path d="M70.5,23.4561933 L70.5,66.5279719 C70.5,68.6758114 69.35191,70.6598218 67.4897033,71.7300556 L29.9965678,93.2778346 C29.0388906,93.8282238 27.8163613,93.4980516 27.2659721,92.5403745 C27.0917072,92.2371535 27,91.8935369 27,91.5438067 L27,48.4720281 C27,46.3241886 28.14809,44.3401782 30.0102967,43.2699444 L67.5034322,21.7221654 C68.4611094,21.1717762 69.6836387,21.5019484 70.2340279,22.4596255 C70.4082928,22.7628465 70.5,23.1064631 70.5,23.4561933 Z" id="back" fill="#FFFFFF" opacity="0.197879"></path>
                                <path d="M73.4897033,21.7182203 L110.982791,43.2659721 C111.940469,43.8163613 112.270641,45.0388906 111.720252,45.9965678 C111.543979,46.3032827 111.289506,46.5577549 110.982791,46.7340279 L73.4897033,68.2817797 C71.6385374,69.3456682 69.3614626,69.3456682 67.5102967,68.2817797 L30.0172085,46.7340279 C29.0595314,46.1836387 28.7293592,44.9611094 29.2797484,44.0034322 C29.4560213,43.6967173 29.7104936,43.4422451 30.0172085,43.2659721 L67.5102967,21.7182203 C69.3614626,20.6543318 71.6385374,20.6543318 73.4897033,21.7182203 Z" id="top" fill="#FFFFFF" opacity="0.100000001"></path>
                                <g id="Group-30" transform="translate(48.500000, 45.000000)" fill="#F5F9FF" fill-rule="nonzero">
                                    <path d="M23.5120338,0.898310336 L42.4775511,11.6566745 C43.4193568,12.1909224 44,13.1813168 44,14.2534927 L44,35.7465073 C44,36.8186832 43.4193568,37.8090776 42.4775511,38.3433255 L23.5120338,49.1016897 C22.575812,49.6327701 21.424188,49.6327701 20.4879662,49.1016897 L1.52244893,38.3433255 C0.580643217,37.8090776 1.18660637e-12,36.8186832 1.18660637e-12,35.7465073 L1.18660637e-12,14.2534927 C1.18480959e-12,13.1813168 0.580643217,12.1909224 1.52244893,11.6566745 L20.4879662,0.898310336 C21.424188,0.367229888 22.575812,0.367229888 23.5120338,0.898310336 Z M22.4541321,5.11800085 C22.1729424,4.96066638 21.8270576,4.96066638 21.5458679,5.11800085 L4.45726027,14.6796111 C4.17439342,14.8378839 4,15.1312918 4,15.4489276 L4,34.5510724 C4,34.8687082 4.17439342,35.1621161 4.45726027,35.3203889 L21.5458679,44.8819992 C21.8270576,45.0393336 22.1729424,45.0393336 22.4541321,44.8819992 L39.5427397,35.3203889 C39.8256066,35.1621161 40,34.8687082 40,34.5510724 L40,15.4489276 C40,15.1312918 39.8256066,14.8378839 39.5427397,14.6796111 L22.4541321,5.11800085 Z" id="base-copy-4"></path>
                                </g>
                            </g>
                        </g>
                    </g>
                </g>
            </g>
        </g>
    </g>
</svg>
