<?xml version="1.0" encoding="UTF-8"?>
<svg width="60px" height="60px" viewBox="0 0 60 60" version="1.1" xmlns="http://www.w3.org/2000/svg" xmlns:xlink="http://www.w3.org/1999/xlink">
    <!-- Generator: Sketch 54.1 (76490) - https://sketchapp.com -->
    <title>deploy-icon-scale</title>
    <desc>Created with Sketch.</desc>
    <g id="WIP---May" stroke="none" stroke-width="1" fill="none" fill-rule="evenodd">
        <g id="5---deploy---neutered" transform="translate(-980.000000, -480.000000)">
            <g id="main">
                <g id="content" transform="translate(-1460.000000, -320.000000)">
                    <g id="sec" transform="translate(1460.000000, 760.000000)">
                        <g id="deploy-icon-scale" transform="translate(980.000000, 40.000000)">
                            <circle id="Combined-Shape-Copy" fill="#FFFFFF" opacity="0.0986328125" cx="30" cy="30" r="30"></circle>
                            <path d="M30.8965925,11.2361259 L46.086466,19.8415751 C46.6502454,20.1609704 47,20.7567699 47,21.4040349 L47,38.5959651 C47,39.2432301 46.6502454,39.8390296 46.086466,40.1584249 L30.8965925,48.7638741 C30.3408638,49.0787086 29.6591362,49.0787086 29.1034075,48.7638741 L13.913534,40.1584249 C13.3497546,39.8390296 13,39.2432301 13,38.5959651 L13,21.4040349 C13,20.7567699 13.3497546,20.1609704 13.913534,19.8415751 L29.1034075,11.2361259 C29.6591362,10.9212914 30.3408638,10.9212914 30.8965925,11.2361259 Z" id="Path-Copy-5" stroke="#FFFFFF" stroke-width="2" fill-rule="nonzero"></path>
                            <path d="M35,23 L37.84,19.2133333 C37.9062742,19.1249678 38.0316344,19.1070592 38.12,19.1733333 C38.1351611,19.1847042 38.1486292,19.1981722 38.16,19.2133333 L41,23 L39,23 L38.527735,31.5007698 C38.5121746,31.7808566 38.2805187,32 38,32 L38,32 C37.7194813,32 37.4878254,31.7808566 37.472265,31.5007698 L37,23 L35,23 Z" id="Rectangle" fill="#FFFFFF" opacity="0.600000024" transform="translate(38.000000, 25.566661) rotate(60.000000) translate(-38.000000, -25.566661) "></path>
                            <path d="M29,21 L31.84,17.2133333 C31.9062742,17.1249678 32.0316344,17.1070592 32.12,17.1733333 C32.1351611,17.1847042 32.1486292,17.1981722 32.16,17.2133333 L35,21 L33,21 L32.5497519,25.5024814 C32.5215083,25.7849172 32.2838445,26 32,26 L32,26 C31.7161555,26 31.4784917,25.7849172 31.4502481,25.5024814 L31,21 L29,21 Z" id="Rectangle-Copy-45" fill="#FFFFFF" opacity="0.400000006" transform="translate(32.000000, 21.566661) rotate(40.000000) translate(-32.000000, -21.566661) "></path>
                            <path d="M35.0969314,32.3049001 L37.9369314,28.5182334 C38.0032055,28.4298679 38.1285658,28.4119593 38.2169314,28.4782334 C38.2320925,28.4896043 38.2455605,28.5030723 38.2569314,28.5182334 L41.0969314,32.3049001 L39.0969314,32.3049001 L38.6466832,36.8073815 C38.6184396,37.0898173 38.3807758,37.3049001 38.0969314,37.3049001 L38.0969314,37.3049001 C37.8130869,37.3049001 37.5754231,37.0898173 37.5471795,36.8073815 L37.0969314,32.3049001 L35.0969314,32.3049001 Z" id="Rectangle-Copy-97" fill="#FFFFFF" opacity="0.400000006" transform="translate(38.096931, 32.871561) rotate(80.000000) translate(-38.096931, -32.871561) "></path>
                            <path d="M23.1766069,25.5472003 C23.0672554,25.4842666 22.9327446,25.4842666 22.8233931,25.5472003 L16.1778234,29.3718444 C16.0678197,29.4351536 16,29.5525167 16,29.6795711 L16,37.3204289 C16,37.4474833 16.0678197,37.5648464 16.1778234,37.6281556 L22.8233931,41.4527997 C22.9327446,41.5157334 23.0672554,41.5157334 23.1766069,41.4527997 L29.8221766,37.6281556 C29.9321803,37.5648464 30,37.4474833 30,37.3204289 L30,29.6795711 C30,29.5525167 29.9321803,29.4351536 29.8221766,29.3718444 L23.1766069,25.5472003 Z" id="Path" fill="#FFFFFF" fill-rule="nonzero"></path>
                        </g>
                    </g>
                </g>
            </g>
        </g>
    </g>
</svg>