<?xml version="1.0" encoding="UTF-8"?>
<svg width="140px" height="140px" viewBox="0 0 140 140" version="1.1" xmlns="http://www.w3.org/2000/svg" xmlns:xlink="http://www.w3.org/1999/xlink">
    <!-- Generator: Sketch 54.1 (76490) - https://sketchapp.com -->
    <title>deploy-icon</title>
    <desc>Created with Sketch.</desc>
    <g id="WIP---May" stroke="none" stroke-width="1" fill="none" fill-rule="evenodd">
        <g id="5---deploy---neutered" transform="translate(-590.000000, -140.000000)">
            <g id="main">
                <g id="content" transform="translate(-1460.000000, -320.000000)">
                    <g id="top">
                        <g id="art">
                            <g id="icon" transform="translate(2050.000000, 460.000000)">
                                <path d="M103.566265,39.0036005 L110.989703,43.2699444 C112.85191,44.3401782 114,46.3241886 114,48.4720281 L114,91.5279719 C114,93.6758114 112.85191,95.6598218 110.989703,96.7300556 L73.4897033,118.28178 C71.6385374,119.345668 69.3614626,119.345668 67.5102967,118.28178 L30.0102967,96.7300556 C28.14809,95.6598218 27,93.6758114 27,91.5279719 L27,48.4720281 C27,46.3241886 28.14809,44.3401782 30.0102967,43.2699444 L37.4337351,39.0036005 L31.6589845,45.9898995 C31.3830398,46.3237377 31.1826535,46.7133682 31.0715991,47.1320093 C30.962993,47.5414216 30.9444922,47.9535245 31.0038818,48.3472828 C31.0013035,48.3886454 31,48.4302437 31,48.4720281 L31,91.5279719 C31,92.2439184 31.3826967,92.9052552 32.0034322,93.2619998 L69.5034322,114.813724 C70.1204875,115.168353 70.8795125,115.168353 71.4965678,114.813724 L108.996568,93.2619998 C109.617303,92.9052552 110,92.2439184 110,91.5279719 L110,48.4720281 C110,48.4290648 109.998622,48.3862982 109.995897,48.3437822 C110.116799,47.5313506 109.90552,46.6728381 109.341015,45.9898995 L103.566265,39.0036005 Z" id="base" fill="#F5F9FF" fill-rule="nonzero"></path>
                                <path d="M70.5,73.4720281 L70.5,116.543807 C70.5,117.648376 69.6045695,118.543807 68.5,118.543807 C68.1502698,118.543807 67.8066532,118.4521 67.5034322,118.277835 L30.0102967,96.7300556 C28.14809,95.6598218 27,93.6758114 27,91.5279719 L27,48.4561933 C27,47.3516238 27.8954305,46.4561933 29,46.4561933 C29.3497302,46.4561933 29.6933468,46.5479004 29.9965678,46.7221654 L67.4897033,68.2699444 C69.35191,69.3401782 70.5,71.3241886 70.5,73.4720281 Z" id="left" fill="#FFFFFF" opacity="0.597879"></path>
                                <path d="M70.5,23.4561933 L70.5,66.5279719 C70.5,68.6758114 69.35191,70.6598218 67.4897033,71.7300556 L29.9965678,93.2778346 C29.0388906,93.8282238 27.8163613,93.4980516 27.2659721,92.5403745 C27.0917072,92.2371535 27,91.8935369 27,91.5438067 L27,48.4720281 C27,46.3241886 28.14809,44.3401782 30.0102967,43.2699444 L67.5034322,21.7221654 C68.4611094,21.1717762 69.6836387,21.5019484 70.2340279,22.4596255 C70.4082928,22.7628465 70.5,23.1064631 70.5,23.4561933 Z" id="back" fill="#FFFFFF" opacity="0.197879"></path>
                                <path d="M73.4897033,21.7182203 L110.982791,43.2659721 C111.940469,43.8163613 112.270641,45.0388906 111.720252,45.9965678 C111.543979,46.3032827 111.289506,46.5577549 110.982791,46.7340279 L73.4897033,68.2817797 C71.6385374,69.3456682 69.3614626,69.3456682 67.5102967,68.2817797 L30.0172085,46.7340279 C29.0595314,46.1836387 28.7293592,44.9611094 29.2797484,44.0034322 C29.4560213,43.6967173 29.7104936,43.4422451 30.0172085,43.2659721 L67.5102967,21.7182203 C69.3614626,20.6543318 71.6385374,20.6543318 73.4897033,21.7182203 Z" id="top" fill="#FFFFFF" opacity="0.100000001"></path>
                                <g id="airplane" transform="translate(40.010297, 7.922263)" fill-rule="nonzero">
                                    <polygon id="Path" fill="#D9D7F8" points="60.9794065 37.3476815 37.9897033 34.0777371 30.4897033 49.1574133 22.9897033 34.0777371 0 37.3476815 30.4897033 1.08002496e-12"></polygon>
                                    <polygon id="Path-Copy-2" fill="#E6E7FB" points="60.9794065 37.3476815 37.9897033 34.0777371 30.4897033 49.1574133 30.4897033 1.07867935e-12"></polygon>
                                    <polygon id="Path-Copy-4" fill="#F5F9FF" points="22.9897033 34.0777371 1.45519152e-11 37.3476815 30.4897033 -2.27373675e-13"></polygon>
                                    <polygon id="Path-Copy-3" fill="#F5F9FF" points="60.9794065 37.3476815 37.9897033 34.0777371 30.4897033 -5.10010348e-13"></polygon>
                                </g>
                            </g>
                        </g>
                    </g>
                </g>
            </g>
        </g>
    </g>
</svg>