<?xml version="1.0" encoding="UTF-8"?>
<svg width="160px" height="160px" viewBox="0 0 160 160" version="1.1" xmlns="http://www.w3.org/2000/svg" xmlns:xlink="http://www.w3.org/1999/xlink">
    <!-- Generator: Sketch 54.1 (76490) - https://sketchapp.com -->
    <title>homepage-for-teams</title>
    <desc>Created with Sketch.</desc>
    <defs>
        <linearGradient x1="50%" y1="0%" x2="50%" y2="91.311349%" id="linearGradient-1">
            <stop stop-color="#EAF4F9" offset="0%"></stop>
            <stop stop-color="#8DC5FF" offset="100%"></stop>
        </linearGradient>
        <linearGradient x1="50%" y1="0%" x2="50%" y2="100%" id="linearGradient-2">
            <stop stop-color="#FFFFFF" offset="0%"></stop>
            <stop stop-color="#E1F9ED" offset="100%"></stop>
        </linearGradient>
        <path d="M74.5,22 C77.7602087,22 79.4949563,19.3034932 79.9490432,15 C80.4031301,10.6965068 77.7602087,8 74.5,8 C71.2397913,8 68.5968699,10.6965068 69.0509568,15 C69.5050437,19.3034932 71.2397913,22 74.5,22 Z" id="path-3"></path>
        <filter x="-63.6%" y="-35.7%" width="227.3%" height="200.0%" filterUnits="objectBoundingBox" id="filter-4">
            <feOffset dx="0" dy="2" in="SourceAlpha" result="shadowOffsetOuter1"></feOffset>
            <feGaussianBlur stdDeviation="2" in="shadowOffsetOuter1" result="shadowBlurOuter1"></feGaussianBlur>
            <feColorMatrix values="0 0 0 0 0.0470588235   0 0 0 0 0.295867967   0 0 0 0 0.364705882  0 0 0 0.101336051 0" type="matrix" in="shadowBlurOuter1"></feColorMatrix>
        </filter>
        <linearGradient x1="50%" y1="0%" x2="50%" y2="91.311349%" id="linearGradient-5">
            <stop stop-color="#EAF4F9" offset="0%"></stop>
            <stop stop-color="#8DC5FF" offset="100%"></stop>
        </linearGradient>
        <path d="M104.5,36 C107.760209,36 109.494956,33.3034932 109.949043,29 C110.40313,24.6965068 107.760209,22 104.5,22 C101.239791,22 98.5968699,24.6965068 99.0509568,29 C99.5050437,33.3034932 101.239791,36 104.5,36 Z" id="path-6"></path>
        <filter x="-63.6%" y="-35.7%" width="227.3%" height="200.0%" filterUnits="objectBoundingBox" id="filter-7">
            <feOffset dx="0" dy="2" in="SourceAlpha" result="shadowOffsetOuter1"></feOffset>
            <feGaussianBlur stdDeviation="2" in="shadowOffsetOuter1" result="shadowBlurOuter1"></feGaussianBlur>
            <feColorMatrix values="0 0 0 0 0.0470588235   0 0 0 0 0.295867967   0 0 0 0 0.364705882  0 0 0 0.101336051 0" type="matrix" in="shadowBlurOuter1"></feColorMatrix>
        </filter>
        <linearGradient x1="50%" y1="0%" x2="50%" y2="91.311349%" id="linearGradient-8">
            <stop stop-color="#EAF4F9" offset="0%"></stop>
            <stop stop-color="#8DC5FF" offset="100%"></stop>
        </linearGradient>
        <path d="M43.5,36 C46.7602087,36 48.4949563,33.3034932 48.9490432,29 C49.4031301,24.6965068 46.7602087,22 43.5,22 C40.2397913,22 37.5968699,24.6965068 38.0509568,29 C38.5050437,33.3034932 40.2397913,36 43.5,36 Z" id="path-9"></path>
        <filter x="-63.6%" y="-35.7%" width="227.3%" height="200.0%" filterUnits="objectBoundingBox" id="filter-10">
            <feOffset dx="0" dy="2" in="SourceAlpha" result="shadowOffsetOuter1"></feOffset>
            <feGaussianBlur stdDeviation="2" in="shadowOffsetOuter1" result="shadowBlurOuter1"></feGaussianBlur>
            <feColorMatrix values="0 0 0 0 0.0470588235   0 0 0 0 0.295867967   0 0 0 0 0.364705882  0 0 0 0.101336051 0" type="matrix" in="shadowBlurOuter1"></feColorMatrix>
        </filter>
        <linearGradient x1="50%" y1="0%" x2="50%" y2="91.311349%" id="linearGradient-11">
            <stop stop-color="#EAF4F9" offset="0%"></stop>
            <stop stop-color="#8DC5FF" offset="100%"></stop>
        </linearGradient>
        <path d="M119.5,58 C122.760209,58 124.494956,55.3034932 124.949043,51 C125.40313,46.6965068 122.760209,44 119.5,44 C116.239791,44 113.59687,46.6965068 114.050957,51 C114.505044,55.3034932 116.239791,58 119.5,58 Z" id="path-12"></path>
        <filter x="-63.6%" y="-35.7%" width="227.3%" height="200.0%" filterUnits="objectBoundingBox" id="filter-13">
            <feOffset dx="0" dy="2" in="SourceAlpha" result="shadowOffsetOuter1"></feOffset>
            <feGaussianBlur stdDeviation="2" in="shadowOffsetOuter1" result="shadowBlurOuter1"></feGaussianBlur>
            <feColorMatrix values="0 0 0 0 0.0470588235   0 0 0 0 0.295867967   0 0 0 0 0.364705882  0 0 0 0.101336051 0" type="matrix" in="shadowBlurOuter1"></feColorMatrix>
        </filter>
        <path d="M29.5,58 C32.7602087,58 34.4949563,55.3034932 34.9490432,51 C35.4031301,46.6965068 32.7602087,44 29.5,44 C26.2397913,44 23.5968699,46.6965068 24.0509568,51 C24.5050437,55.3034932 26.2397913,58 29.5,58 Z" id="path-14"></path>
        <filter x="-63.6%" y="-35.7%" width="227.3%" height="200.0%" filterUnits="objectBoundingBox" id="filter-15">
            <feOffset dx="0" dy="2" in="SourceAlpha" result="shadowOffsetOuter1"></feOffset>
            <feGaussianBlur stdDeviation="2" in="shadowOffsetOuter1" result="shadowBlurOuter1"></feGaussianBlur>
            <feColorMatrix values="0 0 0 0 0.0470588235   0 0 0 0 0.295867967   0 0 0 0 0.364705882  0 0 0 0.101336051 0" type="matrix" in="shadowBlurOuter1"></feColorMatrix>
        </filter>
        <path d="M18.5958813,0.687288105 L33.5958813,9.30797776 C34.340764,9.73607126 34.8,10.5296754 34.8,11.3888112 L34.8,28.6111888 C34.8,29.4703246 34.340764,30.2639287 33.5958813,30.6920222 L18.5958813,39.3127119 C17.8554149,39.7382673 16.9445851,39.7382673 16.2041187,39.3127119 L1.2041187,30.6920222 C0.459235999,30.2639287 6.0001746e-14,29.4703246 5.98965322e-14,28.6111888 L5.85642645e-14,11.3888112 C5.92221166e-14,10.5296754 0.459235999,9.73607126 1.2041187,9.30797776 L16.2041187,0.687288105 C16.9445851,0.261732725 17.8554149,0.261732725 18.5958813,0.687288105 Z" id="path-16"></path>
        <linearGradient x1="100%" y1="131.88326%" x2="100%" y2="0%" id="linearGradient-18">
            <stop stop-color="#1488A2" stop-opacity="0" offset="0%"></stop>
            <stop stop-color="#1488A2" offset="100%"></stop>
        </linearGradient>
        <linearGradient x1="100%" y1="50%" x2="50%" y2="33.4852689%" id="linearGradient-19">
            <stop stop-color="#0C4E5D" offset="0%"></stop>
            <stop stop-color="#0C4E5D" stop-opacity="0" offset="100%"></stop>
        </linearGradient>
        <linearGradient x1="50%" y1="2.18783454%" x2="50%" y2="98.0149872%" id="linearGradient-20">
            <stop stop-color="#7FF0FF" stop-opacity="0.698228034" offset="0%"></stop>
            <stop stop-color="#7FF0FF" offset="100%"></stop>
        </linearGradient>
        <path d="M18.5958813,0.687288105 L33.5958813,9.30797776 C34.340764,9.73607126 34.8,10.5296754 34.8,11.3888112 L34.8,28.6111888 C34.8,29.4703246 34.340764,30.2639287 33.5958813,30.6920222 L18.5958813,39.3127119 C17.8554149,39.7382673 16.9445851,39.7382673 16.2041187,39.3127119 L1.2041187,30.6920222 C0.459235999,30.2639287 6.0001746e-14,29.4703246 5.98965322e-14,28.6111888 L5.85642645e-14,11.3888112 C5.92221166e-14,10.5296754 0.459235999,9.73607126 1.2041187,9.30797776 L16.2041187,0.687288105 C16.9445851,0.261732725 17.8554149,0.261732725 18.5958813,0.687288105 Z" id="path-21"></path>
        <path d="M18.5958813,0.687288105 L33.5958813,9.30797776 C34.340764,9.73607126 34.8,10.5296754 34.8,11.3888112 L34.8,28.6111888 C34.8,29.4703246 34.340764,30.2639287 33.5958813,30.6920222 L18.5958813,39.3127119 C17.8554149,39.7382673 16.9445851,39.7382673 16.2041187,39.3127119 L1.2041187,30.6920222 C0.459235999,30.2639287 6.0001746e-14,29.4703246 5.98965322e-14,28.6111888 L5.85642645e-14,11.3888112 C5.92221166e-14,10.5296754 0.459235999,9.73607126 1.2041187,9.30797776 L16.2041187,0.687288105 C16.9445851,0.261732725 17.8554149,0.261732725 18.5958813,0.687288105 Z" id="path-23"></path>
        <path d="M18.5958813,0.687288105 L33.5958813,9.30797776 C34.340764,9.73607126 34.8,10.5296754 34.8,11.3888112 L34.8,28.6111888 C34.8,29.4703246 34.340764,30.2639287 33.5958813,30.6920222 L18.5958813,39.3127119 C17.8554149,39.7382673 16.9445851,39.7382673 16.2041187,39.3127119 L1.2041187,30.6920222 C0.459235999,30.2639287 6.0001746e-14,29.4703246 5.98965322e-14,28.6111888 L5.85642645e-14,11.3888112 C5.92221166e-14,10.5296754 0.459235999,9.73607126 1.2041187,9.30797776 L16.2041187,0.687288105 C16.9445851,0.261732725 17.8554149,0.261732725 18.5958813,0.687288105 Z" id="path-25"></path>
    </defs>
    <g id="WIP---May" stroke="none" stroke-width="1" fill="none" fill-rule="evenodd">
        <g id="1---homepage" transform="translate(-1280.000000, -3480.000000)">
            <g id="main">
                <g id="content">
                    <g id="Group-11" transform="translate(0.000000, 3220.000000)">
                        <g id="homepage-for-teams" transform="translate(1280.000000, 260.000000)">
                            <circle id="Oval-6-Copy-2" fill="#8DC5FF" cx="80" cy="80" r="80"></circle>
                            <g id="Group-18" transform="translate(6.000000, 12.000000)">
                                <path d="M96.8877065,39.7561761 C96.8877065,42.4889 96.6624481,48.3903111 97.4803249,51.3435837 C98.4274973,54.7637301 101.654568,59.3536691 100.881524,59.8876271 C100.10848,60.421585 96.3144625,56.6111102 95.3607446,54.9627118 C93.5794904,51.8840062 92.8355232,49.8104229 92.3119265,47.2365451 C91.7883298,44.6626672 91.5525613,44.0151993 91.5525613,40.736239 C91.5525613,40.0193709 91.5525613,38.6321392 91.5525613,37.7600455 C89.8324273,43.0084421 89.4363295,64.9912139 81.6377768,64.9999974 C73.7055135,65.0089314 73.512994,42.2483258 71.7152934,37.5050397 C71.5181213,38.2262477 71.2981483,39.3678416 71.0653788,40.161791 C70.0636254,43.5786539 69.5382768,44.5518437 68.6051016,46.23786 C67.6719264,47.9238763 65.6042781,50.9505964 63.810891,48.9937573 C61.605998,46.587907 59.2013998,44.2301101 57.4820281,42.6497042 C55.4042305,40.7398418 55,40.9382305 55,40.161791 C55,39.3853515 56.5876681,39.5244969 57.799297,39.9755514 C59.6665832,40.6706881 62.234348,42.4305287 64.7144964,44.4804877 C65.2524974,43.3872556 65.813055,41.1681201 66.3663622,37.9699036 C66.9196695,34.7716872 66.8983384,32.7043192 68.29656,31.2616681 C70.5769236,28.2999423 75.5758338,27.6673302 77.8898115,25.3824375 C78.3609386,24.9161226 78.8002082,23.9626455 78.9292235,23.3983836 C79.3805364,21.4245188 79.036896,18 81.6371011,18 C84.2373062,18 83.8936658,21.4245188 84.3449788,23.3983836 C84.4735805,23.9608366 84.9143044,24.9140585 85.3879151,25.3828121 C87.861989,27.8242733 93.3158141,28.3828415 95.3607446,31.8216044 C96.5027602,33.3527982 96.8877065,37.0234522 96.8877065,39.7561761 Z" id="Combined-Shape-Copy-4" fill="url(#linearGradient-1)" transform="translate(78.000000, 41.500000) scale(-1, 1) translate(-78.000000, -41.500000) "></path>
                                <g id="Oval-2">
                                    <use fill="black" fill-opacity="1" filter="url(#filter-4)" xlink:href="#path-3"></use>
                                    <use fill="url(#linearGradient-2)" fill-rule="evenodd" xlink:href="#path-3"></use>
                                </g>
                                <path d="M120.175537,52.0987582 C121.187314,54.2969135 123.906162,60.2676899 126.047116,62.4963056 C130.067443,66.6812453 132.621027,66.2152441 132.970184,67.5809377 C133.319341,68.9466314 130.576543,69.3094381 126.075086,66.6228404 C122.861752,64.7050312 120.175537,62.4963056 118.781837,60.7534203 C117.388138,59.010535 116.082912,56.9441841 115.040067,53.7561761 C114.81366,53.0640431 114.588938,52.3973368 114.379231,51.7600455 C112.673179,57.0084421 112.280324,78.9912139 104.545615,78.9999974 C96.678291,79.0089314 96.4873476,56.2483258 94.7043642,51.5050397 C94.4713547,52.2188288 94.2167272,52.9711474 93.9599327,53.7561761 C92.917088,56.9441841 91.313619,59.4267092 90.2181625,60.7534203 C89.1227061,62.0801315 86.1382476,64.7050312 82.924914,66.6228404 C78.4234574,69.3094381 75.6806586,68.9466314 76.0298158,67.5809377 C76.3789729,66.2152441 78.9325567,66.6812453 82.9528838,62.4963056 C85.093838,60.2676899 87.8126857,54.2969135 88.8244633,52.0987582 C89.8362408,49.9006029 89.9268442,46.7043192 91.313619,45.2616681 C93.5753139,42.2999423 98.5332996,41.6673302 100.828333,39.3824375 C101.295604,38.9161226 101.731277,37.9626455 101.859236,37.3983836 C102.306854,35.4245188 101.966027,32 104.544945,32 C107.123863,32 106.783036,35.4245188 107.230654,37.3983836 C107.358203,37.9608366 107.795319,38.9140585 108.265052,39.3828121 C110.718872,41.8242733 116.128048,42.3828415 118.156238,45.8216044 C119.288904,47.3527982 119.163759,49.9006029 120.175537,52.0987582 Z" id="Combined-Shape-Copy-8" fill="url(#linearGradient-5)"></path>
                                <g id="Oval-2-Copy-5">
                                    <use fill="black" fill-opacity="1" filter="url(#filter-7)" xlink:href="#path-6"></use>
                                    <use fill="url(#linearGradient-2)" fill-rule="evenodd" xlink:href="#path-6"></use>
                                </g>
                                <path d="M64.8785163,53.7561761 C64.8785163,56.4889 64.6527546,62.3903111 65.4724592,65.3435837 C66.4217483,68.7637301 69.6560306,73.3536691 68.8812592,73.8876271 C68.1064878,74.421585 64.3039913,70.6111102 63.348142,68.9627118 C61.562907,65.8840062 60.8172772,63.8104229 60.2925104,61.2365451 C59.7677435,58.6626672 59.5314482,58.0151993 59.5314482,54.736239 C59.5314482,54.0193709 59.5314482,52.6321392 59.5314482,51.7600455 C57.8074701,57.0084421 57.410487,78.9912139 49.5945061,78.9999974 C41.6445158,79.0089314 41.4515661,56.2483258 39.649848,51.5050397 C39.4143901,52.2188288 39.0567909,53.0109222 38.7058874,53.7561761 C37.0964357,57.1743531 36.0589706,59.0746905 35.1237099,60.7607068 C34.1884492,62.4467231 30.1518605,65.8902517 29.1388304,63.2377372 C26.5256231,56.395324 22.9599418,46.2912113 24.2864484,45.2616681 C25.612955,44.2321248 28.8254033,51.7600455 31.4644307,57.7517511 C32.3781747,56.8934091 32.8913488,54.736239 33.7269153,51.7600455 C34.5624817,48.783852 34.8221281,46.7043192 36.2234744,45.2616681 C38.5089342,42.2999423 43.5190159,41.6673302 45.8381649,39.3824375 C46.3103448,38.9161226 46.7505961,37.9626455 46.8798997,37.3983836 C47.3322213,35.4245188 46.9878129,32 49.5938289,32 C52.199845,32 51.8554366,35.4245188 52.3077582,37.3983836 C52.4366472,37.9608366 52.8783561,38.9140585 53.3530253,39.3828121 C55.8326282,41.8242733 61.2986415,42.3828415 63.348142,45.8216044 C64.4927097,47.3527982 64.8785163,51.0234522 64.8785163,53.7561761 Z" id="Combined-Shape-Copy-4" fill="url(#linearGradient-8)" transform="translate(46.500000, 55.500000) scale(-1, 1) translate(-46.500000, -55.500000) "></path>
                                <g id="Oval-2-Copy-4">
                                    <use fill="black" fill-opacity="1" filter="url(#filter-10)" xlink:href="#path-9"></use>
                                    <use fill="url(#linearGradient-2)" fill-rule="evenodd" xlink:href="#path-9"></use>
                                </g>
                                <path d="M143.913828,75.5613522 C143.913828,78.3151664 143.690001,84.2621228 144.502682,87.2381879 C145.443838,90.6847299 148.65041,95.3100926 147.882277,95.8481715 C147.114143,96.3862504 143.344226,92.5463675 142.396566,90.8852472 C140.626626,87.7827812 139.887385,85.6931946 139.367114,83.0994524 C138.846843,80.5057101 138.612573,79.8532453 138.612573,76.5489789 C138.612573,75.8265782 138.612573,74.4286403 138.612573,73.5498161 C136.903365,78.8387182 136.509783,100.991146 128.760768,100.999998 C120.878891,101.009001 120.575642,76.328319 118.789361,71.5484257 C115.76935,70.8149964 108.907548,69.169453 106.645589,68.3973319 C104.383629,67.6252108 103.286425,63.4477622 102.282312,59.7720005 C101.01793,55.1434695 99.439051,48.6446598 100.198124,48.0458421 C100.876476,47.5107038 103.091544,51.7567512 104.786393,55.7683074 C106.481242,59.7798636 107.988078,62.8042434 109.372347,63.3663511 C111.344039,64.1669923 115.574862,64.1669923 118.789361,64.1669923 C122.003859,64.1669923 122.737331,63.3792083 125.03661,61.0766815 C125.504745,60.6067678 125.941224,59.645932 126.06942,59.0773153 C126.517866,57.0882168 126.176408,53.6372687 128.760097,53.6372687 C131.343785,53.6372687 131.002327,57.0882168 131.450773,59.0773153 C131.578558,59.6441091 132.016483,60.6046877 132.487085,61.0770591 C134.945443,63.5373627 140.364625,64.1002418 142.396566,67.565544 C143.531327,69.108555 143.913828,72.807538 143.913828,75.5613522 Z" id="Combined-Shape-Copy-4" fill="url(#linearGradient-11)" transform="translate(124.000000, 74.500000) scale(-1, 1) translate(-124.000000, -74.500000) "></path>
                                <g id="Oval-2-Copy-2">
                                    <use fill="black" fill-opacity="1" filter="url(#filter-13)" xlink:href="#path-12"></use>
                                    <use fill="url(#linearGradient-2)" fill-rule="evenodd" xlink:href="#path-12"></use>
                                </g>
                                <path d="M44.1755367,74.0987582 C45.1873143,76.2969135 47.906162,82.2676899 50.0471162,84.4963056 C54.0674433,88.6812453 56.6210271,88.2152441 56.9701842,89.5809377 C57.3193414,90.9466314 54.5765426,91.3094381 50.075086,88.6228404 C46.8617524,86.7050312 44.1755367,84.4963056 42.7818375,82.7534203 C41.3881382,81.010535 40.082912,78.9441841 39.0400673,75.7561761 C38.8136604,75.0640431 38.5889379,74.3973368 38.3792307,73.7600455 C36.6731789,79.0084421 36.2803237,100.991214 28.5456154,100.999997 C20.678291,101.008931 20.4873476,78.2483258 18.7043642,73.5050397 C18.4713547,74.2188288 18.2167272,74.9711474 17.9599327,75.7561761 C16.917088,78.9441841 15.313619,81.4267092 14.2181625,82.7534203 C13.1227061,84.0801315 10.1382476,86.7050312 6.92491402,88.6228404 C2.42345744,91.3094381 -0.319341424,90.9466314 0.0298157507,89.5809377 C0.378972926,88.2152441 2.93255674,88.6812453 6.95288376,84.4963056 C9.09383798,82.2676899 11.8126857,76.2969135 12.8244633,74.0987582 C13.8362408,71.9006029 13.9268442,68.7043192 15.313619,67.2616681 C17.5753139,64.2999423 22.5332996,63.6673302 24.8283335,61.3824375 C25.2956036,60.9161226 25.731277,59.9626455 25.8592361,59.3983836 C26.3068543,57.4245188 25.9660272,54 28.5449452,54 C31.1238633,54 30.7830361,57.4245188 31.2306543,59.3983836 C31.3582032,59.9608366 31.7953191,60.9140585 32.2650525,61.3828121 C34.7188719,63.8242733 40.1280482,64.3828415 42.1562375,67.8216044 C43.2889038,69.3527982 43.1637592,71.9006029 44.1755367,74.0987582 Z" id="Combined-Shape-Copy-6" fill="url(#linearGradient-5)"></path>
                                <g id="Oval-2-Copy-3">
                                    <use fill="black" fill-opacity="1" filter="url(#filter-15)" xlink:href="#path-14"></use>
                                    <use fill="url(#linearGradient-2)" fill-rule="evenodd" xlink:href="#path-14"></use>
                                </g>
                                <g id="icon/generic/kintoblock/blue" transform="translate(54.000000, 58.000000)">
                                    <g id="cube" transform="translate(2.800000, 0.000000)">
                                        <mask id="mask-17" fill="white">
                                            <use xlink:href="#path-16"></use>
                                        </mask>
                                        <use id="base" fill="#2CC4DA" xlink:href="#path-16"></use>
                                        <path d="M17.4,21.3888112 L17.4,38.6175227 C17.4,39.0593505 17.0418278,39.4175227 16.6,39.4175227 C16.4601079,39.4175227 16.3226613,39.3808398 16.2013729,39.3111339 L0,30 L-8.8817842e-16,11.3824773 C-9.4228672e-16,10.9406495 0.3581722,10.5824773 0.8,10.5824773 C0.939892084,10.5824773 1.07733871,10.6191602 1.1986271,10.6888661 L16.1958813,19.3079778 C16.940764,19.7360713 17.4,20.5296754 17.4,21.3888112 Z" id="left" fill="#00A3C7" opacity="0.800000012" mask="url(#mask-17)"></path>
                                        <path d="M34.8,11.3824773 L34.8,30 L18.5986271,39.3111339 C18.2155562,39.5312895 17.7265445,39.3992207 17.5063888,39.0161498 C17.4366829,38.8948614 17.4,38.7574148 17.4,38.6175227 L17.4,21.3888112 C17.4,20.5296754 17.859236,19.7360713 18.6041187,19.3079778 L33.6013729,10.6888661 C33.9844438,10.4687105 34.4734555,10.6007793 34.6936112,10.9838502 C34.7633171,11.1051386 34.8,11.2425852 34.8,11.3824773 Z" id="right" fill="#1EC4E9" opacity="0.900000036" mask="url(#mask-17)"></path>
                                        <path d="M17.4,1.38247731 L17.4,18.6111888 C17.4,19.4703246 16.940764,20.2639287 16.1958813,20.6920222 L1.1986271,29.3111339 C0.815556237,29.5312895 0.326544513,29.3992207 0.106388845,29.0161498 C0.0366828748,28.8948614 5.38074374e-14,28.7574148 5.37903055e-14,28.6175227 L5.72319969e-14,10 L16.2013729,0.68886615 C16.5844438,0.468710481 17.0734555,0.600779341 17.2936112,0.983850204 C17.3633171,1.10513859 17.4,1.24258522 17.4,1.38247731 Z" id="back" fill="url(#linearGradient-18)" opacity="0.200237772" mask="url(#mask-17)"></path>
                                        <path d="M18.5958813,20.6872881 L33.5931166,29.3063888 C33.9761875,29.5265445 34.1082563,30.0155562 33.8881006,30.3986271 C33.8175915,30.5213131 33.7158026,30.623102 33.5931166,30.6936112 L17.4,40 L1.20688341,30.6936112 C0.823812547,30.4734555 0.691743687,29.9844438 0.911899356,29.6013729 C0.982408534,29.4786869 1.08419744,29.376898 1.20688341,29.3063888 L16.2041187,20.6872881 C16.9445851,20.2617327 17.8554149,20.2617327 18.5958813,20.6872881 Z" id="bottom" fill="url(#linearGradient-19)" opacity="0.0600000024" mask="url(#mask-17)"></path>
                                        <path d="M17.4,0 L33.5931166,9.30638884 C33.9761875,9.52654451 34.1082563,10.0155562 33.8881006,10.3986271 C33.8175915,10.5213131 33.7158026,10.623102 33.5931166,10.6936112 L18.5958813,19.3127119 C17.8554149,19.7382673 16.9445851,19.7382673 16.2041187,19.3127119 L1.20688341,10.6936112 C0.823812547,10.4734555 0.691743687,9.98444376 0.911899356,9.6013729 C0.982408534,9.47868693 1.08419744,9.37689802 1.20688341,9.30638884 L17.4,0 Z" id="top" fill="url(#linearGradient-20)" mask="url(#mask-17)"></path>
                                        <path d="M1.20688341,9.30638884 C1.08419744,9.37689802 0.982408534,9.47868693 0.911899356,9.6013729 C0.69323743,9.98184465 0.822036603,10.4668245 1.19912077,10.6890929 C1.07733871,10.6191602 0.939892084,10.5824773 0.8,10.5824773 C0.361117126,10.5824773 0.00477838513,10.9358907 4.76557915e-05,11.3736538 C0.00541377441,10.5203497 0.463618562,9.73355255 1.2041187,9.30797776 L1.20688341,9.30638884 L1.20688341,9.30638884 Z" id="left-corner" fill="#67D7F8" mask="url(#mask-17)"></path>
                                        <path d="M33.5931166,9.30638884 L33.5958813,9.30797776 C34.3364432,9.73358805 34.7946627,10.5204809 34.7999537,11.3738673 C34.7984804,11.2369502 34.7618865,11.1026493 34.6936112,10.9838502 C34.4734555,10.6007793 33.9844438,10.4687105 33.6013729,10.6888661 C33.7201303,10.6187505 33.8190953,10.5186964 33.8881006,10.3986271 C34.1082563,10.0155562 33.9761875,9.52654451 33.5931166,9.30638884 L33.5931166,9.30638884 Z" id="right-corner" fill="#88ECFE" mask="url(#mask-17)"></path>
                                        <path d="M16.1958813,19.3079778 L16.2041187,19.3127119 C16.9445851,19.7382673 17.8554149,19.7382673 18.5958813,19.3127119 L18.6041187,19.3079778 C17.859236,19.7360713 17.4,20.5296754 17.4,21.3888112 C17.4,20.5296754 16.940764,19.7360713 16.1958813,19.3079778 L16.1958813,19.3079778 Z" id="center-corner" fill="#4ED4FF" mask="url(#mask-17)"></path>
                                    </g>
                                </g>
                                <g id="icon/generic/kintoblock/blue" transform="translate(28.000000, 74.000000)">
                                    <g id="cube" transform="translate(2.800000, 0.000000)">
                                        <mask id="mask-22" fill="white">
                                            <use xlink:href="#path-21"></use>
                                        </mask>
                                        <use id="base" fill="#2CC4DA" xlink:href="#path-21"></use>
                                        <path d="M17.4,21.3888112 L17.4,38.6175227 C17.4,39.0593505 17.0418278,39.4175227 16.6,39.4175227 C16.4601079,39.4175227 16.3226613,39.3808398 16.2013729,39.3111339 L0,30 L-8.8817842e-16,11.3824773 C-9.4228672e-16,10.9406495 0.3581722,10.5824773 0.8,10.5824773 C0.939892084,10.5824773 1.07733871,10.6191602 1.1986271,10.6888661 L16.1958813,19.3079778 C16.940764,19.7360713 17.4,20.5296754 17.4,21.3888112 Z" id="left" fill="#00A3C7" opacity="0.800000012" mask="url(#mask-22)"></path>
                                        <path d="M34.8,11.3824773 L34.8,30 L18.5986271,39.3111339 C18.2155562,39.5312895 17.7265445,39.3992207 17.5063888,39.0161498 C17.4366829,38.8948614 17.4,38.7574148 17.4,38.6175227 L17.4,21.3888112 C17.4,20.5296754 17.859236,19.7360713 18.6041187,19.3079778 L33.6013729,10.6888661 C33.9844438,10.4687105 34.4734555,10.6007793 34.6936112,10.9838502 C34.7633171,11.1051386 34.8,11.2425852 34.8,11.3824773 Z" id="right" fill="#1EC4E9" opacity="0.900000036" mask="url(#mask-22)"></path>
                                        <path d="M17.4,1.38247731 L17.4,18.6111888 C17.4,19.4703246 16.940764,20.2639287 16.1958813,20.6920222 L1.1986271,29.3111339 C0.815556237,29.5312895 0.326544513,29.3992207 0.106388845,29.0161498 C0.0366828748,28.8948614 5.38074374e-14,28.7574148 5.37903055e-14,28.6175227 L5.72319969e-14,10 L16.2013729,0.68886615 C16.5844438,0.468710481 17.0734555,0.600779341 17.2936112,0.983850204 C17.3633171,1.10513859 17.4,1.24258522 17.4,1.38247731 Z" id="back" fill="url(#linearGradient-18)" opacity="0.200237772" mask="url(#mask-22)"></path>
                                        <path d="M18.5958813,20.6872881 L33.5931166,29.3063888 C33.9761875,29.5265445 34.1082563,30.0155562 33.8881006,30.3986271 C33.8175915,30.5213131 33.7158026,30.623102 33.5931166,30.6936112 L17.4,40 L1.20688341,30.6936112 C0.823812547,30.4734555 0.691743687,29.9844438 0.911899356,29.6013729 C0.982408534,29.4786869 1.08419744,29.376898 1.20688341,29.3063888 L16.2041187,20.6872881 C16.9445851,20.2617327 17.8554149,20.2617327 18.5958813,20.6872881 Z" id="bottom" fill="url(#linearGradient-19)" opacity="0.0600000024" mask="url(#mask-22)"></path>
                                        <path d="M17.4,0 L33.5931166,9.30638884 C33.9761875,9.52654451 34.1082563,10.0155562 33.8881006,10.3986271 C33.8175915,10.5213131 33.7158026,10.623102 33.5931166,10.6936112 L18.5958813,19.3127119 C17.8554149,19.7382673 16.9445851,19.7382673 16.2041187,19.3127119 L1.20688341,10.6936112 C0.823812547,10.4734555 0.691743687,9.98444376 0.911899356,9.6013729 C0.982408534,9.47868693 1.08419744,9.37689802 1.20688341,9.30638884 L17.4,0 Z" id="top" fill="url(#linearGradient-20)" mask="url(#mask-22)"></path>
                                        <path d="M1.20688341,9.30638884 C1.08419744,9.37689802 0.982408534,9.47868693 0.911899356,9.6013729 C0.69323743,9.98184465 0.822036603,10.4668245 1.19912077,10.6890929 C1.07733871,10.6191602 0.939892084,10.5824773 0.8,10.5824773 C0.361117126,10.5824773 0.00477838513,10.9358907 4.76557915e-05,11.3736538 C0.00541377441,10.5203497 0.463618562,9.73355255 1.2041187,9.30797776 L1.20688341,9.30638884 L1.20688341,9.30638884 Z" id="left-corner" fill="#67D7F8" mask="url(#mask-22)"></path>
                                        <path d="M33.5931166,9.30638884 L33.5958813,9.30797776 C34.3364432,9.73358805 34.7946627,10.5204809 34.7999537,11.3738673 C34.7984804,11.2369502 34.7618865,11.1026493 34.6936112,10.9838502 C34.4734555,10.6007793 33.9844438,10.4687105 33.6013729,10.6888661 C33.7201303,10.6187505 33.8190953,10.5186964 33.8881006,10.3986271 C34.1082563,10.0155562 33.9761875,9.52654451 33.5931166,9.30638884 L33.5931166,9.30638884 Z" id="right-corner" fill="#88ECFE" mask="url(#mask-22)"></path>
                                        <path d="M16.1958813,19.3079778 L16.2041187,19.3127119 C16.9445851,19.7382673 17.8554149,19.7382673 18.5958813,19.3127119 L18.6041187,19.3079778 C17.859236,19.7360713 17.4,20.5296754 17.4,21.3888112 C17.4,20.5296754 16.940764,19.7360713 16.1958813,19.3079778 L16.1958813,19.3079778 Z" id="center-corner" fill="#4ED4FF" mask="url(#mask-22)"></path>
                                    </g>
                                </g>
                                <g id="icon/generic/kintoblock/blue" transform="translate(80.000000, 74.000000)">
                                    <g id="cube" transform="translate(2.800000, 0.000000)">
                                        <mask id="mask-24" fill="white">
                                            <use xlink:href="#path-23"></use>
                                        </mask>
                                        <use id="base" fill="#2CC4DA" xlink:href="#path-23"></use>
                                        <path d="M17.4,21.3888112 L17.4,38.6175227 C17.4,39.0593505 17.0418278,39.4175227 16.6,39.4175227 C16.4601079,39.4175227 16.3226613,39.3808398 16.2013729,39.3111339 L0,30 L-8.8817842e-16,11.3824773 C-9.4228672e-16,10.9406495 0.3581722,10.5824773 0.8,10.5824773 C0.939892084,10.5824773 1.07733871,10.6191602 1.1986271,10.6888661 L16.1958813,19.3079778 C16.940764,19.7360713 17.4,20.5296754 17.4,21.3888112 Z" id="left" fill="#00A3C7" opacity="0.800000012" mask="url(#mask-24)"></path>
                                        <path d="M34.8,11.3824773 L34.8,30 L18.5986271,39.3111339 C18.2155562,39.5312895 17.7265445,39.3992207 17.5063888,39.0161498 C17.4366829,38.8948614 17.4,38.7574148 17.4,38.6175227 L17.4,21.3888112 C17.4,20.5296754 17.859236,19.7360713 18.6041187,19.3079778 L33.6013729,10.6888661 C33.9844438,10.4687105 34.4734555,10.6007793 34.6936112,10.9838502 C34.7633171,11.1051386 34.8,11.2425852 34.8,11.3824773 Z" id="right" fill="#1EC4E9" opacity="0.900000036" mask="url(#mask-24)"></path>
                                        <path d="M17.4,1.38247731 L17.4,18.6111888 C17.4,19.4703246 16.940764,20.2639287 16.1958813,20.6920222 L1.1986271,29.3111339 C0.815556237,29.5312895 0.326544513,29.3992207 0.106388845,29.0161498 C0.0366828748,28.8948614 5.38074374e-14,28.7574148 5.37903055e-14,28.6175227 L5.72319969e-14,10 L16.2013729,0.68886615 C16.5844438,0.468710481 17.0734555,0.600779341 17.2936112,0.983850204 C17.3633171,1.10513859 17.4,1.24258522 17.4,1.38247731 Z" id="back" fill="url(#linearGradient-18)" opacity="0.200237772" mask="url(#mask-24)"></path>
                                        <path d="M18.5958813,20.6872881 L33.5931166,29.3063888 C33.9761875,29.5265445 34.1082563,30.0155562 33.8881006,30.3986271 C33.8175915,30.5213131 33.7158026,30.623102 33.5931166,30.6936112 L17.4,40 L1.20688341,30.6936112 C0.823812547,30.4734555 0.691743687,29.9844438 0.911899356,29.6013729 C0.982408534,29.4786869 1.08419744,29.376898 1.20688341,29.3063888 L16.2041187,20.6872881 C16.9445851,20.2617327 17.8554149,20.2617327 18.5958813,20.6872881 Z" id="bottom" fill="url(#linearGradient-19)" opacity="0.0600000024" mask="url(#mask-24)"></path>
                                        <path d="M17.4,0 L33.5931166,9.30638884 C33.9761875,9.52654451 34.1082563,10.0155562 33.8881006,10.3986271 C33.8175915,10.5213131 33.7158026,10.623102 33.5931166,10.6936112 L18.5958813,19.3127119 C17.8554149,19.7382673 16.9445851,19.7382673 16.2041187,19.3127119 L1.20688341,10.6936112 C0.823812547,10.4734555 0.691743687,9.98444376 0.911899356,9.6013729 C0.982408534,9.47868693 1.08419744,9.37689802 1.20688341,9.30638884 L17.4,0 Z" id="top" fill="url(#linearGradient-20)" mask="url(#mask-24)"></path>
                                        <path d="M1.20688341,9.30638884 C1.08419744,9.37689802 0.982408534,9.47868693 0.911899356,9.6013729 C0.69323743,9.98184465 0.822036603,10.4668245 1.19912077,10.6890929 C1.07733871,10.6191602 0.939892084,10.5824773 0.8,10.5824773 C0.361117126,10.5824773 0.00477838513,10.9358907 4.76557915e-05,11.3736538 C0.00541377441,10.5203497 0.463618562,9.73355255 1.2041187,9.30797776 L1.20688341,9.30638884 L1.20688341,9.30638884 Z" id="left-corner" fill="#67D7F8" mask="url(#mask-24)"></path>
                                        <path d="M33.5931166,9.30638884 L33.5958813,9.30797776 C34.3364432,9.73358805 34.7946627,10.5204809 34.7999537,11.3738673 C34.7984804,11.2369502 34.7618865,11.1026493 34.6936112,10.9838502 C34.4734555,10.6007793 33.9844438,10.4687105 33.6013729,10.6888661 C33.7201303,10.6187505 33.8190953,10.5186964 33.8881006,10.3986271 C34.1082563,10.0155562 33.9761875,9.52654451 33.5931166,9.30638884 L33.5931166,9.30638884 Z" id="right-corner" fill="#88ECFE" mask="url(#mask-24)"></path>
                                        <path d="M16.1958813,19.3079778 L16.2041187,19.3127119 C16.9445851,19.7382673 17.8554149,19.7382673 18.5958813,19.3127119 L18.6041187,19.3079778 C17.859236,19.7360713 17.4,20.5296754 17.4,21.3888112 C17.4,20.5296754 16.940764,19.7360713 16.1958813,19.3079778 L16.1958813,19.3079778 Z" id="center-corner" fill="#4ED4FF" mask="url(#mask-24)"></path>
                                    </g>
                                </g>
                                <g id="icon/generic/kintoblock/blue" transform="translate(54.000000, 90.000000)">
                                    <g id="cube" transform="translate(2.800000, 0.000000)">
                                        <mask id="mask-26" fill="white">
                                            <use xlink:href="#path-25"></use>
                                        </mask>
                                        <use id="base" fill="#2CC4DA" xlink:href="#path-25"></use>
                                        <path d="M17.4,21.3888112 L17.4,38.6175227 C17.4,39.0593505 17.0418278,39.4175227 16.6,39.4175227 C16.4601079,39.4175227 16.3226613,39.3808398 16.2013729,39.3111339 L0,30 L-8.8817842e-16,11.3824773 C-9.4228672e-16,10.9406495 0.3581722,10.5824773 0.8,10.5824773 C0.939892084,10.5824773 1.07733871,10.6191602 1.1986271,10.6888661 L16.1958813,19.3079778 C16.940764,19.7360713 17.4,20.5296754 17.4,21.3888112 Z" id="left" fill="#00A3C7" opacity="0.800000012" mask="url(#mask-26)"></path>
                                        <path d="M34.8,11.3824773 L34.8,30 L18.5986271,39.3111339 C18.2155562,39.5312895 17.7265445,39.3992207 17.5063888,39.0161498 C17.4366829,38.8948614 17.4,38.7574148 17.4,38.6175227 L17.4,21.3888112 C17.4,20.5296754 17.859236,19.7360713 18.6041187,19.3079778 L33.6013729,10.6888661 C33.9844438,10.4687105 34.4734555,10.6007793 34.6936112,10.9838502 C34.7633171,11.1051386 34.8,11.2425852 34.8,11.3824773 Z" id="right" fill="#1EC4E9" opacity="0.900000036" mask="url(#mask-26)"></path>
                                        <path d="M17.4,1.38247731 L17.4,18.6111888 C17.4,19.4703246 16.940764,20.2639287 16.1958813,20.6920222 L1.1986271,29.3111339 C0.815556237,29.5312895 0.326544513,29.3992207 0.106388845,29.0161498 C0.0366828748,28.8948614 5.38074374e-14,28.7574148 5.37903055e-14,28.6175227 L5.72319969e-14,10 L16.2013729,0.68886615 C16.5844438,0.468710481 17.0734555,0.600779341 17.2936112,0.983850204 C17.3633171,1.10513859 17.4,1.24258522 17.4,1.38247731 Z" id="back" fill="url(#linearGradient-18)" opacity="0.200237772" mask="url(#mask-26)"></path>
                                        <path d="M18.5958813,20.6872881 L33.5931166,29.3063888 C33.9761875,29.5265445 34.1082563,30.0155562 33.8881006,30.3986271 C33.8175915,30.5213131 33.7158026,30.623102 33.5931166,30.6936112 L17.4,40 L1.20688341,30.6936112 C0.823812547,30.4734555 0.691743687,29.9844438 0.911899356,29.6013729 C0.982408534,29.4786869 1.08419744,29.376898 1.20688341,29.3063888 L16.2041187,20.6872881 C16.9445851,20.2617327 17.8554149,20.2617327 18.5958813,20.6872881 Z" id="bottom" fill="url(#linearGradient-19)" opacity="0.0600000024" mask="url(#mask-26)"></path>
                                        <path d="M17.4,0 L33.5931166,9.30638884 C33.9761875,9.52654451 34.1082563,10.0155562 33.8881006,10.3986271 C33.8175915,10.5213131 33.7158026,10.623102 33.5931166,10.6936112 L18.5958813,19.3127119 C17.8554149,19.7382673 16.9445851,19.7382673 16.2041187,19.3127119 L1.20688341,10.6936112 C0.823812547,10.4734555 0.691743687,9.98444376 0.911899356,9.6013729 C0.982408534,9.47868693 1.08419744,9.37689802 1.20688341,9.30638884 L17.4,0 Z" id="top" fill="url(#linearGradient-20)" mask="url(#mask-26)"></path>
                                        <path d="M1.20688341,9.30638884 C1.08419744,9.37689802 0.982408534,9.47868693 0.911899356,9.6013729 C0.69323743,9.98184465 0.822036603,10.4668245 1.19912077,10.6890929 C1.07733871,10.6191602 0.939892084,10.5824773 0.8,10.5824773 C0.361117126,10.5824773 0.00477838513,10.9358907 4.76557915e-05,11.3736538 C0.00541377441,10.5203497 0.463618562,9.73355255 1.2041187,9.30797776 L1.20688341,9.30638884 L1.20688341,9.30638884 Z" id="left-corner" fill="#67D7F8" mask="url(#mask-26)"></path>
                                        <path d="M33.5931166,9.30638884 L33.5958813,9.30797776 C34.3364432,9.73358805 34.7946627,10.5204809 34.7999537,11.3738673 C34.7984804,11.2369502 34.7618865,11.1026493 34.6936112,10.9838502 C34.4734555,10.6007793 33.9844438,10.4687105 33.6013729,10.6888661 C33.7201303,10.6187505 33.8190953,10.5186964 33.8881006,10.3986271 C34.1082563,10.0155562 33.9761875,9.52654451 33.5931166,9.30638884 L33.5931166,9.30638884 Z" id="right-corner" fill="#88ECFE" mask="url(#mask-26)"></path>
                                        <path d="M16.1958813,19.3079778 L16.2041187,19.3127119 C16.9445851,19.7382673 17.8554149,19.7382673 18.5958813,19.3127119 L18.6041187,19.3079778 C17.859236,19.7360713 17.4,20.5296754 17.4,21.3888112 C17.4,20.5296754 16.940764,19.7360713 16.1958813,19.3079778 L16.1958813,19.3079778 Z" id="center-corner" fill="#4ED4FF" mask="url(#mask-26)"></path>
                                    </g>
                                </g>
                            </g>
                        </g>
                    </g>
                </g>
            </g>
        </g>
    </g>
</svg>