<?xml version="1.0" encoding="UTF-8"?>
<svg width="160px" height="160px" viewBox="0 0 160 160" version="1.1" xmlns="http://www.w3.org/2000/svg" xmlns:xlink="http://www.w3.org/1999/xlink">
    <!-- Generator: Sketch 54.1 (76490) - https://sketchapp.com -->
    <title>homepage-for-devs</title>
    <desc>Created with Sketch.</desc>
    <defs>
        <linearGradient x1="50%" y1="0%" x2="50%" y2="100%" id="linearGradient-1">
            <stop stop-color="#FFFFFF" stop-opacity="0.798262002" offset="0%"></stop>
            <stop stop-color="#FFFFFF" offset="100%"></stop>
        </linearGradient>
        <linearGradient x1="50%" y1="0%" x2="50%" y2="100%" id="linearGradient-2">
            <stop stop-color="#FFFFFF" offset="0%"></stop>
            <stop stop-color="#F6F0FF" offset="100%"></stop>
        </linearGradient>
        <path d="M33,32 C40.1797017,32 44,25.836556 45,16 C46,6.163444 40.1797017,0 33,0 C25.8202983,0 20,6.163444 21,16 C22,25.836556 25.8202983,32 33,32 Z" id="path-3"></path>
        <filter x="-28.9%" y="-15.6%" width="157.8%" height="143.8%" filterUnits="objectBoundingBox" id="filter-4">
            <feOffset dx="0" dy="2" in="SourceAlpha" result="shadowOffsetOuter1"></feOffset>
            <feGaussianBlur stdDeviation="2" in="shadowOffsetOuter1" result="shadowBlurOuter1"></feGaussianBlur>
            <feColorMatrix values="0 0 0 0 0.0470588235   0 0 0 0 0.295867967   0 0 0 0 0.364705882  0 0 0 0.101336051 0" type="matrix" in="shadowBlurOuter1"></feColorMatrix>
        </filter>
        <path d="M16.7362932,0.618559294 L30.2362932,8.37717998 C30.9066876,8.76246414 31.32,9.4767079 31.32,10.2499301 L31.32,25.7500699 C31.32,26.5232921 30.9066876,27.2375359 30.2362932,27.62282 L16.7362932,35.3814407 C16.0698734,35.7644405 15.2501266,35.7644405 14.5837068,35.3814407 L1.08370683,27.62282 C0.413312399,27.2375359 5.81736168e-14,26.5232921 5.9452443e-14,25.7500699 L5.76760861e-14,10.2499301 C5.8268153e-14,9.4767079 0.413312399,8.76246414 1.08370683,8.37717998 L14.5837068,0.618559294 C15.2501266,0.235559453 16.0698734,0.235559453 16.7362932,0.618559294 Z" id="path-5"></path>
        <linearGradient x1="100%" y1="131.88326%" x2="100%" y2="0%" id="linearGradient-7">
            <stop stop-color="#1488A2" stop-opacity="0" offset="0%"></stop>
            <stop stop-color="#1488A2" offset="100%"></stop>
        </linearGradient>
        <linearGradient x1="100%" y1="50%" x2="50%" y2="33.4852689%" id="linearGradient-8">
            <stop stop-color="#0C4E5D" offset="0%"></stop>
            <stop stop-color="#0C4E5D" stop-opacity="0" offset="100%"></stop>
        </linearGradient>
        <linearGradient x1="50%" y1="2.18783454%" x2="50%" y2="98.0149872%" id="linearGradient-9">
            <stop stop-color="#7FF0FF" stop-opacity="0.698228034" offset="0%"></stop>
            <stop stop-color="#7FF0FF" offset="100%"></stop>
        </linearGradient>
        <linearGradient x1="50%" y1="100%" x2="50%" y2="3.061617e-15%" id="linearGradient-10">
            <stop stop-color="#F4F7F8" offset="0%"></stop>
            <stop stop-color="#FFFFFF" offset="100%"></stop>
        </linearGradient>
    </defs>
    <g id="WIP---May" stroke="none" stroke-width="1" fill="none" fill-rule="evenodd">
        <g id="1---homepage" transform="translate(-480.000000, -3480.000000)">
            <g id="main">
                <g id="content">
                    <g id="Group-11" transform="translate(0.000000, 3220.000000)">
                        <g id="homepage-for-devs" transform="translate(480.000000, 260.000000)">
                            <circle id="Oval-6" fill="#D0B2FF" cx="80" cy="80" r="80"></circle>
                            <g id="Group-10" transform="translate(47.000000, 32.000000)">
                                <path d="M33,71 C29.7325652,71 26.8745745,71.4414654 24.3331455,71.9673761 C24.418145,72.2651029 24.4844164,82.5458303 24.5306052,82.8077799 C25.7811957,89.9002308 24.5653655,95.5735324 19.9013453,96.8653355 C15.237325,98.1571386 8.96385901,84.7461089 4.93091659,74.4422548 C3.96595351,72.1644463 2.99953015,69.3885106 2,66 C-4.35559898,44.4538623 16.9541596,45.1646117 24.6969152,37.4410854 C25.7408185,36.3972911 26.7141334,34.2630379 27,33 C28,28.581722 27.2385763,20.9163153 33,20.9163153 C38.7614237,20.9163153 38,28.581722 39,33 C39.2849501,34.2589889 40.2614875,36.3926708 41.3108939,37.441924 C48.9684055,45.0756797 69.5086432,44.485743 64.3491959,64.7312418 C63.7232356,67.5417673 62.6605087,70.8481213 61.2537599,74.4422548 C57.2208175,84.7461089 50.9473515,98.1571386 46.2833313,96.8653355 C41.619311,95.5735324 40.4034809,89.9002308 41.6540713,82.8077799 C41.6983777,82.5565061 41.7611631,72.2879539 41.841232,72.003693 C39.2563158,71.4619491 36.3423789,71 33,71 Z" id="Combined-Shape" fill="url(#linearGradient-1)"></path>
                                <g id="Oval-2">
                                    <use fill="black" fill-opacity="1" filter="url(#filter-4)" xlink:href="#path-3"></use>
                                    <use fill="url(#linearGradient-2)" fill-rule="evenodd" xlink:href="#path-3"></use>
                                </g>
                                <g id="icon/generic/kintoblock/blue" transform="translate(15.000000, 43.000000)">
                                    <g id="cube" transform="translate(2.520000, 0.000000)">
                                        <mask id="mask-6" fill="white">
                                            <use xlink:href="#path-5"></use>
                                        </mask>
                                        <use id="base" fill="#2CC4DA" xlink:href="#path-5"></use>
                                        <path d="M15.66,19.2499301 L15.66,34.7557704 C15.66,35.1534154 15.337645,35.4757704 14.94,35.4757704 C14.8140971,35.4757704 14.6903952,35.4427558 14.5812356,35.3800205 L0,27 L-7.77156117e-16,10.2442296 C-6.49263725e-16,9.84658455 0.32235498,9.52422957 0.72,9.52422957 C0.845902876,9.52422957 0.969604842,9.55724416 1.07876439,9.61997953 L14.5762932,17.37718 C15.2466876,17.7624641 15.66,18.4767079 15.66,19.2499301 Z" id="left" fill="#00A3C7" opacity="0.800000012" mask="url(#mask-6)"></path>
                                        <path d="M31.32,10.2442296 L31.32,27 L16.7387644,35.3800205 C16.3940006,35.5781606 15.9538901,35.4592986 15.75575,35.1145348 C15.6930146,35.0053753 15.66,34.8816733 15.66,34.7557704 L15.66,19.2499301 C15.66,18.4767079 16.0733124,17.7624641 16.7437068,17.37718 L30.2412356,9.61997953 C30.5859994,9.42183943 31.0261099,9.54070141 31.22425,9.88546518 C31.2869854,9.99462473 31.32,10.1183267 31.32,10.2442296 Z" id="right" fill="#1EC4E9" opacity="0.900000036" mask="url(#mask-6)"></path>
                                        <path d="M15.66,1.24422957 L15.66,16.7500699 C15.66,17.5232921 15.2466876,18.2375359 14.5762932,18.62282 L1.07876439,26.3800205 C0.734000614,26.5781606 0.293890062,26.4592986 0.0957499603,26.1145348 C0.0330145873,26.0053753 5.43656472e-14,25.8816733 5.36792832e-14,25.7557704 L5.72319969e-14,9 L14.5812356,0.619979535 C14.9259994,0.421839433 15.3661099,0.540701407 15.56425,0.885465184 C15.6269854,0.994624733 15.66,1.1183267 15.66,1.24422957 Z" id="back" fill="url(#linearGradient-7)" opacity="0.200237772" mask="url(#mask-6)"></path>
                                        <path d="M16.7362932,18.6185593 L30.2338049,26.37575 C30.5785687,26.5738901 30.6974307,27.0140006 30.4992906,27.3587644 C30.4358323,27.4691818 30.3442223,27.5607918 30.2338049,27.62425 L15.66,36 L1.08619507,27.62425 C0.741431292,27.4261099 0.622569318,26.9859994 0.82070942,26.6412356 C0.884167681,26.5308182 0.975777696,26.4392082 1.08619507,26.37575 L14.5837068,18.6185593 C15.2501266,18.2355595 16.0698734,18.2355595 16.7362932,18.6185593 Z" id="bottom" fill="url(#linearGradient-8)" opacity="0.0600000024" mask="url(#mask-6)"></path>
                                        <path d="M15.66,0 L30.2338049,8.37574996 C30.5785687,8.57389006 30.6974307,9.01400061 30.4992906,9.35876439 C30.4358323,9.46918176 30.3442223,9.56079178 30.2338049,9.62425004 L16.7362932,17.3814407 C16.0698734,17.7644405 15.2501266,17.7644405 14.5837068,17.3814407 L1.08619507,9.62425004 C0.741431292,9.42610994 0.622569318,8.98599939 0.82070942,8.64123561 C0.884167681,8.53081824 0.975777696,8.43920822 1.08619507,8.37574996 L15.66,0 Z" id="top" fill="url(#linearGradient-9)" mask="url(#mask-6)"></path>
                                        <path d="M1.08619507,8.37574996 C0.975777696,8.43920822 0.884167681,8.53081824 0.82070942,8.64123561 C0.623913687,8.98366018 0.739832943,9.42014208 1.07920869,9.62018362 C0.969604842,9.55724416 0.845902876,9.52422957 0.72,9.52422957 C0.325005414,9.52422957 0.00430054662,9.84230167 4.28902124e-05,10.2362884 C0.00487239697,9.4683147 0.417256706,8.7601973 1.08370683,8.37717998 L1.08619507,8.37574996 L1.08619507,8.37574996 Z" id="left-corner" fill="#67D7F8" mask="url(#mask-6)"></path>
                                        <path d="M30.2338049,8.37574996 L30.2362932,8.37717998 C30.9027989,8.76022924 31.3151964,9.46843282 31.3199583,10.2364806 C31.3186323,10.1132552 31.2856979,9.99238439 31.22425,9.88546518 C31.0261099,9.54070141 30.5859994,9.42183943 30.2412356,9.61997953 C30.3481173,9.55687546 30.4371858,9.46682675 30.4992906,9.35876439 C30.6974307,9.01400061 30.5785687,8.57389006 30.2338049,8.37574996 L30.2338049,8.37574996 Z" id="right-corner" fill="#88ECFE" mask="url(#mask-6)"></path>
                                        <path d="M14.5762932,17.37718 L14.5837068,17.3814407 C15.2501266,17.7644405 16.0698734,17.7644405 16.7362932,17.3814407 L16.7437068,17.37718 C16.0733124,17.7624641 15.66,18.4767079 15.66,19.2499301 C15.66,18.4767079 15.2466876,17.7624641 14.5762932,17.37718 L14.5762932,17.37718 Z" id="center-corner" fill="#4ED4FF" mask="url(#mask-6)"></path>
                                    </g>
                                </g>
                                <path d="M20,97 C24.8727274,97 26.6440159,85.4223452 26.6440159,73.7303684 C26.6440159,62.0383917 22.4355195,57.2229061 20,59.465817 C17.5644805,61.708728 21.752491,66.0439886 17.9949695,78.5475011 C14.2374479,91.0510137 15.1272726,97 20,97 Z" id="Oval-7" fill="url(#linearGradient-10)"></path>
                                <path d="M44,97 C39.1272726,97 38.2374479,91.0510137 41.9949695,78.5475011 C45.752491,66.0439886 41.5644805,61.708728 44,59.465817 C46.4355195,57.2229061 50.6440159,62.0383917 50.6440159,73.7303684 C50.6440159,85.4223452 48.8727274,97 44,97 Z" id="Oval-7-Copy" fill="url(#linearGradient-10)" transform="translate(45.157256, 77.965273) scale(-1, 1) translate(-45.157256, -77.965273) "></path>
                            </g>
                        </g>
                    </g>
                </g>
            </g>
        </g>
    </g>
</svg>