<?xml version="1.0" encoding="UTF-8"?>
<svg width="160px" height="160px" viewBox="0 0 160 160" version="1.1" xmlns="http://www.w3.org/2000/svg" xmlns:xlink="http://www.w3.org/1999/xlink">
    <!-- Generator: Sketch 54.1 (76490) - https://sketchapp.com -->
    <title>homepage-for-devops</title>
    <desc>Created with Sketch.</desc>
    <defs>
        <linearGradient x1="50%" y1="66.6142502%" x2="50%" y2="94.7393145%" id="linearGradient-1">
            <stop stop-color="#FFFFFF" offset="0%"></stop>
            <stop stop-color="#A5B5FF" offset="100%"></stop>
        </linearGradient>
        <linearGradient x1="50%" y1="0%" x2="50%" y2="100%" id="linearGradient-2">
            <stop stop-color="#FFFFFF" stop-opacity="0.798262002" offset="0%"></stop>
            <stop stop-color="#FFFFFF" offset="100%"></stop>
        </linearGradient>
        <linearGradient x1="50%" y1="0%" x2="50%" y2="100%" id="linearGradient-3">
            <stop stop-color="#FFFFFF" offset="0%"></stop>
            <stop stop-color="#EEF0FF" offset="100%"></stop>
        </linearGradient>
        <path d="M33,32 C40.1797017,32 44,25.836556 45,16 C46,6.163444 40.1797017,0 33,0 C25.8202983,0 20,6.163444 21,16 C22,25.836556 25.8202983,32 33,32 Z" id="path-4"></path>
        <filter x="-28.9%" y="-15.6%" width="157.8%" height="143.8%" filterUnits="objectBoundingBox" id="filter-5">
            <feOffset dx="0" dy="2" in="SourceAlpha" result="shadowOffsetOuter1"></feOffset>
            <feGaussianBlur stdDeviation="2" in="shadowOffsetOuter1" result="shadowBlurOuter1"></feGaussianBlur>
            <feColorMatrix values="0 0 0 0 0.0470588235   0 0 0 0 0.295867967   0 0 0 0 0.364705882  0 0 0 0.101336051 0" type="matrix" in="shadowBlurOuter1"></feColorMatrix>
        </filter>
        <path d="M16.7362932,0.618559294 L30.2362932,8.37717998 C30.9066876,8.76246414 31.32,9.4767079 31.32,10.2499301 L31.32,25.7500699 C31.32,26.5232921 30.9066876,27.2375359 30.2362932,27.62282 L16.7362932,35.3814407 C16.0698734,35.7644405 15.2501266,35.7644405 14.5837068,35.3814407 L1.08370683,27.62282 C0.413312399,27.2375359 5.81736168e-14,26.5232921 5.9452443e-14,25.7500699 L5.76760861e-14,10.2499301 C5.8268153e-14,9.4767079 0.413312399,8.76246414 1.08370683,8.37717998 L14.5837068,0.618559294 C15.2501266,0.235559453 16.0698734,0.235559453 16.7362932,0.618559294 Z" id="path-6"></path>
        <linearGradient x1="100%" y1="131.88326%" x2="100%" y2="0%" id="linearGradient-8">
            <stop stop-color="#1488A2" stop-opacity="0.299278846" offset="0%"></stop>
            <stop stop-color="#00303B" offset="100%"></stop>
        </linearGradient>
        <linearGradient x1="100%" y1="50%" x2="50%" y2="33.4852689%" id="linearGradient-9">
            <stop stop-color="#0C4E5D" offset="0%"></stop>
            <stop stop-color="#0C4E5D" stop-opacity="0" offset="100%"></stop>
        </linearGradient>
        <linearGradient x1="50%" y1="2.18783454%" x2="50%" y2="98.0149872%" id="linearGradient-10">
            <stop stop-color="#7FF0FF" stop-opacity="0.904283217" offset="0%"></stop>
            <stop stop-color="#7FF0FF" offset="100%"></stop>
        </linearGradient>
        <linearGradient x1="50%" y1="100%" x2="50%" y2="3.061617e-15%" id="linearGradient-11">
            <stop stop-color="#F4F7F8" offset="0%"></stop>
            <stop stop-color="#FFFFFF" offset="100%"></stop>
        </linearGradient>
    </defs>
    <g id="WIP---May" stroke="none" stroke-width="1" fill="none" fill-rule="evenodd">
        <g id="1---homepage" transform="translate(-880.000000, -3480.000000)">
            <g id="main">
                <g id="content">
                    <g id="Group-11" transform="translate(0.000000, 3220.000000)">
                        <g id="homepage-for-devops" transform="translate(880.000000, 260.000000)">
                            <circle id="Oval-6" fill="#A5B5FF" cx="80" cy="80" r="80"></circle>
                            <g id="Group-10" transform="translate(47.000000, 32.000000)">
                                <path d="M33,96.8653355 C8.89817438,96.7306709 24.4844164,82.5458303 24.5306052,82.8077799 C25.7811957,89.9002308 24.5653655,95.5735324 19.9013453,96.8653355 C15.237325,98.1571386 8.96385901,84.7461089 4.93091659,74.4422548 C3.96595351,72.1644463 2.99953015,69.3885106 2,66 C-4.35559898,44.4538623 16.9541596,45.1646117 24.6969152,37.4410854 C25.7408185,36.3972911 26.7141334,34.2630379 27,33 C28,28.581722 27.2385763,20.9163153 33,20.9163153 C38.7614237,20.9163153 38,28.581722 39,33 C39.2849501,34.2589889 40.2614875,36.3926708 41.3108939,37.441924 C45.2368277,41.3556783 51.6687454,43.803227 58.0089806,46.0233381 C60.8581398,47.0210062 65.2641825,47.6120756 70.4732191,46.6144075 C78.656773,45.0470409 85.1831433,40.7883905 88.1097052,43 C91.4178862,45.5 87.4000618,52.1636002 76.8575512,55.7649293 C69.2874911,58.3508673 63.5770655,59.406073 59.7262747,58.9305463 C53.7232397,74.5988893 50.02895,84.176302 48.6434056,87.6627844 C46.565089,92.892508 43.9480246,96.9265055 33,96.8653355 Z" id="Combined-Shape" fill="url(#linearGradient-1)"></path>
                                <path d="M33,68.7269104 C21.9608063,68.7269104 24.4844164,82.5458303 24.5306052,82.8077799 C25.7811957,89.9002308 24.5653655,95.5735324 19.9013453,96.8653355 C15.237325,98.1571386 8.96385901,84.7461089 4.93091659,74.4422548 C3.96595351,72.1644463 2.99953015,69.3885106 2,66 C-4.35559898,44.4538623 16.9541596,45.1646117 24.6969152,37.4410854 C25.7408185,36.3972911 26.7141334,34.2630379 27,33 C28,28.581722 27.2385763,20.9163153 33,20.9163153 C38.7614237,20.9163153 38,28.581722 39,33 C39.2849501,34.2589889 40.2614875,36.3926708 41.3108939,37.441924 C45.2368277,41.3556783 51.6687454,43.803227 58.0089806,46.0233381 C60.8581398,47.0210062 65.2641825,47.6120756 70.4732191,46.6144075 C78.656773,45.0470409 85.1831433,40.7883905 88.1097052,43 C91.4178862,45.5 87.4000618,52.1636002 76.8575512,55.7649293 C69.2874911,58.3508673 63.5770655,59.406073 59.7262747,58.9305463 C57.062125,63.3305139 54.1533667,66.0384229 51,67.0542733 C46.2699499,68.578049 43.9482556,68.7269104 33,68.7269104 Z" id="Combined-Shape-Copy-2" fill="url(#linearGradient-2)"></path>
                                <g id="Oval-2">
                                    <use fill="black" fill-opacity="1" filter="url(#filter-5)" xlink:href="#path-4"></use>
                                    <use fill="url(#linearGradient-3)" fill-rule="evenodd" xlink:href="#path-4"></use>
                                </g>
                                <g id="cube" transform="translate(17.520000, 43.000000)">
                                    <mask id="mask-7" fill="white">
                                        <use xlink:href="#path-6"></use>
                                    </mask>
                                    <use id="base" fill="#2CC4DA" xlink:href="#path-6"></use>
                                    <path d="M15.66,19.2499301 L15.66,34.7557704 C15.66,35.1534154 15.337645,35.4757704 14.94,35.4757704 C14.8140971,35.4757704 14.6903952,35.4427558 14.5812356,35.3800205 L0,27 L-7.77156117e-16,10.2442296 C-6.49263725e-16,9.84658455 0.32235498,9.52422957 0.72,9.52422957 C0.845902876,9.52422957 0.969604842,9.55724416 1.07876439,9.61997953 L14.5762932,17.37718 C15.2466876,17.7624641 15.66,18.4767079 15.66,19.2499301 Z" id="left" fill="#00A3C7" opacity="0.800000012" mask="url(#mask-7)"></path>
                                    <path d="M15.66,1.24422957 L15.66,16.7500699 C15.66,17.5232921 15.2466876,18.2375359 14.5762932,18.62282 L1.07876439,26.3800205 C0.734000614,26.5781606 0.293890062,26.4592986 0.0957499603,26.1145348 C0.0330145873,26.0053753 2.41472835e-16,25.8816733 -3.33066907e-16,25.7557704 L-0,9 L14.5812356,0.619979535 C14.9259994,0.421839433 15.3661099,0.540701407 15.56425,0.885465184 C15.6269854,0.994624733 15.66,1.1183267 15.66,1.24422957 Z" id="back" fill="url(#linearGradient-8)" opacity="0.200237772" mask="url(#mask-7)"></path>
                                    <path d="M16.7362932,18.6185593 L30.2338049,26.37575 C30.5785687,26.5738901 30.6974307,27.0140006 30.4992906,27.3587644 C30.4358323,27.4691818 30.3442223,27.5607918 30.2338049,27.62425 L15.66,36 L1.08619507,27.62425 C0.741431292,27.4261099 0.622569318,26.9859994 0.82070942,26.6412356 C0.884167681,26.5308182 0.975777696,26.4392082 1.08619507,26.37575 L14.5837068,18.6185593 C15.2501266,18.2355595 16.0698734,18.2355595 16.7362932,18.6185593 Z" id="bottom" fill="url(#linearGradient-9)" opacity="0.0600000024" mask="url(#mask-7)"></path>
                                    <path d="M22.6127062,16.8324919 L23.6533085,18.5390796 L22.5390796,19.6533085 L20.8324919,18.6127062 C20.4979095,18.8028711 20.1378488,18.9533854 19.7587011,19.0578581 L19.2878788,21 L17.7121212,21 L17.2412989,19.0578581 C16.8621512,18.9533854 16.5020905,18.8028711 16.1675081,18.6127062 L14.4609204,19.6533085 L13.3466915,18.5390796 L14.3872938,16.8324919 C14.1971289,16.4979095 14.0466146,16.1378488 13.9421419,15.7587011 L12,15.2878788 L12,13.7121212 L13.9421419,13.2412989 C14.0466146,12.8621512 14.1971289,12.5020905 14.3872938,12.1675081 L13.3466915,10.4609204 L14.4609204,9.34669149 L16.1675081,10.3872938 C16.5020905,10.1971289 16.8621512,10.0466146 17.2412989,9.94214194 L17.7121212,8 L19.2878788,8 L19.7587011,9.94214194 C20.1378488,10.0466146 20.4979095,10.1971289 20.8324919,10.3872938 L22.5390796,9.34669149 L23.6533085,10.4609204 L22.6127062,12.1675081 C22.8028711,12.5020905 22.9533854,12.8621512 23.0578581,13.2412989 L25,13.7121212 L25,15.2878788 L23.0578581,15.7587011 C22.9533854,16.1378488 22.8028711,16.4979095 22.6127062,16.8324919 Z M18.5,17.4545455 C20.1317504,17.4545455 21.4545455,16.1317504 21.4545455,14.5 C21.4545455,12.8682496 20.1317504,11.5454545 18.5,11.5454545 C16.8682496,11.5454545 15.5454545,12.8682496 15.5454545,14.5 C15.5454545,16.1317504 16.8682496,17.4545455 18.5,17.4545455 Z M18.5,15.6818182 C17.8472998,15.6818182 17.3181818,15.1527002 17.3181818,14.5 C17.3181818,13.8472998 17.8472998,13.3181818 18.5,13.3181818 C19.1527002,13.3181818 19.6818182,13.8472998 19.6818182,14.5 C19.6818182,15.1527002 19.1527002,15.6818182 18.5,15.6818182 Z" id="Combined-Shape" fill="#245B70" mask="url(#mask-7)" transform="translate(18.500000, 14.500000) rotate(10.000000) translate(-18.500000, -14.500000) "></path>
                                    <path d="M27.7145341,11.7559572 L28.2748584,12.674889 L27.674889,13.2748584 L26.7559572,12.7145341 C26.5757974,12.8169306 26.3819186,12.8979768 26.1777621,12.9542313 L25.9242424,14 L25.0757576,14 L24.8222379,12.9542313 C24.6180814,12.8979768 24.4242026,12.8169306 24.2440428,12.7145341 L23.325111,13.2748584 L22.7251416,12.674889 L23.2854659,11.7559572 C23.1830694,11.5757974 23.1020232,11.3819186 23.0457687,11.1777621 L22,10.9242424 L22,10.0757576 L23.0457687,9.82223788 C23.1020232,9.6180814 23.1830694,9.42420256 23.2854659,9.24404282 L22.7251416,8.32511096 L23.325111,7.72514157 L24.2440428,8.28546588 C24.4242026,8.18306942 24.6180814,8.10202322 24.8222379,8.04576874 L25.0757576,7 L25.9242424,7 L26.1777621,8.04576874 C26.3819186,8.10202322 26.5757974,8.18306942 26.7559572,8.28546588 L27.674889,7.72514157 L28.2748584,8.32511096 L27.7145341,9.24404282 C27.8169306,9.42420256 27.8979768,9.6180814 27.9542313,9.82223788 L29,10.0757576 L29,10.9242424 L27.9542313,11.1777621 C27.8979768,11.3819186 27.8169306,11.5757974 27.7145341,11.7559572 Z M25.5,12.0909091 C26.3786348,12.0909091 27.0909091,11.3786348 27.0909091,10.5 C27.0909091,9.62136517 26.3786348,8.90909091 25.5,8.90909091 C24.6213652,8.90909091 23.9090909,9.62136517 23.9090909,10.5 C23.9090909,11.3786348 24.6213652,12.0909091 25.5,12.0909091 Z M25.5,11.1363636 C25.1485461,11.1363636 24.8636364,10.8514539 24.8636364,10.5 C24.8636364,10.1485461 25.1485461,9.86363636 25.5,9.86363636 C25.8514539,9.86363636 26.1363636,10.1485461 26.1363636,10.5 C26.1363636,10.8514539 25.8514539,11.1363636 25.5,11.1363636 Z" id="Combined-Shape-Copy" fill="#245B70" opacity="0.400000006" mask="url(#mask-7)" transform="translate(25.500000, 10.500000) rotate(30.000000) translate(-25.500000, -10.500000) "></path>
                                    <path d="M13.8571988,15.0109631 L12.3711544,17.5109631 C12.1909224,17.8141707 11.8642817,18 11.5115517,18 L8.48844828,18 C8.13571827,18 7.80907763,17.8141707 7.62884562,17.5109631 L6.14280122,15.0109631 C5.95560477,14.696039 5.95560477,14.303961 6.14280122,13.9890369 L7.62884562,11.4890369 C7.80907763,11.1858293 8.13571827,11 8.48844828,11 L11.5115517,11 C11.8642817,11 12.1909224,11.1858293 12.3711544,11.4890369 L13.8571988,13.9890369 C14.0443952,14.303961 14.0443952,14.696039 13.8571988,15.0109631 Z M10,16.1165808 C10.919206,16.1165808 11.6643697,15.3928129 11.6643697,14.5 C11.6643697,13.6071871 10.919206,12.8834192 10,12.8834192 C9.08079398,12.8834192 8.33563028,13.6071871 8.33563028,14.5 C8.33563028,15.3928129 9.08079398,16.1165808 10,16.1165808 Z" id="Combined-Shape" fill="#245B70" opacity="0.400000006" mask="url(#mask-7)" transform="translate(10.000000, 14.500000) rotate(-20.000000) translate(-10.000000, -14.500000) "></path>
                                    <path d="M31.32,10.2442296 L31.32,27 L16.7387644,35.3800205 C16.3940006,35.5781606 15.9538901,35.4592986 15.75575,35.1145348 C15.6930146,35.0053753 15.66,34.8816733 15.66,34.7557704 L15.66,19.2499301 C15.66,18.4767079 16.0733124,17.7624641 16.7437068,17.37718 L30.2412356,9.61997953 C30.5859994,9.42183943 31.0261099,9.54070141 31.22425,9.88546518 C31.2869854,9.99462473 31.32,10.1183267 31.32,10.2442296 Z" id="right" fill="#23D4FC" opacity="0.956333705" mask="url(#mask-7)"></path>
                                    <path d="M15.66,10.2442296 L15.66,27 L1.07876439,35.3800205 C0.734000614,35.5781606 0.293890062,35.4592986 0.0957499603,35.1145348 C0.0330145873,35.0053753 -5.09160726e-15,34.8816733 -5.10702591e-15,34.7557704 L4.4408921e-16,19.2499301 C1.03615607e-15,18.4767079 0.413312399,17.7624641 1.08370683,17.37718 L14.5812356,9.61997953 C14.9259994,9.42183943 15.3661099,9.54070141 15.56425,9.88546518 C15.6269854,9.99462473 15.66,10.1183267 15.66,10.2442296 Z" id="right-copy" fill="#089EBE" opacity="0.936334" mask="url(#mask-7)" transform="translate(7.830000, 22.500000) scale(-1, 1) translate(-7.830000, -22.500000) "></path>
                                    <path d="M1.08619507,8.37574996 C0.975777696,8.43920822 0.884167681,8.53081824 0.82070942,8.64123561 C0.623913687,8.98366018 0.739832943,9.42014208 1.07920869,9.62018362 C0.969604842,9.55724416 0.845902876,9.52422957 0.72,9.52422957 C0.325005414,9.52422957 0.00430054662,9.84230167 4.28902124e-05,10.2362884 C0.00487239697,9.4683147 0.417256706,8.7601973 1.08370683,8.37717998 L1.08619507,8.37574996 L1.08619507,8.37574996 Z" id="left-corner" fill="#67D7F8" mask="url(#mask-7)"></path>
                                    <path d="M30.2338049,8.37574996 L30.2362932,8.37717998 C30.9027989,8.76022924 31.3151964,9.46843282 31.3199583,10.2364806 C31.3186323,10.1132552 31.2856979,9.99238439 31.22425,9.88546518 C31.0261099,9.54070141 30.5859994,9.42183943 30.2412356,9.61997953 C30.3481173,9.55687546 30.4371858,9.46682675 30.4992906,9.35876439 C30.6974307,9.01400061 30.5785687,8.57389006 30.2338049,8.37574996 L30.2338049,8.37574996 Z" id="right-corner" fill="#88ECFE" mask="url(#mask-7)"></path>
                                    <path d="M14.5762932,17.37718 L14.5837068,17.3814407 C15.2501266,17.7644405 16.0698734,17.7644405 16.7362932,17.3814407 L16.7437068,17.37718 C16.0733124,17.7624641 15.66,18.4767079 15.66,19.2499301 C15.66,18.4767079 15.2466876,17.7624641 14.5762932,17.37718 L14.5762932,17.37718 Z" id="center-corner" fill="#4ED4FF" mask="url(#mask-7)"></path>
                                </g>
                                <path d="M33.18,43 L47.9834073,42.0546994 C48.0936398,42.0476603 48.1887071,42.131315 48.1957462,42.2415474 C48.2006005,42.317565 48.1618521,42.3897402 48.0958095,42.4276957 L33.6163669,50.7492144 C33.3293006,50.9141951 33.0081491,51.0109739 32.6777244,51.0320738 L18.3765927,51.9453006 C18.2663602,51.9523397 18.1712929,51.868685 18.1642538,51.7584526 C18.1593995,51.682435 18.1981479,51.6102598 18.2641905,51.5723043 L33.18,43 Z" id="top" fill="url(#linearGradient-10)"></path>
                                <path d="M73.3126366,11.7780909 L74.0688094,29.9262375 C74.134971,31.514116 72.9013757,32.8549805 71.3134972,32.9211421 C71.2735868,32.922805 71.2336461,32.9236367 71.193701,32.9236367 C69.6044447,32.9236367 68.316098,31.63529 68.316098,30.0460337 C68.316098,30.0060886 68.3169297,29.9661479 68.3185926,29.9262375 L69.0747459,11.7785585 C67.1169366,11.2713006 65.6711326,9.49255839 65.6711326,7.37613051 C65.6711326,7.22501796 65.6786647,7.07399933 65.693701,6.92363673 L65.8951898,4.9087483 C66.0646513,3.21413341 67.4906341,1.92363673 69.193701,1.92363673 L69.193701,6.92363673 L71.193701,7.92363673 L73.193701,6.92363673 L73.193701,1.92363673 C74.8967679,1.92363673 76.3227507,3.21413341 76.4922122,4.9087483 L76.693701,6.92363673 C76.9199133,9.18575991 75.4474028,11.2261757 73.3126366,11.7780909 Z M71.193701,30.9236367 C71.7459858,30.9236367 72.193701,30.4759215 72.193701,29.9236367 C72.193701,29.371352 71.7459858,28.9236367 71.193701,28.9236367 C70.6414163,28.9236367 70.193701,29.371352 70.193701,29.9236367 C70.193701,30.4759215 70.6414163,30.9236367 71.193701,30.9236367 Z" id="Combined-Shape" fill="#245B70" transform="translate(71.193871, 17.423637) rotate(40.000000) translate(-71.193871, -17.423637) "></path>
                                <path d="M20,97 C24.8727274,97 26.6440159,85.4223452 26.6440159,73.7303684 C26.6440159,62.0383917 22.4355195,57.2229061 20,59.465817 C17.5644805,61.708728 21.752491,66.0439886 17.9949695,78.5475011 C14.2374479,91.0510137 15.1272726,97 20,97 Z" id="Oval-7" fill="url(#linearGradient-11)"></path>
                                <path d="M75.3494244,52.1765626 C70.476697,52.1765626 69.5868724,46.2275762 73.3443939,33.7240637 C77.1019155,21.2205512 72.913905,16.8852905 75.3494244,14.6423796 C77.7849439,12.3994686 81.9934404,17.2149542 81.9934404,28.906931 C81.9934404,40.5989078 80.2221519,52.1765626 75.3494244,52.1765626 Z" id="Oval-7-Copy" fill="url(#linearGradient-11)" transform="translate(76.506680, 33.141836) scale(-1, 1) rotate(31.000000) translate(-76.506680, -33.141836) "></path>
                            </g>
                        </g>
                    </g>
                </g>
            </g>
        </g>
    </g>
</svg>