<?xml version="1.0" encoding="UTF-8"?>
<svg width="20px" height="20px" viewBox="0 0 20 20" version="1.1" xmlns="http://www.w3.org/2000/svg" xmlns:xlink="http://www.w3.org/1999/xlink">
    <!-- Generator: Sketch 54.1 (76490) - https://sketchapp.com -->
    <title>icon-kintoblock-type-tasks</title>
    <desc>Created with Sketch.</desc>
    <g id="WIP---May" stroke="none" stroke-width="1" fill="none" fill-rule="evenodd">
        <g id="3---build---neutered" transform="translate(-370.000000, -2600.000000)">
            <g id="main">
                <g id="content" transform="translate(0.000000, -310.000000)">
                    <g id="Group-13" transform="translate(0.000000, 2550.000000)">
                        <g id="list" transform="translate(370.000000, 227.000000)">
                            <g id="Group-19" transform="translate(0.000000, 133.000000)">
                                <g id="icon/kintoblock/task/x-small">
                                    <g id="Group" transform="translate(1.000000, 2.000000)">
                                        <path d="M1.05882353,1 L16.9411765,1 C17.5259486,1 18,1.44771525 18,2 L18,14 C18,14.5522847 17.5259486,15 16.9411765,15 L1.05882353,15 C0.474051441,15 7.16139266e-17,14.5522847 0,14 L0,2 C-7.16139266e-17,1.44771525 0.474051441,1 1.05882353,1 Z" id="Mask-Copy" fill="#F78496"></path>
                                        <path d="M0,5 L18,5 L18,14 C18,14.5522847 17.5522847,15 17,15 L3,15 L0,12 L0,5 Z" id="Mask" fill="#FF9E9E"></path>
                                        <path d="M0,12 L2.5,12 C2.77614237,12 3,12.2238576 3,12.5 L3,15 L0,12 Z" id="Rectangle-5" fill="#EF7893"></path>
                                        <path d="M9.16100167,12.1763184 C10.3284991,12.0962746 11.25,11.1524903 11.25,10 C11.25,9.45621628 11.0445674,8.94437723 10.6786402,8.54714151 C10.5406684,8.39736491 10.5540324,8.16748808 10.7084896,8.03369725 C10.8629467,7.89990641 11.1000072,7.91286544 11.237979,8.06264204 C11.7255391,8.5919176 12,9.27574199 12,10 C12,11.5573591 10.7379982,12.8288938 9.15156765,12.9054426 L9.64016497,13.3792339 C9.78661159,13.5212427 9.78661159,13.7514845 9.64016497,13.8934934 C9.49371836,14.0355022 9.25628148,14.0355022 9.10983487,13.8934934 L7.98483484,12.8025843 C7.83838822,12.6605755 7.83838822,12.4303336 7.98483484,12.2883248 L9.10983487,11.1974157 C9.25628148,11.0554069 9.49371836,11.0554069 9.64016497,11.1974157 C9.78661159,11.3394245 9.78661159,11.5696664 9.64016497,11.7116752 L9.16100167,12.1763184 L9.16100167,12.1763184 Z M8.83901013,7.82367 C7.67026211,7.90368146 6.75040569,8.84869542 6.75,9.99911064 C6.74999987,10.5599093 6.96789982,11.0859127 7.35380643,11.4873372 C7.49502831,11.6342378 7.48670332,11.864338 7.33521206,12.0012805 C7.18372079,12.1382229 6.94642991,12.1301502 6.80520803,11.9832496 C6.29109355,11.4484618 5.9999998,10.7457709 6,9.99898621 C6.00054821,8.44433969 7.26001067,7.1712259 8.84843637,7.0945615 L8.35983485,6.6207661 C8.21338823,6.47875727 8.21338823,6.24851546 8.35983485,6.10650663 C8.50628146,5.96449779 8.74371834,5.96449779 8.89016495,6.10650663 L10.015165,7.19741572 C10.1616116,7.33942455 10.1616116,7.56966636 10.015165,7.71167519 L8.89016495,8.80258428 C8.74371834,8.94459312 8.50628146,8.94459312 8.35983485,8.80258428 C8.21338823,8.66057545 8.21338823,8.43033364 8.35983485,8.28832481 L8.83901013,7.82367 L8.83901013,7.82367 Z" id="Combined-Shape" fill="#AA4545"></path>
                                        <path d="M1.05882353,1 L16.9411765,1 C17.5259486,1 18,1.44771525 18,2 L18,5 L0,5 L0,2 C-7.16139266e-17,1.44771525 0.474051441,1 1.05882353,1 Z" id="Rectangle-2" fill="#F46464"></path>
                                        <path d="M2.5,2 C3.05228475,2 3.5,2.44771525 3.5,3 C3.5,3.55228475 3.05228475,4 2.5,4 C1.94771525,4 1.5,3.55228475 1.5,3 C1.5,2.44771525 1.94771525,2 2.5,2 Z" id="Rectangle-Copy" fill="#AA4545"></path>
                                        <path d="M15.5,2 C16.0522847,2 16.5,2.44771525 16.5,3 C16.5,3.55228475 16.0522847,4 15.5,4 C14.9477153,4 14.5,3.55228475 14.5,3 C14.5,2.44771525 14.9477153,2 15.5,2 Z" id="Rectangle-Copy-2" fill="#AA4545"></path>
                                        <path d="M15.5,0 C15.7761424,-5.07265313e-17 16,0.223857625 16,0.5 L16,3 C16,3.27614237 15.7761424,3.5 15.5,3.5 C15.2238576,3.5 15,3.27614237 15,3 L15,0.5 C15,0.223857625 15.2238576,5.07265313e-17 15.5,0 Z" id="Rectangle" fill="#A2B0BD"></path>
                                        <path d="M2.5,0 C2.77614237,-5.07265313e-17 3,0.223857625 3,0.5 L3,3 C3,3.27614237 2.77614237,3.5 2.5,3.5 C2.22385763,3.5 2,3.27614237 2,3 L2,0.5 C2,0.223857625 2.22385763,5.07265313e-17 2.5,0 Z" id="Rectangle-Copy" fill="#A2B0BD"></path>
                                    </g>
                                </g>
                            </g>
                        </g>
                    </g>
                </g>
            </g>
        </g>
    </g>
</svg>