<?xml version="1.0" encoding="UTF-8"?>
<svg width="20px" height="20px" viewBox="0 0 20 20" version="1.1" xmlns="http://www.w3.org/2000/svg" xmlns:xlink="http://www.w3.org/1999/xlink">
    <!-- Generator: Sketch 54.1 (76490) - https://sketchapp.com -->
    <title>icon-github-discussions</title>
    <desc>Created with Sketch.</desc>
    <g id="WIP---May" stroke="none" stroke-width="1" fill="none" fill-rule="evenodd">
        <g id="1---homepage" transform="translate(-1190.000000, -7525.000000)" fill="#FFFFFF">
            <g id="main">
                <g id="content">
                    <g id="Group-26" transform="translate(0.000000, 7370.000000)">
                        <path d="M1199.99939,155 C1194.47759,155 1190,159.59105 1190,165.254016 C1190,169.783381 1192.86495,173.62667 1196.83917,174.982459 C1197.33947,175.076243 1197.52179,174.76027 1197.52179,174.488357 C1197.52179,174.244769 1197.5132,173.600234 1197.50829,172.744212 C1194.72683,173.364198 1194.13996,171.37017 1194.13996,171.37017 C1193.68508,170.185586 1193.02947,169.870242 1193.02947,169.870242 C1192.12155,169.23389 1193.09822,169.247108 1193.09822,169.247108 C1194.1019,169.319493 1194.62983,170.303289 1194.62983,170.303289 C1195.52179,171.870565 1196.96992,171.418006 1197.54021,171.155535 C1197.63106,170.492747 1197.88889,170.040817 1198.17495,169.78464 C1195.95457,169.525945 1193.62001,168.646634 1193.62001,164.717113 C1193.62001,163.59799 1194.00982,162.682801 1194.64948,161.965882 C1194.54635,161.706558 1194.20319,160.664225 1194.74708,159.253047 C1194.74708,159.253047 1195.58686,158.976728 1197.49724,160.303562 C1198.29466,160.076339 1199.1504,159.962412 1200.00061,159.958636 C1200.8496,159.962412 1201.70534,160.076339 1202.50399,160.303562 C1204.41314,158.976728 1205.25107,159.253047 1205.25107,159.253047 C1205.79681,160.664225 1205.45365,161.706558 1205.35052,161.965882 C1205.99141,162.682801 1206.37876,163.59799 1206.37876,164.717113 C1206.37876,168.656075 1204.04052,169.522798 1201.81277,169.777087 C1202.17188,170.09306 1202.49171,170.719341 1202.49171,171.675443 C1202.49171,173.046337 1202.47944,174.152243 1202.47944,174.488357 C1202.47944,174.762159 1202.6593,175.081279 1203.16697,174.9812 C1207.13689,173.622893 1210,169.782122 1210,165.254016 C1210,159.59105 1205.52241,155 1199.99939,155" id="icon-github-discussions"></path>
                    </g>
                </g>
            </g>
        </g>
    </g>
</svg>