<?xml version="1.0" encoding="UTF-8"?>
<svg width="80px" height="80px" viewBox="0 0 80 80" version="1.1" xmlns="http://www.w3.org/2000/svg" xmlns:xlink="http://www.w3.org/1999/xlink">
    <!-- Generator: Sketch 53.2 (72643) - https://sketchapp.com -->
    <title>icon-github-discussions-dark</title>
    <desc>Created with Sketch.</desc>
    <g id="WIP---Latest" stroke="none" stroke-width="1" fill="none" fill-rule="evenodd">
        <g id="2ax---homepage---plain" transform="translate(-810.000000, -2820.000000)" fill="#FFFFFF">
            <g id="main" transform="translate(60.000000, 0.000000)">
                <g id="content">
                    <g id="join" transform="translate(250.000000, 2730.000000)">
                        <g id="Group-3" transform="translate(480.000000, 70.000000)">
                            <g id="Group-24" transform="translate(19.999600, 19.999500)">
                                <path d="M39.9975445,0 C17.9103745,0 0,17.9050935 0,39.9906606 C0,57.6551867 11.4597913,72.6440133 27.3566605,77.9315882 C29.3578883,78.2973489 30.08717,77.0650543 30.08717,76.0045936 C30.08717,75.0545976 30.0527931,72.5409129 30.0331492,69.2024255 C18.9073051,71.6203741 16.5598527,63.8436622 16.5598527,63.8436622 C14.7403315,59.2237848 12.1178637,57.993945 12.1178637,57.993945 C8.48618785,55.5121723 12.3928791,55.5637225 12.3928791,55.5637225 C16.407612,55.8460211 18.519337,59.6828268 18.519337,59.6828268 C22.08717,65.7952045 27.8796808,64.0302248 30.1608349,63.0065856 C30.524248,60.4217126 31.5555556,58.6591877 32.6998158,57.6600962 C23.8182934,56.6511857 14.4800491,53.2218718 14.4800491,37.8967417 C14.4800491,33.5321603 16.0392879,29.9629245 18.5979128,27.1669413 C18.1853898,26.155576 16.8127686,22.0904766 18.9883364,16.586882 C18.9883364,16.586882 22.3474524,15.5092379 29.9889503,20.6838933 C33.1786372,19.7977213 36.6015961,19.3534079 40.0024555,19.3386793 C43.3984039,19.3534079 46.8213628,19.7977213 50.0159607,20.6838933 C57.6525476,15.5092379 61.0042971,16.586882 61.0042971,16.586882 C63.1872314,22.0904766 61.8146102,26.155576 61.4020872,27.1669413 C63.9656231,29.9629245 65.5150399,33.5321603 65.5150399,37.8967417 C65.5150399,53.2586933 56.1620626,56.6389118 47.2510743,57.630639 C48.6875384,58.8629336 49.9668508,61.3054299 49.9668508,65.0342258 C49.9668508,70.3807152 49.9177409,74.6937463 49.9177409,76.0045936 C49.9177409,77.0724186 50.6372007,78.3169871 52.6678944,77.9266786 C68.5475752,72.6292846 80,57.6502771 80,39.9906606 C80,17.9050935 62.0896255,0 39.9975445,0" id="icon-github-discussions-dark"></path>
                            </g>
                        </g>
                    </g>
                </g>
            </g>
        </g>
    </g>
</svg>