<?xml version="1.0" encoding="UTF-8"?>
<svg width="80px" height="80px" viewBox="0 0 80 80" version="1.1" xmlns="http://www.w3.org/2000/svg" xmlns:xlink="http://www.w3.org/1999/xlink">
    <!-- Generator: Sketch 49 (51002) - http://www.bohemiancoding.com/sketch -->
    <title>icon-github-discussions-dark</title>
    <desc>Created with Sketch.</desc>
    <defs></defs>
    <g id="Website---Homepage" stroke="none" stroke-width="1" fill="none" fill-rule="evenodd">
        <g id="4---homepage" transform="translate(-600.000000, -4730.000000)" fill="#245B70">
            <g id="quote" transform="translate(0.000000, 4640.000000)">
                <g id="Group-3" transform="translate(570.000000, 70.000000)">
                    <g id="Group-5" transform="translate(30.000000, 19.000000)">
                        <path d="M39.9971445,0.9995 C17.9099745,0.9995 -0.0004,18.9045935 -0.0004,40.9901606 C-0.0004,58.6546867 11.4593913,73.6435133 27.3562605,78.9310882 C29.3574883,79.2968489 30.08677,78.0645543 30.08677,77.0040936 C30.08677,76.0540976 30.0523931,73.5404129 30.0327492,70.2019255 C18.9069051,72.6198741 16.5594527,64.8431622 16.5594527,64.8431622 C14.7399315,60.2232848 12.1174637,58.993445 12.1174637,58.993445 C8.48578785,56.5116723 12.3924791,56.5632225 12.3924791,56.5632225 C16.407212,56.8455211 18.518937,60.6823268 18.518937,60.6823268 C22.08677,66.7947045 27.8792808,65.0297248 30.1604349,64.0060856 C30.523848,61.4212126 31.5551556,59.6586877 32.6994158,58.6595962 C23.8178934,57.6506857 14.4796491,54.2213718 14.4796491,38.8962417 C14.4796491,34.5316603 16.0388879,30.9624245 18.5975128,28.1664413 C18.1849898,27.155076 16.8123686,23.0899766 18.9879364,17.586382 C18.9879364,17.586382 22.3470524,16.5087379 29.9885503,21.6833933 C33.1782372,20.7972213 36.6011961,20.3529079 40.0020555,20.3381793 C43.3980039,20.3529079 46.8209628,20.7972213 50.0155607,21.6833933 C57.6521476,16.5087379 61.0038971,17.586382 61.0038971,17.586382 C63.1868314,23.0899766 61.8142102,27.155076 61.4016872,28.1664413 C63.9652231,30.9624245 65.5146399,34.5316603 65.5146399,38.8962417 C65.5146399,54.2581933 56.1616626,57.6384118 47.2506743,58.630139 C48.6871384,59.8624336 49.9664508,62.3049299 49.9664508,66.0337258 C49.9664508,71.3802152 49.9173409,75.6932463 49.9173409,77.0040936 C49.9173409,78.0719186 50.6368007,79.3164871 52.6674944,78.9261786 C68.5471752,73.6287846 79.9996,58.6497771 79.9996,40.9901606 C79.9996,18.9045935 62.0892255,0.9995 39.9971445,0.9995" id="icon-github-discussions-dark"></path>
                    </g>
                </g>
            </g>
        </g>
    </g>
</svg>