<?xml version="1.0" encoding="UTF-8"?>
<svg width="20px" height="20px" viewBox="0 0 20 20" version="1.1" xmlns="http://www.w3.org/2000/svg" xmlns:xlink="http://www.w3.org/1999/xlink">
    <!-- Generator: Sketch 54.1 (76490) - https://sketchapp.com -->
    <title>icon-kintoblock-type-websites</title>
    <desc>Created with Sketch.</desc>
    <defs>
        <path d="M1.05882353,0 L16.9411765,0 C17.5259486,-1.01453063e-16 18,0.44771525 18,1 L18,13 C18,13.5522847 17.5259486,14 16.9411765,14 L1.05882353,14 C0.474051441,14 7.16139266e-17,13.5522847 0,13 L0,1 C-7.16139266e-17,0.44771525 0.474051441,1.01453063e-16 1.05882353,0 Z" id="path-1"></path>
    </defs>
    <g id="WIP---May" stroke="none" stroke-width="1" fill="none" fill-rule="evenodd">
        <g id="3---build---neutered" transform="translate(-970.000000, -2470.000000)">
            <g id="main">
                <g id="content" transform="translate(0.000000, -310.000000)">
                    <g id="Group-13" transform="translate(0.000000, 2550.000000)">
                        <g id="list" transform="translate(370.000000, 227.000000)">
                            <g id="Group-12" transform="translate(600.000000, 3.000000)">
                                <g id="icon/kintoblock/website/x-small">
                                    <g id="Group" transform="translate(1.000000, 3.000000)">
                                        <mask id="mask-2" fill="white">
                                            <use xlink:href="#path-1"></use>
                                        </mask>
                                        <use id="Mask" fill="#B3E04A" xlink:href="#path-1"></use>
                                        <path d="M1.05882353,0 L16.9411765,0 C17.5259486,-1.01453063e-16 18,0.44771525 18,1 L18,4 L0,4 L0,1 C-7.16139266e-17,0.44771525 0.474051441,1.01453063e-16 1.05882353,0 Z" id="Rectangle-2" fill="#7ACB53" mask="url(#mask-2)"></path>
                                        <path d="M8.11111111,1 L15.8888889,1 C16.5025386,1 17,1.44771525 17,2 C17,2.55228475 16.5025386,3 15.8888889,3 L8.11111111,3 C7.49746139,3 7,2.55228475 7,2 C7,1.44771525 7.49746139,1 8.11111111,1 Z" id="Rectangle" fill="#558D39" mask="url(#mask-2)"></path>
                                        <path d="M2,1 C2.55228475,1 3,1.44771525 3,2 C3,2.55228475 2.55228475,3 2,3 C1.44771525,3 1,2.55228475 1,2 C1,1.44771525 1.44771525,1 2,1 Z" id="Rectangle-Copy" fill="#DEF92F" mask="url(#mask-2)"></path>
                                        <path d="M5,1 C5.55228475,1 6,1.44771525 6,2 C6,2.55228475 5.55228475,3 5,3 C4.44771525,3 4,2.55228475 4,2 C4,1.44771525 4.44771525,1 5,1 Z" id="Rectangle-Copy-2" fill="#DEF92F" mask="url(#mask-2)"></path>
                                        <polygon id="Combined-Shape" fill="#558D39" points="13.9392206 12.5975361 15.0733643 15.1879382 13.7632746 15.75 12.6103097 13.1166098 11 14.5365506 11 7.75 16 12.5975361"></polygon>
                                    </g>
                                </g>
                            </g>
                        </g>
                    </g>
                </g>
            </g>
        </g>
    </g>
</svg>