<?xml version="1.0" encoding="UTF-8"?>
<svg width="20px" height="20px" viewBox="0 0 20 20" version="1.1" xmlns="http://www.w3.org/2000/svg" xmlns:xlink="http://www.w3.org/1999/xlink">
    <!-- Generator: Sketch 54.1 (76490) - https://sketchapp.com -->
    <title>icon-kintoblock-type-functions</title>
    <desc>Created with Sketch.</desc>
    <defs>
        <linearGradient x1="100%" y1="0%" x2="51.0815571%" y2="96.0254189%" id="linearGradient-1">
            <stop stop-color="#B9D5EC" offset="0%"></stop>
            <stop stop-color="#B9D5EC" stop-opacity="0" offset="100%"></stop>
        </linearGradient>
        <linearGradient x1="100%" y1="0%" x2="51.0815571%" y2="96.0254189%" id="linearGradient-2">
            <stop stop-color="#C5E5FF" offset="0%"></stop>
            <stop stop-color="#C8E6FF" stop-opacity="0" offset="100%"></stop>
        </linearGradient>
        <linearGradient x1="0%" y1="0%" x2="81.4945727%" y2="79.8699753%" id="linearGradient-3">
            <stop stop-color="#B9D5EC" offset="0%"></stop>
            <stop stop-color="#B9D5EC" stop-opacity="0" offset="100%"></stop>
        </linearGradient>
    </defs>
    <g id="WIP---May" stroke="none" stroke-width="1" fill="none" fill-rule="evenodd">
        <g id="3---build---neutered" transform="translate(-970.000000, -2730.000000)">
            <g id="main">
                <g id="content" transform="translate(0.000000, -310.000000)">
                    <g id="Group-13" transform="translate(0.000000, 2550.000000)">
                        <g id="list" transform="translate(370.000000, 227.000000)">
                            <g id="Group-5" transform="translate(600.000000, 263.000000)">
                                <g id="Group-4"></g>
                                <g id="Group-2" transform="translate(0.000000, 2.000000)">
                                    <path d="M1.99083769,8.60612496 C1.6784795,8.05883663 1.5,7.42526137 1.5,6.75 C1.5,4.67893219 3.17893219,3 5.25,3 C5.36024244,3 5.4693738,3.0047571 5.57720001,3.01407722 C6.27039431,1.24933023 7.9892988,0 10,0 C12.6233526,0 14.75,2.12664744 14.75,4.75 C14.75,4.84397696 14.7472709,4.93731649 14.7418875,5.02994368 C16.7189692,5.27238447 18.25,6.95739654 18.25,9 C18.25,9.03811056 18.249467,9.07609663 18.2484081,9.11395118 C19.2635068,9.43202521 20,10.380004 20,11.5 C20,12.796337 19.0133307,13.8622251 17.75,13.9876562 L17.75,14 L2.75,14 C1.23121694,14 0,12.7687831 0,11.25 C0,9.99455591 0.841274732,8.93560206 1.99083769,8.60612496 Z M8.75,9.5 L13.75,8.75 L13.2587215,9.36409817 C12.9281225,9.77734689 12.474912,10.075024 11.964343,10.2142701 L10,10.75 L9.5,11.75 L11.75,11.5 L11.1799418,12.2125728 C10.8985482,12.5643148 10.5273474,12.8334947 10.1055783,12.9916581 L8.75,13.5 L8.28443812,14.4311238 C7.93421566,15.1315687 7.40726289,15.7284914 6.75566664,16.1628889 L6.25,16.5 L8.75,9.5 Z" id="Combined-Shape"></path>
                                    <path d="M1.99083769,8.60612496 C1.6784795,8.05883663 1.5,7.42526137 1.5,6.75 C1.5,4.67893219 3.17893219,3 5.25,3 C5.36024244,3 5.4693738,3.0047571 5.57720001,3.01407722 C6.27039431,1.24933023 7.9892988,0 10,0 C12.6233526,0 14.75,2.12664744 14.75,4.75 C14.75,4.84397696 14.7472709,4.93731649 14.7418875,5.02994368 C16.7189692,5.27238447 18.25,6.95739654 18.25,9 C18.25,9.03811056 18.249467,9.07609663 18.2484081,9.11395118 C19.2635069,9.43202521 20,10.380004 20,11.5 C20,12.796337 19.0133307,13.8622251 17.75,13.9876562 L17.75,14 L2.75,14 C1.23121694,14 0,12.7687831 0,11.25 C0,9.99455591 0.841274732,8.93560206 1.99083769,8.60612496 Z" id="Combined-Shape" fill="#98B4CD" fill-rule="nonzero"></path>
                                    <path d="M8.75,9.5 L13.75,8.75 L13.2587215,9.36409817 C12.9281225,9.77734689 12.474912,10.075024 11.964343,10.2142701 L10,10.75 L9.5,11.75 L11.75,11.5 L11.1799418,12.2125728 C10.8985482,12.5643148 10.5273474,12.8334947 10.1055783,12.9916581 L8.75,13.5 L8.28443812,14.4311238 C7.93421566,15.1315687 7.40726289,15.7284914 6.75566664,16.1628889 L6.25,16.5 L8.75,9.5 Z" id="Rectangle" fill="#FFDB18" fill-rule="nonzero"></path>
                                    <circle id="Oval" fill="url(#linearGradient-1)" opacity="0.600000024" cx="14.25" cy="9" r="4"></circle>
                                    <circle id="Oval-Copy-2" fill="url(#linearGradient-2)" cx="10" cy="4.75" r="4.75"></circle>
                                    <circle id="Oval-Copy-2" fill="url(#linearGradient-1)" opacity="0.400000006" cx="17.5" cy="11.5" r="2.5"></circle>
                                    <circle id="Oval-Copy-10" fill="url(#linearGradient-3)" opacity="0.400000006" cx="2.75" cy="11.25" r="2.75"></circle>
                                </g>
                            </g>
                        </g>
                    </g>
                </g>
            </g>
        </g>
    </g>
</svg>