<?xml version="1.0" encoding="UTF-8"?>
<svg width="20px" height="20px" viewBox="0 0 20 20" version="1.1" xmlns="http://www.w3.org/2000/svg" xmlns:xlink="http://www.w3.org/1999/xlink">
    <!-- Generator: Sketch 54.1 (76490) - https://sketchapp.com -->
    <title>icon-kintoblock-type-cloud</title>
    <desc>Created with Sketch.</desc>
    <defs>
        <linearGradient x1="100%" y1="0%" x2="0%" y2="100%" id="linearGradient-1">
            <stop stop-color="#53D9EB" offset="0%"></stop>
            <stop stop-color="#53D9EB" stop-opacity="0" offset="100%"></stop>
        </linearGradient>
        <linearGradient x1="100%" y1="0%" x2="50%" y2="98.1484827%" id="linearGradient-2">
            <stop stop-color="#06ECFE" offset="0%"></stop>
            <stop stop-color="#06ECFE" stop-opacity="0" offset="100%"></stop>
        </linearGradient>
        <linearGradient x1="0%" y1="3.74939946e-31%" x2="100%" y2="100%" id="linearGradient-3">
            <stop stop-color="#53D9EB" offset="0%"></stop>
            <stop stop-color="#53D9EB" stop-opacity="0" offset="100%"></stop>
        </linearGradient>
        <linearGradient x1="50%" y1="0%" x2="50%" y2="72.8070175%" id="linearGradient-4">
            <stop stop-color="#1EC4E9" offset="0%"></stop>
            <stop stop-color="#53D9EB" stop-opacity="0" offset="100%"></stop>
        </linearGradient>
    </defs>
    <g id="WIP---May" stroke="none" stroke-width="1" fill="none" fill-rule="evenodd">
        <g id="3---build---neutered" transform="translate(-970.000000, -2600.000000)">
            <g id="main">
                <g id="content" transform="translate(0.000000, -310.000000)">
                    <g id="Group-13" transform="translate(0.000000, 2550.000000)">
                        <g id="list" transform="translate(370.000000, 227.000000)">
                            <g id="icon-kintoblock-type-cloud" transform="translate(600.000000, 133.000000)">
                                <g id="Group-2" transform="translate(0.000000, 2.000000)">
                                    <path d="M1.99083769,8.60612496 C1.6784795,8.05883663 1.5,7.42526137 1.5,6.75 C1.5,4.67893219 3.17893219,3 5.25,3 C5.36024244,3 5.4693738,3.0047571 5.57720001,3.01407722 C6.27039431,1.24933023 7.9892988,0 10,0 C12.6233526,0 14.75,2.12664744 14.75,4.75 C14.75,4.84397696 14.7472709,4.93731649 14.7418875,5.02994368 C16.7189692,5.27238447 18.25,6.95739654 18.25,9 C18.25,9.03811056 18.249467,9.07609663 18.2484081,9.11395118 C19.2635068,9.43202521 20,10.380004 20,11.5 C20,12.796337 19.0133307,13.8622251 17.75,13.9876562 L17.75,14 L2.75,14 C1.23121694,14 0,12.7687831 0,11.25 C0,9.99455591 0.841274732,8.93560206 1.99083769,8.60612496 Z" id="Combined-Shape"></path>
                                    <path d="M1.99083769,8.60612496 C1.6784795,8.05883663 1.5,7.42526137 1.5,6.75 C1.5,4.67893219 3.17893219,3 5.25,3 C5.36024244,3 5.4693738,3.0047571 5.57720001,3.01407722 C6.27039431,1.24933023 7.9892988,0 10,0 C12.6233526,0 14.75,2.12664744 14.75,4.75 C14.75,4.84397696 14.7472709,4.93731649 14.7418875,5.02994368 C16.7189692,5.27238447 18.25,6.95739654 18.25,9 C18.25,9.03811056 18.249467,9.07609663 18.2484081,9.11395118 C19.2635069,9.43202521 20,10.380004 20,11.5 C20,12.796337 19.0133307,13.8622251 17.75,13.9876562 L17.75,14 L2.75,14 C1.23121694,14 0,12.7687831 0,11.25 C0,9.99455591 0.841274732,8.93560206 1.99083769,8.60612496 Z" id="Combined-Shape" fill="#49BFFF" fill-rule="nonzero"></path>
                                    <circle id="Oval" fill="url(#linearGradient-1)" cx="14.25" cy="9" r="4"></circle>
                                    <circle id="Oval-Copy-2" fill="url(#linearGradient-2)" cx="10" cy="4.75" r="4.75"></circle>
                                    <circle id="Oval-Copy-2" fill="url(#linearGradient-2)" opacity="0.400000006" cx="17.5" cy="11.5" r="2.5"></circle>
                                    <circle id="Oval-Copy-10" fill="url(#linearGradient-3)" opacity="0.400000006" cx="2.75" cy="11.25" r="2.75"></circle>
                                </g>
                                <g id="Group-3" transform="translate(7.000000, 10.250000)" fill-rule="nonzero">
                                    <rect id="Rectangle" fill="#365AA6" x="0" y="0" width="6" height="3.5" rx="0.5"></rect>
                                    <rect id="Rectangle" fill="#B9D5EC" x="1.75" y="1" width="1" height="1"></rect>
                                    <rect id="Rectangle-Copy" fill="#B9D5EC" x="2.75" y="1" width="1" height="1"></rect>
                                    <rect id="Rectangle-Copy-2" fill="#B9D5EC" x="3.75" y="1" width="1" height="1"></rect>
                                    <path d="M1.5,1.5 L4.5,1.5 C4.63807119,1.5 4.75,1.61192881 4.75,1.75 L4.75,5 C4.75,5.82842712 4.07842712,6.5 3.25,6.5 L2.75,6.5 C1.92157288,6.5 1.25,5.82842712 1.25,5 L1.25,1.75 C1.25,1.61192881 1.36192881,1.5 1.5,1.5 Z" id="Rectangle" fill="#6CEAD2"></path>
                                    <path d="M3,6.5 L3,6.5 C3,8.15685425 4.34314575,9.5 6,9.5 L10.5,9.5" id="Rectangle" stroke="url(#linearGradient-4)" stroke-linecap="round"></path>
                                </g>
                            </g>
                        </g>
                    </g>
                </g>
            </g>
        </g>
    </g>
</svg>