<?xml version="1.0" encoding="UTF-8"?>
<svg width="20px" height="20px" viewBox="0 0 20 20" version="1.1" xmlns="http://www.w3.org/2000/svg" xmlns:xlink="http://www.w3.org/1999/xlink">
    <!-- Generator: Sketch 54.1 (76490) - https://sketchapp.com -->
    <title>icon-kintoblock-type-custom-services</title>
    <desc>Created with Sketch.</desc>
    <g id="WIP---May" stroke="none" stroke-width="1" fill="none" fill-rule="evenodd">
        <g id="3---build---neutered" transform="translate(-370.000000, -2730.000000)">
            <g id="main">
                <g id="content" transform="translate(0.000000, -310.000000)">
                    <g id="Group-13" transform="translate(0.000000, 2550.000000)">
                        <g id="list" transform="translate(370.000000, 227.000000)">
                            <g id="Group-21" transform="translate(0.000000, 263.000000)">
                                <g id="icon/kintoblock/custom/x-small">
                                    <path d="M10.2347365,10.0462464 L19.1362119,14.7792633 C19.2581215,14.844084 19.3044011,14.9954587 19.2395804,15.1173682 C19.2161928,15.1613538 19.1801975,15.1973491 19.1362119,15.2207367 L10.2347365,19.9537536 C10.0879737,20.031789 9.91202626,20.031789 9.76526351,19.9537536 L0.863788053,15.2207367 C0.741878535,15.155916 0.695598899,15.0045413 0.760419592,14.8826318 C0.783807198,14.8386462 0.819802533,14.8026509 0.863788053,14.7792633 L9.76526351,10.0462464 C9.91202626,9.96821097 10.0879737,9.96821097 10.2347365,10.0462464 Z" id="Polygon" fill="#FF943C"></path>
                                    <path d="M10.2347365,7.04624641 L19.1362119,11.7792633 C19.2581215,11.844084 19.3044011,11.9954587 19.2395804,12.1173682 C19.2161928,12.1613538 19.1801975,12.1973491 19.1362119,12.2207367 L10.2347365,16.9537536 C10.0879737,17.031789 9.91202626,17.031789 9.76526351,16.9537536 L0.863788053,12.2207367 C0.741878535,12.155916 0.695598899,12.0045413 0.760419592,11.8826318 C0.783807198,11.8386462 0.819802533,11.8026509 0.863788053,11.7792633 L9.76526351,7.04624641 C9.91202626,6.96821097 10.0879737,6.96821097 10.2347365,7.04624641 Z" id="Polygon-Copy" fill="#FFB476"></path>
                                    <path d="M10.2347365,4.04624641 L19.1362119,8.77926329 C19.2581215,8.84408398 19.3044011,8.99545873 19.2395804,9.11736825 C19.2161928,9.16135377 19.1801975,9.1973491 19.1362119,9.22073671 L10.2347365,13.9537536 C10.0879737,14.031789 9.91202626,14.031789 9.76526351,13.9537536 L0.863788053,9.22073671 C0.741878535,9.15591602 0.695598899,9.00454127 0.760419592,8.88263175 C0.783807198,8.83864623 0.819802533,8.8026509 0.863788053,8.77926329 L9.76526351,4.04624641 C9.91202626,3.96821097 10.0879737,3.96821097 10.2347365,4.04624641 Z" id="Polygon-Copy-3" fill="#FFD978"></path>
                                    <path d="M10.2347365,0.0462464092 L19.1362119,4.77926329 C19.2581215,4.84408398 19.3044011,4.99545873 19.2395804,5.11736825 C19.2161928,5.16135377 19.1801975,5.1973491 19.1362119,5.22073671 L10.2347365,9.95375359 C10.0879737,10.031789 9.91202626,10.031789 9.76526351,9.95375359 L0.863788053,5.22073671 C0.741878535,5.15591602 0.695598899,5.00454127 0.760419592,4.88263175 C0.783807198,4.83864623 0.819802533,4.8026509 0.863788053,4.77926329 L9.76526351,0.0462464092 C9.91202626,-0.0317890341 10.0879737,-0.0317890341 10.2347365,0.0462464092 Z" id="Polygon-Copy-2" fill="#FFF37C"></path>
                                </g>
                            </g>
                        </g>
                    </g>
                </g>
            </g>
        </g>
    </g>
</svg>