<?xml version="1.0" encoding="UTF-8"?>
<svg width="14px" height="14px" viewBox="0 0 14 14" version="1.1" xmlns="http://www.w3.org/2000/svg" xmlns:xlink="http://www.w3.org/1999/xlink">
    <!-- Generator: Sketch 46.2 (44496) - http://www.bohemiancoding.com/sketch -->
    <title>icon-hint-tootip</title>
    <desc>Created with Sketch.</desc>
    <defs></defs>
    <g id="Page-1" stroke="none" stroke-width="1" fill="none" fill-rule="evenodd">
        <path d="M7,14 C3.13400675,14 0,10.8659932 0,7 C0,3.13400675 3.13400675,0 7,0 C10.8659932,0 14,3.13400675 14,7 C14,10.8659932 10.8659932,14 7,14 Z M7,11.55 C7.57989899,11.55 8.05,11.079899 8.05,10.5 C8.05,9.92010101 7.57989899,9.45 7,9.45 C6.42010101,9.45 5.95,9.92010101 5.95,10.5 C5.95,11.079899 6.42010101,11.55 7,11.55 Z M6.3,8.05 L6.3,8.05 C6.3,8.43659932 6.61340068,8.75 7,8.75 L7,8.75 C7.38659932,8.75 7.7,8.43659932 7.7,8.05 L7.7,8.05 C7.7,8.03882039 7.7,8.02764079 7.7,8.01646118 C7.7,7.59427272 7.7,7.41887207 7.75263672,7.30586548 C7.81866795,7.164102 8.04169211,6.98521729 8.37620239,6.83136597 C8.71071267,6.67751465 9.85819092,6.00644639 9.85819092,4.79515381 C9.85819092,3.4507359 8.99831953,2.45 7.0882,2.45 C5.17808047,2.45 4.68193043,3.88069038 4.58486328,4.1121582 L5.57509155,4.60186768 C5.96980063,3.93163249 6.47417012,3.58499349 7.0882,3.56195068 C8.00924482,3.52738647 8.63250732,4.05595381 8.63250732,4.79515381 C8.63250732,5.53435381 7.3828125,5.96952515 7.0882,6.1432 C6.7148648,6.35973442 6.50182815,6.60987605 6.377,6.89724731 C6.3,7.07451172 6.3,7.30476592 6.3,7.69171143 C6.3,7.81114095 6.3,7.93057048 6.3,8.05 Z" id="icon-hint-tootip" fill="#CBE3F9"></path>
    </g>
</svg>