<?xml version="1.0" encoding="UTF-8"?>
<svg width="140px" height="140px" viewBox="0 0 140 140" version="1.1" xmlns="http://www.w3.org/2000/svg" xmlns:xlink="http://www.w3.org/1999/xlink">
    <!-- Generator: Sketch 54.1 (76490) - https://sketchapp.com -->
    <title>workflow-icon</title>
    <desc>Created with Sketch.</desc>
    <g id="WIP---May" stroke="none" stroke-width="1" fill="none" fill-rule="evenodd">
        <g id="2---workflow---neutered" transform="translate(-590.000000, -140.000000)">
            <g id="main">
                <g id="top">
                    <g id="art" transform="translate(140.000000, -310.000000)">
                        <g id="icon" transform="translate(450.000000, 450.000000)">
                            <path d="M70.5,73.4720281 L70.5,116.543807 C70.5,117.648376 69.6045695,118.543807 68.5,118.543807 C68.1502698,118.543807 67.8066532,118.4521 67.5034322,118.277835 L30.0102967,96.7300556 C28.14809,95.6598218 27,93.6758114 27,91.5279719 L27,48.4561933 C27,47.3516238 27.8954305,46.4561933 29,46.4561933 C29.3497302,46.4561933 29.6933468,46.5479004 29.9965678,46.7221654 L67.4897033,68.2699444 C69.35191,69.3401782 70.5,71.3241886 70.5,73.4720281 Z" id="left" fill="#FFFFFF" opacity="0.597879"></path>
                            <path d="M70.5,23.4561933 L70.5,66.5279719 C70.5,68.6758114 69.35191,70.6598218 67.4897033,71.7300556 L29.9965678,93.2778346 C29.0388906,93.8282238 27.8163613,93.4980516 27.2659721,92.5403745 C27.0917072,92.2371535 27,91.8935369 27,91.5438067 L27,48.4720281 C27,46.3241886 28.14809,44.3401782 30.0102967,43.2699444 L67.5034322,21.7221654 C68.4611094,21.1717762 69.6836387,21.5019484 70.2340279,22.4596255 C70.4082928,22.7628465 70.5,23.1064631 70.5,23.4561933 Z" id="back" fill="#FFFFFF" opacity="0.197879"></path>
                            <path d="M73.4897033,21.7182203 L110.982791,43.2659721 C111.940469,43.8163613 112.270641,45.0388906 111.720252,45.9965678 C111.543979,46.3032827 111.289506,46.5577549 110.982791,46.7340279 L73.4897033,68.2817797 C71.6385374,69.3456682 69.3614626,69.3456682 67.5102967,68.2817797 L30.0172085,46.7340279 C29.0595314,46.1836387 28.7293592,44.9611094 29.2797484,44.0034322 C29.4560213,43.6967173 29.7104936,43.4422451 30.0172085,43.2659721 L67.5102967,21.7182203 C69.3614626,20.6543318 71.6385374,20.6543318 73.4897033,21.7182203 Z" id="top" fill="#FFFFFF" opacity="0.100000001"></path>
                            <g id="Group-22" transform="translate(17.000000, 10.500254)" stroke="#FFFFFF" stroke-linecap="round" stroke-linejoin="round" stroke-width="4">
                                <path d="M42.0545217,103.02899 L12.9972587,86.2323234 C11.1423972,85.1601132 10,83.1802171 10,81.0377546 L10,37.9617374 M19.4822785,29.018477 L50.2458137,11.2354925 M64.3860807,15.9378373 L93.4998511,32.7671686 C95.3547126,33.8393787 96.4971098,35.8192748 96.4971098,37.9617374 L96.4971098,81.0377546 M87.4808474,89.7116325 L56.2512962,107.763999" id="Shape"></path>
                                <polyline id="Path-8" transform="translate(50.498076, 11.000000) rotate(60.000000) translate(-50.498076, -11.000000) " points="40.4980762 14 50.4980762 8 60.4980762 14"></polyline>
                                <polyline id="Path-8-Copy-2" transform="translate(96.500000, 80.499746) rotate(180.000000) translate(-96.500000, -80.499746) " points="86.5 83.499746 96.5 77.499746 106.5 83.499746"></polyline>
                                <polyline id="Path-8-Copy-3" points="0 40.499746 10 34.499746 20 40.499746"></polyline>
                                <polyline id="Path-8-Copy" transform="translate(55.498076, 108.000000) scale(-1, -1) rotate(60.000000) translate(-55.498076, -108.000000) " points="45.4980762 111 55.4980762 105 65.4980762 111"></polyline>
                            </g>
                        </g>
                    </g>
                </g>
            </g>
        </g>
    </g>
</svg>