<svg height="200" viewBox="0 0 380 200" width="380" xmlns="http://www.w3.org/2000/svg" xmlns:xlink="http://www.w3.org/1999/xlink"><defs><linearGradient id="a" x1="108.63338%" x2="46.926596%" y1="30.195372%" y2="65.750957%"><stop offset=".18" stop-color="#0052cc"/><stop offset="1" stop-color="#2684ff"/></linearGradient><linearGradient id="b" x1="50%" x2="50%" y1="0%" y2="100%"><stop offset="0" stop-color="#c6dff8"/><stop offset="1" stop-color="#d0e5f9"/></linearGradient><rect id="c" height="40" rx="4" width="113"/><filter id="d" height="110%" width="103.5%" x="-1.8%" y="-5%"><feGaussianBlur in="SourceAlpha" result="shadowBlurInner1" stdDeviation="1"/><feOffset dx="0" dy="2" in="shadowBlurInner1" result="shadowOffsetInner1"/><feComposite in="shadowOffsetInner1" in2="SourceAlpha" k2="-1" k3="1" operator="arithmetic" result="shadowInnerInner1"/><feColorMatrix in="shadowInnerInner1" type="matrix" values="0 0 0 0 0   0 0 0 0 0   0 0 0 0 0  0 0 0 0.0980808424 0"/></filter><linearGradient id="e" x1="50%" x2="50%" y1="0%" y2="100%"><stop offset="0" stop-color="#deeafb"/><stop offset="1" stop-color="#d8e6fa"/></linearGradient><rect id="f" height="40" rx="4" width="113"/><filter id="g" width="107.1%" x="-3.5%" y="-5%"><feOffset dx="0" dy="2" in="SourceAlpha" result="shadowOffsetOuter1"/><feGaussianBlur in="shadowOffsetOuter1" result="shadowBlurOuter1" stdDeviation="1"/><feColorMatrix in="shadowBlurOuter1" type="matrix" values="0 0 0 0 0.705882353   0 0 0 0 0.8   0 0 0 0 0.878431373  0 0 0 0.202558877 0"/></filter><filter id="h" height="115%" width="105.3%" x="-2.7%" y="-2.5%"><feGaussianBlur in="SourceAlpha" result="shadowBlurInner1" stdDeviation=".5"/><feOffset dx="0" dy="-1" in="shadowBlurInner1" result="shadowOffsetInner1"/><feComposite in="shadowOffsetInner1" in2="SourceAlpha" k2="-1" k3="1" operator="arithmetic" result="shadowInnerInner1"/><feColorMatrix in="shadowInnerInner1" type="matrix" values="0 0 0 0 0   0 0 0 0 0   0 0 0 0 0  0 0 0 0.0980808424 0"/></filter><rect id="i" height="40" rx="4" width="114"/><filter id="j" height="110%" width="103.5%" x="-1.8%" y="-5%"><feGaussianBlur in="SourceAlpha" result="shadowBlurInner1" stdDeviation="1"/><feOffset dx="0" dy="2" in="shadowBlurInner1" result="shadowOffsetInner1"/><feComposite in="shadowOffsetInner1" in2="SourceAlpha" k2="-1" k3="1" operator="arithmetic" result="shadowInnerInner1"/><feColorMatrix in="shadowInnerInner1" type="matrix" values="0 0 0 0 0   0 0 0 0 0   0 0 0 0 0  0 0 0 0.0980808424 0"/></filter></defs><g fill="none" fill-rule="evenodd"><path d="m8 0h364c4.418278 0 8 3.581722 8 8v184c0 4.418278-3.581722 8-8 8h-364c-4.418278 0-8-3.581722-8-8v-184c0-4.418278 3.581722-8 8-8z" fill="#fff"/><path d="m66.9981584 30c-16.5653776 0-29.9981584 13.7712615-29.9981584 30.7620487 0 13.5880979 8.5948435 25.1160769 20.5174954 29.1853308 1.5009208.2813545 2.0478821-.6684528 2.0478821-1.4841919 0-.7288779-.0257827-2.6643699-.0405156-5.230549-8.3443831 1.8580723-10.1049724-4.1240142-10.1049724-4.1240142-1.3646409-3.5537521-3.3314917-4.4978945-3.3314917-4.4978945-2.7237569-1.909056.2062615-1.8712903.2062615-1.8712903 3.0110497.219041 4.5948435 3.1704303 4.5948435 3.1704303 2.6758747 4.699941 7.0202578 3.3422642 8.7311234 2.5567377.2725598-1.988364 1.0460405-3.3441525 1.9042357-4.1126845-6.6611418-.776085-13.6648251-3.4159073-13.6648251-15.2025814 0-3.3573705 1.1694291-6.1029367 3.0883978-8.2536931-.3093922-.7779734-1.3388582-3.9049731.2928177-8.1403961 0 0 2.519337-.8270687 8.2504604 3.1534358 2.3922652-.6835592 4.9594844-1.0234504 7.5101289-1.0366684 2.5469613.013218 5.1141805.3531092 7.5101289 1.0366684 5.7274402-3.9805045 8.2412523-3.1534358 8.2412523-3.1534358 1.6372008 4.235423.6077348 7.3624227.2983426 8.1403961 1.9226519 2.1507564 3.0847145 4.8963226 3.0847145 8.2536931 0 11.8168867-7.0147329 14.4170549-13.6979742 15.1780337 1.0773481.9498073 2.0368324 2.8267625 2.0368324 5.6969555 0 4.1107961-.0368324 7.4285126-.0368324 8.4368567 0 .8232922.5395949 1.7806526 2.0626151 1.4804154 11.9097606-4.0768071 20.4990792-15.597233 20.4990792-29.1815543 0-16.9907872-13.4327808-30.7620487-30.0018416-30.7620487" fill="#22424b"/><g transform="translate(160 33)"><path d="m23.6392405 35.5357895h12.3892405l2.9905063-17.4221053h-18.6740506z"/><g fill-rule="nonzero"><path d="m2.08860759.24631579c-.56091974-.00721926-1.09632996.23344347-1.46260714.65743051-.36627719.42398705-.52592831.98789807-.43612703 1.54046423l8.06012658 48.82736837c.2072944 1.2333746 1.27212004 2.1401661 2.5253165 2.1505264h38.6677215c.9406192.0120808 1.7483005-.6649432 1.8987342-1.591579l8.0601265-49.37684209c.0898013-.55256615-.0698498-1.11647718-.436127-1.54046422-.3662772-.42398705-.9016874-.66464977-1.4626071-.65743052zm33.93987341 35.28947371h-12.3417721l-3.3417722-17.4221053h18.6740506z" fill="#2684ff"/><path d="m56.8386076 18.1136842h-17.8196203l-2.9905063 17.4221053h-12.3417721l-14.57278485 17.2610526c.46189289.3985604 1.05078575.6201895 1.66139245.6252632h38.6772151c.9406193.0120808 1.7483006-.6649432 1.8987342-1.591579z" fill="url(#a)"/></g></g><g fill-rule="nonzero"><g transform="matrix(1 0 0 -1 284 88)"><path d="m59.8879041 23.9761179-3.3573408 10.1861663-6.653769 20.188341c-.3422478 1.0386172-1.8329011 1.0386172-2.1753113 0l-6.6539313-20.188341h-22.0950351l-6.6540939 20.188341c-.3422476 1.0386172-1.8329011 1.0386172-2.1753112 0l-6.65376895-20.188341-3.35717834-10.1861663c-.30634984-.9290868.02923805-1.9468867.83084803-2.5211207l29.05694066-20.81189558 29.0571031 20.81189558c.80161.574234 1.1370354 1.5920339.8308481 2.5211207" fill="#fc6d26" transform="translate(0 .113655)"/><path d="m10.5 0 10.5 33.2972973h-21z" fill="#e24329" transform="translate(18 .756757)"/><path d="m27 .01321846-11.2430571 33.29729734h-15.7569429z" fill="#fc6d26" transform="translate(3 .743538)"/><path d="m3.46942914 33.3105158-3.35733579-10.118786c-.30618695-.9229408.02923801-1.9340082.83100924-2.5042845l29.05689741-20.67422684z" fill="#fca326" transform="translate(0 .743538)"/><path d="m0 .62988316h15l-6.44635384 20.40186614c-.33172819 1.0497641-1.77587889 1.0497641-2.10744971 0z" fill="#e24329" transform="translate(3 33.424171)"/><path d="m0 .01321846 11.2430571 33.29729734h15.7569429z" fill="#fc6d26" transform="translate(30 .743538)"/><path d="m26.5305709 33.3105158 3.3573358-10.118786c.3061869-.9229408-.029238-1.9340082-.8310093-2.5042845l-29.0568974-20.67422684z" fill="#fca326" transform="translate(30 .743538)"/><path d="m15 .62988316h-15l6.44635381 20.40186614c.3317282 1.0497641 1.77587889 1.0497641 2.10744972 0z" fill="#e24329" transform="translate(42 33.424171)"/></g><path d="m45.74 111.38c.3066682 0 .5533324.089999.74.27s.28.416665.28.71v4.3c0 .613336-.0799992 1.046665-.24 1.3s-.4866642.459999-.98.62c-.533336.186668-1.1533298.333333-1.86.44s-1.3866634.16-2.04.16c-1.4533406 0-2.713328-.286664-3.78-.86s-1.8833305-1.403328-2.45-2.49-.85-2.383326-.85-3.89c0-1.480007.2833305-2.763328.85-3.85s1.3699948-1.919997 2.41-2.5 2.2666596-.87 3.68-.87c1.8800094 0 3.419994.506662 4.62 1.52.1600008.146667.2766663.293333.35.44s.11.319999.11.52c0 .293335-.0799992.539999-.24.74s-.3533322.3-.58.3c-.1466674 0-.2799994-.023333-.4-.07s-.2599992-.123333-.42-.23c-.5866696-.413335-1.1333308-.703332-1.64-.87-.5066692-.166667-1.0799968-.25-1.72-.25-1.4533406 0-2.5499963.429996-3.29 1.29s-1.11 2.136658-1.11 3.83c0 3.466684 1.5199848 5.2 4.56 5.2.9066712 0 1.8133288-.126665 2.72-.38v-3.54h-2.26c-.3200016 0-.5699991-.079999-.75-.24s-.27-.386665-.27-.68.0899991-.519999.27-.68.4299984-.24.75-.24zm4.94 7.74c-.3600018 0-.6566655-.103332-.89-.31s-.35-.503331-.35-.89v-7.72c0-.386669.1166655-.679999.35-.88s.5299982-.3.89-.3.6599988.099999.9.3.36.493331.36.88v7.72c0 .386669-.1199988.683332-.36.89s-.5399982.31-.9.31zm0-11.88c-.4533356 0-.813332-.123332-1.08-.37s-.4-.569998-.4-.97.133332-.719999.4-.96.6266644-.36 1.08-.36c.4400022 0 .7966653.119999 1.07.36s.41.559998.41.96-.133332.723332-.4.97-.6266644.37-1.08.37zm8.92 10.02c.66667.04 1 .339997 1 .9 0 .320002-.1299987.563332-.39.73s-.6299976.236667-1.11.21l-.54-.04c-2.2400112-.160001-3.36-1.359989-3.36-3.6v-4.36h-1c-.3600018 0-.6366657-.079999-.83-.24s-.29-.393332-.29-.7.0966657-.539999.29-.7.4699982-.24.83-.24h1v-1.84c0-.360002.1133322-.646666.34-.86s.5333314-.32.92-.32c.3733352 0 .6733322.106666.9.32s.34.499998.34.86v1.84h1.7c.3600018 0 .6366657.079999.83.24s.29.393332.29.7-.0966657.539999-.29.7-.4699982.24-.83.24h-1.7v4.54c0 .986672.4533288 1.513333 1.36 1.58zm13.54-12.46c.3866686 0 .6933322.116665.92.35s.34.543331.34.93v11.74c0 .386669-.1166655.699999-.35.94s-.5366648.36-.91.36c-.3866686 0-.6933322-.119999-.92-.36s-.34-.553331-.34-.94v-4.94h-7.22v4.94c0 .386669-.1166655.699999-.35.94s-.5433314.36-.93.36c-.3733352 0-.6766655-.119999-.91-.36s-.35-.553331-.35-.94v-11.74c0-.386669.1133322-.696665.34-.93s.5333314-.35.92-.35.6966655.116665.93.35.35.543331.35.93v4.72h7.22v-4.72c0-.386669.1133322-.696665.34-.93s.5333314-.35.92-.35zm11.8 4.22c.3866686 0 .6933322.106666.92.32s.34.499998.34.86v7.76c0 .346668-.1166655.626666-.35.84s-.5366648.32-.91.32c-.3600018 0-.6466656-.099999-.86-.3s-.32-.473332-.32-.82v-.5c-.3066682.533336-.7199974.943332-1.24 1.23s-1.1066634.43-1.76.43c-2.400012 0-3.6-1.346653-3.6-4.04v-4.92c0-.360002.1133322-.646666.34-.86s.5266648-.32.9-.32c.3866686 0 .6933322.106666.92.32s.34.499998.34.86v4.94c0 .693337.1399986 1.206665.42 1.54s.719997.5 1.32.5c.6933368 0 1.2499979-.229998 1.67-.69s.63-1.069996.63-1.83v-4.46c0-.360002.1133322-.646666.34-.86s.5266648-.32.9-.32zm9.48-.04c.8533376 0 1.6066634.206665 2.26.62s1.1633315.999996 1.53 1.76.55 1.646662.55 2.66-.1833315 1.909996-.55 2.69-.8799967 1.383331-1.54 1.81-1.4099958.64-2.25.64c-.7066702 0-1.3366639-.153332-1.89-.46s-.9766652-.733331-1.27-1.28v.5c0 .360002-.1133322.646666-.34.86s-.5266648.32-.9.32-.6699989-.106666-.89-.32-.33-.499998-.33-.86v-11.96c0-.346668.1166655-.626666.35-.84s.5366648-.32.91-.32.6733322.099999.9.3.34.473332.34.82v4.72c.2933348-.533336.7133306-.943332 1.26-1.23s1.1666632-.43 1.86-.43zm-.66 8.24c.7866706 0 1.3999978-.279997 1.84-.84s.66-1.346662.66-2.36c0-1.000005-.2166645-1.766664-.65-2.3s-1.049996-.8-1.85-.8-1.4166645.269997-1.85.81-.65 1.316662-.65 2.33.2166645 1.793331.65 2.34 1.049996.82 1.85.82z" fill="#38535e"/><path d="m295.24 111.38c.306668 0 .553332.089999.74.27s.28.416665.28.71v4.3c0 .613336-.079999 1.046665-.24 1.3s-.486664.459999-.98.62c-.533336.186668-1.15333.333333-1.86.44s-1.386663.16-2.04.16c-1.453341 0-2.713328-.286664-3.78-.86s-1.88333-1.403328-2.45-2.49-.85-2.383326-.85-3.89c0-1.480007.28333-2.763328.85-3.85s1.369995-1.919997 2.41-2.5 2.26666-.87 3.68-.87c1.880009 0 3.419994.506662 4.62 1.52.160001.146667.276666.293333.35.44s.11.319999.11.52c0 .293335-.079999.539999-.24.74s-.353332.3-.58.3c-.146667 0-.279999-.023333-.4-.07s-.259999-.123333-.42-.23c-.58667-.413335-1.133331-.703332-1.64-.87-.506669-.166667-1.079997-.25-1.72-.25-1.453341 0-2.549996.429996-3.29 1.29s-1.11 2.136658-1.11 3.83c0 3.466684 1.519985 5.2 4.56 5.2.906671 0 1.813329-.126665 2.72-.38v-3.54h-2.26c-.320002 0-.569999-.079999-.75-.24s-.27-.386665-.27-.68.089999-.519999.27-.68.429998-.24.75-.24zm4.94 7.74c-.360002 0-.656665-.103332-.89-.31-.233334-.206668-.35-.503331-.35-.89v-7.72c0-.386669.116666-.679999.35-.88.233335-.200001.529998-.3.89-.3s.659999.099999.9.3.36.493331.36.88v7.72c0 .386669-.119999.683332-.36.89s-.539998.31-.9.31zm0-11.88c-.453336 0-.813332-.123332-1.08-.37s-.4-.569998-.4-.97.133332-.719999.4-.96.626664-.36 1.08-.36c.440002 0 .796665.119999 1.07.36s.41.559998.41.96-.133332.723332-.4.97-.626664.37-1.08.37zm8.92 10.02c.66667.04 1 .339997 1 .9 0 .320002-.129999.563332-.39.73s-.629998.236667-1.11.21l-.54-.04c-2.240011-.160001-3.36-1.359989-3.36-3.6v-4.36h-1c-.360002 0-.636666-.079999-.83-.24s-.29-.393332-.29-.7.096666-.539999.29-.7.469998-.24.83-.24h1v-1.84c0-.360002.113332-.646666.34-.86s.533331-.32.92-.32c.373335 0 .673332.106666.9.32s.34.499998.34.86v1.84h1.7c.360002 0 .636666.079999.83.24s.29.393332.29.7-.096666.539999-.29.7-.469998.24-.83.24h-1.7v4.54c0 .986672.453329 1.513333 1.36 1.58zm3.74 1.74c-.386669 0-.686666-.106666-.9-.32s-.32-.506665-.32-.88v-11.72c0-.386669.116666-.696665.35-.93s.543331-.35.93-.35c.400002 0 .716666.116665.95.35s.35.543331.35.93v10.8h5.62c.800004 0 1.2.35333 1.2 1.06s-.399996 1.06-1.2 1.06zm13.9-10.02c1.360007 0 2.369997.336663 3.03 1.01s.99 1.69666.99 3.07v4.88c0 .360002-.106666.643332-.32.85s-.506665.31-.88.31c-.346668 0-.629999-.106666-.85-.32s-.33-.493332-.33-.84v-.44c-.226668.520003-.583331.926665-1.07 1.22s-1.049997.44-1.69.44c-.653337 0-1.246664-.133332-1.78-.4s-.953332-.633331-1.26-1.1-.46-.986664-.46-1.56c0-.720004.183332-1.286665.55-1.7.366669-.413335.963329-.713332 1.79-.9s1.966659-.28 3.42-.28h.5v-.46c0-.653337-.139999-1.129998-.42-1.43-.280001-.300001-.73333-.45-1.36-.45-.386669 0-.779998.056666-1.18.17s-.873331.276666-1.42.49c-.346668.173334-.599999.26-.76.26-.240001 0-.436666-.086666-.59-.26s-.23-.399999-.23-.68c0-.226668.056666-.423333.17-.59.113334-.166668.303332-.323333.57-.47.466669-.253335 1.02333-.453333 1.67-.6s1.28333-.22 1.91-.22zm-.62 8.38c.66667 0 1.209998-.223331 1.63-.67s.63-1.02333.63-1.73v-.42h-.36c-.893338 0-1.586664.04-2.08.12s-.846666.219999-1.06.42-.32.473332-.32.82c0 .426669.149998.776665.45 1.05.300001.273335.669998.41 1.11.41zm12.8-8.38c.853338 0 1.606663.206665 2.26.62s1.163331.999996 1.53 1.76c.366668.760004.55 1.646662.55 2.66s-.183332 1.909996-.55 2.69c-.366669.780004-.879997 1.383331-1.54 1.81s-1.409996.64-2.25.64c-.70667 0-1.336664-.153332-1.89-.46s-.976665-.733331-1.27-1.28v.5c0 .360002-.113332.646666-.34.86s-.526665.32-.9.32-.669999-.106666-.89-.32-.33-.499998-.33-.86v-11.96c0-.346668.116666-.626666.35-.84s.536665-.32.91-.32.673332.099999.9.3.34.473332.34.82v4.72c.293335-.533336.713331-.943332 1.26-1.23s1.166663-.43 1.86-.43zm-.66 8.24c.786671 0 1.399998-.279997 1.84-.84s.66-1.346662.66-2.36c0-1.000005-.216664-1.766664-.65-2.3-.433335-.533336-1.049996-.8-1.85-.8s-1.416665.269997-1.85.81c-.433336.540003-.65 1.316662-.65 2.33s.216664 1.793331.65 2.34c.433335.546669 1.049996.82 1.85.82z" fill="#38535e"/><path d="m156.1 111.72c.813337.226668 1.443331.639997 1.89 1.24s.67 1.333329.67 2.2c0 1.200006-.429996 2.139997-1.29 2.82s-2.043326 1.02-3.55 1.02h-5.16c-.386669 0-.689999-.106666-.91-.32s-.33-.513331-.33-.9v-11.66c0-.386669.109999-.686666.33-.9s.523331-.32.91-.32h4.96c1.466674 0 2.616663.32333 3.45.97.833338.64667 1.25 1.549994 1.25 2.71 0 .74667-.196665 1.393331-.59 1.94s-.936663.946665-1.63 1.2zm-6.16-.88h3.26c1.773342 0 2.66-.659993 2.66-1.98 0-.66667-.219998-1.159998-.66-1.48s-1.106662-.48-2-.48h-3.26zm3.6 6.16c.933338 0 1.613331-.166665 2.04-.5s.64-.85333.64-1.56-.216665-1.233332-.65-1.58c-.433336-.346668-1.109995-.52-2.03-.52h-3.6v4.16zm8.56 2.12c-.360002 0-.656666-.103332-.89-.31-.233335-.206668-.35-.503331-.35-.89v-7.72c0-.386669.116665-.679999.35-.88.233334-.200001.529998-.3.89-.3s.659999.099999.9.3.36.493331.36.88v7.72c0 .386669-.119999.683332-.36.89s-.539998.31-.9.31zm0-11.88c-.453336 0-.813332-.123332-1.08-.37s-.4-.569998-.4-.97.133332-.719999.4-.96.626664-.36 1.08-.36c.440002 0 .796665.119999 1.07.36s.41.559998.41.96-.133332.723332-.4.97-.626664.37-1.08.37zm8.92 10.02c.66667.04 1 .339997 1 .9 0 .320002-.129999.563332-.39.73s-.629998.236667-1.11.21l-.54-.04c-2.240011-.160001-3.36-1.359989-3.36-3.6v-4.36h-1c-.360002 0-.636666-.079999-.83-.24s-.29-.393332-.29-.7.096666-.539999.29-.7.469998-.24.83-.24h1v-1.84c0-.360002.113332-.646666.34-.86s.533331-.32.92-.32c.373335 0 .673332.106666.9.32s.34.499998.34.86v1.84h1.7c.360002 0 .636666.079999.83.24s.29.393332.29.7-.096666.539999-.29.7-.469998.24-.83.24h-1.7v4.54c0 .986672.453329 1.513333 1.36 1.58zm7.92-8.28c.853338 0 1.606663.206665 2.26.62s1.163332.999996 1.53 1.76c.366669.760004.55 1.646662.55 2.66s-.183331 1.909996-.55 2.69c-.366668.780004-.879997 1.383331-1.54 1.81s-1.409996.64-2.25.64c-.70667 0-1.336664-.153332-1.89-.46s-.976665-.733331-1.27-1.28v.5c0 .360002-.113332.646666-.34.86s-.526665.32-.9.32-.669999-.106666-.89-.32-.33-.499998-.33-.86v-11.96c0-.346668.116666-.626666.35-.84.233335-.213334.536665-.32.91-.32s.673332.099999.9.3.34.473332.34.82v4.72c.293335-.533336.713331-.943332 1.26-1.23s1.166663-.43 1.86-.43zm-.66 8.24c.786671 0 1.399998-.279997 1.84-.84s.66-1.346662.66-2.36c0-1.000005-.216665-1.766664-.65-2.3-.433336-.533336-1.049996-.8-1.85-.8s-1.416664.269997-1.85.81c-.433335.540003-.65 1.316662-.65 2.33s.216665 1.793331.65 2.34c.433336.546669 1.049996.82 1.85.82zm14.78-8.2c.386669 0 .693332.106666.92.32s.34.499998.34.86v7.76c0 .346668-.116665.626666-.35.84-.233334.213334-.536665.32-.91.32-.360002 0-.646666-.099999-.86-.3s-.32-.473332-.32-.82v-.5c-.306668.533336-.719997.943332-1.24 1.23s-1.106663.43-1.76.43c-2.400012 0-3.6-1.346653-3.6-4.04v-4.92c0-.360002.113332-.646666.34-.86s.526665-.32.9-.32c.386669 0 .693332.106666.92.32s.34.499998.34.86v4.94c0 .693337.139999 1.206665.42 1.54s.719997.5 1.32.5c.693337 0 1.249998-.229998 1.67-.69s.63-1.069996.63-1.83v-4.46c0-.360002.113332-.646666.34-.86s.526665-.32.9-.32zm8.2 10.14c-.973338 0-1.829996-.206665-2.57-.62s-1.309998-.999996-1.71-1.76-.6-1.646662-.6-2.66.209998-1.909996.63-2.69 1.009996-1.383331 1.77-1.81 1.633328-.64 2.62-.64c.520003 0 1.043331.073333 1.57.22s.989998.346665 1.39.6c.426669.280001.64.633331.64 1.06 0 .293335-.069999.529999-.21.71s-.323332.27-.55.27c-.146667 0-.299999-.033333-.46-.1s-.319999-.146666-.48-.24c-.293335-.173334-.573332-.31-.84-.41-.266668-.100001-.573332-.15-.92-.15-.826671 0-1.463331.269997-1.91.81s-.67 1.316662-.67 2.33c0 1.000005.223331 1.769997.67 2.31s1.083329.81 1.91.81c.333335 0 .629999-.049999.89-.15.260001-.1.549998-.236666.87-.41.200001-.120001.373333-.21.52-.27s.293333-.09.44-.09c.213334 0 .393333.093332.54.28s.22.419999.22.7c0 .226668-.049999.423333-.15.59s-.263332.316666-.49.45c-.413335.266668-.893331.476666-1.44.63s-1.106664.23-1.68.23zm14.12-2.1c.266668.253335.4.539998.4.86 0 .306668-.109999.579999-.33.82s-.476665.36-.77.36-.566665-.119999-.82-.36l-4.68-4.24v3.42c0 .386669-.119999.679999-.36.88s-.539998.3-.9.3-.656665-.099999-.89-.3c-.233334-.200001-.35-.493331-.35-.88v-11.94c0-.386669.116666-.679999.35-.88.233335-.200001.529998-.3.89-.3s.659999.099999.9.3.36.493331.36.88v7.52l4.28-4.1c.240001-.240001.513332-.36.82-.36s.573332.113332.8.34.34.493332.34.8-.126665.586665-.38.84l-3.14 2.92zm9.76-.74c.226668 0 .409999.086666.55.26s.21.406665.21.7c0 .413335-.246664.759999-.74 1.04-.453336.253335-.966664.456666-1.54.61s-1.119997.23-1.64.23c-1.573341 0-2.819995-.453329-3.74-1.36s-1.38-2.146659-1.38-3.72c0-1.000005.199998-1.886663.6-2.66s.96333-1.373331 1.69-1.8 1.549995-.64 2.47-.64c.880004 0 1.646663.193331 2.3.58s1.159998.93333 1.52 1.64.54 1.539995.54 2.5c0 .573336-.253331.86-.76.86h-5.9c.08.920005.339998 1.596665.78 2.03.440002.433336 1.079996.65 1.92.65.426669 0 .803332-.053333 1.13-.16s.696665-.253332 1.11-.44c.400002-.213334.693332-.32.88-.32zm-3.46-5.58c-.680003 0-1.223331.213331-1.63.64s-.65 1.039996-.73 1.84h4.52c-.026667-.813337-.226665-1.429998-.6-1.85s-.89333-.63-1.56-.63zm11.42 6.52c.66667.04 1 .339997 1 .9 0 .320002-.129999.563332-.39.73s-.629998.236667-1.11.21l-.54-.04c-2.240011-.160001-3.36-1.359989-3.36-3.6v-4.36h-1c-.360002 0-.636666-.079999-.83-.24s-.29-.393332-.29-.7.096666-.539999.29-.7.469998-.24.83-.24h1v-1.84c0-.360002.113332-.646666.34-.86s.533331-.32.92-.32c.373335 0 .673332.106666.9.32s.34.499998.34.86v1.84h1.7c.360002 0 .636666.079999.83.24s.29.393332.29.7-.096666.539999-.29.7-.469998.24-.83.24h-1.7v4.54c0 .986672.453329 1.513333 1.36 1.58z" fill="#38535e"/></g><g transform="translate(10 150)"><use fill="url(#b)" fill-rule="evenodd" xlink:href="#c"/><use fill="#000" filter="url(#d)" xlink:href="#c"/><text/></g><g transform="translate(57 160)"><circle cx="10" cy="10" fill="#19bf7b" r="10"/><path d="m13.1807681 5.42653766c.3167145-.4524493.9402449-.56248409 1.3926942-.24576958s.5624841.94024497.2457696 1.39269426l-5.24999998 7.49999996c-.35657892.5093985-1.08665966.5733235-1.5263387.1336445l-3-3c-.39052429-.3905243-.39052429-1.0236893 0-1.41421358.39052429-.39052429 1.02368927-.39052429 1.41421356 0l2.15718377 2.15718378z" fill="#fff"/></g><g transform="translate(257 150)"><use fill="#000" filter="url(#g)" xlink:href="#f"/><use fill="url(#e)" fill-rule="evenodd" xlink:href="#f"/><use fill="#000" filter="url(#h)" xlink:href="#f"/><path d="m23.908 24.108c-.8160041 0-1.5299969-.1759982-2.142-.528s-1.0819984-.8559967-1.41-1.512-.492-1.4239956-.492-2.304.1639984-1.6459967.492-2.298.7979969-1.1539982 1.41-1.506 1.3259959-.528 2.142-.528c.5280026 0 1.0239977.0779992 1.488.234s.8759982.3819985 1.236.678c.1040005.0800004.1759998.1639996.216.252s.06.1959994.06.324c0 .1760009-.0479995.3239994-.144.444s-.2119993.18-.348.18c-.1600008 0-.3239992-.0559994-.492-.168-.3440017-.2560013-.6639985-.4339995-.96-.534s-.6239982-.15-.984-.15c-.8320042 0-1.4619979.2599974-1.89.78s-.642 1.283995-.642 2.292c0 1.0160051.2139979 1.7839974.642 2.304s1.0579958.78 1.89.78c.3440017 0 .6619985-.0519995.954-.156s.6219982-.2799988.99-.528c.0800004-.0480002.1599996-.0879998.24-.12s.1639996-.048.252-.048c.1360007 0 .2519995.0599994.348.18s.144.2679991.144.444c0 .1200006-.0199998.2259995-.06.318s-.1119995.1779996-.216.258c-.3600018.2960015-.7719977.5219992-1.236.678s-.9599974.234-1.488.234zm6.9-.012c-.600003 0-1.1259977-.1239988-1.578-.372s-.8019988-.6039977-1.05-1.068-.372-1.0039969-.372-1.62.1239988-1.1539977.372-1.614.5979977-.8139988 1.05-1.062.977997-.372 1.578-.372 1.1259977.1239988 1.578.372.7999988.6019977 1.044 1.062.366.9979969.366 1.614-.1219988 1.1559977-.366 1.62-.5919977.8199988-1.044 1.068-.977997.372-1.578.372zm-.012-1.164c.4880024 0 .8599987-.1599984 1.116-.48s.384-.7919969.384-1.416c0-.6160031-.1279987-1.0859984-.384-1.41s-.6239976-.486-1.104-.486-.8499987.1619984-1.11.486-.39.7939969-.39 1.41c0 .6240031.1279987 1.0959984.384 1.416s.6239976.48 1.104.48zm11.208-4.944c.6400032 0 1.1299983.1899981 1.47.57s.51.9939958.51 1.842v2.952c0 .2320012-.0699993.4099994-.21.534s-.3219989.186-.546.186c-.2160011 0-.3939993-.0619994-.534-.186s-.21-.3019988-.21-.534v-2.952c0-.4400022-.0779992-.7539991-.234-.942s-.3939984-.282-.714-.282c-.392002 0-.7039988.1339987-.936.402s-.348.6339977-.348 1.098v2.676c0 .2320012-.0699993.4099994-.21.534s-.3179989.186-.534.186-.3959993-.0619994-.54-.186-.216-.3019988-.216-.534v-2.952c0-.4400022-.0779992-.7539991-.234-.942s-.3939984-.282-.714-.282c-.392002 0-.7019989.1339987-.93.402s-.342.6339977-.342 1.098v2.676c0 .2320012-.0719993.4099994-.216.534s-.3239989.186-.54.186-.3939993-.0619994-.534-.186-.21-.3019988-.21-.534v-4.644c0-.2240011.0719993-.3959994.216-.516s.3239989-.18.54-.18c.208001 0 .3779993.0579994.51.174s.198.2819989.198.498v.288c.1840009-.3200016.4299985-.5639992.738-.732s.661998-.252 1.062-.252c.8800044 0 1.4679985.3679963 1.764 1.104.1760009-.3360017.4359983-.603999.78-.804s.7319978-.3 1.164-.3zm4.248 6.084c-.2160011 0-.3939993-.0619994-.534-.186s-.21-.3019988-.21-.534v-4.632c0-.2320012.0699993-.4079994.21-.528s.3179989-.18.534-.18.3959993.0599994.54.18.216.2959988.216.528v4.632c0 .2320012-.0719993.4099994-.216.534s-.3239989.186-.54.186zm0-7.128c-.2720014 0-.4879992-.0739993-.648-.222s-.24-.3419988-.24-.582.0799992-.4319993.24-.576.3759986-.216.648-.216c.2640013 0 .4779992.0719993.642.216s.246.3359988.246.576-.0799992.4339993-.24.582-.3759986.222-.648.222zm5.712 1.044c.7040035 0 1.2279983.199998 1.572.6s.516 1.003996.516 1.812v2.952c0 .2240011-.0659993.3999994-.198.528s-.3139988.192-.546.192-.4159993-.0639994-.552-.192-.204-.3039989-.204-.528v-2.868c0-.4560023-.0859991-.787999-.258-.996s-.4419982-.312-.81-.312c-.4320022 0-.7779987.1359986-1.038.408s-.39.6359977-.39 1.092v2.676c0 .2240011-.0679993.3999994-.204.528s-.3199988.192-.552.192-.4139993-.0639994-.546-.192-.198-.3039989-.198-.528v-4.644c0-.208001.0679993-.3759994.204-.504s.3199988-.192.552-.192c.208001 0 .3779993.0619994.51.186s.198.285999.198.486v.324c.200001-.3280016.4679983-.5799991.804-.756s.7159979-.264 1.14-.264zm8.58.024c.2240011 0 .4039993.0639994.54.192s.204.2999989.204.516v4.74c0 .9200046-.2559974 1.6159976-.768 2.088s-1.267995.708-2.268.708c-.8720044 0-1.5999971-.1639984-2.184-.492-.2960015-.1760009-.444-.3879988-.444-.636 0-.1760009.0419996-.3159995.126-.42s.1939993-.156.33-.156c.0720004 0 .1599995.0179998.264.054s.2119994.0779998.324.126c.2880014.1200006.5459989.2119997.774.276s.4899985.096.786.096c1.0480052 0 1.572-.5119949 1.572-1.536v-.768c-.1760009.3280016-.4319983.5819991-.768.762s-.7199978.27-1.152.27c-.5120026 0-.965998-.1219988-1.362-.366s-.7059989-.5859978-.93-1.026-.336-.9479971-.336-1.524.1099989-1.0859978.33-1.53.529998-.7879988.93-1.032.8559974-.366 1.368-.366c.4320022 0 .8159983.0899991 1.152.27s.5919991.4339984.768.762v-.312c0-.208001.0679993-.3759994.204-.504s.3159989-.192.54-.192zm-2.268 4.656c.4800024 0 .8539987-.1559984 1.122-.468s.402-.7399973.402-1.284c0-.5520028-.1339987-.9839984-.402-1.296s-.6419976-.468-1.122-.468c-.4720024 0-.8439986.1559984-1.116.468s-.408.7439972-.408 1.296c0 .5440027.1359986.9719984.408 1.284s.6439976.468 1.116.468zm10.872 1.44c-.6160031 0-1.1979973-.0819992-1.746-.246s-.9939983-.3859986-1.338-.666c-.1840009-.1360007-.276-.3279988-.276-.576 0-.1680008.0499995-.3139994.15-.438s.2179993-.186.354-.186c.1440007 0 .3079991.0559994.492.168.3440017.2480012.7039981.4279994 1.08.54s.7919977.168 1.248.168c.5840029 0 1.0319984-.101999 1.344-.306s.468-.501998.468-.894c0-.3040015-.1459985-.5379992-.438-.702s-.7779966-.3219992-1.458-.474c-.7040035-.1520008-1.2759978-.327999-1.716-.528s-.7719989-.4559984-.996-.768-.336-.7079976-.336-1.188c0-.4960025.1399986-.939998.42-1.332s.6699975-.6979989 1.17-.918 1.0619969-.33 1.686-.33c1.1440057 0 2.0759964.303997 2.796.912.1040005.0880004.1779998.1739996.222.258s.066.1899994.066.318c0 .1680008-.0499995.3139994-.15.438s-.2179993.186-.354.186c-.0800004 0-.1539997-.0119999-.222-.036s-.1579994-.0679997-.27-.132c-.3280016-.2400012-.6459985-.4179994-.954-.534s-.6859978-.174-1.134-.174c-.5440027 0-.9739984.1099989-1.29.33s-.474.525998-.474.918c0 .3280016.1399986.5799991.42.756s.7559966.3399992 1.428.492c.7120036.1600008 1.2899978.337999 1.734.534s.7839988.4459985 1.02.75.354.6839977.354 1.14c0 .4960025-.1379986.9339981-.414 1.314s-.6639975.6759989-1.164.888-1.0739968.318-1.722.318zm7.272-.012c-.600003 0-1.1259977-.1239988-1.578-.372s-.8019988-.6039977-1.05-1.068-.372-1.0039969-.372-1.62.1239988-1.1539977.372-1.614.5979977-.8139988 1.05-1.062.977997-.372 1.578-.372 1.1259977.1239988 1.578.372.7999988.6019977 1.044 1.062.366.9979969.366 1.614-.1219988 1.1559977-.366 1.62-.5919977.8199988-1.044 1.068-.977997.372-1.578.372zm-.012-1.164c.4880024 0 .8599987-.1599984 1.116-.48s.384-.7919969.384-1.416c0-.6160031-.1279987-1.0859984-.384-1.41s-.6239976-.486-1.104-.486-.8499987.1619984-1.11.486-.39.7939969-.39 1.41c0 .6240031.1279987 1.0959984.384 1.416s.6239976.48 1.104.48zm6.912 1.164c-.600003 0-1.1259977-.1239988-1.578-.372s-.8019988-.6039977-1.05-1.068-.372-1.0039969-.372-1.62.1239988-1.1539977.372-1.614.5979977-.8139988 1.05-1.062.977997-.372 1.578-.372 1.1259977.1239988 1.578.372.7999988.6019977 1.044 1.062.366.9979969.366 1.614-.1219988 1.1559977-.366 1.62-.5919977.8199988-1.044 1.068-.977997.372-1.578.372zm-.012-1.164c.4880024 0 .8599987-.1599984 1.116-.48s.384-.7919969.384-1.416c0-.6160031-.1279987-1.0859984-.384-1.41s-.6239976-.486-1.104-.486-.8499987.1619984-1.11.486-.39.7939969-.39 1.41c0 .6240031.1279987 1.0959984.384 1.416s.6239976.48 1.104.48zm7.644-4.944c.7040035 0 1.2279983.199998 1.572.6s.516 1.003996.516 1.812v2.952c0 .2240011-.0659993.3999994-.198.528s-.3139988.192-.546.192-.4159993-.0639994-.552-.192-.204-.3039989-.204-.528v-2.868c0-.4560023-.0859991-.787999-.258-.996s-.4419982-.312-.81-.312c-.4320022 0-.7779987.1359986-1.038.408s-.39.6359977-.39 1.092v2.676c0 .2240011-.0679993.3999994-.204.528s-.3199988.192-.552.192-.4139993-.0639994-.546-.192-.198-.3039989-.198-.528v-4.644c0-.208001.0679993-.3759994.204-.504s.3199988-.192.552-.192c.208001 0 .3779993.0619994.51.186s.198.285999.198.486v.324c.200001-.3280016.4679983-.5799991.804-.756s.7159979-.264 1.14-.264z" fill="#112225" fill-opacity=".801461" fill-rule="nonzero"/></g><g transform="translate(133 150)"><use fill="url(#b)" fill-rule="evenodd" xlink:href="#i"/><use fill="#000" filter="url(#j)" xlink:href="#i"/><text/></g><g transform="translate(180 160)"><circle cx="10" cy="10" fill="#19bf7b" r="10"/><path d="m13.1807681 5.42653766c.3167145-.4524493.9402449-.56248409 1.3926942-.24576958s.5624841.94024497.2457696 1.39269426l-5.24999998 7.49999996c-.35657892.5093985-1.08665966.5733235-1.5263387.1336445l-3-3c-.39052429-.3905243-.39052429-1.0236893 0-1.41421358.39052429-.39052429 1.02368927-.39052429 1.41421356 0l2.15718377 2.15718378z" fill="#fff"/></g></g></svg>