<svg height="311" viewBox="0 0 343 311" width="343" xmlns="http://www.w3.org/2000/svg" xmlns:xlink="http://www.w3.org/1999/xlink"><defs><path id="a" d="m22.6866165 60.48c-12.5294723 0-22.6866165-10.1541819-22.6866165-22.68s10.1571442-22.68 22.6866165-22.68c1.3961412 0 2.7628268.1260776 4.0892863.3674655 1.6054886-8.80878226 9.3212368-15.4874655 18.5973302-15.4874655 8.1770134 0 15.141532 5.18979304 17.7775618 12.4542938 1.4849233-.7141204 3.1502426-1.1142938 4.9090547-1.1142938 6.2647362 0 11.3433083 5.0770909 11.3433083 11.34 10.4412269 0 18.9055137 8.4618182 18.9055137 18.9s-8.4642868 18.9-18.9055137 18.9z"/><filter id="b" height="146.3%" width="128.5%" x="-14.2%" y="-21.5%"><feOffset dx="0" dy="1" in="SourceAlpha" result="shadowOffsetOuter1"/><feGaussianBlur in="shadowOffsetOuter1" result="shadowBlurOuter1" stdDeviation="4.5"/><feColorMatrix in="shadowBlurOuter1" result="shadowMatrixOuter1" type="matrix" values="0 0 0 0 0.0784051058   0 0 0 0 0.255930001   0 0 0 0 0.460824275  0 0 0 0.0509178322 0"/><feOffset dx="0" dy="1" in="SourceAlpha" result="shadowOffsetOuter2"/><feGaussianBlur in="shadowOffsetOuter2" result="shadowBlurOuter2" stdDeviation="1"/><feColorMatrix in="shadowBlurOuter2" result="shadowMatrixOuter2" type="matrix" values="0 0 0 0 0.0140485826   0 0 0 0 0.168238963   0 0 0 0 0.336192255  0 0 0 0.1 0"/><feMerge><feMergeNode in="shadowMatrixOuter1"/><feMergeNode in="shadowMatrixOuter2"/></feMerge></filter><filter id="c" height="154.6%" width="133.6%" x="-16.8%" y="-25.6%"><feGaussianBlur in="SourceAlpha" result="shadowBlurInner1" stdDeviation="3"/><feOffset dx="0" dy="-9" in="shadowBlurInner1" result="shadowOffsetInner1"/><feComposite in="shadowOffsetInner1" in2="SourceAlpha" k2="-1" k3="1" operator="arithmetic" result="shadowInnerInner1"/><feColorMatrix in="shadowInnerInner1" result="shadowMatrixInner1" type="matrix" values="0 0 0 0 0.466262472   0 0 0 0 0.647634476   0 0 0 0 0.819774683  0 0 0 0.15510271 0"/><feGaussianBlur in="SourceAlpha" result="shadowBlurInner2" stdDeviation="1"/><feOffset dx="0" dy="-2" in="shadowBlurInner2" result="shadowOffsetInner2"/><feComposite in="shadowOffsetInner2" in2="SourceAlpha" k2="-1" k3="1" operator="arithmetic" result="shadowInnerInner2"/><feColorMatrix in="shadowInnerInner2" result="shadowMatrixInner2" type="matrix" values="0 0 0 0 1   0 0 0 0 1   0 0 0 0 1  0 0 0 0.599868881 0"/><feMorphology in="SourceAlpha" operator="erode" radius="1" result="shadowSpreadInner3"/><feGaussianBlur in="shadowSpreadInner3" result="shadowBlurInner3" stdDeviation="1.5"/><feOffset dx="0" dy="3" in="shadowBlurInner3" result="shadowOffsetInner3"/><feComposite in="shadowOffsetInner3" in2="SourceAlpha" k2="-1" k3="1" operator="arithmetic" result="shadowInnerInner3"/><feColorMatrix in="shadowInnerInner3" result="shadowMatrixInner3" type="matrix" values="0 0 0 0 1   0 0 0 0 1   0 0 0 0 1  0 0 0 1 0"/><feMerge><feMergeNode in="shadowMatrixInner1"/><feMergeNode in="shadowMatrixInner2"/><feMergeNode in="shadowMatrixInner3"/></feMerge></filter><ellipse id="d" cx="45.373233" cy="18.9" rx="18.905514" ry="18.9"/><filter id="e" height="113.7%" width="113.7%" x="-6.9%" y="-6.9%"><feGaussianBlur in="SourceGraphic" stdDeviation=".864"/></filter><filter id="f" height="153.4%" width="153.4%" x="-26.7%" y="-26.7%"><feGaussianBlur in="SourceAlpha" result="shadowBlurInner1" stdDeviation="3"/><feOffset dx="0" dy="-9" in="shadowBlurInner1" result="shadowOffsetInner1"/><feComposite in="shadowOffsetInner1" in2="SourceAlpha" k2="-1" k3="1" operator="arithmetic" result="shadowInnerInner1"/><feColorMatrix in="shadowInnerInner1" result="shadowMatrixInner1" type="matrix" values="0 0 0 0 0.466262472   0 0 0 0 0.647634476   0 0 0 0 0.819774683  0 0 0 0.15510271 0"/><feGaussianBlur in="SourceAlpha" result="shadowBlurInner2" stdDeviation="1"/><feOffset dx="0" dy="-2" in="shadowBlurInner2" result="shadowOffsetInner2"/><feComposite in="shadowOffsetInner2" in2="SourceAlpha" k2="-1" k3="1" operator="arithmetic" result="shadowInnerInner2"/><feColorMatrix in="shadowInnerInner2" result="shadowMatrixInner2" type="matrix" values="0 0 0 0 1   0 0 0 0 1   0 0 0 0 1  0 0 0 0.599868881 0"/><feGaussianBlur in="SourceAlpha" result="shadowBlurInner3" stdDeviation="2.5"/><feOffset dx="0" dy="1" in="shadowBlurInner3" result="shadowOffsetInner3"/><feComposite in="shadowOffsetInner3" in2="SourceAlpha" k2="-1" k3="1" operator="arithmetic" result="shadowInnerInner3"/><feColorMatrix in="shadowInnerInner3" result="shadowMatrixInner3" type="matrix" values="0 0 0 0 0.480322041   0 0 0 0 0.765693457   0 0 0 0 0.811254529  0 0 0 0.399694056 0"/><feMorphology in="SourceAlpha" operator="erode" radius="1" result="shadowSpreadInner4"/><feGaussianBlur in="shadowSpreadInner4" result="shadowBlurInner4" stdDeviation="1.5"/><feOffset dx="0" dy="3" in="shadowBlurInner4" result="shadowOffsetInner4"/><feComposite in="shadowOffsetInner4" in2="SourceAlpha" k2="-1" k3="1" operator="arithmetic" result="shadowInnerInner4"/><feColorMatrix in="shadowInnerInner4" result="shadowMatrixInner4" type="matrix" values="0 0 0 0 1   0 0 0 0 1   0 0 0 0 1  0 0 0 1 0"/><feMerge><feMergeNode in="shadowMatrixInner1"/><feMergeNode in="shadowMatrixInner2"/><feMergeNode in="shadowMatrixInner3"/><feMergeNode in="shadowMatrixInner4"/></feMerge></filter><ellipse id="g" cx="68.05985" cy="22.68" rx="11.343308" ry="11.34"/><filter id="h" height="122.9%" width="122.9%" x="-11.4%" y="-11.4%"><feGaussianBlur in="SourceGraphic" stdDeviation=".864"/></filter><filter id="i" height="171.4%" width="171.3%" x="-35.7%" y="-35.7%"><feGaussianBlur in="SourceAlpha" result="shadowBlurInner1" stdDeviation="2.5"/><feOffset dx="0" dy="-6" in="shadowBlurInner1" result="shadowOffsetInner1"/><feComposite in="shadowOffsetInner1" in2="SourceAlpha" k2="-1" k3="1" operator="arithmetic" result="shadowInnerInner1"/><feColorMatrix in="shadowInnerInner1" result="shadowMatrixInner1" type="matrix" values="0 0 0 0 0.466262472   0 0 0 0 0.647634476   0 0 0 0 0.819774683  0 0 0 0.15510271 0"/><feGaussianBlur in="SourceAlpha" result="shadowBlurInner2" stdDeviation="1"/><feOffset dx="0" dy="-2" in="shadowBlurInner2" result="shadowOffsetInner2"/><feComposite in="shadowOffsetInner2" in2="SourceAlpha" k2="-1" k3="1" operator="arithmetic" result="shadowInnerInner2"/><feColorMatrix in="shadowInnerInner2" result="shadowMatrixInner2" type="matrix" values="0 0 0 0 1   0 0 0 0 1   0 0 0 0 1  0 0 0 0.599868881 0"/><feMorphology in="SourceAlpha" operator="erode" radius="1" result="shadowSpreadInner3"/><feGaussianBlur in="shadowSpreadInner3" result="shadowBlurInner3" stdDeviation="1.5"/><feOffset dx="0" dy="3" in="shadowBlurInner3" result="shadowOffsetInner3"/><feComposite in="shadowOffsetInner3" in2="SourceAlpha" k2="-1" k3="1" operator="arithmetic" result="shadowInnerInner3"/><feColorMatrix in="shadowInnerInner3" result="shadowMatrixInner3" type="matrix" values="0 0 0 0 1   0 0 0 0 1   0 0 0 0 1  0 0 0 1 0"/><feMerge><feMergeNode in="shadowMatrixInner1"/><feMergeNode in="shadowMatrixInner2"/><feMergeNode in="shadowMatrixInner3"/></feMerge></filter><path id="j" d="m31.5091896 84c-17.4020449 0-31.5091896-14.1030304-31.5091896-31.5s14.1071447-31.5 31.5091896-31.5c1.9391854 0 3.8374561.175126 5.6798505.5104209 2.2304395-12.23523408 12.9464053-21.5104209 25.8293391-21.5104209 11.3570451 0 21.0300455 7.20815011 24.6911375 17.2978491 2.0628522-.992182 4.3755417-1.5478491 6.8180521-1.5478491 8.7010222 0 15.7545952 7.0515152 15.7545952 15.75 14.501704 0 26.257658 11.7525253 26.257658 26.25s-11.755954 26.25-26.257658 26.25z"/><filter id="k" height="144%" width="127.1%" x="-13.5%" y="-20.8%"><feOffset dx="0" dy="1" in="SourceAlpha" result="shadowOffsetOuter1"/><feGaussianBlur in="shadowOffsetOuter1" result="shadowBlurOuter1" stdDeviation="6"/><feColorMatrix in="shadowBlurOuter1" result="shadowMatrixOuter1" type="matrix" values="0 0 0 0 0.0784051058   0 0 0 0 0.255930001   0 0 0 0 0.460824275  0 0 0 0.0509178322 0"/><feOffset dx="0" dy="1" in="SourceAlpha" result="shadowOffsetOuter2"/><feGaussianBlur in="shadowOffsetOuter2" result="shadowBlurOuter2" stdDeviation="1.5"/><feColorMatrix in="shadowBlurOuter2" result="shadowMatrixOuter2" type="matrix" values="0 0 0 0 0.0140485826   0 0 0 0 0.168238963   0 0 0 0 0.336192255  0 0 0 0.1 0"/><feMerge><feMergeNode in="shadowMatrixOuter1"/><feMergeNode in="shadowMatrixOuter2"/></feMerge></filter><filter id="l" height="153.6%" width="133%" x="-16.5%" y="-25.6%"><feGaussianBlur in="SourceAlpha" result="shadowBlurInner1" stdDeviation="4.5"/><feOffset dx="0" dy="-12" in="shadowBlurInner1" result="shadowOffsetInner1"/><feComposite in="shadowOffsetInner1" in2="SourceAlpha" k2="-1" k3="1" operator="arithmetic" result="shadowInnerInner1"/><feColorMatrix in="shadowInnerInner1" result="shadowMatrixInner1" type="matrix" values="0 0 0 0 0.466262472   0 0 0 0 0.647634476   0 0 0 0 0.819774683  0 0 0 0.15510271 0"/><feGaussianBlur in="SourceAlpha" result="shadowBlurInner2" stdDeviation="1.5"/><feOffset dx="0" dy="-3" in="shadowBlurInner2" result="shadowOffsetInner2"/><feComposite in="shadowOffsetInner2" in2="SourceAlpha" k2="-1" k3="1" operator="arithmetic" result="shadowInnerInner2"/><feColorMatrix in="shadowInnerInner2" result="shadowMatrixInner2" type="matrix" values="0 0 0 0 1   0 0 0 0 1   0 0 0 0 1  0 0 0 0.599868881 0"/><feMorphology in="SourceAlpha" operator="erode" radius="1" result="shadowSpreadInner3"/><feGaussianBlur in="shadowSpreadInner3" result="shadowBlurInner3" stdDeviation="2"/><feOffset dx="0" dy="4" in="shadowBlurInner3" result="shadowOffsetInner3"/><feComposite in="shadowOffsetInner3" in2="SourceAlpha" k2="-1" k3="1" operator="arithmetic" result="shadowInnerInner3"/><feColorMatrix in="shadowInnerInner3" result="shadowMatrixInner3" type="matrix" values="0 0 0 0 1   0 0 0 0 1   0 0 0 0 1  0 0 0 1 0"/><feMerge><feMergeNode in="shadowMatrixInner1"/><feMergeNode in="shadowMatrixInner2"/><feMergeNode in="shadowMatrixInner3"/></feMerge></filter><ellipse id="m" cx="63.018379" cy="26.25" rx="26.257658" ry="26.25"/><filter id="n" height="113.7%" width="113.7%" x="-6.9%" y="-6.9%"><feGaussianBlur in="SourceGraphic" stdDeviation="1.2"/></filter><filter id="o" height="153.7%" width="153.7%" x="-26.8%" y="-26.9%"><feGaussianBlur in="SourceAlpha" result="shadowBlurInner1" stdDeviation="4.5"/><feOffset dx="0" dy="-12" in="shadowBlurInner1" result="shadowOffsetInner1"/><feComposite in="shadowOffsetInner1" in2="SourceAlpha" k2="-1" k3="1" operator="arithmetic" result="shadowInnerInner1"/><feColorMatrix in="shadowInnerInner1" result="shadowMatrixInner1" type="matrix" values="0 0 0 0 0.466262472   0 0 0 0 0.647634476   0 0 0 0 0.819774683  0 0 0 0.15510271 0"/><feGaussianBlur in="SourceAlpha" result="shadowBlurInner2" stdDeviation="1.5"/><feOffset dx="0" dy="-3" in="shadowBlurInner2" result="shadowOffsetInner2"/><feComposite in="shadowOffsetInner2" in2="SourceAlpha" k2="-1" k3="1" operator="arithmetic" result="shadowInnerInner2"/><feColorMatrix in="shadowInnerInner2" result="shadowMatrixInner2" type="matrix" values="0 0 0 0 1   0 0 0 0 1   0 0 0 0 1  0 0 0 0.599868881 0"/><feGaussianBlur in="SourceAlpha" result="shadowBlurInner3" stdDeviation="3"/><feOffset dx="0" dy="1" in="shadowBlurInner3" result="shadowOffsetInner3"/><feComposite in="shadowOffsetInner3" in2="SourceAlpha" k2="-1" k3="1" operator="arithmetic" result="shadowInnerInner3"/><feColorMatrix in="shadowInnerInner3" result="shadowMatrixInner3" type="matrix" values="0 0 0 0 0.480322041   0 0 0 0 0.765693457   0 0 0 0 0.811254529  0 0 0 0.399694056 0"/><feMorphology in="SourceAlpha" operator="erode" radius="1" result="shadowSpreadInner4"/><feGaussianBlur in="shadowSpreadInner4" result="shadowBlurInner4" stdDeviation="2"/><feOffset dx="0" dy="4" in="shadowBlurInner4" result="shadowOffsetInner4"/><feComposite in="shadowOffsetInner4" in2="SourceAlpha" k2="-1" k3="1" operator="arithmetic" result="shadowInnerInner4"/><feColorMatrix in="shadowInnerInner4" result="shadowMatrixInner4" type="matrix" values="0 0 0 0 1   0 0 0 0 1   0 0 0 0 1  0 0 0 1 0"/><feMerge><feMergeNode in="shadowMatrixInner1"/><feMergeNode in="shadowMatrixInner2"/><feMergeNode in="shadowMatrixInner3"/><feMergeNode in="shadowMatrixInner4"/></feMerge></filter><ellipse id="p" cx="94.527569" cy="31.5" rx="15.754595" ry="15.75"/><filter id="q" height="122.9%" width="122.9%" x="-11.4%" y="-11.4%"><feGaussianBlur in="SourceGraphic" stdDeviation="1.2"/></filter><filter id="r" height="170.5%" width="170.5%" x="-35.2%" y="-35.2%"><feGaussianBlur in="SourceAlpha" result="shadowBlurInner1" stdDeviation="3"/><feOffset dx="0" dy="-9" in="shadowBlurInner1" result="shadowOffsetInner1"/><feComposite in="shadowOffsetInner1" in2="SourceAlpha" k2="-1" k3="1" operator="arithmetic" result="shadowInnerInner1"/><feColorMatrix in="shadowInnerInner1" result="shadowMatrixInner1" type="matrix" values="0 0 0 0 0.466262472   0 0 0 0 0.647634476   0 0 0 0 0.819774683  0 0 0 0.15510271 0"/><feGaussianBlur in="SourceAlpha" result="shadowBlurInner2" stdDeviation="1.5"/><feOffset dx="0" dy="-3" in="shadowBlurInner2" result="shadowOffsetInner2"/><feComposite in="shadowOffsetInner2" in2="SourceAlpha" k2="-1" k3="1" operator="arithmetic" result="shadowInnerInner2"/><feColorMatrix in="shadowInnerInner2" result="shadowMatrixInner2" type="matrix" values="0 0 0 0 1   0 0 0 0 1   0 0 0 0 1  0 0 0 0.599868881 0"/><feMorphology in="SourceAlpha" operator="erode" radius="1" result="shadowSpreadInner3"/><feGaussianBlur in="shadowSpreadInner3" result="shadowBlurInner3" stdDeviation="2"/><feOffset dx="0" dy="4" in="shadowBlurInner3" result="shadowOffsetInner3"/><feComposite in="shadowOffsetInner3" in2="SourceAlpha" k2="-1" k3="1" operator="arithmetic" result="shadowInnerInner3"/><feColorMatrix in="shadowInnerInner3" result="shadowMatrixInner3" type="matrix" values="0 0 0 0 1   0 0 0 0 1   0 0 0 0 1  0 0 0 1 0"/><feMerge><feMergeNode in="shadowMatrixInner1"/><feMergeNode in="shadowMatrixInner2"/><feMergeNode in="shadowMatrixInner3"/></feMerge></filter><path id="s" d="m37.8110275 100.8c-20.8824539 0-37.8110275-16.9236365-37.8110275-37.8s16.9285736-37.8 37.8110275-37.8c2.3266007 0 4.6041214.210075 6.8146182.6122862 2.6769475-14.6813849 15.5364185-25.8122862 30.9964093-25.8122862 13.6283515 0 25.23588 8.64964974 29.629266 20.7571451 2.476012-1.1904623 5.251008-1.8571451 8.181762-1.8571451 10.441226 0 18.905513 8.4618182 18.905513 18.9 17.402045 0 31.50919 14.1030304 31.50919 31.5s-14.107145 31.5-31.50919 31.5z"/><filter id="t" height="142.7%" width="126.2%" x="-13.1%" y="-20.3%"><feOffset dx="0" dy="1" in="SourceAlpha" result="shadowOffsetOuter1"/><feGaussianBlur in="shadowOffsetOuter1" result="shadowBlurOuter1" stdDeviation="7"/><feColorMatrix in="shadowBlurOuter1" result="shadowMatrixOuter1" type="matrix" values="0 0 0 0 0.0784051058   0 0 0 0 0.255930001   0 0 0 0 0.460824275  0 0 0 0.0509178322 0"/><feOffset dx="0" dy="1" in="SourceAlpha" result="shadowOffsetOuter2"/><feGaussianBlur in="shadowOffsetOuter2" result="shadowBlurOuter2" stdDeviation="2"/><feColorMatrix in="shadowBlurOuter2" result="shadowMatrixOuter2" type="matrix" values="0 0 0 0 0.0140485826   0 0 0 0 0.168238963   0 0 0 0 0.336192255  0 0 0 0.1 0"/><feMerge><feMergeNode in="shadowMatrixOuter1"/><feMergeNode in="shadowMatrixOuter2"/></feMerge></filter><filter id="u" height="152.6%" width="132.3%" x="-16.2%" y="-25.3%"><feGaussianBlur in="SourceAlpha" result="shadowBlurInner1" stdDeviation="5.5"/><feOffset dx="0" dy="-14" in="shadowBlurInner1" result="shadowOffsetInner1"/><feComposite in="shadowOffsetInner1" in2="SourceAlpha" k2="-1" k3="1" operator="arithmetic" result="shadowInnerInner1"/><feColorMatrix in="shadowInnerInner1" result="shadowMatrixInner1" type="matrix" values="0 0 0 0 0.466262472   0 0 0 0 0.647634476   0 0 0 0 0.819774683  0 0 0 0.15510271 0"/><feGaussianBlur in="SourceAlpha" result="shadowBlurInner2" stdDeviation="2"/><feOffset dx="0" dy="-4" in="shadowBlurInner2" result="shadowOffsetInner2"/><feComposite in="shadowOffsetInner2" in2="SourceAlpha" k2="-1" k3="1" operator="arithmetic" result="shadowInnerInner2"/><feColorMatrix in="shadowInnerInner2" result="shadowMatrixInner2" type="matrix" values="0 0 0 0 1   0 0 0 0 1   0 0 0 0 1  0 0 0 0.599868881 0"/><feMorphology in="SourceAlpha" operator="erode" radius="1" result="shadowSpreadInner3"/><feGaussianBlur in="shadowSpreadInner3" result="shadowBlurInner3" stdDeviation="2.5"/><feOffset dx="0" dy="5" in="shadowBlurInner3" result="shadowOffsetInner3"/><feComposite in="shadowOffsetInner3" in2="SourceAlpha" k2="-1" k3="1" operator="arithmetic" result="shadowInnerInner3"/><feColorMatrix in="shadowInnerInner3" result="shadowMatrixInner3" type="matrix" values="0 0 0 0 1   0 0 0 0 1   0 0 0 0 1  0 0 0 1 0"/><feMerge><feMergeNode in="shadowMatrixInner1"/><feMergeNode in="shadowMatrixInner2"/><feMergeNode in="shadowMatrixInner3"/></feMerge></filter><ellipse id="v" cx="75.622055" cy="31.5" rx="31.50919" ry="31.5"/><filter id="w" height="113.7%" width="113.7%" x="-6.9%" y="-6.9%"><feGaussianBlur in="SourceGraphic" stdDeviation="1.44"/></filter><filter id="x" height="153.4%" width="153.4%" x="-26.7%" y="-26.7%"><feGaussianBlur in="SourceAlpha" result="shadowBlurInner1" stdDeviation="5.5"/><feOffset dx="0" dy="-14" in="shadowBlurInner1" result="shadowOffsetInner1"/><feComposite in="shadowOffsetInner1" in2="SourceAlpha" k2="-1" k3="1" operator="arithmetic" result="shadowInnerInner1"/><feColorMatrix in="shadowInnerInner1" result="shadowMatrixInner1" type="matrix" values="0 0 0 0 0.466262472   0 0 0 0 0.647634476   0 0 0 0 0.819774683  0 0 0 0.15510271 0"/><feGaussianBlur in="SourceAlpha" result="shadowBlurInner2" stdDeviation="2"/><feOffset dx="0" dy="-4" in="shadowBlurInner2" result="shadowOffsetInner2"/><feComposite in="shadowOffsetInner2" in2="SourceAlpha" k2="-1" k3="1" operator="arithmetic" result="shadowInnerInner2"/><feColorMatrix in="shadowInnerInner2" result="shadowMatrixInner2" type="matrix" values="0 0 0 0 1   0 0 0 0 1   0 0 0 0 1  0 0 0 0.599868881 0"/><feGaussianBlur in="SourceAlpha" result="shadowBlurInner3" stdDeviation="3.5"/><feOffset dx="0" dy="1" in="shadowBlurInner3" result="shadowOffsetInner3"/><feComposite in="shadowOffsetInner3" in2="SourceAlpha" k2="-1" k3="1" operator="arithmetic" result="shadowInnerInner3"/><feColorMatrix in="shadowInnerInner3" result="shadowMatrixInner3" type="matrix" values="0 0 0 0 0.480322041   0 0 0 0 0.765693457   0 0 0 0 0.811254529  0 0 0 0.399694056 0"/><feMorphology in="SourceAlpha" operator="erode" radius="1" result="shadowSpreadInner4"/><feGaussianBlur in="shadowSpreadInner4" result="shadowBlurInner4" stdDeviation="2.5"/><feOffset dx="0" dy="5" in="shadowBlurInner4" result="shadowOffsetInner4"/><feComposite in="shadowOffsetInner4" in2="SourceAlpha" k2="-1" k3="1" operator="arithmetic" result="shadowInnerInner4"/><feColorMatrix in="shadowInnerInner4" result="shadowMatrixInner4" type="matrix" values="0 0 0 0 1   0 0 0 0 1   0 0 0 0 1  0 0 0 1 0"/><feMerge><feMergeNode in="shadowMatrixInner1"/><feMergeNode in="shadowMatrixInner2"/><feMergeNode in="shadowMatrixInner3"/><feMergeNode in="shadowMatrixInner4"/></feMerge></filter><ellipse id="y" cx="113.433083" cy="37.8" rx="18.905514" ry="18.9"/><filter id="z" height="122.9%" width="122.9%" x="-11.4%" y="-11.4%"><feGaussianBlur in="SourceGraphic" stdDeviation="1.44"/></filter><filter id="A" height="170.5%" width="170.5%" x="-35.2%" y="-35.2%"><feGaussianBlur in="SourceAlpha" result="shadowBlurInner1" stdDeviation="3.5"/><feOffset dx="0" dy="-11" in="shadowBlurInner1" result="shadowOffsetInner1"/><feComposite in="shadowOffsetInner1" in2="SourceAlpha" k2="-1" k3="1" operator="arithmetic" result="shadowInnerInner1"/><feColorMatrix in="shadowInnerInner1" result="shadowMatrixInner1" type="matrix" values="0 0 0 0 0.466262472   0 0 0 0 0.647634476   0 0 0 0 0.819774683  0 0 0 0.15510271 0"/><feGaussianBlur in="SourceAlpha" result="shadowBlurInner2" stdDeviation="2"/><feOffset dx="0" dy="-4" in="shadowBlurInner2" result="shadowOffsetInner2"/><feComposite in="shadowOffsetInner2" in2="SourceAlpha" k2="-1" k3="1" operator="arithmetic" result="shadowInnerInner2"/><feColorMatrix in="shadowInnerInner2" result="shadowMatrixInner2" type="matrix" values="0 0 0 0 1   0 0 0 0 1   0 0 0 0 1  0 0 0 0.599868881 0"/><feMorphology in="SourceAlpha" operator="erode" radius="1" result="shadowSpreadInner3"/><feGaussianBlur in="shadowSpreadInner3" result="shadowBlurInner3" stdDeviation="2.5"/><feOffset dx="0" dy="5" in="shadowBlurInner3" result="shadowOffsetInner3"/><feComposite in="shadowOffsetInner3" in2="SourceAlpha" k2="-1" k3="1" operator="arithmetic" result="shadowInnerInner3"/><feColorMatrix in="shadowInnerInner3" result="shadowMatrixInner3" type="matrix" values="0 0 0 0 1   0 0 0 0 1   0 0 0 0 1  0 0 0 1 0"/><feMerge><feMergeNode in="shadowMatrixInner1"/><feMergeNode in="shadowMatrixInner2"/><feMergeNode in="shadowMatrixInner3"/></feMerge></filter><circle id="B" cx="16.05" cy="16.05" r="16.05"/><filter id="C" height="171.7%" width="171.7%" x="-35.8%" y="-29.6%"><feMorphology in="SourceAlpha" operator="dilate" radius="0.5" result="shadowSpreadOuter1"/><feOffset dx="0" dy="2" in="shadowSpreadOuter1" result="shadowOffsetOuter1"/><feGaussianBlur in="shadowOffsetOuter1" result="shadowBlurOuter1" stdDeviation="3"/><feColorMatrix in="shadowBlurOuter1" type="matrix" values="0 0 0 0 0.24091106   0 0 0 0 0.185557333   0 0 0 0 0.318132926  0 0 0 0.230878497 0"/></filter><circle id="D" cx="19.26" cy="19.26" r="19.26"/><filter id="E" height="167.5%" width="167.5%" x="-33.7%" y="-28.6%"><feMorphology in="SourceAlpha" operator="dilate" radius="0.5" result="shadowSpreadOuter1"/><feOffset dx="0" dy="2" in="shadowSpreadOuter1" result="shadowOffsetOuter1"/><feGaussianBlur in="shadowOffsetOuter1" result="shadowBlurOuter1" stdDeviation="3.5"/><feColorMatrix in="shadowBlurOuter1" type="matrix" values="0 0 0 0 0.24091106   0 0 0 0 0.185557333   0 0 0 0 0.318132926  0 0 0 0.230878497 0"/></filter><circle id="F" cx="26.964" cy="26.964" r="26.964"/><filter id="G" height="166.8%" width="166.8%" x="-33.4%" y="-27.8%"><feMorphology in="SourceAlpha" operator="dilate" radius="0.5" result="shadowSpreadOuter1"/><feOffset dx="0" dy="3" in="shadowSpreadOuter1" result="shadowOffsetOuter1"/><feGaussianBlur in="shadowOffsetOuter1" result="shadowBlurOuter1" stdDeviation="5"/><feColorMatrix in="shadowBlurOuter1" type="matrix" values="0 0 0 0 0.24091106   0 0 0 0 0.185557333   0 0 0 0 0.318132926  0 0 0 0.230878497 0"/></filter><mask id="H" fill="#fff"><use fill="#fff" fill-rule="evenodd" xlink:href="#a"/></mask><mask id="I" fill="#fff"><use fill="#fff" fill-rule="evenodd" xlink:href="#j"/></mask><mask id="J" fill="#fff"><use fill="#fff" fill-rule="evenodd" xlink:href="#s"/></mask><mask id="K" fill="#fff"><path d="m8.32932688.54519231-3.75576924 6.13846154c-.4139423.66634615.07067308 1.53461538.85817308 1.53461538h7.50144228c.7875 0 1.2721154-.86826923.8581731-1.53461538l-3.7456731-6.13846154c-.39374997-.64615385-1.32259612-.64615385-1.71634612 0zm6.41105772 9.69230769c-1.6231538 0-3.1230098.8659422-3.9345867 2.2716346-.81157688 1.4056924-.81157688 3.1375769 0 4.5432693.8115769 1.4056924 2.3114329 2.2716346 3.9345867 2.2716346s3.1230097-.8659422 3.9345866-2.2716346.8115769-3.1375769 0-4.5432693-2.3114328-2.2716346-3.9345866-2.2716346zm-13.62980772 8.5817308h6.0576923c.55528846 0 1.00961539-.454327 1.00961539-1.0096154v-6.0576923c0-.5552885-.45432693-1.0096154-1.00961539-1.0096154h-6.0576923c-.55528847 0-1.00961539.4543269-1.00961539 1.0096154v6.0576923c0 .5552884.45432692 1.0096154 1.00961539 1.0096154z" fill="#fff" fill-rule="evenodd"/></mask><mask id="L" fill="#fff"><path d="m10.185372 7.92339218c-1.2440889 0-2.26197982 1.01789092-2.26197982 2.26197982s1.01789092 2.2619798 2.26197982 2.2619798 2.2619798-1.0178909 2.2619798-2.2619798-1.0178909-2.26197982-2.2619798-2.26197982zm7.9169294-7.91692938h-15.83385878c-1.2553988 0-2.26197982 1.01789092-2.26197982 2.26197982v15.83385878c0 1.2440889 1.00658102 2.2619798 2.26197982 2.2619798h15.83385878c1.2553988 0 2.2619798-1.0178909 2.2619798-2.2619798v-15.83385878c0-1.2440889-1.006581-2.26197982-2.2619798-2.26197982zm-1.9792324 10.1789092c0 .2601277-.0226198.5202554-.0565495.7690731l1.6738651 1.3119483c.1470287.1244089.1922683.339297.0904792.5089455l-1.5833859 2.7369956c-.1017891.1696485-.3053672.2375079-.4863256.1696485l-1.9679225-.791693c-.4071563.3166772-.8595523.5768049-1.3345681.7803831l-.2940573 2.0923313c-.0339297.1922683-.2035782.339297-.3958465.339297h-3.16677177c-.19226829 0-.36191677-.1470287-.39584647-.3279871l-.29405738-2.0923313c-.48632566-.2035782-.92741173-.4637059-1.33456809-.7803831l-1.96792245.791693c-.18095839.0678594-.38453657 0-.48632566-.1696485l-1.58338588-2.7369956c-.10178909-.1696485-.05654949-.3845366.09047919-.5089455l1.67386507-1.3119483c-.03392969-.2601276-.05654949-.5202553-.05654949-.780383 0-.26012767.0226198-.52025535.05654949-.76907313l-1.67386507-1.3119483c-.14702868-.12440889-.19226828-.33929698-.09047919-.50894546l1.58338588-2.73699559c.10178909-.16964849.30536727-.23750788.48632566-.16964849l1.96792245.79169294c.40715636-.31667717.85955233-.57680485 1.33456809-.78038304l.29405738-2.09233133c.0339297-.19226829.20357818-.33929698.39584647-.33929698h3.16677177c.1922683 0 .3619168.14702869.3958465.32798708l.2940573 2.09233133c.4863257.20357819.9274118.46370587 1.3345681.78038304l1.9679225-.79169294c.1809584-.06785939.3845365 0 .4863256.16964849l1.5833859 2.73699559c.1017891.16964848.0565495.38453657-.0904792.50894546l-1.6738651 1.3119483c.0339297.26012768.0565495.52025536.0565495.78038303z" fill="#fff" fill-rule="evenodd"/></mask><mask id="M" fill="#fff"><path d="m18.1351245 2.92904701v.03266403c0 1.09424491.7349406 2.00883767 1.7638574 2.33547794 4.6546239 1.45354921 8.0353507 5.78153282 8.0353507 10.90978512 0 .8492647-.0979921 1.6495333-.2776442 2.43347-.2286482 1.0452488.1959842 2.1231617 1.1269089 2.6784502l.016332.016332c1.4045532.8166007 3.2337387.0816601 3.609375-1.4862132.2776443-1.175905.4246324-2.400806.4246324-3.642039 0-7.34940616-4.8669401-13.58823534-11.5630656-15.62973704-1.5515413-.47362839-3.1357466.7186086-3.1357466 2.35180995zm-3.3643948 24.57968039c-4.88327208-.7022765-8.85195138-4.6709558-9.57055998-9.5378959-.88192873-5.8795249 2.71111426-11.05677317 7.88836258-12.67364252 1.0452488-.31030826 1.7801895-1.24123303 1.7801895-2.33547794v-.03266403c0-1.63320135-1.5842054-2.82543834-3.1520787-2.35180995-7.36573808 2.25381787-12.51032236 9.57055994-11.39974544 17.89988684.96358881 7.153422 6.74512161 12.9349548 13.89854354 13.8985436 5.1282523.6859446 9.8645362-.9962528 13.2779271-4.1319994 1.208569-1.110577.9962528-3.0867506-.4246324-3.9033513-.9472568-.5552885-2.1231618-.3756363-2.9397624.3593043-2.400806 2.1884898-5.7325368 3.3480628-9.3582438 2.8091063z" fill="#fff" fill-rule="evenodd"/></mask></defs><g fill="none" fill-rule="evenodd"><g stroke="#fff" transform="matrix(0 1 -1 0 213.783582 60.7)"><path d="m73.9816208.5h-72.99999998v65" stroke-width="2.5" transform="matrix(-1 0 0 1 74.963242 0)"/><circle cx="74.025177" cy="72.085427" fill="#fff" r="6.75" stroke-width="2" transform="matrix(-1 0 0 1 148.050352 0)"/></g><g transform="translate(164.463582 8.06)"><use fill="#000" filter="url(#b)" xlink:href="#a"/><use fill="#fff" fill-rule="evenodd" xlink:href="#a"/><use fill="#000" filter="url(#c)" xlink:href="#a"/><g filter="url(#e)" mask="url(#H)" opacity=".599028"><use fill="#fff" fill-rule="evenodd" xlink:href="#d"/><use fill="#000" filter="url(#f)" xlink:href="#d"/></g><g filter="url(#h)" mask="url(#H)" opacity=".599028"><use fill="#fff" fill-rule="evenodd" xlink:href="#g"/><use fill="#000" filter="url(#i)" xlink:href="#g"/></g></g><g stroke="#fff" transform="matrix(0 1 -1 0 265.783582 142.2)"><path d="m47.9816208.5h-46.99999998v184" stroke-width="2.5" transform="matrix(-1 0 0 1 48.963242 0)"/><circle cx="48.025177" cy="191.085427" fill="#fff" r="6.75" stroke-width="2" transform="matrix(-1 0 0 1 96.050352 0)"/></g><g transform="translate(195.233582 75.55)"><use fill="#000" filter="url(#k)" xlink:href="#j"/><use fill="#fff" fill-rule="evenodd" xlink:href="#j"/><use fill="#000" filter="url(#l)" xlink:href="#j"/><g filter="url(#n)" mask="url(#I)" opacity=".599028"><use fill="#fff" fill-rule="evenodd" xlink:href="#m"/><use fill="#000" filter="url(#o)" xlink:href="#m"/></g><g filter="url(#q)" mask="url(#I)" opacity=".599028"><use fill="#fff" fill-rule="evenodd" xlink:href="#p"/><use fill="#000" filter="url(#r)" xlink:href="#p"/></g></g><g stroke="#fff" transform="matrix(0 1 -1 0 143.783582 240.55)"><path d="m6.277497 0v129z" stroke-width="2.5" transform="matrix(-1 0 0 1 12.554994 0)"/><circle cx="6.75" cy="136" fill="#fff" r="6.75" stroke-width="2" transform="matrix(-1 0 0 1 13.5 0)"/></g><g transform="translate(115.233582 180.9)"><use fill="#000" filter="url(#t)" xlink:href="#s"/><use fill="#fff" fill-rule="evenodd" xlink:href="#s"/><use fill="#000" filter="url(#u)" xlink:href="#s"/><g filter="url(#w)" mask="url(#J)" opacity=".599028"><use fill="#fff" fill-rule="evenodd" xlink:href="#v"/><use fill="#000" filter="url(#x)" xlink:href="#v"/></g><g filter="url(#z)" mask="url(#J)" opacity=".599028"><use fill="#fff" fill-rule="evenodd" xlink:href="#y"/><use fill="#000" filter="url(#A)" xlink:href="#y"/></g></g><g transform="translate(197.283582 43.2)"><use fill="#000" filter="url(#C)" xlink:href="#B"/><use fill="#fff" fill-rule="evenodd" xlink:href="#B"/></g><g fill="#000" fill-opacity=".87" mask="url(#K)" transform="translate(203.583582 49.5)"><path d="m0 0h24.230769v24.230769h-24.230769z" transform="translate(-2.423077 -2.423077)"/></g><g transform="translate(247.283582 125.7)"><use fill="#000" filter="url(#E)" xlink:href="#D"/><use fill="#fff" fill-rule="evenodd" xlink:href="#D"/></g><g fill="#000" fill-opacity=".87" mask="url(#L)" transform="translate(256.043582 135.46)"><path d="m0 0h27.143758v27.143758h-27.143758z" transform="translate(-3.386507 -3.386507)"/></g><g transform="translate(169.983582 243.4)"><use fill="#000" filter="url(#G)" xlink:href="#F"/><use fill="#fff" fill-rule="evenodd" xlink:href="#F"/></g><g fill="#000" fill-opacity=".87" mask="url(#M)" transform="translate(180.447582 253.864)"><path d="m0 0h39.196833v39.196833h-39.196833z" transform="translate(-3.098416 -3.098416)"/></g></g></svg>