<svg height="380" viewBox="0 0 1047 380" width="1047" xmlns="http://www.w3.org/2000/svg" xmlns:xlink="http://www.w3.org/1999/xlink"><radialGradient id="a" cx="46.391131%" cy="65.090136%" gradientTransform="matrix(-.16504683 -.98606714 .97835511 -.16634784 -.096334 1.216624)" r="62.132768%"><stop offset="0" stop-color="#8900ff" stop-opacity=".069466"/><stop offset="1" stop-color="#6200ee" stop-opacity=".910511"/></radialGradient><path d="m1088.23564 1501c380.32638 0 688.64182-308.31544 688.64182-688.64182 0-264.685626-119.62355-490.059477-337.78907-606.13855-49.67174-26.428784-117.18478-13.805165-173.21911-27.344942-51.49116-12.441996-119.40332-57.874688-174.78068-57.874688-57.05246 0-112.733892 19.793776-165.856929 32.975915-52.111813 12.93121-126.467501 23.725725-173.240763 47.786455-132.518401 68.169061-173.919842 218.026536-232.781908 350.483585-40.367337 90.838444-133.209 216.193719-133.209 324.936597 0 380.326378 321.909267 623.817448 702.23564 623.817448z" fill="url(#a)" fill-rule="evenodd" transform="matrix(.98162718 -.190809 .190809 .98162718 -648.093438 92.248592)"/></svg>