<svg height="237" viewBox="0 0 817 237" width="817" xmlns="http://www.w3.org/2000/svg" xmlns:xlink="http://www.w3.org/1999/xlink"><radialGradient id="a" cx="46.391131%" cy="65.090136%" gradientTransform="matrix(-.16479349 -.98455352 .92668737 -.17508387 -.062821 1.221608)" r="62.228288%"><stop offset="0" stop-color="#00d1ff" stop-opacity=".055398"/><stop offset="1" stop-color="#1ec4e9"/></radialGradient><radialGradient id="b" cx="46.391131%" cy="65.090136%" gradientTransform="matrix(-.16504683 -.98606714 .97835511 -.16634784 -.096334 1.216624)" r="62.132768%"><stop offset="0" stop-color="#8900ff" stop-opacity=".069466"/><stop offset="1" stop-color="#6200ee" stop-opacity=".910511"/></radialGradient><g fill="none" fill-rule="evenodd" opacity=".950777" transform="translate(-91 -69)"><path d="m434.067138 898.654355c210.325042 0 380.827177-170.502135 380.827177-380.827178 0-132.933745-33.458996-223.519172-127.243914-292.750963-18.283453-13.4968-44.354055-54.886331-66.903274-64.205337-44.789237-18.510228-135.204245-23.870877-186.679989-23.870877-74.303771 0-124.03303 45.586638-177.500443 69.048463-39.164542 17.185638-121.386732 38.462326-149.598561 68.632435-20.7096305 22.147157-38.2022556 119.47152-55.3598276 188.067348-28.6949928 114.722339-51.6083064 219.821833-51.6083064 276.204596 0 210.325042 223.742095 159.701513 434.067138 159.701513z" fill="url(#a)"/><path d="m592.543409 803c203.391931 0 368.273669-164.881738 368.273669-368.273669 0-141.54927-63.972593-262.075286-180.643723-324.152355-26.563583-14.1336542-62.668381-7.382762-92.634564-14.6235993-27.536581-6.6537633-63.854824-30.9503767-93.469669-30.9503767-30.510665 0-60.288126 10.5853672-88.697402 17.6349457-27.868491 6.9153863-67.63262 12.688105-92.646148 25.5553653-70.868536 36.455628-93.009306 116.5968-124.487715 187.432526-21.58775 48.57882-71.237857 115.616641-71.237857 173.770441 0 203.391931 172.151478 333.606722 375.543409 333.606722z" fill="url(#b)" transform="matrix(.98162718 -.190809 .190809 .98162718 -71.991195 120.342849)"/></g></svg>