<?xml version="1.0" encoding="UTF-8"?>
<svg width="140px" height="140px" viewBox="0 0 140 140" version="1.1" xmlns="http://www.w3.org/2000/svg" xmlns:xlink="http://www.w3.org/1999/xlink">
    <!-- Generator: Sketch 54.1 (76490) - https://sketchapp.com -->
    <title>devops-icon</title>
    <desc>Created with Sketch.</desc>
    <defs>
        <linearGradient x1="50%" y1="66.6142502%" x2="50%" y2="94.7393145%" id="linearGradient-1">
            <stop stop-color="#FFFFFF" offset="0%"></stop>
            <stop stop-color="#FFFFFF" stop-opacity="0" offset="100%"></stop>
        </linearGradient>
        <linearGradient x1="50%" y1="0%" x2="50%" y2="100%" id="linearGradient-2">
            <stop stop-color="#FFFFFF" stop-opacity="0.798262002" offset="0%"></stop>
            <stop stop-color="#FFFFFF" offset="100%"></stop>
        </linearGradient>
        <linearGradient x1="50%" y1="0%" x2="50%" y2="100%" id="linearGradient-3">
            <stop stop-color="#FFFFFF" offset="0%"></stop>
            <stop stop-color="#EEF0FF" offset="100%"></stop>
        </linearGradient>
        <path d="M28.875,28 C35.157239,28 38.5,22.6069865 39.375,14 C40.25,5.3930135 35.157239,0 28.875,0 C22.592761,0 17.5,5.3930135 18.375,14 C19.25,22.6069865 22.592761,28 28.875,28 Z" id="path-4"></path>
        <filter x="-33.0%" y="-17.9%" width="166.0%" height="150.0%" filterUnits="objectBoundingBox" id="filter-5">
            <feOffset dx="0" dy="2" in="SourceAlpha" result="shadowOffsetOuter1"></feOffset>
            <feGaussianBlur stdDeviation="2" in="shadowOffsetOuter1" result="shadowBlurOuter1"></feGaussianBlur>
            <feColorMatrix values="0 0 0 0 0.0470588235   0 0 0 0 0.295867967   0 0 0 0 0.364705882  0 0 0 0.101336051 0" type="matrix" in="shadowBlurOuter1"></feColorMatrix>
        </filter>
        <path d="M14.6442565,0.541239382 L26.4567565,7.33003249 C27.0433517,7.66715612 27.405,8.29211942 27.405,8.96868884 L27.405,22.5313112 C27.405,23.2078806 27.0433517,23.8328439 26.4567565,24.1699675 L14.6442565,30.9587606 C14.0611393,31.2938855 13.3438607,31.2938855 12.7607435,30.9587606 L0.948243475,24.1699675 C0.361648349,23.8328439 5.30960053e-14,23.2078806 5.30131494e-14,22.5313112 L5.47895063e-14,8.96868884 C5.53075648e-14,8.29211942 0.361648349,7.66715612 0.948243475,7.33003249 L12.7607435,0.541239382 C13.3438607,0.206114521 14.0611393,0.206114521 14.6442565,0.541239382 Z" id="path-6"></path>
        <linearGradient x1="100%" y1="131.88326%" x2="100%" y2="0%" id="linearGradient-8">
            <stop stop-color="#1488A2" stop-opacity="0.299278846" offset="0%"></stop>
            <stop stop-color="#00303B" offset="100%"></stop>
        </linearGradient>
        <linearGradient x1="100%" y1="50%" x2="50%" y2="33.4852689%" id="linearGradient-9">
            <stop stop-color="#0C4E5D" offset="0%"></stop>
            <stop stop-color="#0C4E5D" stop-opacity="0" offset="100%"></stop>
        </linearGradient>
        <linearGradient x1="50%" y1="2.18783454%" x2="50%" y2="98.0149872%" id="linearGradient-10">
            <stop stop-color="#7FF0FF" stop-opacity="0.904283217" offset="0%"></stop>
            <stop stop-color="#7FF0FF" offset="100%"></stop>
        </linearGradient>
        <linearGradient x1="50%" y1="100%" x2="50%" y2="3.061617e-15%" id="linearGradient-11">
            <stop stop-color="#F4F7F8" offset="0%"></stop>
            <stop stop-color="#FFFFFF" offset="100%"></stop>
        </linearGradient>
    </defs>
    <g id="WIP---May" stroke="none" stroke-width="1" fill="none" fill-rule="evenodd">
        <g id="7---for-devops" transform="translate(-590.000000, -140.000000)">
            <g id="main">
                <g id="content" transform="translate(0.000000, -214.000000)">
                    <g id="top" transform="translate(236.000000, 0.000000)">
                        <g id="art">
                            <g id="devops-icon" transform="translate(354.000000, 354.000000)">
                                <circle id="Oval-6" fill-opacity="0.195749563" fill="#FFFBFB" cx="70" cy="70" r="70"></circle>
                                <g id="Group-10" transform="translate(41.125000, 28.000000)">
                                    <path d="M28.875,84.7571685 C7.78590258,84.6393371 21.4238644,72.2276015 21.4642796,72.4568074 C22.5585462,78.6627019 21.4946948,83.6268408 17.4136771,84.7571685 C13.3326594,85.8874963 7.84337664,74.1528453 4.31455202,65.136973 C3.47020932,63.1438905 2.62458888,60.7149467 1.75,57.75 C-3.8111491,38.8971295 14.8348896,39.5190352 21.6098008,32.7609497 C22.5232162,31.8476297 23.3748668,29.9801582 23.625,28.875 C24.5,25.0090068 23.8337542,18.3017759 28.875,18.3017759 C33.9162458,18.3017759 33.25,25.0090068 34.125,28.875 C34.3743314,29.9766153 35.2288016,31.843587 36.1470322,32.7616835 C39.5822243,36.1862185 45.2101522,38.3278236 50.757858,40.2704208 C53.2508723,41.1433804 57.1061596,41.6605661 61.6640667,40.7876066 C68.8246764,39.4161608 74.5352504,35.6898417 77.095992,37.625 C79.9906505,39.8125 76.475054,45.6431501 67.2503573,48.7943132 C60.6265547,51.0570089 55.6299324,51.9803139 52.2604903,51.5642281 C47.0078347,65.2740281 43.7753312,73.6542642 42.5629799,76.7049363 C40.7444529,81.2809445 38.4545216,84.8106924 28.875,84.7571685 Z" id="Combined-Shape" fill="url(#linearGradient-1)"></path>
                                    <path d="M28.875,60.1360466 C19.2157055,60.1360466 21.4238644,72.2276015 21.4642796,72.4568074 C22.5585462,78.6627019 21.4946948,83.6268408 17.4136771,84.7571685 C13.3326594,85.8874963 7.84337664,74.1528453 4.31455202,65.136973 C3.47020932,63.1438905 2.62458888,60.7149467 1.75,57.75 C-3.8111491,38.8971295 14.8348896,39.5190352 21.6098008,32.7609497 C22.5232162,31.8476297 23.3748668,29.9801582 23.625,28.875 C24.5,25.0090068 23.8337542,18.3017759 28.875,18.3017759 C33.9162458,18.3017759 33.25,25.0090068 34.125,28.875 C34.3743314,29.9766153 35.2288016,31.843587 36.1470322,32.7616835 C39.5822243,36.1862185 45.2101522,38.3278236 50.757858,40.2704208 C53.2508723,41.1433804 57.1061596,41.6605661 61.6640667,40.7876066 C68.8246764,39.4161608 74.5352504,35.6898417 77.095992,37.625 C79.9906505,39.8125 76.475054,45.6431501 67.2503573,48.7943132 C60.6265547,51.0570089 55.6299324,51.9803139 52.2604903,51.5642281 C49.9293593,55.4141996 47.3841959,57.78362 44.625,58.6724892 C40.4862062,60.0057929 38.4547237,60.1360466 28.875,60.1360466 Z" id="Combined-Shape-Copy-2" fill="url(#linearGradient-2)"></path>
                                    <g id="Oval-2">
                                        <use fill="black" fill-opacity="1" filter="url(#filter-5)" xlink:href="#path-4"></use>
                                        <use fill="url(#linearGradient-3)" fill-rule="evenodd" xlink:href="#path-4"></use>
                                    </g>
                                    <g id="cube" transform="translate(15.330000, 37.625000)">
                                        <mask id="mask-7" fill="white">
                                            <use xlink:href="#path-6"></use>
                                        </mask>
                                        <use id="base" fill="#2CC4DA" xlink:href="#path-6"></use>
                                        <path d="M13.7025,16.8436888 L13.7025,30.4112991 C13.7025,30.7592385 13.4204394,31.0412991 13.0725,31.0412991 C12.962335,31.0412991 12.8540958,31.0124114 12.7585812,30.9575179 L-1.11910481e-14,23.625 L-5.55111512e-16,8.96370088 C-2.88689539e-16,8.61576149 0.282060608,8.33370088 0.63,8.33370088 C0.740165016,8.33370088 0.848404236,8.36258864 0.943918842,8.41748209 L12.7542565,15.2050325 C13.3408517,15.5421561 13.7025,16.1671194 13.7025,16.8436888 Z" id="left" fill="#00A3C7" opacity="0.800000012" mask="url(#mask-7)"></path>
                                        <path d="M13.7025,1.08870088 L13.7025,14.6563112 C13.7025,15.3328806 13.3408517,15.9578439 12.7542565,16.2949675 L0.943918842,23.0825179 C0.642250537,23.2558905 0.257153804,23.1518863 0.0837812153,22.850218 C0.0288877639,22.7547034 -1.32060836e-15,22.6464641 -1.11022302e-16,22.5362991 L-8.95283847e-15,7.875 L12.7585812,0.542482093 C13.0602495,0.369109504 13.4453462,0.473113731 13.6187188,0.774782036 C13.6736122,0.870296641 13.7025,0.978535861 13.7025,1.08870088 Z" id="back" fill="url(#linearGradient-8)" opacity="0.200237772" mask="url(#mask-7)"></path>
                                        <path d="M14.6442565,16.2912394 L26.4545793,23.0787812 C26.7562476,23.2521538 26.8602518,23.6372505 26.6868793,23.9389188 C26.6313533,24.035534 26.5511945,24.1156928 26.4545793,24.1712188 L13.7025,31.5 L0.950420685,24.1712188 C0.648752381,23.9978462 0.544748153,23.6127495 0.718120742,23.3110812 C0.77364672,23.214466 0.853805484,23.1343072 0.950420685,23.0787812 L12.7607435,16.2912394 C13.3438607,15.9561145 14.0611393,15.9561145 14.6442565,16.2912394 Z" id="bottom" fill="url(#linearGradient-9)" opacity="0.0600000024" mask="url(#mask-7)"></path>
                                        <path d="M19.7861179,14.7284304 L20.6966449,16.2216947 L19.7216947,17.1966449 L18.2284304,16.2861179 C17.9356708,16.4525122 17.6206177,16.5842123 17.2888634,16.6756258 L16.8768939,18.375 L15.4981061,18.375 L15.0861366,16.6756258 C14.7543823,16.5842123 14.4393292,16.4525122 14.1465696,16.2861179 L12.6533053,17.1966449 L11.6783551,16.2216947 L12.5888821,14.7284304 C12.4224878,14.4356708 12.2907877,14.1206177 12.1993742,13.7888634 L10.5,13.3768939 L10.5,11.9981061 L12.1993742,11.5861366 C12.2907877,11.2543823 12.4224878,10.9393292 12.5888821,10.6465696 L11.6783551,9.15330531 L12.6533053,8.17835505 L14.1465696,9.08888205 C14.4393292,8.92248781 14.7543823,8.79078774 15.0861366,8.6993742 L15.4981061,7 L16.8768939,7 L17.2888634,8.6993742 C17.6206177,8.79078774 17.9356708,8.92248781 18.2284304,9.08888205 L19.7216947,8.17835505 L20.6966449,9.15330531 L19.7861179,10.6465696 C19.9525122,10.9393292 20.0842123,11.2543823 20.1756258,11.5861366 L21.875,11.9981061 L21.875,13.3768939 L20.1756258,13.7888634 C20.0842123,14.1206177 19.9525122,14.4356708 19.7861179,14.7284304 Z M16.1875,15.2727273 C17.6152816,15.2727273 18.7727273,14.1152816 18.7727273,12.6875 C18.7727273,11.2597184 17.6152816,10.1022727 16.1875,10.1022727 C14.7597184,10.1022727 13.6022727,11.2597184 13.6022727,12.6875 C13.6022727,14.1152816 14.7597184,15.2727273 16.1875,15.2727273 Z M16.1875,13.7215909 C15.6163874,13.7215909 15.1534091,13.2586126 15.1534091,12.6875 C15.1534091,12.1163874 15.6163874,11.6534091 16.1875,11.6534091 C16.7586126,11.6534091 17.2215909,12.1163874 17.2215909,12.6875 C17.2215909,13.2586126 16.7586126,13.7215909 16.1875,13.7215909 Z" id="Combined-Shape" fill="#245B70" mask="url(#mask-7)" transform="translate(16.187500, 12.687500) rotate(10.000000) translate(-16.187500, -12.687500) "></path>
                                        <path d="M24.2502174,10.2864625 L24.7405011,11.0905279 L24.2155279,11.6155011 L23.4114625,11.1252174 C23.2538228,11.2148143 23.0841788,11.2857297 22.9055419,11.3349524 L22.6837121,12.25 L21.9412879,12.25 L21.7194581,11.3349524 C21.5408212,11.2857297 21.3711772,11.2148143 21.2135375,11.1252174 L20.4094721,11.6155011 L19.8844989,11.0905279 L20.3747826,10.2864625 C20.2851857,10.1288228 20.2142703,9.95917878 20.1650476,9.78054185 L19.25,9.55871212 L19.25,8.81628788 L20.1650476,8.59445815 C20.2142703,8.41582122 20.2851857,8.24617724 20.3747826,8.08853747 L19.8844989,7.28447209 L20.4094721,6.75949887 L21.2135375,7.24978264 C21.3711772,7.16018575 21.5408212,7.08927032 21.7194581,7.04004764 L21.9412879,6.125 L22.6837121,6.125 L22.9055419,7.04004764 C23.0841788,7.08927032 23.2538228,7.16018575 23.4114625,7.24978264 L24.2155279,6.75949887 L24.7405011,7.28447209 L24.2502174,8.08853747 C24.3398143,8.24617724 24.4107297,8.41582122 24.4599524,8.59445815 L25.375,8.81628788 L25.375,9.55871212 L24.4599524,9.78054185 C24.4107297,9.95917878 24.3398143,10.1288228 24.2502174,10.2864625 Z M22.3125,10.5795455 C23.0813055,10.5795455 23.7045455,9.95630548 23.7045455,9.1875 C23.7045455,8.41869452 23.0813055,7.79545455 22.3125,7.79545455 C21.5436945,7.79545455 20.9204545,8.41869452 20.9204545,9.1875 C20.9204545,9.95630548 21.5436945,10.5795455 22.3125,10.5795455 Z M22.3125,9.74431818 C22.0049778,9.74431818 21.7556818,9.49502219 21.7556818,9.1875 C21.7556818,8.87997781 22.0049778,8.63068182 22.3125,8.63068182 C22.6200222,8.63068182 22.8693182,8.87997781 22.8693182,9.1875 C22.8693182,9.49502219 22.6200222,9.74431818 22.3125,9.74431818 Z" id="Combined-Shape-Copy" fill="#245B70" opacity="0.400000006" mask="url(#mask-7)" transform="translate(22.312500, 9.187500) rotate(30.000000) translate(-22.312500, -9.187500) "></path>
                                        <path d="M12.1250489,13.1345927 L10.8247601,15.3220927 C10.6670571,15.5873994 10.3812465,15.75 10.0726078,15.75 L7.42739224,15.75 C7.11875348,15.75 6.83294293,15.5873994 6.67523992,15.3220927 L5.37495107,13.1345927 C5.21115417,12.8590341 5.21115417,12.5159659 5.37495107,12.2404073 L6.67523992,10.0529073 C6.83294293,9.7876006 7.11875348,9.625 7.42739224,9.625 L10.0726078,9.625 C10.3812465,9.625 10.6670571,9.7876006 10.8247601,10.0529073 L12.1250489,12.2404073 C12.2888458,12.5159659 12.2888458,12.8590341 12.1250489,13.1345927 Z M8.75,14.1020082 C9.55430526,14.1020082 10.2063235,13.4687113 10.2063235,12.6875 C10.2063235,11.9062887 9.55430526,11.2729918 8.75,11.2729918 C7.94569474,11.2729918 7.29367649,11.9062887 7.29367649,12.6875 C7.29367649,13.4687113 7.94569474,14.1020082 8.75,14.1020082 Z" id="Combined-Shape" fill="#245B70" opacity="0.400000006" mask="url(#mask-7)" transform="translate(8.750000, 12.687500) rotate(-20.000000) translate(-8.750000, -12.687500) "></path>
                                        <path d="M27.405,8.96370088 L27.405,23.625 L14.6464188,30.9575179 C14.3447505,31.1308905 13.9596538,31.0268863 13.7862812,30.725218 C13.7313878,30.6297034 13.7025,30.5214641 13.7025,30.4112991 L13.7025,16.8436888 C13.7025,16.1671194 14.0641483,15.5421561 14.6507435,15.2050325 L26.4610812,8.41748209 C26.7627495,8.2441095 27.1478462,8.34811373 27.3212188,8.64978204 C27.3761122,8.74529664 27.405,8.85353586 27.405,8.96370088 Z" id="right" fill="#23D4FC" opacity="0.956333705" mask="url(#mask-7)"></path>
                                        <path d="M13.7025,8.96370088 L13.7025,23.625 L0.943918842,30.9575179 C0.642250537,31.1308905 0.257153804,31.0268863 0.0837812153,30.725218 C0.0288877639,30.6297034 -1.01584298e-15,30.5214641 -1.66533454e-15,30.4112991 L-3.26405569e-14,16.8436888 C-3.39252415e-14,16.1671194 0.361648349,15.5421561 0.948243475,15.2050325 L12.7585812,8.41748209 C13.0602495,8.2441095 13.4453462,8.34811373 13.6187188,8.64978204 C13.6736122,8.74529664 13.7025,8.85353586 13.7025,8.96370088 Z" id="right-copy" fill="#089EBE" opacity="0.936334" mask="url(#mask-7)" transform="translate(6.851250, 19.687500) scale(-1, 1) translate(-6.851250, -19.687500) "></path>
                                        <path d="M0.950420685,7.32878122 C0.853805484,7.38430719 0.77364672,7.46446596 0.718120742,7.56108116 C0.545924476,7.86070266 0.647353825,8.24262432 0.944307605,8.41766067 C0.848404236,8.36258864 0.740165016,8.33370088 0.63,8.33370088 C0.284379737,8.33370088 0.00376297829,8.61201396 3.75289358e-05,8.95675233 C0.00426334735,8.28477536 0.365099618,7.66517263 0.948243475,7.33003249 L0.950420685,7.32878122 L0.950420685,7.32878122 Z" id="left-corner" fill="#67D7F8" mask="url(#mask-7)"></path>
                                        <path d="M26.4545793,7.32878122 L26.4567565,7.33003249 C27.039949,7.66520059 27.4007968,8.28487872 27.4049635,8.95692048 C27.4038033,8.84909832 27.3749856,8.74333635 27.3212188,8.64978204 C27.1478462,8.34811373 26.7627495,8.2441095 26.4610812,8.41748209 C26.5546026,8.36226603 26.6325376,8.28347341 26.6868793,8.18891884 C26.8602518,7.88725054 26.7562476,7.5021538 26.4545793,7.32878122 L26.4545793,7.32878122 Z" id="right-corner" fill="#88ECFE" mask="url(#mask-7)"></path>
                                        <path d="M12.7542565,15.2050325 L12.7607435,15.2087606 C13.3438607,15.5438855 14.0611393,15.5438855 14.6442565,15.2087606 L14.6507435,15.2050325 C14.0641483,15.5421561 13.7025,16.1671194 13.7025,16.8436888 C13.7025,16.1671194 13.3408517,15.5421561 12.7542565,15.2050325 L12.7542565,15.2050325 Z" id="center-corner" fill="#4ED4FF" mask="url(#mask-7)"></path>
                                    </g>
                                    <path d="M29.0325,37.625 L41.9854814,36.797862 C42.0819348,36.7917028 42.1651187,36.8649006 42.171278,36.961354 C42.1755254,37.0278694 42.1416206,37.0910226 42.0838334,37.1242337 L29.4143211,44.4055626 C29.163138,44.5499207 28.8821305,44.6346021 28.5930089,44.6530646 L16.0795186,45.452138 C15.9830652,45.4582972 15.8998813,45.3850994 15.893722,45.288646 C15.8894746,45.2221306 15.9233794,45.1589774 15.9811666,45.1257663 L29.0325,37.625 Z" id="top" fill="url(#linearGradient-10)"></path>
                                    <path d="M64.148557,10.3058295 L64.8102082,26.1854578 C64.8680996,27.5748515 63.7887037,28.7481079 62.39931,28.8059993 C62.3643884,28.8074544 62.3294403,28.8081821 62.2944884,28.8081821 C60.9038891,28.8081821 59.7765857,27.6808787 59.7765857,26.2902795 C59.7765857,26.2553276 59.7773135,26.2203794 59.7787686,26.1854578 L60.4404027,10.3062387 C58.7273195,9.86238806 57.462241,8.30598859 57.462241,6.45411419 C57.462241,6.32189072 57.4688317,6.18974942 57.4819884,6.05818214 L57.6582911,4.29515476 C57.8065699,2.81236674 59.0543049,1.68318214 60.5444884,1.68318214 L60.5444884,6.05818214 L62.2944884,6.93318214 L64.0444884,6.05818214 L64.0444884,1.68318214 C65.5346719,1.68318214 66.7824068,2.81236674 66.9306856,4.29515476 L67.1069884,6.05818214 C67.3049242,8.03753992 66.0164775,9.8229037 64.148557,10.3058295 Z M62.2944884,27.0581821 C62.7777375,27.0581821 63.1694884,26.6664313 63.1694884,26.1831821 C63.1694884,25.699933 62.7777375,25.3081821 62.2944884,25.3081821 C61.8112392,25.3081821 61.4194884,25.699933 61.4194884,26.1831821 C61.4194884,26.6664313 61.8112392,27.0581821 62.2944884,27.0581821 Z" id="Combined-Shape" fill="#245B70" transform="translate(62.294637, 15.245682) rotate(40.000000) translate(-62.294637, -15.245682) "></path>
                                    <path d="M17.5,84.875 C21.7636365,84.875 23.313514,74.744552 23.313514,64.5140724 C23.313514,54.2835927 19.6310795,50.0700428 17.5,52.0325899 C15.3689205,53.995137 19.0334296,57.78849 15.7455983,68.7290635 C12.4577669,79.669637 13.2363635,84.875 17.5,84.875 Z" id="Oval-7" fill="url(#linearGradient-11)"></path>
                                    <path d="M65.9307464,45.6544922 C61.6671099,45.6544922 60.8885133,40.4491292 64.1763447,29.5085557 C67.464176,18.5679823 63.7996669,14.7746292 65.9307464,12.8120821 C68.0618259,10.8495351 71.7442603,15.063085 71.7442603,25.2935646 C71.7442603,35.5240443 70.1943829,45.6544922 65.9307464,45.6544922 Z" id="Oval-7-Copy" fill="url(#linearGradient-11)" transform="translate(66.943345, 28.999106) scale(-1, 1) rotate(31.000000) translate(-66.943345, -28.999106) "></path>
                                </g>
                            </g>
                        </g>
                    </g>
                </g>
            </g>
        </g>
    </g>
</svg>