<?xml version="1.0" encoding="UTF-8"?>
<svg width="780px" height="780px" viewBox="0 0 780 780" version="1.1" xmlns="http://www.w3.org/2000/svg" xmlns:xlink="http://www.w3.org/1999/xlink">
    <!-- Generator: Sketch 54.1 (76490) - https://sketchapp.com -->
    <title>devs-devops-teams-background-pattern-5</title>
    <desc>Created with Sketch.</desc>
    <g id="Page-1" stroke="none" stroke-width="1" fill="none" fill-rule="evenodd" opacity="0.083051">
        <g id="Group-24" fill="#FFFFFF">
            <path d="M370.01943,469.834423 L430.159758,491.723712 C432.23567,492.479282 433.306018,494.774652 432.550448,496.850563 L417.843582,537.257346 C417.654689,537.776324 417.080847,538.043911 416.561869,537.855019 L350.783386,513.913608 C350.264408,513.724716 349.996821,513.150874 350.185713,512.631896 L364.892579,472.225113 C365.648149,470.149201 367.943519,469.078853 370.01943,469.834423 Z M369.591042,473.935214 C369.072065,473.746321 368.498222,474.013908 368.30933,474.532886 L355.312564,510.241206 C355.123672,510.760184 355.391259,511.334026 355.910237,511.522919 L414.171179,532.728167 C414.690157,532.91706 415.263999,532.649473 415.452892,532.130495 L428.449657,496.422175 C428.63855,495.903197 428.370963,495.329355 427.851985,495.140463 L369.591042,473.935214 Z M423.327284,547.856522 C423.270799,547.779216 423.191536,547.717264 423.094808,547.682058 L339.462165,517.242265 C339.365436,517.207059 339.264896,517.203568 339.171934,517.22648 C339.391146,517.023798 339.65584,516.870043 339.949285,516.781056 L347.286025,514.556193 C348.114261,514.305031 349.001618,514.329276 349.814904,514.625288 L416.846311,539.022725 C417.659597,539.318736 418.354935,539.870546 418.827957,540.595327 L423.018112,547.015637 C423.185704,547.272427 423.28964,547.560353 423.327284,547.856522 Z M423.310551,548.469014 C423.290529,548.578319 423.261268,548.686616 423.222634,548.792761 L422.880614,549.732454 C422.502829,550.770409 421.355144,551.305583 420.317188,550.927798 L339.503623,521.514066 C338.465667,521.136281 337.930493,519.988596 338.308278,518.950641 L338.650298,518.010948 C338.688932,517.904803 338.736128,517.803034 338.791051,517.706432 C338.788704,517.912772 338.915234,518.107377 339.120145,518.181958 L422.752788,548.621751 C422.957698,548.696332 423.179715,548.628588 423.310551,548.469014 Z M373.418925,530.665693 L373.841543,531.572001 C373.953629,531.812369 374.156609,531.998366 374.405831,532.089075 L386.783061,536.594019 C387.032283,536.684728 387.307332,536.672719 387.547699,536.560634 L388.454007,536.138016 L373.418925,530.665693 Z M399.063534,483.598146 C399.582512,483.787038 400.156354,483.519451 400.345247,483.000473 C400.534139,482.481495 400.266552,481.907653 399.747574,481.71876 C399.228596,481.529868 398.654754,481.797455 398.465861,482.316433 C398.276969,482.835411 398.544556,483.409253 399.063534,483.598146 Z M402.053622,484.15436 C402.313111,484.248806 402.600032,484.115012 402.694478,483.855523 C402.788924,483.596034 402.655131,483.309113 402.395642,483.214667 C402.136153,483.120221 401.849232,483.254014 401.754785,483.513503 C401.660339,483.772992 401.794133,484.059913 402.053622,484.15436 Z M349.840242,286.276288 C347.76433,285.520718 346.693982,283.225348 347.449552,281.149437 L362.156418,240.742654 C362.345311,240.223676 362.919153,239.956089 363.438131,240.144981 L429.216614,264.086392 C429.735592,264.275284 430.003179,264.849126 429.814287,265.368104 L415.107421,305.774887 C414.351851,307.850799 412.056481,308.921147 409.98057,308.165577 L349.840242,286.276288 Z M352.148015,282.859537 L410.408958,304.064786 C410.927935,304.253679 411.501778,303.986092 411.69067,303.467114 L424.687436,267.758794 C424.876328,267.239816 424.608741,266.665974 424.089763,266.477081 L365.828821,245.271833 C365.309843,245.08294 364.736001,245.350527 364.547108,245.869505 L351.550343,281.577825 C351.36145,282.096803 351.629037,282.670645 352.148015,282.859537 Z M440.828066,260.77352 C440.608854,260.976202 440.34416,261.129957 440.050715,261.218944 L432.713975,263.443807 C431.885739,263.694969 430.998382,263.670724 430.185096,263.374712 L363.153689,238.977275 C362.340403,238.681264 361.645065,238.129454 361.172043,237.404673 L356.981888,230.984363 C356.814296,230.727573 356.71036,230.439647 356.672716,230.143478 C356.729201,230.220784 356.808464,230.282736 356.905192,230.317942 L440.537835,260.757735 C440.634564,260.792941 440.735104,260.796432 440.828066,260.77352 Z M441.208949,260.293568 C441.211296,260.087228 441.084766,259.892623 440.879855,259.818042 L357.247212,229.378249 C357.042302,229.303668 356.820285,229.371412 356.689449,229.530986 C356.709471,229.421681 356.738732,229.313384 356.777366,229.207239 L357.119386,228.267546 C357.497171,227.229591 358.644856,226.694417 359.682812,227.072202 L440.496377,256.485934 C441.534333,256.863719 442.069507,258.011404 441.691722,259.049359 L441.349702,259.989052 C441.311068,260.095197 441.263872,260.196966 441.208949,260.293568 Z M391.545993,241.861984 L406.581075,247.334307 L406.158457,246.427999 C406.046371,246.187631 405.843391,246.001634 405.594169,245.910925 L393.216939,241.405981 C392.967717,241.315272 392.692668,241.327281 392.452301,241.439366 L391.545993,241.861984 Z M380.936466,294.401854 C380.417488,294.212962 379.843646,294.480549 379.654753,294.999527 C379.465861,295.518505 379.733448,296.092347 380.252426,296.28124 C380.771404,296.470132 381.345246,296.202545 381.534139,295.683567 C381.723031,295.164589 381.455444,294.590747 380.936466,294.401854 Z M383.584534,295.897761 C383.325045,295.803315 383.038124,295.937108 382.943678,296.196597 C382.849231,296.456086 382.983025,296.743008 383.242514,296.837454 C383.502003,296.9319 383.788924,296.798107 383.88337,296.538618 C383.977816,296.279129 383.844023,295.992207 383.584534,295.897761 Z M310.005051,412.113531 L321.118535,475.141227 C321.502148,477.316804 320.049474,479.391438 317.873896,479.775051 L275.527163,487.241922 C274.983269,487.337825 274.46461,486.974657 274.368707,486.430763 L262.213335,417.49422 C262.117431,416.950326 262.4806,416.431667 263.024494,416.335764 L305.371228,408.868892 C307.546805,408.485279 309.621438,409.937953 310.005051,412.113531 Z M306.239468,413.792931 C306.143565,413.249037 305.624907,412.885868 305.081013,412.981772 L267.658318,419.580402 C267.114424,419.676306 266.751255,420.194964 266.847158,420.738858 L277.613345,481.796939 C277.709249,482.340833 278.227907,482.704002 278.771801,482.608098 L316.194496,476.009468 C316.73839,475.913565 317.101559,475.394906 317.005655,474.851012 L306.239468,413.792931 Z M269.089859,497.290536 C269.128565,497.202965 269.142585,497.103346 269.12471,497.001974 L253.670023,409.354084 C253.652148,409.252711 253.604901,409.163895 253.538579,409.094844 C253.823711,409.183346 254.089215,409.3357 254.313002,409.545337 L259.90816,414.78671 C260.53979,415.378402 260.962472,416.158997 261.112761,417.01133 L273.499665,487.260949 C273.649954,488.113282 273.519742,488.991367 273.128574,489.763406 L269.663501,496.602342 C269.52491,496.875876 269.327526,497.10985 269.089859,497.290536 Z M268.551058,497.58229 C268.446387,497.619604 268.337968,497.648411 268.226727,497.668026 L267.241919,497.841674 C266.15413,498.03348 265.116814,497.307143 264.925007,496.219355 L249.991264,411.525888 C249.799457,410.438099 250.525794,409.400782 251.613583,409.208976 L252.598391,409.035328 C252.709632,409.015713 252.821365,409.005702 252.932486,409.004965 C252.752617,409.106103 252.647349,409.312983 252.685215,409.527732 L268.139903,497.175622 C268.177769,497.39037 268.347445,497.54877 268.551058,497.58229 Z M259.023373,445.473215 L258.449797,446.292367 C258.297675,446.509619 258.238087,446.778404 258.284141,447.039591 L260.571361,460.011058 C260.617415,460.272246 260.76534,460.50444 260.982592,460.656562 L261.801744,461.230139 L259.023373,445.473215 Z M312.60737,444.148323 C312.703273,444.692218 313.221931,445.055386 313.765826,444.959483 C314.30972,444.86358 314.672888,444.344921 314.576985,443.801027 C314.481082,443.257133 313.962424,442.893964 313.418529,442.989867 C312.874635,443.085771 312.511466,443.604429 312.60737,444.148323 Z M313.620718,447.015922 C313.66867,447.28787 313.927999,447.469454 314.199946,447.421502 C314.471893,447.373551 314.653477,447.114221 314.605526,446.842274 C314.557574,446.570327 314.298245,446.388743 314.026298,446.436694 C313.754351,446.484646 313.572766,446.743975 313.620718,447.015922 Z M458.881465,302.858773 C458.497852,300.683196 459.950526,298.608562 462.126104,298.224949 L504.472837,290.758078 C505.016731,290.662175 505.53539,291.025343 505.631293,291.569237 L517.786665,360.50578 C517.882569,361.049674 517.5194,361.568333 516.975506,361.664236 L474.628772,369.131108 C472.453195,369.514721 470.378562,368.062047 469.994949,365.886469 L458.881465,302.858773 Z M462.994345,303.148988 L473.760532,364.207069 C473.856435,364.750963 474.375093,365.114132 474.918987,365.018228 L512.341682,358.419598 C512.885576,358.323694 513.248745,357.805036 513.152842,357.261142 L502.386655,296.203061 C502.290751,295.659167 501.772093,295.295998 501.228199,295.391902 L463.805504,301.990532 C463.26161,302.086435 462.898441,302.605094 462.994345,303.148988 Z M526.461421,368.905156 C526.176289,368.816654 525.910785,368.6643 525.686998,368.454663 L520.09184,363.21329 C519.46021,362.621598 519.037528,361.841003 518.887239,360.98867 L506.500335,290.739051 C506.350046,289.886718 506.480258,289.008633 506.871426,288.236594 L510.336499,281.397658 C510.47509,281.124124 510.672474,280.89015 510.910141,280.709464 C510.871435,280.797035 510.857415,280.896654 510.87529,280.998026 L526.329977,368.645916 C526.347852,368.747289 526.395099,368.836105 526.461421,368.905156 Z M527.067514,368.995035 C527.247383,368.893897 527.352651,368.687017 527.314785,368.472268 L511.860097,280.824378 C511.822231,280.60963 511.652555,280.45123 511.448942,280.41771 C511.553613,280.380396 511.662032,280.351589 511.773273,280.331974 L512.758081,280.158326 C513.84587,279.96652 514.883186,280.692857 515.074993,281.780645 L530.008736,366.474112 C530.200543,367.561901 529.474206,368.599218 528.386417,368.791024 L527.401609,368.964672 C527.290368,368.984287 527.178635,368.994298 527.067514,368.995035 Z M518.198256,316.769861 L520.976627,332.526785 L521.550203,331.707633 C521.702325,331.490381 521.761913,331.221596 521.715859,330.960409 L519.428639,317.988942 C519.382585,317.727754 519.23466,317.49556 519.017408,317.343438 L518.198256,316.769861 Z M467.39263,333.851677 C467.296727,333.307782 466.778069,332.944614 466.234174,333.040517 C465.69028,333.13642 465.327112,333.655079 465.423015,334.198973 C465.518918,334.742867 466.037576,335.106036 466.581471,335.010133 C467.125365,334.914229 467.488534,334.395571 467.39263,333.851677 Z M467.421171,336.892924 C467.373219,336.620977 467.11389,336.439393 466.841943,336.487344 C466.569996,336.535296 466.388412,336.794625 466.436363,337.066572 C466.484315,337.338519 466.743644,337.520104 467.015591,337.472152 C467.287538,337.4242 467.469123,337.164871 467.421171,336.892924 Z M329.985621,331.279108 L280.958777,372.417515 C279.266478,373.837522 276.743456,373.616786 275.323448,371.924487 L247.683581,338.984576 C247.328579,338.561502 247.383763,337.930746 247.806838,337.575744 L301.429949,292.580611 C301.853024,292.22561 302.483779,292.280794 302.838781,292.703868 L330.478648,325.643779 C331.898655,327.336078 331.67792,329.8591 329.985621,331.279108 Z M326.648426,328.857717 C327.071501,328.502716 327.126685,327.87196 326.771683,327.448885 L302.345754,298.339197 C301.990752,297.916122 301.359996,297.860938 300.936922,298.21594 L253.442166,338.068771 C253.019092,338.423773 252.963908,339.054529 253.318909,339.477604 L277.744839,368.587292 C278.09984,369.010367 278.730596,369.065551 279.153671,368.710549 L326.648426,328.857717 Z M235.762574,338.434014 C235.857766,338.423749 235.951049,338.386081 236.029902,338.319915 L304.207858,281.111818 C304.286712,281.045652 304.340006,280.960327 304.366644,280.868364 C304.432565,281.159547 304.433374,281.465657 304.363717,281.764281 L302.622134,289.230516 C302.425529,290.073371 301.960854,290.829722 301.297858,291.386042 L246.653354,337.238225 C245.990357,337.794545 245.164807,338.120821 244.300617,338.168079 L236.645388,338.586706 C236.339206,338.603449 236.037887,338.549497 235.762574,338.434014 Z M235.240507,338.113276 C235.155857,338.041285 235.0767,337.961795 235.004093,337.875265 L234.361305,337.10922 C233.651301,336.263071 233.761669,335.00156 234.607819,334.291556 L300.487641,279.011822 C301.33379,278.301818 302.595301,278.412186 303.305305,279.258335 L303.948093,280.02438 C304.0207,280.11091 304.085237,280.202668 304.141435,280.298533 C303.963912,280.193331 303.732115,280.205607 303.56507,280.345774 L235.387115,337.553871 C235.22007,337.694038 235.16773,337.920182 235.240507,338.113276 Z M275.604448,303.807521 L274.608253,303.720366 C274.344046,303.69725 274.081478,303.780038 273.87831,303.950516 L263.7883,312.41704 C263.585132,312.587518 263.458008,312.831721 263.434893,313.095928 L263.347737,314.092123 L275.604448,303.807521 Z M303.543836,349.550178 C303.120761,349.90518 303.065577,350.535935 303.420579,350.95901 C303.775581,351.382084 304.406336,351.437268 304.829411,351.082267 C305.252486,350.727265 305.30767,350.096509 304.952668,349.673435 C304.597666,349.25036 303.966911,349.195176 303.543836,349.550178 Z M301.567096,351.861563 C301.355559,352.039064 301.327967,352.354441 301.505468,352.565979 C301.682969,352.777516 301.998347,352.805108 302.209884,352.627607 C302.421421,352.450106 302.449013,352.134729 302.271512,351.923191 C302.094012,351.711654 301.778634,351.684062 301.567096,351.861563 Z M499.041223,405.582485 C500.733522,404.162478 503.256544,404.383214 504.676552,406.075513 L532.316419,439.015424 C532.671421,439.438498 532.616237,440.069254 532.193162,440.424256 L478.570051,485.419389 C478.146976,485.77439 477.516221,485.719206 477.161219,485.296132 L449.521352,452.356221 C448.101345,450.663922 448.32208,448.1409 450.014379,446.720892 L499.041223,405.582485 Z M500.846329,409.289451 L453.351574,449.142283 C452.928499,449.497284 452.873315,450.12804 453.228317,450.551115 L477.654246,479.660803 C478.009248,480.083878 478.640004,480.139062 479.063078,479.78406 L526.557834,439.931229 C526.980908,439.576227 527.036092,438.945471 526.681091,438.522396 L502.255161,409.412708 C501.90016,408.989633 501.269404,408.934449 500.846329,409.289451 Z M475.633356,497.131636 C475.567435,496.840453 475.566626,496.534343 475.636283,496.235719 L477.377866,488.769484 C477.574471,487.926629 478.039146,487.170278 478.702142,486.613958 L533.346646,440.761775 C534.009643,440.205455 534.835193,439.879179 535.699383,439.831921 L543.354612,439.413294 C543.660794,439.396551 543.962113,439.450503 544.237426,439.565986 C544.142234,439.576251 544.048951,439.613919 543.970098,439.680085 L475.792142,496.888182 C475.713288,496.954348 475.659994,497.039673 475.633356,497.131636 Z M475.858565,497.701467 C476.036088,497.806669 476.267885,497.794393 476.43493,497.654226 L544.612885,440.446129 C544.77993,440.305962 544.83227,440.079818 544.759493,439.886724 C544.844143,439.958715 544.9233,440.038205 544.995907,440.124735 L545.638695,440.89078 C546.348699,441.736929 546.238331,442.99844 545.392181,443.708444 L479.512359,498.988178 C478.66621,499.698182 477.404699,499.587814 476.694695,498.741665 L476.051907,497.97562 C475.9793,497.88909 475.914763,497.797332 475.858565,497.701467 Z M516.652263,463.907877 L504.395552,474.192479 L505.391747,474.279634 C505.655954,474.30275 505.918522,474.219962 506.12169,474.049484 L516.2117,465.58296 C516.414868,465.412482 516.541992,465.168279 516.565107,464.904072 L516.652263,463.907877 Z M476.456164,428.449822 C476.879239,428.09482 476.934423,427.464065 476.579421,427.04099 C476.224419,426.617916 475.593664,426.562732 475.170589,426.917733 C474.747514,427.272735 474.69233,427.903491 475.047332,428.326565 C475.402334,428.74964 476.033089,428.804824 476.456164,428.449822 Z M473.836637,429.995163 C474.048174,429.817662 474.075766,429.502284 473.898265,429.290747 C473.720764,429.07921 473.405387,429.051618 473.193849,429.229118 C472.982312,429.406619 472.95472,429.721997 473.132221,429.933534 C473.309722,430.145072 473.6251,430.172664 473.836637,429.995163 Z" id="1"></path>
        </g>
    </g>
</svg>