<?xml version="1.0" encoding="UTF-8"?>
<svg width="140px" height="140px" viewBox="0 0 140 140" version="1.1" xmlns="http://www.w3.org/2000/svg" xmlns:xlink="http://www.w3.org/1999/xlink">
    <!-- Generator: Sketch 54.1 (76490) - https://sketchapp.com -->
    <title>devs-icon</title>
    <desc>Created with Sketch.</desc>
    <defs>
        <linearGradient x1="50%" y1="0%" x2="50%" y2="100%" id="linearGradient-1">
            <stop stop-color="#FFFFFF" stop-opacity="0.798262002" offset="0%"></stop>
            <stop stop-color="#FFFFFF" offset="100%"></stop>
        </linearGradient>
        <linearGradient x1="50%" y1="0%" x2="50%" y2="100%" id="linearGradient-2">
            <stop stop-color="#FFFFFF" offset="0%"></stop>
            <stop stop-color="#F6F0FF" offset="100%"></stop>
        </linearGradient>
        <path d="M28.875,28 C35.157239,28 38.5,22.6069865 39.375,14 C40.25,5.3930135 35.157239,0 28.875,0 C22.592761,0 17.5,5.3930135 18.375,14 C19.25,22.6069865 22.592761,28 28.875,28 Z" id="path-3"></path>
        <filter x="-33.0%" y="-17.9%" width="166.0%" height="150.0%" filterUnits="objectBoundingBox" id="filter-4">
            <feOffset dx="0" dy="2" in="SourceAlpha" result="shadowOffsetOuter1"></feOffset>
            <feGaussianBlur stdDeviation="2" in="shadowOffsetOuter1" result="shadowBlurOuter1"></feGaussianBlur>
            <feColorMatrix values="0 0 0 0 0.0470588235   0 0 0 0 0.295867967   0 0 0 0 0.364705882  0 0 0 0.101336051 0" type="matrix" in="shadowBlurOuter1"></feColorMatrix>
        </filter>
        <path d="M14.6442565,0.541239382 L26.4567565,7.33003249 C27.0433517,7.66715612 27.405,8.29211942 27.405,8.96868884 L27.405,22.5313112 C27.405,23.2078806 27.0433517,23.8328439 26.4567565,24.1699675 L14.6442565,30.9587606 C14.0611393,31.2938855 13.3438607,31.2938855 12.7607435,30.9587606 L0.948243475,24.1699675 C0.361648349,23.8328439 5.28739607e-14,23.2078806 5.27911048e-14,22.5313112 L5.45674617e-14,8.96868884 C5.50855202e-14,8.29211942 0.361648349,7.66715612 0.948243475,7.33003249 L12.7607435,0.541239382 C13.3438607,0.206114521 14.0611393,0.206114521 14.6442565,0.541239382 Z" id="path-5"></path>
        <linearGradient x1="100%" y1="131.88326%" x2="100%" y2="0%" id="linearGradient-7">
            <stop stop-color="#1488A2" stop-opacity="0" offset="0%"></stop>
            <stop stop-color="#1488A2" offset="100%"></stop>
        </linearGradient>
        <linearGradient x1="100%" y1="50%" x2="50%" y2="33.4852689%" id="linearGradient-8">
            <stop stop-color="#0C4E5D" offset="0%"></stop>
            <stop stop-color="#0C4E5D" stop-opacity="0" offset="100%"></stop>
        </linearGradient>
        <linearGradient x1="50%" y1="2.18783454%" x2="50%" y2="98.0149872%" id="linearGradient-9">
            <stop stop-color="#7FF0FF" stop-opacity="0.698228034" offset="0%"></stop>
            <stop stop-color="#7FF0FF" offset="100%"></stop>
        </linearGradient>
        <linearGradient x1="50%" y1="100%" x2="50%" y2="3.061617e-15%" id="linearGradient-10">
            <stop stop-color="#F4F7F8" offset="0%"></stop>
            <stop stop-color="#FFFFFF" offset="100%"></stop>
        </linearGradient>
    </defs>
    <g id="WIP---May" stroke="none" stroke-width="1" fill="none" fill-rule="evenodd">
        <g id="6---for-devs" transform="translate(-590.000000, -140.000000)">
            <g id="main">
                <g id="content" transform="translate(0.000000, -214.000000)">
                    <g id="top" transform="translate(236.000000, 0.000000)">
                        <g id="art">
                            <g id="devs-icon" transform="translate(354.000000, 354.000000)">
                                <circle id="Oval-6" fill-opacity="0.2" fill="#FFFFFF" cx="70" cy="70" r="70"></circle>
                                <g id="Group-10" transform="translate(41.125000, 28.000000)">
                                    <path d="M28.875,62.125 C26.0159946,62.125 23.5152527,62.5112822 21.2915023,62.9714541 C21.3658768,63.2319651 21.4238644,72.2276015 21.4642796,72.4568074 C22.5585462,78.6627019 21.4946948,83.6268408 17.4136771,84.7571685 C13.3326594,85.8874963 7.84337664,74.1528453 4.31455202,65.136973 C3.47020932,63.1438905 2.62458888,60.7149467 1.75,57.75 C-3.8111491,38.8971295 14.8348896,39.5190352 21.6098008,32.7609497 C22.5232162,31.8476297 23.3748668,29.9801582 23.625,28.875 C24.5,25.0090068 23.8337542,18.3017759 28.875,18.3017759 C33.9162458,18.3017759 33.25,25.0090068 34.125,28.875 C34.3743314,29.9766153 35.2288016,31.843587 36.1470322,32.7616835 C42.8473548,39.4412197 60.8200628,38.9250251 56.3055464,56.6398366 C55.7578312,59.0990464 54.8279451,61.9921061 53.5970399,65.136973 C50.0682153,74.1528453 44.5789326,85.8874963 40.4979149,84.7571685 C36.4168971,83.6268408 35.3530458,78.6627019 36.4473124,72.4568074 C36.4860805,72.2369428 36.5410177,63.2519597 36.611078,63.0032314 C34.3492763,62.5292055 31.7995816,62.125 28.875,62.125 Z" id="Combined-Shape" fill="url(#linearGradient-1)"></path>
                                    <g id="Oval-2">
                                        <use fill="black" fill-opacity="1" filter="url(#filter-4)" xlink:href="#path-3"></use>
                                        <use fill="url(#linearGradient-2)" fill-rule="evenodd" xlink:href="#path-3"></use>
                                    </g>
                                    <g id="icon/generic/kintoblock/blue" transform="translate(13.125000, 37.625000)">
                                        <g id="cube" transform="translate(2.205000, 0.000000)">
                                            <mask id="mask-6" fill="white">
                                                <use xlink:href="#path-5"></use>
                                            </mask>
                                            <use id="base" fill="#2CC4DA" xlink:href="#path-5"></use>
                                            <path d="M13.7025,16.8436888 L13.7025,30.4112991 C13.7025,30.7592385 13.4204394,31.0412991 13.0725,31.0412991 C12.962335,31.0412991 12.8540958,31.0124114 12.7585812,30.9575179 L-1.11910481e-14,23.625 L-5.55111512e-16,8.96370088 C-2.88689539e-16,8.61576149 0.282060608,8.33370088 0.63,8.33370088 C0.740165016,8.33370088 0.848404236,8.36258864 0.943918842,8.41748209 L12.7542565,15.2050325 C13.3408517,15.5421561 13.7025,16.1671194 13.7025,16.8436888 Z" id="left" fill="#00A3C7" opacity="0.800000012" mask="url(#mask-6)"></path>
                                            <path d="M27.405,8.96370088 L27.405,23.625 L14.6464188,30.9575179 C14.3447505,31.1308905 13.9596538,31.0268863 13.7862812,30.725218 C13.7313878,30.6297034 13.7025,30.5214641 13.7025,30.4112991 L13.7025,16.8436888 C13.7025,16.1671194 14.0641483,15.5421561 14.6507435,15.2050325 L26.4610812,8.41748209 C26.7627495,8.2441095 27.1478462,8.34811373 27.3212188,8.64978204 C27.3761122,8.74529664 27.405,8.85353586 27.405,8.96370088 Z" id="right" fill="#1EC4E9" opacity="0.900000036" mask="url(#mask-6)"></path>
                                            <path d="M13.7025,1.08870088 L13.7025,14.6563112 C13.7025,15.3328806 13.3408517,15.9578439 12.7542565,16.2949675 L0.943918842,23.0825179 C0.642250537,23.2558905 0.257153804,23.1518863 0.0837812153,22.850218 C0.0288877639,22.7547034 5.45000643e-14,22.6464641 5.51225732e-14,22.5362991 L4.82791584e-14,7.875 L12.7585812,0.542482093 C13.0602495,0.369109504 13.4453462,0.473113731 13.6187188,0.774782036 C13.6736122,0.870296641 13.7025,0.978535861 13.7025,1.08870088 Z" id="back" fill="url(#linearGradient-7)" opacity="0.200237772" mask="url(#mask-6)"></path>
                                            <path d="M14.6442565,16.2912394 L26.4545793,23.0787812 C26.7562476,23.2521538 26.8602518,23.6372505 26.6868793,23.9389188 C26.6313533,24.035534 26.5511945,24.1156928 26.4545793,24.1712188 L13.7025,31.5 L0.950420685,24.1712188 C0.648752381,23.9978462 0.544748153,23.6127495 0.718120742,23.3110812 C0.77364672,23.214466 0.853805484,23.1343072 0.950420685,23.0787812 L12.7607435,16.2912394 C13.3438607,15.9561145 14.0611393,15.9561145 14.6442565,16.2912394 Z" id="bottom" fill="url(#linearGradient-8)" opacity="0.0600000024" mask="url(#mask-6)"></path>
                                            <path d="M13.7025,0 L26.4545793,7.32878122 C26.7562476,7.5021538 26.8602518,7.88725054 26.6868793,8.18891884 C26.6313533,8.28553404 26.5511945,8.36569281 26.4545793,8.42121878 L14.6442565,15.2087606 C14.0611393,15.5438855 13.3438607,15.5438855 12.7607435,15.2087606 L0.950420685,8.42121878 C0.648752381,8.2478462 0.544748153,7.86274946 0.718120742,7.56108116 C0.77364672,7.46446596 0.853805484,7.38430719 0.950420685,7.32878122 L13.7025,0 Z" id="top" fill="url(#linearGradient-9)" mask="url(#mask-6)"></path>
                                            <path d="M0.950420685,7.32878122 C0.853805484,7.38430719 0.77364672,7.46446596 0.718120742,7.56108116 C0.545924476,7.86070266 0.647353825,8.24262432 0.944307605,8.41766067 C0.848404236,8.36258864 0.740165016,8.33370088 0.63,8.33370088 C0.284379737,8.33370088 0.00376297829,8.61201396 3.75289358e-05,8.95675233 C0.00426334735,8.28477536 0.365099618,7.66517263 0.948243475,7.33003249 L0.950420685,7.32878122 L0.950420685,7.32878122 Z" id="left-corner" fill="#67D7F8" mask="url(#mask-6)"></path>
                                            <path d="M26.4545793,7.32878122 L26.4567565,7.33003249 C27.039949,7.66520059 27.4007968,8.28487872 27.4049635,8.95692048 C27.4038033,8.84909832 27.3749856,8.74333635 27.3212188,8.64978204 C27.1478462,8.34811373 26.7627495,8.2441095 26.4610812,8.41748209 C26.5546026,8.36226603 26.6325376,8.28347341 26.6868793,8.18891884 C26.8602518,7.88725054 26.7562476,7.5021538 26.4545793,7.32878122 L26.4545793,7.32878122 Z" id="right-corner" fill="#88ECFE" mask="url(#mask-6)"></path>
                                            <path d="M12.7542565,15.2050325 L12.7607435,15.2087606 C13.3438607,15.5438855 14.0611393,15.5438855 14.6442565,15.2087606 L14.6507435,15.2050325 C14.0641483,15.5421561 13.7025,16.1671194 13.7025,16.8436888 C13.7025,16.1671194 13.3408517,15.5421561 12.7542565,15.2050325 L12.7542565,15.2050325 Z" id="center-corner" fill="#4ED4FF" mask="url(#mask-6)"></path>
                                        </g>
                                    </g>
                                    <path d="M17.5,84.875 C21.7636365,84.875 23.313514,74.744552 23.313514,64.5140724 C23.313514,54.2835927 19.6310795,50.0700428 17.5,52.0325899 C15.3689205,53.995137 19.0334296,57.78849 15.7455983,68.7290635 C12.4577669,79.669637 13.2363635,84.875 17.5,84.875 Z" id="Oval-7" fill="url(#linearGradient-10)"></path>
                                    <path d="M38.5,84.875 C34.2363635,84.875 33.4577669,79.669637 36.7455983,68.7290635 C40.0334296,57.78849 36.3689205,53.995137 38.5,52.0325899 C40.6310795,50.0700428 44.313514,54.2835927 44.313514,64.5140724 C44.313514,74.744552 42.7636365,84.875 38.5,84.875 Z" id="Oval-7-Copy" fill="url(#linearGradient-10)" transform="translate(39.512599, 68.219614) scale(-1, 1) translate(-39.512599, -68.219614) "></path>
                                </g>
                            </g>
                        </g>
                    </g>
                </g>
            </g>
        </g>
    </g>
</svg>