<?xml version="1.0" encoding="UTF-8"?>
<svg width="40px" height="40px" viewBox="0 0 40 40" version="1.1" xmlns="http://www.w3.org/2000/svg" xmlns:xlink="http://www.w3.org/1999/xlink">
    <!-- Generator: Sketch 54.1 (76490) - https://sketchapp.com -->
    <title>features-icon-devops</title>
    <desc>Created with Sketch.</desc>
    <defs>
        <linearGradient x1="50%" y1="66.6142502%" x2="50%" y2="94.7393145%" id="linearGradient-1">
            <stop stop-color="#A5B5FF" offset="0%"></stop>
            <stop stop-color="#A5B5FF" stop-opacity="0" offset="100%"></stop>
        </linearGradient>
        <path d="M8.25,8 C10.0449254,8 11,6.459139 11.25,4 C11.5,1.540861 10.0449254,0 8.25,0 C6.45507456,0 5,1.540861 5.25,4 C5.5,6.459139 6.45507456,8 8.25,8 Z" id="path-2"></path>
        <filter x="-33.0%" y="-12.5%" width="166.0%" height="150.0%" filterUnits="objectBoundingBox" id="filter-3">
            <feOffset dx="0" dy="1" in="SourceAlpha" result="shadowOffsetOuter1"></feOffset>
            <feGaussianBlur stdDeviation="0.5" in="shadowOffsetOuter1" result="shadowBlurOuter1"></feGaussianBlur>
            <feColorMatrix values="0 0 0 0 0.0470588235   0 0 0 0 0.295867967   0 0 0 0 0.364705882  0 0 0 0.101336051 0" type="matrix" in="shadowBlurOuter1"></feColorMatrix>
        </filter>
        <path d="M4.18407329,0.154639824 L7.55907329,2.094295 C7.7266719,2.19061603 7.83,2.36917698 7.83,2.56248253 L7.83,6.43751747 C7.83,6.63082302 7.7266719,6.80938397 7.55907329,6.905705 L4.18407329,8.84536018 C4.01746836,8.94111014 3.81253164,8.94111014 3.64592671,8.84536018 L0.270926707,6.905705 C0.1033281,6.80938397 5.7710072e-14,6.63082302 5.73430192e-14,6.43751747 L5.62327962e-14,2.56248253 C5.62091231e-14,2.36917698 0.1033281,2.19061603 0.270926707,2.094295 L3.64592671,0.154639824 C3.81253164,0.0588898632 4.01746836,0.0588898632 4.18407329,0.154639824 Z" id="path-4"></path>
        <linearGradient x1="100%" y1="131.88326%" x2="100%" y2="0%" id="linearGradient-6">
            <stop stop-color="#1488A2" stop-opacity="0.299278846" offset="0%"></stop>
            <stop stop-color="#00303B" offset="100%"></stop>
        </linearGradient>
        <linearGradient x1="100%" y1="50%" x2="50%" y2="33.4852689%" id="linearGradient-7">
            <stop stop-color="#0C4E5D" offset="0%"></stop>
            <stop stop-color="#0C4E5D" stop-opacity="0" offset="100%"></stop>
        </linearGradient>
        <linearGradient x1="50%" y1="2.18783454%" x2="50%" y2="98.0149872%" id="linearGradient-8">
            <stop stop-color="#7FF0FF" stop-opacity="0.904283217" offset="0%"></stop>
            <stop stop-color="#7FF0FF" offset="100%"></stop>
        </linearGradient>
    </defs>
    <g id="WIP---May" stroke="none" stroke-width="1" fill="none" fill-rule="evenodd">
        <g id="Style-Basics-&amp;-Grid" transform="translate(-890.000000, -1306.000000)">
            <g id="feature-menu-copy-4" transform="translate(520.000000, 1198.000000)">
                <g id="Group-12" transform="translate(370.000000, 108.000000)">
                    <g id="Group-10" transform="translate(11.750000, 8.000000)">
                        <path d="M8.25,24.2163339 C2.2245436,24.1826677 6.12110411,20.6364576 6.1326513,20.701945 C6.44529891,22.4750577 6.14134138,23.8933831 4.97533631,24.2163339 C3.80933125,24.5392846 2.24096475,21.1865272 1.23272915,18.6105637 C0.991488377,18.0411116 0.749882538,17.3471276 0.5,16.5 C-1.08889974,11.1134656 4.2385399,11.2911529 6.1742288,9.36027135 C6.43520463,9.09932278 6.67853336,8.56575948 6.75,8.25 C7,7.1454305 6.80964406,5.22907883 8.25,5.22907883 C9.69035594,5.22907883 9.5,7.1454305 9.75,8.25 C9.82123753,8.56474722 10.0653719,9.0981677 10.3277235,9.36048099 C11.3092069,10.3389196 12.9171864,10.9508067 14.5022451,11.5058345 C15.2145349,11.7552515 16.3160456,11.9030189 17.6183048,11.6536019 C19.6641933,11.2617602 21.2957858,10.1970976 22.0274263,10.75 C22.8544716,11.375 21.8500154,13.0409 19.2143878,13.9412323 C17.3218728,14.5877168 15.8942664,14.8515183 14.9315687,14.7326366 C13.4308099,18.6497223 12.5072375,21.0440755 12.1608514,21.9156961 C11.6412722,23.223127 10.9870062,24.2316264 8.25,24.2163339 Z" id="Combined-Shape" fill="url(#linearGradient-1)"></path>
                        <path d="M8.25,17.1817276 C5.49020158,17.1817276 6.12110411,20.6364576 6.1326513,20.701945 C6.44529891,22.4750577 6.14134138,23.8933831 4.97533631,24.2163339 C3.80933125,24.5392846 2.24096475,21.1865272 1.23272915,18.6105637 C0.991488377,18.0411116 0.749882538,17.3471276 0.5,16.5 C-1.08889974,11.1134656 4.2385399,11.2911529 6.1742288,9.36027135 C6.43520463,9.09932278 6.67853336,8.56575948 6.75,8.25 C7,7.1454305 6.80964406,5.22907883 8.25,5.22907883 C9.69035594,5.22907883 9.5,7.1454305 9.75,8.25 C9.82123753,8.56474722 10.0653719,9.0981677 10.3277235,9.36048099 C11.3092069,10.3389196 12.9171864,10.9508067 14.5022451,11.5058345 C15.2145349,11.7552515 16.3160456,11.9030189 17.6183048,11.6536019 C19.6641933,11.2617602 21.2957858,10.1970976 22.0274263,10.75 C22.8544716,11.375 21.8500154,13.0409 19.2143878,13.9412323 C17.3218728,14.5877168 15.8942664,14.8515183 14.9315687,14.7326366 C14.2655312,15.8326285 13.5383417,16.5096057 12.75,16.7635683 C11.5674875,17.1445123 10.9870639,17.1817276 8.25,17.1817276 Z" id="Combined-Shape-Copy-2" fill="#A5B5FF"></path>
                        <g id="Oval-2">
                            <use fill="black" fill-opacity="1" filter="url(#filter-3)" xlink:href="#path-2"></use>
                            <use fill="#A5B5FF" fill-rule="evenodd" xlink:href="#path-2"></use>
                        </g>
                        <g id="cube" transform="translate(4.380000, 10.750000)">
                            <mask id="mask-5" fill="white">
                                <use xlink:href="#path-4"></use>
                            </mask>
                            <use id="base" fill="#2CC4DA" xlink:href="#path-4"></use>
                            <path d="M3.915,4.81248253 L3.915,8.68894261 C3.915,8.78835386 3.83441125,8.86894261 3.735,8.86894261 C3.70352428,8.86894261 3.67259879,8.86068896 3.6453089,8.84500512 L0,6.75 L-1.94289029e-16,2.56105739 C-1.62315931e-16,2.46164614 0.080588745,2.38105739 0.18,2.38105739 C0.211475719,2.38105739 0.24240121,2.38931104 0.269691098,2.40499488 L3.64407329,4.344295 C3.8116719,4.44061603 3.915,4.61917698 3.915,4.81248253 Z" id="left" fill="#00A3C7" opacity="0.800000012" mask="url(#mask-5)"></path>
                            <path d="M3.915,0.311057394 L3.915,4.18751747 C3.915,4.38082302 3.8116719,4.55938397 3.64407329,4.655705 L0.269691098,6.59500512 C0.183500153,6.64454014 0.0734725155,6.61482465 0.0239374901,6.5286337 C0.00825364683,6.50134382 5.87724145e-16,6.47041833 4.4408921e-16,6.43894261 L-2.55795385e-15,2.25 L3.6453089,0.154994884 C3.73149985,0.105459858 3.84152748,0.135175352 3.89106251,0.221366296 C3.90674635,0.248656183 3.915,0.279581675 3.915,0.311057394 Z" id="back" fill="url(#linearGradient-6)" opacity="0.200237772" mask="url(#mask-5)"></path>
                            <path d="M4.18407329,4.65463982 L7.55845123,6.59393749 C7.64464218,6.64347252 7.67435767,6.75350015 7.62482265,6.8396911 C7.60895808,6.86729544 7.58605558,6.89019794 7.55845123,6.90606251 L3.915,9 L0.271548767,6.90606251 C0.185357823,6.85652748 0.15564233,6.74649985 0.205177355,6.6603089 C0.22104192,6.63270456 0.243944424,6.60980206 0.271548767,6.59393749 L3.64592671,4.65463982 C3.81253164,4.55888986 4.01746836,4.55888986 4.18407329,4.65463982 Z" id="bottom" fill="url(#linearGradient-7)" opacity="0.0600000024" mask="url(#mask-5)"></path>
                            <path d="M5.65317656,4.20812298 L5.91332713,4.63476991 L5.63476991,4.91332713 L5.20812298,4.65317656 C5.12447738,4.70071777 5.03446221,4.73834636 4.93967527,4.76446452 L4.8219697,5.25 L4.4280303,5.25 L4.31032473,4.76446452 C4.21553779,4.73834636 4.12552262,4.70071777 4.04187703,4.65317656 L3.61523009,4.91332713 L3.33667287,4.63476991 L3.59682344,4.20812297 C3.54928223,4.12447738 3.51165364,4.03446221 3.48553548,3.93967527 L3,3.8219697 L3,3.4280303 L3.48553548,3.31032473 C3.51165364,3.21553779 3.54928223,3.12552262 3.59682344,3.04187703 L3.33667287,2.61523009 L3.61523009,2.33667287 L4.04187703,2.59682344 C4.12552262,2.54928223 4.21553779,2.51165364 4.31032473,2.48553548 L4.4280303,2 L4.8219697,2 L4.93967527,2.48553548 C5.03446221,2.51165364 5.12447738,2.54928223 5.20812298,2.59682344 L5.63476991,2.33667287 L5.91332713,2.61523009 L5.65317656,3.04187702 C5.70071777,3.12552262 5.73834636,3.21553779 5.76446452,3.31032473 L6.25,3.4280303 L6.25,3.8219697 L5.76446452,3.93967527 C5.73834636,4.03446221 5.70071777,4.12447738 5.65317656,4.20812298 Z M4.625,4.36363636 C5.0329376,4.36363636 5.36363636,4.0329376 5.36363636,3.625 C5.36363636,3.2170624 5.0329376,2.88636364 4.625,2.88636364 C4.2170624,2.88636364 3.88636364,3.2170624 3.88636364,3.625 C3.88636364,4.0329376 4.2170624,4.36363636 4.625,4.36363636 Z M4.625,3.92045455 C4.46182496,3.92045455 4.32954545,3.78817504 4.32954545,3.625 C4.32954545,3.46182496 4.46182496,3.32954545 4.625,3.32954545 C4.78817504,3.32954545 4.92045455,3.46182496 4.92045455,3.625 C4.92045455,3.78817504 4.78817504,3.92045455 4.625,3.92045455 Z" id="Combined-Shape" fill="#245B70" mask="url(#mask-5)" transform="translate(4.625000, 3.625000) rotate(10.000000) translate(-4.625000, -3.625000) "></path>
                            <path d="M6.92863353,2.93898929 L7.06871461,3.16872226 L6.91872226,3.31871461 L6.68898929,3.17863353 C6.64394936,3.20423264 6.59547965,3.22449419 6.54444053,3.23855782 L6.48106061,3.5 L6.26893939,3.5 L6.20555947,3.23855782 C6.15452035,3.22449419 6.10605064,3.20423264 6.06101071,3.17863353 L5.83127774,3.31871461 L5.68128539,3.16872226 L5.82136647,2.93898929 C5.79576736,2.89394936 5.77550581,2.84547965 5.76144218,2.79444053 L5.5,2.73106061 L5.5,2.51893939 L5.76144218,2.45555947 C5.77550581,2.40452035 5.79576736,2.35605064 5.82136647,2.31101071 L5.68128539,2.08127774 L5.83127774,1.93128539 L6.06101071,2.07136647 C6.10605064,2.04576736 6.15452035,2.02550581 6.20555947,2.01144218 L6.26893939,1.75 L6.48106061,1.75 L6.54444053,2.01144218 C6.59547965,2.02550581 6.64394936,2.04576736 6.68898929,2.07136647 L6.91872226,1.93128539 L7.06871461,2.08127774 L6.92863353,2.31101071 C6.95423264,2.35605064 6.97449419,2.40452035 6.98855782,2.45555947 L7.25,2.51893939 L7.25,2.73106061 L6.98855782,2.79444053 C6.97449419,2.84547965 6.95423264,2.89394936 6.92863353,2.93898929 Z M6.375,3.02272727 C6.59465871,3.02272727 6.77272727,2.84465871 6.77272727,2.625 C6.77272727,2.40534129 6.59465871,2.22727273 6.375,2.22727273 C6.15534129,2.22727273 5.97727273,2.40534129 5.97727273,2.625 C5.97727273,2.84465871 6.15534129,3.02272727 6.375,3.02272727 Z M6.375,2.78409091 C6.28713652,2.78409091 6.21590909,2.71286348 6.21590909,2.625 C6.21590909,2.53713652 6.28713652,2.46590909 6.375,2.46590909 C6.46286348,2.46590909 6.53409091,2.53713652 6.53409091,2.625 C6.53409091,2.71286348 6.46286348,2.78409091 6.375,2.78409091 Z" id="Combined-Shape-Copy" fill="#245B70" opacity="0.400000006" mask="url(#mask-5)" transform="translate(6.375000, 2.625000) rotate(30.000000) translate(-6.375000, -2.625000) "></path>
                            <path d="M3.46429969,3.75274077 L3.0927886,4.37774077 C3.04773059,4.45354268 2.96607043,4.5 2.87788793,4.5 L2.12211207,4.5 C2.03392957,4.5 1.95226941,4.45354268 1.9072114,4.37774077 L1.53570031,3.75274077 C1.48890119,3.67400975 1.48890119,3.57599025 1.53570031,3.49725923 L1.9072114,2.87225923 C1.95226941,2.79645732 2.03392957,2.75 2.12211207,2.75 L2.87788793,2.75 C2.96607043,2.75 3.04773059,2.79645732 3.0927886,2.87225923 L3.46429969,3.49725923 C3.51109881,3.57599025 3.51109881,3.67400975 3.46429969,3.75274077 Z M2.5,4.02914519 C2.7298015,4.02914519 2.91609243,3.84820322 2.91609243,3.625 C2.91609243,3.40179678 2.7298015,3.22085481 2.5,3.22085481 C2.2701985,3.22085481 2.08390757,3.40179678 2.08390757,3.625 C2.08390757,3.84820322 2.2701985,4.02914519 2.5,4.02914519 Z" id="Combined-Shape" fill="#245B70" opacity="0.400000006" mask="url(#mask-5)" transform="translate(2.500000, 3.625000) rotate(-20.000000) translate(-2.500000, -3.625000) "></path>
                            <path d="M7.83,2.56105739 L7.83,6.75 L4.1846911,8.84500512 C4.09850015,8.89454014 3.98847252,8.86482465 3.93893749,8.7786337 C3.92325365,8.75134382 3.915,8.72041833 3.915,8.68894261 L3.915,4.81248253 C3.915,4.61917698 4.0183281,4.44061603 4.18592671,4.344295 L7.5603089,2.40499488 C7.64649985,2.35545986 7.75652748,2.38517535 7.80606251,2.4713663 C7.82174635,2.49865618 7.83,2.52958167 7.83,2.56105739 Z" id="right" fill="#23D4FC" opacity="0.956333705" mask="url(#mask-5)"></path>
                            <path d="M3.915,2.56105739 L3.915,6.75 L0.269691098,8.84500512 C0.183500153,8.89454014 0.0734725155,8.86482465 0.0239374901,8.7786337 C0.00825364683,8.75134382 -1.21739066e-15,8.72041833 -1.22124533e-15,8.68894261 L-9.32587341e-15,4.81248253 C-9.69292614e-15,4.61917698 0.1033281,4.44061603 0.270926707,4.344295 L3.6453089,2.40499488 C3.73149985,2.35545986 3.84152748,2.38517535 3.89106251,2.4713663 C3.90674635,2.49865618 3.915,2.52958167 3.915,2.56105739 Z" id="right-copy" fill="#089EBE" opacity="0.936334" mask="url(#mask-5)" transform="translate(1.957500, 5.625000) scale(-1, 1) translate(-1.957500, -5.625000) "></path>
                            <path d="M0.271548767,2.09393749 C0.243944424,2.10980206 0.22104192,2.13270456 0.205177355,2.1603089 C0.155978422,2.24591505 0.184958236,2.35503552 0.269802173,2.40504591 C0.24240121,2.38931104 0.211475719,2.38105739 0.18,2.38105739 C0.0812513534,2.38105739 0.00107513666,2.46057542 1.07225531e-05,2.5590721 C0.00121809924,2.36707867 0.104314176,2.19004932 0.270926707,2.094295 L0.271548767,2.09393749 L0.271548767,2.09393749 Z" id="left-corner" fill="#67D7F8" mask="url(#mask-5)"></path>
                            <path d="M7.55845123,2.09393749 L7.55907329,2.094295 C7.72569972,2.19005731 7.8287991,2.36710821 7.82998958,2.55912014 C7.82965808,2.52831381 7.82142447,2.4980961 7.80606251,2.4713663 C7.75652748,2.38517535 7.64649985,2.35545986 7.5603089,2.40499488 C7.58702932,2.38921887 7.60929644,2.36670669 7.62482265,2.3396911 C7.67435767,2.25350015 7.64464218,2.14347252 7.55845123,2.09393749 L7.55845123,2.09393749 Z" id="right-corner" fill="#88ECFE" mask="url(#mask-5)"></path>
                            <path d="M3.64407329,4.344295 L3.64592671,4.34536018 C3.81253164,4.44111014 4.01746836,4.44111014 4.18407329,4.34536018 L4.18592671,4.344295 C4.0183281,4.44061603 3.915,4.61917698 3.915,4.81248253 C3.915,4.61917698 3.8116719,4.44061603 3.64407329,4.344295 L3.64407329,4.344295 Z" id="center-corner" fill="#4ED4FF" mask="url(#mask-5)"></path>
                        </g>
                        <path d="M8.295,10.75 L11.9958518,10.5136749 C12.0234099,10.5119151 12.0471768,10.5328288 12.0489366,10.5603869 C12.0501501,10.5793913 12.040463,10.597435 12.0239524,10.6069239 L8.40409173,12.6873036 C8.33232514,12.7285488 8.25203729,12.7527435 8.1694311,12.7580184 L4.59414817,12.9863251 C4.56659006,12.9880849 4.54282322,12.9671712 4.54106344,12.9396131 C4.53984988,12.9206087 4.54953697,12.902565 4.56604761,12.8930761 L8.295,10.75 Z" id="top" fill="url(#linearGradient-8)"></path>
                        <path d="M18.3281591,2.94452272 L18.5172023,7.48155938 C18.5337427,7.878529 18.2253439,8.21374511 17.8283743,8.23028551 C17.8183967,8.23070125 17.8084115,8.23090918 17.7984253,8.23090918 C17.4011112,8.23090918 17.0790245,7.90882249 17.0790245,7.51150842 C17.0790245,7.50152216 17.0792324,7.49153698 17.0796482,7.48155938 L17.2686865,2.94463963 C16.7792342,2.81782516 16.4177831,2.3731396 16.4177831,1.84403263 C16.4177831,1.80625449 16.4196662,1.76849983 16.4234253,1.73090918 L16.4737975,1.22718707 C16.5161628,0.803533354 16.8726585,0.480909182 17.2984253,0.480909182 L17.2984253,1.73090918 L17.7984253,1.98090918 L18.2984253,1.73090918 L18.2984253,0.480909182 C18.724192,0.480909182 19.0806877,0.803533354 19.123053,1.22718707 L19.1734253,1.73090918 C19.2299783,2.29643998 18.8618507,2.80654391 18.3281591,2.94452272 Z" id="Combined-Shape" fill="#245B70" transform="translate(17.798468, 4.355909) rotate(40.000000) translate(-17.798468, -4.355909) "></path>
                        <path d="M5,24.25 C6.21818186,24.25 6.66100399,21.3555863 6.66100399,18.4325921 C6.66100399,15.5095979 5.60887987,14.3057265 5,14.8664543 C4.39112013,15.427182 5.43812275,16.5109972 4.49874237,19.6368753 C3.55936198,22.7627534 3.78181814,24.25 5,24.25 Z" id="Oval-7" fill="#A5B5FF"></path>
                        <path d="M18.8373561,13.0441406 C17.6191743,13.0441406 17.3967181,11.5568941 18.3360985,8.43101593 C19.2754789,5.30513779 18.2284762,4.22132264 18.8373561,3.6605949 C19.446236,3.09986716 20.4983601,4.30373856 20.4983601,7.22673275 C20.4983601,10.1497269 20.055538,13.0441406 18.8373561,13.0441406 Z" id="Oval-7-Copy" fill="#A5B5FF" transform="translate(19.126670, 8.285459) scale(-1, 1) rotate(31.000000) translate(-19.126670, -8.285459) "></path>
                    </g>
                </g>
            </g>
        </g>
    </g>
</svg>