<svg height="75" viewBox="0 0 66 75" width="66" xmlns="http://www.w3.org/2000/svg"><g fill="none" fill-rule="evenodd"><rect fill="#212121" height="30" rx="6.75" width="30" y=".3"/><g fill="#fff" fill-rule="nonzero" transform="translate(10 5.3)"><path d="m4.98875 16.23875c.01333333-.0070833.02208333-.0116667.02208333-.0116667 0-.0025-.00041666-.005-.00041666-.0075-.0075.0066667-.01416667.0125-.02166667.0191667z"/><path d="m9.48291667 7.65666667c-1.01458334-4.47166667-4.23875-7.60375-4.23875-7.60375v.00666666c1.23416666 5.23666667.25 17.14208337.25 17.14208337s5.04375003-3.3904167 3.98875-9.54500003z"/><path d="m4.62583333.05958333v-.00666666l.00083334.00083333c-.00708334-.02041667-.01458334-.04083333-.02041667-.05375-.03.39458333-3.98291667 3.90083333-4.225 8.98083333-.24333333 5.07999997 4.495 8.22083337 4.495 8.22083337s.98375-11.90500003-.25041667-17.14208337z"/><path d="m5.24916667 17.82s-.30708334-.2045833-.75958334-.5904167c0 0-.00125-.0004166-.00125-.0004166.71083334 1.0295833.37333334 2.7708333.37333334 2.7708333h.66666666s-.12125-1.44375.02583334-2.1045833c.04458333-.2.32458333-.5354167.44541666-.6829167-.44416666.40125-.75041666.6075-.75041666.6075z"/></g><rect fill="#dbe8fb" height="30" opacity=".549502" rx="6.75" width="30" y="34.8"/><path d="m10.0149206 19.876836c5.4404762-.0082646 9.8446032-4.4338201 9.8446032-9.89286775 0-5.37031746-4.3838095-9.7931746-9.6211111-9.88666666-5.50031746-.09809524-10.09650794 4.36507936-10.09793694 9.77730158-.00158687 5.56809523 4.38285757 10.01015873 9.87444484 10.00223283zm-.01603171-19.30064606c5.22333331-.0017455 9.38507941 4.24206403 9.38349251 9.56825446-.0017465 5.0284127-4.27381 9.2349207-9.379683 9.236032-5.20174602.0011109-9.38476189-4.2163494-9.38476189-9.46158751.00031746-5.11 4.24857143-9.34095238 9.38095238-9.34269895zm-3.94222222 4.96285768c.08539682.28460317-.1536508.38365079-.40777778.40349206-.26746032.02063492-.53476191.04079365-.8452381.06444445 1.02476191 3.05301587 2.03412699 6.06079367 3.06746032 9.13857147.07365079-.1204762.10396826-.1544445.11730159-.194127.56730159-1.6955556 1.13777778-3.39 1.69063492-5.09031749.05047619-.15507936.02539682-.36047619-.02984127-.51984127-.29253968-.84444444-.64301587-1.67047619-.89952381-2.52507936-.17539683-.58507937-.40809524-.9636508-1.09968254-.89587302-.11777778.0115873-.2615873-.24190476-.39349206-.37285714.15952381-.0952381.3179365-.27047619.47888889-.27285715 1.40825396-.02142857 2.81698417-.02142857 4.22507937.00126985.1615873.00269841.32.18253968.4795238.28015873-.1396825.12761904-.2601587.31904762-.4234921.36841269-.2620635.07904762-.5526984.06412699-.8663492.0920635 1.025873 3.0515873 2.030635 6.04079366 3.0712699 9.13650796.4652381-1.5453969.8980952-2.9644445 1.3190476-4.3871429.3755555-1.26999998.151746-2.45603173-.5273016-3.57460316-.204127-.33634921-.4549206-.66269841-.5706349-1.02952381-.1314286-.41730159-.2406349-.89238095-.1709524-1.31095238.118254-.70936508.6625397-1.0615873 1.3990476-1.12904762-4.0304762-3.74063492-10.36412696-2.4015873-12.69793649 1.66269841.8984127-.04142857 1.75619048-.09587301 2.61460318-.10761904.16222222-.0020635.43126984.13507936.46936508.26222222zm1.60587301 12.37634918c-.01873016.0547619-.01984127.1157143-.03460317.2066667 1.73698412.4815873 3.44047619.4468254 5.18396829-.1406349l-2.6634921-7.2952381c-.85238095 2.4779365-1.66984127 4.8531746-2.48587302 7.2292063zm-1.34222222-.3298412-4.01285714-11.00793655c-1.81031746 3.53619045-.43317461 8.93142855 4.01285714 11.00793655zm12.13142854-7.0733334c.1273016-1.67206347-.4495238-3.98714283-.947619-4.30555553-.0555556.61507936-.0168254 1.29936508-.1933333 1.92285714-.4153969 1.46904762-.9233334 2.91253969-1.4125397 4.35999999-.5317461 1.5733333-1.0844445 3.1395238-1.6280953 4.7088889 2.5542857-1.514127 3.9579365-3.7488889 4.1815873-6.6861905z" fill="#fff" transform="translate(5 39.8)"/><rect fill="#dbe8fb" height="30" opacity=".550735" rx="6.75" width="30" x="35.25" y="34.8"/><rect fill="#dbe8fb" height="30" opacity=".554781" rx="6.75" width="30" x="35.25" y=".3"/><path d="m18.5366254 11.5654448c-.0705363-.4573887-.454724-.7569328-.9016106-.7771533-.1617632-.0073671-.3260344.0095616-.4873274.0300955-.194837.0247661-.3873227.0686554-.5816894.0976536-.1343324.0200637-.2705459.0293118-.4047216.0431055l-.0032917-.0173989c.2504823-.4730635.5114666-.9409542.7484685-1.42075779.1816702-.36804273.3371635-.74940898.4978295-1.12764028.2658435-.62667581.4782361-1.27278829.6541066-1.92940285.1685034-.62871353.312711-1.26432394.3580109-1.91654957.0181827-.26051406.0307225-.52212535.0293118-.7829529-.001254-.2080037-.0236689-.4163209-.0445163-.62369761-.0235121-.23762895-.0953023-.46287486-.1946801-.67965641-.1310408-.28559363-.3341853-.51993089-.5479887-.74251209-.1711681-.17822171-.3594216-.34061195-.5461077-.50284543-.2661569-.2315158-.5653876-.4163209-.8762175-.58043535-.3531518-.18652932-.7243294-.33246108-1.1113386-.43105515-.2340238-.05972073-.4733769-.10408023-.7103789-.15141792-.0852705-.01724221-.1706978-.05282385-.2559684-.05282385h-1.6052493c-.0579966 0-.1155228.02993874-.1739896.03652213-.3843444.04279202-.7641432.11520928-1.1329697.22947808-.1379376.04279203-.2639625.01583148-.3950032.00376194-.1004751-.00924809-.1992259-.03620863-.2997009-.04122455-.382777-.01912317-.76602421-.04718094-1.14864443-.04310551-.366632.00376193-.72950206.06410966-1.08437801.16489819-.29703619.08433006-.58764573.18731305-.85380269.34343339-.11395531.06677436-.20424177.05423458-.32211576.02022041-.3961005-.11426881-.79502244-.22164072-1.19739283-.31177044-.25079573-.05611554-.50864508-.08401657-.76477021-.11082036-.24546632-.02554981-.4928136-.04091105-.73953389-.04608371-.24107739-.00517266-.483879-.00501592-.72385916.01630172-.38230673.03401417-.75740309.11176084-1.12199737.23715871-.40487835.13919162-.77605602.34092543-1.11071156.60582842-.33967146.26882166-.61209831.59705056-.83123108.97183342-.23088881.39547351-.38920361.81884804-.48764093 1.26354021-.05329409.24092064-.08699477.48858142-.1235169.733264-.01144255.0761792.11473905.1523584-.04200828.22822411v1.06494134c.15674733.07084979.03260344.14154283.04169479.21254937.02178788.17069784.0410678.34280641.06990931.51225027.04561347.26819467.0996913.53560562.15486636.80207607.07696293.3722749.15706082.74423631.24233136 1.11463025.06207195.2696054.13276499.53764333.20674973.80427053.11301482.40722956.22430542.81524285.3520545 1.21792671.11865772.3741559.25455766.7429824.38936036 1.1118088.18668606.5102126.41020775 1.0039666.67824568 1.4771868.2318293.4097375.49673228.793455.85207847 1.1091441.23418051.2080037.49485132.367886.79831414.4478271.23841269.062699.48074405.0702228.72479964.0202204.28292893-.0579965.53341116-.1797891.75614911-.362243.02554981-.0210042.05360759-.0369924.08385982.0015674.11520928.1459318.26944865.2432719.43074165.3274452.43528733.2269701.90960474.2949985 1.39144603.3227428.11662001.0067401.234494-.0100319.3520545-.0133236.22900784-.0062699.45158905-.0509429.67056506-.1142688.11473905-.0332304.22681338-.0753954.34359014-.114739.00611315.1243006.01395052.2440556.0175557.3638105l.01630173.6530094c.0029782.0993778.00689688.1990691.01614497.2979767.02366885.2550279.04686745.5102125.07727643.7644567.02116089.1752435.04310552.3518977.08433007.5229091.08291933.3453143.19530716.6815373.33826073 1.0075718.14028886.3199213.34202267.5899969.61131457.8127349.34797905.2877881.75583565.4105212 1.19629565.4332496.1821403.0095616.3694534.000627.5487723-.0319765.284183-.0515698.5677389-.1164632.8443979-.1998528.5628797-.1699141 1.0494234-.4633451 1.4129204-.9375058.2069065-.2702324.3768206-.5625661.4859167-.8853089.089973-.2666272.1747733-.5359191.2421746-.8088162.0532941-.2150573.0796277-.4368548.1120744-.6564578.0214744-.1453048.0343276-.2920203.0478079-.4384223.0219446-.2377857.0443595-.4754146.060191-.7136706.0109723-.1658386.0105021-.332461.0170854-.4986132.0020378-.0506294.0101886-.1009453.014891-.1514179.004389-.0467107.0279011-.0628557.0755523-.062072.1678763.002508.3360662.0068969.5034724-.0006269.1876265-.0084644.3769773-.0164585.5616256-.0474945.2628653-.044046.5244766-.0996913.7821692-.1672494.3045601-.0796276.5838838-.2222677.8527055-.3848147.3131811-.189194.598618-.4111482.8302906-.6970553.2014203-.249385.2968794-.5376434.2482877-.852392zm-.5348219.1539259c-.0103453.1434238-.0760224.2663137-.1713248.3713344-.4497081.4957918-1.0138417.7965899-1.6591704.9447161-.2451529.0561156-.498143.0852706-.7490955.1084692-.2136466.0197501-.4304282.0230418-.6448585.0152045-.1576878-.0059564-.3141217-.0420083-.4752579-.0652069-.016145.1473425-.0315062.3007981-.0501592.4539402l-.0750819.5870188c-.0227284.1860591-.0404408.3727451-.0637962.5586475-.0228851.1804161-.0514131.3602053-.0753955.5406215-.0224148.1680331-.0388733.33685-.0637961.5045696-.0384031.2570657-.075082.5147583-.1252411.7697862-.060191.3048735-.1525152.6001855-.3031494.8751203-.1837078.335596-.4442219.5912509-.7757425.7806017-.3417092.1953071-.715238.2968794-1.0939396.3818365-.2680379.0601909-.5442267.070066-.8157131.0456134-.4708689-.0426352-.8727691-.2440555-1.17654542-.6091201-.28998255-.3484493-.4862302-.7478415-.55645301-1.1999008-.03354393-.2149005-.05768301-.4316821-.07696294-.6483069-.02131763-.2409207-.03589513-.482625-.04686745-.7241727-.01395051-.3067545-.02413908-.613509-.03087922-.9202635-.00830761-.3771341-.01097231-.7542682-.01630172-1.1314022l-.00094049-.0144208c-.19185872.1150526-.38042576.2410774-.58043535.3448441-.23418051.121636-.48858142.1921723-.75207367.2120792-.20659298.0156747-.41585066.0299387-.62150316.0134802-.3371635-.0271172-.6740135-.0799411-.97590886-.2459365-.12241966-.0674014-.25016873-.1493802-.33449879-.2570656-.20220406-.2580061-.10533421-.5840406.19953934-.7409446.21066841-.1086259.44061674-.1539259.6689976-.2067498.19844211-.0459269.39594375-.0981238.5895267-.161293.19154523-.0626989.31239742-.2180355.43168213-.3703939l.18903728-.2431151c-.0788439-.0083076-.15314214-.016772-.22744037-.0236689-.2255594-.0213176-.44077349-.0833895-.64658273-.1746165-.17618399-.0779034-.1788487-.0863678-.30800849.0537644-.21568433.2341805-.42541225.4738471-.63670765.7119463-.15549335.1750868-.31004621.3512708-.46475582.5268278-.15329889.173676-.29687944.3572271-.46193438.5188336-.24515282.2399802-.54062153.3843445-.89314627.3680428-.22618639-.0103454-.43324961-.0896595-.61946543-.2192896-.38434445-.2677244-.64329104-.6421938-.87903902-1.0354728-.3020521-.5039427-.53388139-1.0408022-.73232351-1.5923961-.13731066-.3812095-.27524831-.7627325-.39516001-1.14942814-.13025703-.42023959-.24452583-.84580858-.35691367-1.27122083-.08495705-.32101853-.16035251-.64470176-.23229953-.96901198-.08166536-.36882646-.16019577-.73827991-.22947809-1.10961433-.0467107-.25063897-.07382799-.50488314-.1116041-.75724633-.05094288-.3401417-.06034772-.68341835-.04185153-1.02497078.01645847-.307695.06066121-.61460627.10455046-.92026356.06081797-.42290428.20016634-.82198298.40064617-1.19880355.12273316-.23088882.27509156-.44077349.45127556-.63576716.28919882-.32007805.6392156-.5514371 1.02857596-.72511314.27211336-.12132243.55958796-.19436669.85254871-.25142271.43481709-.08464356.87355286-.08135186 1.31244537-.07226052.19185873.00391868.38293372.03887334.5746357.05783976.41271572.0410678.81728057.12790582 1.21667276.23512099.29107979.07806017.57620317.1791622.86493175.2669407.02899826.00877785.07147678.00799412.09514563-.00752387.39124133-.2553414.81884804-.42384477 1.27357203-.52024438.17257881-.03652213.35064377-.05251035.52714126-.06379616.21458709-.01363702.43089841-.0261768.64501526-.01379376.25737911.01473424.51350421.0526671.76931591.0877785.1241439.01692871.2453095.06003422.3697669.07179027.059564.00564291.1227332-.03793285.1857456-.05251035.3211753-.07414149.6409398-.15674733.9649365-.21537083.2412342-.04357576.487641-.06410966.7329505-.07821691.2735241-.01567474.5490859-.02711729.8224533-.01395052.3456278.01661522.6887477.06583388 1.0274787.14467779.4196126.09765358.8221397.23950991 1.20476.43638456.2859071.14702899.5577069.31757008.8023895.527298.1603525.13762416.324467.27352409.4693015.42682298.178692.18903727.3609891.3782313.4730635.62040592.08433.18261063.144521.37164791.1611362.5716575.0206907.24860126.0457702.49814301.043419.74705776-.0021944.23809919-.0346411.47604163-.057683.71351384-.0523536.54140526-.1700708 1.07105448-.3130244 1.59365007-.1181875.43168214-.2562819.85866186-.4058188 1.28062567-.1377809.38889012-.2967227.7707266-.4573887 1.15099562-.1186578.28120471-.2464068.55943121-.385285.83123108-.2628652.5150717-.5362326 1.024814-.8523919 1.509947-.0545481.0838598-.1062747.1697574-.1595688.2553414.1379376.0931079.2942147.1258681.451589.1427968.1496937.0163017.3023656.0260201.4519026.014891.2393531-.0177124.4779226-.0518834.715865-.0852705.235748-.032917.4667936-.1000048.7088114-.0822924.2417044.0175557.4145967.2012636.3981382.4277635zm-3.4504789-.5255738c-.1026695-.1326083-.2073767-.263649-.3078517-.3978247-.1576878-.2106684-.2710161-.4459462-.3848147-.6823211-.1078422-.22399198-.2401369-.43607111-.3537787-.65755509-.1982854-.38638216-.400176-.77151034-.5827866-1.16541638-.2296348-.49485131-.410678-1.00725832-.467734-1.55540372-.0241391-.23198605-.0302522-.4636586.0166152-.69345018.075082-.36694549.266784-.65394985.5890565-.85082449.2989171-.18261064.6320052-.24154763.9732441-.26004382.2117657-.01144255.4244718-.00203771.6442315-.00203771l-.0073671-.03714912c-.1366837-.28575038-.2644327-.57635992-.4139697-.85537017-.2109819-.39374928-.4809008-.74878198-.7815422-1.07795137-.2227379-.24374209-.463972-.46992848-.728248-.66978132-.2598871-.1967179-.5337247-.37243165-.8259017-.51616895-.3484493-.17132483-.7113194-.30377632-1.0920586-.38826313-.3658483-.08119512-.7340478-.13088402-1.10930087-.13495945-.32007804-.00344844-.63811837.01097231-.94988881.08323283-.47055547.10893939-.90098363.30267909-1.275453.61648724-.20910093.17524351-.39155482.3719614-.55128035.59093742-.1874698.25753586-.33873097.53560562-.46804752.82715565-.17743797.40001918-.29923064.81634008-.38246348 1.24426028-.04169478.21333311-.07429823.42854719-.10752866.64360453-.0115993.07523871-.01253979.15220165-.01927992.23841268.05783976-.03009549.09953455-.05329409.14216982-.07398474l.13872139-.06222869c.46914475-.21458709.95521821-.35268148 1.47765705-.33685.22195422.00674013.43434685.05062938.63169173.14781273.3785448.18668606.60002877.5040994.69627163.9058428.06646086.27728602.11191759.5600582.15612034.84204664.03464116.22023.07006605.4428112.07414148.66492217.00579965.32462371-.01065882.64987442-.02837126.97434138-.01504775.27650229-.07273076.54861565-.16928712.80662175-.175557.46914475-.37117767.93060893-.55394505 1.39708893-.06034772.1540826-.10674493.3136514-.16380096.4830953.088092 0 .15956878-.000627.23104556.0003135.02790103.0004702.05642904.0012539.08338958.0076806.21004142.0495321.39218181.1446778.54156201.3062843.19922586.2150573.30377633.4660098.30910573.7564626.0029782.1609795-.01395051.3224292-.01316677.4834087.00329169.7501927.0089346 1.5003854.01520449 2.2504214.00109723.1225764.00721038.2453096.01598823.3677292.01833943.2562819.03683562.5127205.06191519.7683754.0175557.1813567.04200828.3623998.07069305.5425025.04059755.2551847.15674732.4823115.28857183.6994066.11348506.1866861.26098426.3453144.45535096.454724.3302666.1859023.6859263.2014203 1.0444075.1329217.2421746-.0462404.4799603-.1205387.7150813-.1971881.2318293-.0753955.4412437-.1989124.6171142-.3689832.1647414-.1597256.2816749-.3544057.3605188-.5693063.1529854-.4167912.2006366-.8556837.2639625-1.2911278.0236689-.1630172.0442028-.3265046.0658339-.4898354.0246094-.1859023.0495322-.3716479.0733578-.5573934.0175557-.1384079.0335439-.2771293.0504726-.4155372.0241391-.1987556.0496889-.3973545.0727308-.5962668.0177124-.1537692.0327602-.3081653.0484349-.4622479.0202204-.1968747.0420083-.3937493.0594072-.5909374.0134803-.1496937.0079941-.3020521.0344844-.4489244.0487485-.2692919.1760273-.4984565.4147535-.6465827.099848-.0619152.2125494-.1026695.3233697-.1550231zm-9.02817578-1.1053822c-.11928471-.28245865-.19091824-.57683013-.21223588-.88123344-.02006366-.28606388.01395051-.57103052.04326227-.85584041.02852801-.2758753.05219686-.55300457.06050446-.83013385.01379377-.45550773-.01692871-.91038847-.03871659-1.36558271-.01316677-.27101613.01833944-.54532395.04247853-.81696707.02178788-.24468258.04890517-.48999215.09514563-.73106953.07758992-.40456486.18057292-.80333006.32697492-1.18986897.13903488-.36647525.29876041-.72338891.52431981-1.04472093.15455287-.22038674.32995313-.42635273.4984565-.64172356l-.0500024-.01771245c-.54830215-.17414628-1.10553889-.31020296-1.67860712-.3696102-.27101613-.02805777-.54297274-.04451624-.81477261-.06066121-.08338958-.00501592-.16803314.00626989-.25173621.01426401-.20721996.01975016-.41694789.02758752-.62087616.06646086-.34703858.06599063-.67996991.17696773-.9882919.3576974-.27681578.16223349-.50927207.37196141-.70395225.62354087-.21505733.27775626-.35973511.59187791-.46365859.92684695-.12273316.39516001-.18119991.80176258-.19703139 1.21212708-.01379377.35973511-.02069065.72150795.04138129 1.07983234.04624046.26678395.07711969.53638935.12806257.80207607.06943907.36224307.14389405.72370241.22994833 1.08218355.12304665.51319075.24593656 1.02716523.39171157 1.53408609.13950512.48575997.29687944.96713101.46742053 1.44270241.13950512.3881064.30079812.7690024.47071222 1.1448825.11066362.2448393.24468258.4804305.38512819.7097519.1493802.2434286.3192943.4744741.54986962.6511284.29092304.2230514.51616895.2576926.81179441.01301.12665184-.104864.23371026-.2343373.34390363-.3576974.17508677-.1959342.34406039-.3971977.51836342-.5937589.22195421-.2504822.44672988-.4982997.66978133-.747528.04718094-.0526671.09248092-.1069017.13840789-.1601958l-.07586571-.0666176c-.27728602-.2663137-.49202986-.5751059-.64188031-.9296684zm8.41545048-7.45631358c.1811999.21254938.3566002.43136864.5186769.65896576.3134947.44030325.5639769.91571789.7484685 1.42436297.0816654.22414867.1468723.45049182.1177173.69580138-.0202204.17179507-.0184962.3460981-.0337007.51883366-.0126965.14373729-.0354249.28669086-.0540778.42995791-.0279011.21599782-.0683419.43136865-.0804114.64830695-.0114426.20643623.0004702.41506692.0134803.62197339.0131667.21019817.041538.41945585.0608179.62934052.0217879.23794245.0510996.47588489.0578398.71429757.0054861.19577742-.0119128.39280881-.0289983.58827272-.0203771.23543449-.0800979.46334515-.1691303.68200765-.0625422.1539258-.1373107.3031493-.2080037.4572319l.0283712.0300955.0431055.0333872.043419-.0777467c.366632-.5780841.6928232-1.17842639.9752819-1.80149701.1816702-.40127316.3518978-.80818922.5152285-1.21729975.2545576-.63702113.455978-1.29191147.6117848-1.95981183.0699093-.29985764.1233601-.60426094.1708546-.90866425.0369924-.23794245.0678716-.47870634.0747685-.71884325.0073671-.2547144-.0067402-.51146653-.0302523-.76555394-.0175557-.19185873-.0648934-.38497144-.1851186-.54093503-.1932694-.25110922-.4019001-.49124612-.6584955-.68122388-.2159978-.16003903-.4312119-.32415348-.6630412-.45879943-.3675725-.21317637-.7653972-.35518944-1.1810911-.45190255-.4056621-.09451863-.8166536-.13527294-1.2303098-.14389404-.2438988-.00517266-.4888949.02100414-.7323235.04388925-.2205435.02069065-.4396762.0559588-.6617872.0851138.2382559.13401896.4732202.25314693.6948609.39359254.4660098.29515521.8835847.65034466 1.2420658 1.07074099zm-6.05436549 8.26403258c.15063419-.4816845.35581644-.94158119.55457205-1.4042993.16113625-.3752531.24922825-.77056986.27854-1.17654544.0145775-.20016633.01050207-.40284063.00062699-.60363395-.01112906-.22305145-.02899826-.44672989-.06144495-.66758687-.04169479-.28230194-.08918923-.56476062-.15596359-.84188989-.07241727-.29985764-.25502791-.50864508-.56789557-.58560802-.19060475-.04686745-.37995552-.04498648-.57259799-.0145775-.47055547.07414149-.90129713.24750403-1.30257029.5014347-.08072487.05109963-.12508436.09232418-.11113385.20816045.0294685.24530957.03589514.49453782.0347979.74219859-.00156747.35048703-.01645847.70097405-.02978199 1.05130433-.00438892.11411205-.02084739.22759712-.03307368.34123893-.01880968.17398953-.05501832.34782232-.05394547.52149836.00112162.17900545.01946105.36224307.06288006.53560562.13793765.54971289.43011467.99957769.90897775 1.31699099.29452823.1951505.62040593.2935878.97810333.3122407.02429583-.0821356.04592696-.1597255.0699093-.2365317zm-.56209591-4.71605683c-.06301243-.13229474-.02696054-.24186112.11912797-.29264726.03558164-.01253978.07226052-.02586331.10925288-.0294685.05078614-.00501591.10251276-.00125397.15392588-.00125397.18527534.00094048.36349705.02680379.51648244.14467778.09812383.07555221.12445738.1758705.06097471.27885349-.09012971.14608851-.22759712.21944626-.39641399.23355352-.26600021.02210138-.45268628-.10188576-.56334989-.33371506zm7.3733943-.04827817c.0213176-.176184.0384031-.35283824.0601909-.52902223.0087779-.0708498-.028528-.08997297-.0879352-.09169719-.1868428-.00517266-.3736856-.01175605-.5605284-.01520449-.2106685-.00376194-.415694.03009549-.6106876.11019337-.2163113.08903248-.3810528.23167255-.4482974.46710704-.0501591.175557-.0636394.35095726-.045927.53450838.0269606.27979398.0890325.55128035.1869996.81132417.1307273.34813581.2675677.69611488.4310552 1.02967319.2214839.45158905.4721229.88875735.7074006 1.33344951.0628557.11865773.1156796.24248815.1812.38105275.1371539-.29045279.204085-.58121908.2117656-.88123347.0064266-.25236319-.0137938-.50582362-.028528-.75834357-.0092481-.15455286-.031036-.30816524-.0460837-.46240461-.0210042-.21490059-.0528239-.42964443-.0576831-.64501525-.0048591-.21897602.0106589-.43920602.0294685-.65786854.0177125-.20972792.0523537-.41773162.07759-.62651906zm-.4214936-.16960061c-.0694391.19170198-.2178788.29985763-.4103645.33167734-.1794757.0294685-.3366933-.03683562-.4536268-.17994593-.0832328-.10188576-.0514131-.2225812.0733578-.29139328.143267-.07931415.3007981-.09937781.4865437-.11144735.0504726.00924809.1264951.01692871.1987556.03761936.104864.02962524.1435806.10846915.1053342.21348986zm-5.55230382 5.90310431c-.1026695-.0838598-.23841268-.088719-.33606627.0032917-.12116568.1144256-.22775386.2453096-.33434204.3743126-.12304666.1490668-.23841269.3040899-.39719773.4196126-.23104556.1678764-.50033747.2374722-.7710401.3033061-.21521409.0523536-.43136865.1009453-.64720972.1512612l-.0026647.027901c.06410965.0296253.12618159.0666176.19295596.0877785.32916938.104237.66398167.1561204 1.01180399.1266519.25110922-.0213177.49030564-.0760225.71696228-.1835512.31192718-.1478127.55190734-.3819932.75599236-.6544201.03417092-.0454567.0496889-.1127013.05376433-.1713248.01395051-.2070632-.09122694-.3609891-.24295836-.4848195zm8.11183092.0824491c-.264903.0283713-.5301194.0584668-.7958062.0736713-.1282193.0073671-.2583196-.0170855-.3877929-.0275876-.217095-.0175557-.4290174-.0658338-.6125685-.1818269-.1062747-.0669311-.1945234-.0744549-.3073815-.0365221-.1611363.0542346-.2926473.1366837-.3315206.3113002-.0264903.1180307-.0360519.2402937-.0467107.3611458-.0020377.0213177.0246093.0605045.0449865.0658339.1243006.0327602.2492282.0714768.3763503.0829194.1561203.0141072.3150621.0095615.4722797.0017242.1697574-.0084644.3406119-.0194367.5078613-.0476512.3942196-.0661474.7755858-.1739895 1.1143168-.3975112.1221062-.0807249.2431151-.163174.3644375-.2448394l-.0100318-.0172422c-.1294733.01928-.2583196.0427921-.3884199.0565858z" fill="#fff" transform="translate(40.75 6.050979)"/><path d="m11.6846849 34.1242483c.1768071.4072362.6506603.5975815 1.0585415.4250801l3.1190492-1.3191105c.4078092-.172471.5912145-.6353121.4097852-1.0334814l-5.625831-12.3465936h7.6661972c.4396814 0 .5439599-.2527194.2321083-.5652705l-17.71739037-17.75713025c-.3114916-.31219026-.56400543-.21373191-.56400543.23537953v24.67188982c0 .4421868.25527337.5542305.56963919.2507681l5.37126836-5.1849721z" fill="#212121" transform="translate(46 40.3)"/></g></svg>