<?xml version="1.0" encoding="UTF-8"?>
<svg width="329px" height="227px" viewBox="0 0 329 227" version="1.1" xmlns="http://www.w3.org/2000/svg" xmlns:xlink="http://www.w3.org/1999/xlink">
    <!-- Generator: Sketch 60.1 (88133) - https://sketch.com -->
    <title>home-howitworks-build</title>
    <desc>Created with Sketch.</desc>
    <defs>
        <rect id="path-1" x="0" y="19" width="300" height="40" rx="8"></rect>
        <filter x="-2.2%" y="-13.8%" width="104.3%" height="132.5%" filterUnits="objectBoundingBox" id="filter-2">
            <feOffset dx="0" dy="1" in="SourceAlpha" result="shadowOffsetOuter1"></feOffset>
            <feGaussianBlur stdDeviation="2" in="shadowOffsetOuter1" result="shadowBlurOuter1"></feGaussianBlur>
            <feComposite in="shadowBlurOuter1" in2="SourceAlpha" operator="out" result="shadowBlurOuter1"></feComposite>
            <feColorMatrix values="0 0 0 0 0.25869511   0 0 0 0 0.461476445   0 0 0 0 0.570764243  0 0 0 0.0998358243 0" type="matrix" in="shadowBlurOuter1"></feColorMatrix>
        </filter>
        <rect id="path-3" x="0" y="19" width="300" height="40" rx="8"></rect>
        <filter x="-2.2%" y="-13.8%" width="104.3%" height="132.5%" filterUnits="objectBoundingBox" id="filter-4">
            <feOffset dx="0" dy="1" in="SourceAlpha" result="shadowOffsetOuter1"></feOffset>
            <feGaussianBlur stdDeviation="2" in="shadowOffsetOuter1" result="shadowBlurOuter1"></feGaussianBlur>
            <feComposite in="shadowBlurOuter1" in2="SourceAlpha" operator="out" result="shadowBlurOuter1"></feComposite>
            <feColorMatrix values="0 0 0 0 0.25869511   0 0 0 0 0.461476445   0 0 0 0 0.570764243  0 0 0 0.0998358243 0" type="matrix" in="shadowBlurOuter1"></feColorMatrix>
        </filter>
        <rect id="path-5" x="0" y="19" width="300" height="40" rx="8"></rect>
        <filter x="-2.2%" y="-13.8%" width="104.3%" height="132.5%" filterUnits="objectBoundingBox" id="filter-6">
            <feOffset dx="0" dy="1" in="SourceAlpha" result="shadowOffsetOuter1"></feOffset>
            <feGaussianBlur stdDeviation="2" in="shadowOffsetOuter1" result="shadowBlurOuter1"></feGaussianBlur>
            <feComposite in="shadowBlurOuter1" in2="SourceAlpha" operator="out" result="shadowBlurOuter1"></feComposite>
            <feColorMatrix values="0 0 0 0 0.25869511   0 0 0 0 0.461476445   0 0 0 0 0.570764243  0 0 0 0.0998358243 0" type="matrix" in="shadowBlurOuter1"></feColorMatrix>
        </filter>
    </defs>
    <g id="Home-Revamp" stroke="none" stroke-width="1" fill="none" fill-rule="evenodd">
        <g id="Home-1.0" transform="translate(-353.000000, -789.000000)">
            <g id="home-howitworks-build" transform="translate(353.767045, 788.400000)">
                <g id="Group-12">
                    <rect id="Rectangle-Copy" fill-opacity="0.0411931818" fill="#4E82EE" x="0" y="0.7" width="328" height="206" rx="21"></rect>
                    <g id="Group-14" transform="translate(16.232955, 15.500000)">
                        <g id="Group-8">
                            <g id="Rectangle">
                                <use fill="black" fill-opacity="1" filter="url(#filter-2)" xlink:href="#path-1"></use>
                                <rect stroke="#DBE8FB" stroke-width="1" stroke-linejoin="square" fill="#FFFFFF" fill-rule="evenodd" x="0.5" y="19.5" width="299" height="39" rx="8"></rect>
                            </g>
                            <path d="M273.2,34.2666667 L281,34.2666667 C281.883656,34.2666667 282.6,34.9830111 282.6,35.8666667 C282.6,36.212859 282.487715,36.5497128 282.28,36.8266667 L278.38,42.0266667 C277.849807,42.7335911 276.846924,42.87686 276.14,42.3466667 C276.018711,42.2556999 275.910967,42.1479557 275.82,42.0266667 L271.92,36.8266667 C271.389807,36.1197422 271.533076,35.11686 272.24,34.5866667 C272.516954,34.3789513 272.853808,34.2666667 273.2,34.2666667 Z" id="Rectangle-6-Copy" fill="#CBE3F9"></path>
                            <g id="Group-6" transform="translate(16.500000, 31.000000)" stroke="#7A68E8">
                                <line x1="1.66153846" y1="2.20673077" x2="1.66153846" y2="12.89555" id="Path-2" stroke-width="1.8" stroke-linecap="round" stroke-linejoin="round"></line>
                                <path d="M1.66153846,9.18574109 C6.83239183,9.10725308 9.41781851,7.30788629 9.41781851,3.78764071" id="Line" stroke-width="1.8" stroke-linecap="round" stroke-linejoin="round"></path>
                                <ellipse id="Oval" stroke-width="0.9" fill="#7A68E8" cx="1.66153846" cy="1.62101313" rx="1.66153846" ry="1.62101313"></ellipse>
                                <ellipse id="Oval-Copy-2" stroke-width="0.9" fill="#7A68E8" cx="1.66153846" cy="14.2303002" rx="1.66153846" ry="1.62101313"></ellipse>
                                <ellipse id="Oval-Copy" stroke-width="0.9" fill="#7A68E8" cx="9.41781851" cy="1.62101313" rx="1.66153846" ry="1.62101313"></ellipse>
                            </g>
                            <path d="M51.724,43.078 C51.9666667,43.078 52.1638333,43.0108333 52.3155,42.8765 C52.4671667,42.7421667 52.543,42.5493333 52.543,42.298 L52.543,42.298 L52.543,39.1 C52.543,38.1813333 52.3588333,37.5161667 51.9905,37.1045 C51.6221667,36.6928333 51.0913333,36.487 50.398,36.487 C49.93,36.487 49.5096667,36.5953333 49.137,36.812 C48.7643333,37.0286667 48.4826667,37.319 48.292,37.683 C47.9713333,36.8856667 47.3343333,36.487 46.381,36.487 C45.9476667,36.487 45.5641667,36.578 45.2305,36.76 C44.8968333,36.942 44.6303333,37.2063333 44.431,37.553 L44.431,37.553 L44.431,37.241 C44.431,37.007 44.3595,36.8271667 44.2165,36.7015 C44.0735,36.5758333 43.8893333,36.513 43.664,36.513 C43.43,36.513 43.235,36.578 43.079,36.708 C42.923,36.838 42.845,37.0243333 42.845,37.267 L42.845,37.267 L42.845,42.298 C42.845,42.5493333 42.9208333,42.7421667 43.0725,42.8765 C43.2241667,43.0108333 43.417,43.078 43.651,43.078 C43.885,43.078 44.08,43.0108333 44.236,42.8765 C44.392,42.7421667 44.47,42.5493333 44.47,42.298 L44.47,42.298 L44.47,39.399 C44.47,38.8963333 44.5935,38.4998333 44.8405,38.2095 C45.0875,37.9191667 45.4233333,37.774 45.848,37.774 C46.1946667,37.774 46.4525,37.8758333 46.6215,38.0795 C46.7905,38.2831667 46.875,38.6233333 46.875,39.1 L46.875,39.1 L46.875,42.298 C46.875,42.5493333 46.953,42.7421667 47.109,42.8765 C47.265,43.0108333 47.46,43.078 47.694,43.078 C47.928,43.078 48.1208333,43.0108333 48.2725,42.8765 C48.4241667,42.7421667 48.5,42.5493333 48.5,42.298 L48.5,42.298 L48.5,39.399 C48.5,38.8963333 48.6256667,38.4998333 48.877,38.2095 C49.1283333,37.9191667 49.4663333,37.774 49.891,37.774 C50.2376667,37.774 50.4955,37.8758333 50.6645,38.0795 C50.8335,38.2831667 50.918,38.6233333 50.918,39.1 L50.918,39.1 L50.918,42.298 C50.918,42.5493333 50.9938333,42.7421667 51.1455,42.8765 C51.2971667,43.0108333 51.49,43.078 51.724,43.078 Z M56.222,43.104 C56.638,43.104 57.0041667,43.0086667 57.3205,42.818 C57.6368333,42.6273333 57.8686667,42.363 58.016,42.025 L58.016,42.025 L58.016,42.311 C58.016,42.5363333 58.0875,42.7183333 58.2305,42.857 C58.3735,42.9956667 58.5576667,43.065 58.783,43.065 C59.0256667,43.065 59.2163333,42.9978333 59.355,42.8635 C59.4936667,42.7291667 59.563,42.545 59.563,42.311 L59.563,42.311 L59.563,39.139 C59.563,38.2463333 59.3485,37.5811667 58.9195,37.1435 C58.4905,36.7058333 57.834,36.487 56.95,36.487 C56.5426667,36.487 56.1288333,36.5346667 55.7085,36.63 C55.2881667,36.7253333 54.9263333,36.8553333 54.623,37.02 C54.4496667,37.1153333 54.3261667,37.2171667 54.2525,37.3255 C54.1788333,37.4338333 54.142,37.5616667 54.142,37.709 C54.142,37.891 54.1918333,38.0383333 54.2915,38.151 C54.3911667,38.2636667 54.519,38.32 54.675,38.32 C54.779,38.32 54.9436667,38.2636667 55.169,38.151 C55.5243333,38.0123333 55.832,37.9061667 56.092,37.8325 C56.352,37.7588333 56.6076667,37.722 56.859,37.722 C57.2663333,37.722 57.561,37.8195 57.743,38.0145 C57.925,38.2095 58.016,38.5193333 58.016,38.944 L58.016,38.944 L58.016,39.243 L57.691,39.243 C56.7463333,39.243 56.0053333,39.3036667 55.468,39.425 C54.9306667,39.5463333 54.5428333,39.7413333 54.3045,40.01 C54.0661667,40.2786667 53.947,40.647 53.947,41.115 C53.947,41.4876667 54.0466667,41.8256667 54.246,42.129 C54.4453333,42.4323333 54.7183333,42.6706667 55.065,42.844 C55.4116667,43.0173333 55.7973333,43.104 56.222,43.104 Z M56.547,41.934 C56.261,41.934 56.0205,41.8451667 55.8255,41.6675 C55.6305,41.4898333 55.533,41.2623333 55.533,40.985 C55.533,40.7596667 55.6023333,40.582 55.741,40.452 C55.8796667,40.322 56.1093333,40.231 56.43,40.179 C56.7506667,40.127 57.2013333,40.101 57.782,40.101 L57.782,40.101 L58.016,40.101 L58.016,40.374 C58.016,40.8333333 57.8795,41.2081667 57.6065,41.4985 C57.3335,41.7888333 56.9803333,41.934 56.547,41.934 Z M63.515,43.104 C64.3296667,43.104 64.9818333,42.9263333 65.4715,42.571 C65.9611667,42.2156667 66.206,41.7433333 66.206,41.154 C66.206,40.79 66.1345,40.491 65.9915,40.257 C65.8485,40.023 65.6123333,39.828 65.283,39.672 C64.9536667,39.516 64.4986667,39.3773333 63.918,39.256 C63.372,39.1433333 63.0036667,39.0306667 62.813,38.918 C62.6223333,38.8053333 62.527,38.6406667 62.527,38.424 C62.527,38.1986667 62.6201667,38.021 62.8065,37.891 C62.9928333,37.761 63.2463333,37.696 63.567,37.696 C63.8356667,37.696 64.061,37.7285 64.243,37.7935 C64.425,37.8585 64.6416667,37.956 64.893,38.086 C65.0316667,38.164 65.1465,38.2225 65.2375,38.2615 C65.3285,38.3005 65.4216667,38.32 65.517,38.32 C65.6556667,38.32 65.7726667,38.2615 65.868,38.1445 C65.9633333,38.0275 66.011,37.8823333 66.011,37.709 C66.011,37.423 65.8723333,37.1933333 65.595,37.02 C65.3263333,36.8466667 65.023,36.7145 64.685,36.6235 C64.347,36.5325 63.996,36.487 63.632,36.487 C63.1293333,36.487 62.6808333,36.5715 62.2865,36.7405 C61.8921667,36.9095 61.5823333,37.1478333 61.357,37.4555 C61.1316667,37.7631667 61.019,38.1076667 61.019,38.489 C61.019,38.9916667 61.1858333,39.386 61.5195,39.672 C61.8531667,39.958 62.4056667,40.179 63.177,40.335 C63.6103333,40.4303333 63.9331667,40.5148333 64.1455,40.5885 C64.3578333,40.6621667 64.5051667,40.7423333 64.5875,40.829 C64.6698333,40.9156667 64.711,41.0326667 64.711,41.18 C64.711,41.3966667 64.6091667,41.5656667 64.4055,41.687 C64.2018333,41.8083333 63.918,41.869 63.554,41.869 C63.1986667,41.869 62.9061667,41.8343333 62.6765,41.765 C62.4468333,41.6956667 62.1933333,41.596 61.916,41.466 C61.656,41.3273333 61.4523333,41.258 61.305,41.258 C61.1663333,41.258 61.0493333,41.3121667 60.954,41.4205 C60.8586667,41.5288333 60.811,41.6696667 60.811,41.843 C60.811,42.1463333 60.9496667,42.3803333 61.227,42.545 C61.8076667,42.9176667 62.5703333,43.104 63.515,43.104 Z M70.496,43.065 C70.808,43.0823333 71.0485,43.0368333 71.2175,42.9285 C71.3865,42.8201667 71.471,42.662 71.471,42.454 C71.471,42.09 71.2543333,41.895 70.821,41.869 L70.821,41.869 L70.47,41.843 C69.8806667,41.7996667 69.586,41.4573333 69.586,40.816 L69.586,40.816 L69.586,37.865 L70.691,37.865 C70.925,37.865 71.1048333,37.813 71.2305,37.709 C71.3561667,37.605 71.419,37.4533333 71.419,37.254 C71.419,37.0546667 71.3561667,36.903 71.2305,36.799 C71.1048333,36.695 70.925,36.643 70.691,36.643 L70.691,36.643 L69.586,36.643 L69.586,35.447 C69.586,35.213 69.5123333,35.0266667 69.365,34.888 C69.2176667,34.7493333 69.0226667,34.68 68.78,34.68 C68.5286667,34.68 68.3293333,34.7493333 68.182,34.888 C68.0346667,35.0266667 67.961,35.213 67.961,35.447 L67.961,35.447 L67.961,36.643 L67.311,36.643 C67.077,36.643 66.8971667,36.695 66.7715,36.799 C66.6458333,36.903 66.583,37.0546667 66.583,37.254 C66.583,37.4533333 66.6458333,37.605 66.7715,37.709 C66.8971667,37.813 67.077,37.865 67.311,37.865 L67.311,37.865 L67.961,37.865 L67.961,40.699 C67.961,42.155 68.689,42.935 70.145,43.039 L70.145,43.039 L70.496,43.065 Z M75.293,43.104 C75.631,43.104 75.9863333,43.0541667 76.359,42.9545 C76.7316667,42.8548333 77.0653333,42.7226667 77.36,42.558 C77.6806667,42.376 77.841,42.1506667 77.841,41.882 C77.841,41.6913333 77.7955,41.5396667 77.7045,41.427 C77.6135,41.3143333 77.4943333,41.258 77.347,41.258 C77.2256667,41.258 77.035,41.3273333 76.775,41.466 C76.5063333,41.5873333 76.2658333,41.6826667 76.0535,41.752 C75.8411667,41.8213333 75.5963333,41.856 75.319,41.856 C74.773,41.856 74.357,41.7151667 74.071,41.4335 C73.785,41.1518333 73.616,40.712 73.564,40.114 L73.564,40.114 L77.399,40.114 C77.7283333,40.114 77.893,39.9276667 77.893,39.555 C77.893,38.931 77.776,38.3893333 77.542,37.93 C77.308,37.4706667 76.9786667,37.1153333 76.554,36.864 C76.1293333,36.6126667 75.631,36.487 75.059,36.487 C74.461,36.487 73.9258333,36.6256667 73.4535,36.903 C72.9811667,37.1803333 72.615,37.5703333 72.355,38.073 C72.095,38.5756667 71.965,39.152 71.965,39.802 C71.965,40.8246667 72.264,41.6306667 72.862,42.22 C73.46,42.8093333 74.2703333,43.104 75.293,43.104 Z M76.502,39.243 L73.564,39.243 C73.616,38.723 73.7741667,38.3243333 74.0385,38.047 C74.3028333,37.7696667 74.656,37.631 75.098,37.631 C75.5313333,37.631 75.8693333,37.7675 76.112,38.0405 C76.3546667,38.3135 76.4846667,38.7143333 76.502,39.243 L76.502,39.243 Z M80.025,43.078 C80.259,43.078 80.454,43.0108333 80.61,42.8765 C80.766,42.7421667 80.844,42.5493333 80.844,42.298 L80.844,42.298 L80.844,39.568 C80.844,39.126 80.9631667,38.7576667 81.2015,38.463 C81.4398333,38.1683333 81.8146667,37.995 82.326,37.943 L82.326,37.943 L82.716,37.904 C83.0106667,37.8693333 83.2143333,37.7956667 83.327,37.683 C83.4396667,37.5703333 83.496,37.397 83.496,37.163 C83.496,36.9376667 83.431,36.7686667 83.301,36.656 C83.171,36.5433333 82.9933333,36.4956667 82.768,36.513 L82.768,36.513 L82.586,36.526 C82.1873333,36.552 81.8255,36.669 81.5005,36.877 C81.1755,37.085 80.9306667,37.3796667 80.766,37.761 L80.766,37.761 L80.766,37.241 C80.766,37.007 80.6966667,36.8271667 80.558,36.7015 C80.4193333,36.5758333 80.2373333,36.513 80.012,36.513 C79.7866667,36.513 79.5981667,36.578 79.4465,36.708 C79.2948333,36.838 79.219,37.0243333 79.219,37.267 L79.219,37.267 L79.219,42.298 C79.219,42.5493333 79.2948333,42.7421667 79.4465,42.8765 C79.5981667,43.0108333 79.791,43.078 80.025,43.078 Z" id="master" fill="#212121" fill-rule="nonzero"></path>
                            <path d="M4.752,9 C5.656,9 6.366,8.796 6.882,8.388 C7.398,7.98 7.656,7.416 7.656,6.696 C7.656,6.176 7.522,5.736 7.254,5.376 C6.986,5.016 6.608,4.768 6.12,4.632 C6.536,4.48 6.862,4.24 7.098,3.912 C7.334,3.584 7.452,3.196 7.452,2.748 C7.452,2.052 7.202,1.51 6.702,1.122 C6.202,0.734 5.512,0.54 4.632,0.54 L4.632,0.54 L1.656,0.54 C1.424,0.54 1.242,0.604 1.11,0.732 C0.978,0.86 0.912,1.04 0.912,1.272 L0.912,1.272 L0.912,8.268 C0.912,8.5 0.978,8.68 1.11,8.808 C1.242,8.936 1.424,9 1.656,9 L1.656,9 L4.752,9 Z M4.38,4.104 L2.424,4.104 L2.424,1.74 L4.38,1.74 C4.916,1.74 5.316,1.836 5.58,2.028 C5.844,2.22 5.976,2.516 5.976,2.916 C5.976,3.708 5.444,4.104 4.38,4.104 L4.38,4.104 Z M4.584,7.8 L2.424,7.8 L2.424,5.304 L4.584,5.304 C5.136,5.304 5.542,5.408 5.802,5.616 C6.062,5.824 6.192,6.14 6.192,6.564 C6.192,6.988 6.064,7.3 5.808,7.5 C5.552,7.7 5.144,7.8 4.584,7.8 L4.584,7.8 Z M9.72,9.072 C9.936,9.072 10.116,9.01 10.26,8.886 C10.404,8.762 10.476,8.584 10.476,8.352 L10.476,8.352 L10.476,5.832 C10.476,5.424 10.586,5.084 10.806,4.812 C11.026,4.54 11.372,4.38 11.844,4.332 L11.844,4.332 L12.204,4.296 C12.476,4.264 12.664,4.196 12.768,4.092 C12.872,3.988 12.924,3.828 12.924,3.612 C12.924,3.404 12.864,3.248 12.744,3.144 C12.624,3.04 12.46,2.996 12.252,3.012 L12.252,3.012 L12.084,3.024 C11.716,3.048 11.382,3.156 11.082,3.348 C10.782,3.54 10.556,3.812 10.404,4.164 L10.404,4.164 L10.404,3.684 C10.404,3.468 10.34,3.302 10.212,3.186 C10.084,3.07 9.916,3.012 9.708,3.012 C9.5,3.012 9.326,3.072 9.186,3.192 C9.046,3.312 8.976,3.484 8.976,3.708 L8.976,3.708 L8.976,8.352 C8.976,8.584 9.046,8.762 9.186,8.886 C9.326,9.01 9.504,9.072 9.72,9.072 Z M15.444,9.096 C15.828,9.096 16.166,9.008 16.458,8.832 C16.75,8.656 16.964,8.412 17.1,8.1 L17.1,8.1 L17.1,8.364 C17.1,8.572 17.166,8.74 17.298,8.868 C17.43,8.996 17.6,9.06 17.808,9.06 C18.032,9.06 18.208,8.998 18.336,8.874 C18.464,8.75 18.528,8.58 18.528,8.364 L18.528,8.364 L18.528,5.436 C18.528,4.612 18.33,3.998 17.934,3.594 C17.538,3.19 16.932,2.988 16.116,2.988 C15.74,2.988 15.358,3.032 14.97,3.12 C14.582,3.208 14.248,3.328 13.968,3.48 C13.808,3.568 13.694,3.662 13.626,3.762 C13.558,3.862 13.524,3.98 13.524,4.116 C13.524,4.284 13.57,4.42 13.662,4.524 C13.754,4.628 13.872,4.68 14.016,4.68 C14.112,4.68 14.264,4.628 14.472,4.524 C14.8,4.396 15.084,4.298 15.324,4.23 C15.564,4.162 15.8,4.128 16.032,4.128 C16.408,4.128 16.68,4.218 16.848,4.398 C17.016,4.578 17.1,4.864 17.1,5.256 L17.1,5.256 L17.1,5.532 L16.8,5.532 C15.928,5.532 15.244,5.588 14.748,5.7 C14.252,5.812 13.894,5.992 13.674,6.24 C13.454,6.488 13.344,6.828 13.344,7.26 C13.344,7.604 13.436,7.916 13.62,8.196 C13.804,8.476 14.056,8.696 14.376,8.856 C14.696,9.016 15.052,9.096 15.444,9.096 Z M15.744,8.016 C15.48,8.016 15.258,7.934 15.078,7.77 C14.898,7.606 14.808,7.396 14.808,7.14 C14.808,6.932 14.872,6.768 15,6.648 C15.128,6.528 15.34,6.444 15.636,6.396 C15.932,6.348 16.348,6.324 16.884,6.324 L16.884,6.324 L17.1,6.324 L17.1,6.576 C17.1,7 16.974,7.346 16.722,7.614 C16.47,7.882 16.144,8.016 15.744,8.016 Z M24.804,9.072 C25.036,9.072 25.218,9.008 25.35,8.88 C25.482,8.752 25.548,8.576 25.548,8.352 L25.548,8.352 L25.548,5.4 C25.548,4.592 25.376,3.988 25.032,3.588 C24.688,3.188 24.164,2.988 23.46,2.988 C23.036,2.988 22.656,3.076 22.32,3.252 C21.984,3.428 21.716,3.68 21.516,4.008 L21.516,4.008 L21.516,3.684 C21.516,3.484 21.45,3.322 21.318,3.198 C21.186,3.074 21.016,3.012 20.808,3.012 C20.576,3.012 20.392,3.076 20.256,3.204 C20.12,3.332 20.052,3.5 20.052,3.708 L20.052,3.708 L20.052,8.352 C20.052,8.576 20.118,8.752 20.25,8.88 C20.382,9.008 20.564,9.072 20.796,9.072 C21.028,9.072 21.212,9.008 21.348,8.88 C21.484,8.752 21.552,8.576 21.552,8.352 L21.552,8.352 L21.552,5.676 C21.552,5.22 21.682,4.856 21.942,4.584 C22.202,4.312 22.548,4.176 22.98,4.176 C23.348,4.176 23.618,4.28 23.79,4.488 C23.962,4.696 24.048,5.028 24.048,5.484 L24.048,5.484 L24.048,8.352 C24.048,8.576 24.116,8.752 24.252,8.88 C24.388,9.008 24.572,9.072 24.804,9.072 Z M29.676,9.096 C30.02,9.096 30.356,9.05 30.684,8.958 C31.012,8.866 31.3,8.74 31.548,8.58 C31.684,8.5 31.782,8.41 31.842,8.31 C31.902,8.21 31.932,8.092 31.932,7.956 C31.932,7.788 31.888,7.648 31.8,7.536 C31.712,7.424 31.604,7.368 31.476,7.368 C31.388,7.368 31.3,7.386 31.212,7.422 C31.124,7.458 31.02,7.512 30.9,7.584 C30.708,7.688 30.534,7.77 30.378,7.83 C30.222,7.89 30.044,7.92 29.844,7.92 C29.348,7.92 28.966,7.758 28.698,7.434 C28.43,7.11 28.296,6.648 28.296,6.048 C28.296,5.44 28.43,4.974 28.698,4.65 C28.966,4.326 29.348,4.164 29.844,4.164 C30.052,4.164 30.236,4.194 30.396,4.254 C30.556,4.314 30.724,4.396 30.9,4.5 C30.996,4.556 31.092,4.604 31.188,4.644 C31.284,4.684 31.376,4.704 31.464,4.704 C31.6,4.704 31.71,4.65 31.794,4.542 C31.878,4.434 31.92,4.292 31.92,4.116 C31.92,3.86 31.792,3.648 31.536,3.48 C31.296,3.328 31.018,3.208 30.702,3.12 C30.386,3.032 30.072,2.988 29.76,2.988 C29.168,2.988 28.644,3.116 28.188,3.372 C27.732,3.628 27.378,3.99 27.126,4.458 C26.874,4.926 26.748,5.464 26.748,6.072 C26.748,6.68 26.868,7.212 27.108,7.668 C27.348,8.124 27.69,8.476 28.134,8.724 C28.578,8.972 29.092,9.096 29.676,9.096 Z M37.68,9.072 C37.912,9.072 38.094,9.008 38.226,8.88 C38.358,8.752 38.424,8.576 38.424,8.352 L38.424,8.352 L38.424,5.4 C38.424,3.792 37.736,2.988 36.36,2.988 C35.936,2.988 35.558,3.07 35.226,3.234 C34.894,3.398 34.628,3.636 34.428,3.948 L34.428,3.948 L34.428,1.152 C34.428,0.944 34.36,0.78 34.224,0.66 C34.088,0.54 33.908,0.48 33.684,0.48 C33.46,0.48 33.278,0.544 33.138,0.672 C32.998,0.8 32.928,0.968 32.928,1.176 L32.928,1.176 L32.928,8.352 C32.928,8.576 32.994,8.752 33.126,8.88 C33.258,9.008 33.44,9.072 33.672,9.072 C33.904,9.072 34.088,9.008 34.224,8.88 C34.36,8.752 34.428,8.576 34.428,8.352 L34.428,8.352 L34.428,5.676 C34.428,5.22 34.558,4.856 34.818,4.584 C35.078,4.312 35.424,4.176 35.856,4.176 C36.224,4.176 36.494,4.274 36.666,4.47 C36.838,4.666 36.924,4.976 36.924,5.4 L36.924,5.4 L36.924,8.352 C36.924,8.576 36.992,8.752 37.128,8.88 C37.264,9.008 37.448,9.072 37.68,9.072 Z" id="Branch" fill="#98B4CD" fill-rule="nonzero"></path>
                        </g>
                        <g id="Group-8-Copy" transform="translate(0.000000, 74.000000)">
                            <g id="Rectangle">
                                <use fill="black" fill-opacity="1" filter="url(#filter-4)" xlink:href="#path-3"></use>
                                <rect stroke="#DBE8FB" stroke-width="1" stroke-linejoin="square" fill="#FFFFFF" fill-rule="evenodd" x="0.5" y="19.5" width="299" height="39" rx="8"></rect>
                            </g>
                            <path d="M20.993,44.078 C21.2443333,44.078 21.4415,44.0086667 21.5845,43.87 C21.7275,43.7313333 21.799,43.5406667 21.799,43.298 L21.799,43.298 L21.799,40.1 C21.799,39.2246667 21.6126667,38.5703333 21.24,38.137 C20.8673333,37.7036667 20.2996667,37.487 19.537,37.487 C19.0776667,37.487 18.666,37.5823333 18.302,37.773 C17.938,37.9636667 17.6476667,38.2366667 17.431,38.592 L17.431,38.592 L17.431,38.241 C17.431,38.0243333 17.3595,37.8488333 17.2165,37.7145 C17.0735,37.5801667 16.8893333,37.513 16.664,37.513 C16.4126667,37.513 16.2133333,37.5823333 16.066,37.721 C15.9186667,37.8596667 15.845,38.0416667 15.845,38.267 L15.845,38.267 L15.845,43.298 C15.845,43.5406667 15.9165,43.7313333 16.0595,43.87 C16.2025,44.0086667 16.3996667,44.078 16.651,44.078 C16.9023333,44.078 17.1016667,44.0086667 17.249,43.87 C17.3963333,43.7313333 17.47,43.5406667 17.47,43.298 L17.47,43.298 L17.47,40.399 C17.47,39.905 17.6108333,39.5106667 17.8925,39.216 C18.1741667,38.9213333 18.549,38.774 19.017,38.774 C19.4156667,38.774 19.7081667,38.8866667 19.8945,39.112 C20.0808333,39.3373333 20.174,39.697 20.174,40.191 L20.174,40.191 L20.174,43.298 C20.174,43.5406667 20.2476667,43.7313333 20.395,43.87 C20.5423333,44.0086667 20.7416667,44.078 20.993,44.078 Z M24.269,46.405 C24.5116667,46.405 24.7066667,46.34 24.854,46.21 C25.0013333,46.08 25.075,45.9023333 25.075,45.677 L25.075,45.677 L25.075,43.025 C25.2656667,43.363 25.5386667,43.6273333 25.894,43.818 C26.2493333,44.0086667 26.6523333,44.104 27.103,44.104 C27.6576667,44.104 28.1473333,43.9696667 28.572,43.701 C28.9966667,43.4323333 29.3281667,43.051 29.5665,42.557 C29.8048333,42.063 29.924,41.4866667 29.924,40.828 C29.924,40.1693333 29.8048333,39.5865 29.5665,39.0795 C29.3281667,38.5725 28.9945,38.1803333 28.5655,37.903 C28.1365,37.6256667 27.649,37.487 27.103,37.487 C26.6436667,37.487 26.2341667,37.5845 25.8745,37.7795 C25.5148333,37.9745 25.2396667,38.2496667 25.049,38.605 L25.049,38.605 L25.049,38.28 C25.049,38.046 24.9753333,37.8596667 24.828,37.721 C24.6806667,37.5823333 24.4856667,37.513 24.243,37.513 C24.0003333,37.513 23.8075,37.5823333 23.6645,37.721 C23.5215,37.8596667 23.45,38.046 23.45,38.28 L23.45,38.28 L23.45,45.651 C23.45,45.8763333 23.5258333,46.0583333 23.6775,46.197 C23.8291667,46.3356667 24.0263333,46.405 24.269,46.405 Z M26.674,42.843 C26.154,42.843 25.7531667,42.6653333 25.4715,42.31 C25.1898333,41.9546667 25.049,41.452 25.049,40.802 C25.049,40.1433333 25.1898333,39.6363333 25.4715,39.281 C25.7531667,38.9256667 26.154,38.748 26.674,38.748 C27.1853333,38.748 27.584,38.93 27.87,39.294 C28.156,39.658 28.299,40.1693333 28.299,40.828 C28.299,41.4693333 28.156,41.9655 27.87,42.3165 C27.584,42.6675 27.1853333,42.843 26.674,42.843 Z M40.142,44.078 C40.3846667,44.078 40.5818333,44.0108333 40.7335,43.8765 C40.8851667,43.7421667 40.961,43.5493333 40.961,43.298 L40.961,43.298 L40.961,40.1 C40.961,39.1813333 40.7768333,38.5161667 40.4085,38.1045 C40.0401667,37.6928333 39.5093333,37.487 38.816,37.487 C38.348,37.487 37.9276667,37.5953333 37.555,37.812 C37.1823333,38.0286667 36.9006667,38.319 36.71,38.683 C36.3893333,37.8856667 35.7523333,37.487 34.799,37.487 C34.3656667,37.487 33.9821667,37.578 33.6485,37.76 C33.3148333,37.942 33.0483333,38.2063333 32.849,38.553 L32.849,38.553 L32.849,38.241 C32.849,38.007 32.7775,37.8271667 32.6345,37.7015 C32.4915,37.5758333 32.3073333,37.513 32.082,37.513 C31.848,37.513 31.653,37.578 31.497,37.708 C31.341,37.838 31.263,38.0243333 31.263,38.267 L31.263,38.267 L31.263,43.298 C31.263,43.5493333 31.3388333,43.7421667 31.4905,43.8765 C31.6421667,44.0108333 31.835,44.078 32.069,44.078 C32.303,44.078 32.498,44.0108333 32.654,43.8765 C32.81,43.7421667 32.888,43.5493333 32.888,43.298 L32.888,43.298 L32.888,40.399 C32.888,39.8963333 33.0115,39.4998333 33.2585,39.2095 C33.5055,38.9191667 33.8413333,38.774 34.266,38.774 C34.6126667,38.774 34.8705,38.8758333 35.0395,39.0795 C35.2085,39.2831667 35.293,39.6233333 35.293,40.1 L35.293,40.1 L35.293,43.298 C35.293,43.5493333 35.371,43.7421667 35.527,43.8765 C35.683,44.0108333 35.878,44.078 36.112,44.078 C36.346,44.078 36.5388333,44.0108333 36.6905,43.8765 C36.8421667,43.7421667 36.918,43.5493333 36.918,43.298 L36.918,43.298 L36.918,40.399 C36.918,39.8963333 37.0436667,39.4998333 37.295,39.2095 C37.5463333,38.9191667 37.8843333,38.774 38.309,38.774 C38.6556667,38.774 38.9135,38.8758333 39.0825,39.0795 C39.2515,39.2831667 39.336,39.6233333 39.336,40.1 L39.336,40.1 L39.336,43.298 C39.336,43.5493333 39.4118333,43.7421667 39.5635,43.8765 C39.7151667,44.0108333 39.908,44.078 40.142,44.078 Z M46.941,36.356 C47.2356667,36.356 47.4696667,36.2758333 47.643,36.1155 C47.8163333,35.9551667 47.903,35.745 47.903,35.485 C47.903,35.225 47.8141667,35.017 47.6365,34.861 C47.4588333,34.705 47.227,34.627 46.941,34.627 C46.6463333,34.627 46.4123333,34.705 46.239,34.861 C46.0656667,35.017 45.979,35.225 45.979,35.485 C45.979,35.745 46.0656667,35.9551667 46.239,36.1155 C46.4123333,36.2758333 46.6463333,36.356 46.941,36.356 Z M46.941,44.078 C47.175,44.078 47.37,44.0108333 47.526,43.8765 C47.682,43.7421667 47.76,43.5493333 47.76,43.298 L47.76,43.298 L47.76,38.28 C47.76,38.0286667 47.682,37.838 47.526,37.708 C47.37,37.578 47.175,37.513 46.941,37.513 C46.707,37.513 46.5141667,37.578 46.3625,37.708 C46.2108333,37.838 46.135,38.0286667 46.135,38.28 L46.135,38.28 L46.135,43.298 C46.135,43.5493333 46.2108333,43.7421667 46.3625,43.8765 C46.5141667,44.0108333 46.707,44.078 46.941,44.078 Z M54.585,44.078 C54.8363333,44.078 55.0335,44.0086667 55.1765,43.87 C55.3195,43.7313333 55.391,43.5406667 55.391,43.298 L55.391,43.298 L55.391,40.1 C55.391,39.2246667 55.2046667,38.5703333 54.832,38.137 C54.4593333,37.7036667 53.8916667,37.487 53.129,37.487 C52.6696667,37.487 52.258,37.5823333 51.894,37.773 C51.53,37.9636667 51.2396667,38.2366667 51.023,38.592 L51.023,38.592 L51.023,38.241 C51.023,38.0243333 50.9515,37.8488333 50.8085,37.7145 C50.6655,37.5801667 50.4813333,37.513 50.256,37.513 C50.0046667,37.513 49.8053333,37.5823333 49.658,37.721 C49.5106667,37.8596667 49.437,38.0416667 49.437,38.267 L49.437,38.267 L49.437,43.298 C49.437,43.5406667 49.5085,43.7313333 49.6515,43.87 C49.7945,44.0086667 49.9916667,44.078 50.243,44.078 C50.4943333,44.078 50.6936667,44.0086667 50.841,43.87 C50.9883333,43.7313333 51.062,43.5406667 51.062,43.298 L51.062,43.298 L51.062,40.399 C51.062,39.905 51.2028333,39.5106667 51.4845,39.216 C51.7661667,38.9213333 52.141,38.774 52.609,38.774 C53.0076667,38.774 53.3001667,38.8866667 53.4865,39.112 C53.6728333,39.3373333 53.766,39.697 53.766,40.191 L53.766,40.191 L53.766,43.298 C53.766,43.5406667 53.8396667,43.7313333 53.987,43.87 C54.1343333,44.0086667 54.3336667,44.078 54.585,44.078 Z M59.343,44.104 C60.1576667,44.104 60.8098333,43.9263333 61.2995,43.571 C61.7891667,43.2156667 62.034,42.7433333 62.034,42.154 C62.034,41.79 61.9625,41.491 61.8195,41.257 C61.6765,41.023 61.4403333,40.828 61.111,40.672 C60.7816667,40.516 60.3266667,40.3773333 59.746,40.256 C59.2,40.1433333 58.8316667,40.0306667 58.641,39.918 C58.4503333,39.8053333 58.355,39.6406667 58.355,39.424 C58.355,39.1986667 58.4481667,39.021 58.6345,38.891 C58.8208333,38.761 59.0743333,38.696 59.395,38.696 C59.6636667,38.696 59.889,38.7285 60.071,38.7935 C60.253,38.8585 60.4696667,38.956 60.721,39.086 C60.8596667,39.164 60.9745,39.2225 61.0655,39.2615 C61.1565,39.3005 61.2496667,39.32 61.345,39.32 C61.4836667,39.32 61.6006667,39.2615 61.696,39.1445 C61.7913333,39.0275 61.839,38.8823333 61.839,38.709 C61.839,38.423 61.7003333,38.1933333 61.423,38.02 C61.1543333,37.8466667 60.851,37.7145 60.513,37.6235 C60.175,37.5325 59.824,37.487 59.46,37.487 C58.9573333,37.487 58.5088333,37.5715 58.1145,37.7405 C57.7201667,37.9095 57.4103333,38.1478333 57.185,38.4555 C56.9596667,38.7631667 56.847,39.1076667 56.847,39.489 C56.847,39.9916667 57.0138333,40.386 57.3475,40.672 C57.6811667,40.958 58.2336667,41.179 59.005,41.335 C59.4383333,41.4303333 59.7611667,41.5148333 59.9735,41.5885 C60.1858333,41.6621667 60.3331667,41.7423333 60.4155,41.829 C60.4978333,41.9156667 60.539,42.0326667 60.539,42.18 C60.539,42.3966667 60.4371667,42.5656667 60.2335,42.687 C60.0298333,42.8083333 59.746,42.869 59.382,42.869 C59.0266667,42.869 58.7341667,42.8343333 58.5045,42.765 C58.2748333,42.6956667 58.0213333,42.596 57.744,42.466 C57.484,42.3273333 57.2803333,42.258 57.133,42.258 C56.9943333,42.258 56.8773333,42.3121667 56.782,42.4205 C56.6866667,42.5288333 56.639,42.6696667 56.639,42.843 C56.639,43.1463333 56.7776667,43.3803333 57.055,43.545 C57.6356667,43.9176667 58.3983333,44.104 59.343,44.104 Z M66.324,44.065 C66.636,44.0823333 66.8765,44.0368333 67.0455,43.9285 C67.2145,43.8201667 67.299,43.662 67.299,43.454 C67.299,43.09 67.0823333,42.895 66.649,42.869 L66.649,42.869 L66.298,42.843 C65.7086667,42.7996667 65.414,42.4573333 65.414,41.816 L65.414,41.816 L65.414,38.865 L66.519,38.865 C66.753,38.865 66.9328333,38.813 67.0585,38.709 C67.1841667,38.605 67.247,38.4533333 67.247,38.254 C67.247,38.0546667 67.1841667,37.903 67.0585,37.799 C66.9328333,37.695 66.753,37.643 66.519,37.643 L66.519,37.643 L65.414,37.643 L65.414,36.447 C65.414,36.213 65.3403333,36.0266667 65.193,35.888 C65.0456667,35.7493333 64.8506667,35.68 64.608,35.68 C64.3566667,35.68 64.1573333,35.7493333 64.01,35.888 C63.8626667,36.0266667 63.789,36.213 63.789,36.447 L63.789,36.447 L63.789,37.643 L63.139,37.643 C62.905,37.643 62.7251667,37.695 62.5995,37.799 C62.4738333,37.903 62.411,38.0546667 62.411,38.254 C62.411,38.4533333 62.4738333,38.605 62.5995,38.709 C62.7251667,38.813 62.905,38.865 63.139,38.865 L63.139,38.865 L63.789,38.865 L63.789,41.699 C63.789,43.155 64.517,43.935 65.973,44.039 L65.973,44.039 L66.324,44.065 Z M70.172,44.104 C70.588,44.104 70.9541667,44.0086667 71.2705,43.818 C71.5868333,43.6273333 71.8186667,43.363 71.966,43.025 L71.966,43.025 L71.966,43.311 C71.966,43.5363333 72.0375,43.7183333 72.1805,43.857 C72.3235,43.9956667 72.5076667,44.065 72.733,44.065 C72.9756667,44.065 73.1663333,43.9978333 73.305,43.8635 C73.4436667,43.7291667 73.513,43.545 73.513,43.311 L73.513,43.311 L73.513,40.139 C73.513,39.2463333 73.2985,38.5811667 72.8695,38.1435 C72.4405,37.7058333 71.784,37.487 70.9,37.487 C70.4926667,37.487 70.0788333,37.5346667 69.6585,37.63 C69.2381667,37.7253333 68.8763333,37.8553333 68.573,38.02 C68.3996667,38.1153333 68.2761667,38.2171667 68.2025,38.3255 C68.1288333,38.4338333 68.092,38.5616667 68.092,38.709 C68.092,38.891 68.1418333,39.0383333 68.2415,39.151 C68.3411667,39.2636667 68.469,39.32 68.625,39.32 C68.729,39.32 68.8936667,39.2636667 69.119,39.151 C69.4743333,39.0123333 69.782,38.9061667 70.042,38.8325 C70.302,38.7588333 70.5576667,38.722 70.809,38.722 C71.2163333,38.722 71.511,38.8195 71.693,39.0145 C71.875,39.2095 71.966,39.5193333 71.966,39.944 L71.966,39.944 L71.966,40.243 L71.641,40.243 C70.6963333,40.243 69.9553333,40.3036667 69.418,40.425 C68.8806667,40.5463333 68.4928333,40.7413333 68.2545,41.01 C68.0161667,41.2786667 67.897,41.647 67.897,42.115 C67.897,42.4876667 67.9966667,42.8256667 68.196,43.129 C68.3953333,43.4323333 68.6683333,43.6706667 69.015,43.844 C69.3616667,44.0173333 69.7473333,44.104 70.172,44.104 Z M70.497,42.934 C70.211,42.934 69.9705,42.8451667 69.7755,42.6675 C69.5805,42.4898333 69.483,42.2623333 69.483,41.985 C69.483,41.7596667 69.5523333,41.582 69.691,41.452 C69.8296667,41.322 70.0593333,41.231 70.38,41.179 C70.7006667,41.127 71.1513333,41.101 71.732,41.101 L71.732,41.101 L71.966,41.101 L71.966,41.374 C71.966,41.8333333 71.8295,42.2081667 71.5565,42.4985 C71.2835,42.7888333 70.9303333,42.934 70.497,42.934 Z M75.97,44.078 C76.204,44.078 76.399,44.0108333 76.555,43.8765 C76.711,43.7421667 76.789,43.5493333 76.789,43.298 L76.789,43.298 L76.789,35.537 C76.789,35.2856667 76.711,35.095 76.555,34.965 C76.399,34.835 76.204,34.77 75.97,34.77 C75.736,34.77 75.5431667,34.835 75.3915,34.965 C75.2398333,35.095 75.164,35.2856667 75.164,35.537 L75.164,35.537 L75.164,43.298 C75.164,43.5493333 75.2398333,43.7421667 75.3915,43.8765 C75.5431667,44.0108333 75.736,44.078 75.97,44.078 Z M79.272,44.078 C79.506,44.078 79.701,44.0108333 79.857,43.8765 C80.013,43.7421667 80.091,43.5493333 80.091,43.298 L80.091,43.298 L80.091,35.537 C80.091,35.2856667 80.013,35.095 79.857,34.965 C79.701,34.835 79.506,34.77 79.272,34.77 C79.038,34.77 78.8451667,34.835 78.6935,34.965 C78.5418333,35.095 78.466,35.2856667 78.466,35.537 L78.466,35.537 L78.466,43.298 C78.466,43.5493333 78.5418333,43.7421667 78.6935,43.8765 C78.8451667,44.0108333 79.038,44.078 79.272,44.078 Z M92.558,44.104 C92.74,44.104 92.9003333,44.0368333 93.039,43.9025 C93.1776667,43.7681667 93.247,43.6143333 93.247,43.441 C93.247,43.2676667 93.1733333,43.1116667 93.026,42.973 L93.026,42.973 L91.83,41.803 C92.298,41.0056667 92.5753333,40.1043333 92.662,39.099 C92.688,38.8736667 92.636,38.6938333 92.506,38.5595 C92.376,38.4251667 92.2156667,38.358 92.025,38.358 C91.8516667,38.358 91.6956667,38.4165 91.557,38.5335 C91.4183333,38.6505 91.336,38.8173333 91.31,39.034 C91.2406667,39.7273333 91.0846667,40.334 90.842,40.854 L90.842,40.854 L89.022,39.073 C89.6026667,38.7176667 90.0295,38.3558333 90.3025,37.9875 C90.5755,37.6191667 90.712,37.201 90.712,36.733 C90.712,36.1263333 90.5061667,35.6431667 90.0945,35.2835 C89.6828333,34.9238333 89.1303333,34.744 88.437,34.744 C87.6916667,34.744 87.0871667,34.939 86.6235,35.329 C86.1598333,35.719 85.928,36.2433333 85.928,36.902 C85.928,37.2486667 86.0081667,37.5823333 86.1685,37.903 C86.3288333,38.2236667 86.5736667,38.553 86.903,38.891 C86.2356667,39.2723333 85.7438333,39.6796667 85.4275,40.113 C85.1111667,40.5463333 84.953,41.0403333 84.953,41.595 C84.953,42.089 85.0851667,42.5266667 85.3495,42.908 C85.6138333,43.2893333 85.9821667,43.584 86.4545,43.792 C86.9268333,44 87.4663333,44.104 88.073,44.104 C88.6103333,44.104 89.1303333,43.9978333 89.633,43.7855 C90.1356667,43.5731667 90.5906667,43.2676667 90.998,42.869 L90.998,42.869 L92.077,43.909 C92.2156667,44.039 92.376,44.104 92.558,44.104 Z M88.164,38.228 C87.8866667,37.942 87.6895,37.7015 87.5725,37.5065 C87.4555,37.3115 87.397,37.1056667 87.397,36.889 C87.397,36.577 87.4945,36.3278333 87.6895,36.1415 C87.8845,35.9551667 88.138,35.862 88.45,35.862 C88.736,35.862 88.9635,35.9486667 89.1325,36.122 C89.3015,36.2953333 89.386,36.5206667 89.386,36.798 C89.386,37.0666667 89.2928333,37.3093333 89.1065,37.526 C88.9201667,37.7426667 88.606,37.9766667 88.164,38.228 Z M88.151,42.843 C87.657,42.843 87.2648333,42.7238333 86.9745,42.4855 C86.6841667,42.2471667 86.539,41.9243333 86.539,41.517 C86.539,41.1616667 86.6365,40.8431667 86.8315,40.5615 C87.0265,40.2798333 87.345,40.009 87.787,39.749 L87.787,39.749 L90.088,41.985 C89.8106667,42.2623333 89.5073333,42.4746667 89.178,42.622 C88.8486667,42.7693333 88.5063333,42.843 88.151,42.843 Z M101.411,44.104 C101.593,44.104 101.753333,44.0368333 101.892,43.9025 C102.030667,43.7681667 102.1,43.6143333 102.1,43.441 C102.1,43.2676667 102.026333,43.1116667 101.879,42.973 L101.879,42.973 L100.683,41.803 C101.151,41.0056667 101.428333,40.1043333 101.515,39.099 C101.541,38.8736667 101.489,38.6938333 101.359,38.5595 C101.229,38.4251667 101.068667,38.358 100.878,38.358 C100.704667,38.358 100.548667,38.4165 100.41,38.5335 C100.271333,38.6505 100.189,38.8173333 100.163,39.034 C100.093667,39.7273333 99.9376667,40.334 99.695,40.854 L99.695,40.854 L97.875,39.073 C98.4556667,38.7176667 98.8825,38.3558333 99.1555,37.9875 C99.4285,37.6191667 99.565,37.201 99.565,36.733 C99.565,36.1263333 99.3591667,35.6431667 98.9475,35.2835 C98.5358333,34.9238333 97.9833333,34.744 97.29,34.744 C96.5446667,34.744 95.9401667,34.939 95.4765,35.329 C95.0128333,35.719 94.781,36.2433333 94.781,36.902 C94.781,37.2486667 94.8611667,37.5823333 95.0215,37.903 C95.1818333,38.2236667 95.4266667,38.553 95.756,38.891 C95.0886667,39.2723333 94.5968333,39.6796667 94.2805,40.113 C93.9641667,40.5463333 93.806,41.0403333 93.806,41.595 C93.806,42.089 93.9381667,42.5266667 94.2025,42.908 C94.4668333,43.2893333 94.8351667,43.584 95.3075,43.792 C95.7798333,44 96.3193333,44.104 96.926,44.104 C97.4633333,44.104 97.9833333,43.9978333 98.486,43.7855 C98.9886667,43.5731667 99.4436667,43.2676667 99.851,42.869 L99.851,42.869 L100.93,43.909 C101.068667,44.039 101.229,44.104 101.411,44.104 Z M97.017,38.228 C96.7396667,37.942 96.5425,37.7015 96.4255,37.5065 C96.3085,37.3115 96.25,37.1056667 96.25,36.889 C96.25,36.577 96.3475,36.3278333 96.5425,36.1415 C96.7375,35.9551667 96.991,35.862 97.303,35.862 C97.589,35.862 97.8165,35.9486667 97.9855,36.122 C98.1545,36.2953333 98.239,36.5206667 98.239,36.798 C98.239,37.0666667 98.1458333,37.3093333 97.9595,37.526 C97.7731667,37.7426667 97.459,37.9766667 97.017,38.228 Z M97.004,42.843 C96.51,42.843 96.1178333,42.7238333 95.8275,42.4855 C95.5371667,42.2471667 95.392,41.9243333 95.392,41.517 C95.392,41.1616667 95.4895,40.8431667 95.6845,40.5615 C95.8795,40.2798333 96.198,40.009 96.64,39.749 L96.64,39.749 L98.941,41.985 C98.6636667,42.2623333 98.3603333,42.4746667 98.031,42.622 C97.7016667,42.7693333 97.3593333,42.843 97.004,42.843 Z M111.668,44.078 C111.919333,44.078 112.1165,44.0086667 112.2595,43.87 C112.4025,43.7313333 112.474,43.5406667 112.474,43.298 L112.474,43.298 L112.474,40.1 C112.474,39.2246667 112.287667,38.5703333 111.915,38.137 C111.542333,37.7036667 110.974667,37.487 110.212,37.487 C109.752667,37.487 109.341,37.5823333 108.977,37.773 C108.613,37.9636667 108.322667,38.2366667 108.106,38.592 L108.106,38.592 L108.106,38.241 C108.106,38.0243333 108.0345,37.8488333 107.8915,37.7145 C107.7485,37.5801667 107.564333,37.513 107.339,37.513 C107.087667,37.513 106.888333,37.5823333 106.741,37.721 C106.593667,37.8596667 106.52,38.0416667 106.52,38.267 L106.52,38.267 L106.52,43.298 C106.52,43.5406667 106.5915,43.7313333 106.7345,43.87 C106.8775,44.0086667 107.074667,44.078 107.326,44.078 C107.577333,44.078 107.776667,44.0086667 107.924,43.87 C108.071333,43.7313333 108.145,43.5406667 108.145,43.298 L108.145,43.298 L108.145,40.399 C108.145,39.905 108.285833,39.5106667 108.5675,39.216 C108.849167,38.9213333 109.224,38.774 109.692,38.774 C110.090667,38.774 110.383167,38.8866667 110.5695,39.112 C110.755833,39.3373333 110.849,39.697 110.849,40.191 L110.849,40.191 L110.849,43.298 C110.849,43.5406667 110.922667,43.7313333 111.07,43.87 C111.217333,44.0086667 111.416667,44.078 111.668,44.078 Z M114.944,46.405 C115.186667,46.405 115.381667,46.34 115.529,46.21 C115.676333,46.08 115.75,45.9023333 115.75,45.677 L115.75,45.677 L115.75,43.025 C115.940667,43.363 116.213667,43.6273333 116.569,43.818 C116.924333,44.0086667 117.327333,44.104 117.778,44.104 C118.332667,44.104 118.822333,43.9696667 119.247,43.701 C119.671667,43.4323333 120.003167,43.051 120.2415,42.557 C120.479833,42.063 120.599,41.4866667 120.599,40.828 C120.599,40.1693333 120.479833,39.5865 120.2415,39.0795 C120.003167,38.5725 119.6695,38.1803333 119.2405,37.903 C118.8115,37.6256667 118.324,37.487 117.778,37.487 C117.318667,37.487 116.909167,37.5845 116.5495,37.7795 C116.189833,37.9745 115.914667,38.2496667 115.724,38.605 L115.724,38.605 L115.724,38.28 C115.724,38.046 115.650333,37.8596667 115.503,37.721 C115.355667,37.5823333 115.160667,37.513 114.918,37.513 C114.675333,37.513 114.4825,37.5823333 114.3395,37.721 C114.1965,37.8596667 114.125,38.046 114.125,38.28 L114.125,38.28 L114.125,45.651 C114.125,45.8763333 114.200833,46.0583333 114.3525,46.197 C114.504167,46.3356667 114.701333,46.405 114.944,46.405 Z M117.349,42.843 C116.829,42.843 116.428167,42.6653333 116.1465,42.31 C115.864833,41.9546667 115.724,41.452 115.724,40.802 C115.724,40.1433333 115.864833,39.6363333 116.1465,39.281 C116.428167,38.9256667 116.829,38.748 117.349,38.748 C117.860333,38.748 118.259,38.93 118.545,39.294 C118.831,39.658 118.974,40.1693333 118.974,40.828 C118.974,41.4693333 118.831,41.9655 118.545,42.3165 C118.259,42.6675 117.860333,42.843 117.349,42.843 Z M130.817,44.078 C131.059667,44.078 131.256833,44.0108333 131.4085,43.8765 C131.560167,43.7421667 131.636,43.5493333 131.636,43.298 L131.636,43.298 L131.636,40.1 C131.636,39.1813333 131.451833,38.5161667 131.0835,38.1045 C130.715167,37.6928333 130.184333,37.487 129.491,37.487 C129.023,37.487 128.602667,37.5953333 128.23,37.812 C127.857333,38.0286667 127.575667,38.319 127.385,38.683 C127.064333,37.8856667 126.427333,37.487 125.474,37.487 C125.040667,37.487 124.657167,37.578 124.3235,37.76 C123.989833,37.942 123.723333,38.2063333 123.524,38.553 L123.524,38.553 L123.524,38.241 C123.524,38.007 123.4525,37.8271667 123.3095,37.7015 C123.1665,37.5758333 122.982333,37.513 122.757,37.513 C122.523,37.513 122.328,37.578 122.172,37.708 C122.016,37.838 121.938,38.0243333 121.938,38.267 L121.938,38.267 L121.938,43.298 C121.938,43.5493333 122.013833,43.7421667 122.1655,43.8765 C122.317167,44.0108333 122.51,44.078 122.744,44.078 C122.978,44.078 123.173,44.0108333 123.329,43.8765 C123.485,43.7421667 123.563,43.5493333 123.563,43.298 L123.563,43.298 L123.563,40.399 C123.563,39.8963333 123.6865,39.4998333 123.9335,39.2095 C124.1805,38.9191667 124.516333,38.774 124.941,38.774 C125.287667,38.774 125.5455,38.8758333 125.7145,39.0795 C125.8835,39.2831667 125.968,39.6233333 125.968,40.1 L125.968,40.1 L125.968,43.298 C125.968,43.5493333 126.046,43.7421667 126.202,43.8765 C126.358,44.0108333 126.553,44.078 126.787,44.078 C127.021,44.078 127.213833,44.0108333 127.3655,43.8765 C127.517167,43.7421667 127.593,43.5493333 127.593,43.298 L127.593,43.298 L127.593,40.399 C127.593,39.8963333 127.718667,39.4998333 127.97,39.2095 C128.221333,38.9191667 128.559333,38.774 128.984,38.774 C129.330667,38.774 129.5885,38.8758333 129.7575,39.0795 C129.9265,39.2831667 130.011,39.6233333 130.011,40.1 L130.011,40.1 L130.011,43.298 C130.011,43.5493333 130.086833,43.7421667 130.2385,43.8765 C130.390167,44.0108333 130.583,44.078 130.817,44.078 Z M137.616,44.078 C137.85,44.078 138.045,44.0108333 138.201,43.8765 C138.357,43.7421667 138.435,43.5493333 138.435,43.298 L138.435,43.298 L138.435,40.568 C138.435,40.126 138.554167,39.7576667 138.7925,39.463 C139.030833,39.1683333 139.405667,38.995 139.917,38.943 L139.917,38.943 L140.307,38.904 C140.601667,38.8693333 140.805333,38.7956667 140.918,38.683 C141.030667,38.5703333 141.087,38.397 141.087,38.163 C141.087,37.9376667 141.022,37.7686667 140.892,37.656 C140.762,37.5433333 140.584333,37.4956667 140.359,37.513 L140.359,37.513 L140.177,37.526 C139.778333,37.552 139.4165,37.669 139.0915,37.877 C138.7665,38.085 138.521667,38.3796667 138.357,38.761 L138.357,38.761 L138.357,38.241 C138.357,38.007 138.287667,37.8271667 138.149,37.7015 C138.010333,37.5758333 137.828333,37.513 137.603,37.513 C137.377667,37.513 137.189167,37.578 137.0375,37.708 C136.885833,37.838 136.81,38.0243333 136.81,38.267 L136.81,38.267 L136.81,43.298 C136.81,43.5493333 136.885833,43.7421667 137.0375,43.8765 C137.189167,44.0108333 137.382,44.078 137.616,44.078 Z M144.09,44.104 C144.514667,44.104 144.896,44.0108333 145.234,43.8245 C145.572,43.6381667 145.840667,43.3716667 146.04,43.025 L146.04,43.025 L146.04,43.35 C146.04,43.5753333 146.109333,43.753 146.248,43.883 C146.386667,44.013 146.573,44.078 146.807,44.078 C147.049667,44.078 147.246833,44.0086667 147.3985,43.87 C147.550167,43.7313333 147.626,43.5493333 147.626,43.324 L147.626,43.324 L147.626,38.28 C147.626,38.046 147.552333,37.8596667 147.405,37.721 C147.257667,37.5823333 147.058333,37.513 146.807,37.513 C146.564333,37.513 146.369333,37.5823333 146.222,37.721 C146.074667,37.8596667 146.001,38.046 146.001,38.28 L146.001,38.28 L146.001,41.179 C146.001,41.673 145.8645,42.0695 145.5915,42.3685 C145.3185,42.6675 144.956667,42.817 144.506,42.817 C144.116,42.817 143.83,42.7086667 143.648,42.492 C143.466,42.2753333 143.375,41.9416667 143.375,41.491 L143.375,41.491 L143.375,38.28 C143.375,38.046 143.301333,37.8596667 143.154,37.721 C143.006667,37.5823333 142.807333,37.513 142.556,37.513 C142.313333,37.513 142.118333,37.5823333 141.971,37.721 C141.823667,37.8596667 141.75,38.046 141.75,38.28 L141.75,38.28 L141.75,41.478 C141.75,43.2286667 142.53,44.104 144.09,44.104 Z M154.464,44.078 C154.715333,44.078 154.9125,44.0086667 155.0555,43.87 C155.1985,43.7313333 155.27,43.5406667 155.27,43.298 L155.27,43.298 L155.27,40.1 C155.27,39.2246667 155.083667,38.5703333 154.711,38.137 C154.338333,37.7036667 153.770667,37.487 153.008,37.487 C152.548667,37.487 152.137,37.5823333 151.773,37.773 C151.409,37.9636667 151.118667,38.2366667 150.902,38.592 L150.902,38.592 L150.902,38.241 C150.902,38.0243333 150.8305,37.8488333 150.6875,37.7145 C150.5445,37.5801667 150.360333,37.513 150.135,37.513 C149.883667,37.513 149.684333,37.5823333 149.537,37.721 C149.389667,37.8596667 149.316,38.0416667 149.316,38.267 L149.316,38.267 L149.316,43.298 C149.316,43.5406667 149.3875,43.7313333 149.5305,43.87 C149.6735,44.0086667 149.870667,44.078 150.122,44.078 C150.373333,44.078 150.572667,44.0086667 150.72,43.87 C150.867333,43.7313333 150.941,43.5406667 150.941,43.298 L150.941,43.298 L150.941,40.399 C150.941,39.905 151.081833,39.5106667 151.3635,39.216 C151.645167,38.9213333 152.02,38.774 152.488,38.774 C152.886667,38.774 153.179167,38.8866667 153.3655,39.112 C153.551833,39.3373333 153.645,39.697 153.645,40.191 L153.645,40.191 L153.645,43.298 C153.645,43.5406667 153.718667,43.7313333 153.866,43.87 C154.013333,44.0086667 154.212667,44.078 154.464,44.078 Z M164.097,44.104 C164.643,44.104 165.1305,43.9653333 165.5595,43.688 C165.9885,43.4106667 166.322167,43.0185 166.5605,42.5115 C166.798833,42.0045 166.918,41.4216667 166.918,40.763 C166.918,40.1043333 166.798833,39.528 166.5605,39.034 C166.322167,38.54 165.990667,38.1586667 165.566,37.89 C165.141333,37.6213333 164.651667,37.487 164.097,37.487 C163.646333,37.487 163.243333,37.5801667 162.888,37.7665 C162.532667,37.9528333 162.259667,38.2193333 162.069,38.566 L162.069,38.566 L162.069,35.498 C162.069,35.2726667 161.995333,35.095 161.848,34.965 C161.700667,34.835 161.505667,34.77 161.263,34.77 C161.020333,34.77 160.823167,34.8393333 160.6715,34.978 C160.519833,35.1166667 160.444,35.2986667 160.444,35.524 L160.444,35.524 L160.444,43.298 C160.444,43.532 160.5155,43.7183333 160.6585,43.857 C160.8015,43.9956667 160.994333,44.065 161.237,44.065 C161.479667,44.065 161.674667,43.9956667 161.822,43.857 C161.969333,43.7183333 162.043,43.532 162.043,43.298 L162.043,43.298 L162.043,42.973 C162.233667,43.3283333 162.508833,43.6056667 162.8685,43.805 C163.228167,44.0043333 163.637667,44.104 164.097,44.104 Z M163.668,42.843 C163.148,42.843 162.747167,42.6653333 162.4655,42.31 C162.183833,41.9546667 162.043,41.4476667 162.043,40.789 C162.043,40.1303333 162.183833,39.6255 162.4655,39.2745 C162.747167,38.9235 163.148,38.748 163.668,38.748 C164.188,38.748 164.588833,38.9213333 164.8705,39.268 C165.152167,39.6146667 165.293,40.113 165.293,40.763 C165.293,41.4216667 165.15,41.933 164.864,42.297 C164.578,42.661 164.179333,42.843 163.668,42.843 Z M170.558,44.104 C170.982667,44.104 171.364,44.0108333 171.702,43.8245 C172.04,43.6381667 172.308667,43.3716667 172.508,43.025 L172.508,43.025 L172.508,43.35 C172.508,43.5753333 172.577333,43.753 172.716,43.883 C172.854667,44.013 173.041,44.078 173.275,44.078 C173.517667,44.078 173.714833,44.0086667 173.8665,43.87 C174.018167,43.7313333 174.094,43.5493333 174.094,43.324 L174.094,43.324 L174.094,38.28 C174.094,38.046 174.020333,37.8596667 173.873,37.721 C173.725667,37.5823333 173.526333,37.513 173.275,37.513 C173.032333,37.513 172.837333,37.5823333 172.69,37.721 C172.542667,37.8596667 172.469,38.046 172.469,38.28 L172.469,38.28 L172.469,41.179 C172.469,41.673 172.3325,42.0695 172.0595,42.3685 C171.7865,42.6675 171.424667,42.817 170.974,42.817 C170.584,42.817 170.298,42.7086667 170.116,42.492 C169.934,42.2753333 169.843,41.9416667 169.843,41.491 L169.843,41.491 L169.843,38.28 C169.843,38.046 169.769333,37.8596667 169.622,37.721 C169.474667,37.5823333 169.275333,37.513 169.024,37.513 C168.781333,37.513 168.586333,37.5823333 168.439,37.721 C168.291667,37.8596667 168.218,38.046 168.218,38.28 L168.218,38.28 L168.218,41.478 C168.218,43.2286667 168.998,44.104 170.558,44.104 Z M176.59,36.356 C176.884667,36.356 177.118667,36.2758333 177.292,36.1155 C177.465333,35.9551667 177.552,35.745 177.552,35.485 C177.552,35.225 177.463167,35.017 177.2855,34.861 C177.107833,34.705 176.876,34.627 176.59,34.627 C176.295333,34.627 176.061333,34.705 175.888,34.861 C175.714667,35.017 175.628,35.225 175.628,35.485 C175.628,35.745 175.714667,35.9551667 175.888,36.1155 C176.061333,36.2758333 176.295333,36.356 176.59,36.356 Z M176.59,44.078 C176.824,44.078 177.019,44.0108333 177.175,43.8765 C177.331,43.7421667 177.409,43.5493333 177.409,43.298 L177.409,43.298 L177.409,38.28 C177.409,38.0286667 177.331,37.838 177.175,37.708 C177.019,37.578 176.824,37.513 176.59,37.513 C176.356,37.513 176.163167,37.578 176.0115,37.708 C175.859833,37.838 175.784,38.0286667 175.784,38.28 L175.784,38.28 L175.784,43.298 C175.784,43.5493333 175.859833,43.7421667 176.0115,43.8765 C176.163167,44.0108333 176.356,44.078 176.59,44.078 Z M179.892,44.078 C180.126,44.078 180.321,44.0108333 180.477,43.8765 C180.633,43.7421667 180.711,43.5493333 180.711,43.298 L180.711,43.298 L180.711,35.537 C180.711,35.2856667 180.633,35.095 180.477,34.965 C180.321,34.835 180.126,34.77 179.892,34.77 C179.658,34.77 179.465167,34.835 179.3135,34.965 C179.161833,35.095 179.086,35.2856667 179.086,35.537 L179.086,35.537 L179.086,43.298 C179.086,43.5493333 179.161833,43.7421667 179.3135,43.8765 C179.465167,44.0108333 179.658,44.078 179.892,44.078 Z M184.858,44.104 C185.317333,44.104 185.726833,44.0043333 186.0865,43.805 C186.446167,43.6056667 186.721333,43.3283333 186.912,42.973 L186.912,42.973 L186.912,43.298 C186.912,43.532 186.985667,43.7183333 187.133,43.857 C187.280333,43.9956667 187.475333,44.065 187.718,44.065 C187.960667,44.065 188.155667,43.9956667 188.303,43.857 C188.450333,43.7183333 188.524,43.532 188.524,43.298 L188.524,43.298 L188.524,35.524 C188.524,35.2986667 188.446,35.1166667 188.29,34.978 C188.134,34.8393333 187.934667,34.77 187.692,34.77 C187.449333,34.77 187.2565,34.8371667 187.1135,34.9715 C186.9705,35.1058333 186.899,35.2813333 186.899,35.498 L186.899,35.498 L186.899,38.579 C186.708333,38.2323333 186.435333,37.9636667 186.08,37.773 C185.724667,37.5823333 185.317333,37.487 184.858,37.487 C184.303333,37.487 183.813667,37.6213333 183.389,37.89 C182.964333,38.1586667 182.632833,38.54 182.3945,39.034 C182.156167,39.528 182.037,40.1043333 182.037,40.763 C182.037,41.4216667 182.156167,42.0045 182.3945,42.5115 C182.632833,43.0185 182.9665,43.4106667 183.3955,43.688 C183.8245,43.9653333 184.312,44.104 184.858,44.104 Z M185.287,42.843 C184.775667,42.843 184.377,42.661 184.091,42.297 C183.805,41.933 183.662,41.4216667 183.662,40.763 C183.662,40.113 183.805,39.6146667 184.091,39.268 C184.377,38.9213333 184.78,38.748 185.3,38.748 C185.811333,38.748 186.207833,38.9235 186.4895,39.2745 C186.771167,39.6255 186.912,40.1303333 186.912,40.789 C186.912,41.4476667 186.771167,41.9546667 186.4895,42.31 C186.207833,42.6653333 185.807,42.843 185.287,42.843 Z" id="npminstall&amp;&amp;npmrunbuild" fill="#212121" fill-rule="nonzero"></path>
                            <path d="M4.752,9 C5.656,9 6.366,8.796 6.882,8.388 C7.398,7.98 7.656,7.416 7.656,6.696 C7.656,6.176 7.522,5.736 7.254,5.376 C6.986,5.016 6.608,4.768 6.12,4.632 C6.536,4.48 6.862,4.24 7.098,3.912 C7.334,3.584 7.452,3.196 7.452,2.748 C7.452,2.052 7.202,1.51 6.702,1.122 C6.202,0.734 5.512,0.54 4.632,0.54 L4.632,0.54 L1.656,0.54 C1.424,0.54 1.242,0.604 1.11,0.732 C0.978,0.86 0.912,1.04 0.912,1.272 L0.912,1.272 L0.912,8.268 C0.912,8.5 0.978,8.68 1.11,8.808 C1.242,8.936 1.424,9 1.656,9 L1.656,9 L4.752,9 Z M4.38,4.104 L2.424,4.104 L2.424,1.74 L4.38,1.74 C4.916,1.74 5.316,1.836 5.58,2.028 C5.844,2.22 5.976,2.516 5.976,2.916 C5.976,3.708 5.444,4.104 4.38,4.104 L4.38,4.104 Z M4.584,7.8 L2.424,7.8 L2.424,5.304 L4.584,5.304 C5.136,5.304 5.542,5.408 5.802,5.616 C6.062,5.824 6.192,6.14 6.192,6.564 C6.192,6.988 6.064,7.3 5.808,7.5 C5.552,7.7 5.144,7.8 4.584,7.8 L4.584,7.8 Z M11.1,9.096 C11.492,9.096 11.844,9.01 12.156,8.838 C12.468,8.666 12.716,8.42 12.9,8.1 L12.9,8.1 L12.9,8.4 C12.9,8.608 12.964,8.772 13.092,8.892 C13.22,9.012 13.392,9.072 13.608,9.072 C13.832,9.072 14.014,9.008 14.154,8.88 C14.294,8.752 14.364,8.584 14.364,8.376 L14.364,8.376 L14.364,3.72 C14.364,3.504 14.296,3.332 14.16,3.204 C14.024,3.076 13.84,3.012 13.608,3.012 C13.384,3.012 13.204,3.076 13.068,3.204 C12.932,3.332 12.864,3.504 12.864,3.72 L12.864,3.72 L12.864,6.396 C12.864,6.852 12.738,7.218 12.486,7.494 C12.234,7.77 11.9,7.908 11.484,7.908 C11.124,7.908 10.86,7.808 10.692,7.608 C10.524,7.408 10.44,7.1 10.44,6.684 L10.44,6.684 L10.44,3.72 C10.44,3.504 10.372,3.332 10.236,3.204 C10.1,3.076 9.916,3.012 9.684,3.012 C9.46,3.012 9.28,3.076 9.144,3.204 C9.008,3.332 8.94,3.504 8.94,3.72 L8.94,3.72 L8.94,6.672 C8.94,8.288 9.66,9.096 11.1,9.096 Z M16.668,1.944 C16.94,1.944 17.156,1.87 17.316,1.722 C17.476,1.574 17.556,1.38 17.556,1.14 C17.556,0.9 17.474,0.708 17.31,0.564 C17.146,0.42 16.932,0.348 16.668,0.348 C16.396,0.348 16.18,0.42 16.02,0.564 C15.86,0.708 15.78,0.9 15.78,1.14 C15.78,1.38 15.86,1.574 16.02,1.722 C16.18,1.87 16.396,1.944 16.668,1.944 Z M16.668,9.072 C16.884,9.072 17.064,9.01 17.208,8.886 C17.352,8.762 17.424,8.584 17.424,8.352 L17.424,8.352 L17.424,3.72 C17.424,3.488 17.352,3.312 17.208,3.192 C17.064,3.072 16.884,3.012 16.668,3.012 C16.452,3.012 16.274,3.072 16.134,3.192 C15.994,3.312 15.924,3.488 15.924,3.72 L15.924,3.72 L15.924,8.352 C15.924,8.584 15.994,8.762 16.134,8.886 C16.274,9.01 16.452,9.072 16.668,9.072 Z M19.716,9.072 C19.932,9.072 20.112,9.01 20.256,8.886 C20.4,8.762 20.472,8.584 20.472,8.352 L20.472,8.352 L20.472,1.188 C20.472,0.956 20.4,0.78 20.256,0.66 C20.112,0.54 19.932,0.48 19.716,0.48 C19.5,0.48 19.322,0.54 19.182,0.66 C19.042,0.78 18.972,0.956 18.972,1.188 L18.972,1.188 L18.972,8.352 C18.972,8.584 19.042,8.762 19.182,8.886 C19.322,9.01 19.5,9.072 19.716,9.072 Z M24.3,9.096 C24.724,9.096 25.102,9.004 25.434,8.82 C25.766,8.636 26.02,8.38 26.196,8.052 L26.196,8.052 L26.196,8.352 C26.196,8.568 26.264,8.74 26.4,8.868 C26.536,8.996 26.716,9.06 26.94,9.06 C27.164,9.06 27.344,8.996 27.48,8.868 C27.616,8.74 27.684,8.568 27.684,8.352 L27.684,8.352 L27.684,1.176 C27.684,0.968 27.612,0.8 27.468,0.672 C27.324,0.544 27.14,0.48 26.916,0.48 C26.692,0.48 26.514,0.542 26.382,0.666 C26.25,0.79 26.184,0.952 26.184,1.152 L26.184,1.152 L26.184,3.996 C26.008,3.676 25.756,3.428 25.428,3.252 C25.1,3.076 24.724,2.988 24.3,2.988 C23.788,2.988 23.336,3.112 22.944,3.36 C22.552,3.608 22.246,3.96 22.026,4.416 C21.806,4.872 21.696,5.404 21.696,6.012 C21.696,6.62 21.806,7.158 22.026,7.626 C22.246,8.094 22.554,8.456 22.95,8.712 C23.346,8.968 23.796,9.096 24.3,9.096 Z M24.696,7.932 C24.224,7.932 23.856,7.764 23.592,7.428 C23.328,7.092 23.196,6.62 23.196,6.012 C23.196,5.412 23.328,4.952 23.592,4.632 C23.856,4.312 24.228,4.152 24.708,4.152 C25.18,4.152 25.546,4.314 25.806,4.638 C26.066,4.962 26.196,5.428 26.196,6.036 C26.196,6.644 26.066,7.112 25.806,7.44 C25.546,7.768 25.176,7.932 24.696,7.932 Z M36.396,9.108 C36.924,9.108 37.42,9.03 37.884,8.874 C38.348,8.718 38.76,8.492 39.12,8.196 C39.224,8.116 39.296,8.03 39.336,7.938 C39.376,7.846 39.396,7.74 39.396,7.62 C39.396,7.444 39.348,7.296 39.252,7.176 C39.156,7.056 39.04,6.996 38.904,6.996 C38.816,6.996 38.732,7.012 38.652,7.044 C38.572,7.076 38.492,7.116 38.412,7.164 C38.044,7.412 37.714,7.588 37.422,7.692 C37.13,7.796 36.812,7.848 36.468,7.848 C35.636,7.848 35.006,7.588 34.578,7.068 C34.15,6.548 33.936,5.78 33.936,4.764 C33.936,3.756 34.15,2.992 34.578,2.472 C35.006,1.952 35.636,1.692 36.468,1.692 C36.828,1.692 37.156,1.742 37.452,1.842 C37.748,1.942 38.068,2.12 38.412,2.376 C38.58,2.488 38.744,2.544 38.904,2.544 C39.04,2.544 39.156,2.484 39.252,2.364 C39.348,2.244 39.396,2.096 39.396,1.92 C39.396,1.792 39.376,1.684 39.336,1.596 C39.296,1.508 39.224,1.424 39.12,1.344 C38.76,1.048 38.348,0.822 37.884,0.666 C37.42,0.51 36.924,0.432 36.396,0.432 C35.58,0.432 34.866,0.608 34.254,0.96 C33.642,1.312 33.172,1.814 32.844,2.466 C32.516,3.118 32.352,3.884 32.352,4.764 C32.352,5.644 32.516,6.412 32.844,7.068 C33.172,7.724 33.642,8.228 34.254,8.58 C34.866,8.932 35.58,9.108 36.396,9.108 Z M43.296,9.096 C43.896,9.096 44.422,8.972 44.874,8.724 C45.326,8.476 45.674,8.12 45.918,7.656 C46.162,7.192 46.284,6.652 46.284,6.036 C46.284,5.42 46.162,4.882 45.918,4.422 C45.674,3.962 45.326,3.608 44.874,3.36 C44.422,3.112 43.896,2.988 43.296,2.988 C42.696,2.988 42.17,3.112 41.718,3.36 C41.266,3.608 40.916,3.962 40.668,4.422 C40.42,4.882 40.296,5.42 40.296,6.036 C40.296,6.652 40.42,7.192 40.668,7.656 C40.916,8.12 41.266,8.476 41.718,8.724 C42.17,8.972 42.696,9.096 43.296,9.096 Z M43.284,7.932 C42.804,7.932 42.436,7.772 42.18,7.452 C41.924,7.132 41.796,6.66 41.796,6.036 C41.796,5.42 41.926,4.95 42.186,4.626 C42.446,4.302 42.816,4.14 43.296,4.14 C43.776,4.14 44.144,4.302 44.4,4.626 C44.656,4.95 44.784,5.42 44.784,6.036 C44.784,6.66 44.656,7.132 44.4,7.452 C44.144,7.772 43.772,7.932 43.284,7.932 Z M55.716,9.072 C55.94,9.072 56.122,9.01 56.262,8.886 C56.402,8.762 56.472,8.584 56.472,8.352 L56.472,8.352 L56.472,5.4 C56.472,4.552 56.302,3.938 55.962,3.558 C55.622,3.178 55.132,2.988 54.492,2.988 C54.06,2.988 53.672,3.088 53.328,3.288 C52.984,3.488 52.724,3.756 52.548,4.092 C52.252,3.356 51.664,2.988 50.784,2.988 C50.384,2.988 50.03,3.072 49.722,3.24 C49.414,3.408 49.168,3.652 48.984,3.972 L48.984,3.972 L48.984,3.684 C48.984,3.468 48.918,3.302 48.786,3.186 C48.654,3.07 48.484,3.012 48.276,3.012 C48.06,3.012 47.88,3.072 47.736,3.192 C47.592,3.312 47.52,3.484 47.52,3.708 L47.52,3.708 L47.52,8.352 C47.52,8.584 47.59,8.762 47.73,8.886 C47.87,9.01 48.048,9.072 48.264,9.072 C48.48,9.072 48.66,9.01 48.804,8.886 C48.948,8.762 49.02,8.584 49.02,8.352 L49.02,8.352 L49.02,5.676 C49.02,5.212 49.134,4.846 49.362,4.578 C49.59,4.31 49.9,4.176 50.292,4.176 C50.612,4.176 50.85,4.27 51.006,4.458 C51.162,4.646 51.24,4.96 51.24,5.4 L51.24,5.4 L51.24,8.352 C51.24,8.584 51.312,8.762 51.456,8.886 C51.6,9.01 51.78,9.072 51.996,9.072 C52.212,9.072 52.39,9.01 52.53,8.886 C52.67,8.762 52.74,8.584 52.74,8.352 L52.74,8.352 L52.74,5.676 C52.74,5.212 52.856,4.846 53.088,4.578 C53.32,4.31 53.632,4.176 54.024,4.176 C54.344,4.176 54.582,4.27 54.738,4.458 C54.894,4.646 54.972,4.96 54.972,5.4 L54.972,5.4 L54.972,8.352 C54.972,8.584 55.042,8.762 55.182,8.886 C55.322,9.01 55.5,9.072 55.716,9.072 Z M66.192,9.072 C66.416,9.072 66.598,9.01 66.738,8.886 C66.878,8.762 66.948,8.584 66.948,8.352 L66.948,8.352 L66.948,5.4 C66.948,4.552 66.778,3.938 66.438,3.558 C66.098,3.178 65.608,2.988 64.968,2.988 C64.536,2.988 64.148,3.088 63.804,3.288 C63.46,3.488 63.2,3.756 63.024,4.092 C62.728,3.356 62.14,2.988 61.26,2.988 C60.86,2.988 60.506,3.072 60.198,3.24 C59.89,3.408 59.644,3.652 59.46,3.972 L59.46,3.972 L59.46,3.684 C59.46,3.468 59.394,3.302 59.262,3.186 C59.13,3.07 58.96,3.012 58.752,3.012 C58.536,3.012 58.356,3.072 58.212,3.192 C58.068,3.312 57.996,3.484 57.996,3.708 L57.996,3.708 L57.996,8.352 C57.996,8.584 58.066,8.762 58.206,8.886 C58.346,9.01 58.524,9.072 58.74,9.072 C58.956,9.072 59.136,9.01 59.28,8.886 C59.424,8.762 59.496,8.584 59.496,8.352 L59.496,8.352 L59.496,5.676 C59.496,5.212 59.61,4.846 59.838,4.578 C60.066,4.31 60.376,4.176 60.768,4.176 C61.088,4.176 61.326,4.27 61.482,4.458 C61.638,4.646 61.716,4.96 61.716,5.4 L61.716,5.4 L61.716,8.352 C61.716,8.584 61.788,8.762 61.932,8.886 C62.076,9.01 62.256,9.072 62.472,9.072 C62.688,9.072 62.866,9.01 63.006,8.886 C63.146,8.762 63.216,8.584 63.216,8.352 L63.216,8.352 L63.216,5.676 C63.216,5.212 63.332,4.846 63.564,4.578 C63.796,4.31 64.108,4.176 64.5,4.176 C64.82,4.176 65.058,4.27 65.214,4.458 C65.37,4.646 65.448,4.96 65.448,5.4 L65.448,5.4 L65.448,8.352 C65.448,8.584 65.518,8.762 65.658,8.886 C65.798,9.01 65.976,9.072 66.192,9.072 Z M70.344,9.096 C70.728,9.096 71.066,9.008 71.358,8.832 C71.65,8.656 71.864,8.412 72,8.1 L72,8.1 L72,8.364 C72,8.572 72.066,8.74 72.198,8.868 C72.33,8.996 72.5,9.06 72.708,9.06 C72.932,9.06 73.108,8.998 73.236,8.874 C73.364,8.75 73.428,8.58 73.428,8.364 L73.428,8.364 L73.428,5.436 C73.428,4.612 73.23,3.998 72.834,3.594 C72.438,3.19 71.832,2.988 71.016,2.988 C70.64,2.988 70.258,3.032 69.87,3.12 C69.482,3.208 69.148,3.328 68.868,3.48 C68.708,3.568 68.594,3.662 68.526,3.762 C68.458,3.862 68.424,3.98 68.424,4.116 C68.424,4.284 68.47,4.42 68.562,4.524 C68.654,4.628 68.772,4.68 68.916,4.68 C69.012,4.68 69.164,4.628 69.372,4.524 C69.7,4.396 69.984,4.298 70.224,4.23 C70.464,4.162 70.7,4.128 70.932,4.128 C71.308,4.128 71.58,4.218 71.748,4.398 C71.916,4.578 72,4.864 72,5.256 L72,5.256 L72,5.532 L71.7,5.532 C70.828,5.532 70.144,5.588 69.648,5.7 C69.152,5.812 68.794,5.992 68.574,6.24 C68.354,6.488 68.244,6.828 68.244,7.26 C68.244,7.604 68.336,7.916 68.52,8.196 C68.704,8.476 68.956,8.696 69.276,8.856 C69.596,9.016 69.952,9.096 70.344,9.096 Z M70.644,8.016 C70.38,8.016 70.158,7.934 69.978,7.77 C69.798,7.606 69.708,7.396 69.708,7.14 C69.708,6.932 69.772,6.768 69.9,6.648 C70.028,6.528 70.24,6.444 70.536,6.396 C70.832,6.348 71.248,6.324 71.784,6.324 L71.784,6.324 L72,6.324 L72,6.576 C72,7 71.874,7.346 71.622,7.614 C71.37,7.882 71.044,8.016 70.644,8.016 Z M79.704,9.072 C79.936,9.072 80.118,9.008 80.25,8.88 C80.382,8.752 80.448,8.576 80.448,8.352 L80.448,8.352 L80.448,5.4 C80.448,4.592 80.276,3.988 79.932,3.588 C79.588,3.188 79.064,2.988 78.36,2.988 C77.936,2.988 77.556,3.076 77.22,3.252 C76.884,3.428 76.616,3.68 76.416,4.008 L76.416,4.008 L76.416,3.684 C76.416,3.484 76.35,3.322 76.218,3.198 C76.086,3.074 75.916,3.012 75.708,3.012 C75.476,3.012 75.292,3.076 75.156,3.204 C75.02,3.332 74.952,3.5 74.952,3.708 L74.952,3.708 L74.952,8.352 C74.952,8.576 75.018,8.752 75.15,8.88 C75.282,9.008 75.464,9.072 75.696,9.072 C75.928,9.072 76.112,9.008 76.248,8.88 C76.384,8.752 76.452,8.576 76.452,8.352 L76.452,8.352 L76.452,5.676 C76.452,5.22 76.582,4.856 76.842,4.584 C77.102,4.312 77.448,4.176 77.88,4.176 C78.248,4.176 78.518,4.28 78.69,4.488 C78.862,4.696 78.948,5.028 78.948,5.484 L78.948,5.484 L78.948,8.352 C78.948,8.576 79.016,8.752 79.152,8.88 C79.288,9.008 79.472,9.072 79.704,9.072 Z M84.252,9.096 C84.676,9.096 85.054,9.004 85.386,8.82 C85.718,8.636 85.972,8.38 86.148,8.052 L86.148,8.052 L86.148,8.352 C86.148,8.568 86.216,8.74 86.352,8.868 C86.488,8.996 86.668,9.06 86.892,9.06 C87.116,9.06 87.296,8.996 87.432,8.868 C87.568,8.74 87.636,8.568 87.636,8.352 L87.636,8.352 L87.636,1.176 C87.636,0.968 87.564,0.8 87.42,0.672 C87.276,0.544 87.092,0.48 86.868,0.48 C86.644,0.48 86.466,0.542 86.334,0.666 C86.202,0.79 86.136,0.952 86.136,1.152 L86.136,1.152 L86.136,3.996 C85.96,3.676 85.708,3.428 85.38,3.252 C85.052,3.076 84.676,2.988 84.252,2.988 C83.74,2.988 83.288,3.112 82.896,3.36 C82.504,3.608 82.198,3.96 81.978,4.416 C81.758,4.872 81.648,5.404 81.648,6.012 C81.648,6.62 81.758,7.158 81.978,7.626 C82.198,8.094 82.506,8.456 82.902,8.712 C83.298,8.968 83.748,9.096 84.252,9.096 Z M84.648,7.932 C84.176,7.932 83.808,7.764 83.544,7.428 C83.28,7.092 83.148,6.62 83.148,6.012 C83.148,5.412 83.28,4.952 83.544,4.632 C83.808,4.312 84.18,4.152 84.66,4.152 C85.132,4.152 85.498,4.314 85.758,4.638 C86.018,4.962 86.148,5.428 86.148,6.036 C86.148,6.644 86.018,7.112 85.758,7.44 C85.498,7.768 85.128,7.932 84.648,7.932 Z" id="BuildCommand" fill="#98B4CD" fill-rule="nonzero"></path>
                        </g>
                        <g id="Group-8-Copy-2" transform="translate(0.000000, 148.000000)">
                            <g id="Rectangle">
                                <use fill="black" fill-opacity="1" filter="url(#filter-6)" xlink:href="#path-5"></use>
                                <rect stroke="#DBE8FB" stroke-width="1" stroke-linejoin="square" fill="#FFFFFF" fill-rule="evenodd" x="0.5" y="19.5" width="299" height="39" rx="8"></rect>
                            </g>
                            <path d="M20.993,44.078 C21.2443333,44.078 21.4415,44.0086667 21.5845,43.87 C21.7275,43.7313333 21.799,43.5406667 21.799,43.298 L21.799,43.298 L21.799,40.1 C21.799,39.2246667 21.6126667,38.5703333 21.24,38.137 C20.8673333,37.7036667 20.2996667,37.487 19.537,37.487 C19.0776667,37.487 18.666,37.5823333 18.302,37.773 C17.938,37.9636667 17.6476667,38.2366667 17.431,38.592 L17.431,38.592 L17.431,38.241 C17.431,38.0243333 17.3595,37.8488333 17.2165,37.7145 C17.0735,37.5801667 16.8893333,37.513 16.664,37.513 C16.4126667,37.513 16.2133333,37.5823333 16.066,37.721 C15.9186667,37.8596667 15.845,38.0416667 15.845,38.267 L15.845,38.267 L15.845,43.298 C15.845,43.5406667 15.9165,43.7313333 16.0595,43.87 C16.2025,44.0086667 16.3996667,44.078 16.651,44.078 C16.9023333,44.078 17.1016667,44.0086667 17.249,43.87 C17.3963333,43.7313333 17.47,43.5406667 17.47,43.298 L17.47,43.298 L17.47,40.399 C17.47,39.905 17.6108333,39.5106667 17.8925,39.216 C18.1741667,38.9213333 18.549,38.774 19.017,38.774 C19.4156667,38.774 19.7081667,38.8866667 19.8945,39.112 C20.0808333,39.3373333 20.174,39.697 20.174,40.191 L20.174,40.191 L20.174,43.298 C20.174,43.5406667 20.2476667,43.7313333 20.395,43.87 C20.5423333,44.0086667 20.7416667,44.078 20.993,44.078 Z M24.269,46.405 C24.5116667,46.405 24.7066667,46.34 24.854,46.21 C25.0013333,46.08 25.075,45.9023333 25.075,45.677 L25.075,45.677 L25.075,43.025 C25.2656667,43.363 25.5386667,43.6273333 25.894,43.818 C26.2493333,44.0086667 26.6523333,44.104 27.103,44.104 C27.6576667,44.104 28.1473333,43.9696667 28.572,43.701 C28.9966667,43.4323333 29.3281667,43.051 29.5665,42.557 C29.8048333,42.063 29.924,41.4866667 29.924,40.828 C29.924,40.1693333 29.8048333,39.5865 29.5665,39.0795 C29.3281667,38.5725 28.9945,38.1803333 28.5655,37.903 C28.1365,37.6256667 27.649,37.487 27.103,37.487 C26.6436667,37.487 26.2341667,37.5845 25.8745,37.7795 C25.5148333,37.9745 25.2396667,38.2496667 25.049,38.605 L25.049,38.605 L25.049,38.28 C25.049,38.046 24.9753333,37.8596667 24.828,37.721 C24.6806667,37.5823333 24.4856667,37.513 24.243,37.513 C24.0003333,37.513 23.8075,37.5823333 23.6645,37.721 C23.5215,37.8596667 23.45,38.046 23.45,38.28 L23.45,38.28 L23.45,45.651 C23.45,45.8763333 23.5258333,46.0583333 23.6775,46.197 C23.8291667,46.3356667 24.0263333,46.405 24.269,46.405 Z M26.674,42.843 C26.154,42.843 25.7531667,42.6653333 25.4715,42.31 C25.1898333,41.9546667 25.049,41.452 25.049,40.802 C25.049,40.1433333 25.1898333,39.6363333 25.4715,39.281 C25.7531667,38.9256667 26.154,38.748 26.674,38.748 C27.1853333,38.748 27.584,38.93 27.87,39.294 C28.156,39.658 28.299,40.1693333 28.299,40.828 C28.299,41.4693333 28.156,41.9655 27.87,42.3165 C27.584,42.6675 27.1853333,42.843 26.674,42.843 Z M40.142,44.078 C40.3846667,44.078 40.5818333,44.0108333 40.7335,43.8765 C40.8851667,43.7421667 40.961,43.5493333 40.961,43.298 L40.961,43.298 L40.961,40.1 C40.961,39.1813333 40.7768333,38.5161667 40.4085,38.1045 C40.0401667,37.6928333 39.5093333,37.487 38.816,37.487 C38.348,37.487 37.9276667,37.5953333 37.555,37.812 C37.1823333,38.0286667 36.9006667,38.319 36.71,38.683 C36.3893333,37.8856667 35.7523333,37.487 34.799,37.487 C34.3656667,37.487 33.9821667,37.578 33.6485,37.76 C33.3148333,37.942 33.0483333,38.2063333 32.849,38.553 L32.849,38.553 L32.849,38.241 C32.849,38.007 32.7775,37.8271667 32.6345,37.7015 C32.4915,37.5758333 32.3073333,37.513 32.082,37.513 C31.848,37.513 31.653,37.578 31.497,37.708 C31.341,37.838 31.263,38.0243333 31.263,38.267 L31.263,38.267 L31.263,43.298 C31.263,43.5493333 31.3388333,43.7421667 31.4905,43.8765 C31.6421667,44.0108333 31.835,44.078 32.069,44.078 C32.303,44.078 32.498,44.0108333 32.654,43.8765 C32.81,43.7421667 32.888,43.5493333 32.888,43.298 L32.888,43.298 L32.888,40.399 C32.888,39.8963333 33.0115,39.4998333 33.2585,39.2095 C33.5055,38.9191667 33.8413333,38.774 34.266,38.774 C34.6126667,38.774 34.8705,38.8758333 35.0395,39.0795 C35.2085,39.2831667 35.293,39.6233333 35.293,40.1 L35.293,40.1 L35.293,43.298 C35.293,43.5493333 35.371,43.7421667 35.527,43.8765 C35.683,44.0108333 35.878,44.078 36.112,44.078 C36.346,44.078 36.5388333,44.0108333 36.6905,43.8765 C36.8421667,43.7421667 36.918,43.5493333 36.918,43.298 L36.918,43.298 L36.918,40.399 C36.918,39.8963333 37.0436667,39.4998333 37.295,39.2095 C37.5463333,38.9191667 37.8843333,38.774 38.309,38.774 C38.6556667,38.774 38.9135,38.8758333 39.0825,39.0795 C39.2515,39.2831667 39.336,39.6233333 39.336,40.1 L39.336,40.1 L39.336,43.298 C39.336,43.5493333 39.4118333,43.7421667 39.5635,43.8765 C39.7151667,44.0108333 39.908,44.078 40.142,44.078 Z M46.941,44.078 C47.175,44.078 47.37,44.0108333 47.526,43.8765 C47.682,43.7421667 47.76,43.5493333 47.76,43.298 L47.76,43.298 L47.76,40.568 C47.76,40.126 47.8791667,39.7576667 48.1175,39.463 C48.3558333,39.1683333 48.7306667,38.995 49.242,38.943 L49.242,38.943 L49.632,38.904 C49.9266667,38.8693333 50.1303333,38.7956667 50.243,38.683 C50.3556667,38.5703333 50.412,38.397 50.412,38.163 C50.412,37.9376667 50.347,37.7686667 50.217,37.656 C50.087,37.5433333 49.9093333,37.4956667 49.684,37.513 L49.684,37.513 L49.502,37.526 C49.1033333,37.552 48.7415,37.669 48.4165,37.877 C48.0915,38.085 47.8466667,38.3796667 47.682,38.761 L47.682,38.761 L47.682,38.241 C47.682,38.007 47.6126667,37.8271667 47.474,37.7015 C47.3353333,37.5758333 47.1533333,37.513 46.928,37.513 C46.7026667,37.513 46.5141667,37.578 46.3625,37.708 C46.2108333,37.838 46.135,38.0243333 46.135,38.267 L46.135,38.267 L46.135,43.298 C46.135,43.5493333 46.2108333,43.7421667 46.3625,43.8765 C46.5141667,44.0108333 46.707,44.078 46.941,44.078 Z M53.415,44.104 C53.8396667,44.104 54.221,44.0108333 54.559,43.8245 C54.897,43.6381667 55.1656667,43.3716667 55.365,43.025 L55.365,43.025 L55.365,43.35 C55.365,43.5753333 55.4343333,43.753 55.573,43.883 C55.7116667,44.013 55.898,44.078 56.132,44.078 C56.3746667,44.078 56.5718333,44.0086667 56.7235,43.87 C56.8751667,43.7313333 56.951,43.5493333 56.951,43.324 L56.951,43.324 L56.951,38.28 C56.951,38.046 56.8773333,37.8596667 56.73,37.721 C56.5826667,37.5823333 56.3833333,37.513 56.132,37.513 C55.8893333,37.513 55.6943333,37.5823333 55.547,37.721 C55.3996667,37.8596667 55.326,38.046 55.326,38.28 L55.326,38.28 L55.326,41.179 C55.326,41.673 55.1895,42.0695 54.9165,42.3685 C54.6435,42.6675 54.2816667,42.817 53.831,42.817 C53.441,42.817 53.155,42.7086667 52.973,42.492 C52.791,42.2753333 52.7,41.9416667 52.7,41.491 L52.7,41.491 L52.7,38.28 C52.7,38.046 52.6263333,37.8596667 52.479,37.721 C52.3316667,37.5823333 52.1323333,37.513 51.881,37.513 C51.6383333,37.513 51.4433333,37.5823333 51.296,37.721 C51.1486667,37.8596667 51.075,38.046 51.075,38.28 L51.075,38.28 L51.075,41.478 C51.075,43.2286667 51.855,44.104 53.415,44.104 Z M63.789,44.078 C64.0403333,44.078 64.2375,44.0086667 64.3805,43.87 C64.5235,43.7313333 64.595,43.5406667 64.595,43.298 L64.595,43.298 L64.595,40.1 C64.595,39.2246667 64.4086667,38.5703333 64.036,38.137 C63.6633333,37.7036667 63.0956667,37.487 62.333,37.487 C61.8736667,37.487 61.462,37.5823333 61.098,37.773 C60.734,37.9636667 60.4436667,38.2366667 60.227,38.592 L60.227,38.592 L60.227,38.241 C60.227,38.0243333 60.1555,37.8488333 60.0125,37.7145 C59.8695,37.5801667 59.6853333,37.513 59.46,37.513 C59.2086667,37.513 59.0093333,37.5823333 58.862,37.721 C58.7146667,37.8596667 58.641,38.0416667 58.641,38.267 L58.641,38.267 L58.641,43.298 C58.641,43.5406667 58.7125,43.7313333 58.8555,43.87 C58.9985,44.0086667 59.1956667,44.078 59.447,44.078 C59.6983333,44.078 59.8976667,44.0086667 60.045,43.87 C60.1923333,43.7313333 60.266,43.5406667 60.266,43.298 L60.266,43.298 L60.266,40.399 C60.266,39.905 60.4068333,39.5106667 60.6885,39.216 C60.9701667,38.9213333 61.345,38.774 61.813,38.774 C62.2116667,38.774 62.5041667,38.8866667 62.6905,39.112 C62.8768333,39.3373333 62.97,39.697 62.97,40.191 L62.97,40.191 L62.97,43.298 C62.97,43.5406667 63.0436667,43.7313333 63.191,43.87 C63.3383333,44.0086667 63.5376667,44.078 63.789,44.078 Z M72.07,44.104 C72.8846667,44.104 73.5368333,43.9263333 74.0265,43.571 C74.5161667,43.2156667 74.761,42.7433333 74.761,42.154 C74.761,41.79 74.6895,41.491 74.5465,41.257 C74.4035,41.023 74.1673333,40.828 73.838,40.672 C73.5086667,40.516 73.0536667,40.3773333 72.473,40.256 C71.927,40.1433333 71.5586667,40.0306667 71.368,39.918 C71.1773333,39.8053333 71.082,39.6406667 71.082,39.424 C71.082,39.1986667 71.1751667,39.021 71.3615,38.891 C71.5478333,38.761 71.8013333,38.696 72.122,38.696 C72.3906667,38.696 72.616,38.7285 72.798,38.7935 C72.98,38.8585 73.1966667,38.956 73.448,39.086 C73.5866667,39.164 73.7015,39.2225 73.7925,39.2615 C73.8835,39.3005 73.9766667,39.32 74.072,39.32 C74.2106667,39.32 74.3276667,39.2615 74.423,39.1445 C74.5183333,39.0275 74.566,38.8823333 74.566,38.709 C74.566,38.423 74.4273333,38.1933333 74.15,38.02 C73.8813333,37.8466667 73.578,37.7145 73.24,37.6235 C72.902,37.5325 72.551,37.487 72.187,37.487 C71.6843333,37.487 71.2358333,37.5715 70.8415,37.7405 C70.4471667,37.9095 70.1373333,38.1478333 69.912,38.4555 C69.6866667,38.7631667 69.574,39.1076667 69.574,39.489 C69.574,39.9916667 69.7408333,40.386 70.0745,40.672 C70.4081667,40.958 70.9606667,41.179 71.732,41.335 C72.1653333,41.4303333 72.4881667,41.5148333 72.7005,41.5885 C72.9128333,41.6621667 73.0601667,41.7423333 73.1425,41.829 C73.2248333,41.9156667 73.266,42.0326667 73.266,42.18 C73.266,42.3966667 73.1641667,42.5656667 72.9605,42.687 C72.7568333,42.8083333 72.473,42.869 72.109,42.869 C71.7536667,42.869 71.4611667,42.8343333 71.2315,42.765 C71.0018333,42.6956667 70.7483333,42.596 70.471,42.466 C70.211,42.3273333 70.0073333,42.258 69.86,42.258 C69.7213333,42.258 69.6043333,42.3121667 69.509,42.4205 C69.4136667,42.5288333 69.366,42.6696667 69.366,42.843 C69.366,43.1463333 69.5046667,43.3803333 69.782,43.545 C70.3626667,43.9176667 71.1253333,44.104 72.07,44.104 Z M79.051,44.104 C79.389,44.104 79.7443333,44.0541667 80.117,43.9545 C80.4896667,43.8548333 80.8233333,43.7226667 81.118,43.558 C81.4386667,43.376 81.599,43.1506667 81.599,42.882 C81.599,42.6913333 81.5535,42.5396667 81.4625,42.427 C81.3715,42.3143333 81.2523333,42.258 81.105,42.258 C80.9836667,42.258 80.793,42.3273333 80.533,42.466 C80.2643333,42.5873333 80.0238333,42.6826667 79.8115,42.752 C79.5991667,42.8213333 79.3543333,42.856 79.077,42.856 C78.531,42.856 78.115,42.7151667 77.829,42.4335 C77.543,42.1518333 77.374,41.712 77.322,41.114 L77.322,41.114 L81.157,41.114 C81.4863333,41.114 81.651,40.9276667 81.651,40.555 C81.651,39.931 81.534,39.3893333 81.3,38.93 C81.066,38.4706667 80.7366667,38.1153333 80.312,37.864 C79.8873333,37.6126667 79.389,37.487 78.817,37.487 C78.219,37.487 77.6838333,37.6256667 77.2115,37.903 C76.7391667,38.1803333 76.373,38.5703333 76.113,39.073 C75.853,39.5756667 75.723,40.152 75.723,40.802 C75.723,41.8246667 76.022,42.6306667 76.62,43.22 C77.218,43.8093333 78.0283333,44.104 79.051,44.104 Z M80.26,40.243 L77.322,40.243 C77.374,39.723 77.5321667,39.3243333 77.7965,39.047 C78.0608333,38.7696667 78.414,38.631 78.856,38.631 C79.2893333,38.631 79.6273333,38.7675 79.87,39.0405 C80.1126667,39.3135 80.2426667,39.7143333 80.26,40.243 L80.26,40.243 Z M83.783,44.078 C84.017,44.078 84.212,44.0108333 84.368,43.8765 C84.524,43.7421667 84.602,43.5493333 84.602,43.298 L84.602,43.298 L84.602,40.568 C84.602,40.126 84.7211667,39.7576667 84.9595,39.463 C85.1978333,39.1683333 85.5726667,38.995 86.084,38.943 L86.084,38.943 L86.474,38.904 C86.7686667,38.8693333 86.9723333,38.7956667 87.085,38.683 C87.1976667,38.5703333 87.254,38.397 87.254,38.163 C87.254,37.9376667 87.189,37.7686667 87.059,37.656 C86.929,37.5433333 86.7513333,37.4956667 86.526,37.513 L86.526,37.513 L86.344,37.526 C85.9453333,37.552 85.5835,37.669 85.2585,37.877 C84.9335,38.085 84.6886667,38.3796667 84.524,38.761 L84.524,38.761 L84.524,38.241 C84.524,38.007 84.4546667,37.8271667 84.316,37.7015 C84.1773333,37.5758333 83.9953333,37.513 83.77,37.513 C83.5446667,37.513 83.3561667,37.578 83.2045,37.708 C83.0528333,37.838 82.977,38.0243333 82.977,38.267 L82.977,38.267 L82.977,43.298 C82.977,43.5493333 83.0528333,43.7421667 83.2045,43.8765 C83.3561667,44.0108333 83.549,44.078 83.783,44.078 Z M90.543,44.065 C90.7163333,44.065 90.8745,44.0216667 91.0175,43.935 C91.1605,43.8483333 91.271,43.7226667 91.349,43.558 L91.349,43.558 L93.754,38.527 C93.806,38.423 93.832,38.319 93.832,38.215 C93.832,38.0156667 93.7518333,37.8488333 93.5915,37.7145 C93.4311667,37.5801667 93.2513333,37.513 93.052,37.513 C92.9133333,37.513 92.7855,37.552 92.6685,37.63 C92.5515,37.708 92.4583333,37.825 92.389,37.981 L92.389,37.981 L90.582,41.985 L88.762,37.968 C88.6146667,37.6646667 88.385,37.513 88.073,37.513 C87.8563333,37.513 87.6635,37.5823333 87.4945,37.721 C87.3255,37.8596667 87.241,38.0286667 87.241,38.228 C87.241,38.3406667 87.2626667,38.4403333 87.306,38.527 L87.306,38.527 L89.724,43.558 C89.802,43.7226667 89.9168333,43.8483333 90.0685,43.935 C90.2201667,44.0216667 90.3783333,44.065 90.543,44.065 Z M97.771,44.104 C98.109,44.104 98.4643333,44.0541667 98.837,43.9545 C99.2096667,43.8548333 99.5433333,43.7226667 99.838,43.558 C100.158667,43.376 100.319,43.1506667 100.319,42.882 C100.319,42.6913333 100.2735,42.5396667 100.1825,42.427 C100.0915,42.3143333 99.9723333,42.258 99.825,42.258 C99.7036667,42.258 99.513,42.3273333 99.253,42.466 C98.9843333,42.5873333 98.7438333,42.6826667 98.5315,42.752 C98.3191667,42.8213333 98.0743333,42.856 97.797,42.856 C97.251,42.856 96.835,42.7151667 96.549,42.4335 C96.263,42.1518333 96.094,41.712 96.042,41.114 L96.042,41.114 L99.877,41.114 C100.206333,41.114 100.371,40.9276667 100.371,40.555 C100.371,39.931 100.254,39.3893333 100.02,38.93 C99.786,38.4706667 99.4566667,38.1153333 99.032,37.864 C98.6073333,37.6126667 98.109,37.487 97.537,37.487 C96.939,37.487 96.4038333,37.6256667 95.9315,37.903 C95.4591667,38.1803333 95.093,38.5703333 94.833,39.073 C94.573,39.5756667 94.443,40.152 94.443,40.802 C94.443,41.8246667 94.742,42.6306667 95.34,43.22 C95.938,43.8093333 96.7483333,44.104 97.771,44.104 Z M98.98,40.243 L96.042,40.243 C96.094,39.723 96.2521667,39.3243333 96.5165,39.047 C96.7808333,38.7696667 97.134,38.631 97.576,38.631 C98.0093333,38.631 98.3473333,38.7675 98.59,39.0405 C98.8326667,39.3135 98.9626667,39.7143333 98.98,40.243 L98.98,40.243 Z" id="npmrunserve" fill="#212121" fill-rule="nonzero"></path>
                            <path d="M3.84,9.108 C4.488,9.108 5.062,9.002 5.562,8.79 C6.062,8.578 6.45,8.282 6.726,7.902 C7.002,7.522 7.14,7.084 7.14,6.588 C7.14,6.132 7.022,5.752 6.786,5.448 C6.55,5.144 6.21,4.894 5.766,4.698 C5.322,4.502 4.744,4.324 4.032,4.164 C3.36,4.012 2.884,3.848 2.604,3.672 C2.324,3.496 2.184,3.244 2.184,2.916 C2.184,2.524 2.342,2.218 2.658,1.998 C2.974,1.778 3.404,1.668 3.948,1.668 C4.396,1.668 4.774,1.726 5.082,1.842 C5.39,1.958 5.708,2.136 6.036,2.376 C6.148,2.44 6.238,2.484 6.306,2.508 C6.374,2.532 6.448,2.544 6.528,2.544 C6.664,2.544 6.782,2.482 6.882,2.358 C6.982,2.234 7.032,2.088 7.032,1.92 C7.032,1.792 7.01,1.686 6.966,1.602 C6.922,1.518 6.848,1.432 6.744,1.344 C6.024,0.736 5.092,0.432 3.948,0.432 C3.324,0.432 2.762,0.542 2.262,0.762 C1.762,0.982 1.372,1.288 1.092,1.68 C0.812,2.072 0.672,2.516 0.672,3.012 C0.672,3.492 0.784,3.888 1.008,4.2 C1.232,4.512 1.564,4.768 2.004,4.968 C2.444,5.168 3.016,5.344 3.72,5.496 C4.4,5.648 4.886,5.806 5.178,5.97 C5.47,6.134 5.616,6.368 5.616,6.672 C5.616,7.064 5.46,7.362 5.148,7.566 C4.836,7.77 4.388,7.872 3.804,7.872 C3.348,7.872 2.932,7.816 2.556,7.704 C2.18,7.592 1.82,7.412 1.476,7.164 C1.292,7.052 1.128,6.996 0.984,6.996 C0.848,6.996 0.73,7.058 0.63,7.182 C0.53,7.306 0.48,7.452 0.48,7.62 C0.48,7.868 0.572,8.06 0.756,8.196 C1.1,8.476 1.546,8.698 2.094,8.862 C2.642,9.026 3.224,9.108 3.84,9.108 Z M11.184,9.06 C11.472,9.076 11.694,9.034 11.85,8.934 C12.006,8.834 12.084,8.688 12.084,8.496 C12.084,8.16 11.884,7.98 11.484,7.956 L11.484,7.956 L11.16,7.932 C10.616,7.892 10.344,7.576 10.344,6.984 L10.344,6.984 L10.344,4.26 L11.364,4.26 C11.58,4.26 11.746,4.212 11.862,4.116 C11.978,4.02 12.036,3.88 12.036,3.696 C12.036,3.512 11.978,3.372 11.862,3.276 C11.746,3.18 11.58,3.132 11.364,3.132 L11.364,3.132 L10.344,3.132 L10.344,2.028 C10.344,1.812 10.276,1.64 10.14,1.512 C10.004,1.384 9.824,1.32 9.6,1.32 C9.368,1.32 9.184,1.384 9.048,1.512 C8.912,1.64 8.844,1.812 8.844,2.028 L8.844,2.028 L8.844,3.132 L8.244,3.132 C8.028,3.132 7.862,3.18 7.746,3.276 C7.63,3.372 7.572,3.512 7.572,3.696 C7.572,3.88 7.63,4.02 7.746,4.116 C7.862,4.212 8.028,4.26 8.244,4.26 L8.244,4.26 L8.844,4.26 L8.844,6.876 C8.844,8.22 9.516,8.94 10.86,9.036 L10.86,9.036 L11.184,9.06 Z M14.736,9.096 C15.12,9.096 15.458,9.008 15.75,8.832 C16.042,8.656 16.256,8.412 16.392,8.1 L16.392,8.1 L16.392,8.364 C16.392,8.572 16.458,8.74 16.59,8.868 C16.722,8.996 16.892,9.06 17.1,9.06 C17.324,9.06 17.5,8.998 17.628,8.874 C17.756,8.75 17.82,8.58 17.82,8.364 L17.82,8.364 L17.82,5.436 C17.82,4.612 17.622,3.998 17.226,3.594 C16.83,3.19 16.224,2.988 15.408,2.988 C15.032,2.988 14.65,3.032 14.262,3.12 C13.874,3.208 13.54,3.328 13.26,3.48 C13.1,3.568 12.986,3.662 12.918,3.762 C12.85,3.862 12.816,3.98 12.816,4.116 C12.816,4.284 12.862,4.42 12.954,4.524 C13.046,4.628 13.164,4.68 13.308,4.68 C13.404,4.68 13.556,4.628 13.764,4.524 C14.092,4.396 14.376,4.298 14.616,4.23 C14.856,4.162 15.092,4.128 15.324,4.128 C15.7,4.128 15.972,4.218 16.14,4.398 C16.308,4.578 16.392,4.864 16.392,5.256 L16.392,5.256 L16.392,5.532 L16.092,5.532 C15.22,5.532 14.536,5.588 14.04,5.7 C13.544,5.812 13.186,5.992 12.966,6.24 C12.746,6.488 12.636,6.828 12.636,7.26 C12.636,7.604 12.728,7.916 12.912,8.196 C13.096,8.476 13.348,8.696 13.668,8.856 C13.988,9.016 14.344,9.096 14.736,9.096 Z M15.036,8.016 C14.772,8.016 14.55,7.934 14.37,7.77 C14.19,7.606 14.1,7.396 14.1,7.14 C14.1,6.932 14.164,6.768 14.292,6.648 C14.42,6.528 14.632,6.444 14.928,6.396 C15.224,6.348 15.64,6.324 16.176,6.324 L16.176,6.324 L16.392,6.324 L16.392,6.576 C16.392,7 16.266,7.346 16.014,7.614 C15.762,7.882 15.436,8.016 15.036,8.016 Z M20.088,9.072 C20.304,9.072 20.484,9.01 20.628,8.886 C20.772,8.762 20.844,8.584 20.844,8.352 L20.844,8.352 L20.844,5.832 C20.844,5.424 20.954,5.084 21.174,4.812 C21.394,4.54 21.74,4.38 22.212,4.332 L22.212,4.332 L22.572,4.296 C22.844,4.264 23.032,4.196 23.136,4.092 C23.24,3.988 23.292,3.828 23.292,3.612 C23.292,3.404 23.232,3.248 23.112,3.144 C22.992,3.04 22.828,2.996 22.62,3.012 L22.62,3.012 L22.452,3.024 C22.084,3.048 21.75,3.156 21.45,3.348 C21.15,3.54 20.924,3.812 20.772,4.164 L20.772,4.164 L20.772,3.684 C20.772,3.468 20.708,3.302 20.58,3.186 C20.452,3.07 20.284,3.012 20.076,3.012 C19.868,3.012 19.694,3.072 19.554,3.192 C19.414,3.312 19.344,3.484 19.344,3.708 L19.344,3.708 L19.344,8.352 C19.344,8.584 19.414,8.762 19.554,8.886 C19.694,9.01 19.872,9.072 20.088,9.072 Z M26.688,9.06 C26.976,9.076 27.198,9.034 27.354,8.934 C27.51,8.834 27.588,8.688 27.588,8.496 C27.588,8.16 27.388,7.98 26.988,7.956 L26.988,7.956 L26.664,7.932 C26.12,7.892 25.848,7.576 25.848,6.984 L25.848,6.984 L25.848,4.26 L26.868,4.26 C27.084,4.26 27.25,4.212 27.366,4.116 C27.482,4.02 27.54,3.88 27.54,3.696 C27.54,3.512 27.482,3.372 27.366,3.276 C27.25,3.18 27.084,3.132 26.868,3.132 L26.868,3.132 L25.848,3.132 L25.848,2.028 C25.848,1.812 25.78,1.64 25.644,1.512 C25.508,1.384 25.328,1.32 25.104,1.32 C24.872,1.32 24.688,1.384 24.552,1.512 C24.416,1.64 24.348,1.812 24.348,2.028 L24.348,2.028 L24.348,3.132 L23.748,3.132 C23.532,3.132 23.366,3.18 23.25,3.276 C23.134,3.372 23.076,3.512 23.076,3.696 C23.076,3.88 23.134,4.02 23.25,4.116 C23.366,4.212 23.532,4.26 23.748,4.26 L23.748,4.26 L24.348,4.26 L24.348,6.876 C24.348,8.22 25.02,8.94 26.364,9.036 L26.364,9.036 L26.688,9.06 Z M35.532,9.108 C36.06,9.108 36.556,9.03 37.02,8.874 C37.484,8.718 37.896,8.492 38.256,8.196 C38.36,8.116 38.432,8.03 38.472,7.938 C38.512,7.846 38.532,7.74 38.532,7.62 C38.532,7.444 38.484,7.296 38.388,7.176 C38.292,7.056 38.176,6.996 38.04,6.996 C37.952,6.996 37.868,7.012 37.788,7.044 C37.708,7.076 37.628,7.116 37.548,7.164 C37.18,7.412 36.85,7.588 36.558,7.692 C36.266,7.796 35.948,7.848 35.604,7.848 C34.772,7.848 34.142,7.588 33.714,7.068 C33.286,6.548 33.072,5.78 33.072,4.764 C33.072,3.756 33.286,2.992 33.714,2.472 C34.142,1.952 34.772,1.692 35.604,1.692 C35.964,1.692 36.292,1.742 36.588,1.842 C36.884,1.942 37.204,2.12 37.548,2.376 C37.716,2.488 37.88,2.544 38.04,2.544 C38.176,2.544 38.292,2.484 38.388,2.364 C38.484,2.244 38.532,2.096 38.532,1.92 C38.532,1.792 38.512,1.684 38.472,1.596 C38.432,1.508 38.36,1.424 38.256,1.344 C37.896,1.048 37.484,0.822 37.02,0.666 C36.556,0.51 36.06,0.432 35.532,0.432 C34.716,0.432 34.002,0.608 33.39,0.96 C32.778,1.312 32.308,1.814 31.98,2.466 C31.652,3.118 31.488,3.884 31.488,4.764 C31.488,5.644 31.652,6.412 31.98,7.068 C32.308,7.724 32.778,8.228 33.39,8.58 C34.002,8.932 34.716,9.108 35.532,9.108 Z M42.432,9.096 C43.032,9.096 43.558,8.972 44.01,8.724 C44.462,8.476 44.81,8.12 45.054,7.656 C45.298,7.192 45.42,6.652 45.42,6.036 C45.42,5.42 45.298,4.882 45.054,4.422 C44.81,3.962 44.462,3.608 44.01,3.36 C43.558,3.112 43.032,2.988 42.432,2.988 C41.832,2.988 41.306,3.112 40.854,3.36 C40.402,3.608 40.052,3.962 39.804,4.422 C39.556,4.882 39.432,5.42 39.432,6.036 C39.432,6.652 39.556,7.192 39.804,7.656 C40.052,8.12 40.402,8.476 40.854,8.724 C41.306,8.972 41.832,9.096 42.432,9.096 Z M42.42,7.932 C41.94,7.932 41.572,7.772 41.316,7.452 C41.06,7.132 40.932,6.66 40.932,6.036 C40.932,5.42 41.062,4.95 41.322,4.626 C41.582,4.302 41.952,4.14 42.432,4.14 C42.912,4.14 43.28,4.302 43.536,4.626 C43.792,4.95 43.92,5.42 43.92,6.036 C43.92,6.66 43.792,7.132 43.536,7.452 C43.28,7.772 42.908,7.932 42.42,7.932 Z M54.852,9.072 C55.076,9.072 55.258,9.01 55.398,8.886 C55.538,8.762 55.608,8.584 55.608,8.352 L55.608,8.352 L55.608,5.4 C55.608,4.552 55.438,3.938 55.098,3.558 C54.758,3.178 54.268,2.988 53.628,2.988 C53.196,2.988 52.808,3.088 52.464,3.288 C52.12,3.488 51.86,3.756 51.684,4.092 C51.388,3.356 50.8,2.988 49.92,2.988 C49.52,2.988 49.166,3.072 48.858,3.24 C48.55,3.408 48.304,3.652 48.12,3.972 L48.12,3.972 L48.12,3.684 C48.12,3.468 48.054,3.302 47.922,3.186 C47.79,3.07 47.62,3.012 47.412,3.012 C47.196,3.012 47.016,3.072 46.872,3.192 C46.728,3.312 46.656,3.484 46.656,3.708 L46.656,3.708 L46.656,8.352 C46.656,8.584 46.726,8.762 46.866,8.886 C47.006,9.01 47.184,9.072 47.4,9.072 C47.616,9.072 47.796,9.01 47.94,8.886 C48.084,8.762 48.156,8.584 48.156,8.352 L48.156,8.352 L48.156,5.676 C48.156,5.212 48.27,4.846 48.498,4.578 C48.726,4.31 49.036,4.176 49.428,4.176 C49.748,4.176 49.986,4.27 50.142,4.458 C50.298,4.646 50.376,4.96 50.376,5.4 L50.376,5.4 L50.376,8.352 C50.376,8.584 50.448,8.762 50.592,8.886 C50.736,9.01 50.916,9.072 51.132,9.072 C51.348,9.072 51.526,9.01 51.666,8.886 C51.806,8.762 51.876,8.584 51.876,8.352 L51.876,8.352 L51.876,5.676 C51.876,5.212 51.992,4.846 52.224,4.578 C52.456,4.31 52.768,4.176 53.16,4.176 C53.48,4.176 53.718,4.27 53.874,4.458 C54.03,4.646 54.108,4.96 54.108,5.4 L54.108,5.4 L54.108,8.352 C54.108,8.584 54.178,8.762 54.318,8.886 C54.458,9.01 54.636,9.072 54.852,9.072 Z M65.328,9.072 C65.552,9.072 65.734,9.01 65.874,8.886 C66.014,8.762 66.084,8.584 66.084,8.352 L66.084,8.352 L66.084,5.4 C66.084,4.552 65.914,3.938 65.574,3.558 C65.234,3.178 64.744,2.988 64.104,2.988 C63.672,2.988 63.284,3.088 62.94,3.288 C62.596,3.488 62.336,3.756 62.16,4.092 C61.864,3.356 61.276,2.988 60.396,2.988 C59.996,2.988 59.642,3.072 59.334,3.24 C59.026,3.408 58.78,3.652 58.596,3.972 L58.596,3.972 L58.596,3.684 C58.596,3.468 58.53,3.302 58.398,3.186 C58.266,3.07 58.096,3.012 57.888,3.012 C57.672,3.012 57.492,3.072 57.348,3.192 C57.204,3.312 57.132,3.484 57.132,3.708 L57.132,3.708 L57.132,8.352 C57.132,8.584 57.202,8.762 57.342,8.886 C57.482,9.01 57.66,9.072 57.876,9.072 C58.092,9.072 58.272,9.01 58.416,8.886 C58.56,8.762 58.632,8.584 58.632,8.352 L58.632,8.352 L58.632,5.676 C58.632,5.212 58.746,4.846 58.974,4.578 C59.202,4.31 59.512,4.176 59.904,4.176 C60.224,4.176 60.462,4.27 60.618,4.458 C60.774,4.646 60.852,4.96 60.852,5.4 L60.852,5.4 L60.852,8.352 C60.852,8.584 60.924,8.762 61.068,8.886 C61.212,9.01 61.392,9.072 61.608,9.072 C61.824,9.072 62.002,9.01 62.142,8.886 C62.282,8.762 62.352,8.584 62.352,8.352 L62.352,8.352 L62.352,5.676 C62.352,5.212 62.468,4.846 62.7,4.578 C62.932,4.31 63.244,4.176 63.636,4.176 C63.956,4.176 64.194,4.27 64.35,4.458 C64.506,4.646 64.584,4.96 64.584,5.4 L64.584,5.4 L64.584,8.352 C64.584,8.584 64.654,8.762 64.794,8.886 C64.934,9.01 65.112,9.072 65.328,9.072 Z M69.48,9.096 C69.864,9.096 70.202,9.008 70.494,8.832 C70.786,8.656 71,8.412 71.136,8.1 L71.136,8.1 L71.136,8.364 C71.136,8.572 71.202,8.74 71.334,8.868 C71.466,8.996 71.636,9.06 71.844,9.06 C72.068,9.06 72.244,8.998 72.372,8.874 C72.5,8.75 72.564,8.58 72.564,8.364 L72.564,8.364 L72.564,5.436 C72.564,4.612 72.366,3.998 71.97,3.594 C71.574,3.19 70.968,2.988 70.152,2.988 C69.776,2.988 69.394,3.032 69.006,3.12 C68.618,3.208 68.284,3.328 68.004,3.48 C67.844,3.568 67.73,3.662 67.662,3.762 C67.594,3.862 67.56,3.98 67.56,4.116 C67.56,4.284 67.606,4.42 67.698,4.524 C67.79,4.628 67.908,4.68 68.052,4.68 C68.148,4.68 68.3,4.628 68.508,4.524 C68.836,4.396 69.12,4.298 69.36,4.23 C69.6,4.162 69.836,4.128 70.068,4.128 C70.444,4.128 70.716,4.218 70.884,4.398 C71.052,4.578 71.136,4.864 71.136,5.256 L71.136,5.256 L71.136,5.532 L70.836,5.532 C69.964,5.532 69.28,5.588 68.784,5.7 C68.288,5.812 67.93,5.992 67.71,6.24 C67.49,6.488 67.38,6.828 67.38,7.26 C67.38,7.604 67.472,7.916 67.656,8.196 C67.84,8.476 68.092,8.696 68.412,8.856 C68.732,9.016 69.088,9.096 69.48,9.096 Z M69.78,8.016 C69.516,8.016 69.294,7.934 69.114,7.77 C68.934,7.606 68.844,7.396 68.844,7.14 C68.844,6.932 68.908,6.768 69.036,6.648 C69.164,6.528 69.376,6.444 69.672,6.396 C69.968,6.348 70.384,6.324 70.92,6.324 L70.92,6.324 L71.136,6.324 L71.136,6.576 C71.136,7 71.01,7.346 70.758,7.614 C70.506,7.882 70.18,8.016 69.78,8.016 Z M78.84,9.072 C79.072,9.072 79.254,9.008 79.386,8.88 C79.518,8.752 79.584,8.576 79.584,8.352 L79.584,8.352 L79.584,5.4 C79.584,4.592 79.412,3.988 79.068,3.588 C78.724,3.188 78.2,2.988 77.496,2.988 C77.072,2.988 76.692,3.076 76.356,3.252 C76.02,3.428 75.752,3.68 75.552,4.008 L75.552,4.008 L75.552,3.684 C75.552,3.484 75.486,3.322 75.354,3.198 C75.222,3.074 75.052,3.012 74.844,3.012 C74.612,3.012 74.428,3.076 74.292,3.204 C74.156,3.332 74.088,3.5 74.088,3.708 L74.088,3.708 L74.088,8.352 C74.088,8.576 74.154,8.752 74.286,8.88 C74.418,9.008 74.6,9.072 74.832,9.072 C75.064,9.072 75.248,9.008 75.384,8.88 C75.52,8.752 75.588,8.576 75.588,8.352 L75.588,8.352 L75.588,5.676 C75.588,5.22 75.718,4.856 75.978,4.584 C76.238,4.312 76.584,4.176 77.016,4.176 C77.384,4.176 77.654,4.28 77.826,4.488 C77.998,4.696 78.084,5.028 78.084,5.484 L78.084,5.484 L78.084,8.352 C78.084,8.576 78.152,8.752 78.288,8.88 C78.424,9.008 78.608,9.072 78.84,9.072 Z M83.388,9.096 C83.812,9.096 84.19,9.004 84.522,8.82 C84.854,8.636 85.108,8.38 85.284,8.052 L85.284,8.052 L85.284,8.352 C85.284,8.568 85.352,8.74 85.488,8.868 C85.624,8.996 85.804,9.06 86.028,9.06 C86.252,9.06 86.432,8.996 86.568,8.868 C86.704,8.74 86.772,8.568 86.772,8.352 L86.772,8.352 L86.772,1.176 C86.772,0.968 86.7,0.8 86.556,0.672 C86.412,0.544 86.228,0.48 86.004,0.48 C85.78,0.48 85.602,0.542 85.47,0.666 C85.338,0.79 85.272,0.952 85.272,1.152 L85.272,1.152 L85.272,3.996 C85.096,3.676 84.844,3.428 84.516,3.252 C84.188,3.076 83.812,2.988 83.388,2.988 C82.876,2.988 82.424,3.112 82.032,3.36 C81.64,3.608 81.334,3.96 81.114,4.416 C80.894,4.872 80.784,5.404 80.784,6.012 C80.784,6.62 80.894,7.158 81.114,7.626 C81.334,8.094 81.642,8.456 82.038,8.712 C82.434,8.968 82.884,9.096 83.388,9.096 Z M83.784,7.932 C83.312,7.932 82.944,7.764 82.68,7.428 C82.416,7.092 82.284,6.62 82.284,6.012 C82.284,5.412 82.416,4.952 82.68,4.632 C82.944,4.312 83.316,4.152 83.796,4.152 C84.268,4.152 84.634,4.314 84.894,4.638 C85.154,4.962 85.284,5.428 85.284,6.036 C85.284,6.644 85.154,7.112 84.894,7.44 C84.634,7.768 84.264,7.932 83.784,7.932 Z" id="StartCommand" fill="#98B4CD" fill-rule="nonzero"></path>
                        </g>
                    </g>
                </g>
            </g>
        </g>
    </g>
</svg>