<?xml version="1.0" encoding="UTF-8"?>
<svg width="39px" height="41px" viewBox="0 0 39 41" version="1.1" xmlns="http://www.w3.org/2000/svg" xmlns:xlink="http://www.w3.org/1999/xlink">
    <!-- Generator: Sketch 60.1 (88133) - https://sketch.com -->
    <title>icon-noframework-postgres</title>
    <desc>Created with Sketch.</desc>
    <g id="Home-Revamp" stroke="none" stroke-width="1" fill="none" fill-rule="evenodd">
        <g id="1---homepage-part-2" transform="translate(-37.000000, -2677.000000)" fill="#FFFFFF">
            <g id="Techs" transform="translate(0.000000, 2488.400000)">
                <g id="icon-noframework-postgres" transform="translate(37.000000, 189.000000)">
                    <path d="M38.7731148,24.1914754 C38.6255738,23.2347541 37.8219672,22.6081967 36.8872131,22.5659016 C36.5488525,22.5504918 36.2052459,22.5859016 35.8678689,22.6288525 C35.4603279,22.6806557 35.0577049,22.772459 34.6511475,22.8331148 C34.3701639,22.875082 34.0852459,22.8944262 33.8045902,22.9232787 L33.7977049,22.8868852 C34.3216393,21.897377 34.867541,20.9186885 35.3632787,19.915082 C35.7432787,19.1452459 36.0685246,18.347541 36.4045902,17.5563934 C36.9606557,16.2455738 37.404918,14.8940984 37.7727869,13.5206557 C38.1252459,12.2055738 38.4268852,10.8760656 38.5216393,9.51180328 C38.5596721,8.96688525 38.5859016,8.41967213 38.5829508,7.87409836 C38.5803279,7.43901639 38.5334426,7.00327869 38.4898361,6.5695082 C38.4406557,6.07245902 38.2904918,5.60131148 38.082623,5.14786885 C37.8085246,4.5504918 37.3836066,4.06032787 36.9363934,3.5947541 C36.5783607,3.22196721 36.1845902,2.88229508 35.7940984,2.54295082 C35.237377,2.05868852 34.6114754,1.67213115 33.9613115,1.32885246 C33.222623,0.938688525 32.4462295,0.633442623 31.6367213,0.427213115 C31.1472131,0.302295082 30.6465574,0.209508197 30.1508197,0.110491803 C29.972459,0.0744262295 29.7937705,7.54951657e-15 29.6154098,7.54951657e-15 L26.2577049,7.54951657e-15 C26.1363934,7.54951657e-15 26.0160656,0.0626229508 25.8937705,0.0763934426 C25.0898361,0.165901639 24.2954098,0.317377049 23.5239344,0.556393443 C23.2354098,0.645901639 22.9718033,0.589508197 22.6977049,0.564262295 C22.487541,0.544918033 22.2809836,0.48852459 22.0708197,0.478032787 C21.2701639,0.438032787 20.4685246,0.379344262 19.6681967,0.387868852 C18.9013115,0.395737705 18.1422951,0.521967213 17.4,0.732786885 C16.7786885,0.909180328 16.1708197,1.12459016 15.6140984,1.45114754 C15.3757377,1.59081967 15.1868852,1.56459016 14.9403279,1.49344262 C14.1118033,1.25442623 13.277377,1.02983607 12.4357377,0.841311475 C11.9111475,0.723934426 11.3718033,0.66557377 10.8360656,0.609508197 C10.322623,0.556065574 9.8052459,0.523934426 9.28918033,0.513114754 C8.78491803,0.502295082 8.27704918,0.502622951 7.77508197,0.547213115 C6.97540984,0.618360656 6.19081967,0.780983607 5.42819672,1.04327869 C4.58131148,1.33442623 3.80491803,1.75639344 3.10491803,2.3104918 C2.39442623,2.87278689 1.82459016,3.55934426 1.36622951,4.34327869 C0.883278689,5.1704918 0.552131148,6.05606557 0.346229508,6.98622951 C0.234754098,7.49016393 0.164262295,8.00819672 0.0878688525,8.52 C0.0639344262,8.67934426 0.327868852,8.83868852 1.86517468e-14,8.99737705 L1.86517468e-14,11.224918 C0.327868852,11.3731148 0.0681967213,11.5209836 0.0872131148,11.6695082 C0.132786885,12.0265574 0.173114754,12.3865574 0.233442623,12.7409836 C0.328852459,13.3019672 0.441967213,13.8613115 0.557377049,14.4186885 C0.718360656,15.197377 0.885901639,15.9754098 1.0642623,16.7501639 C1.19409836,17.3140984 1.34196721,17.8747541 1.49672131,18.432459 C1.73311475,19.2842623 1.96590164,20.1377049 2.23311475,20.98 C2.48131148,21.762623 2.76557377,22.5340984 3.04754098,23.3055738 C3.43803279,24.3727869 3.90557377,25.4055738 4.46622951,26.3954098 C4.95114754,27.252459 5.5052459,28.055082 6.24852459,28.7154098 C6.73836066,29.1504918 7.28360656,29.484918 7.91836066,29.6521311 C8.41704918,29.7832787 8.92393443,29.7990164 9.43442623,29.6944262 C10.0262295,29.5731148 10.5501639,29.3183607 11.0160656,28.9367213 C11.0695082,28.8927869 11.1281967,28.8593443 11.1914754,28.94 C11.432459,29.2452459 11.755082,29.4488525 12.092459,29.624918 C13.0029508,30.0996721 13.995082,30.2419672 15.0029508,30.3 C15.2468852,30.3140984 15.4934426,30.2790164 15.7393443,30.2721311 C16.2183607,30.2590164 16.6839344,30.1655738 17.1419672,30.0331148 C17.3819672,29.9636066 17.6163934,29.8754098 17.8606557,29.7931148 C17.8734426,30.0531148 17.8898361,30.3036066 17.897377,30.5540984 L17.9314754,31.92 C17.9377049,32.1278689 17.9459016,32.3363934 17.9652459,32.5432787 C18.0147541,33.0767213 18.0632787,33.6104918 18.1268852,34.1422951 C18.1711475,34.5088525 18.2170492,34.8783607 18.3032787,35.2360656 C18.4767213,35.9583607 18.7118033,36.6616393 19.0108197,37.3436066 C19.3042623,38.0127869 19.7262295,38.5777049 20.2895082,39.0436066 C21.017377,39.6455738 21.8704918,39.9022951 22.7918033,39.9498361 C23.1727869,39.9698361 23.5645902,39.9511475 23.9396721,39.8829508 C24.5340984,39.775082 25.1272131,39.6393443 25.7059016,39.464918 C26.8832787,39.1095082 27.9009836,38.4957377 28.6613115,37.5039344 C29.0940984,36.9386885 29.4495082,36.3272131 29.6777049,35.6521311 C29.8659016,35.0944262 30.0432787,34.5311475 30.1842623,33.9603279 C30.2957377,33.5104918 30.3508197,33.0465574 30.4186885,32.5872131 C30.4636066,32.2832787 30.4904918,31.9763934 30.5186885,31.6701639 C30.5645902,31.1727869 30.6114754,30.6757377 30.6445902,30.177377 C30.667541,29.8304918 30.6665574,29.4819672 30.6803279,29.1344262 C30.6845902,29.0285246 30.7016393,28.9232787 30.7114754,28.8177049 C30.7206557,28.72 30.7698361,28.6862295 30.8695082,28.6878689 C31.2206557,28.6931148 31.572459,28.7022951 31.922623,28.6865574 C32.315082,28.6688525 32.7111475,28.6521311 33.097377,28.5872131 C33.6472131,28.495082 34.1944262,28.3786885 34.7334426,28.237377 C35.3704918,28.0708197 35.9547541,27.772459 36.5170492,27.432459 C37.1721311,27.0367213 37.7691803,26.572459 38.2537705,25.9744262 C38.675082,25.4527869 38.8747541,24.8498361 38.7731148,24.1914754 L38.7731148,24.1914754 Z M37.6544262,24.5134426 C37.6327869,24.8134426 37.4954098,25.0704918 37.2960656,25.2901639 C36.3554098,26.3272131 35.1754098,26.9563934 33.8255738,27.2662295 C33.3127869,27.3836066 32.7836066,27.4445902 32.2586885,27.4931148 C31.8118033,27.5344262 31.3583607,27.5413115 30.9098361,27.524918 C30.58,27.512459 30.2527869,27.4370492 29.9157377,27.3885246 C29.8819672,27.6967213 29.8498361,28.0177049 29.8108197,28.3380328 L29.6537705,29.5659016 C29.6062295,29.955082 29.5691803,30.3455738 29.5203279,30.7344262 C29.472459,31.1118033 29.4127869,31.4878689 29.362623,31.8652459 C29.3157377,32.2167213 29.2813115,32.5698361 29.2291803,32.9206557 C29.1488525,33.4583607 29.0721311,33.997377 28.9672131,34.5308197 C28.8413115,35.1685246 28.6481967,35.7862295 28.3331148,36.3613115 C27.9488525,37.0632787 27.4039344,37.5980328 26.7104918,37.9940984 C25.9957377,38.402623 25.2144262,38.615082 24.4222951,38.7927869 C23.8616393,38.9186885 23.2839344,38.9393443 22.7160656,38.8881967 C21.7311475,38.7990164 20.8904918,38.3777049 20.255082,37.6140984 C19.6485246,36.8852459 19.2380328,36.0498361 19.0911475,35.1042623 C19.0209836,34.6547541 18.9704918,34.2013115 18.9301639,33.7481967 C18.8855738,33.2442623 18.855082,32.7386885 18.8321311,32.2334426 C18.8029508,31.5918033 18.7816393,30.9501639 18.767541,30.3085246 C18.7501639,29.5196721 18.7445902,28.7308197 18.7334426,27.9419672 L18.7314754,27.9118033 C18.3301639,28.152459 17.9357377,28.4160656 17.517377,28.6331148 C17.027541,28.887541 16.4954098,29.035082 15.9442623,29.0767213 C15.5121311,29.1095082 15.0744262,29.1393443 14.6442623,29.104918 C13.9390164,29.0481967 13.2344262,28.9377049 12.6029508,28.5904918 C12.3468852,28.4495082 12.0796721,28.2780328 11.9032787,28.0527869 C11.4803279,27.5131148 11.6829508,26.8311475 12.3206557,26.5029508 C12.7613115,26.2757377 13.2422951,26.1809836 13.72,26.0704918 C14.135082,25.9744262 14.5481967,25.8652459 14.9531148,25.7331148 C15.3537705,25.6019672 15.6065574,25.2770492 15.8560656,24.9583607 L16.2514754,24.4498361 C16.0865574,24.432459 15.9311475,24.4147541 15.7757377,24.4003279 C15.3039344,24.3557377 14.8537705,24.2259016 14.4232787,24.035082 C14.0547541,23.8721311 14.0491803,23.8544262 13.7790164,24.147541 C13.3278689,24.637377 12.8891803,25.1386885 12.4472131,25.6367213 C12.1219672,26.0029508 11.7986885,26.3714754 11.475082,26.7386885 C11.1544262,27.1019672 10.8540984,27.4859016 10.5088525,27.8239344 C9.99606557,28.3259016 9.37803279,28.6278689 8.64065574,28.5937705 C8.16754098,28.5721311 7.73442623,28.4062295 7.34491803,28.135082 C6.54098361,27.575082 5.99934426,26.7918033 5.50622951,25.9691803 C4.87442623,24.915082 4.3895082,23.7921311 3.97442623,22.6383607 C3.68721311,21.8409836 3.39868852,21.0429508 3.14786885,20.2340984 C2.87540984,19.355082 2.63639344,18.464918 2.40131148,17.575082 C2.22360656,16.9036066 2.06590164,16.2265574 1.91540984,15.5481967 C1.74459016,14.7767213 1.58032787,14.0039344 1.43540984,13.2272131 C1.33770492,12.7029508 1.28098361,12.1711475 1.20196721,11.6432787 C1.09540984,10.9318033 1.0757377,10.2137705 1.11442623,9.49934426 C1.14885246,8.8557377 1.24131148,8.21377049 1.33311475,7.57442623 C1.46032787,6.68983607 1.75180328,5.85508197 2.17114754,5.06688525 C2.42786885,4.58393443 2.74655738,4.14491803 3.11508197,3.73704918 C3.72,3.06754098 4.45213115,2.58360656 5.26655738,2.22032787 C5.8357377,1.96655738 6.43704918,1.81377049 7.04983607,1.69442623 C7.95934426,1.51737705 8.87704918,1.5242623 9.79508197,1.54327869 C10.1963934,1.55147541 10.5960656,1.62459016 10.9970492,1.6642623 C11.8603279,1.75016393 12.7065574,1.93180328 13.5419672,2.15606557 C14.1508197,2.31934426 14.7472131,2.53081967 15.3511475,2.71442623 C15.4118033,2.73278689 15.5006557,2.73114754 15.5501639,2.69868852 C16.3685246,2.16459016 17.2629508,1.81213115 18.2140984,1.6104918 C18.575082,1.53409836 18.947541,1.50065574 19.3167213,1.47704918 C19.7655738,1.44852459 20.2180328,1.42229508 20.6659016,1.44819672 C21.2042623,1.47901639 21.74,1.55836066 22.275082,1.63180328 C22.5347541,1.66721311 22.7881967,1.75737705 23.0485246,1.78196721 C23.1731148,1.79377049 23.3052459,1.70262295 23.4370492,1.67213115 C24.1088525,1.51704918 24.7777049,1.3442623 25.4554098,1.22163934 C25.96,1.1304918 26.4754098,1.08754098 26.9885246,1.05803279 C27.5606557,1.0252459 28.1370492,1.00131148 28.7088525,1.02885246 C29.4318033,1.06360656 30.1495082,1.16655738 30.8580328,1.33147541 C31.7357377,1.5357377 32.5777049,1.83245902 33.3780328,2.2442623 C33.9760656,2.55180328 34.5445902,2.90852459 35.0563934,3.34721311 C35.3918033,3.63508197 35.735082,3.91934426 36.0380328,4.24 C36.4118033,4.63540984 36.7931148,5.03114754 37.027541,5.53770492 C37.2039344,5.91967213 37.3298361,6.31508197 37.3645902,6.73344262 C37.4078689,7.25344262 37.4603279,7.77540984 37.4554098,8.29606557 C37.4508197,8.79409836 37.3829508,9.29180328 37.3347541,9.78852459 C37.2252459,10.9209836 36.9790164,12.0288525 36.68,13.1219672 C36.4327869,14.024918 36.1439344,14.9180328 35.8311475,15.8006557 C35.5429508,16.6140984 35.2104918,17.4127869 34.8744262,18.2081967 C34.6262295,18.7963934 34.3590164,19.3783607 34.0685246,19.9468852 C33.5186885,21.0242623 32.9468852,22.0904918 32.2855738,23.1052459 C32.1714754,23.2806557 32.0632787,23.4603279 31.9518033,23.6393443 C32.2403279,23.8340984 32.5672131,23.902623 32.8963934,23.9380328 C33.2095082,23.9721311 33.5288525,23.992459 33.8416393,23.9691803 C34.3422951,23.9321311 34.8413115,23.8606557 35.3390164,23.7908197 C35.8321311,23.7219672 36.3154098,23.5816393 36.8216393,23.6186885 C37.3272131,23.6554098 37.6888525,24.0396721 37.6544262,24.5134426 L37.6544262,24.5134426 Z M30.4370492,23.4140984 C30.2222951,23.1367213 30.0032787,22.862623 29.7931148,22.5819672 C29.4632787,22.1413115 29.2262295,21.6491803 28.9881967,21.1547541 C28.762623,20.6862295 28.4859016,20.242623 28.2481967,19.7793443 C27.8334426,18.9711475 27.4111475,18.1655738 27.0291803,17.3416393 C26.5488525,16.3065574 26.1701639,15.2347541 26.0508197,14.0881967 C26.0003279,13.6029508 25.987541,13.1183607 26.0855738,12.6377049 C26.242623,11.8701639 26.6436066,11.2698361 27.3177049,10.8580328 C27.9429508,10.4760656 28.6396721,10.3527869 29.3534426,10.3140984 C29.7963934,10.2901639 30.2413115,10.3098361 30.7009836,10.3098361 L30.6855738,10.2321311 C30.3996721,9.63442623 30.132459,9.02655738 29.8196721,8.44295082 C29.3783607,7.61934426 28.8137705,6.87672131 28.184918,6.18819672 C27.7190164,5.67836066 27.2144262,5.2052459 26.6616393,4.78721311 C26.1180328,4.3757377 25.5452459,4.00819672 24.9340984,3.70754098 C24.2052459,3.34918033 23.4462295,3.07213115 22.6498361,2.89540984 C21.8845902,2.72557377 21.1144262,2.62163934 20.3295082,2.61311475 C19.66,2.60590164 18.9947541,2.63606557 18.342623,2.78721311 C17.3583607,3.01508197 16.4580328,3.42032787 15.6747541,4.07672131 C15.237377,4.44327869 14.8557377,4.8547541 14.5216393,5.31278689 C14.1295082,5.85147541 13.8131148,6.43311475 13.542623,7.04295082 C13.1714754,7.87967213 12.9167213,8.7504918 12.742623,9.64557377 C12.6554098,10.0918033 12.5872131,10.5419672 12.5177049,10.9918033 C12.4934426,11.1491803 12.4914754,11.3101639 12.477377,11.4904918 C12.5983607,11.427541 12.6855738,11.3790164 12.7747541,11.3357377 L13.064918,11.2055738 C14.0462295,10.7567213 15.0629508,10.4678689 16.1557377,10.5009836 C16.62,10.515082 17.0642623,10.6068852 17.4770492,10.8101639 C18.2688525,11.2006557 18.7321311,11.8645902 18.9334426,12.704918 C19.072459,13.284918 19.167541,13.8763934 19.26,14.4662295 C19.332459,14.9268852 19.4065574,15.392459 19.415082,15.8570492 C19.4272131,16.5360656 19.3927869,17.2163934 19.3557377,17.895082 C19.3242623,18.4734426 19.2036066,19.042623 19.0016393,19.5822951 C18.6344262,20.5636066 18.2252459,21.5288525 17.8429508,22.5045902 C17.7167213,22.8268852 17.6196721,23.1606557 17.5003279,23.515082 C17.6845902,23.515082 17.8340984,23.5137705 17.9836066,23.5157377 C18.0419672,23.5167213 18.1016393,23.5183607 18.1580328,23.5318033 C18.597377,23.6354098 18.9783607,23.8344262 19.2908197,24.172459 C19.707541,24.6222951 19.9262295,25.1472131 19.937377,25.7547541 C19.9436066,26.0914754 19.9081967,26.4291803 19.9098361,26.7659016 C19.9167213,28.335082 19.9285246,29.9042623 19.9416393,31.4731148 C19.9439344,31.7295082 19.9567213,31.9862295 19.975082,32.2422951 C20.0134426,32.7783607 20.0521311,33.3147541 20.1045902,33.8495082 C20.1413115,34.2288525 20.192459,34.607541 20.252459,34.9842623 C20.337377,35.5180328 20.5803279,35.9931148 20.8560656,36.4472131 C21.0934426,36.8377049 21.4019672,37.1695082 21.8085246,37.3983607 C22.4993443,37.7872131 23.2432787,37.8196721 23.9931148,37.6763934 C24.4996721,37.5796721 24.9970492,37.4242623 25.4888525,37.2639344 C25.9737705,37.1062295 26.4118033,36.8478689 26.7796721,36.4921311 C27.1242623,36.1580328 27.3688525,35.7508197 27.5337705,35.3013115 C27.8537705,34.4295082 27.9534426,33.5114754 28.0859016,32.6006557 C28.1354098,32.2596721 28.1783607,31.9177049 28.2236066,31.5760656 C28.275082,31.1872131 28.3272131,30.7986885 28.3770492,30.4101639 C28.4137705,30.1206557 28.4472131,29.8304918 28.482623,29.5409836 C28.5331148,29.1252459 28.5865574,28.7098361 28.6347541,28.2937705 C28.6718033,27.9721311 28.7032787,27.6491803 28.7360656,27.3268852 C28.7783607,26.915082 28.8239344,26.5032787 28.8603279,26.0908197 C28.8885246,25.7777049 28.8770492,25.4590164 28.932459,25.1518033 C29.0344262,24.5885246 29.3006557,24.1091803 29.8,23.7993443 C30.0088525,23.6698361 30.2445902,23.5845902 30.4763934,23.475082 L30.4370492,23.4140984 L30.4370492,23.4140984 Z M11.5527869,21.1019672 C11.3032787,20.5111475 11.1534426,19.8954098 11.1088525,19.2586885 C11.0668852,18.6603279 11.1380328,18.0642623 11.1993443,17.4685246 C11.2590164,16.8914754 11.3085246,16.3118033 11.3259016,15.7321311 C11.3547541,14.7793443 11.2904918,13.8278689 11.244918,12.8757377 C11.217377,12.3088525 11.2832787,11.735082 11.3337705,11.1668852 C11.3793443,10.655082 11.4360656,10.1419672 11.5327869,9.63770492 C11.695082,8.79147541 11.9104918,7.95737705 12.2167213,7.14885246 C12.507541,6.38229508 12.8416393,5.6357377 13.3134426,4.96360656 C13.6367213,4.50262295 14.0036066,4.07180328 14.3560656,3.62131148 L14.2514754,3.5842623 C13.1045902,3.22 11.9390164,2.93540984 10.7403279,2.81114754 C10.1734426,2.75245902 9.60459016,2.71803279 9.03606557,2.6842623 C8.86163934,2.67377049 8.68459016,2.69737705 8.5095082,2.71409836 C8.07606557,2.75540984 7.63737705,2.77180328 7.21081967,2.85311475 C6.48491803,2.99114754 5.78852459,3.22327869 5.14360656,3.60131148 C4.56459016,3.94065574 4.07836066,4.37934426 3.67114754,4.90557377 C3.22131148,5.48655738 2.91868852,6.14360656 2.70131148,6.8442623 C2.44459016,7.67081967 2.32229508,8.52131148 2.28918033,9.37967213 C2.26032787,10.1321311 2.24590164,10.8888525 2.3757377,11.6383607 C2.47245902,12.1963934 2.53704918,12.7603279 2.64360656,13.3160656 C2.78885246,14.0737705 2.94459016,14.8298361 3.12459016,15.5796721 C3.38196721,16.6531148 3.63901639,17.7281967 3.94393443,18.7885246 C4.2357377,19.8045902 4.56491803,20.8114754 4.92163934,21.8062295 C5.21344262,22.6180328 5.55081967,23.4147541 5.90622951,24.2009836 C6.13770492,24.7131148 6.41803279,25.2059016 6.71180328,25.6855738 C7.0242623,26.1947541 7.37967213,26.6780328 7.86196721,27.047541 C8.4704918,27.5140984 8.94163934,27.5865574 9.56,27.0747541 C9.82491803,26.8554098 10.0488525,26.5845902 10.2793443,26.3265574 C10.6455738,25.9167213 10.9990164,25.4957377 11.3636066,25.0845902 C11.8278689,24.5606557 12.2980328,24.0422951 12.7645902,23.5209836 C12.8632787,23.4108197 12.9580328,23.297377 13.0540984,23.1859016 L12.8954098,23.0465574 C12.3154098,22.4895082 11.8662295,21.8436066 11.5527869,21.1019672 L11.5527869,21.1019672 Z M29.1554098,5.50557377 C29.5344262,5.95016393 29.9013115,6.40786885 30.2403279,6.88393443 C30.8960656,7.80491803 31.42,8.79934426 31.8059016,9.86327869 C31.9767213,10.3321311 32.1131148,10.8055738 32.0521311,11.3186885 C32.0098361,11.6780328 32.0134426,12.042623 31.9816393,12.4039344 C31.955082,12.7045902 31.907541,13.0036066 31.8685246,13.3032787 C31.8101639,13.755082 31.7255738,14.2055738 31.7003279,14.6593443 C31.6763934,15.0911475 31.7013115,15.527541 31.7285246,15.9603279 C31.7560656,16.4 31.8154098,16.8377049 31.8557377,17.2767213 C31.9013115,17.7744262 31.962623,18.2721311 31.9767213,18.7708197 C31.9881967,19.1803279 31.9518033,19.592459 31.9160656,20.0013115 C31.8734426,20.4937705 31.7485246,20.9704918 31.5622951,21.4278689 C31.4314754,21.7498361 31.275082,22.0619672 31.1272131,22.3842623 L31.1865574,22.4472131 L31.2767213,22.5170492 L31.367541,22.3544262 C32.1344262,21.1452459 32.8167213,19.8895082 33.407541,18.5862295 C33.787541,17.7468852 34.1436066,16.8957377 34.4852459,16.04 C35.0177049,14.707541 35.4390164,13.3377049 35.764918,11.9406557 C35.9111475,11.3134426 36.0229508,10.6767213 36.1222951,10.04 C36.1996721,9.54229508 36.2642623,9.03868852 36.2786885,8.53639344 C36.2940984,8.00360656 36.2645902,7.46655738 36.2154098,6.93508197 C36.1786885,6.53377049 36.0796721,6.12983607 35.8281967,5.80360656 C35.4239344,5.27836066 34.987541,4.77606557 34.4508197,4.37868852 C33.9990164,4.04393443 33.5488525,3.70065574 33.0639344,3.41901639 C32.295082,2.97311475 31.4629508,2.67606557 30.5934426,2.47377049 C29.744918,2.27606557 28.8852459,2.19081967 28.02,2.17278689 C27.5098361,2.16196721 26.997377,2.21672131 26.4881967,2.26459016 C26.0268852,2.30786885 25.5685246,2.38163934 25.1039344,2.44262295 C25.6022951,2.72295082 26.0937705,2.97213115 26.557377,3.26590164 C27.5321311,3.88327869 28.4055738,4.62622951 29.1554098,5.50557377 L29.1554098,5.50557377 Z M16.4914754,22.7914754 C16.8065574,21.7839344 17.2357377,20.8219672 17.6514754,19.8540984 C17.9885246,19.0691803 18.1727869,18.2422951 18.2340984,17.3931148 C18.2645902,16.9744262 18.2560656,16.5504918 18.2354098,16.1304918 C18.2121311,15.6639344 18.1747541,15.1960656 18.1068852,14.7340984 C18.0196721,14.1436066 17.9203279,13.5527869 17.7806557,12.9731148 C17.6291803,12.3459016 17.2472131,11.9091803 16.5927869,11.7481967 C16.1940984,11.6501639 15.7980328,11.6540984 15.395082,11.7177049 C14.4108197,11.8727869 13.5098361,12.2354098 12.6704918,12.7665574 C12.5016393,12.8734426 12.4088525,12.9596721 12.4380328,13.2019672 C12.4996721,13.715082 12.5131148,14.2363934 12.5108197,14.7544262 C12.507541,15.487541 12.4763934,16.2206557 12.4485246,16.9534426 C12.4393443,17.1921311 12.404918,17.4295082 12.3793443,17.6672131 C12.34,18.0311475 12.2642623,18.3947541 12.2665064,18.7580328 C12.2688525,19.132459 12.3072131,19.5157377 12.3980328,19.8783607 C12.6865574,21.0281967 13.2977049,21.9691803 14.2993443,22.6331148 C14.9154098,23.0413115 15.5970492,23.2472131 16.3452459,23.2862295 C16.3960656,23.1144262 16.4413115,22.9521311 16.4914754,22.7914754 Z M15.3157377,12.9268852 C15.1839344,12.6501639 15.2593443,12.4209836 15.564918,12.3147541 C15.6393443,12.2885246 15.7160656,12.2606557 15.7934426,12.2531148 C15.8996721,12.242623 16.0078689,12.2504918 16.1154098,12.2504918 C16.5029508,12.252459 16.8757377,12.3065574 17.1957377,12.5531148 C17.4009836,12.7111475 17.4560656,12.9209836 17.3232787,13.1363934 C17.1347541,13.4419672 16.8472131,13.5954098 16.4940984,13.624918 C15.9377049,13.6711475 15.5472131,13.4118033 15.3157377,12.9268852 Z M30.7386885,12.8259016 C30.7832787,12.457377 30.8190164,12.0878689 30.8645902,11.7193443 C30.8829508,11.5711475 30.804918,11.5311475 30.6806557,11.527541 C30.2898361,11.5167213 29.8990164,11.5029508 29.5081967,11.4957377 C29.067541,11.4878689 28.6386885,11.5586885 28.2308197,11.7262295 C27.7783607,11.912459 27.4337705,12.2108197 27.2931148,12.7032787 C27.1881967,13.0704918 27.16,13.437377 27.1970492,13.8213115 C27.2534426,14.4065574 27.3832787,14.9744262 27.5881967,15.5183607 C27.8616393,16.2465574 28.1478689,16.9744262 28.4898361,17.6721311 C28.9531148,18.6167213 29.477377,19.5311475 29.9695082,20.4613115 C30.1009836,20.7095082 30.2114754,20.9685246 30.3485246,21.2583607 C30.6354098,20.6508197 30.7754098,20.042623 30.7914754,19.415082 C30.804918,18.8872131 30.762623,18.3570492 30.7318033,17.8288525 C30.712459,17.5055738 30.6668852,17.1842623 30.6354098,16.8616393 C30.5914754,16.4121311 30.524918,15.9629508 30.5147541,15.512459 C30.5045902,15.0544262 30.5370492,14.5937705 30.5763934,14.1363934 C30.6134426,13.6977049 30.6859016,13.262623 30.7386885,12.8259016 L30.7386885,12.8259016 Z M29.8570492,12.4711475 C29.7118033,12.8721311 29.4013115,13.0983607 28.9986885,13.164918 C28.6232787,13.2265574 28.2944262,13.0878689 28.0498361,12.7885246 C27.8757377,12.5754098 27.9422951,12.3229508 28.2032787,12.1790164 C28.5029508,12.0131148 28.832459,11.9711475 29.2209836,11.9459016 C29.3265574,11.9652459 29.4855738,11.9813115 29.6367213,12.0245902 C29.8560656,12.0865574 29.9370492,12.2514754 29.8570492,12.4711475 Z M18.2432787,24.8186885 C18.0285246,24.6432787 17.7445902,24.6331148 17.5403279,24.8255738 C17.2868852,25.064918 17.0639344,25.3386885 16.8409836,25.6085246 C16.5836066,25.9203279 16.3422951,26.2445902 16.0101639,26.4862295 C15.5268852,26.837377 14.9636066,26.9829508 14.397377,27.1206557 C13.9472131,27.2301639 13.495082,27.3318033 13.0436066,27.4370492 L13.0380328,27.4954098 C13.1721311,27.557377 13.3019672,27.6347541 13.4416393,27.6790164 C14.1301639,27.8970492 14.8304918,28.0055738 15.5580328,27.9439344 C16.0832787,27.8993443 16.5836066,27.784918 17.0577049,27.56 C17.7101639,27.2508197 18.2121311,26.7609836 18.6390164,26.1911475 C18.7104918,26.0960656 18.7429508,25.9554098 18.7514754,25.8327869 C18.7806557,25.3996721 18.5606557,25.0777049 18.2432787,24.8186885 L18.2432787,24.8186885 Z M35.2108197,24.9911475 C34.6567213,25.0504918 34.1019672,25.1134426 33.5462295,25.1452459 C33.2780328,25.1606557 33.0059016,25.1095082 32.735082,25.087541 C32.2809836,25.0508197 31.8377049,24.9498361 31.4537705,24.7072131 C31.2314754,24.5672131 31.0468852,24.5514754 30.8108197,24.6308197 C30.4737705,24.7442623 30.1986885,24.9167213 30.117377,25.2819672 C30.0619672,25.5288525 30.0419672,25.7845902 30.0196721,26.037377 C30.0154098,26.0819672 30.0711475,26.1639344 30.1137705,26.175082 C30.3737705,26.2436066 30.635082,26.3245902 30.9009836,26.3485246 C31.227541,26.3780328 31.56,26.3685246 31.8888525,26.3521311 C32.2439344,26.3344262 32.6013115,26.3114754 32.9511475,26.252459 C33.7757377,26.1140984 34.5734426,25.8885246 35.2819672,25.4209836 C35.537377,25.2521311 35.7904918,25.0796721 36.0442623,24.9088525 L36.0232787,24.8727869 C35.752459,24.9131148 35.4829508,24.9622951 35.2108197,24.9911475 L35.2108197,24.9911475 Z" id="Shape"></path>
                </g>
            </g>
        </g>
    </g>
</svg>