<?xml version="1.0" encoding="UTF-8"?>
<svg width="32px" height="41px" viewBox="0 0 32 41" version="1.1" xmlns="http://www.w3.org/2000/svg" xmlns:xlink="http://www.w3.org/1999/xlink">
    <!-- Generator: Sketch 60.1 (88133) - https://sketch.com -->
    <title>icon-noframework-golang</title>
    <desc>Created with Sketch.</desc>
    <g id="Home-Revamp" stroke="none" stroke-width="1" fill="none" fill-rule="evenodd">
        <g id="1---homepage-part-2" transform="translate(-351.000000, -2677.000000)" fill="#FFFFFF" fill-rule="nonzero">
            <g id="Techs" transform="translate(0.000000, 2488.400000)">
                <g id="icon-noframework-golang" transform="translate(351.462757, 189.000000)">
                    <path d="M21.5708333,9.64583333 C20.5941667,9.64583333 19.8033333,10.4375 19.8033333,11.4133333 C19.8033333,12.3891667 20.595,13.1808333 21.5708333,13.1808333 C22.5475,13.1808333 23.3383333,12.3891667 23.3383333,11.4133333 C23.3383333,10.4375 22.5475,9.64583333 21.5708333,9.64583333 Z M21.1058333,11.2116667 C20.7975,11.2116667 20.5475,10.9616667 20.5475,10.6533333 C20.5475,10.345 20.7975,10.095 21.1058333,10.095 C21.4141667,10.095 21.6641667,10.345 21.6641667,10.6533333 C21.6641667,10.9625 21.4141667,11.2116667 21.1058333,11.2116667 Z" id="Shape"></path>
                    <path d="M15.6008333,15.2783333 C15.0733333,15.2941667 14.4225,15.5266667 14.2358333,16.24 C13.8175,17.76 17.6008333,17.5275 17.5083333,16.55 C17.4616667,15.9758333 16.95,15.2475 15.6008333,15.2783333 Z" id="Path"></path>
                    <path d="M10.08,9.64583333 C9.10333333,9.64583333 8.3125,10.4375 8.3125,11.4133333 C8.3125,12.3891667 9.10416667,13.1808333 10.08,13.1808333 C11.0558333,13.1808333 11.8475,12.3891667 11.8475,11.4133333 C11.8475,10.4375 11.0566667,9.64583333 10.08,9.64583333 Z M10.545,11.2116667 C10.2366667,11.2116667 9.98666667,10.9616667 9.98666667,10.6533333 C9.98666667,10.345 10.2366667,10.095 10.545,10.095 C10.8533333,10.095 11.1033333,10.345 11.1033333,10.6533333 C11.1033333,10.9625 10.8533333,11.2116667 10.545,11.2116667 Z" id="Shape"></path>
                    <path d="M31.155,5.2575 C30.1158333,3.1325 27.6041667,5.00916667 26.9683333,4.3425 C23.7108333,0.9925 19.7725,0.155 16.6866667,0 C16.6866667,0 15.2908333,0 14.9808333,0 C11.8791667,0.0775 7.94,0.976666667 4.69916667,4.3425 C4.06333333,5.00916667 1.53583333,3.1325 0.511666667,5.2575 C-0.6825,7.73833333 2.94666667,7.98666667 2.76,9.0875 C2.40333333,11.0725 2.63583333,14.0191667 2.915,16.9191667 C3.03583333,18.2858333 2.83916667,20.1825 2.65583333,22.3091667 C3.50916667,22.3666667 4.16833333,23.3191667 4.16833333,24.535 C4.16833333,25.7883333 3.46916667,26.7716667 2.57583333,26.7716667 C2.51833333,26.7716667 2.46416667,26.7566667 2.4075,26.7483333 C2.37416667,30.6758333 3.01916667,34.7 5.98666667,37.3425 C6.25333333,37.195 6.5375,37.1108333 6.84166667,37.1108333 L6.84166667,37.1108333 C7.50166667,37.1108333 8.0525,37.4525 8.63666667,37.815 C8.87833333,37.965 9.1275,38.12 9.3925,38.2533333 C9.7775,38.45 9.99833333,38.815 10.0125,39.2125 C11.7741667,39.56 13.995,39.76 16.0333333,39.8075 L16.0491667,39.8075 L16.065,39.8075 C18.0508333,39.7616667 20.0425,39.5675 21.6483333,39.2366667 C21.59,38.7716667 21.815,38.325 22.2608333,38.0966667 C22.5216667,37.965 22.7708333,37.81 23.0125,37.66 C23.5958333,37.2983333 24.1475,36.9558333 24.8075,36.9558333 C25.1491667,36.9558333 25.4675,37.0516667 25.7608333,37.2358333 C28.6466667,34.5825 29.2758333,30.5958333 29.2416667,26.7066667 C29.1225,26.745 29,26.7708333 28.8716667,26.7708333 C27.9791667,26.7708333 27.2791667,25.7883333 27.2791667,24.5341667 C27.2791667,23.28 27.9783333,22.2966667 28.8716667,22.2966667 C28.9158333,22.2966667 28.9566667,22.31 29,22.3141667 C28.8191667,20.1841667 28.625,18.285 28.75,16.9175 C29.0133333,14.0175 29.2466667,11.0708333 28.905,9.08583333 C28.72,7.98666667 32.3491667,7.7225 31.155,5.2575 Z M2.91583333,6.91666667 C2.85333333,7.28833333 1.52,6.37333333 2.0625,5.70666667 C2.49666667,5.14833333 3.30333333,5.30333333 3.39583333,5.62916667 C3.48916667,5.955 3.07083333,5.90833333 2.91583333,6.91666667 Z M5.7375,11.2275 C6.14083333,8.06416667 8.82333333,6.575 10.4208333,6.76166667 C15.6,7.36666667 14.9025,12.7633333 12.9016667,14.5158333 C9.18083333,17.7716667 5.30333333,14.515 5.7375,11.2275 Z M16.81,20.7408333 C16.5,20.9425 15.1816667,20.7875 14.7008333,20.7408333 C13.9875,20.6633333 14.22,19.1433333 14.36,19.0816667 C14.515,19.0041667 16.4383333,18.8183333 17.0116667,19.19 C17.3533333,19.4233333 17.415,20.3533333 16.81,20.7408333 Z M18.9966667,17.2291667 C18.8108333,18.7641667 12.9641667,18.9658333 12.6541667,17.1358333 C12.4683333,16.0191667 13.3516667,15.3058333 15.8333333,14.9333333 C16.81,14.7941667 19.1516667,15.9108333 18.9966667,17.2291667 Z M18.7333333,14.515 C16.7325,12.7625 16.035,7.36583333 21.2141667,6.76083333 C22.8266667,6.575 25.51,8.06333333 25.8975,11.2266667 C26.3316667,14.515 22.455,17.7716667 18.7333333,14.515 Z M28.7358333,6.91666667 C28.5808333,5.90833333 28.1616667,5.955 28.255,5.62916667 C28.3325,5.30333333 29.1391667,5.14833333 29.5883333,5.70666667 C30.1316667,6.37333333 28.7975,7.28833333 28.7358333,6.91666667 Z" id="Shape"></path>
                    <path d="M25.57,38.2583333 C25.55,38.2366667 25.53,38.2166667 25.51,38.1966667 C25.45,38.1375 25.3908333,38.0858333 25.3308333,38.0441667 C25.3166667,38.0341667 25.3025,38.0216667 25.2891667,38.0125 C25.2175,37.9666667 25.145,37.9333333 25.0725,37.91 C25.055,37.9041667 25.0366667,37.9016667 25.0191667,37.8966667 C24.9608333,37.8816667 24.9025,37.8733333 24.8433333,37.8708333 C24.8316667,37.87 24.8208333,37.8658333 24.8091667,37.8658333 C24.8008333,37.8658333 24.7925,37.8683333 24.7833333,37.8691667 C24.7216667,37.8708333 24.6591667,37.8775 24.5966667,37.8908333 C24.5891667,37.8925 24.5825,37.8925 24.575,37.8941667 C24.5041667,37.91 24.4325,37.9341667 24.3591667,37.9616667 C24.3366667,37.97 24.3141667,37.9808333 24.2916667,37.99 C24.2391667,38.0125 24.1858333,38.0366667 24.1316667,38.0633333 C24.1058333,38.0758333 24.0808333,38.0891667 24.055,38.1025 C23.9966667,38.1333333 23.9375,38.1666667 23.8775,38.2008333 C23.8591667,38.2116667 23.8408333,38.2216667 23.8216667,38.2325 C23.7416667,38.28 23.6608333,38.3291667 23.5775,38.3808333 C23.5016667,38.4275 23.425,38.4758333 23.3458333,38.5241667 C23.3158333,38.5425 23.2858333,38.5608333 23.255,38.58 C23.19,38.62 23.1233333,38.6591667 23.0558333,38.6983333 C23.0258333,38.7158333 22.9966667,38.7333333 22.9666667,38.75 C22.8716667,38.8041667 22.775,38.8575 22.6741667,38.9083333 C22.6216667,38.935 22.5908333,38.9691667 22.5683333,39.0058333 C22.565,39.0116667 22.5583333,39.0158333 22.555,39.0216667 C22.5533333,39.0258333 22.5558333,39.03 22.5541667,39.0341667 C22.5408333,39.07 22.5366667,39.1075 22.5466667,39.1483333 C22.5475,39.1516667 22.5466667,39.1541667 22.5475,39.1575 C22.56,39.2016667 22.5891667,39.2475 22.6266667,39.2941667 C22.6358333,39.3058333 22.6466667,39.3175 22.6575,39.3291667 C22.6958333,39.3708333 22.7416667,39.4116667 22.7975,39.4525 C22.8058333,39.4583333 22.8116667,39.4641667 22.82,39.47 C22.885,39.515 22.9616667,39.5575 23.0458333,39.5975 C23.0658333,39.6075 23.0883333,39.6166667 23.1091667,39.6258333 C23.1858333,39.6591667 23.2691667,39.69 23.3575,39.7175 C23.375,39.7225 23.3908333,39.7291667 23.4083333,39.7341667 C23.5133333,39.7641667 23.6266667,39.7875 23.745,39.8058333 C23.7733333,39.81 23.8025,39.8133333 23.8316667,39.8166667 C23.935,39.83 24.0425,39.8375 24.1541667,39.8391667 C24.1741667,39.8391667 24.1908333,39.8433333 24.2108333,39.8433333 C24.22,39.8433333 24.2308333,39.8416667 24.24,39.8416667 C24.2991667,39.8408333 24.3616667,39.8358333 24.4225,39.8325 C24.47,39.8291667 24.5166667,39.8283333 24.5658333,39.8225 C24.6316667,39.815 24.6991667,39.8025 24.7658333,39.7908333 C24.8125,39.7825 24.8591667,39.7775 24.9066667,39.7666667 C24.9825,39.75 25.06,39.7266667 25.1366667,39.7041667 C25.1775,39.6925 25.2175,39.6833333 25.2591667,39.67 C25.3783333,39.63 25.4983333,39.5833333 25.62,39.5275 C26.1166667,39.295 26.1008333,38.985 25.7908333,38.535 C25.7158333,38.4275 25.6425,38.3383333 25.57,38.2583333 Z" id="Path"></path>
                    <path d="M9.08416667,39.1616667 C9.0625,39.125 9.03083333,39.0908333 8.97833333,39.0641667 C8.8775,39.0133333 8.78083333,38.96 8.68583333,38.9058333 C8.655,38.8883333 8.625,38.8708333 8.595,38.8533333 C8.52833333,38.8141667 8.46333333,38.7758333 8.39916667,38.7366667 C8.36666667,38.7166667 8.33416667,38.6975 8.30166667,38.6775 C8.22916667,38.6325 8.1575,38.5883333 8.0875,38.545 C8,38.4908333 7.91416667,38.4383333 7.83083333,38.3883333 C7.81,38.3758333 7.79,38.365 7.77,38.3533333 C7.71166667,38.3191667 7.65416667,38.2875 7.5975,38.2575 C7.57083333,38.2433333 7.545,38.23 7.51833333,38.2175 C7.465,38.1908333 7.41166667,38.1666667 7.36,38.145 C7.3375,38.135 7.31416667,38.125 7.29166667,38.1158333 C7.21916667,38.0883333 7.14666667,38.0641667 7.07666667,38.0483333 C7.06916667,38.0466667 7.0625,38.0466667 7.055,38.045 C6.99166667,38.0316667 6.93,38.025 6.86833333,38.0233333 C6.865,38.0233333 6.8625,38.0225 6.85916667,38.0225 C6.85333333,38.0225 6.84833333,38.0208333 6.8425,38.0208333 C6.83083333,38.0208333 6.82,38.025 6.80833333,38.0258333 C6.74916667,38.0283333 6.69,38.0366667 6.63166667,38.0516667 C6.61416667,38.0558333 6.59666667,38.0591667 6.57916667,38.0641667 C6.50666667,38.0875 6.43416667,38.1208333 6.3625,38.1666667 C6.34833333,38.1758333 6.33416667,38.1883333 6.32,38.1983333 C6.26083333,38.24 6.20083333,38.2908333 6.14166667,38.3508333 C6.12166667,38.3708333 6.10166667,38.3908333 6.08166667,38.4125 C6.00916667,38.4925 5.93583333,38.5816667 5.86166667,38.6908333 C5.55166667,39.1408333 5.53583333,39.4508333 6.0325,39.6833333 C6.15416667,39.7391667 6.27416667,39.7858333 6.39333333,39.8258333 C6.435,39.8391667 6.47416667,39.8483333 6.51583333,39.86 C6.59333333,39.8825 6.67083333,39.9058333 6.74583333,39.9225 C6.79333333,39.9333333 6.83916667,39.9383333 6.88666667,39.9466667 C6.95416667,39.9583333 7.02166667,39.9708333 7.08666667,39.9783333 C7.135,39.9841667 7.1825,39.985 7.23,39.9883333 C7.29166667,39.9925 7.35333333,39.9975 7.4125,39.9975 C7.42166667,39.9975 7.4325,39.9991667 7.44166667,39.9991667 C7.46166667,39.9991667 7.47916667,39.9958333 7.49916667,39.995 C7.61,39.9925 7.71666667,39.985 7.82,39.9725 C7.84916667,39.9691667 7.88,39.9658333 7.90833333,39.9616667 C8.02666667,39.9433333 8.14,39.92 8.24416667,39.89 C8.2625,39.885 8.27833333,39.8783333 8.29666667,39.8725 C8.385,39.845 8.46833333,39.8141667 8.54416667,39.7808333 C8.56583333,39.7716667 8.5875,39.7625 8.60833333,39.7525 C8.6925,39.7125 8.76916667,39.67 8.83416667,39.625 C8.8425,39.6191667 8.84833333,39.6133333 8.85583333,39.6075 C8.91166667,39.5666667 8.95833333,39.525 8.99666667,39.4833333 C9.0075,39.4716667 9.01833333,39.46 9.0275,39.4483333 C9.065,39.4016667 9.09416667,39.3558333 9.10666667,39.3116667 C9.1075,39.3083333 9.10666667,39.3058333 9.1075,39.3025 C9.1175,39.2616667 9.11333333,39.2241667 9.1,39.1883333 C9.095,39.18 9.09,39.1708333 9.08416667,39.1616667 Z" id="Path"></path>
                    <path d="M3.25916667,24.535 C3.25916667,23.775 2.89916667,23.2075 2.57666667,23.2075 C2.255,23.2075 1.89416667,23.775 1.89416667,24.535 C1.89416667,25.295 2.25416667,25.8616667 2.57666667,25.8616667 C2.89916667,25.8616667 3.25916667,25.295 3.25916667,24.535 Z" id="Path"></path>
                    <path d="M28.8725,23.2075 C28.55,23.2075 28.19,23.775 28.19,24.535 C28.19,25.295 28.55,25.8616667 28.8725,25.8616667 C29.195,25.8616667 29.555,25.295 29.555,24.535 C29.5541667,23.7758333 29.195,23.2075 28.8725,23.2075 Z" id="Path"></path>
                </g>
            </g>
        </g>
    </g>
</svg>