<?xml version="1.0" encoding="UTF-8"?>
<svg width="320px" height="200px" viewBox="0 0 320 200" version="1.1" xmlns="http://www.w3.org/2000/svg" xmlns:xlink="http://www.w3.org/1999/xlink">
    <!-- Generator: Sketch 54.1 (76490) - https://sketchapp.com -->
    <title>workflow-prometheus-grafana</title>
    <desc>Created with Sketch.</desc>
    <defs>
        <linearGradient x1="49.8224719%" y1="120.431379%" x2="49.8224719%" y2="29.0241379%" id="linearGradient-1">
            <stop stop-color="#FFF100" offset="0%"></stop>
            <stop stop-color="#F05A28" offset="100%"></stop>
        </linearGradient>
    </defs>
    <g id="WIP---May" stroke="none" stroke-width="1" fill="none" fill-rule="evenodd">
        <g id="2---workflow---neutered" transform="translate(-1070.000000, -3600.000000)">
            <g id="main">
                <g id="5" transform="translate(0.000000, 3568.000000)">
                    <g id="Group-12" transform="translate(470.000000, 0.000000)">
                        <g id="logos" transform="translate(600.000000, 32.000000)">
                            <g id="Group-26" transform="translate(0.000000, 20.000000)">
                                <circle id="Oval-4-Copy" fill="#FFFFFF" cx="30" cy="30" r="30"></circle>
                                <path d="M30.0002647,0 C13.4322748,0 0,13.4309236 0,29.9997353 C0,46.5680176 13.4322748,60 30.0002647,60 C46.5682546,60 60,46.5680176 60,29.9997353 C60,13.4309236 46.5677252,0 30.0002647,0 Z M29.5,56 C24.8058364,56 21,52.8654671 21,49 L38,49 C38,52.8649401 34.1941636,56 29.5,56 Z M43.9994743,47 L16,47 L16,42 L44,42 L44,47 L43.9994743,47 Z M43.4793611,39 L15.4989871,39 C15.4059306,38.8911787 15.3107593,38.7839657 15.2208752,38.6735362 C12.3382411,35.1247841 11.6593522,33.2721425 11.0000263,31.3841206 C10.988923,31.321937 14.4954581,32.110489 16.9820738,32.6776461 C16.9820738,32.6776461 18.2615996,32.9778426 20.1322451,33.3236047 C18.3361505,31.1889928 17.2697027,28.4754303 17.2697027,25.7018286 C17.2697027,19.6126631 21.8759956,14.2916791 20.2141982,9.99082733 C21.8315823,10.1243076 23.5615858,13.4516648 23.678435,18.6541783 C25.3978639,16.245101 26.117465,11.8456132 26.117465,9.14813271 C26.117465,6.35523259 27.9325939,3.11096551 29.7482516,3 C28.1298101,5.70444934 30.1675342,8.02293168 31.9789621,13.7743761 C32.6583797,15.9347192 32.571668,19.5703139 33.0961679,21.8759307 C33.2701199,17.0872595 34.0822487,10.1001846 37.0785597,7.68789088 C35.7567356,10.7257728 37.2741897,14.5270117 38.3120861,16.3544583 C39.9865729,19.3028173 41.0017339,21.5366013 41.0017339,25.7613318 C41.0017339,28.5939008 39.9701823,31.2608255 38.230133,33.3455834 C40.2086394,32.9692656 41.5748768,32.6299363 41.5748768,32.6299363 L47.9999998,31.3589255 C48.0005285,31.3583894 47.0667919,35.2512955 43.4793611,39 Z" id="Shape" fill="#E6522C" fill-rule="nonzero"></path>
                                <path d="M81.3632812,16.0068359 L91.5556641,16.0068359 C96.8876953,16.0068359 100.456055,19.5136719 100.456055,24.7226562 C100.456055,29.9726562 96.8876953,33.4179688 91.5556641,33.4179688 L84.9316406,33.4179688 L84.9316406,44 L81.3632812,44 L81.3632812,16.0068359 Z M84.9316406,19.1855469 L84.9316406,30.2597656 L89.1767578,30.2597656 C93.9755859,30.2597656 96.7851562,29.3164062 96.7851562,24.7226562 C96.7851562,21.2158203 94.7753906,19.1855469 91.2890625,19.1855469 L84.9316406,19.1855469 Z M104.701172,44 L104.701172,22.4462891 L108.228516,22.4462891 L108.228516,25.0917969 L108.331055,25.0917969 C108.966797,23.7998047 110.586914,22.1181641 113.642578,22.1181641 C114.09375,22.1181641 114.544922,22.1591797 114.975586,22.2207031 L114.975586,25.4404297 C114.606445,25.3789062 113.90918,25.3583984 113.25293,25.3583984 C109.438477,25.3583984 108.249023,27.7373047 108.249023,30.6494141 L108.249023,44 L104.701172,44 Z M127.321289,22.0976562 C133.350586,22.0976562 136.549805,26.4658203 136.549805,32.2285156 L136.549805,34.15625 C136.549805,40.0009766 133.371094,44.3486328 127.321289,44.3486328 C121.271484,44.3486328 118.051758,40.0009766 118.051758,34.15625 L118.051758,32.2285156 C118.051758,26.4658203 121.291992,22.0976562 127.321289,22.0976562 Z M127.321289,25.1123047 C123.609375,25.1123047 121.579102,27.9423828 121.579102,32.3515625 L121.579102,34.0332031 C121.579102,38.421875 123.609375,41.2929688 127.321289,41.2929688 C131.012695,41.2929688 133.022461,38.4423828 133.022461,34.0332031 L133.022461,32.3515625 C133.022461,27.9423828 131.012695,25.1123047 127.321289,25.1123047 Z M141.984375,44 L141.984375,22.4462891 L145.491211,22.4462891 L145.491211,25.0917969 L145.675781,25.0917969 C146.373047,23.6152344 148.280273,22.0976562 151.130859,22.0976562 C154.494141,22.0976562 156.503906,23.4511719 157.344727,25.5634766 L157.508789,25.5634766 C158.329102,23.7177734 160.605469,22.0976562 164.112305,22.0976562 C168.665039,22.0976562 171.351562,24.9072266 171.351562,29.3369141 L171.351562,44 L167.844727,44 L167.844727,30.0546875 C167.844727,27.3066406 166.265625,25.2763672 163.189453,25.2763672 C160.133789,25.2763672 158.431641,27.3886719 158.431641,30.3828125 L158.431641,44 L154.924805,44 L154.924805,30.3828125 C154.924805,27.0810547 153.161133,25.2763672 150.228516,25.2763672 C147.583008,25.2763672 145.511719,27.0810547 145.511719,30.3417969 L145.511719,44 L141.984375,44 Z M185.727539,44.3486328 C180.108398,44.3486328 176.683594,40.390625 176.683594,34.2587891 L176.683594,31.8388672 C176.683594,26.1582031 179.90332,22.0976562 185.563477,22.0976562 C191.203125,22.0976562 194.443359,26.1582031 194.443359,32.0849609 L194.443359,34.0947266 L180.210938,34.0947266 L180.210938,34.484375 C180.210938,38.5859375 182.302734,41.3955078 185.80957,41.3955078 C188.311523,41.3955078 189.952148,40.1445312 190.649414,38.1347656 L194.15625,38.1347656 C193.335938,41.703125 190.485352,44.3486328 185.727539,44.3486328 Z M180.210938,31.2441406 L190.916016,31.2441406 L190.916016,31.1826172 C190.916016,27.7578125 188.803711,25.0507812 185.583984,25.0507812 C182.302734,25.0507812 180.210938,27.7783203 180.210938,31.1826172 L180.210938,31.2441406 Z M201.128906,22.4462891 L201.128906,17.0732422 L204.635742,17.0732422 L204.635742,22.4462891 L208.901367,22.4462891 L208.901367,25.3994141 L204.635742,25.3994141 L204.635742,38.0117188 C204.635742,40.5957031 205.49707,41.2519531 208.142578,41.2519531 C208.491211,41.2519531 208.757812,41.2519531 209.044922,41.2109375 L209.044922,44.0410156 C208.737305,44.1025391 207.999023,44.1845703 207.260742,44.1845703 C202.154297,44.1845703 201.108398,42.2158203 201.108398,37.9707031 L201.108398,25.3994141 L198.216797,25.3994141 L198.216797,22.4462891 L201.128906,22.4462891 Z M213.987305,44 L213.987305,14.5302734 L217.514648,14.5302734 L217.514648,25.296875 L217.617188,25.296875 C218.416992,23.9228516 220.40625,22.0976562 223.892578,22.0976562 C228.342773,22.0976562 231.624023,24.9277344 231.624023,30.1777344 L231.624023,44 L228.09668,44 L228.09668,30.7724609 C228.09668,27.1425781 225.984375,25.296875 222.826172,25.296875 C219.114258,25.296875 217.514648,27.921875 217.514648,30.875 L217.514648,44 L213.987305,44 Z M245.753906,44.3486328 C240.134766,44.3486328 236.709961,40.390625 236.709961,34.2587891 L236.709961,31.8388672 C236.709961,26.1582031 239.929688,22.0976562 245.589844,22.0976562 C251.229492,22.0976562 254.469727,26.1582031 254.469727,32.0849609 L254.469727,34.0947266 L240.237305,34.0947266 L240.237305,34.484375 C240.237305,38.5859375 242.329102,41.3955078 245.835938,41.3955078 C248.337891,41.3955078 249.978516,40.1445312 250.675781,38.1347656 L254.182617,38.1347656 C253.362305,41.703125 250.511719,44.3486328 245.753906,44.3486328 Z M240.237305,31.2441406 L250.942383,31.2441406 L250.942383,31.1826172 C250.942383,27.7578125 248.830078,25.0507812 245.610352,25.0507812 C242.329102,25.0507812 240.237305,27.7783203 240.237305,31.1826172 L240.237305,31.2441406 Z M276.987305,22.4462891 L276.987305,44 L273.480469,44 L273.480469,41.1699219 L273.336914,41.1699219 C272.578125,42.8720703 270.547852,44.3486328 267.102539,44.3486328 C262.652344,44.3486328 259.473633,41.8056641 259.473633,36.8632812 L259.473633,22.4462891 L263.021484,22.4462891 L263.021484,35.8583984 C263.021484,39.8779297 265.338867,41.1699219 268.168945,41.1699219 C271.265625,41.1699219 273.439453,39.2216797 273.439453,35.796875 L273.439453,22.4462891 L276.987305,22.4462891 Z M282.380859,28.6191406 C282.380859,24.0664062 286.21582,22.0976562 290.358398,22.0976562 C295.423828,22.0976562 298.02832,24.9892578 298.02832,28.5576172 L294.74707,28.5576172 C294.624023,26.9169922 293.598633,24.9892578 290.235352,24.9892578 C287.671875,24.9892578 285.826172,26.1171875 285.826172,28.25 C285.826172,30.6699219 288.676758,31.1826172 291.137695,31.6337891 C295.177734,32.3515625 298.582031,33.4384766 298.582031,37.6425781 C298.582031,41.9287109 295.116211,44.3486328 290.050781,44.3486328 C285.313477,44.3486328 282.011719,42.0722656 282.011719,38.1962891 L285.457031,38.1962891 C285.764648,40.1650391 287.446289,41.4570312 290.317383,41.4570312 C293.619141,41.4570312 295.116211,39.8984375 295.116211,38.0732422 C295.116211,35.6328125 292.716797,35.1611328 289.702148,34.5664062 C285.682617,33.7460938 282.380859,32.515625 282.380859,28.6191406 Z" id="Prometheus" fill="#22424B" fill-rule="nonzero"></path>
                            </g>
                            <g id="Group-19" transform="translate(241.000000, 91.000000)" fill-rule="nonzero">
                                <path d="M-133.616575,56.6311256 C-133.983425,65.8102168 -141.228729,72.8990199 -150.308287,72.8990199 C-159.846409,72.8990199 -167,65.2649243 -167,55.994951 C-167,46.6340956 -159.296133,39 -149.941436,39 C-145.722652,39 -141.59558,40.8176418 -138.018785,44.0893971 L-140.770166,47.4520345 C-143.429834,45.1799822 -146.731492,43.5441045 -149.941436,43.5441045 C-156.81989,43.5441045 -162.506077,49.1787942 -162.506077,56.0858331 C-162.506077,63.0837541 -157.18674,68.5366795 -150.4,68.5366795 C-144.255249,68.5366795 -139.486188,64.0834571 -138.569061,58.4487674 L-152.325967,58.4487674 L-152.325967,54.4499554 L-133.616575,54.4499554 C-133.616575,54.4499554 -133.616575,56.6311256 -133.616575,56.6311256 Z M-117.658564,54.3590734 L-120.226519,54.3590734 C-123.069613,54.3590734 -125.362431,56.6311256 -125.362431,59.4484704 L-125.362431,72.6263736 L-129.948066,72.6263736 L-129.948066,50.0876151 L-126.187845,50.0876151 L-126.187845,51.996139 C-124.99558,50.8146718 -122.977901,50.0876151 -120.776796,50.0876151 L-115.824309,50.0876151 L-117.658564,54.3590734 Z M-92.8044199,72.6263736 L-96.6563536,72.6263736 L-96.6563536,69.8090288 C-99.6828729,72.7172557 -104.360221,74.0804871 -109.129282,71.990199 C-112.706077,70.4452034 -115.274033,67.2643303 -116.007735,63.4472824 C-117.383425,56.1767152 -111.697238,49.6332046 -104.451934,49.6332046 C-101.425414,49.6332046 -98.6740331,50.8146718 -96.6563536,52.8140778 L-96.6563536,50.0876151 L-92.7127072,50.0876151 L-92.7127072,72.6263736 L-92.8044199,72.6263736 Z M-97.481768,62.992872 C-96.3812155,58.3578854 -99.958011,54.2681913 -104.451934,54.2681913 C-108.39558,54.2681913 -111.605525,57.4490644 -111.605525,61.3569944 C-111.605525,65.7193347 -107.661878,69.1728542 -103.167956,68.3549154 C-100.416575,67.9005049 -98.1237569,65.7193347 -97.481768,62.992872 L-97.481768,62.992872 Z M-83.6331492,48.8152658 L-83.6331492,50.0876151 L-76.3878453,50.0876151 L-76.3878453,54.0864271 L-83.6331492,54.0864271 L-83.6331492,72.7172557 L-88.1270718,72.7172557 L-88.1270718,48.9061479 C-88.1270718,43.9076329 -84.5502762,40.999406 -80.0563536,40.999406 L-74.5535912,40.999406 L-76.3878453,45.2708643 L-80.0563536,45.2708643 C-82.0740331,45.2708643 -83.6331492,46.8158598 -83.6331492,48.8152658 L-83.6331492,48.8152658 Z M-52.2674033,72.6263736 L-56.119337,72.6263736 L-56.119337,69.8090288 C-59.1458564,72.7172557 -63.8232044,74.0804871 -68.5922652,71.990199 C-72.1690608,70.4452034 -74.7370166,67.2643303 -75.4707182,63.4472824 C-76.8464088,56.1767152 -71.160221,49.6332046 -63.9149171,49.6332046 C-60.8883978,49.6332046 -58.1370166,50.8146718 -56.119337,52.8140778 L-56.119337,50.0876151 L-52.1756906,50.0876151 L-52.1756906,72.6263736 L-52.2674033,72.6263736 Z M-56.9447514,62.992872 C-55.8441989,58.3578854 -59.4209945,54.2681913 -63.9149171,54.2681913 C-67.8585635,54.2681913 -71.0685083,57.4490644 -71.0685083,61.3569944 C-71.0685083,65.7193347 -67.1248619,69.1728542 -62.6309392,68.3549154 C-59.879558,67.9005049 -57.5867403,65.7193347 -56.9447514,62.992872 L-56.9447514,62.992872 Z M-27.8718232,59.2667063 L-27.8718232,72.6263736 L-32.4574586,72.6263736 L-32.4574586,59.2667063 C-32.4574586,56.4493614 -34.7502762,54.1773092 -37.5933702,54.1773092 C-40.4364641,54.1773092 -42.7292818,56.4493614 -42.7292818,59.2667063 L-42.7292818,72.6263736 L-47.3149171,72.6263736 L-47.3149171,50.0876151 L-43.5546961,50.0876151 L-43.5546961,51.996139 C-41.9038674,50.5420255 -39.7027624,49.7240867 -37.4099448,49.7240867 C-32.0906077,49.7240867 -27.8718232,53.995545 -27.8718232,59.2667063 L-27.8718232,59.2667063 Z M-1.09171271,72.6263736 L-4.94364641,72.6263736 L-4.94364641,69.8090288 C-7.97016575,72.7172557 -12.6475138,74.0804871 -17.4165746,71.990199 C-20.9933702,70.4452034 -23.561326,67.2643303 -24.2950276,63.4472824 C-25.6707182,56.1767152 -19.9845304,49.6332046 -12.7392265,49.6332046 C-9.71270718,49.6332046 -6.96132597,50.8146718 -4.94364641,52.8140778 L-4.94364641,50.0876151 L-1,50.0876151 L-1,72.6263736 L-1.09171271,72.6263736 Z M-5.76906077,62.992872 C-4.66850829,58.3578854 -8.24530387,54.2681913 -12.7392265,54.2681913 C-16.6828729,54.2681913 -19.8928177,57.4490644 -19.8928177,61.3569944 C-19.8928177,65.7193347 -15.9491713,69.1728542 -11.4552486,68.3549154 C-8.7038674,67.9005049 -6.41104972,65.7193347 -5.76906077,62.992872 L-5.76906077,62.992872 Z" id="Shape" fill="#38535E"></path>
                                <path d="M-186.9,50.5 C-187,49.5 -187.2,48.4 -187.5,47.2 C-187.8,46 -188.3,44.6 -189,43.2 C-189.7,41.8 -190.6,40.3 -191.8,38.9 C-192.3,38.3 -192.8,37.8 -193.3,37.3 C-192.5,34.1 -194.3,31.3 -194.3,31.3 C-197.4,31.1 -199.4,32.3 -200.1,32.8 C-200.2,32.7 -200.3,32.7 -200.5,32.6 C-201,32.4 -201.5,32.2 -202.1,32 C-202.7,31.8 -203.2,31.7 -203.8,31.5 C-204.4,31.4 -205,31.2 -205.6,31.2 C-205.7,31.2 -205.8,31.2 -205.9,31.2 C-207.2,26.8 -211.1,25 -211.1,25 C-215.4,27.8 -216.3,31.6 -216.3,31.6 C-216.3,31.6 -216.3,31.7 -216.3,31.8 C-216.5,31.9 -216.8,31.9 -217,32 C-217.3,32.1 -217.7,32.2 -218,32.3 C-218.3,32.4 -218.7,32.6 -219,32.7 C-219.7,33 -220.3,33.3 -220.9,33.7 C-221.5,34 -222.1,34.4 -222.7,34.8 C-222.8,34.8 -222.9,34.7 -222.9,34.7 C-228.9,32.4 -234.3,35.2 -234.3,35.2 C-234.8,41.6 -231.9,45.6 -231.3,46.4 C-231.4,46.8 -231.6,47.2 -231.7,47.6 C-232.1,49 -232.5,50.5 -232.7,52.1 C-232.7,52.3 -232.8,52.5 -232.8,52.8 C-238.4,55.5 -240,61.2 -240,61.2 C-235.4,66.5 -230,66.9 -230,66.9 C-230,66.9 -230,66.9 -230,66.9 C-229.3,68.1 -228.5,69.3 -227.6,70.4 C-227.2,70.9 -226.8,71.3 -226.4,71.7 C-228.1,76.5 -226.2,80.6 -226.2,80.6 C-221,80.8 -217.6,78.3 -216.9,77.8 C-216.4,78 -215.9,78.1 -215.3,78.3 C-213.7,78.7 -212.1,78.9 -210.5,79 C-210.1,79 -209.7,79 -209.3,79 L-209.1,79 L-209,79 L-208.7,79 L-208.4,79 C-208.4,79 -208.4,79 -208.4,79 C-206,82.5 -201.7,83 -201.7,83 C-198.3,79.4 -198.5,75.8 -198.5,75.8 C-198.5,75.8 -198.6,75.7 -198.6,75.7 C-197.9,75.2 -197.3,74.7 -196.7,74.2 C-195.5,73.1 -194.4,71.8 -193.5,70.5 C-193.4,70.4 -193.3,70.2 -193.3,70.1 C-189.9,70.3 -187.4,68 -187.4,68 C-188,64 -190.5,62.3 -190.5,62.3 C-190.5,62.3 -190.6,62.3 -190.6,62.3 C-190.6,62.1 -190.6,61.8 -190.5,61.6 C-190.5,61.2 -190.5,60.8 -190.5,60.4 L-190.5,60.1 L-190.5,60 L-190.5,59.9 C-190.5,59.8 -190.5,59.8 -190.5,59.8 L-190.5,59.6 L-190.5,59.3 C-190.5,59.2 -190.5,59.1 -190.5,59 C-190.5,58.9 -190.5,58.8 -190.5,58.7 L-190.5,58.4 L-190.5,58.1 C-190.6,57.7 -190.6,57.3 -190.7,56.9 C-191.1,55.4 -191.7,53.9 -192.5,52.6 C-193.3,51.3 -194.3,50.1 -195.4,49.1 C-196.5,48.1 -197.8,47.3 -199.1,46.7 C-200.4,46.1 -201.8,45.7 -203.2,45.6 C-203.9,45.5 -204.6,45.5 -205.2,45.5 L-205.5,45.5 L-205.6,45.5 C-205.6,45.5 -205.7,45.5 -205.7,45.5 L-205.8,45.5 L-206.1,45.5 C-206.2,45.5 -206.3,45.5 -206.4,45.5 C-206.7,45.5 -207.1,45.6 -207.4,45.6 C-208.8,45.9 -210.1,46.3 -211.2,47 C-212.3,47.7 -213.3,48.5 -214.1,49.5 C-214.9,50.5 -215.5,51.5 -216,52.6 C-216.4,53.7 -216.7,54.8 -216.7,55.9 C-216.7,56.2 -216.7,56.5 -216.7,56.7 C-216.7,56.8 -216.7,56.8 -216.7,56.9 L-216.7,57.1 C-216.7,57.2 -216.7,57.4 -216.7,57.5 C-216.6,58.1 -216.5,58.6 -216.4,59.1 C-216.1,60.1 -215.6,61.1 -215,61.9 C-214.4,62.7 -213.7,63.4 -212.9,63.9 C-212.1,64.4 -211.3,64.8 -210.5,65 C-209.7,65.2 -208.9,65.3 -208.2,65.3 C-208.1,65.3 -208,65.3 -207.9,65.3 C-207.9,65.3 -207.8,65.3 -207.8,65.3 C-207.8,65.3 -207.7,65.3 -207.7,65.3 C-207.6,65.3 -207.5,65.3 -207.5,65.3 C-207.5,65.3 -207.5,65.3 -207.4,65.3 L-207.3,65.3 C-207.3,65.3 -207.2,65.3 -207.2,65.3 C-207.1,65.3 -207,65.3 -206.9,65.3 C-206.8,65.3 -206.7,65.3 -206.6,65.2 C-206.4,65.2 -206.3,65.1 -206.1,65.1 C-205.8,65 -205.5,64.9 -205.2,64.7 C-204.9,64.6 -204.7,64.4 -204.4,64.2 C-204.3,64.1 -204.3,64.1 -204.2,64 C-203.9,63.8 -203.9,63.4 -204.1,63.2 C-204.3,63 -204.6,62.9 -204.8,63.1 C-205,62.9 -205,63 -205.1,63 C-205.3,63.1 -205.5,63.2 -205.8,63.3 C-206,63.4 -206.3,63.4 -206.6,63.5 C-206.7,63.5 -206.9,63.5 -207,63.5 C-207.1,63.5 -207.1,63.5 -207.2,63.5 C-207.3,63.5 -207.3,63.5 -207.4,63.5 C-207.5,63.5 -207.5,63.5 -207.6,63.5 C-207.7,63.5 -207.8,63.5 -207.8,63.5 C-207.8,63.5 -207.8,63.5 -207.8,63.5 L-207.8,63.5 L-207.9,63.5 C-207.9,63.5 -208,63.5 -208,63.5 C-208.1,63.5 -208.1,63.5 -208.2,63.5 C-208.8,63.4 -209.4,63.2 -209.9,63 C-210.5,62.7 -211,62.4 -211.5,61.9 C-212,61.5 -212.4,60.9 -212.8,60.3 C-213.1,59.7 -213.4,59 -213.5,58.3 C-213.6,58 -213.6,57.6 -213.6,57.2 C-213.6,57.1 -213.6,57 -213.6,56.9 C-213.6,56.9 -213.6,56.9 -213.6,56.9 L-213.6,56.9 L-213.6,56.8 C-213.6,56.8 -213.6,56.7 -213.6,56.7 C-213.6,56.5 -213.6,56.3 -213.5,56.1 C-213.2,54.6 -212.5,53.1 -211.3,51.9 C-211,51.6 -210.7,51.4 -210.3,51.1 C-210,50.9 -209.6,50.7 -209.2,50.5 C-208.8,50.3 -208.4,50.2 -208,50.1 C-207.6,50 -207.2,49.9 -206.8,49.9 C-206.6,49.9 -206.4,49.9 -206.2,49.9 C-206.1,49.9 -206.1,49.9 -206.1,49.9 L-205.9,49.9 L-205.8,49.9 C-205.8,49.9 -205.8,49.9 -205.8,49.9 L-205.8,49.9 L-205.6,49.9 C-205.1,49.9 -204.7,50 -204.2,50.1 C-203.3,50.3 -202.4,50.6 -201.6,51.1 C-200,52 -198.6,53.4 -197.7,55.1 C-197.3,55.9 -197,56.9 -196.8,57.8 C-196.8,58 -196.7,58.3 -196.7,58.5 L-196.7,58.7 L-196.7,58.9 C-196.7,59 -196.7,59 -196.7,59.1 C-196.7,59.2 -196.7,59.2 -196.7,59.3 L-196.7,59.5 L-196.7,59.7 C-196.7,59.8 -196.7,60 -196.7,60.1 C-196.7,60.4 -196.7,60.6 -196.8,60.9 C-196.8,61.2 -196.9,61.4 -196.9,61.7 C-197,61.8 -197,62 -197.1,62.3 C-197.2,62.8 -197.4,63.3 -197.6,63.8 C-198,64.8 -198.5,65.7 -199.1,66.5 C-200.3,68.2 -202,69.6 -203.9,70.4 C-204.9,70.8 -205.9,71.1 -206.9,71.3 C-207.4,71.4 -207.9,71.4 -208.5,71.5 L-208.6,71.5 L-208.7,71.5 L-208.9,71.5 L-209.2,71.5 L-209.3,71.5 C-209.2,71.5 -209.3,71.5 -209.3,71.5 L-209.4,71.5 C-209.7,71.5 -210,71.5 -210.2,71.5 C-211.3,71.4 -212.4,71.2 -213.5,70.9 C-214.6,70.6 -215.6,70.2 -216.6,69.7 C-218.6,68.7 -220.3,67.2 -221.7,65.5 C-222.4,64.6 -223,63.7 -223.5,62.7 C-224,61.7 -224.4,60.7 -224.7,59.7 C-225,58.7 -225.2,57.6 -225.2,56.5 L-225.2,56.3 L-225.2,56.2 L-225.2,56.2 L-225.2,56.1 L-225.2,55.9 L-225.2,55.9 L-225.2,55.8 L-225.2,55.7 L-225.2,55.4 L-225.2,55.4 C-225.2,55.4 -225.2,55.4 -225.2,55.4 L-225.2,55.3 C-225.2,55.2 -225.2,55 -225.2,54.9 C-225.2,54.4 -225.1,53.8 -225.1,53.3 C-225,52.8 -224.9,52.2 -224.8,51.7 C-224.7,51.2 -224.6,50.6 -224.4,50.1 C-224.1,49 -223.7,48 -223.3,47 C-222.4,45 -221.2,43.3 -219.8,41.9 C-219.4,41.6 -219.1,41.2 -218.7,40.9 C-218.3,40.6 -217.9,40.3 -217.5,40 C-217.1,39.7 -216.7,39.5 -216.2,39.3 C-216,39.2 -215.8,39.1 -215.5,39 C-215.4,39 -215.3,38.9 -215.2,38.9 C-215.1,38.8 -215,38.8 -214.9,38.8 C-214.5,38.6 -214,38.4 -213.5,38.3 C-213.4,38.3 -213.3,38.2 -213.1,38.2 C-213,38.2 -212.9,38.1 -212.7,38.1 C-212.5,38 -212.2,38 -212,37.9 C-211.9,37.9 -211.8,37.8 -211.6,37.8 C-211.5,37.8 -211.4,37.7 -211.2,37.7 C-211.1,37.7 -211,37.7 -210.8,37.6 L-210.6,37.6 L-210.4,37.6 C-210.3,37.6 -210.2,37.6 -210,37.5 C-209.9,37.5 -209.7,37.5 -209.6,37.4 C-209.5,37.4 -209.3,37.4 -209.2,37.4 C-209.1,37.4 -209,37.4 -208.9,37.4 L-208.7,37.4 L-208.6,37.4 L-208.5,37.4 C-208.4,37.4 -208.2,37.4 -208.1,37.4 L-207.9,37.4 C-207.9,37.4 -207.8,37.4 -207.9,37.4 L-207.9,37.4 L-207.8,37.4 C-207.7,37.4 -207.6,37.4 -207.4,37.4 C-206.9,37.4 -206.5,37.4 -206,37.4 C-205.1,37.4 -204.2,37.5 -203.3,37.7 C-201.5,38 -199.9,38.6 -198.4,39.3 C-196.9,40 -195.5,40.9 -194.4,41.9 C-194.3,42 -194.3,42 -194.2,42.1 C-194.1,42.2 -194.1,42.2 -194,42.3 C-193.9,42.4 -193.7,42.6 -193.6,42.7 C-193.5,42.8 -193.3,43 -193.2,43.1 C-193.1,43.2 -192.9,43.4 -192.8,43.5 C-192.3,44 -191.8,44.6 -191.4,45.1 C-190.6,46.2 -189.9,47.2 -189.4,48.3 C-189.4,48.4 -189.3,48.4 -189.3,48.5 C-189.3,48.6 -189.2,48.6 -189.2,48.7 C-189.1,48.8 -189.1,49 -189,49.1 C-188.9,49.2 -188.9,49.3 -188.8,49.5 C-188.7,49.6 -188.7,49.7 -188.6,49.9 C-188.4,50.4 -188.2,50.8 -188.1,51.3 C-187.9,52 -187.7,52.6 -187.5,53.2 C-187.4,53.4 -187.2,53.6 -187,53.5 C-186.8,53.5 -186.6,53.3 -186.6,53.1 C-186.8,52 -186.8,51.3 -186.9,50.5 Z" id="Path" fill="url(#linearGradient-1)"></path>
                            </g>
                        </g>
                    </g>
                </g>
            </g>
        </g>
    </g>
</svg>