<?xml version="1.0" encoding="UTF-8"?>
<svg width="26px" height="25px" viewBox="0 0 26 25" version="1.1" xmlns="http://www.w3.org/2000/svg" xmlns:xlink="http://www.w3.org/1999/xlink">
    <!-- Generator: Sketch 60.1 (88133) - https://sketch.com -->
    <title>gatsby</title>
    <desc>Created with Sketch.</desc>
    <defs>
        <path d="M15,2.5 C8.08571429,2.5 2.5,8.08571429 2.5,15 C2.5,20.5071429 6.09464286,25.1964286 11.0535714,26.875 C11.6785714,26.9928571 11.9142857,26.6017857 11.9142857,26.2892857 L11.9142857,24.1803571 C8.4375,24.9214286 7.69464286,22.5 7.69464286,22.5 C7.10892857,21.0535714 6.28928571,20.6642857 6.28928571,20.6642857 C5.15714286,19.8821429 6.36785714,19.9214286 6.36785714,19.9214286 C7.61785714,20 8.28035714,21.2107143 8.28035714,21.2107143 C9.41428571,23.125 11.2107143,22.5785714 11.9142857,22.2642857 C12.0321429,21.4446429 12.3428571,20.8982143 12.6946429,20.5857143 C9.92142857,20.2732143 6.99285714,19.1803571 6.99285714,14.4142857 C6.99285714,13.0464286 7.46071429,11.9535714 8.28035714,11.0553571 C8.16428571,10.7428571 7.73392857,9.45357143 8.39821429,7.73392857 C8.39821429,7.73392857 9.45178571,7.38214286 11.8357143,9.02321429 C12.8541281,8.74417172 13.9047778,8.60008262 14.9607143,8.59464286 C16.0142857,8.59464286 17.1089286,8.75 18.0857143,9.02321429 C20.4696429,7.42142857 21.5232143,7.73392857 21.5232143,7.73392857 C22.1875,9.45357143 21.7571429,10.7428571 21.6410714,11.0553571 C22.4625,11.9125 22.9303571,13.0464286 22.9303571,14.4125 C22.9303571,19.2178571 20,20.2732143 17.2267857,20.5857143 C17.6553571,20.9767857 18.0857143,21.7178571 18.0857143,22.8892857 L18.0857143,26.3285714 C18.0857143,26.6803571 18.3196429,27.0696429 18.9446429,26.9142857 C23.9071429,25.1946429 27.5,20.5071429 27.5,15 C27.5,8.08571429 21.9142857,2.5 15,2.5 Z" id="path-1"></path>
    </defs>
    <g id="Templates" stroke="none" stroke-width="1" fill="none" fill-rule="evenodd">
        <g id="Home---Marketing" transform="translate(-190.000000, -1072.000000)">
            <g id="icon/logos/github_24px" transform="translate(188.000000, 1070.000000)">
                <mask id="mask-2" fill="white">
                    <use xlink:href="#path-1"></use>
                </mask>
                <g id="icon/toggle/radio_button_unchecked_24px" fill-rule="nonzero"></g>
                <g id="✱-/-Color-/-Icons-/-Black-/-Active" mask="url(#mask-2)" fill="#000000" fill-opacity="0.87" fill-rule="evenodd">
                    <rect id="Rectangle-13" x="0" y="0" width="30" height="30"></rect>
                </g>
            </g>
        </g>
    </g>
</svg>