<?xml version="1.0" encoding="UTF-8"?>
<svg width="26px" height="14px" viewBox="0 0 26 14" version="1.1" xmlns="http://www.w3.org/2000/svg" xmlns:xlink="http://www.w3.org/1999/xlink">
    <!-- Generator: Sketch 60.1 (88133) - https://sketch.com -->
    <title>import-url</title>
    <desc>Created with Sketch.</desc>
    <defs>
        <path d="M21.25,8.75 L17.5,8.75 C16.8125,8.75 16.25,9.3125 16.25,10 C16.25,10.6875 16.8125,11.25 17.5,11.25 L21.25,11.25 C23.3125,11.25 25,12.9375 25,15 C25,17.0625 23.3125,18.75 21.25,18.75 L17.5,18.75 C16.8125,18.75 16.25,19.3125 16.25,20 C16.25,20.6875 16.8125,21.25 17.5,21.25 L21.25,21.25 C24.7,21.25 27.5,18.45 27.5,15 C27.5,11.55 24.7,8.75 21.25,8.75 Z M10,15 C10,15.6875 10.5625,16.25 11.25,16.25 L18.75,16.25 C19.4375,16.25 20,15.6875 20,15 C20,14.3125 19.4375,13.75 18.75,13.75 L11.25,13.75 C10.5625,13.75 10,14.3125 10,15 Z M12.5,18.75 L8.75,18.75 C6.6875,18.75 5,17.0625 5,15 C5,12.9375 6.6875,11.25 8.75,11.25 L12.5,11.25 C13.1875,11.25 13.75,10.6875 13.75,10 C13.75,9.3125 13.1875,8.75 12.5,8.75 L8.75,8.75 C5.3,8.75 2.5,11.55 2.5,15 C2.5,18.45 5.3,21.25 8.75,21.25 L12.5,21.25 C13.1875,21.25 13.75,20.6875 13.75,20 C13.75,19.3125 13.1875,18.75 12.5,18.75 Z" id="path-1"></path>
    </defs>
    <g id="Templates" stroke="none" stroke-width="1" fill="none" fill-rule="evenodd">
        <g id="Home---Marketing" transform="translate(-235.000000, -1078.000000)">
            <g id="icon/content/link_24px" transform="translate(233.000000, 1070.149254)">
                <mask id="mask-2" fill="white">
                    <use xlink:href="#path-1"></use>
                </mask>
                <g fill-rule="nonzero"></g>
                <g id="✱-/-Color-/-Icons-/-Black-/-Active" mask="url(#mask-2)" fill="#000000" fill-opacity="0.87" fill-rule="evenodd">
                    <rect id="Rectangle-13" x="0" y="0" width="30" height="30"></rect>
                </g>
            </g>
        </g>
    </g>
</svg>