<?xml version="1.0" encoding="UTF-8"?>
<svg width="132px" height="20px" viewBox="0 0 132 20" version="1.1" xmlns="http://www.w3.org/2000/svg" xmlns:xlink="http://www.w3.org/1999/xlink">
    <!-- Generator: Sketch 60.1 (88133) - https://sketch.com -->
    <title>kinto-footer</title>
    <desc>Created with Sketch.</desc>
    <g id="Templates" stroke="none" stroke-width="1" fill="none" fill-rule="evenodd">
        <g id="Home---Marketing" transform="translate(-23.000000, -4600.000000)">
            <g id="kinto-footer" transform="translate(23.000000, 4600.000000)">
                <g id="logo/full-color-horizontal">
                    <g id="Wordmark" transform="translate(42.322880, 2.543353)" fill="#000000" fill-rule="nonzero">
                        <path d="M6.44184945,6.90529649 L13.5769406,14.5313951 C13.6809476,14.6354414 13.6129961,14.7899807 13.4743201,14.7899807 L10.1544135,14.7899807 L4.77971973,8.93141953 C4.71813525,8.84426133 4.58895435,8.84852362 4.52777677,8.91385158 L3.01045296,10.416185 L3.01045296,14.7899807 L0.343786295,14.7899807 L0.343786295,0.123314066 L3.01045296,0.123314066 L3.01045296,6.2633694 L9.39896208,0.123314066 L12.766144,0.123314066 C12.90482,0.123314066 12.9598375,0.240174398 12.8558306,0.344220641 L6.44184945,6.90529649 Z" id="Shape"></path>
                        <path d="M15.010453,6.19627142 L15.010453,14.7899807 L17.6771196,14.7899807 L17.6771196,5.28323699 L15.2795366,5.84635687 C15.1293043,5.88103895 15.010453,6.03442171 15.010453,6.19627142 Z" id="Shape"></path>
                        <path d="M14.4880372,2.98265896 L15.8401278,3.96531792 C15.9672474,4.03468208 16.1174797,4.05780347 16.2445993,4 L17.4349013,3.52601156 C17.5042393,3.50289017 17.5504646,3.44508671 17.5735772,3.37572254 L18.0820557,1.68786127 C18.1167247,1.58381503 18.0704994,1.47976879 17.9780488,1.42196532 L16.5797329,0.578034682 C16.4757259,0.531791908 16.3601626,0.50867052 16.2445993,0.531791908 L15.07741,0.843930636 C14.9965157,0.867052023 14.938734,0.924855491 14.9156214,0.994219653 L14.3724739,2.69364162 C14.3609175,2.80924855 14.3955865,2.92485549 14.4880372,2.98265896 Z" id="Shape"></path>
                        <path d="M26.9919861,14.7899807 L27.010453,9.17919075 C27.010453,7.59537572 26.4026132,6.34682081 24.7269454,6.38150289 C23.3748548,6.40462428 22.3437863,7.61849711 22.3437863,9.12138728 L22.3437863,14.7899807 L19.6883856,14.7899807 L19.6883856,6.01156069 L19.6883856,5.04046243 C19.6883856,4.87861272 19.7923926,4.73988439 19.9541812,4.70520231 L20.6013357,4.5433526 L22.1267712,4.19653179 L22.1729965,5.58381503 C23.2361789,4.5433526 24.0566783,4.01156069 25.3740999,4.01156069 C27.8355981,4.01156069 29.6771196,5.86127168 29.6771196,9.14450867 L29.6771196,14.7899807 L26.9919861,14.7899807 Z" id="Shape"></path>
                        <path d="M35.010453,4.04040953 L39.0534637,3.35123478 C38.8996724,3.75669623 38.7866948,4.14289386 38.714531,4.50982766 C38.6622231,4.77579893 38.6108522,5.04916071 38.5604183,5.329913 C38.5255959,5.52356135 38.3725681,5.67428785 38.1784087,5.70613763 L35.010453,6.22580692 L35.010453,6.22580692 L35.010453,9.97865487 C35.010453,10.9567864 35.2172067,12.4611034 36.339172,12.4851512 C36.6365407,12.4915034 36.9684817,12.4185661 37.2760119,12.3095571 C37.4570494,12.2454675 37.629327,12.3454019 37.7039612,12.5178198 C37.7672659,12.6638079 37.9443323,13.0402915 38.0787672,13.2693125 C38.4624499,13.9227992 38.6510793,14.1531813 38.6510793,14.1531813 C37.8952769,14.5898978 37.1005807,14.7783098 36.167712,14.7746211 C33.6236094,14.7643575 32.3437863,12.5386076 32.3437863,9.97865487 L32.3437863,6.68058728 L30.3437863,7.02167255 L30.3437863,4.83627516 L32.3437863,4.49518989 L32.3437863,2.0794177 C32.3437863,1.920952 32.5445016,1.78347138 32.7033474,1.74751316 L35.010453,1.2166474 L35.010453,4.04040953 Z" id="Fill-5-Copy"></path>
                        <path d="M50.1231799,9.42196532 C50.1231799,12.4393064 48.0661532,14.8786127 44.6685922,14.8786127 C41.2710312,14.8786127 39.2371172,12.4393064 39.2371172,9.42196532 C39.2371172,6.42774566 41.3172566,3.96531792 44.6454796,3.96531792 C47.9852589,3.97687861 50.1231799,6.43930636 50.1231799,9.42196532 Z M41.9528547,9.42196532 C41.9528547,11.017341 42.7964668,12.6127168 44.6801485,12.6127168 C46.5638303,12.6127168 47.4074424,11.017341 47.4074424,9.42196532 C47.4074424,7.84971098 46.4251544,6.20809249 44.6801485,6.20809249 C42.8080231,6.20809249 41.9528547,7.86127168 41.9528547,9.42196532 Z" id="Shape"></path>
                        <path d="M61.6771196,14.7899807 L61.6771196,8.62427746 L55.1316492,9.4566474 C55.0507549,9.46820809 55.010453,9.53757225 55.010453,9.61849711 L55.010453,14.7899807 L52.3437863,14.7899807 L52.3437863,0.123314066 L55.010453,0.123314066 L55.010453,6.89017341 L61.5753944,6.08242051 C61.6447323,6.07085982 61.6771196,5.97687861 61.6771196,5.89595376 L61.6771196,0.123314066 L64.3437863,0.123314066 L64.3437863,14.7899807 L61.6771196,14.7899807 Z" id="Shape"></path>
                        <path d="M69.010453,5.0982659 L69.010453,9.66473988 C69.010453,11.2485549 69.3148664,12.4277457 71.1869919,12.4624277 C72.3772938,12.4855491 73.6771196,11.2254335 73.6771196,9.72254335 L73.6771196,5.94219653 L73.6771196,4.84393064 C73.6771196,4.68208092 73.7756098,4.5433526 73.925842,4.50867052 L76.3437863,4.19653179 L76.3437863,14.7899807 L74.029849,14.7899807 C73.9027294,14.7899807 73.7987224,14.5780347 73.7987224,14.4508671 L73.7524971,13.2485549 C72.7933217,14.3121387 71.9034843,14.8208092 70.4473868,14.8208092 C67.9396632,14.8208092 66.356446,12.9364162 66.356446,9.68786127 L66.356446,6.03468208 L66.356446,5.72254335 C66.356446,5.56069364 66.4720093,5.42196532 66.6222416,5.38728324 L69.010453,5.0982659 Z" id="Shape"></path>
                        <path d="M81.010453,0.123314066 L81.010453,5.49132948 C81.6807201,4.57803468 83.2749129,3.96531792 84.3727642,3.97687861 C86.8573751,4 89.6077816,5.80346821 89.6077816,9.41040462 C89.6077816,12.8439306 87.2849593,15.132948 84.2225319,14.8786127 C83.0091173,14.7745665 81.7494774,14.0115607 81.0792102,13.2023121 L81.0214286,14.4277457 C81.0098722,14.5549133 80.9174216,14.7899807 80.790302,14.7899807 L78.3437863,14.7899807 L78.3437863,0.684389912 C78.3437863,0.522540201 78.4571896,0.386294209 78.6624712,0.364606383 L81.010453,0.123314066 Z M81.2641115,9.39884393 C81.2641115,11.283237 82.5468641,12.5895954 84.1763066,12.5895954 C85.9790941,12.5895954 86.9729384,10.9942197 86.9729384,9.37572254 C86.9729384,7.72254335 85.8288618,6.23121387 84.1763066,6.23121387 C82.5468641,6.23121387 81.2641115,7.58381503 81.2641115,9.39884393 Z" id="Shape"></path>
                    </g>
                    <g id="Mark">
                        <path d="M30.5202671,5.91907514 C26.8800232,4.40462428 23.8175958,5.0982659 21.2983159,6.56647399 C22.4423926,8.85549133 22.7659698,11.5028902 24.0371661,13.2369942 C25.7475029,15.5606936 28.9139373,17.4682081 31.3523229,17.433526 C33.3400116,17.4104046 34.4263066,16.1156069 34.6458769,15.7572254 C34.6574332,15.7456647 34.6574332,15.734104 34.6689895,15.7225434 C34.6689895,15.7225434 34.6689895,15.7225434 34.6689895,15.7109827 C34.8770035,15.3410405 35.0272358,14.9479769 35.1081301,14.5086705 C35.6975029,11.5260116 34.0565041,7.38728324 30.5202671,5.91907514 Z" id="Shape" fill="#1EC4E9"></path>
                        <path d="M7.5116144,16.8208092 C10.5971545,16.4624277 12.8853078,15.4219653 16.7913473,11.1098266 C18.1203252,9.65317919 19.2875145,7.74566474 21.2983159,6.56647399 C20.0155633,4 18.2243322,1.61849711 14.5609756,0.647398844 C9.91533101,-0.578034682 6.621777,0.0924855491 3.4437863,2.93641618 C1.22497096,4.92485549 0.427584204,7.23699422 0.219570267,8.13872832 C-0.358246225,10.6589595 0.600929152,12.9942197 1.46765389,14.4855491 C1.60632985,14.716763 3.37444832,17.3063584 7.5116144,16.8208092 Z" id="Shape" fill="#A295EE"></path>
                        <path d="M24.8229965,19.7109827 C24.8692218,19.7109827 24.9154472,19.699422 24.9732288,19.699422 C25.0541231,19.6878613 25.1234611,19.6878613 25.1927991,19.6763006 C26.6026713,19.5491329 27.9547619,19.3641618 29.1566202,19.0867052 C29.2144019,19.0751445 29.2721835,19.0635838 29.3299652,19.0520231 C29.3646341,19.0404624 29.3877468,19.0404624 29.4224158,19.0289017 C30.797619,18.6936416 31.9070267,18.2312139 32.7968641,17.6416185 C32.8084204,17.6300578 32.8315331,17.6184971 32.8430894,17.6069364 C32.8777584,17.583815 32.9008711,17.5606936 32.9355401,17.5375723 C32.9586527,17.5260116 32.9702091,17.5144509 32.9933217,17.5028902 C33.039547,17.4682081 33.074216,17.4450867 33.1204413,17.4104046 C33.1204413,17.4104046 33.1204413,17.4104046 33.1204413,17.4104046 C33.6173635,17.0404624 34.0333914,16.6242775 34.3454123,16.2080925 C34.3569686,16.1965318 34.368525,16.1849711 34.3800813,16.1618497 C34.3916376,16.150289 34.3916376,16.1387283 34.403194,16.1271676 C34.4956446,16 34.5765389,15.8728324 34.6574332,15.734104 C34.437863,16.0924855 33.5364692,17.1098266 31.5487805,17.132948 C29.1103949,17.1676301 26.1635308,15.3410405 24.453194,13.0057803 C23.1819977,11.2716763 22.4539489,8.83236994 21.3098722,6.5433526 C19.3106272,7.72254335 17.6465157,9.38728324 16.3175377,10.8554913 C12.4114983,15.1560694 10.3891405,16.1387283 7.30360046,16.4971098 C3.16643438,16.982659 1.60632985,14.6936416 1.46765389,14.4739884 C1.46765389,14.4855491 1.47921022,14.4855491 1.47921022,14.4971098 C1.59477352,14.6936416 2.207259,15.6531792 3.16643438,16.566474 C3.61713124,16.982659 4.07938444,17.3294798 4.49541231,17.6069364 C6.35598142,18.7398844 8.93304297,19.849711 18.2243322,19.8959538 C20.7436121,19.9190751 22.9277584,19.8612717 24.8229965,19.7109827 Z" id="Shape" fill="#7A68E8"></path>
                    </g>
                </g>
            </g>
        </g>
    </g>
</svg>