<?xml version="1.0" encoding="UTF-8"?>
<svg width="508px" height="402px" viewBox="0 0 508 402" version="1.1" xmlns="http://www.w3.org/2000/svg" xmlns:xlink="http://www.w3.org/1999/xlink">
    <!-- Generator: Sketch 60.1 (88133) - https://sketch.com -->
    <title>home-hero-shapes-right</title>
    <desc>Created with Sketch.</desc>
    <defs>
        <radialGradient cx="46.3911307%" cy="65.0901357%" fx="46.3911307%" fy="65.0901357%" r="62.2282881%" gradientTransform="translate(0.463911,0.650901),scale(0.941226,1.000000),rotate(-100.083539),translate(-0.463911,-0.650901)" id="radialGradient-1">
            <stop stop-color="#00D1FF" stop-opacity="0.0553977273" offset="0%"></stop>
            <stop stop-color="#1EC4E9" offset="100%"></stop>
        </radialGradient>
        <radialGradient cx="46.3911307%" cy="65.0901357%" fx="46.3911307%" fy="65.0901357%" r="62.1327676%" gradientTransform="translate(0.463911,0.650901),scale(0.992179,1.000000),rotate(-99.575542),translate(-0.463911,-0.650901)" id="radialGradient-2">
            <stop stop-color="#8900FF" stop-opacity="0.0694656906" offset="0%"></stop>
            <stop stop-color="#6200EE" stop-opacity="0.910511364" offset="100%"></stop>
        </radialGradient>
    </defs>
    <g id="Web-Pages" stroke="none" stroke-width="1" fill="none" fill-rule="evenodd">
        <g id="Home-1.0" transform="translate(-1412.000000, -198.000000)">
            <g id="Hero">
                <g id="home-hero-shapes-right" transform="translate(1324.500000, 126.500000)">
                    <path d="M513.567138,972.154355 C723.89218,972.154355 894.394315,801.65222 894.394315,591.327177 C894.394315,458.393432 860.935319,367.808005 767.150401,298.576214 C748.866948,285.079414 722.796346,243.689883 700.247127,234.370877 C655.45789,215.860649 565.042882,210.5 513.567138,210.5 C439.263367,210.5 389.534108,256.086638 336.066695,279.548463 C296.902153,296.734101 214.679963,318.010789 186.468134,348.180898 C165.758504,370.328055 148.265878,467.652418 131.108306,536.248246 C102.413314,650.970585 79.5,756.070079 79.5,812.452842 C79.5,1022.77788 303.242095,972.154355 513.567138,972.154355 Z" id="Oval-Copy" fill="url(#radialGradient-1)"></path>
                    <path d="M456.800535,834.5 C668.184832,834.5 839.545662,663.139169 839.545662,451.754872 C839.545662,304.643369 773.059241,179.381235 651.803474,114.864823 C624.196064,100.175782 586.672513,107.191952 555.528797,99.6665839 C526.910156,92.7513584 489.164774,67.5 458.386202,67.5 C426.676608,67.5 395.72903,78.5013233 366.2034,85.8279178 C337.239805,93.0150469 295.91313,99.0146069 269.916686,112.387491 C196.263343,150.275658 173.252542,233.566008 140.537176,307.185252 C118.101127,357.672996 66.5,427.345094 66.5,487.78407 C66.5,699.168367 245.416238,834.5 456.800535,834.5 Z" id="Oval-Copy-2" fill="url(#radialGradient-2)" transform="translate(453.022831, 451.000000) rotate(-11.000000) translate(-453.022831, -451.000000) "></path>
                </g>
            </g>
        </g>
    </g>
</svg>