<svg height="405" viewBox="0 0 1920 405" width="1920" xmlns="http://www.w3.org/2000/svg" xmlns:xlink="http://www.w3.org/1999/xlink"><radialGradient id="a" cx="46.391131%" cy="65.090136%" gradientTransform="matrix(-.16504683 -.98606714 .97835511 -.16634784 -.096334 1.216624)" r="62.132768%"><stop offset="0" stop-color="#8900ff" stop-opacity=".069466"/><stop offset="1" stop-color="#6200ee" stop-opacity=".910511"/></radialGradient><g fill="none" fill-rule="evenodd" transform="translate(0 -191)"><path d="m0 191.6h1920v402.881276h-1920z" fill="#06002d"/><path d="m1603.23564 1501c380.32638 0 688.64182-308.31544 688.64182-688.64182 0-264.685626-119.62355-490.059477-337.78907-606.13855-49.67174-26.428784-117.18478-13.805165-173.21911-27.344942-51.49116-12.441996-119.40332-57.874688-174.78068-57.874688-57.05246 0-112.73389 19.793776-165.85693 32.975915-52.11181 12.93121-126.4675 23.725725-173.24076 47.786455-132.5184 68.169061-173.91984 218.026536-232.78191 350.483585-40.367337 90.838444-133.209 216.193719-133.209 324.936597 0 380.326378 321.90927 623.817448 702.23564 623.817448z" fill="url(#a)" transform="matrix(.98162718 -.190809 .190809 .98162718 -125.415019 319.515225)"/></g></svg>