<svg height="446" viewBox="0 0 393 446" width="393" xmlns="http://www.w3.org/2000/svg" xmlns:xlink="http://www.w3.org/1999/xlink"><radialGradient id="a" cx="46.391131%" cy="65.090136%" gradientTransform="matrix(-.16504683 -.98606714 .97835511 -.16634784 -.096334 1.216624)" r="62.132768%"><stop offset="0" stop-color="#8900ff" stop-opacity=".069466"/><stop offset="1" stop-color="#6200ee" stop-opacity=".592002"/></radialGradient><radialGradient id="b" cx="46.391131%" cy="65.090136%" gradientTransform="matrix(-.16479349 -.98455352 .92668737 -.17508387 -.062821 1.221608)" r="62.228288%"><stop offset="0" stop-color="#00d1ff" stop-opacity=".055398"/><stop offset="1" stop-color="#1ec4e9"/></radialGradient><g fill="none" fill-rule="evenodd" transform="matrix(-1 0 0 1 448 -233)"><path d="m484.93431 1222.95006c254.639549 0 461.06569-206.42614 461.06569-461.065689 0-177.21471-80.091438-328.109046-226.159591-405.827355-33.256673-17.694838-78.458611-9.242959-115.975219-18.308232-34.474831-8.330278-79.943995-38.748784-117.02074-38.748784-38.198281 0-75.478615 13.252508-111.04603 22.078332-34.890372 8.657821-84.673663 15.885062-115.989721 31.994419-88.724916 45.641166-116.444382 145.975095-155.854244 234.658935-27.0271045 60.818975-89.1872929 144.747971-89.1872929 217.554484 0 254.63955 215.5275989 417.66389 470.1671479 417.66389z" fill="url(#a)" opacity=".538481"/><path d="m700.244728 1128.51054c253.363541 0 458.755272-205.391727 458.755272-458.755268 0-160.135779-40.30566-269.257565-153.28165-352.656155-22.024765-16.258629-53.430155-66.117638-80.593587-77.343579-53.954391-22.297948-162.870887-28.755538-224.880035-28.755538-89.50844 0-149.413724 54.914963-213.822093 83.177747-47.178723 20.702309-146.225917 46.332813-180.21069 82.676587-24.947411 26.679096-46.019526 143.918798-66.688026 226.551287-34.566807 138.1978-62.168837 264.803646-62.168837 332.723929 0 253.36354 269.526105 192.38099 522.889646 192.38099z" fill="url(#b)" opacity=".549967" transform="matrix(.62932039 -.77714596 .77714596 .62932039 -275.320037 768.729598)"/></g></svg>