<?xml version="1.0" encoding="UTF-8"?>
<svg width="780px" height="780px" viewBox="0 0 780 780" version="1.1" xmlns="http://www.w3.org/2000/svg" xmlns:xlink="http://www.w3.org/1999/xlink">
    <!-- Generator: Sketch 54.1 (76490) - https://sketchapp.com -->
    <title>devs-devops-teams-background-pattern-3</title>
    <desc>Created with Sketch.</desc>
    <g id="Page-1" stroke="none" stroke-width="1" fill="none" fill-rule="evenodd" opacity="0.037361">
        <g id="Group-22" fill="#FFFFFF">
            <path d="M394.030406,648.368019 L369.523819,621.507419 C367.389973,619.168603 367.556134,615.542795 369.894949,613.408949 C369.953492,613.355537 370.013136,613.303344 370.073844,613.252405 C372.499116,611.217359 376.114918,611.533701 378.149963,613.958973 C378.200903,614.019681 378.250578,614.081437 378.298956,614.144204 L400.495401,642.942051 C404.143327,641.219613 408.630553,642.090324 411.345345,645.325687 C411.538888,645.556343 411.720861,645.796464 411.890594,646.045164 L414.187245,649.410317 C416.099209,652.21181 415.576469,656.00642 412.978237,658.186596 L406.550361,650.526151 L402.213224,651.554627 L400.447237,655.64728 L406.875114,663.307724 C404.276882,665.4879 400.449148,665.343771 398.022224,662.97438 L395.107004,660.128268 C391.861024,656.959236 391.489169,651.956309 394.030406,648.368019 Z M372.644994,616.316582 C371.802328,617.023663 371.694785,618.282804 372.404788,619.128953 C373.114792,619.975103 374.373479,620.08784 375.216144,619.38076 C376.05881,618.67368 376.166354,617.414538 375.45635,616.568389 C374.746347,615.72224 373.48766,615.609502 372.644994,616.316582 Z M385.969594,129.631981 L410.476181,156.492581 C412.610027,158.831397 412.443866,162.457205 410.105051,164.591051 C410.046508,164.644463 409.986864,164.696656 409.926156,164.747595 C407.500884,166.782641 403.885082,166.466299 401.850037,164.041027 C401.799097,163.980319 401.749422,163.918563 401.701044,163.855796 L379.504599,135.057949 C375.856673,136.780387 371.369447,135.909676 368.654655,132.674313 C368.461112,132.443657 368.279139,132.203536 368.109406,131.954836 L365.812755,128.589683 C363.900791,125.78819 364.423531,121.99358 367.021763,119.813404 L373.449639,127.473849 L377.786776,126.445373 L379.552763,122.35272 L373.124886,114.692276 C375.723118,112.5121 379.550852,112.656229 381.977776,115.02562 L384.892996,117.871732 C388.138976,121.040764 388.510831,126.043691 385.969594,129.631981 Z M407.355006,161.683418 C408.197672,160.976337 408.305215,159.717196 407.595212,158.871047 C406.885208,158.024897 405.626521,157.91216 404.783856,158.61924 C403.94119,159.32632 403.833646,160.585462 404.54365,161.431611 C405.253653,162.27776 406.51234,162.390498 407.355006,161.683418 Z M263.806424,615.634497 L256.013398,580.119241 C255.334841,577.026844 257.291644,573.969882 260.384041,573.291325 C260.461447,573.27434 260.539196,573.258962 260.61724,573.245201 C263.73511,572.695436 266.708316,574.777297 267.258081,577.895168 C267.271842,577.973211 267.283983,578.051532 267.294497,578.130079 L272.118259,614.167968 C276.138674,614.500256 279.58937,617.497926 280.322767,621.657229 C280.375053,621.953754 280.412586,622.252692 280.435229,622.552939 L280.74161,626.615572 C280.996673,629.997719 278.646661,633.022577 275.306439,633.611549 L273.569958,623.763471 L269.299649,622.485589 L265.723933,625.146937 L267.460415,634.995015 C264.120193,635.583986 260.877342,633.5453 259.96026,630.279885 L258.858662,626.35747 C257.632076,621.990018 259.811504,617.471429 263.806424,615.634497 Z M261.311833,577.184432 C260.228523,577.375449 259.505817,578.412125 259.697623,579.499914 C259.889429,580.587703 260.923116,581.31468 262.006425,581.123663 C263.089735,580.932646 263.812442,579.89597 263.620635,578.808181 C263.428829,577.720392 262.395143,576.993415 261.311833,577.184432 Z M516.193576,162.365503 L523.986602,197.880759 C524.665159,200.973156 522.708356,204.030118 519.615959,204.708675 C519.538553,204.72566 519.460804,204.741038 519.38276,204.754799 C516.26489,205.304564 513.291684,203.222703 512.741919,200.104832 C512.728158,200.026789 512.716017,199.948468 512.705503,199.869921 L507.881741,163.832032 C503.861326,163.499744 500.41063,160.502074 499.677233,156.342771 C499.624947,156.046246 499.587414,155.747308 499.564771,155.447061 L499.25839,151.384428 C499.003327,148.002281 501.353339,144.977423 504.693561,144.388451 L506.430042,154.236529 L510.700351,155.514411 L514.276067,152.853063 L512.539585,143.004985 C515.879807,142.416014 519.122658,144.4547 520.03974,147.720115 L521.141338,151.64253 C522.367924,156.009982 520.188496,160.528571 516.193576,162.365503 Z M518.688167,200.815568 C519.771477,200.624551 520.494183,199.587875 520.302377,198.500086 C520.110571,197.412297 519.076884,196.68532 517.993575,196.876337 C516.910265,197.067354 516.187558,198.10403 516.379365,199.191819 C516.571171,200.279608 517.604857,201.006585 518.688167,200.815568 Z M167.39591,522.174444 L178.404578,487.520817 C179.363129,484.503444 182.586251,482.834439 185.603624,483.79299 C185.679152,483.816983 185.754174,483.84254 185.828643,483.869645 C188.80368,484.95247 190.337621,488.242017 189.254796,491.217054 C189.227692,491.291522 189.199046,491.365421 189.168878,491.438701 L175.327433,525.06031 C178.643072,527.358287 180.132626,531.679694 178.688116,535.648454 C178.585134,535.931395 178.46817,536.20905 178.337656,536.480392 L176.571673,540.151927 C175.10149,543.208483 171.553891,544.653082 168.366688,543.493035 L171.78689,534.096109 L168.727635,530.854276 L164.3003,531.371213 L160.880099,540.768139 C157.692896,539.608092 155.903848,536.221113 156.742339,532.93464 L157.749535,528.986929 C158.871006,524.591312 163.017741,521.767813 167.39591,522.174444 Z M184.460562,487.628415 C183.42688,487.252186 182.282659,487.788621 181.904874,488.826576 C181.527089,489.864532 182.058799,491.010956 183.092481,491.387186 C184.126164,491.763415 185.270384,491.22698 185.648169,490.189024 C186.025954,489.151068 185.494244,488.004645 184.460562,487.628415 Z M612.60409,255.825556 L601.595422,290.479183 C600.636871,293.496556 597.413749,295.165561 594.396376,294.20701 C594.320848,294.183017 594.245826,294.15746 594.171357,294.130355 C591.19632,293.04753 589.662379,289.757983 590.745204,286.782946 C590.772308,286.708478 590.800954,286.634579 590.831122,286.561299 L604.672567,252.93969 C601.356928,250.641713 599.867374,246.320306 601.311884,242.351546 C601.414866,242.068605 601.53183,241.79095 601.662344,241.519608 L603.428327,237.848073 C604.89851,234.791517 608.446109,233.346918 611.633312,234.506965 L608.21311,243.903891 L611.272365,247.145724 L615.6997,246.628787 L619.119901,237.231861 C622.307104,238.391908 624.096152,241.778887 623.257661,245.06536 L622.250465,249.013071 C621.128994,253.408688 616.982259,256.232187 612.60409,255.825556 Z M595.539438,290.371585 C596.57312,290.747814 597.717341,290.211379 598.095126,289.173424 C598.472911,288.135468 597.941201,286.989044 596.907519,286.612814 C595.873836,286.236585 594.729616,286.77302 594.351831,287.810976 C593.974046,288.848932 594.505756,289.995355 595.539438,290.371585 Z M130.631981,393.030406 L157.492581,368.523819 C159.831397,366.389973 163.457205,366.556134 165.591051,368.894949 C165.644463,368.953492 165.696656,369.013136 165.747595,369.073844 C167.782641,371.499116 167.466299,375.114918 165.041027,377.149963 C164.980319,377.200903 164.918563,377.250578 164.855796,377.298956 L136.057949,399.495401 C137.780387,403.143327 136.909676,407.630553 133.674313,410.345345 C133.443657,410.538888 133.203536,410.720861 132.954836,410.890594 L129.589683,413.187245 C126.78819,415.099209 122.99358,414.576469 120.813404,411.978237 L128.473849,405.550361 L127.445373,401.213224 L123.35272,399.447237 L115.692276,405.875114 C113.5121,403.276882 113.656229,399.449148 116.02562,397.022224 L118.871732,394.107004 C122.040764,390.861024 127.043691,390.489169 130.631981,393.030406 Z M162.683418,371.644994 C161.976337,370.802328 160.717196,370.694785 159.871047,371.404788 C159.024897,372.114792 158.91216,373.373479 159.61924,374.216144 C160.32632,375.05881 161.585462,375.166354 162.431611,374.45635 C163.27776,373.746347 163.390498,372.48766 162.683418,371.644994 Z M649.368019,384.969594 L622.507419,409.476181 C620.168603,411.610027 616.542795,411.443866 614.408949,409.105051 C614.355537,409.046508 614.303344,408.986864 614.252405,408.926156 C612.217359,406.500884 612.533701,402.885082 614.958973,400.850037 C615.019681,400.799097 615.081437,400.749422 615.144204,400.701044 L643.942051,378.504599 C642.219613,374.856673 643.090324,370.369447 646.325687,367.654655 C646.556343,367.461112 646.796464,367.279139 647.045164,367.109406 L650.410317,364.812755 C653.21181,362.900791 657.00642,363.423531 659.186596,366.021763 L651.526151,372.449639 L652.554627,376.786776 L656.64728,378.552763 L664.307724,372.124886 C666.4879,374.723118 666.343771,378.550852 663.97438,380.977776 L661.128268,383.892996 C657.959236,387.138976 652.956309,387.510831 649.368019,384.969594 Z M617.316582,406.355006 C618.023663,407.197672 619.282804,407.305215 620.128953,406.595212 C620.975103,405.885208 621.08784,404.626521 620.38076,403.783856 C619.67368,402.94119 618.414538,402.833646 617.568389,403.54365 C616.72224,404.253653 616.609502,405.51234 617.316582,406.355006 Z M163.365503,262.806424 L198.880759,255.013398 C201.973156,254.334841 205.030118,256.291644 205.708675,259.384041 C205.72566,259.461447 205.741038,259.539196 205.754799,259.61724 C206.304564,262.73511 204.222703,265.708316 201.104832,266.258081 C201.026789,266.271842 200.948468,266.283983 200.869921,266.294497 L164.832032,271.118259 C164.499744,275.138674 161.502074,278.58937 157.342771,279.322767 C157.046246,279.375053 156.747308,279.412586 156.447061,279.435229 L152.384428,279.74161 C149.002281,279.996673 145.977423,277.646661 145.388451,274.306439 L155.236529,272.569958 L156.514411,268.299649 L153.853063,264.723933 L144.004985,266.460415 C143.416014,263.120193 145.4547,259.877342 148.720115,258.96026 L152.64253,257.858662 C157.009982,256.632076 161.528571,258.811504 163.365503,262.806424 Z M201.815568,260.311833 C201.624551,259.228523 200.587875,258.505817 199.500086,258.697623 C198.412297,258.889429 197.68532,259.923116 197.876337,261.006425 C198.067354,262.089735 199.10403,262.812442 200.191819,262.620635 C201.279608,262.428829 202.006585,261.395143 201.815568,260.311833 Z M616.634497,515.193576 L581.119241,522.986602 C578.026844,523.665159 574.969882,521.708356 574.291325,518.615959 C574.27434,518.538553 574.258962,518.460804 574.245201,518.38276 C573.695436,515.26489 575.777297,512.291684 578.895168,511.741919 C578.973211,511.728158 579.051532,511.716017 579.130079,511.705503 L615.167968,506.881741 C615.500256,502.861326 618.497926,499.41063 622.657229,498.677233 C622.953754,498.624947 623.252692,498.587414 623.552939,498.564771 L627.615572,498.25839 C630.997719,498.003327 634.022577,500.353339 634.611549,503.693561 L624.763471,505.430042 L623.485589,509.700351 L626.146937,513.276067 L635.995015,511.539585 C636.583986,514.879807 634.5453,518.122658 631.279885,519.03974 L627.35747,520.141338 C622.990018,521.367924 618.471429,519.188496 616.634497,515.193576 Z M578.184432,517.688167 C578.375449,518.771477 579.412125,519.494183 580.499914,519.302377 C581.587703,519.110571 582.31468,518.076884 582.123663,516.993575 C581.932646,515.910265 580.89597,515.187558 579.808181,515.379365 C578.720392,515.571171 577.993415,516.604857 578.184432,517.688167 Z M256.825556,166.39591 L291.479183,177.404578 C294.496556,178.363129 296.165561,181.586251 295.20701,184.603624 C295.183017,184.679152 295.15746,184.754174 295.130355,184.828643 C294.04753,187.80368 290.757983,189.337621 287.782946,188.254796 C287.708478,188.227692 287.634579,188.199046 287.561299,188.168878 L253.93969,174.327433 C251.641713,177.643072 247.320306,179.132626 243.351546,177.688116 C243.068605,177.585134 242.79095,177.46817 242.519608,177.337656 L238.848073,175.571673 C235.791517,174.10149 234.346918,170.553891 235.506965,167.366688 L244.903891,170.78689 L248.145724,167.727635 L247.628787,163.3003 L238.231861,159.880099 C239.391908,156.692896 242.778887,154.903848 246.06536,155.742339 L250.013071,156.749535 C254.408688,157.871006 257.232187,162.017741 256.825556,166.39591 Z M291.371585,183.460562 C291.747814,182.42688 291.211379,181.282659 290.173424,180.904874 C289.135468,180.527089 287.989044,181.058799 287.612814,182.092481 C287.236585,183.126164 287.77302,184.270384 288.810976,184.648169 C289.848932,185.025954 290.995355,184.494244 291.371585,183.460562 Z M523.174444,611.60409 L488.520817,600.595422 C485.503444,599.636871 483.834439,596.413749 484.79299,593.396376 C484.816983,593.320848 484.84254,593.245826 484.869645,593.171357 C485.95247,590.19632 489.242017,588.662379 492.217054,589.745204 C492.291522,589.772308 492.365421,589.800954 492.438701,589.831122 L526.06031,603.672567 C528.358287,600.356928 532.679694,598.867374 536.648454,600.311884 C536.931395,600.414866 537.20905,600.53183 537.480392,600.662344 L541.151927,602.428327 C544.208483,603.89851 545.653082,607.446109 544.493035,610.633312 L535.096109,607.21311 L531.854276,610.272365 L532.371213,614.6997 L541.768139,618.119901 C540.608092,621.307104 537.221113,623.096152 533.93464,622.257661 L529.986929,621.250465 C525.591312,620.128994 522.767813,615.982259 523.174444,611.60409 Z M488.628415,594.539438 C488.252186,595.57312 488.788621,596.717341 489.826576,597.095126 C490.864532,597.472911 492.010956,596.941201 492.387186,595.907519 C492.763415,594.873836 492.22698,593.729616 491.189024,593.351831 C490.151068,592.974046 489.004645,593.505756 488.628415,594.539438 Z" id="3"></path>
        </g>
    </g>
</svg>