<?xml version="1.0" encoding="UTF-8"?>
<svg width="780px" height="780px" viewBox="0 0 780 780" version="1.1" xmlns="http://www.w3.org/2000/svg" xmlns:xlink="http://www.w3.org/1999/xlink">
    <!-- Generator: Sketch 54.1 (76490) - https://sketchapp.com -->
    <title>devs-devops-teams-background-pattern-4</title>
    <desc>Created with Sketch.</desc>
    <g id="Page-1" stroke="none" stroke-width="1" fill="none" fill-rule="evenodd" opacity="0.06436">
        <g id="Group-23" fill="#FFFFFF">
            <path d="M399.572179,587.157624 C399.442996,587.106341 399.31527,587.047863 399.189498,586.982045 L365.318603,569.256798 C362.513522,567.788849 361.429562,564.324873 362.897511,561.519792 C362.934255,561.449578 362.972452,561.380133 363.012076,561.311503 C364.59506,558.569694 368.100998,557.630281 370.842807,559.213265 C370.911437,559.252889 370.979238,559.293931 371.046167,559.336366 L403.332128,579.806799 C403.357229,579.822714 403.382095,579.838864 403.406723,579.855245 C403.573474,579.912547 403.74087,579.991218 403.908202,580.093101 C407.385638,582.210406 410.576621,580.134171 411.562959,578.425783 C412.220519,577.286857 412.045842,575.961325 411.03893,574.449187 L413.420749,570.323757 C413.862576,569.558489 414.841121,569.296289 415.606389,569.738116 L422.70482,573.836397 C423.470088,574.278225 423.732288,575.25677 423.29046,576.022038 L420.908642,580.147468 C419.342452,580.038019 418.201132,580.60376 417.484681,581.84469 C416.768229,583.08562 417.288794,585.223141 419.046373,588.257252 C418.630047,590.474562 416.908284,593.456743 413.881085,597.203794 C410.853886,600.950845 405.458069,602.698966 397.693635,602.448157 L397.677813,601.008087 C402.313079,600.292507 404.964767,598.35958 405.632877,595.209307 C406.440597,591.400747 402.605797,588.653023 399.765624,587.268257 C399.697523,587.235053 399.633071,587.1981 399.572179,587.157624 Z M380.988901,190.846645 C381.118083,190.897927 381.24581,190.956405 381.371581,191.022224 L415.242477,208.74747 C418.047558,210.215419 419.131518,213.679395 417.663568,216.484476 C417.626824,216.55469 417.588628,216.624135 417.549004,216.692766 C415.96602,219.434575 412.460082,220.373988 409.718273,218.791004 C409.649643,218.75138 409.581841,218.710337 409.514913,218.667902 L377.228951,198.197469 C377.20385,198.181554 377.178985,198.165404 377.154356,198.149023 C376.987605,198.091721 376.820209,198.013051 376.652877,197.911168 C373.175442,195.793862 369.984459,197.870097 368.99812,199.578486 C368.340561,200.717412 368.515237,202.042943 369.522149,203.555081 L367.140331,207.680511 C366.698503,208.44578 365.719959,208.70798 364.95469,208.266152 L357.85626,204.167871 C357.090992,203.726044 356.828792,202.747499 357.270619,201.982231 L359.652438,197.856801 C361.218627,197.966249 362.359948,197.400509 363.076399,196.159579 C363.79285,194.918649 363.272286,192.781128 361.514706,189.747016 C361.931032,187.529706 363.652795,184.547525 366.679995,180.800474 C369.707194,177.053423 375.10301,175.305302 382.867444,175.556112 L382.883266,176.996182 C378.248,177.711762 375.596312,179.644688 374.928202,182.794961 C374.120483,186.603522 377.955282,189.351246 380.795455,190.736012 C380.863556,190.769215 380.928009,190.806169 380.988901,190.846645 Z M299.24959,565.255641 C299.163356,565.146639 299.081981,565.032132 299.005969,564.912245 L278.535536,532.626284 C276.840239,529.952462 277.63349,526.410591 280.307312,524.715294 C280.374241,524.672859 280.442042,524.631817 280.510673,524.592193 C283.252482,523.009209 286.75842,523.948622 288.341404,526.690431 C288.381028,526.759061 288.419224,526.828506 288.455968,526.89872 L306.181214,560.769615 C306.194995,560.795949 306.208454,560.822368 306.221593,560.848868 C306.337352,560.981869 306.442986,561.133698 306.536958,561.305597 C308.489853,564.877955 312.291443,564.675374 313.999832,563.689036 C315.138757,563.031477 315.650249,561.796194 315.534307,559.983188 L319.659737,557.60137 C320.425005,557.159542 321.40355,557.421743 321.845378,558.187011 L325.943658,565.285441 C326.385486,566.050709 326.123286,567.029254 325.358018,567.471082 L321.232588,569.8529 C319.930952,568.97502 318.659669,568.894305 317.418739,569.610757 C316.177809,570.327208 315.55987,572.438637 315.564923,575.945045 C314.095719,577.657129 311.113539,579.378892 306.618381,581.110333 C302.123224,582.841775 296.57625,581.657784 289.977458,577.55836 L290.68379,576.303312 C295.055839,578.001234 298.318731,577.653115 300.472467,575.258953 C303.076253,572.364503 301.129081,568.067504 299.361803,565.448175 C299.319427,565.38537 299.282087,565.321141 299.24959,565.255641 Z M481.311489,212.748627 C481.397723,212.85763 481.479098,212.972137 481.555111,213.092023 L502.025543,245.377984 C503.72084,248.051806 502.927589,251.593677 500.253767,253.288974 C500.186839,253.331409 500.119037,253.372452 500.050407,253.412076 C497.308598,254.99506 493.80266,254.055647 492.219676,251.313838 C492.180052,251.245207 492.141856,251.175763 492.105111,251.105548 L474.379865,217.234653 C474.366084,217.20832 474.352625,217.1819 474.339487,217.1554 C474.223727,217.0224 474.118093,216.870571 474.024121,216.698671 C472.071226,213.126313 468.269637,213.328894 466.561248,214.315233 C465.422322,214.972792 464.91083,216.208074 465.026773,218.02108 L460.901343,220.402898 C460.136074,220.844726 459.15753,220.582526 458.715702,219.817258 L454.617421,212.718827 C454.175593,211.953559 454.437794,210.975014 455.203062,210.533187 L459.328492,208.151368 C460.630128,209.029249 461.901411,209.109963 463.142341,208.393512 C464.383271,207.67706 465.001209,205.565631 464.996156,202.059223 C466.46536,200.347139 469.447541,198.625377 473.942698,196.893935 C478.437855,195.162493 483.98483,196.346485 490.583622,200.445909 L489.877289,201.700957 C485.505241,200.003034 482.242349,200.351154 480.088612,202.745315 C477.484826,205.639766 479.431998,209.936764 481.199277,212.556093 C481.241652,212.618899 481.278993,212.683128 481.311489,212.748627 Z M223.318671,496.126674 C223.298492,495.989158 223.285272,495.849305 223.279387,495.707474 L221.694453,457.511795 C221.563194,454.348549 224.021105,451.677824 227.184351,451.546565 C227.263531,451.543279 227.34277,451.541636 227.422017,451.541636 C230.587986,451.541636 233.15451,454.10816 233.15451,457.274129 C233.15451,457.353376 233.152867,457.432615 233.149581,457.511795 L231.564647,495.707474 C231.563415,495.73717 231.561861,495.766779 231.559989,495.796298 C231.59374,495.96936 231.609307,496.153664 231.604739,496.349519 C231.509817,500.41972 234.903381,502.145075 236.876058,502.145075 C238.191176,502.145075 239.251782,501.331034 240.057876,499.702954 L244.821513,499.702954 C245.705168,499.702954 246.421513,500.419299 246.421513,501.302954 L246.421513,509.499516 C246.421513,510.383171 245.705168,511.099516 244.821513,511.099516 L240.057876,511.099516 C239.369567,509.688431 238.308961,508.982889 236.876058,508.982889 C235.443155,508.982889 233.85229,510.502471 232.103463,513.541636 C229.975052,514.289742 226.531527,514.289742 221.772886,513.541636 C217.014245,512.79353 212.802419,508.994676 209.13741,502.145075 L210.376636,501.411337 C213.31398,505.067805 216.313787,506.397771 219.376058,505.401235 C223.078228,504.19646 223.540427,499.501565 223.319583,496.349519 C223.314288,496.273941 223.314064,496.199646 223.318671,496.126674 Z M557.242408,281.877594 C557.262587,282.01511 557.275807,282.154964 557.281692,282.296795 L558.866627,320.492474 C558.997886,323.65572 556.539975,326.326444 553.376728,326.457704 C553.297549,326.460989 553.21831,326.462633 553.139062,326.462633 C549.973094,326.462633 547.40657,323.896108 547.40657,320.73014 C547.40657,320.650892 547.408213,320.571653 547.411498,320.492474 L548.996432,282.296795 C548.997665,282.267099 548.999218,282.23749 549.00109,282.20797 C548.96734,282.034909 548.951773,281.850604 548.95634,281.654749 C549.051263,277.584549 545.657699,275.859194 543.685022,275.859194 C542.369903,275.859194 541.309297,276.673234 540.503203,278.301314 L535.739567,278.301314 C534.855911,278.301314 534.139567,277.58497 534.139567,276.701314 L534.139567,268.504753 C534.139567,267.621097 534.855911,266.904753 535.739567,266.904753 L540.503203,266.904753 C541.191513,268.315837 542.252119,269.021379 543.685022,269.021379 C545.117924,269.021379 546.708789,267.501797 548.457617,264.462633 C550.586027,263.714526 554.029553,263.714526 558.788194,264.462633 C563.546835,265.210739 567.75866,269.009592 571.42367,275.859194 L570.184444,276.592931 C567.2471,272.936463 564.247293,271.606497 561.185022,272.603033 C557.482851,273.807808 557.020652,278.502704 557.241496,281.654749 C557.246792,281.730328 557.247015,281.804622 557.242408,281.877594 Z M192.12505,398.293773 C192.176333,398.164591 192.234811,398.036864 192.300629,397.911093 L210.025876,364.040197 C211.493825,361.235116 214.957801,360.151156 217.762882,361.619106 C217.833096,361.65585 217.902541,361.694046 217.971171,361.73367 C220.71298,363.316654 221.652393,366.822592 220.069409,369.564401 C220.029785,369.633031 219.988743,369.700833 219.946308,369.767761 L199.475875,402.053723 C199.45996,402.078824 199.44381,402.103689 199.427429,402.128318 C199.370127,402.295069 199.291456,402.462465 199.189573,402.629797 C197.072268,406.107232 199.148503,409.298215 200.856891,410.284554 C201.995817,410.942113 203.321349,410.767437 204.833487,409.760525 L208.958917,412.142343 C209.724185,412.584171 209.986385,413.562715 209.544558,414.327984 L205.446277,421.426414 C205.004449,422.191682 204.025904,422.453882 203.260636,422.012055 L199.135206,419.630236 C199.244655,418.064047 198.678914,416.922726 197.437984,416.206275 C196.197054,415.489824 194.059533,416.010388 191.025422,417.767968 C188.808112,417.351642 185.825931,415.629879 182.07888,412.602679 C178.331829,409.57548 176.583708,404.179664 176.834517,396.41523 L178.274587,396.399408 C178.990167,401.034674 180.923094,403.686362 184.073367,404.354472 C187.881927,405.162191 190.629651,401.327392 192.014417,398.487219 C192.047621,398.419118 192.084574,398.354665 192.12505,398.293773 Z M588.436029,379.710495 C588.384747,379.839678 588.326269,379.967404 588.26045,380.093176 L570.535204,413.964071 C569.067255,416.769152 565.603279,417.853112 562.798198,416.385163 C562.727984,416.348419 562.658539,416.310222 562.589908,416.270598 C559.848099,414.687614 558.908686,411.181676 560.49167,408.439867 C560.531294,408.371237 560.572337,408.303436 560.614772,408.236507 L581.085205,375.950546 C581.10112,375.925445 581.11727,375.900579 581.133651,375.875951 C581.190953,375.7092 581.269623,375.541804 581.371506,375.374472 C583.488812,371.897036 581.412577,368.706053 579.704188,367.719715 C578.565262,367.062155 577.239731,367.236832 575.727593,368.243744 L571.602163,365.861925 C570.836894,365.420098 570.574694,364.441553 571.016522,363.676285 L575.114803,356.577854 C575.55663,355.812586 576.535175,355.550386 577.300443,355.992214 L581.425873,358.374032 C581.316425,359.940222 581.882165,361.081542 583.123095,361.797993 C584.364025,362.514445 586.501546,361.99388 589.535658,360.236301 C591.752968,360.652627 594.735149,362.37439 598.4822,365.401589 C602.229251,368.428788 603.977372,373.824605 603.726562,381.589039 L602.286492,381.604861 C601.570912,376.969595 599.637986,374.317907 596.487713,373.649797 C592.679152,372.842077 589.931428,376.676877 588.546662,379.51705 C588.513459,379.585151 588.476505,379.649603 588.436029,379.710495 Z M214.027033,297.971185 C214.136035,297.884951 214.250542,297.803576 214.370429,297.727563 L246.65639,277.257131 C249.330212,275.561834 252.872083,276.355085 254.56738,279.028907 C254.609815,279.095835 254.650857,279.163637 254.690481,279.232267 C256.273465,281.974076 255.334052,285.480014 252.592243,287.062998 C252.523613,287.102622 252.454168,287.140818 252.383954,287.177563 L218.513059,304.902809 C218.486725,304.91659 218.460306,304.930049 218.433806,304.943187 C218.300805,305.058947 218.148976,305.164581 217.977077,305.258553 C214.404719,307.211448 214.6073,311.013037 215.593638,312.721426 C216.251197,313.860352 217.48648,314.371844 219.299486,314.255901 L221.681304,318.381331 C222.123132,319.1466 221.860931,320.125144 221.095663,320.566972 L213.997233,324.665253 C213.231965,325.107081 212.25342,324.84488 211.811592,324.079612 L209.429774,319.954182 C210.307654,318.652546 210.388369,317.381263 209.671917,316.140333 C208.955466,314.899403 206.844037,314.281465 203.337629,314.286518 C201.625545,312.817314 199.903782,309.835133 198.172341,305.339976 C196.440899,300.844819 197.62489,295.297844 201.724314,288.699052 L202.979362,289.405385 C201.28144,293.777433 201.629559,297.040325 204.023721,299.194062 C206.918171,301.797848 211.21517,299.850676 213.834499,298.083397 C213.897304,298.041022 213.961533,298.003681 214.027033,297.971185 Z M566.534047,480.033084 C566.425044,480.119318 566.310537,480.200693 566.190651,480.276705 L533.90469,500.747138 C531.230868,502.442435 527.688997,501.649184 525.9937,498.975362 C525.951265,498.908433 525.910222,498.840632 525.870598,498.772001 C524.287614,496.030192 525.227027,492.524254 527.968836,490.94127 C528.037467,490.901646 528.106911,490.86345 528.177126,490.826706 L562.048021,473.10146 C562.074354,473.087679 562.100774,473.07422 562.127274,473.061081 C562.260274,472.945322 562.412103,472.839688 562.584003,472.745716 C566.156361,470.792821 565.95378,466.991231 564.967441,465.282842 C564.309882,464.143917 563.0746,463.632425 561.261594,463.748367 L558.879776,459.622937 C558.437948,458.857669 558.700148,457.879124 559.465416,457.437296 L566.563847,453.339016 C567.329115,452.897188 568.30766,453.159388 568.749487,453.924656 L571.131306,458.050086 C570.253425,459.351722 570.172711,460.623005 570.889162,461.863935 C571.605614,463.104865 573.717043,463.722804 577.223451,463.717751 C578.935535,465.186955 580.657297,468.169135 582.388739,472.664293 C584.120181,477.15945 582.936189,482.706424 578.836765,489.305216 L577.581717,488.598884 C579.27964,484.226835 578.93152,480.963943 576.537359,478.810207 C573.642908,476.206421 569.34591,478.153593 566.726581,479.920871 C566.663775,479.963247 566.599546,480.000587 566.534047,480.033084 Z M283.156,222.040266 C283.293516,222.020087 283.433369,222.006867 283.5752,222.000982 L321.770879,220.416047 C324.934126,220.284788 327.60485,222.742699 327.736109,225.905946 C327.739395,225.985125 327.741038,226.064364 327.741038,226.143612 C327.741038,229.30958 325.174514,231.876104 322.008545,231.876104 C321.929298,231.876104 321.850059,231.874461 321.770879,231.871176 L283.5752,230.286242 C283.545504,230.285009 283.515895,230.283456 283.486376,230.281584 C283.313314,230.315334 283.12901,230.330901 282.933155,230.326334 C278.862954,230.231411 277.137599,233.624975 277.137599,235.597652 C277.137599,236.912771 277.95164,237.973377 279.57972,238.779471 L279.57972,243.543107 C279.57972,244.426763 278.863375,245.143107 277.97972,245.143107 L269.783158,245.143107 C268.899503,245.143107 268.183158,244.426763 268.183158,243.543107 L268.183158,238.779471 C269.594243,238.091161 270.299785,237.030555 270.299785,235.597652 C270.299785,234.16475 268.780203,232.573885 265.741038,230.825057 C264.992932,228.696647 264.992932,225.253121 265.741038,220.49448 C266.489144,215.735839 270.287998,211.524014 277.137599,207.859004 L277.871337,209.09823 C274.214869,212.035574 272.884903,215.035381 273.881439,218.097652 C275.086214,221.799823 279.781109,222.262022 282.933155,222.041178 C283.008733,222.035882 283.083028,222.035659 283.156,222.040266 Z M497.40508,555.964003 C497.267564,555.984182 497.12771,555.997402 496.985879,556.003287 L458.7902,557.588221 C455.626954,557.71948 452.95623,555.261569 452.82497,552.098323 C452.821685,552.019143 452.820041,551.939904 452.820041,551.860657 C452.820041,548.694688 455.386566,546.128164 458.552534,546.128164 C458.631782,546.128164 458.711021,546.129807 458.7902,546.133093 L496.985879,547.718027 C497.015575,547.719259 497.045184,547.720813 497.074704,547.722685 C497.247765,547.688934 497.43207,547.673367 497.627925,547.677935 C501.698125,547.772857 503.42348,544.379293 503.42348,542.406616 C503.42348,541.091498 502.60944,540.030892 500.98136,539.224798 L500.98136,534.461161 C500.98136,533.577506 501.697704,532.861161 502.58136,532.861161 L510.777921,532.861161 C511.661577,532.861161 512.377921,533.577506 512.377921,534.461161 L512.377921,539.224798 C510.966837,539.913107 510.261295,540.973713 510.261295,542.406616 C510.261295,543.839519 511.780877,545.430384 514.820041,547.179211 C515.568148,549.307622 515.568148,552.751147 514.820041,557.509788 C514.071935,562.268429 510.273082,566.480255 503.42348,570.145264 L502.689743,568.906038 C506.346211,565.968694 507.676177,562.968887 506.679641,559.906616 C505.474866,556.204446 500.77997,555.742247 497.627925,555.963091 C497.552346,555.968386 497.478052,555.96861 497.40508,555.964003 Z" id="2"></path>
        </g>
    </g>
</svg>