<?xml version="1.0" encoding="UTF-8"?>
<svg width="780px" height="780px" viewBox="0 0 780 780" version="1.1" xmlns="http://www.w3.org/2000/svg" xmlns:xlink="http://www.w3.org/1999/xlink">
    <!-- Generator: Sketch 54.1 (76490) - https://sketchapp.com -->
    <title>devs-devops-teams-background-pattern-2</title>
    <desc>Created with Sketch.</desc>
    <g id="Page-1" stroke="none" stroke-width="1" fill="none" fill-rule="evenodd" opacity="0.04">
        <g id="Group-21" transform="translate(-34.000000, -35.000000)" fill="#FFFFFF">
            <path d="M436.976778,733.067057 L439.956363,737.953578 L436.76596,741.14398 L431.87944,738.164395 C430.921421,738.708899 429.890449,739.139871 428.804825,739.439011 L427.456706,745 L422.944795,745 L421.596676,739.439011 C420.511052,739.139871 419.48008,738.708899 418.522061,738.164395 L413.63554,741.14398 L410.445138,737.953578 L413.424723,733.067057 C412.880219,732.109038 412.449247,731.078066 412.150108,729.992442 L406.589118,728.644323 L406.589118,724.132412 L412.150108,722.784294 C412.449247,721.698669 412.880219,720.667697 413.424723,719.709678 L410.445138,714.823158 L413.63554,711.632755 L418.522061,714.612341 C419.48008,714.067836 420.511052,713.636864 421.596676,713.337725 L422.944795,707.776735 L427.456706,707.776735 L428.804825,713.337725 C429.890449,713.636864 430.921421,714.067836 431.87944,714.612341 L436.76596,711.632755 L439.956363,714.823158 L436.976778,719.709678 C437.521282,720.667697 437.952254,721.698669 438.251393,722.784294 L443.812383,724.132412 L443.812383,728.644323 L438.251393,729.992442 C437.952254,731.078066 437.521282,732.109038 436.976778,733.067057 Z M425.20075,734.848201 C429.872987,734.848201 433.660583,731.060604 433.660583,726.388368 C433.660583,721.716131 429.872987,717.928535 425.20075,717.928535 C420.528514,717.928535 416.740918,721.716131 416.740918,726.388368 C416.740918,731.060604 420.528514,734.848201 425.20075,734.848201 Z M425.20075,729.772301 C423.331856,729.772301 421.816817,728.257262 421.816817,726.388368 C421.816817,724.519473 423.331856,723.004435 425.20075,723.004435 C427.069645,723.004435 428.584684,724.519473 428.584684,726.388368 C428.584684,728.257262 427.069645,729.772301 425.20075,729.772301 Z M436.976778,130.290322 L439.956363,135.176842 L436.76596,138.367245 L431.87944,135.387659 C430.921421,135.932164 429.890449,136.363136 428.804825,136.662275 L427.456706,142.223265 L422.944795,142.223265 L421.596676,136.662275 C420.511052,136.363136 419.48008,135.932164 418.522061,135.387659 L413.63554,138.367245 L410.445138,135.176842 L413.424723,130.290322 C412.880219,129.332303 412.449247,128.301331 412.150108,127.215706 L406.589118,125.867588 L406.589118,121.355677 L412.150108,120.007558 C412.449247,118.921934 412.880219,117.890962 413.424723,116.932943 L410.445138,112.046422 L413.63554,108.85602 L418.522061,111.835605 C419.48008,111.291101 420.511052,110.860129 421.596676,110.560989 L422.944795,105 L427.456706,105 L428.804825,110.560989 C429.890449,110.860129 430.921421,111.291101 431.87944,111.835605 L436.76596,108.85602 L439.956363,112.046422 L436.976778,116.932943 C437.521282,117.890962 437.952254,118.921934 438.251393,120.007558 L443.812383,121.355677 L443.812383,125.867588 L438.251393,127.215706 C437.952254,128.301331 437.521282,129.332303 436.976778,130.290322 Z M425.20075,132.071465 C429.872987,132.071465 433.660583,128.283869 433.660583,123.611632 C433.660583,118.939396 429.872987,115.151799 425.20075,115.151799 C420.528514,115.151799 416.740918,118.939396 416.740918,123.611632 C416.740918,128.283869 420.528514,132.071465 425.20075,132.071465 Z M425.20075,126.995565 C423.331856,126.995565 421.816817,125.480527 421.816817,123.611632 C421.816817,121.742738 423.331856,120.227699 425.20075,120.227699 C427.069645,120.227699 428.584684,121.742738 428.584684,123.611632 C428.584684,125.480527 427.069645,126.995565 425.20075,126.995565 Z M280.984938,697.901664 L281.122074,703.623307 L276.763903,704.791076 L274.021845,699.767419 C272.919924,699.759964 271.81159,699.617711 270.721842,699.333961 L266.773843,703.47586 L262.866413,701.219904 L264.479403,695.729887 C263.688794,694.928012 263.011432,694.039293 262.454016,693.088729 L256.732372,693.225866 L255.564603,688.867695 L260.588261,686.125637 C260.595716,685.023716 260.737969,683.915382 261.021719,682.825634 L256.87982,678.877634 L259.135775,674.970205 L264.625793,676.583194 C265.427667,675.792586 266.316386,675.115224 267.26695,674.557807 L267.129813,668.836163 L271.487985,667.668395 L274.230043,672.692052 C275.331964,672.699507 276.440298,672.84176 277.530046,673.12551 L281.478045,668.983611 L285.385475,671.239567 L283.772485,676.729584 C284.563094,677.531459 285.240456,678.420177 285.797872,679.370742 L291.519516,679.233605 L292.687284,683.591776 L287.663627,686.333834 C287.656172,687.435755 287.513919,688.544089 287.230169,689.633837 L291.372068,693.581837 L289.116113,697.489266 L283.626095,695.876277 C282.824221,696.666885 281.935502,697.344247 280.984938,697.901664 Z M269.896028,693.556166 C273.942303,695.892284 279.116256,694.505928 281.452374,690.459652 C283.788492,686.413376 282.402136,681.239424 278.35586,678.903305 C274.309585,676.567187 269.135632,677.953543 266.799514,681.999819 C264.463395,686.046095 265.849752,691.220047 269.896028,693.556166 Z M272.433977,689.160308 C270.815467,688.22586 270.260925,686.156279 271.195372,684.537769 C272.129819,682.919259 274.1994,682.364716 275.817911,683.299163 C277.436421,684.233611 277.990963,686.303192 277.056516,687.921702 C276.122069,689.540212 274.052488,690.094755 272.433977,689.160308 Z M582.373306,175.881698 L582.510442,181.603342 L578.152271,182.77111 L575.410213,177.747453 C574.308292,177.739998 573.199958,177.597745 572.11021,177.313995 L568.16221,181.455894 L564.254781,179.199938 L565.867771,173.709921 C565.077162,172.908046 564.3998,172.019328 563.842383,171.068764 L558.12074,171.2059 L556.952971,166.847729 L561.976628,164.105671 C561.984083,163.00375 562.126337,161.895416 562.410086,160.805668 L558.268188,156.857668 L560.524143,152.950239 L566.014161,154.563229 C566.816035,153.77262 567.704754,153.095258 568.655318,152.537841 L568.518181,146.816198 L572.876352,145.648429 L575.61841,150.672086 C576.720331,150.679541 577.828665,150.821795 578.918413,151.105544 L582.866413,146.963646 L586.773843,149.219601 L585.160853,154.709619 C585.951461,155.511493 586.628823,156.400212 587.18624,157.350776 L592.907884,157.213639 L594.075652,161.57181 L589.051995,164.313869 C589.04454,165.41579 588.902287,166.524123 588.618537,167.613871 L592.760436,171.561871 L590.50448,175.469301 L585.014463,173.856311 C584.212588,174.646919 583.32387,175.324281 582.373306,175.881698 Z M571.284395,171.5362 C575.330671,173.872318 580.504624,172.485962 582.840742,168.439686 C585.17686,164.393411 583.790504,159.219458 579.744228,156.88334 C575.697952,154.547221 570.524,155.933578 568.187882,159.979853 C565.851763,164.026129 567.23812,169.200082 571.284395,171.5362 Z M573.822345,167.140342 C572.203835,166.205894 571.649292,164.136313 572.58374,162.517803 C573.518187,160.899293 575.587768,160.34475 577.206278,161.279198 C578.824789,162.213645 579.379331,164.283226 578.444884,165.901736 C577.510436,167.520247 575.440855,168.074789 573.822345,167.140342 Z M163.474739,589.45162 L160.732681,594.475277 L156.374509,593.307509 L156.511646,587.585865 C155.561082,587.028448 154.672363,586.351086 153.870489,585.560478 L148.380471,587.173467 L146.124516,583.266038 L150.266415,579.318038 C149.982665,578.22829 149.840411,577.119956 149.832956,576.018035 L144.809299,573.275977 L145.977068,568.917806 L151.698712,569.054943 C152.256128,568.104378 152.93349,567.21566 153.724099,566.413785 L152.111109,560.923768 L156.018538,558.667812 L159.966538,562.809711 C161.056286,562.525961 162.16462,562.383708 163.266541,562.376253 L166.008599,557.352596 L170.36677,558.520364 L170.229634,564.242008 C171.180198,564.799425 172.068916,565.476787 172.870791,566.267395 L178.360808,564.654406 L180.616764,568.561835 L176.474865,572.509835 C176.758615,573.599583 176.900868,574.707917 176.908323,575.809838 L181.93198,578.551896 L180.764212,582.910067 L175.042568,582.77293 C174.485151,583.723494 173.80779,584.612213 173.017181,585.414088 L174.630171,590.904105 L170.722741,593.160061 L166.774741,589.018162 C165.684993,589.301912 164.57666,589.444165 163.474739,589.45162 Z M156.04421,580.143853 C158.380328,584.190129 163.554281,585.576485 167.600556,583.240367 C171.646832,580.904248 173.033188,575.730296 170.69707,571.68402 C168.360952,567.637744 163.186999,566.251388 159.140723,568.587506 C155.094448,570.923625 153.708091,576.097577 156.04421,580.143853 Z M160.440068,577.605903 C159.50562,575.987393 160.060163,573.917812 161.678673,572.983364 C163.297183,572.048917 165.366765,572.60346 166.301212,574.22197 C167.235659,575.84048 166.681117,577.910061 165.062606,578.844509 C163.444096,579.778956 161.374515,579.224413 160.440068,577.605903 Z M685.494704,288.063252 L682.752646,293.086909 L678.394475,291.919141 L678.531612,286.197497 C677.581048,285.64008 676.692329,284.962718 675.890454,284.17211 L670.400437,285.7851 L668.144481,281.87767 L672.28638,277.92967 C672.00263,276.839922 671.860377,275.731589 671.852922,274.629668 L666.829265,271.887609 L667.997033,267.529438 L673.718677,267.666575 C674.276094,266.716011 674.953456,265.827292 675.744064,265.025418 L674.131075,259.5354 L678.038504,257.279445 L681.986504,261.421343 C683.076252,261.137594 684.184586,260.99534 685.286507,260.987885 L688.028565,255.964228 L692.386736,257.131997 L692.249599,262.85364 C693.200163,263.411057 694.088882,264.088419 694.890757,264.879028 L700.380774,263.266038 L702.63673,267.173467 L698.494831,271.121467 C698.778581,272.211215 698.920834,273.319549 698.928289,274.42147 L703.951946,277.163528 L702.784178,281.521699 L697.062534,281.384563 C696.505117,282.335127 695.827755,283.223845 695.037147,284.02572 L696.650136,289.515737 L692.742707,291.771693 L688.794707,287.629794 C687.704959,287.913544 686.596625,288.055797 685.494704,288.063252 Z M678.064175,278.755485 C680.400294,282.801761 685.574246,284.188117 689.620522,281.851999 C693.666798,279.515881 695.053154,274.341928 692.717036,270.295652 C690.380917,266.249377 685.206965,264.86302 681.160689,267.199139 C677.114413,269.535257 675.728057,274.709209 678.064175,278.755485 Z M682.460033,276.217535 C681.525586,274.599025 682.080129,272.529444 683.698639,271.594997 C685.317149,270.660549 687.38673,271.215092 688.321178,272.833602 C689.255625,274.452112 688.701082,276.521693 687.082572,277.456141 C685.464062,278.390588 683.394481,277.836046 682.460033,276.217535 Z M115.932943,436.776027 L111.046422,439.755613 L107.85602,436.56521 L110.835605,431.678689 C110.291101,430.72067 109.860129,429.689698 109.560989,428.604074 L104,427.255955 L104,422.744045 L109.560989,421.395926 C109.860129,420.310302 110.291101,419.27933 110.835605,418.321311 L107.85602,413.43479 L111.046422,410.244387 L115.932943,413.223973 C116.890962,412.679469 117.921934,412.248497 119.007558,411.949357 L120.355677,406.388368 L124.867588,406.388368 L126.215706,411.949357 C127.301331,412.248497 128.332303,412.679469 129.290322,413.223973 L134.176842,410.244387 L137.367245,413.43479 L134.387659,418.321311 C134.932164,419.27933 135.363136,420.310302 135.662275,421.395926 L141.223265,422.744045 L141.223265,427.255955 L135.662275,428.604074 C135.363136,429.689698 134.932164,430.72067 134.387659,431.678689 L137.367245,436.56521 L134.176842,439.755613 L129.290322,436.776027 C128.332303,437.320531 127.301331,437.751503 126.215706,438.050643 L124.867588,443.611632 L120.355677,443.611632 L119.007558,438.050643 C117.921934,437.751503 116.890962,437.320531 115.932943,436.776027 Z M114.151799,425 C114.151799,429.672237 117.939396,433.459833 122.611632,433.459833 C127.283869,433.459833 131.071465,429.672237 131.071465,425 C131.071465,420.327763 127.283869,416.540167 122.611632,416.540167 C117.939396,416.540167 114.151799,420.327763 114.151799,425 Z M119.227699,425 C119.227699,423.131105 120.742738,421.616067 122.611632,421.616067 C124.480527,421.616067 125.995565,423.131105 125.995565,425 C125.995565,426.868895 124.480527,428.383933 122.611632,428.383933 C120.742738,428.383933 119.227699,426.868895 119.227699,425 Z M718.709678,436.776027 L713.823158,439.755613 L710.632755,436.56521 L713.612341,431.678689 C713.067836,430.72067 712.636864,429.689698 712.337725,428.604074 L706.776735,427.255955 L706.776735,422.744045 L712.337725,421.395926 C712.636864,420.310302 713.067836,419.27933 713.612341,418.321311 L710.632755,413.43479 L713.823158,410.244387 L718.709678,413.223973 C719.667697,412.679469 720.698669,412.248497 721.784294,411.949357 L723.132412,406.388368 L727.644323,406.388368 L728.992442,411.949357 C730.078066,412.248497 731.109038,412.679469 732.067057,413.223973 L736.953578,410.244387 L740.14398,413.43479 L737.164395,418.321311 C737.708899,419.27933 738.139871,420.310302 738.439011,421.395926 L744,422.744045 L744,427.255955 L738.439011,428.604074 C738.139871,429.689698 737.708899,430.72067 737.164395,431.678689 L740.14398,436.56521 L736.953578,439.755613 L732.067057,436.776027 C731.109038,437.320531 730.078066,437.751503 728.992442,438.050643 L727.644323,443.611632 L723.132412,443.611632 L721.784294,438.050643 C720.698669,437.751503 719.667697,437.320531 718.709678,436.776027 Z M716.928535,425 C716.928535,429.672237 720.716131,433.459833 725.388368,433.459833 C730.060604,433.459833 733.848201,429.672237 733.848201,425 C733.848201,420.327763 730.060604,416.540167 725.388368,416.540167 C720.716131,416.540167 716.928535,420.327763 716.928535,425 Z M722.004435,425 C722.004435,423.131105 723.519473,421.616067 725.388368,421.616067 C727.257262,421.616067 728.772301,423.131105 728.772301,425 C728.772301,426.868895 727.257262,428.383933 725.388368,428.383933 C723.519473,428.383933 722.004435,426.868895 722.004435,425 Z M151.098336,280.784187 L145.376693,280.921324 L144.208924,276.563153 L149.232581,273.821095 C149.240036,272.719174 149.382289,271.61084 149.666039,270.521092 L145.52414,266.573092 L147.780096,262.665663 L153.270113,264.278652 C154.071988,263.488044 154.960707,262.810682 155.911271,262.253265 L155.774134,256.531621 L160.132305,255.363853 L162.874363,260.38751 C163.976284,260.394965 165.084618,260.537218 166.174366,260.820968 L170.122366,256.679069 L174.029795,258.935025 L172.416806,264.425042 C173.207414,265.226917 173.884776,266.115636 174.442193,267.0662 L180.163837,266.929063 L181.331605,271.287234 L176.307948,274.029292 C176.300493,275.131213 176.15824,276.239547 175.87449,277.329295 L180.016389,281.277295 L177.760433,285.184724 L172.270416,283.571735 C171.468541,284.362343 170.579823,285.039705 169.629258,285.597122 L169.766395,291.318766 L165.408224,292.486534 L162.666166,287.462877 C161.564245,287.455422 160.455911,287.313169 159.366163,287.029419 L155.418163,291.171318 L151.510734,288.915362 L153.123723,283.425345 C152.333115,282.62347 151.655753,281.734751 151.098336,280.784187 Z M155.443834,269.695277 C153.107716,273.741553 154.494072,278.915505 158.540348,281.251624 C162.586624,283.587742 167.760576,282.201386 170.096695,278.15511 C172.432813,274.108834 171.046457,268.934882 167.000181,266.598763 C162.953905,264.262645 157.779953,265.649001 155.443834,269.695277 Z M159.839692,272.233227 C160.77414,270.614717 162.843721,270.060174 164.462231,270.994621 C166.080741,271.929069 166.635284,273.99865 165.700837,275.61716 C164.766389,277.23567 162.696808,277.790213 161.078298,276.855766 C159.459788,275.921318 158.905245,273.851737 159.839692,272.233227 Z M667.396658,582.309692 L666.22889,577.951521 L671.252547,575.209462 C671.260002,574.107541 671.402255,572.999208 671.686005,571.90946 L667.544106,567.96146 L669.800062,564.05403 L675.290079,565.66702 C676.091954,564.876411 676.980672,564.19905 677.931236,563.641633 L677.7941,557.919989 L682.152271,556.752221 L684.894329,561.775878 C685.99625,561.783333 687.104584,561.925586 688.194332,562.209336 L692.142332,558.067437 L696.049761,560.323393 L694.436771,565.81341 C695.22738,566.615285 695.904742,567.504003 696.462159,568.454567 L702.183802,568.317431 L703.351571,572.675602 L698.327914,575.41766 C698.320459,576.519581 698.178205,577.627915 697.894456,578.717663 L702.036354,582.665663 L699.780399,586.573092 L694.290381,584.960102 C693.488507,585.750711 692.599788,586.428073 691.649224,586.985489 L691.786361,592.707133 L687.42819,593.874902 L684.686131,588.851245 C683.58421,588.84379 682.475877,588.701536 681.386129,588.417786 L677.438129,592.559685 L673.530699,590.30373 L675.143689,584.813712 C674.353081,584.011838 673.675719,583.123119 673.118302,582.172555 L667.396658,582.309692 Z M677.4638,571.083645 C675.127682,575.12992 676.514038,580.303873 680.560314,582.639991 C684.606589,584.97611 689.780542,583.589753 692.11666,579.543478 C694.452779,575.497202 693.066422,570.323249 689.020147,567.987131 C684.973871,565.651013 679.799918,567.037369 677.4638,571.083645 Z M681.859658,573.621595 C682.794106,572.003084 684.863687,571.448542 686.482197,572.382989 C688.100707,573.317436 688.65525,575.387018 687.720802,577.005528 C686.786355,578.624038 684.716774,579.178581 683.098264,578.244133 C681.479753,577.309686 680.925211,575.240105 681.859658,573.621595 Z M259.54838,163.273988 L254.524723,160.53193 L255.692491,156.173759 L261.414135,156.310895 C261.971552,155.360331 262.648914,154.471613 263.439522,153.669738 L261.826533,148.179721 L265.733962,145.923765 L269.681962,150.065664 C270.77171,149.781914 271.880044,149.639661 272.981965,149.632206 L275.724023,144.608549 L280.082194,145.776317 L279.945057,151.497961 C280.895622,152.055378 281.78434,152.73274 282.586215,153.523348 L288.076232,151.910358 L290.332188,155.817788 L286.190289,159.765788 C286.474039,160.855536 286.616292,161.96387 286.623747,163.065791 L291.647404,165.807849 L290.479636,170.16602 L284.757992,170.028883 C284.200575,170.979447 283.523213,171.868166 282.732605,172.67004 L284.345594,178.160058 L280.438165,180.416013 L276.490165,176.274115 C275.400417,176.557864 274.292083,176.700118 273.190162,176.707573 L270.448104,181.73123 L266.089933,180.563461 L266.22707,174.841818 C265.276506,174.284401 264.387787,173.607039 263.585912,172.81643 L258.095895,174.42942 L255.839939,170.521991 L259.981838,166.573991 C259.698088,165.484243 259.555835,164.375909 259.54838,163.273988 Z M268.856147,155.843459 C264.809871,158.179577 263.423515,163.35353 265.759633,167.399806 C268.095752,171.446081 273.269704,172.832438 277.31598,170.496319 C281.362256,168.160201 282.748612,162.986249 280.412494,158.939973 C278.076375,154.893697 272.902423,153.507341 268.856147,155.843459 Z M271.394097,160.239317 C273.012607,159.30487 275.082188,159.859412 276.016636,161.477923 C276.951083,163.096433 276.39654,165.166014 274.77803,166.100461 C273.15952,167.034909 271.089939,166.480366 270.155491,164.861856 C269.221044,163.243346 269.775587,161.173765 271.394097,160.239317 Z M560.936748,685.293954 L555.913091,682.551896 L557.080859,678.193725 L562.802503,678.330861 C563.35992,677.380297 564.037282,676.491578 564.82789,675.689704 L563.2149,670.199686 L567.12233,667.943731 L571.07033,672.08563 C572.160078,671.80188 573.268411,671.659627 574.370332,671.652172 L577.112391,666.628515 L581.470562,667.796283 L581.333425,673.517927 C582.283989,674.075343 583.172708,674.752705 583.974582,675.543314 L589.4646,673.930324 L591.720555,677.837754 L587.578657,681.785753 C587.862406,682.875501 588.00466,683.983835 588.012115,685.085756 L593.035772,687.827814 L591.868003,692.185986 L586.14636,692.048849 C585.588943,692.999413 584.911581,693.888132 584.120972,694.690006 L585.733962,700.180024 L581.826533,702.435979 L577.878533,698.29408 C576.788785,698.57783 575.680451,698.720083 574.57853,698.727538 L571.836472,703.751196 L567.478301,702.583427 L567.615437,696.861783 C566.664873,696.304367 565.776155,695.627005 564.97428,694.836396 L559.484263,696.449386 L557.228307,692.541956 L561.370206,688.593957 C561.086456,687.504209 560.944203,686.395875 560.936748,685.293954 Z M570.244515,677.863425 C566.198239,680.199543 564.811883,685.373496 567.148001,689.419771 C569.484119,693.466047 574.658072,694.852404 578.704348,692.516285 C582.750623,690.180167 584.13698,685.006214 581.800861,680.959939 C579.464743,676.913663 574.290791,675.527307 570.244515,677.863425 Z M572.782465,682.259283 C574.400975,681.324836 576.470556,681.879378 577.405003,683.497888 C578.339451,685.116399 577.784908,687.18598 576.166398,688.120427 C574.547888,689.054874 572.478307,688.500332 571.543859,686.881822 C570.609412,685.263311 571.163954,683.19373 572.782465,682.259283 Z" id="4"></path>
        </g>
    </g>
</svg>