<?xml version="1.0" encoding="UTF-8"?>
<svg width="40px" height="40px" viewBox="0 0 40 40" version="1.1" xmlns="http://www.w3.org/2000/svg" xmlns:xlink="http://www.w3.org/1999/xlink">
    <!-- Generator: Sketch 54.1 (76490) - https://sketchapp.com -->
    <title>features-icon-teams</title>
    <desc>Created with Sketch.</desc>
    <defs>
        <linearGradient x1="50%" y1="0%" x2="50%" y2="91.311349%" id="linearGradient-1">
            <stop stop-color="#8DC5FF" offset="0%"></stop>
            <stop stop-color="#8DC5FF" stop-opacity="0" offset="100%"></stop>
        </linearGradient>
        <path d="M15.1731651,4.21238938 C16.1527233,4.21238938 16.6739433,3.40105107 16.8103777,2.10619469 C16.946812,0.811338315 16.1527233,0 15.1731651,0 C14.193607,0 13.3995182,0.811338315 13.5359526,2.10619469 C13.672387,3.40105107 14.193607,4.21238938 15.1731651,4.21238938 Z" id="path-2"></path>
        <filter x="-60.5%" y="-23.7%" width="221.0%" height="195.0%" filterUnits="objectBoundingBox" id="filter-3">
            <feOffset dx="0" dy="1" in="SourceAlpha" result="shadowOffsetOuter1"></feOffset>
            <feGaussianBlur stdDeviation="0.5" in="shadowOffsetOuter1" result="shadowBlurOuter1"></feGaussianBlur>
            <feColorMatrix values="0 0 0 0 0.0470588235   0 0 0 0 0.295867967   0 0 0 0 0.364705882  0 0 0 0.101336051 0" type="matrix" in="shadowBlurOuter1"></feColorMatrix>
        </filter>
        <linearGradient x1="50%" y1="0%" x2="50%" y2="91.311349%" id="linearGradient-4">
            <stop stop-color="#8DC5FF" offset="0%"></stop>
            <stop stop-color="#8DC5FF" stop-opacity="0" offset="100%"></stop>
        </linearGradient>
        <path d="M5.85894495,11.4336283 C6.83850309,11.4336283 7.3597231,10.62229 7.49615747,9.32743363 C7.63259185,8.03257725 6.83850309,7.22123894 5.85894495,7.22123894 C4.87938682,7.22123894 4.08529806,8.03257725 4.22173243,9.32743363 C4.35816681,10.62229 4.87938682,11.4336283 5.85894495,11.4336283 Z" id="path-5"></path>
        <filter x="-60.5%" y="-23.7%" width="221.0%" height="195.0%" filterUnits="objectBoundingBox" id="filter-6">
            <feOffset dx="0" dy="1" in="SourceAlpha" result="shadowOffsetOuter1"></feOffset>
            <feGaussianBlur stdDeviation="0.5" in="shadowOffsetOuter1" result="shadowBlurOuter1"></feGaussianBlur>
            <feColorMatrix values="0 0 0 0 0.0470588235   0 0 0 0 0.295867967   0 0 0 0 0.364705882  0 0 0 0.101336051 0" type="matrix" in="shadowBlurOuter1"></feColorMatrix>
        </filter>
        <linearGradient x1="50%" y1="0%" x2="50%" y2="91.311349%" id="linearGradient-7">
            <stop stop-color="#8DC5FF" offset="0%"></stop>
            <stop stop-color="#8DC5FF" stop-opacity="0" offset="100%"></stop>
        </linearGradient>
        <path d="M24.1869266,11.4336283 C25.1664847,11.4336283 25.6877047,10.62229 25.8241391,9.32743363 C25.9605735,8.03257725 25.1664847,7.22123894 24.1869266,7.22123894 C23.2073685,7.22123894 22.4132797,8.03257725 22.5497141,9.32743363 C22.6861485,10.62229 23.2073685,11.4336283 24.1869266,11.4336283 Z" id="path-8"></path>
        <filter x="-60.5%" y="-23.7%" width="221.0%" height="195.0%" filterUnits="objectBoundingBox" id="filter-9">
            <feOffset dx="0" dy="1" in="SourceAlpha" result="shadowOffsetOuter1"></feOffset>
            <feGaussianBlur stdDeviation="0.5" in="shadowOffsetOuter1" result="shadowBlurOuter1"></feGaussianBlur>
            <feColorMatrix values="0 0 0 0 0.0470588235   0 0 0 0 0.295867967   0 0 0 0 0.364705882  0 0 0 0.101336051 0" type="matrix" in="shadowBlurOuter1"></feColorMatrix>
        </filter>
        <linearGradient x1="50%" y1="0%" x2="50%" y2="91.311349%" id="linearGradient-10">
            <stop stop-color="#8DC5FF" offset="0%"></stop>
            <stop stop-color="#8DC5FF" stop-opacity="0" offset="100%"></stop>
        </linearGradient>
        <path d="M15.1731651,18.0530973 C16.1527233,18.0530973 16.6739433,17.241759 16.8103777,15.9469027 C16.946812,14.6520463 16.1527233,13.840708 15.1731651,13.840708 C14.193607,13.840708 13.3995182,14.6520463 13.5359526,15.9469027 C13.672387,17.241759 14.193607,18.0530973 15.1731651,18.0530973 Z" id="path-11"></path>
        <filter x="-60.5%" y="-23.7%" width="221.0%" height="195.0%" filterUnits="objectBoundingBox" id="filter-12">
            <feOffset dx="0" dy="1" in="SourceAlpha" result="shadowOffsetOuter1"></feOffset>
            <feGaussianBlur stdDeviation="0.5" in="shadowOffsetOuter1" result="shadowBlurOuter1"></feGaussianBlur>
            <feColorMatrix values="0 0 0 0 0.0470588235   0 0 0 0 0.295867967   0 0 0 0 0.364705882  0 0 0 0.101336051 0" type="matrix" in="shadowBlurOuter1"></feColorMatrix>
        </filter>
    </defs>
    <g id="WIP---May" stroke="none" stroke-width="1" fill="none" fill-rule="evenodd">
        <g id="Style-Basics-&amp;-Grid" transform="translate(-890.000000, -1366.000000)">
            <g id="feature-menu-copy-4" transform="translate(520.000000, 1198.000000)">
                <g id="homepage-for-teams" transform="translate(370.000000, 168.000000)">
                    <g id="Group-18" transform="translate(4.750000, 4.750000)">
                        <path d="M21.8997467,9.55495564 C21.8997467,10.3771911 21.8320658,12.152837 22.0778041,13.0414323 C22.3623903,14.0705029 23.3319917,15.4515465 23.0997239,15.6122064 C22.8674562,15.7728663 21.7275105,14.6263517 21.4409577,14.1303734 C20.9057643,13.2040373 20.6822329,12.5801272 20.5249137,11.8056861 C20.3675945,11.031245 20.2967558,10.8364317 20.2967558,9.84984182 C20.2967558,9.63414699 20.2967558,9.21674984 20.2967558,8.95434997 C19.7799266,10.5335135 19.6609155,17.1477989 17.3177724,17.1504417 C14.9344547,17.1531298 14.8766106,10.304806 14.3364758,8.87762256 C14.2772337,9.09462321 14.2111409,9.43811162 14.1412032,9.67699907 C13.8402177,10.7050817 13.6823722,10.9978999 13.4019915,11.5051968 C13.1216109,12.0124937 12.500368,12.9231883 11.9615292,12.3344048 C11.2990498,11.6105207 10.5765674,10.9010951 10.0599672,10.4255747 C9.43567477,9.85092585 9.31422018,9.91061803 9.31422018,9.67699907 C9.31422018,9.44338011 9.79124891,9.48524685 10.1552934,9.62096236 C10.7163358,9.83011856 11.4878431,10.3596281 12.2330253,10.9764299 C12.3946724,10.6474928 12.5630968,9.97978835 12.7293428,9.01749313 C12.8955888,8.05519791 12.8891797,7.43315799 13.3092875,6.99908596 C13.9944426,6.10794725 15.4964088,5.91760378 16.1916635,5.23011394 C16.3332178,5.08980681 16.4652002,4.80291988 16.5039639,4.63314195 C16.6395648,4.03923574 16.5363151,3.00884956 17.3175694,3.00884956 C18.0988237,3.00884956 17.9955739,4.03923574 18.1311748,4.63314195 C18.1698143,4.80237561 18.3022337,5.08918575 18.4445341,5.23022666 C19.1878912,5.96482561 20.8265405,6.13289038 21.4409577,7.1675624 C21.7840862,7.62827556 21.8997467,8.73272013 21.8997467,9.55495564 Z" id="Combined-Shape-Copy-4" fill="url(#linearGradient-1)" transform="translate(16.224771, 10.079646) scale(-1, 1) translate(-16.224771, -10.079646) "></path>
                        <g id="Oval-2">
                            <use fill="black" fill-opacity="1" filter="url(#filter-3)" xlink:href="#path-2"></use>
                            <use fill="#8DC5FF" fill-rule="evenodd" xlink:href="#path-2"></use>
                        </g>
                        <path d="M12.2823065,16.7761946 C12.2823065,17.5984301 12.2144744,19.3740759 12.4607618,20.2626712 C12.745984,21.2917418 13.7177523,22.6727854 13.4849655,22.8334453 C13.2521787,22.9941052 12.1096855,21.8475907 11.8224922,21.3516124 C11.2861028,20.4252762 11.0620718,19.8013662 10.9044011,19.0269251 C10.7467303,18.2524839 10.6757333,18.0576706 10.6757333,17.0710808 C10.6757333,16.8553859 10.6757333,16.4379888 10.6757333,16.1755889 C10.157749,17.7547525 10.038472,24.3690378 7.69009244,24.3716806 C5.30144857,24.3743687 5.24347514,17.5260449 4.70213322,16.0988615 C4.63138787,16.3136299 4.52394405,16.5519589 4.41851204,16.7761946 C3.93493826,17.8046726 3.62322281,18.3764556 3.34221558,18.8837525 C3.06120836,19.3910494 1.84838009,20.4271554 1.54400639,19.6290537 C0.758845483,17.5702745 -0.312494561,14.530099 0.0860659157,14.2203249 C0.484626393,13.9105508 1.44983449,16.1755889 2.24275327,17.978403 C2.5172956,17.7201408 2.67148323,17.0710808 2.92253646,16.1755889 C3.1735897,15.2800971 3.25160271,14.6543969 3.67264943,14.2203249 C4.35933572,13.3291862 5.86465844,13.1388427 6.56146697,12.4513529 C6.70333755,12.3110457 6.83561489,12.0241588 6.87446528,11.8543809 C7.01036923,11.2604747 6.90688874,10.2300885 7.68988897,10.2300885 C8.47288921,10.2300885 8.36940871,11.2604747 8.50531266,11.8543809 C8.54403851,12.0236145 8.67675379,12.3104247 8.81937227,12.4514656 C9.56439059,13.1860645 11.2067019,13.3541293 11.8224922,14.3888013 C12.1663876,14.8495145 12.2823065,15.9539591 12.2823065,16.7761946 Z" id="Combined-Shape-Copy-4" fill="url(#linearGradient-4)" transform="translate(6.760321, 17.300885) scale(-1, 1) translate(-6.760321, -17.300885) "></path>
                        <g id="Oval-2-Copy-4">
                            <use fill="black" fill-opacity="1" filter="url(#filter-6)" xlink:href="#path-5"></use>
                            <use fill="#8DC5FF" fill-rule="evenodd" xlink:href="#path-5"></use>
                        </g>
                        <path d="M31.5222741,16.717575 C31.5222741,17.5461563 31.4550232,19.335506 31.6992004,20.2309592 C31.9819789,21.2679718 32.9454213,22.6596739 32.714629,22.8215737 C32.4838366,22.9834736 31.351132,21.8281106 31.0663994,21.3283045 C30.5346056,20.3948191 30.3124941,19.766094 30.1561742,18.9856759 C29.9998543,18.2052579 29.9294656,18.0089411 29.9294656,17.014737 C29.9294656,16.7973775 29.9294656,16.376759 29.9294656,16.112334 C29.4159193,17.7036851 29.2976642,24.3690175 26.969405,24.3716807 C24.6012265,24.3743895 24.5101126,16.9483438 23.9734088,15.5101458 C23.0660204,15.2894679 21.0043322,14.7943487 20.3247067,14.5620291 C19.6450812,14.3297095 19.3154166,13.072778 19.0137222,11.9667966 C18.6338277,10.5741413 18.1594396,8.61874721 18.3875098,8.43857196 C18.5913265,8.2775569 19.2568629,9.55512869 19.7660952,10.7621456 C20.2753274,11.9691625 20.7280692,12.8791529 21.1439851,13.0482826 C21.736397,13.2891835 23.0075847,13.2891835 23.9734088,13.2891835 C24.9392329,13.2891835 25.1596109,13.0521512 25.8504494,12.3593555 C25.9911044,12.2179655 26.1222485,11.9288645 26.160766,11.7577763 C26.2955055,11.1592865 26.1929117,10.1209481 26.9692033,10.1209481 C27.745495,10.1209481 27.6429011,11.1592865 27.7776406,11.7577763 C27.8160347,11.928316 27.9476129,12.2173397 28.0890095,12.3594691 C28.8276446,13.0997375 30.455885,13.2690993 31.0663994,14.3117566 C31.4073483,14.7760254 31.5222741,15.8889937 31.5222741,16.717575 Z" id="Combined-Shape-Copy-4" fill="url(#linearGradient-7)" transform="translate(25.538991, 16.398230) scale(-1, 1) translate(-25.538991, -16.398230) "></path>
                        <g id="Oval-2-Copy-2">
                            <use fill="black" fill-opacity="1" filter="url(#filter-9)" xlink:href="#path-8"></use>
                            <use fill="#8DC5FF" fill-rule="evenodd" xlink:href="#path-8"></use>
                        </g>
                        <path d="M19.8830168,22.8969715 C20.1870142,23.5583634 21.0039157,25.3548801 21.647184,26.0254371 C22.8551263,27.2846225 23.6223728,27.1444097 23.7272801,27.5553264 C23.8321874,27.9662431 23.0080896,28.0754062 21.6555878,27.2670493 C20.6901137,26.6900094 19.8830168,26.0254371 19.4642677,25.5010291 C19.0455186,24.9766212 18.653352,24.3548873 18.3400202,23.3956636 C18.2719943,23.1874112 18.2044745,22.9868093 18.1414661,22.7950579 C17.628868,24.3742215 17.5108312,30.9885068 15.1868707,30.9911497 C12.8230645,30.9938378 12.7656939,24.145514 12.229981,22.7183305 C12.1599713,22.9330989 12.0834662,23.1594603 12.00631,23.3956636 C11.6929783,24.3548873 11.211202,25.1018417 10.8820626,25.5010291 C10.5529232,25.9002166 9.6562166,26.6900094 8.69074251,27.2670493 C7.33824065,28.0754062 6.51414283,27.9662431 6.61905015,27.5553264 C6.72395746,27.1444097 7.49120397,27.2846225 8.69914627,26.0254371 C9.34241462,25.3548801 10.1593161,23.5583634 10.4633135,22.8969715 C10.7673109,22.2355796 10.7945334,21.273866 11.211202,20.8397939 C11.890748,19.9486552 13.380418,19.7583117 14.0699809,19.0708219 C14.2103763,18.9305148 14.3412782,18.6436278 14.3797246,18.4738499 C14.5142154,17.8799437 14.4118109,16.8495575 15.1866693,16.8495575 C15.9615277,16.8495575 15.8591232,17.8799437 15.993614,18.4738499 C16.0319372,18.6430836 16.1632725,18.9298937 16.304408,19.0709346 C17.0416794,19.8055336 18.6669136,19.9735983 19.2763007,21.0082704 C19.6166202,21.4689835 19.5790194,22.2355796 19.8830168,22.8969715 Z" id="Combined-Shape-Copy-6" fill="url(#linearGradient-10)"></path>
                        <g id="Oval-2-Copy-3">
                            <use fill="black" fill-opacity="1" filter="url(#filter-12)" xlink:href="#path-11"></use>
                            <use fill="#8DC5FF" fill-rule="evenodd" xlink:href="#path-11"></use>
                        </g>
                    </g>
                </g>
            </g>
        </g>
    </g>
</svg>