<svg height="323" viewBox="0 0 342 323" width="342" xmlns="http://www.w3.org/2000/svg" xmlns:xlink="http://www.w3.org/1999/xlink"><defs><path id="a" d="m12 0h278c6.627417 0 12 5.372583 12 12v45.96c0 6.627417-5.372583 12-12 12h-278c-6.627417 0-12-5.372583-12-12v-45.96c0-6.627417 5.372583-12 12-12z"/><filter id="b" height="200.1%" width="123.2%" x="-11.6%" y="-35.7%"><feOffset dx="0" dy="10" in="SourceAlpha" result="shadowOffsetOuter1"/><feGaussianBlur in="shadowOffsetOuter1" result="shadowBlurOuter1" stdDeviation="10"/><feColorMatrix in="shadowBlurOuter1" result="shadowMatrixOuter1" type="matrix" values="0 0 0 0 0.25869511   0 0 0 0 0.461476445   0 0 0 0 0.570764243  0 0 0 0.100486866 0"/><feOffset dx="0" dy="2" in="SourceAlpha" result="shadowOffsetOuter2"/><feGaussianBlur in="shadowOffsetOuter2" result="shadowBlurOuter2" stdDeviation="2"/><feColorMatrix in="shadowBlurOuter2" result="shadowMatrixOuter2" type="matrix" values="0 0 0 0 0.25869511   0 0 0 0 0.461476445   0 0 0 0 0.570764243  0 0 0 0.0998358243 0"/><feMerge><feMergeNode in="shadowMatrixOuter1"/><feMergeNode in="shadowMatrixOuter2"/></feMerge></filter><path id="c" d="m12 0h278c6.627417 0 12 5.372583 12 12v45.96c0 6.627417-5.372583 12-12 12h-278c-6.627417 0-12-5.372583-12-12v-45.96c0-6.627417 5.372583-12 12-12z"/><filter id="d" height="200.1%" width="123.2%" x="-11.6%" y="-35.7%"><feOffset dx="0" dy="10" in="SourceAlpha" result="shadowOffsetOuter1"/><feGaussianBlur in="shadowOffsetOuter1" result="shadowBlurOuter1" stdDeviation="10"/><feColorMatrix in="shadowBlurOuter1" result="shadowMatrixOuter1" type="matrix" values="0 0 0 0 0.25869511   0 0 0 0 0.461476445   0 0 0 0 0.570764243  0 0 0 0.100486866 0"/><feOffset dx="0" dy="2" in="SourceAlpha" result="shadowOffsetOuter2"/><feGaussianBlur in="shadowOffsetOuter2" result="shadowBlurOuter2" stdDeviation="2"/><feColorMatrix in="shadowBlurOuter2" result="shadowMatrixOuter2" type="matrix" values="0 0 0 0 0.25869511   0 0 0 0 0.461476445   0 0 0 0 0.570764243  0 0 0 0.0998358243 0"/><feMerge><feMergeNode in="shadowMatrixOuter1"/><feMergeNode in="shadowMatrixOuter2"/></feMerge></filter><path id="e" d="m12.25 0h278c6.627417 0 12 5.372583 12 12v56c0 6.627417-5.372583 12-12 12h-278c-6.627417 0-12-5.372583-12-12v-56c0-6.627417 5.372583-12 12-12z"/><filter id="f" height="187.5%" width="123.2%" x="-11.6%" y="-31.2%"><feOffset dx="0" dy="10" in="SourceAlpha" result="shadowOffsetOuter1"/><feGaussianBlur in="shadowOffsetOuter1" result="shadowBlurOuter1" stdDeviation="10"/><feColorMatrix in="shadowBlurOuter1" result="shadowMatrixOuter1" type="matrix" values="0 0 0 0 0.25869511   0 0 0 0 0.461476445   0 0 0 0 0.570764243  0 0 0 0.100486866 0"/><feOffset dx="0" dy="2" in="SourceAlpha" result="shadowOffsetOuter2"/><feGaussianBlur in="shadowOffsetOuter2" result="shadowBlurOuter2" stdDeviation="2"/><feColorMatrix in="shadowBlurOuter2" result="shadowMatrixOuter2" type="matrix" values="0 0 0 0 0.25869511   0 0 0 0 0.461476445   0 0 0 0 0.570764243  0 0 0 0.0998358243 0"/><feMerge><feMergeNode in="shadowMatrixOuter1"/><feMergeNode in="shadowMatrixOuter2"/></feMerge></filter><path id="g" d="m6 0h109c3.313708 0 6 2.6862915 6 6v48c0 3.3137085-2.686292 6-6 6h-109c-3.3137085 0-6-2.6862915-6-6v-48c0-3.3137085 2.6862915-6 6-6z"/><filter id="h" height="216.7%" width="157.9%" x="-28.9%" y="-41.7%"><feOffset dx="0" dy="10" in="SourceAlpha" result="shadowOffsetOuter1"/><feGaussianBlur in="shadowOffsetOuter1" result="shadowBlurOuter1" stdDeviation="10"/><feColorMatrix in="shadowBlurOuter1" result="shadowMatrixOuter1" type="matrix" values="0 0 0 0 0.25869511   0 0 0 0 0.461476445   0 0 0 0 0.570764243  0 0 0 0.100486866 0"/><feOffset dx="0" dy="2" in="SourceAlpha" result="shadowOffsetOuter2"/><feGaussianBlur in="shadowOffsetOuter2" result="shadowBlurOuter2" stdDeviation="2"/><feColorMatrix in="shadowBlurOuter2" result="shadowMatrixOuter2" type="matrix" values="0 0 0 0 0.25869511   0 0 0 0 0.461476445   0 0 0 0 0.570764243  0 0 0 0.0998358243 0"/><feMerge><feMergeNode in="shadowMatrixOuter1"/><feMergeNode in="shadowMatrixOuter2"/></feMerge></filter><mask id="i" fill="#fff"><path d="m6 10c-1.1 0-2 .9-2 2s.9 2 2 2 2-.9 2-2-.9-2-2-2zm12 0c-1.1 0-2 .9-2 2s.9 2 2 2 2-.9 2-2-.9-2-2-2zm-6 0c-1.1 0-2 .9-2 2s.9 2 2 2 2-.9 2-2-.9-2-2-2z" fill="#fff" fill-rule="evenodd"/></mask><mask id="j" fill="#fff"><path d="m6 10c-1.1 0-2 .9-2 2s.9 2 2 2 2-.9 2-2-.9-2-2-2zm12 0c-1.1 0-2 .9-2 2s.9 2 2 2 2-.9 2-2-.9-2-2-2zm-6 0c-1.1 0-2 .9-2 2s.9 2 2 2 2-.9 2-2-.9-2-2-2z" fill="#fff" fill-rule="evenodd"/></mask></defs><g fill="none" fill-rule="evenodd"><rect fill="#4e82ee" fill-opacity=".041193" height="278" rx="21" width="339" x="3" y=".4"/><g transform="translate(19.389015 18)"><use fill="#000" filter="url(#b)" xlink:href="#a"/><use fill="#fff" fill-rule="evenodd" xlink:href="#a"/><path d="m21.5309848 20.048c.192 0 .362-.064.51-.192s.222-.284.222-.468c0-.104-.024-.208-.072-.312l-3.324-7.116c-.072-.16-.182-.282-.33-.366s-.306-.126-.474-.126-.326.042-.474.126-.258.206-.33.366l-3.312 7.116c-.048.104-.072.208-.072.312 0 .184.076.34.228.468s.32.192.504.192c.136 0 .26-.034.372-.102s.2-.174.264-.318l.72-1.608h4.224l.72 1.608c.064.144.152.25.264.318s.232.102.36.102zm-1.872-3.228h-3.168l1.584-3.564zm5.76 3.276c.392 0 .744-.086 1.056-.258s.56-.418.744-.738v.3c0 .208.064.372.192.492s.3.18.516.18c.224 0 .406-.064.546-.192s.21-.296.21-.504v-4.656c0-.216-.068-.388-.204-.516s-.32-.192-.552-.192c-.224 0-.404.064-.54.192s-.204.3-.204.516v2.676c0 .456-.126.822-.378 1.098s-.586.414-1.002.414c-.36 0-.624-.1-.792-.3s-.252-.508-.252-.924v-2.964c0-.216-.068-.388-.204-.516s-.32-.192-.552-.192c-.224 0-.404.064-.54.192s-.204.3-.204.516v2.952c0 1.616.72 2.424 2.16 2.424zm7.572-.036c.288.016.51-.026.666-.126s.234-.246.234-.438c0-.336-.2-.516-.6-.54l-.324-.024c-.544-.04-.816-.356-.816-.948v-2.724h1.02c.216 0 .382-.048.498-.144s.174-.236.174-.42-.058-.324-.174-.42-.282-.144-.498-.144h-1.02v-1.104c0-.216-.068-.388-.204-.516s-.316-.192-.54-.192c-.232 0-.416.064-.552.192s-.204.3-.204.516v1.104h-.6c-.216 0-.382.048-.498.144s-.174.236-.174.42.058.324.174.42.282.144.498.144h.6v2.616c0 1.344.672 2.064 2.016 2.16zm4.356.036c.6 0 1.126-.124 1.578-.372s.8-.604 1.044-1.068.366-1.004.366-1.62-.122-1.154-.366-1.614-.592-.814-1.044-1.062-.978-.372-1.578-.372-1.126.124-1.578.372-.802.602-1.05 1.062-.372.998-.372 1.614.124 1.156.372 1.62.598.82 1.05 1.068.978.372 1.578.372zm-.012-1.164c-.48 0-.848-.16-1.104-.48s-.384-.792-.384-1.416c0-.616.13-1.086.39-1.41s.63-.486 1.11-.486.848.162 1.104.486.384.794.384 1.41c0 .624-.128 1.096-.384 1.416s-.628.48-1.116.48zm7.296-1.548c.232 0 .406-.052.522-.156s.174-.248.174-.432-.058-.33-.174-.438-.29-.162-.522-.162h-2.472c-.232 0-.406.054-.522.162s-.174.254-.174.438.058.328.174.432.29.156.522.156zm4.272 2.712c.752 0 1.354-.164 1.806-.492s.678-.764.678-1.308c0-.336-.066-.612-.198-.828s-.35-.396-.654-.54-.724-.272-1.26-.384c-.504-.104-.844-.208-1.02-.312s-.264-.256-.264-.456c0-.208.086-.372.258-.492s.406-.18.702-.18c.248 0 .456.03.624.09s.368.15.6.27c.128.072.234.126.318.162s.17.054.258.054c.128 0 .236-.054.324-.162s.132-.242.132-.402c0-.264-.128-.476-.384-.636-.248-.16-.528-.282-.84-.366s-.636-.126-.972-.126c-.464 0-.878.078-1.242.234s-.65.376-.858.66-.312.602-.312.954c0 .464.154.828.462 1.092s.818.468 1.53.612c.4.088.698.166.894.234s.332.142.408.222.114.188.114.324c0 .2-.094.356-.282.468s-.45.168-.786.168c-.328 0-.598-.032-.81-.096s-.446-.156-.702-.276c-.24-.128-.428-.192-.564-.192-.128 0-.236.05-.324.15s-.132.23-.132.39c0 .28.128.496.384.648.536.344 1.24.516 2.112.516zm6.3 0c.344 0 .68-.046 1.008-.138s.616-.218.864-.378c.136-.08.234-.17.294-.27s.09-.218.09-.354c0-.168-.044-.308-.132-.42s-.196-.168-.324-.168c-.088 0-.176.018-.264.054s-.192.09-.312.162c-.192.104-.366.186-.522.246s-.334.09-.534.09c-.496 0-.878-.162-1.146-.486s-.402-.786-.402-1.386c0-.608.134-1.074.402-1.398s.65-.486 1.146-.486c.208 0 .392.03.552.09s.328.142.504.246c.096.056.192.104.288.144s.188.06.276.06c.136 0 .246-.054.33-.162s.126-.25.126-.426c0-.256-.128-.468-.384-.636-.24-.152-.518-.272-.834-.36s-.63-.132-.942-.132c-.592 0-1.116.128-1.572.384s-.81.618-1.062 1.086-.378 1.006-.378 1.614.12 1.14.36 1.596.582.808 1.026 1.056.958.372 1.542.372zm5.124 0c.384 0 .722-.088 1.014-.264s.506-.42.642-.732v.264c0 .208.066.376.198.504s.302.192.51.192c.224 0 .4-.062.528-.186s.192-.294.192-.51v-2.928c0-.824-.198-1.438-.594-1.842s-1.002-.606-1.818-.606c-.376 0-.758.044-1.146.132s-.722.208-1.002.36c-.16.088-.274.182-.342.282s-.102.218-.102.354c0 .168.046.304.138.408s.21.156.354.156c.096 0 .248-.052.456-.156.328-.128.612-.226.852-.294s.476-.102.708-.102c.376 0 .648.09.816.27s.252.466.252.858v.276h-.3c-.872 0-1.556.056-2.052.168s-.854.292-1.074.54-.33.588-.33 1.02c0 .344.092.656.276.936s.436.5.756.66.676.24 1.068.24zm.3-1.08c-.264 0-.486-.082-.666-.246s-.27-.374-.27-.63c0-.208.064-.372.192-.492s.34-.204.636-.252.712-.072 1.248-.072h.216v.252c0 .424-.126.77-.378 1.038s-.578.402-.978.402zm5.052 1.056c.216 0 .396-.062.54-.186s.216-.302.216-.534v-7.164c0-.232-.072-.408-.216-.528s-.324-.18-.54-.18-.394.06-.534.18-.21.296-.21.528v7.164c0 .232.07.41.21.534s.318.186.534.186zm3.048-7.128c.272 0 .488-.074.648-.222s.24-.342.24-.582-.082-.432-.246-.576-.378-.216-.642-.216c-.272 0-.488.072-.648.216s-.24.336-.24.576.08.434.24.582.376.222.648.222zm0 7.128c.216 0 .396-.062.54-.186s.216-.302.216-.534v-4.632c0-.232-.072-.408-.216-.528s-.324-.18-.54-.18-.394.06-.534.18-.21.296-.21.528v4.632c0 .232.07.41.21.534s.318.186.534.186zm7.056 0c.232 0 .414-.064.546-.192s.198-.304.198-.528v-2.952c0-.808-.172-1.412-.516-1.812s-.868-.6-1.572-.6c-.424 0-.804.088-1.14.264s-.604.428-.804.756v-.324c0-.2-.066-.362-.198-.486s-.302-.186-.51-.186c-.232 0-.416.064-.552.192s-.204.296-.204.504v4.644c0 .224.066.4.198.528s.314.192.546.192.416-.064.552-.192.204-.304.204-.528v-2.676c0-.456.13-.82.39-1.092s.606-.408 1.038-.408c.368 0 .638.104.81.312s.258.54.258.996v2.868c0 .224.068.4.204.528s.32.192.552.192zm4.944 2.184c1 0 1.756-.236 2.268-.708s.768-1.168.768-2.088v-4.74c0-.216-.068-.388-.204-.516s-.316-.192-.54-.192-.404.064-.54.192-.204.296-.204.504v.312c-.176-.328-.432-.582-.768-.762s-.72-.27-1.152-.27c-.512 0-.968.122-1.368.366s-.71.588-.93 1.032-.33.954-.33 1.53.112 1.084.336 1.524.534.782.93 1.026.85.366 1.362.366c.432 0 .816-.09 1.152-.27s.592-.434.768-.762v.768c0 1.024-.524 1.536-1.572 1.536-.296 0-.558-.032-.786-.096s-.486-.156-.774-.276c-.112-.048-.22-.09-.324-.126s-.192-.054-.264-.054c-.136 0-.246.052-.33.156s-.126.244-.126.42c0 .248.148.46.444.636.584.328 1.312.492 2.184.492zm.024-3.588c-.472 0-.844-.156-1.116-.468s-.408-.74-.408-1.284c0-.552.136-.984.408-1.296s.644-.468 1.116-.468c.48 0 .854.156 1.122.468s.402.744.402 1.296c0 .544-.134.972-.402 1.284s-.642.468-1.122.468z" fill="#212121" fill-rule="nonzero"/><path d="m15.2909848 50.052c.24 0 .43-.072.57-.216s.21-.332.21-.564v-7.044c0-.232-.07-.418-.21-.558s-.33-.21-.57-.21c-.232 0-.418.07-.558.21s-.21.326-.21.558v7.044c0 .232.07.42.21.564s.326.216.558.216zm7.224 0c.232 0 .414-.064.546-.192s.198-.304.198-.528v-2.952c0-.808-.172-1.412-.516-1.812s-.868-.6-1.572-.6c-.424 0-.804.088-1.14.264s-.604.428-.804.756v-.324c0-.2-.066-.362-.198-.486s-.302-.186-.51-.186c-.232 0-.416.064-.552.192s-.204.296-.204.504v4.644c0 .224.066.4.198.528s.314.192.546.192.416-.064.552-.192.204-.304.204-.528v-2.676c0-.456.13-.82.39-1.092s.606-.408 1.038-.408c.368 0 .638.104.81.312s.258.54.258.996v2.868c0 .224.068.4.204.528s.32.192.552.192zm4.392.024c.752 0 1.354-.164 1.806-.492s.678-.764.678-1.308c0-.336-.066-.612-.198-.828s-.35-.396-.654-.54-.724-.272-1.26-.384c-.504-.104-.844-.208-1.02-.312s-.264-.256-.264-.456c0-.208.086-.372.258-.492s.406-.18.702-.18c.248 0 .456.03.624.09s.368.15.6.27c.128.072.234.126.318.162s.17.054.258.054c.128 0 .236-.054.324-.162s.132-.242.132-.402c0-.264-.128-.476-.384-.636-.248-.16-.528-.282-.84-.366s-.636-.126-.972-.126c-.464 0-.878.078-1.242.234s-.65.376-.858.66-.312.602-.312.954c0 .464.154.828.462 1.092s.818.468 1.53.612c.4.088.698.166.894.234s.332.142.408.222.114.188.114.324c0 .2-.094.356-.282.468s-.45.168-.786.168c-.328 0-.598-.032-.81-.096s-.446-.156-.702-.276c-.24-.128-.428-.192-.564-.192-.128 0-.236.05-.324.15s-.132.23-.132.39c0 .28.128.496.384.648.536.344 1.24.516 2.112.516zm6.444-.036c.288.016.51-.026.666-.126s.234-.246.234-.438c0-.336-.2-.516-.6-.54l-.324-.024c-.544-.04-.816-.356-.816-.948v-2.724h1.02c.216 0 .382-.048.498-.144s.174-.236.174-.42-.058-.324-.174-.42-.282-.144-.498-.144h-1.02v-1.104c0-.216-.068-.388-.204-.516s-.316-.192-.54-.192c-.232 0-.416.064-.552.192s-.204.3-.204.516v1.104h-.6c-.216 0-.382.048-.498.144s-.174.236-.174.42.058.324.174.42.282.144.498.144h.6v2.616c0 1.344.672 2.064 2.016 2.16zm3.552.036c.384 0 .722-.088 1.014-.264s.506-.42.642-.732v.264c0 .208.066.376.198.504s.302.192.51.192c.224 0 .4-.062.528-.186s.192-.294.192-.51v-2.928c0-.824-.198-1.438-.594-1.842s-1.002-.606-1.818-.606c-.376 0-.758.044-1.146.132s-.722.208-1.002.36c-.16.088-.274.182-.342.282s-.102.218-.102.354c0 .168.046.304.138.408s.21.156.354.156c.096 0 .248-.052.456-.156.328-.128.612-.226.852-.294s.476-.102.708-.102c.376 0 .648.09.816.27s.252.466.252.858v.276h-.3c-.872 0-1.556.056-2.052.168s-.854.292-1.074.54-.33.588-.33 1.02c0 .344.092.656.276.936s.436.5.756.66.676.24 1.068.24zm.3-1.08c-.264 0-.486-.082-.666-.246s-.27-.374-.27-.63c0-.208.064-.372.192-.492s.34-.204.636-.252.712-.072 1.248-.072h.216v.252c0 .424-.126.77-.378 1.038s-.578.402-.978.402zm9.06 1.056c.232 0 .414-.064.546-.192s.198-.304.198-.528v-2.952c0-.808-.172-1.412-.516-1.812s-.868-.6-1.572-.6c-.424 0-.804.088-1.14.264s-.604.428-.804.756v-.324c0-.2-.066-.362-.198-.486s-.302-.186-.51-.186c-.232 0-.416.064-.552.192s-.204.296-.204.504v4.644c0 .224.066.4.198.528s.314.192.546.192.416-.064.552-.192.204-.304.204-.528v-2.676c0-.456.13-.82.39-1.092s.606-.408 1.038-.408c.368 0 .638.104.81.312s.258.54.258.996v2.868c0 .224.068.4.204.528s.32.192.552.192zm4.872.024c.344 0 .68-.046 1.008-.138s.616-.218.864-.378c.136-.08.234-.17.294-.27s.09-.218.09-.354c0-.168-.044-.308-.132-.42s-.196-.168-.324-.168c-.088 0-.176.018-.264.054s-.192.09-.312.162c-.192.104-.366.186-.522.246s-.334.09-.534.09c-.496 0-.878-.162-1.146-.486s-.402-.786-.402-1.386c0-.608.134-1.074.402-1.398s.65-.486 1.146-.486c.208 0 .392.03.552.09s.328.142.504.246c.096.056.192.104.288.144s.188.06.276.06c.136 0 .246-.054.33-.162s.126-.25.126-.426c0-.256-.128-.468-.384-.636-.24-.152-.518-.272-.834-.36s-.63-.132-.942-.132c-.592 0-1.116.128-1.572.384s-.81.618-1.062 1.086-.378 1.006-.378 1.614.12 1.14.36 1.596.582.808 1.026 1.056.958.372 1.542.372zm6 0c.312 0 .64-.046.984-.138s.652-.214.924-.366c.296-.168.444-.376.444-.624 0-.176-.042-.316-.126-.42s-.194-.156-.33-.156c-.112 0-.288.064-.528.192-.248.112-.47.2-.666.264s-.422.096-.678.096c-.504 0-.888-.13-1.152-.39s-.42-.666-.468-1.218h3.54c.304 0 .456-.172.456-.516 0-.576-.108-1.076-.324-1.5s-.52-.752-.912-.984-.852-.348-1.38-.348c-.552 0-1.046.128-1.482.384s-.774.616-1.014 1.08-.36.996-.36 1.596c0 .944.276 1.688.828 2.232s1.3.816 2.244.816zm1.116-3.564h-2.712c.048-.48.194-.848.438-1.104s.57-.384.978-.384c.4 0 .712.126.936.378s.344.622.36 1.11zm12.06 3.552c.2 0 .374-.06.522-.18s.222-.272.222-.456c0-.136-.048-.276-.144-.42l-1.092-1.668c-.168-.256-.34-.456-.516-.6s-.38-.244-.612-.3c.68-.12 1.206-.39 1.578-.81s.558-.958.558-1.614c0-.808-.25-1.426-.75-1.854s-1.23-.642-2.19-.642h-3c-.232 0-.414.064-.546.192s-.198.308-.198.54v7.02c0 .24.07.43.21.57s.326.21.558.21.416-.07.552-.21.204-.33.204-.57v-2.688h1.176c.288 0 .522.052.702.156s.35.284.51.54l1.596 2.424c.08.12.178.21.294.27s.238.09.366.09zm-2.64-4.668h-2.016v-2.676h2.016c.584 0 1.012.106 1.284.318s.408.55.408 1.014c0 .456-.136.794-.408 1.014s-.7.33-1.284.33zm6.552 4.68c.384 0 .722-.088 1.014-.264s.506-.42.642-.732v.264c0 .208.066.376.198.504s.302.192.51.192c.224 0 .4-.062.528-.186s.192-.294.192-.51v-2.928c0-.824-.198-1.438-.594-1.842s-1.002-.606-1.818-.606c-.376 0-.758.044-1.146.132s-.722.208-1.002.36c-.16.088-.274.182-.342.282s-.102.218-.102.354c0 .168.046.304.138.408s.21.156.354.156c.096 0 .248-.052.456-.156.328-.128.612-.226.852-.294s.476-.102.708-.102c.376 0 .648.09.816.27s.252.466.252.858v.276h-.3c-.872 0-1.556.056-2.052.168s-.854.292-1.074.54-.33.588-.33 1.02c0 .344.092.656.276.936s.436.5.756.66.676.24 1.068.24zm.3-1.08c-.264 0-.486-.082-.666-.246s-.27-.374-.27-.63c0-.208.064-.372.192-.492s.34-.204.636-.252.712-.072 1.248-.072h.216v.252c0 .424-.126.77-.378 1.038s-.578.402-.978.402zm9.06 1.056c.232 0 .414-.064.546-.192s.198-.304.198-.528v-2.952c0-.808-.172-1.412-.516-1.812s-.868-.6-1.572-.6c-.424 0-.804.088-1.14.264s-.604.428-.804.756v-.324c0-.2-.066-.362-.198-.486s-.302-.186-.51-.186c-.232 0-.416.064-.552.192s-.204.296-.204.504v4.644c0 .224.066.4.198.528s.314.192.546.192.416-.064.552-.192.204-.304.204-.528v-2.676c0-.456.13-.82.39-1.092s.606-.408 1.038-.408c.368 0 .638.104.81.312s.258.54.258.996v2.868c0 .224.068.4.204.528s.32.192.552.192zm4.944 2.184c1 0 1.756-.236 2.268-.708s.768-1.168.768-2.088v-4.74c0-.216-.068-.388-.204-.516s-.316-.192-.54-.192-.404.064-.54.192-.204.296-.204.504v.312c-.176-.328-.432-.582-.768-.762s-.72-.27-1.152-.27c-.512 0-.968.122-1.368.366s-.71.588-.93 1.032-.33.954-.33 1.53.112 1.084.336 1.524.534.782.93 1.026.85.366 1.362.366c.432 0 .816-.09 1.152-.27s.592-.434.768-.762v.768c0 1.024-.524 1.536-1.572 1.536-.296 0-.558-.032-.786-.096s-.486-.156-.774-.276c-.112-.048-.22-.09-.324-.126s-.192-.054-.264-.054c-.136 0-.246.052-.33.156s-.126.244-.126.42c0 .248.148.46.444.636.584.328 1.312.492 2.184.492zm.024-3.588c-.472 0-.844-.156-1.116-.468s-.408-.74-.408-1.284c0-.552.136-.984.408-1.296s.644-.468 1.116-.468c.48 0 .854.156 1.122.468s.402.744.402 1.296c0 .544-.134.972-.402 1.284s-.642.468-1.122.468zm7.308 1.428c.312 0 .64-.046.984-.138s.652-.214.924-.366c.296-.168.444-.376.444-.624 0-.176-.042-.316-.126-.42s-.194-.156-.33-.156c-.112 0-.288.064-.528.192-.248.112-.47.2-.666.264s-.422.096-.678.096c-.504 0-.888-.13-1.152-.39s-.42-.666-.468-1.218h3.54c.304 0 .456-.172.456-.516 0-.576-.108-1.076-.324-1.5s-.52-.752-.912-.984-.852-.348-1.38-.348c-.552 0-1.046.128-1.482.384s-.774.616-1.014 1.08-.36.996-.36 1.596c0 .944.276 1.688.828 2.232s1.3.816 2.244.816zm1.116-3.564h-2.712c.048-.48.194-.848.438-1.104s.57-.384.978-.384c.4 0 .712.126.936.378s.344.622.36 1.11z" fill="#212121" fill-rule="nonzero"/><path d="m168.110985 46h114" stroke="#dbe8fb" stroke-linecap="round" stroke-width="3"/><path d="m168.610985 46h35.5" stroke="#7a68e8" stroke-linecap="round" stroke-width="3"/><circle cx="204.610985" cy="46" fill="#7a68e8" r="3"/><circle cx="168.610985" cy="46" fill="#7a68e8" r="3"/><path d="m268.610985 20h10.5" stroke="#a295ee" stroke-linecap="round" stroke-width="6"/><circle cx="279.610985" cy="20" fill="#7a68e8" r="5"/></g><g transform="translate(19.389015 100.4)"><use fill="#000" filter="url(#d)" xlink:href="#c"/><use fill="#fff" fill-rule="evenodd" xlink:href="#c"/><path d="m22.0829848 32.072c.208 0 .376-.064.504-.192s.192-.304.192-.528v-7.104c0-.232-.068-.418-.204-.558s-.316-.21-.54-.21c-.296 0-.532.172-.708.516l-2.652 5.076-2.664-5.076c-.176-.344-.42-.516-.732-.516-.224 0-.402.07-.534.21s-.198.326-.198.558v7.104c0 .224.06.4.18.528s.284.192.492.192.374-.066.498-.198.186-.306.186-.522v-4.884l2.052 3.804c.096.184.2.316.312.396s.244.12.396.12.284-.042.396-.126.216-.214.312-.39l2.04-3.864v4.944c0 .224.06.4.18.528s.284.192.492.192zm5.148.024c.312 0 .64-.046.984-.138s.652-.214.924-.366c.296-.168.444-.376.444-.624 0-.176-.042-.316-.126-.42s-.194-.156-.33-.156c-.112 0-.288.064-.528.192-.248.112-.47.2-.666.264s-.422.096-.678.096c-.504 0-.888-.13-1.152-.39s-.42-.666-.468-1.218h3.54c.304 0 .456-.172.456-.516 0-.576-.108-1.076-.324-1.5s-.52-.752-.912-.984-.852-.348-1.38-.348c-.552 0-1.046.128-1.482.384s-.774.616-1.014 1.08-.36.996-.36 1.596c0 .944.276 1.688.828 2.232s1.3.816 2.244.816zm1.116-3.564h-2.712c.048-.48.194-.848.438-1.104s.57-.384.978-.384c.4 0 .712.126.936.378s.344.622.36 1.11zm10.704 3.54c.224 0 .406-.062.546-.186s.21-.302.21-.534v-2.952c0-.848-.17-1.462-.51-1.842s-.83-.57-1.47-.57c-.432 0-.82.1-1.164.3s-.604.468-.78.804c-.296-.736-.884-1.104-1.764-1.104-.4 0-.754.084-1.062.252s-.554.412-.738.732v-.288c0-.216-.066-.382-.198-.498s-.302-.174-.51-.174c-.216 0-.396.06-.54.18s-.216.292-.216.516v4.644c0 .232.07.41.21.534s.318.186.534.186.396-.062.54-.186.216-.302.216-.534v-2.676c0-.464.114-.83.342-1.098s.538-.402.93-.402c.32 0 .558.094.714.282s.234.502.234.942v2.952c0 .232.072.41.216.534s.324.186.54.186.394-.062.534-.186.21-.302.21-.534v-2.676c0-.464.116-.83.348-1.098s.544-.402.936-.402c.32 0 .558.094.714.282s.234.502.234.942v2.952c0 .232.07.41.21.534s.318.186.534.186zm4.956.024c.6 0 1.126-.124 1.578-.372s.8-.604 1.044-1.068.366-1.004.366-1.62-.122-1.154-.366-1.614-.592-.814-1.044-1.062-.978-.372-1.578-.372-1.126.124-1.578.372-.802.602-1.05 1.062-.372.998-.372 1.614.124 1.156.372 1.62.598.82 1.05 1.068.978.372 1.578.372zm-.012-1.164c-.48 0-.848-.16-1.104-.48s-.384-.792-.384-1.416c0-.616.13-1.086.39-1.41s.63-.486 1.11-.486.848.162 1.104.486.384.794.384 1.41c0 .624-.128 1.096-.384 1.416s-.628.48-1.116.48zm4.98 1.14c.216 0 .396-.062.54-.186s.216-.302.216-.534v-2.52c0-.408.11-.748.33-1.02s.566-.432 1.038-.48l.36-.036c.272-.032.46-.1.564-.204s.156-.264.156-.48c0-.208-.06-.364-.18-.468s-.284-.148-.492-.132l-.168.012c-.368.024-.702.132-1.002.324s-.526.464-.678.816v-.48c0-.216-.064-.382-.192-.498s-.296-.174-.504-.174-.382.06-.522.18-.21.292-.21.516v4.644c0 .232.07.41.21.534s.318.186.534.186zm5.292 2.148c.288 0 .5-.136.636-.408l3.276-6.864c.048-.096.072-.188.072-.276 0-.184-.074-.338-.222-.462s-.314-.186-.498-.186c-.128 0-.246.034-.354.102s-.194.174-.258.318l-1.668 3.696-1.68-3.708c-.064-.144-.152-.25-.264-.318s-.236-.102-.372-.102c-.2 0-.378.064-.534.192s-.234.284-.234.468c0 .104.02.196.06.276l2.232 4.644-.816 1.716c-.048.112-.072.212-.072.3 0 .176.07.322.21.438s.302.174.486.174z" fill="#212121" fill-rule="nonzero"/><path d="m162.302985 32.108c.528 0 1.024-.078 1.488-.234s.876-.382 1.236-.678c.104-.08.176-.166.216-.258s.06-.198.06-.318c0-.176-.048-.324-.144-.444s-.212-.18-.348-.18c-.088 0-.172.016-.252.048s-.16.072-.24.12c-.368.248-.698.424-.99.528s-.61.156-.954.156c-.832 0-1.462-.26-1.89-.78s-.642-1.288-.642-2.304c0-1.008.214-1.772.642-2.292s1.058-.78 1.89-.78c.36 0 .688.05.984.15s.616.278.96.534c.168.112.332.168.492.168.136 0 .252-.06.348-.18s.144-.268.144-.444c0-.128-.02-.236-.06-.324s-.112-.172-.216-.252c-.36-.296-.772-.522-1.236-.678s-.96-.234-1.488-.234c-.816 0-1.53.176-2.142.528s-1.082.854-1.41 1.506-.492 1.418-.492 2.298.164 1.648.492 2.304.798 1.16 1.41 1.512 1.326.528 2.142.528zm5.124-.036c.24 0 .43-.07.57-.21s.21-.33.21-.57v-2.58h2.148c.904 0 1.608-.228 2.112-.684s.756-1.092.756-1.908-.252-1.45-.756-1.902-1.208-.678-2.112-.678h-2.952c-.232 0-.414.064-.546.192s-.198.308-.198.54v7.02c0 .24.07.43.21.57s.326.21.558.21zm2.736-4.548h-1.956v-2.784h1.956c1.064 0 1.596.464 1.596 1.392s-.532 1.392-1.596 1.392zm7.908 4.584c1.152 0 2.028-.302 2.628-.906s.9-1.478.9-2.622v-4.332c0-.232-.068-.418-.204-.558s-.32-.21-.552-.21-.416.07-.552.21-.204.326-.204.558v4.416c0 .72-.172 1.268-.516 1.644s-.844.564-1.5.564c-.664 0-1.168-.186-1.512-.558s-.516-.922-.516-1.65v-4.416c0-.232-.068-.418-.204-.558s-.32-.21-.552-.21-.416.07-.552.21-.204.326-.204.558v4.332c0 1.152.3 2.028.9 2.628s1.48.9 2.64.9z" fill="#212121" fill-rule="nonzero"/><g stroke-linecap="round" stroke-width="6"><path d="m17.110985 46h119" stroke="#dbe8fb"/><path d="m17.610985 46h64" stroke="#7a68e8"/><path d="m161.110985 46h119" stroke="#dbe8fb"/><path d="m161.610985 46h29" stroke="#7a68e8"/></g></g><g transform="translate(19.139015 182.8)"><use fill="#000" filter="url(#f)" xlink:href="#e"/><use fill="#fff" fill-rule="evenodd" xlink:href="#e"/></g><g transform="translate(33 193.8)"><g fill="#000" fill-opacity=".87" fill-rule="evenodd" mask="url(#i)" transform="translate(249)"><path d="m0 0h24v24h-24z"/></g><rect fill="#dbe8fb" height="8" rx="4" width="40" x="201" y="8"/><circle cx="191" cy="12" fill="#03dac5" r="4"/><path d="m3.528 16.06c.288.016.51-.026.666-.126s.234-.246.234-.438c0-.336-.2-.516-.6-.54l-.324-.024c-.544-.04-.816-.356-.816-.948v-2.724h1.02c.216 0 .382-.048.498-.144s.174-.236.174-.42-.058-.324-.174-.42-.282-.144-.498-.144h-1.02v-1.104c0-.216-.068-.388-.204-.516s-.316-.192-.54-.192c-.232 0-.416.064-.552.192s-.204.3-.204.516v1.104h-.6c-.216 0-.382.048-.498.144s-.174.236-.174.42.058.324.174.42.282.144.498.144h.6v2.616c0 1.344.672 2.064 2.016 2.16zm4.356.036c.6 0 1.126-.124 1.578-.372s.8-.604 1.044-1.068.366-1.004.366-1.62-.122-1.154-.366-1.614-.592-.814-1.044-1.062-.978-.372-1.578-.372-1.126.124-1.578.372-.802.602-1.05 1.062-.372.998-.372 1.614.124 1.156.372 1.62.598.82 1.05 1.068.978.372 1.578.372zm-.012-1.164c-.48 0-.848-.16-1.104-.48s-.384-.792-.384-1.416c0-.616.13-1.086.39-1.41s.63-.486 1.11-.486.848.162 1.104.486.384.794.384 1.41c0 .624-.128 1.096-.384 1.416s-.628.48-1.116.48zm6.516 1.164c.424 0 .802-.092 1.134-.276s.586-.44.762-.768v.3c0 .216.068.388.204.516s.316.192.54.192.404-.064.54-.192.204-.3.204-.516v-7.176c0-.208-.072-.376-.216-.504s-.328-.192-.552-.192-.402.062-.534.186-.198.286-.198.486v2.844c-.176-.32-.428-.568-.756-.744s-.704-.264-1.128-.264c-.512 0-.964.124-1.356.372s-.698.6-.918 1.056-.33.988-.33 1.596.11 1.146.33 1.614.528.83.924 1.086.846.384 1.35.384zm.396-1.164c-.472 0-.84-.168-1.104-.504s-.396-.808-.396-1.416c0-.6.132-1.06.396-1.38s.636-.48 1.116-.48c.472 0 .838.162 1.098.486s.39.79.39 1.398-.13 1.076-.39 1.404-.63.492-1.11.492zm7.212 1.164c.6 0 1.126-.124 1.578-.372s.8-.604 1.044-1.068.366-1.004.366-1.62-.122-1.154-.366-1.614-.592-.814-1.044-1.062-.978-.372-1.578-.372-1.126.124-1.578.372-.802.602-1.05 1.062-.372.998-.372 1.614.124 1.156.372 1.62.598.82 1.05 1.068.978.372 1.578.372zm-.012-1.164c-.48 0-.848-.16-1.104-.48s-.384-.792-.384-1.416c0-.616.13-1.086.39-1.41s.63-.486 1.11-.486.848.162 1.104.486.384.794.384 1.41c0 .624-.128 1.096-.384 1.416s-.628.48-1.116.48zm4.98 1.14c.216 0 .396-.062.54-.186s.216-.302.216-.534v-7.164c0-.232-.072-.408-.216-.528s-.324-.18-.54-.18-.394.06-.534.18-.21.296-.21.528v7.164c0 .232.07.41.21.534s.318.186.534.186zm3.048-7.128c.272 0 .488-.074.648-.222s.24-.342.24-.582-.082-.432-.246-.576-.378-.216-.642-.216c-.272 0-.488.072-.648.216s-.24.336-.24.576.08.434.24.582.376.222.648.222zm0 7.128c.216 0 .396-.062.54-.186s.216-.302.216-.534v-4.632c0-.232-.072-.408-.216-.528s-.324-.18-.54-.18-.394.06-.534.18-.21.296-.21.528v4.632c0 .232.07.41.21.534s.318.186.534.186zm4.428.024c.752 0 1.354-.164 1.806-.492s.678-.764.678-1.308c0-.336-.066-.612-.198-.828s-.35-.396-.654-.54-.724-.272-1.26-.384c-.504-.104-.844-.208-1.02-.312s-.264-.256-.264-.456c0-.208.086-.372.258-.492s.406-.18.702-.18c.248 0 .456.03.624.09s.368.15.6.27c.128.072.234.126.318.162s.17.054.258.054c.128 0 .236-.054.324-.162s.132-.242.132-.402c0-.264-.128-.476-.384-.636-.248-.16-.528-.282-.84-.366s-.636-.126-.972-.126c-.464 0-.878.078-1.242.234s-.65.376-.858.66-.312.602-.312.954c0 .464.154.828.462 1.092s.818.468 1.53.612c.4.088.698.166.894.234s.332.142.408.222.114.188.114.324c0 .2-.094.356-.282.468s-.45.168-.786.168c-.328 0-.598-.032-.81-.096s-.446-.156-.702-.276c-.24-.128-.428-.192-.564-.192-.128 0-.236.05-.324.15s-.132.23-.132.39c0 .28.128.496.384.648.536.344 1.24.516 2.112.516zm6.444-.036c.288.016.51-.026.666-.126s.234-.246.234-.438c0-.336-.2-.516-.6-.54l-.324-.024c-.544-.04-.816-.356-.816-.948v-2.724h1.02c.216 0 .382-.048.498-.144s.174-.236.174-.42-.058-.324-.174-.42-.282-.144-.498-.144h-1.02v-1.104c0-.216-.068-.388-.204-.516s-.316-.192-.54-.192c-.232 0-.416.064-.552.192s-.204.3-.204.516v1.104h-.6c-.216 0-.382.048-.498.144s-.174.236-.174.42.058.324.174.42.282.144.498.144h.6v2.616c0 1.344.672 2.064 2.016 2.16zm4.74-2.676c.232 0 .406-.052.522-.156s.174-.248.174-.432-.058-.33-.174-.438-.29-.162-.522-.162h-2.472c-.232 0-.406.054-.522.162s-.174.254-.174.438.058.328.174.432.29.156.522.156zm4.02 2.712c.384 0 .722-.088 1.014-.264s.506-.42.642-.732v.264c0 .208.066.376.198.504s.302.192.51.192c.224 0 .4-.062.528-.186s.192-.294.192-.51v-2.928c0-.824-.198-1.438-.594-1.842s-1.002-.606-1.818-.606c-.376 0-.758.044-1.146.132s-.722.208-1.002.36c-.16.088-.274.182-.342.282s-.102.218-.102.354c0 .168.046.304.138.408s.21.156.354.156c.096 0 .248-.052.456-.156.328-.128.612-.226.852-.294s.476-.102.708-.102c.376 0 .648.09.816.27s.252.466.252.858v.276h-.3c-.872 0-1.556.056-2.052.168s-.854.292-1.074.54-.33.588-.33 1.02c0 .344.092.656.276.936s.436.5.756.66.676.24 1.068.24zm.3-1.08c-.264 0-.486-.082-.666-.246s-.27-.374-.27-.63c0-.208.064-.372.192-.492s.34-.204.636-.252.712-.072 1.248-.072h.216v.252c0 .424-.126.77-.378 1.038s-.578.402-.978.402zm5.064 3.204c.224 0 .404-.06.54-.18s.204-.284.204-.492v-2.448c.176.312.428.556.756.732s.7.264 1.116.264c.512 0 .964-.124 1.356-.372s.698-.6.918-1.056.33-.988.33-1.596-.11-1.146-.33-1.614-.528-.83-.924-1.086-.846-.384-1.35-.384c-.424 0-.802.09-1.134.27s-.586.434-.762.762v-.3c0-.216-.068-.388-.204-.516s-.316-.192-.54-.192-.402.064-.534.192-.198.3-.198.516v6.804c0 .208.07.376.21.504s.322.192.546.192zm2.22-3.288c-.48 0-.85-.164-1.11-.492s-.39-.792-.39-1.392c0-.608.13-1.076.39-1.404s.63-.492 1.11-.492c.472 0 .84.168 1.104.504s.396.808.396 1.416c0 .592-.132 1.05-.396 1.374s-.632.486-1.104.486zm4.98-5.988c.272 0 .488-.074.648-.222s.24-.342.24-.582-.082-.432-.246-.576-.378-.216-.642-.216c-.272 0-.488.072-.648.216s-.24.336-.24.576.08.434.24.582.376.222.648.222zm0 7.128c.216 0 .396-.062.54-.186s.216-.302.216-.534v-4.632c0-.232-.072-.408-.216-.528s-.324-.18-.54-.18-.394.06-.534.18-.21.296-.21.528v4.632c0 .232.07.41.21.534s.318.186.534.186zm5.364-2.688c.232 0 .406-.052.522-.156s.174-.248.174-.432-.058-.33-.174-.438-.29-.162-.522-.162h-2.472c-.232 0-.406.054-.522.162s-.174.254-.174.438.058.328.174.432.29.156.522.156zm7.38 2.616c.48 0 .72-.212.72-.636 0-.408-.24-.612-.72-.612h-1.26v-6.504c0-.24-.068-.428-.204-.564s-.316-.204-.54-.204c-.216 0-.444.072-.684.216l-1.86 1.152c-.208.128-.312.308-.312.54 0 .176.058.336.174.48s.258.216.426.216c.088 0 .188-.032.3-.096l1.152-.708v5.472h-1.248c-.488 0-.732.204-.732.612 0 .424.244.636.732.636z" fill="#212121" fill-rule="nonzero"/></g><g transform="translate(33 230.6)"><g fill="#000" fill-opacity=".87" fill-rule="evenodd" mask="url(#j)" transform="translate(249)"><path d="m0 0h24v24h-24z"/></g><rect fill="#dbe8fb" height="8" rx="4" width="40" x="201" y="8"/><circle cx="191" cy="12" fill="#03dac5" r="4"/><path d="m3.528 16.06c.288.016.51-.026.666-.126s.234-.246.234-.438c0-.336-.2-.516-.6-.54l-.324-.024c-.544-.04-.816-.356-.816-.948v-2.724h1.02c.216 0 .382-.048.498-.144s.174-.236.174-.42-.058-.324-.174-.42-.282-.144-.498-.144h-1.02v-1.104c0-.216-.068-.388-.204-.516s-.316-.192-.54-.192c-.232 0-.416.064-.552.192s-.204.3-.204.516v1.104h-.6c-.216 0-.382.048-.498.144s-.174.236-.174.42.058.324.174.42.282.144.498.144h.6v2.616c0 1.344.672 2.064 2.016 2.16zm4.356.036c.6 0 1.126-.124 1.578-.372s.8-.604 1.044-1.068.366-1.004.366-1.62-.122-1.154-.366-1.614-.592-.814-1.044-1.062-.978-.372-1.578-.372-1.126.124-1.578.372-.802.602-1.05 1.062-.372.998-.372 1.614.124 1.156.372 1.62.598.82 1.05 1.068.978.372 1.578.372zm-.012-1.164c-.48 0-.848-.16-1.104-.48s-.384-.792-.384-1.416c0-.616.13-1.086.39-1.41s.63-.486 1.11-.486.848.162 1.104.486.384.794.384 1.41c0 .624-.128 1.096-.384 1.416s-.628.48-1.116.48zm6.516 1.164c.424 0 .802-.092 1.134-.276s.586-.44.762-.768v.3c0 .216.068.388.204.516s.316.192.54.192.404-.064.54-.192.204-.3.204-.516v-7.176c0-.208-.072-.376-.216-.504s-.328-.192-.552-.192-.402.062-.534.186-.198.286-.198.486v2.844c-.176-.32-.428-.568-.756-.744s-.704-.264-1.128-.264c-.512 0-.964.124-1.356.372s-.698.6-.918 1.056-.33.988-.33 1.596.11 1.146.33 1.614.528.83.924 1.086.846.384 1.35.384zm.396-1.164c-.472 0-.84-.168-1.104-.504s-.396-.808-.396-1.416c0-.6.132-1.06.396-1.38s.636-.48 1.116-.48c.472 0 .838.162 1.098.486s.39.79.39 1.398-.13 1.076-.39 1.404-.63.492-1.11.492zm7.212 1.164c.6 0 1.126-.124 1.578-.372s.8-.604 1.044-1.068.366-1.004.366-1.62-.122-1.154-.366-1.614-.592-.814-1.044-1.062-.978-.372-1.578-.372-1.126.124-1.578.372-.802.602-1.05 1.062-.372.998-.372 1.614.124 1.156.372 1.62.598.82 1.05 1.068.978.372 1.578.372zm-.012-1.164c-.48 0-.848-.16-1.104-.48s-.384-.792-.384-1.416c0-.616.13-1.086.39-1.41s.63-.486 1.11-.486.848.162 1.104.486.384.794.384 1.41c0 .624-.128 1.096-.384 1.416s-.628.48-1.116.48zm4.98 1.14c.216 0 .396-.062.54-.186s.216-.302.216-.534v-7.164c0-.232-.072-.408-.216-.528s-.324-.18-.54-.18-.394.06-.534.18-.21.296-.21.528v7.164c0 .232.07.41.21.534s.318.186.534.186zm3.048-7.128c.272 0 .488-.074.648-.222s.24-.342.24-.582-.082-.432-.246-.576-.378-.216-.642-.216c-.272 0-.488.072-.648.216s-.24.336-.24.576.08.434.24.582.376.222.648.222zm0 7.128c.216 0 .396-.062.54-.186s.216-.302.216-.534v-4.632c0-.232-.072-.408-.216-.528s-.324-.18-.54-.18-.394.06-.534.18-.21.296-.21.528v4.632c0 .232.07.41.21.534s.318.186.534.186zm4.428.024c.752 0 1.354-.164 1.806-.492s.678-.764.678-1.308c0-.336-.066-.612-.198-.828s-.35-.396-.654-.54-.724-.272-1.26-.384c-.504-.104-.844-.208-1.02-.312s-.264-.256-.264-.456c0-.208.086-.372.258-.492s.406-.18.702-.18c.248 0 .456.03.624.09s.368.15.6.27c.128.072.234.126.318.162s.17.054.258.054c.128 0 .236-.054.324-.162s.132-.242.132-.402c0-.264-.128-.476-.384-.636-.248-.16-.528-.282-.84-.366s-.636-.126-.972-.126c-.464 0-.878.078-1.242.234s-.65.376-.858.66-.312.602-.312.954c0 .464.154.828.462 1.092s.818.468 1.53.612c.4.088.698.166.894.234s.332.142.408.222.114.188.114.324c0 .2-.094.356-.282.468s-.45.168-.786.168c-.328 0-.598-.032-.81-.096s-.446-.156-.702-.276c-.24-.128-.428-.192-.564-.192-.128 0-.236.05-.324.15s-.132.23-.132.39c0 .28.128.496.384.648.536.344 1.24.516 2.112.516zm6.444-.036c.288.016.51-.026.666-.126s.234-.246.234-.438c0-.336-.2-.516-.6-.54l-.324-.024c-.544-.04-.816-.356-.816-.948v-2.724h1.02c.216 0 .382-.048.498-.144s.174-.236.174-.42-.058-.324-.174-.42-.282-.144-.498-.144h-1.02v-1.104c0-.216-.068-.388-.204-.516s-.316-.192-.54-.192c-.232 0-.416.064-.552.192s-.204.3-.204.516v1.104h-.6c-.216 0-.382.048-.498.144s-.174.236-.174.42.058.324.174.42.282.144.498.144h.6v2.616c0 1.344.672 2.064 2.016 2.16zm4.74-2.676c.232 0 .406-.052.522-.156s.174-.248.174-.432-.058-.33-.174-.438-.29-.162-.522-.162h-2.472c-.232 0-.406.054-.522.162s-.174.254-.174.438.058.328.174.432.29.156.522.156zm4.02 2.712c.384 0 .722-.088 1.014-.264s.506-.42.642-.732v.264c0 .208.066.376.198.504s.302.192.51.192c.224 0 .4-.062.528-.186s.192-.294.192-.51v-2.928c0-.824-.198-1.438-.594-1.842s-1.002-.606-1.818-.606c-.376 0-.758.044-1.146.132s-.722.208-1.002.36c-.16.088-.274.182-.342.282s-.102.218-.102.354c0 .168.046.304.138.408s.21.156.354.156c.096 0 .248-.052.456-.156.328-.128.612-.226.852-.294s.476-.102.708-.102c.376 0 .648.09.816.27s.252.466.252.858v.276h-.3c-.872 0-1.556.056-2.052.168s-.854.292-1.074.54-.33.588-.33 1.02c0 .344.092.656.276.936s.436.5.756.66.676.24 1.068.24zm.3-1.08c-.264 0-.486-.082-.666-.246s-.27-.374-.27-.63c0-.208.064-.372.192-.492s.34-.204.636-.252.712-.072 1.248-.072h.216v.252c0 .424-.126.77-.378 1.038s-.578.402-.978.402zm5.064 3.204c.224 0 .404-.06.54-.18s.204-.284.204-.492v-2.448c.176.312.428.556.756.732s.7.264 1.116.264c.512 0 .964-.124 1.356-.372s.698-.6.918-1.056.33-.988.33-1.596-.11-1.146-.33-1.614-.528-.83-.924-1.086-.846-.384-1.35-.384c-.424 0-.802.09-1.134.27s-.586.434-.762.762v-.3c0-.216-.068-.388-.204-.516s-.316-.192-.54-.192-.402.064-.534.192-.198.3-.198.516v6.804c0 .208.07.376.21.504s.322.192.546.192zm2.22-3.288c-.48 0-.85-.164-1.11-.492s-.39-.792-.39-1.392c0-.608.13-1.076.39-1.404s.63-.492 1.11-.492c.472 0 .84.168 1.104.504s.396.808.396 1.416c0 .592-.132 1.05-.396 1.374s-.632.486-1.104.486zm4.98-5.988c.272 0 .488-.074.648-.222s.24-.342.24-.582-.082-.432-.246-.576-.378-.216-.642-.216c-.272 0-.488.072-.648.216s-.24.336-.24.576.08.434.24.582.376.222.648.222zm0 7.128c.216 0 .396-.062.54-.186s.216-.302.216-.534v-4.632c0-.232-.072-.408-.216-.528s-.324-.18-.54-.18-.394.06-.534.18-.21.296-.21.528v4.632c0 .232.07.41.21.534s.318.186.534.186zm5.364-2.688c.232 0 .406-.052.522-.156s.174-.248.174-.432-.058-.33-.174-.438-.29-.162-.522-.162h-2.472c-.232 0-.406.054-.522.162s-.174.254-.174.438.058.328.174.432.29.156.522.156zm7.344 2.616c.48 0 .72-.212.72-.636 0-.408-.24-.612-.72-.612h-3.168l2.076-2.208c.496-.528.848-1.006 1.056-1.434s.312-.886.312-1.374c0-.704-.246-1.264-.738-1.68s-1.15-.624-1.974-.624c-.472 0-.944.082-1.416.246s-.884.386-1.236.666c-.096.08-.166.164-.21.252s-.066.192-.066.312c0 .176.05.328.15.456s.218.192.354.192c.08 0 .16-.018.24-.054s.16-.082.24-.138c.312-.216.622-.386.93-.51s.626-.186.954-.186c.4 0 .708.1.924.3s.324.488.324.864c0 .304-.078.61-.234.918s-.402.646-.738 1.014l-2.736 2.94c-.184.192-.276.408-.276.648 0 .184.06.338.18.462s.284.186.492.186z" fill="#212121" fill-rule="nonzero"/></g><path d="m19.139015 224.2h302.25" stroke="#dbe8fb" stroke-linecap="square"/><g transform="translate(189 233.8)"><use fill="#000" filter="url(#h)" xlink:href="#g"/><use fill="#fff" fill-rule="evenodd" xlink:href="#g"/><path d="m15.57 18.64c.14 0 .2716667-.035.395-.105s.215-.1683333.275-.295l2.77-5.96c.04-.0933333.06-.1766667.06-.25 0-.16-.0666667-.2933333-.2-.4s-.2833333-.16-.45-.16c-.2466667 0-.4233333.1133333-.53.34l-2.3 5.11-2.3-5.11c-.0533333-.1133333-.1283333-.1983333-.225-.255s-.2016667-.085-.315-.085c-.1733333 0-.3283333.0533333-.465.16s-.205.2433333-.205.41c0 .0666667.02.1466667.06.24l2.76 5.96c.06.1266667.1516667.225.275.295s.255.105.395.105zm4.84-5.94c.2266667 0 .4066667-.0616667.54-.185s.2-.285.2-.485-.0683333-.36-.205-.48-.315-.18-.535-.18c-.2266667 0-.4066667.06-.54.18s-.2.28-.2.48.0666667.3616667.2.485.3133333.185.54.185zm0 5.94c.18 0 .33-.0516667.45-.155s.18-.2516667.18-.445v-3.86c0-.1933333-.06-.34-.18-.44s-.27-.15-.45-.15-.3283333.05-.445.15-.175.2466667-.175.44v3.86c0 .1933333.0583333.3416667.175.445s.265.155.445.155zm4.21.02c.26 0 .5333333-.0383333.82-.115s.5433333-.1783333.77-.305c.2466667-.14.37-.3133333.37-.52 0-.1466667-.035-.2633333-.105-.35s-.1616667-.13-.275-.13c-.0933333 0-.24.0533333-.44.16-.2066667.0933333-.3916667.1666667-.555.22s-.3516667.08-.565.08c-.42 0-.74-.1083333-.96-.325s-.35-.555-.39-1.015h2.95c.2533333 0 .38-.1433333.38-.43 0-.48-.09-.8966667-.27-1.25s-.4333333-.6266667-.76-.82-.71-.29-1.15-.29c-.46 0-.8716667.1066667-1.235.32s-.645.5133333-.845.9-.3.83-.3 1.33c0 .7866667.23 1.4066667.69 1.86s1.0833333.68 1.87.68zm.93-2.97h-2.26c.04-.4.1616667-.7066667.365-.92s.475-.32.815-.32c.3333333 0 .5933333.105.78.315s.2866667.5183333.3.925zm7.49 2.94c.1333333 0 .255-.0333333.365-.1s.1916667-.1633333.245-.29l1.65-3.87c.0333333-.0666667.05-.1433333.05-.23 0-.1533333-.0616667-.2816667-.185-.385s-.2616667-.155-.415-.155c-.1066667 0-.205.03-.295.09s-.1583333.15-.205.27l-1.17 3.05-1.22-3.03c-.0533333-.1266667-.13-.2216667-.23-.285s-.21-.095-.33-.095-.23.0316667-.33.095-.1766667.1583333-.23.285l-1.21 3.02-1.18-3.05c-.0466667-.12-.1166667-.21-.21-.27s-.1966667-.09-.31-.09c-.16 0-.3066667.055-.44.165s-.2.2416667-.2.395c0 .06.0166667.1333333.05.22l1.64 3.87c.0533333.1266667.1366667.2233333.25.29s.2333333.1.36.1c.1333333 0 .255-.0333333.365-.1s.1916667-.1633333.245-.29l1.15-2.86 1.19 2.86c.0533333.1266667.135.2233333.245.29s.2283333.1.355.1zm9.13.04c.44 0 .8533333-.065 1.24-.195s.73-.3183333 1.03-.565c.0866667-.0666667.1466667-.1383333.18-.215s.05-.165.05-.265c0-.1466667-.04-.27-.12-.37s-.1766667-.15-.29-.15c-.0733333 0-.1433333.0133333-.21.04s-.1333333.06-.2.1c-.3066667.2066667-.5816667.3533333-.825.44s-.5083333.13-.795.13c-.6933333 0-1.2183333-.2166667-1.575-.65s-.535-1.0733333-.535-1.92c0-.84.1783333-1.4766667.535-1.91s.8816667-.65 1.575-.65c.3 0 .5733333.0416667.82.125s.5133333.2316667.8.445c.14.0933333.2766667.14.41.14.1133333 0 .21-.05.29-.15s.12-.2233333.12-.37c0-.1066667-.0166667-.1966667-.05-.27s-.0933333-.1433333-.18-.21c-.3-.2466667-.6433333-.435-1.03-.565s-.8-.195-1.24-.195c-.68 0-1.275.1466667-1.785.44s-.9016667.7116667-1.175 1.255-.41 1.1816667-.41 1.915.1366667 1.3733333.41 1.92.665.9666667 1.175 1.26 1.105.44 1.785.44zm5.75-.01c.5 0 .9383333-.1033333 1.315-.31s.6666667-.5033333.87-.89.305-.8366667.305-1.35-.1016667-.9616667-.305-1.345-.4933333-.6783333-.87-.885-.815-.31-1.315-.31-.9383333.1033333-1.315.31-.6683333.5016667-.875.885-.31.8316667-.31 1.345.1033333.9633333.31 1.35.4983333.6833333.875.89.815.31 1.315.31zm-.01-.97c-.4 0-.7066667-.1333333-.92-.4s-.32-.66-.32-1.18c0-.5133333.1083333-.905.325-1.175s.525-.405.925-.405.7066667.135.92.405.32.6616667.32 1.175c0 .52-.1066667.9133333-.32 1.18s-.5233333.4-.93.4zm7.49.95c.1933333 0 .345-.0533333.455-.16s.165-.2533333.165-.44v-2.46c0-.6733333-.1433333-1.1766667-.43-1.51s-.7233333-.5-1.31-.5c-.3533333 0-.67.0733333-.95.22s-.5033333.3566667-.67.63v-.27c0-.1666667-.055-.3016667-.165-.405s-.2516667-.155-.425-.155c-.1933333 0-.3466667.0533333-.46.16s-.17.2466667-.17.42v3.87c0 .1866667.055.3333333.165.44s.2616667.16.455.16.3466667-.0533333.46-.16.17-.2533333.17-.44v-2.23c0-.38.1083333-.6833333.325-.91s.505-.34.865-.34c.3066667 0 .5316667.0866667.675.26s.215.45.215.83v2.39c0 .1866667.0566667.3333333.17.44s.2666667.16.46.16zm3.66.02c.6266667 0 1.1283333-.1366667 1.505-.41s.565-.6366667.565-1.09c0-.28-.055-.51-.165-.69s-.2916667-.33-.545-.45-.6033333-.2266667-1.05-.32c-.42-.0866667-.7033333-.1733333-.85-.26s-.22-.2133333-.22-.38c0-.1733333.0716667-.31.215-.41s.3383333-.15.585-.15c.2066667 0 .38.025.52.075s.3066667.125.5.225c.1066667.06.195.105.265.135s.1416667.045.215.045c.1066667 0 .1966667-.045.27-.135s.11-.2016667.11-.335c0-.22-.1066667-.3966667-.32-.53-.2066667-.1333333-.44-.235-.7-.305s-.53-.105-.81-.105c-.3866667 0-.7316667.065-1.035.195s-.5416667.3133333-.715.55-.26.5016667-.26.795c0 .3866667.1283333.69.385.91s.6816667.39 1.275.51c.3333333.0733333.5816667.1383333.745.195s.2766667.1183333.34.185.095.1566667.095.27c0 .1666667-.0783333.2966667-.235.39s-.375.14-.655.14c-.2733333 0-.4983333-.0266667-.675-.08s-.3716667-.13-.585-.23c-.2-.1066667-.3566667-.16-.47-.16-.1066667 0-.1966667.0416667-.27.125s-.11.1916667-.11.325c0 .2333333.1066667.4133333.32.54.4466667.2866667 1.0333333.43 1.76.43zm5.31 0c.5 0 .9383333-.1033333 1.315-.31s.6666667-.5033333.87-.89.305-.8366667.305-1.35-.1016667-.9616667-.305-1.345-.4933333-.6783333-.87-.885-.815-.31-1.315-.31-.9383333.1033333-1.315.31-.6683333.5016667-.875.885-.31.8316667-.31 1.345.1033333.9633333.31 1.35.4983333.6833333.875.89.815.31 1.315.31zm-.01-.97c-.4 0-.7066667-.1333333-.92-.4s-.32-.66-.32-1.18c0-.5133333.1083333-.905.325-1.175s.525-.405.925-.405.7066667.135.92.405.32.6616667.32 1.175c0 .52-.1066667.9133333-.32 1.18s-.5233333.4-.93.4zm4.15.95c.18 0 .33-.0516667.45-.155s.18-.2516667.18-.445v-5.97c0-.1933333-.06-.34-.18-.44s-.27-.15-.45-.15-.3283333.05-.445.15-.175.2466667-.175.44v5.97c0 .1933333.0583333.3416667.175.445s.265.155.445.155zm4.21.02c.26 0 .5333333-.0383333.82-.115s.5433333-.1783333.77-.305c.2466667-.14.37-.3133333.37-.52 0-.1466667-.035-.2633333-.105-.35s-.1616667-.13-.275-.13c-.0933333 0-.24.0533333-.44.16-.2066667.0933333-.3916667.1666667-.555.22s-.3516667.08-.565.08c-.42 0-.74-.1083333-.96-.325s-.35-.555-.39-1.015h2.95c.2533333 0 .38-.1433333.38-.43 0-.48-.09-.8966667-.27-1.25s-.4333333-.6266667-.76-.82-.71-.29-1.15-.29c-.46 0-.8716667.1066667-1.235.32s-.645.5133333-.845.9-.3.83-.3 1.33c0 .7866667.23 1.4066667.69 1.86s1.0833333.68 1.87.68zm.93-2.97h-2.26c.04-.4.1616667-.7066667.365-.92s.475-.32.815-.32c.3333333 0 .5933333.105.78.315s.2866667.5183333.3.925z" fill="#98b4cd" fill-rule="nonzero"/><path d="m17.9 47.15c.1666667 0 .3116667-.05.435-.15s.185-.2266667.185-.38c0-.1133333-.04-.23-.12-.35l-.91-1.39c-.14-.2133333-.2833333-.38-.43-.5s-.3166667-.2033333-.51-.25c.5666667-.1 1.005-.325 1.315-.675s.465-.7983333.465-1.345c0-.6733333-.2083333-1.1883333-.625-1.545s-1.025-.535-1.825-.535h-2.5c-.1933333 0-.345.0533333-.455.16s-.165.2566667-.165.45v5.85c0 .2.0583333.3583333.175.475s.2716667.175.465.175.3466667-.0583333.46-.175.17-.275.17-.475v-2.24h.98c.24 0 .435.0433333.585.13s.2916667.2366667.425.45l1.33 2.02c.0666667.1.1483333.175.245.225s.1983333.075.305.075zm-2.2-3.89h-1.68v-2.23h1.68c.4866667 0 .8433333.0883333 1.07.265s.34.4583333.34.845c0 .38-.1133333.6616667-.34.845s-.5833333.275-1.07.275zm6.19 3.9c.26 0 .5333333-.0383333.82-.115s.5433333-.1783333.77-.305c.2466667-.14.37-.3133333.37-.52 0-.1466667-.035-.2633333-.105-.35s-.1616667-.13-.275-.13c-.0933333 0-.24.0533333-.44.16-.2066667.0933333-.3916667.1666667-.555.22s-.3516667.08-.565.08c-.42 0-.74-.1083333-.96-.325s-.35-.555-.39-1.015h2.95c.2533333 0 .38-.1433333.38-.43 0-.48-.09-.8966667-.27-1.25s-.4333333-.6266667-.76-.82-.71-.29-1.15-.29c-.46 0-.8716667.1066667-1.235.32s-.645.5133333-.845.9-.3.83-.3 1.33c0 .7866667.23 1.4066667.69 1.86s1.0833333.68 1.87.68zm.93-2.97h-2.26c.04-.4.1616667-.7066667.365-.92s.475-.32.815-.32c.3333333 0 .5933333.105.78.315s.2866667.5183333.3.925zm3.86 2.97c.6266667 0 1.1283333-.1366667 1.505-.41s.565-.6366667.565-1.09c0-.28-.055-.51-.165-.69s-.2916667-.33-.545-.45-.6033333-.2266667-1.05-.32c-.42-.0866667-.7033333-.1733333-.85-.26s-.22-.2133333-.22-.38c0-.1733333.0716667-.31.215-.41s.3383333-.15.585-.15c.2066667 0 .38.025.52.075s.3066667.125.5.225c.1066667.06.195.105.265.135s.1416667.045.215.045c.1066667 0 .1966667-.045.27-.135s.11-.2016667.11-.335c0-.22-.1066667-.3966667-.32-.53-.2066667-.1333333-.44-.235-.7-.305s-.53-.105-.81-.105c-.3866667 0-.7316667.065-1.035.195s-.5416667.3133333-.715.55-.26.5016667-.26.795c0 .3866667.1283333.69.385.91s.6816667.39 1.275.51c.3333333.0733333.5816667.1383333.745.195s.2766667.1183333.34.185.095.1566667.095.27c0 .1666667-.0783333.2966667-.235.39s-.375.14-.655.14c-.2733333 0-.4983333-.0266667-.675-.08s-.3716667-.13-.585-.23c-.2-.1066667-.3566667-.16-.47-.16-.1066667 0-.1966667.0416667-.27.125s-.11.1916667-.11.325c0 .2333333.1066667.4133333.32.54.4466667.2866667 1.0333333.43 1.76.43zm5.37-.03c.24.0133333.425-.0216667.555-.105s.195-.205.195-.365c0-.28-.1666667-.43-.5-.45l-.27-.02c-.4533333-.0333333-.68-.2966667-.68-.79v-2.27h.85c.18 0 .3183333-.04.415-.12s.145-.1966667.145-.35-.0483333-.27-.145-.35-.235-.12-.415-.12h-.85v-.92c0-.18-.0566667-.3233333-.17-.43s-.2633333-.16-.45-.16c-.1933333 0-.3466667.0533333-.46.16s-.17.25-.17.43v.92h-.5c-.18 0-.3183333.04-.415.12s-.145.1966667-.145.35.0483333.27.145.35.235.12.415.12h.5v2.18c0 1.12.56 1.72 1.68 1.8zm2.96.03c.32 0 .6016667-.0733333.845-.22s.4216667-.35.535-.61v.22c0 .1733333.055.3133333.165.42s.2516667.16.425.16c.1866667 0 .3333333-.0516667.44-.155s.16-.245.16-.425v-2.44c0-.6866667-.165-1.1983333-.495-1.535s-.835-.505-1.515-.505c-.3133333 0-.6316667.0366667-.955.11s-.6016667.1733333-.835.3c-.1333333.0733333-.2283333.1516667-.285.235s-.085.1816667-.085.295c0 .14.0383333.2533333.115.34s.175.13.295.13c.08 0 .2066667-.0433333.38-.13.2733333-.1066667.51-.1883333.71-.245s.3966667-.085.59-.085c.3133333 0 .54.075.68.225s.21.3883333.21.715v.23h-.25c-.7266667 0-1.2966667.0466667-1.71.14s-.7116667.2433333-.895.45-.275.49-.275.85c0 .2866667.0766667.5466667.23.78s.3633333.4166667.63.55.5633333.2.89.2zm.25-.9c-.22 0-.405-.0683333-.555-.205s-.225-.3116667-.225-.525c0-.1733333.0533333-.31.16-.41s.2833333-.17.53-.21.5933333-.06 1.04-.06h.18v.21c0 .3533333-.105.6416667-.315.865s-.4816667.335-.815.335zm4.21.88c.18 0 .33-.0516667.45-.155s.18-.2516667.18-.445v-2.1c0-.34.0916667-.6233333.275-.85s.4716667-.36.865-.4l.3-.03c.2266667-.0266667.3833333-.0833333.47-.17s.13-.22.13-.4c0-.1733333-.05-.3033333-.15-.39s-.2366667-.1233333-.41-.11l-.14.01c-.3066667.02-.585.11-.835.27s-.4383333.3866667-.565.68v-.4c0-.18-.0533333-.3183333-.16-.415s-.2466667-.145-.42-.145-.3183333.05-.435.15-.175.2433333-.175.43v3.87c0 .1933333.0583333.3416667.175.445s.265.155.445.155zm5.5-.01c.24.0133333.425-.0216667.555-.105s.195-.205.195-.365c0-.28-.1666667-.43-.5-.45l-.27-.02c-.4533333-.0333333-.68-.2966667-.68-.79v-2.27h.85c.18 0 .3183333-.04.415-.12s.145-.1966667.145-.35-.0483333-.27-.145-.35-.235-.12-.415-.12h-.85v-.92c0-.18-.0566667-.3233333-.17-.43s-.2633333-.16-.45-.16c-.1933333 0-.3466667.0533333-.46.16s-.17.25-.17.43v.92h-.5c-.18 0-.3183333.04-.415.12s-.145.1966667-.145.35.0483333.27.145.35.235.12.415.12h.5v2.18c0 1.12.56 1.72 1.68 1.8zm4.86.01c.2 0 .3583333-.06.475-.18s.175-.2766667.175-.47v-5.87c0-.1933333-.0583333-.3483333-.175-.465s-.275-.175-.475-.175c-.1933333 0-.3483333.0583333-.465.175s-.175.2716667-.175.465v5.87c0 .1933333.0583333.35.175.47s.2716667.18.465.18zm6.02 0c.1933333 0 .345-.0533333.455-.16s.165-.2533333.165-.44v-2.46c0-.6733333-.1433333-1.1766667-.43-1.51s-.7233333-.5-1.31-.5c-.3533333 0-.67.0733333-.95.22s-.5033333.3566667-.67.63v-.27c0-.1666667-.055-.3016667-.165-.405s-.2516667-.155-.425-.155c-.1933333 0-.3466667.0533333-.46.16s-.17.2466667-.17.42v3.87c0 .1866667.055.3333333.165.44s.2616667.16.455.16.3466667-.0533333.46-.16.17-.2533333.17-.44v-2.23c0-.38.1083333-.6833333.325-.91s.505-.34.865-.34c.3066667 0 .5316667.0866667.675.26s.215.45.215.83v2.39c0 .1866667.0566667.3333333.17.44s.2666667.16.46.16zm3.66.02c.6266667 0 1.1283333-.1366667 1.505-.41s.565-.6366667.565-1.09c0-.28-.055-.51-.165-.69s-.2916667-.33-.545-.45-.6033333-.2266667-1.05-.32c-.42-.0866667-.7033333-.1733333-.85-.26s-.22-.2133333-.22-.38c0-.1733333.0716667-.31.215-.41s.3383333-.15.585-.15c.2066667 0 .38.025.52.075s.3066667.125.5.225c.1066667.06.195.105.265.135s.1416667.045.215.045c.1066667 0 .1966667-.045.27-.135s.11-.2016667.11-.335c0-.22-.1066667-.3966667-.32-.53-.2066667-.1333333-.44-.235-.7-.305s-.53-.105-.81-.105c-.3866667 0-.7316667.065-1.035.195s-.5416667.3133333-.715.55-.26.5016667-.26.795c0 .3866667.1283333.69.385.91s.6816667.39 1.275.51c.3333333.0733333.5816667.1383333.745.195s.2766667.1183333.34.185.095.1566667.095.27c0 .1666667-.0783333.2966667-.235.39s-.375.14-.655.14c-.2733333 0-.4983333-.0266667-.675-.08s-.3716667-.13-.585-.23c-.2-.1066667-.3566667-.16-.47-.16-.1066667 0-.1966667.0416667-.27.125s-.11.1916667-.11.325c0 .2333333.1066667.4133333.32.54.4466667.2866667 1.0333333.43 1.76.43zm5.37-.03c.24.0133333.425-.0216667.555-.105s.195-.205.195-.365c0-.28-.1666667-.43-.5-.45l-.27-.02c-.4533333-.0333333-.68-.2966667-.68-.79v-2.27h.85c.18 0 .3183333-.04.415-.12s.145-.1966667.145-.35-.0483333-.27-.145-.35-.235-.12-.415-.12h-.85v-.92c0-.18-.0566667-.3233333-.17-.43s-.2633333-.16-.45-.16c-.1933333 0-.3466667.0533333-.46.16s-.17.25-.17.43v.92h-.5c-.18 0-.3183333.04-.415.12s-.145.1966667-.145.35.0483333.27.145.35.235.12.415.12h.5v2.18c0 1.12.56 1.72 1.68 1.8zm2.96.03c.32 0 .6016667-.0733333.845-.22s.4216667-.35.535-.61v.22c0 .1733333.055.3133333.165.42s.2516667.16.425.16c.1866667 0 .3333333-.0516667.44-.155s.16-.245.16-.425v-2.44c0-.6866667-.165-1.1983333-.495-1.535s-.835-.505-1.515-.505c-.3133333 0-.6316667.0366667-.955.11s-.6016667.1733333-.835.3c-.1333333.0733333-.2283333.1516667-.285.235s-.085.1816667-.085.295c0 .14.0383333.2533333.115.34s.175.13.295.13c.08 0 .2066667-.0433333.38-.13.2733333-.1066667.51-.1883333.71-.245s.3966667-.085.59-.085c.3133333 0 .54.075.68.225s.21.3883333.21.715v.23h-.25c-.7266667 0-1.2966667.0466667-1.71.14s-.7116667.2433333-.895.45-.275.49-.275.85c0 .2866667.0766667.5466667.23.78s.3633333.4166667.63.55.5633333.2.89.2zm.25-.9c-.22 0-.405-.0683333-.555-.205s-.225-.3116667-.225-.525c0-.1733333.0533333-.31.16-.41s.2833333-.17.53-.21.5933333-.06 1.04-.06h.18v.21c0 .3533333-.105.6416667-.315.865s-.4816667.335-.815.335zm7.55.88c.1933333 0 .345-.0533333.455-.16s.165-.2533333.165-.44v-2.46c0-.6733333-.1433333-1.1766667-.43-1.51s-.7233333-.5-1.31-.5c-.3533333 0-.67.0733333-.95.22s-.5033333.3566667-.67.63v-.27c0-.1666667-.055-.3016667-.165-.405s-.2516667-.155-.425-.155c-.1933333 0-.3466667.0533333-.46.16s-.17.2466667-.17.42v3.87c0 .1866667.055.3333333.165.44s.2616667.16.455.16.3466667-.0533333.46-.16.17-.2533333.17-.44v-2.23c0-.38.1083333-.6833333.325-.91s.505-.34.865-.34c.3066667 0 .5316667.0866667.675.26s.215.45.215.83v2.39c0 .1866667.0566667.3333333.17.44s.2666667.16.46.16zm4.06.02c.2866667 0 .5666667-.0383333.84-.115s.5133333-.1816667.72-.315c.1133333-.0666667.195-.1416667.245-.225s.075-.1816667.075-.295c0-.14-.0366667-.2566667-.11-.35s-.1633333-.14-.27-.14c-.0733333 0-.1466667.015-.22.045s-.16.075-.26.135c-.16.0866667-.305.155-.435.205s-.2783333.075-.445.075c-.4133333 0-.7316667-.135-.955-.405s-.335-.655-.335-1.155c0-.5066667.1116667-.895.335-1.165s.5416667-.405.955-.405c.1733333 0 .3266667.025.46.075s.2733333.1183333.42.205c.08.0466667.16.0866667.24.12s.1566667.05.23.05c.1133333 0 .205-.045.275-.135s.105-.2083333.105-.355c0-.2133333-.1066667-.39-.32-.53-.2-.1266667-.4316667-.2266667-.695-.3s-.525-.11-.785-.11c-.4933333 0-.93.1066667-1.31.32s-.675.515-.885.905-.315.8383333-.315 1.345.1.95.3 1.33.485.6733333.855.88.7983333.31 1.285.31zm5 0c.26 0 .5333333-.0383333.82-.115s.5433333-.1783333.77-.305c.2466667-.14.37-.3133333.37-.52 0-.1466667-.035-.2633333-.105-.35s-.1616667-.13-.275-.13c-.0933333 0-.24.0533333-.44.16-.2066667.0933333-.3916667.1666667-.555.22s-.3516667.08-.565.08c-.42 0-.74-.1083333-.96-.325s-.35-.555-.39-1.015h2.95c.2533333 0 .38-.1433333.38-.43 0-.48-.09-.8966667-.27-1.25s-.4333333-.6266667-.76-.82-.71-.29-1.15-.29c-.46 0-.8716667.1066667-1.235.32s-.645.5133333-.845.9-.3.83-.3 1.33c0 .7866667.23 1.4066667.69 1.86s1.0833333.68 1.87.68zm.93-2.97h-2.26c.04-.4.1616667-.7066667.365-.92s.475-.32.815-.32c.3333333 0 .5933333.105.78.315s.2866667.5183333.3.925z" fill="#98b4cd" fill-rule="nonzero"/><path d="m0 30h121.424528" stroke="#dbe8fb" stroke-linecap="square"/></g></g></svg>