<svg height="392" viewBox="0 0 661 392" width="661" xmlns="http://www.w3.org/2000/svg" xmlns:xlink="http://www.w3.org/1999/xlink"><defs><rect id="a" height="316.2075" rx="9.576" width="585.732"/><filter id="b" height="139.2%" width="121.2%" x="-10.6%" y="-16.4%"><feOffset dx="0" dy="10" in="SourceAlpha" result="shadowOffsetOuter1"/><feGaussianBlur in="shadowOffsetOuter1" result="shadowBlurOuter1" stdDeviation="19"/><feColorMatrix in="shadowBlurOuter1" result="shadowMatrixOuter1" type="matrix" values="0 0 0 0 0.25869511   0 0 0 0 0.461476445   0 0 0 0 0.570764243  0 0 0 0.100486866 0"/><feOffset dx="0" dy="2" in="SourceAlpha" result="shadowOffsetOuter2"/><feGaussianBlur in="shadowOffsetOuter2" result="shadowBlurOuter2" stdDeviation="2"/><feColorMatrix in="shadowBlurOuter2" result="shadowMatrixOuter2" type="matrix" values="0 0 0 0 0.25869511   0 0 0 0 0.461476445   0 0 0 0 0.570764243  0 0 0 0.0998358243 0"/><feMerge><feMergeNode in="shadowMatrixOuter1"/><feMergeNode in="shadowMatrixOuter2"/></feMerge></filter><rect id="c" height="63.84" rx="9.576" width="560.196"/><filter id="d" height="262.9%" width="118.6%" x="-9.3%" y="-68.9%"><feOffset dx="0" dy="8" in="SourceAlpha" result="shadowOffsetOuter1"/><feGaussianBlur in="shadowOffsetOuter1" result="shadowBlurOuter1" stdDeviation="16"/><feColorMatrix in="shadowBlurOuter1" result="shadowMatrixOuter1" type="matrix" values="0 0 0 0 0.25869511   0 0 0 0 0.461476445   0 0 0 0 0.570764243  0 0 0 0.100486866 0"/><feOffset dx="0" dy="2" in="SourceAlpha" result="shadowOffsetOuter2"/><feGaussianBlur in="shadowOffsetOuter2" result="shadowBlurOuter2" stdDeviation="1.5"/><feColorMatrix in="shadowBlurOuter2" result="shadowMatrixOuter2" type="matrix" values="0 0 0 0 0.25869511   0 0 0 0 0.461476445   0 0 0 0 0.570764243  0 0 0 0.0998358243 0"/><feMerge><feMergeNode in="shadowMatrixOuter1"/><feMergeNode in="shadowMatrixOuter2"/></feMerge></filter><rect id="e" height="63.84" rx="9.576" width="560.196"/><filter id="f" height="262.9%" width="118.6%" x="-9.3%" y="-68.9%"><feOffset dx="0" dy="8" in="SourceAlpha" result="shadowOffsetOuter1"/><feGaussianBlur in="shadowOffsetOuter1" result="shadowBlurOuter1" stdDeviation="16"/><feColorMatrix in="shadowBlurOuter1" result="shadowMatrixOuter1" type="matrix" values="0 0 0 0 0.25869511   0 0 0 0 0.461476445   0 0 0 0 0.570764243  0 0 0 0.100486866 0"/><feOffset dx="0" dy="2" in="SourceAlpha" result="shadowOffsetOuter2"/><feGaussianBlur in="shadowOffsetOuter2" result="shadowBlurOuter2" stdDeviation="1.5"/><feColorMatrix in="shadowBlurOuter2" result="shadowMatrixOuter2" type="matrix" values="0 0 0 0 0.25869511   0 0 0 0 0.461476445   0 0 0 0 0.570764243  0 0 0 0.0998358243 0"/><feMerge><feMergeNode in="shadowMatrixOuter1"/><feMergeNode in="shadowMatrixOuter2"/></feMerge></filter><rect id="g" height="63.84" rx="9.576" width="560.196"/><filter id="h" height="262.9%" width="118.6%" x="-9.3%" y="-68.9%"><feOffset dx="0" dy="8" in="SourceAlpha" result="shadowOffsetOuter1"/><feGaussianBlur in="shadowOffsetOuter1" result="shadowBlurOuter1" stdDeviation="16"/><feColorMatrix in="shadowBlurOuter1" result="shadowMatrixOuter1" type="matrix" values="0 0 0 0 0.25869511   0 0 0 0 0.461476445   0 0 0 0 0.570764243  0 0 0 0.100486866 0"/><feOffset dx="0" dy="2" in="SourceAlpha" result="shadowOffsetOuter2"/><feGaussianBlur in="shadowOffsetOuter2" result="shadowBlurOuter2" stdDeviation="1.5"/><feColorMatrix in="shadowBlurOuter2" result="shadowMatrixOuter2" type="matrix" values="0 0 0 0 0.25869511   0 0 0 0 0.461476445   0 0 0 0 0.570764243  0 0 0 0.0998358243 0"/><feMerge><feMergeNode in="shadowMatrixOuter1"/><feMergeNode in="shadowMatrixOuter2"/></feMerge></filter><rect id="i" height="63.84" rx="9.576" width="560.196"/><filter id="j" height="262.9%" width="118.6%" x="-9.3%" y="-68.9%"><feOffset dx="0" dy="8" in="SourceAlpha" result="shadowOffsetOuter1"/><feGaussianBlur in="shadowOffsetOuter1" result="shadowBlurOuter1" stdDeviation="16"/><feColorMatrix in="shadowBlurOuter1" result="shadowMatrixOuter1" type="matrix" values="0 0 0 0 0.25869511   0 0 0 0 0.461476445   0 0 0 0 0.570764243  0 0 0 0.100486866 0"/><feOffset dx="0" dy="2" in="SourceAlpha" result="shadowOffsetOuter2"/><feGaussianBlur in="shadowOffsetOuter2" result="shadowBlurOuter2" stdDeviation="1.5"/><feColorMatrix in="shadowBlurOuter2" result="shadowMatrixOuter2" type="matrix" values="0 0 0 0 0.25869511   0 0 0 0 0.461476445   0 0 0 0 0.570764243  0 0 0 0.0998358243 0"/><feMerge><feMergeNode in="shadowMatrixOuter1"/><feMergeNode in="shadowMatrixOuter2"/></feMerge></filter><mask id="k" fill="#fff"><use fill="#fff" fill-rule="evenodd" xlink:href="#c"/></mask><mask id="l" fill="#fff"><path d="m10.4116586.68149039-4.69471154 7.67307692c-.51742789.83293269.08834134 1.91826919 1.07271634 1.91826919h9.3768029c.984375 0 1.5901442-1.0853365 1.0727163-1.91826919l-4.6820913-7.67307692c-.4921875-.80769231-1.6532452-.80769231-2.1454327 0zm8.0138221 12.11538461c-2.0289422 0-3.9037622 1.0824277-4.9182333 2.8395432s-1.0144711 3.9219711 0 5.6790866 2.8892911 2.8395433 4.9182333 2.8395433 3.9037622-1.0824278 4.9182333-2.8395433 1.0144711-3.9219711 0-5.6790866-2.8892911-2.8395432-4.9182333-2.8395432zm-17.03725961 10.7271635h7.57211539c.69411058 0 1.26201922-.5679087 1.26201922-1.2620193v-7.5721154c0-.6941105-.56790864-1.2620192-1.26201922-1.2620192h-7.57211539c-.69411057 0-1.26201923.5679087-1.26201923 1.2620192v7.5721154c0 .6941106.56790866 1.2620193 1.26201923 1.2620193z" fill="#fff" fill-rule="evenodd"/></mask><mask id="m" fill="#fff"><path d="m6 10c-1.1 0-2 .9-2 2s.9 2 2 2 2-.9 2-2-.9-2-2-2zm12 0c-1.1 0-2 .9-2 2s.9 2 2 2 2-.9 2-2-.9-2-2-2zm-6 0c-1.1 0-2 .9-2 2s.9 2 2 2 2-.9 2-2-.9-2-2-2z" fill="#fff" fill-rule="evenodd"/></mask><mask id="n" fill="#fff"><use fill="#fff" fill-rule="evenodd" xlink:href="#e"/></mask><mask id="o" fill="#fff"><path d="m13.7387307 2.21897501v.02474548c0 .82897341.5567732 1.52184672 1.3362556 1.76930147 3.5262302 1.10117364 6.0873869 4.37994909 6.0873869 8.26498864 0 .6433824-.0742364 1.2496465-.2103365 1.8435379-.1732184.7918552.1484728 1.6084559.8537188 2.029129l.0123728.0123727c1.0640554.6186369 2.449802.0618637 2.734375-1.1259191.2103365-.8908371.3216912-1.8187924.3216912-2.7591205 0-5.56773186-3.6870758-10.2941176-8.7598982-11.8407098-1.1754101-.35880939-2.3755656.54440046-2.3755656 1.78167421zm-2.548784 18.62096999c-3.6994485-.5320277-6.70602373-3.5386029-7.25042418-7.2256787-.66812783-4.45418552 2.05387443-8.37634333 5.97603224-9.60124434.79185524-.23508202 1.34862844-.94032806 1.34862844-1.76930147v-.02474548c0-1.23727375-1.2001556-2.1404836-2.3879384-1.78167421-5.58010464 1.70743779-9.47751697 7.25042421-8.63617081 13.5605204.72999151 5.419259 5.10994061 9.7992081 10.52919961 10.5291996 3.8850396.519655 7.4731335-.754737 10.0590357-3.1303026.9155826-.8413461.754737-2.3384474-.3216912-2.9570843-.7176188-.420673-1.6084559-.2845729-2.2270928.2722003-1.8187924 1.6579468-4.3428308 2.5364112-7.0895786 2.1281108z" fill="#fff" fill-rule="evenodd"/></mask><mask id="p" fill="#fff"><path d="m6 10c-1.1 0-2 .9-2 2s.9 2 2 2 2-.9 2-2-.9-2-2-2zm12 0c-1.1 0-2 .9-2 2s.9 2 2 2 2-.9 2-2-.9-2-2-2zm-6 0c-1.1 0-2 .9-2 2s.9 2 2 2 2-.9 2-2-.9-2-2-2z" fill="#fff" fill-rule="evenodd"/></mask><mask id="q" fill="#fff"><use fill="#fff" fill-rule="evenodd" xlink:href="#g"/></mask><mask id="r" fill="#fff"><path d="m12.1254429 9.43260974c-1.4810583 0-2.69283316 1.21177486-2.69283316 2.69283316 0 1.4810582 1.21177486 2.6928331 2.69283316 2.6928331 1.4810582 0 2.6928331-1.2117749 2.6928331-2.6928331 0-1.4810583-1.2117749-2.69283316-2.6928331-2.69283316zm9.4249159-9.42491593h-18.84983187c-1.49452238 0-2.69283312 1.2117749-2.69283312 2.69283312v18.84983187c0 1.4810582 1.19831074 2.6928331 2.69283312 2.6928331h18.84983187c1.4945224 0 2.6928331-1.2117749 2.6928331-2.6928331v-18.84983187c0-1.48105822-1.1983107-2.69283312-2.6928331-2.69283312zm-2.356229 12.11774909c0 .3096758-.0269283.6193516-.0673208.9155632l1.9926965 1.5618432c.1750341.1481059.2288908.403925.1077133.6058875l-1.8849832 3.2583281c-.1211775.2019625-.3635324.2827474-.5789591.2019625l-2.3427648-.9424916c-.48471.3769966-1.0232766.6866724-1.5887715.9290274l-.3500684 2.4908706c-.0403925.2288908-.2423549.403925-.4712458.403925h-3.7699663c-.2288908 0-.43085332-.1750342-.47124582-.3904608l-.35006831-2.4908706c-.57895912-.242355-1.10406158-.5520308-1.58877154-.9290275l-2.34276482.9424916c-.21542665.080785-.45778163 0-.57895912-.2019625l-1.88498318-3.258328c-.12117749-.2019625-.06732083-.4577817.10771332-.6058875l1.99269651-1.5618432c-.04039249-.3096758-.06732083-.6193516-.06732083-.9290274s.02692834-.6193517.06732083-.9155633l-1.99269651-1.56184321c-.17503415-.14810582-.22889081-.40392497-.10771332-.60588745l1.88498318-3.25832808c.12117749-.20196249.36353247-.28274748.57895912-.20196249l2.34276482.9424916c.48470996-.37699664 1.02327659-.68667245 1.58877154-.92902743l.35006831-2.49087064c.0403925-.22889081.24235502-.40392497.47124582-.40392497h3.7699663c.2288909 0 .4308533.17503416.4712458.3904608l.3500684 2.49087064c.5789591.24235498 1.1040615.55203079 1.5887715.92902743l2.3427648-.94249159c.2154267-.080785.4577816 0 .5789591.20196248l1.8849832 3.25832808c.1211775.20196249.0673208.45778163-.1077133.60588745l-1.9926965 1.56184318c.0403925.3096758.0673208.6193517.0673208.9290275z" fill="#fff" fill-rule="evenodd"/></mask><mask id="s" fill="#fff"><path d="m6 10c-1.1 0-2 .9-2 2s.9 2 2 2 2-.9 2-2-.9-2-2-2zm12 0c-1.1 0-2 .9-2 2s.9 2 2 2 2-.9 2-2-.9-2-2-2zm-6 0c-1.1 0-2 .9-2 2s.9 2 2 2 2-.9 2-2-.9-2-2-2z" fill="#fff" fill-rule="evenodd"/></mask><mask id="t" fill="#fff"><use fill="#fff" fill-rule="evenodd" xlink:href="#i"/></mask><mask id="u" fill="#fff"><path d="m12.4876273.12726244c-6.82975117 0-12.36036486 5.54298643-12.36036486 12.37273756 0 6.8297511 5.53061369 12.3727376 12.36036486 12.3727376 6.8421238 0 12.3851103-5.5429865 12.3851103-12.3727376 0-6.82975113-5.5429865-12.37273756-12.3851103-12.37273756zm.0123727 22.27092756c-5.46875 0-9.89819005-4.42944-9.89819005-9.89819s4.42944005-9.89819005 9.89819005-9.89819005 9.89819 4.42944005 9.89819 9.89819005-4.42944 9.89819-9.89819 9.89819zm-.2722002-16.08455878h-.0742365c-.4949095 0-.8908371.3959276-.8908371.89083711v5.83993217c0 .4330458.2227093.8413461.6062642 1.0640554l5.1346861 3.0808116c.420673.2474548.9650735.1237274 1.2125283-.2969457.2598274-.420673.1237273-.9774462-.3093185-1.224901l-4.7882494-2.8457296v-5.61722287c0-.49490951-.3959276-.89083711-.8908371-.89083711z" fill="#fff" fill-rule="evenodd"/></mask><mask id="v" fill="#fff"><path d="m6 10c-1.1 0-2 .9-2 2s.9 2 2 2 2-.9 2-2-.9-2-2-2zm12 0c-1.1 0-2 .9-2 2s.9 2 2 2 2-.9 2-2-.9-2-2-2zm-6 0c-1.1 0-2 .9-2 2s.9 2 2 2 2-.9 2-2-.9-2-2-2z" fill="#fff" fill-rule="evenodd"/></mask></defs><g fill="none" fill-rule="evenodd"><g transform="translate(38 28)"><use fill="#000" filter="url(#b)" xlink:href="#a"/><use fill="#fff" fill-rule="evenodd" xlink:href="#a"/></g><g transform="translate(50.768 42.1645)"><use fill="#000" filter="url(#d)" xlink:href="#c"/><use fill="#fff" fill-rule="evenodd" xlink:href="#c"/><g mask="url(#k)"><g fill="none" fill-opacity=".87" fill-rule="evenodd" mask="url(#l)" transform="translate(22.232 19.42)"><path d="m0 0h30.288462v30.288462h-30.288462z" fill="#000" transform="translate(-3.028846 -3.028846)"/></g></g><rect fill="#dbe8fb" height="8" mask="url(#k)" rx="4" width="70" x="417.732" y="27.92"/><rect fill="#dbe8fb" height="8" mask="url(#k)" rx="4" width="50" x="330.232" y="27.92"/><circle cx="409.232" cy="31.92" fill="#03dac5" mask="url(#k)" r="4"/><g mask="url(#k)"><g fill="none" fill-opacity=".87" fill-rule="evenodd" mask="url(#m)" transform="translate(513.232 19.92)"><path d="m0 0h24v24h-24z" fill="#000"/></g></g><path d="m71.276 36.92c1.0546667 0 1.883-.238 2.485-.714s.903-1.134.903-1.974c0-.6066667-.1563333-1.12-.469-1.54s-.7536667-.7093333-1.323-.868c.4853333-.1773333.8656667-.4573333 1.141-.84s.413-.8353333.413-1.358c0-.812-.2916667-1.4443333-.875-1.897s-1.3883333-.679-2.415-.679h-3.472c-.2706667 0-.483.0746667-.637.224s-.231.3593333-.231.63v8.162c0 .2706667.077.4806667.231.63s.3663333.224.637.224zm-.434-5.712h-2.282v-2.758h2.282c.6253333 0 1.092.112 1.4.336s.462.5693333.462 1.036c0 .924-.6206667 1.386-1.862 1.386zm.238 4.312h-2.52v-2.912h2.52c.644 0 1.1176667.1213333 1.421.364s.455.6113333.455 1.106-.1493333.8586667-.448 1.092-.7746667.35-1.428.35zm7.308 1.512c.448 0 .8423333-.1026667 1.183-.308s.5903333-.49.749-.854v.308c0 .2426667.077.4386667.231.588s.3523333.224.595.224c.2613333 0 .4666667-.0723333.616-.217s.224-.343.224-.595v-3.416c0-.9613333-.231-1.6776667-.693-2.149s-1.169-.707-2.121-.707c-.4386667 0-.8843333.0513333-1.337.154s-.8423333.2426667-1.169.42c-.1866667.1026667-.3196667.2123333-.399.329s-.119.2543333-.119.413c0 .196.0536667.3546667.161.476s.245.182.413.182c.112 0 .2893333-.0606667.532-.182.3826667-.1493333.714-.2636667.994-.343s.5553333-.119.826-.119c.4386667 0 .756.105.952.315s.294.5436667.294 1.001v.322h-.35c-1.0173333 0-1.8153333.0653333-2.394.196s-.9963333.3406667-1.253.63-.385.686-.385 1.19c0 .4013333.1073333.7653333.322 1.092s.5086667.5833333.882.77.7886667.28 1.246.28zm.35-1.26c-.308 0-.567-.0956667-.777-.287s-.315-.4363333-.315-.735c0-.2426667.0746667-.434.224-.574s.3966667-.238.742-.294.8306667-.084 1.456-.084h.252v.294c0 .4946667-.147.8983333-.441 1.211s-.6743333.469-1.141.469zm8.064 1.26c.4013333 0 .7933333-.0536667 1.176-.161s.7186667-.2543333 1.008-.441c.1586667-.0933333.273-.1983333.343-.315s.105-.2543333.105-.413c0-.196-.0513333-.3593333-.154-.49s-.2286667-.196-.378-.196c-.1026667 0-.2053333.021-.308.063s-.224.105-.364.189c-.224.1213333-.427.217-.609.287s-.3896667.105-.623.105c-.5786667 0-1.0243333-.189-1.337-.567s-.469-.917-.469-1.617c0-.7093333.1563333-1.253.469-1.631s.7583333-.567 1.337-.567c.2426667 0 .4573333.035.644.105s.3826667.1656667.588.287c.112.0653333.224.1213333.336.168s.2193333.07.322.07c.1586667 0 .287-.063.385-.189s.147-.2916667.147-.497c0-.2986667-.1493333-.546-.448-.742-.28-.1773333-.6043333-.3173333-.973-.42s-.735-.154-1.099-.154c-.6906667 0-1.302.1493333-1.834.448s-.945.721-1.239 1.267-.441 1.1736667-.441 1.883.14 1.33.42 1.862.679.9426667 1.197 1.232 1.1176667.434 1.799.434zm9.394-.042c.2053333 0 .385-.084.539-.252s.231-.3593333.231-.574c0-.224-.0933333-.4246667-.28-.602l-2.436-2.184 2.198-2.044c.1773333-.1773333.266-.3733333.266-.588s-.0793333-.4013333-.238-.56-.3453333-.238-.56-.238-.406.084-.574.252l-2.996 2.87v-5.264c0-.2706667-.084-.476-.252-.616s-.378-.21-.63-.21-.4596667.07-.623.21-.245.3453333-.245.616v8.358c0 .2706667.0816667.476.245.616s.371.21.623.21.462-.07.63-.21.252-.3453333.252-.616v-2.394l3.276 2.968c.1773333.168.3686667.252.574.252zm5.11.042c.364 0 .746667-.0536667 1.148-.161s.760667-.2496667 1.078-.427c.345333-.196.518-.4386667.518-.728 0-.2053333-.049-.3686667-.147-.49s-.226333-.182-.385-.182c-.130667 0-.336.0746667-.616.224-.289333.1306667-.548333.2333333-.777.308s-.492333.112-.791.112c-.588 0-1.036-.1516667-1.344-.455s-.49-.777-.546-1.421h4.13c.354667 0 .532-.2006667.532-.602 0-.672-.126-1.2553333-.378-1.75s-.606667-.8773333-1.064-1.148-.994-.406-1.61-.406c-.644 0-1.2203333.1493333-1.729.448s-.903.7186667-1.183 1.26-.42 1.162-.42 1.862c0 1.1013333.322 1.9693333.966 2.604s1.516667.952 2.618.952zm1.302-4.158h-3.164c.056-.56.2263333-.9893333.511-1.288.284667-.2986667.665-.448 1.141-.448.466667 0 .830667.147 1.092.441s.401333.7256667.42 1.295zm8.47 4.13c.270667 0 .483-.0746667.637-.224s.231-.3546667.231-.616v-3.444c0-.9426667-.200667-1.6473333-.602-2.114s-1.012667-.7-1.834-.7c-.494667 0-.938.1026667-1.33.308s-.704667.4993333-.938.882v-.378c0-.2333333-.077-.4223333-.231-.567s-.352333-.217-.595-.217c-.270667 0-.485333.0746667-.644.224s-.238.3453333-.238.588v5.418c0 .2613333.077.4666667.231.616s.366333.224.637.224.485333-.0746667.644-.224.238-.3546667.238-.616v-3.122c0-.532.151667-.9566667.455-1.274s.707-.476 1.211-.476c.429333 0 .744333.1213333.945.364s.301.63.301 1.162v3.346c0 .2613333.079333.4666667.238.616s.373333.224.644.224zm5.306.028c.494667 0 .935667-.1073333 1.323-.322s.683667-.5133333.889-.896v.35c0 .252.079333.4526667.238.602s.368667.224.63.224.471333-.0746667.63-.224.238-.35.238-.602v-8.372c0-.2426667-.084-.4386667-.252-.588s-.382667-.224-.644-.224-.469.0723333-.623.217-.231.3336667-.231.567v3.318c-.205333-.3733333-.499333-.6626667-.882-.868s-.821333-.308-1.316-.308c-.597333 0-1.124667.1446667-1.582.434s-.814333.7-1.071 1.232-.385 1.1526667-.385 1.862.128333 1.337.385 1.883.616.9683333 1.078 1.267.987.448 1.575.448zm.462-1.358c-.550667 0-.98-.196-1.288-.588s-.462-.9426667-.462-1.652c0-.7.154-1.2366667.462-1.61s.742-.56 1.302-.56c.550667 0 .977667.189 1.281.567s.455.9216667.455 1.631-.151667 1.2553333-.455 1.638-.735.574-1.295.574zm17.416 1.302c.224 0 .422333-.0746667.595-.224s.259-.3313333.259-.546c0-.1213333-.028-.2426667-.084-.364l-3.878-8.302c-.084-.1866667-.212333-.329-.385-.427s-.357-.147-.553-.147-.380333.049-.553.147-.301.2403333-.385.427l-3.864 8.302c-.056.1213333-.084.2426667-.084.364 0 .2146667.088667.3966667.266.546s.373333.224.588.224c.158667 0 .303333-.0396667.434-.119s.233333-.203.308-.371l.84-1.876h4.928l.84 1.876c.074667.168.177333.2916667.308.371s.270667.119.42.119zm-2.184-3.766h-3.696l1.848-4.158zm5.292 3.794c.28 0 .501667-.0816667.665-.245s.245-.385.245-.665v-3.01h2.506c1.054667 0 1.876-.266 2.464-.798s.882-1.274.882-2.226-.294-1.6916667-.882-2.219-1.409333-.791-2.464-.791h-3.444c-.270667 0-.483.0746667-.637.224s-.231.3593333-.231.63v8.19c0 .28.081667.5016667.245.665s.380333.245.651.245zm3.192-5.306h-2.282v-3.248h2.282c1.241333 0 1.862.5413333 1.862 1.624s-.620667 1.624-1.862 1.624zm6.048 5.306c.28 0 .501667-.084.665-.252s.245-.3873333.245-.658v-8.218c0-.2706667-.081667-.4876667-.245-.651s-.385-.245-.665-.245c-.270667 0-.487667.0816667-.651.245s-.245.3803333-.245.651v8.218c0 .2706667.081667.49.245.658s.380333.252.651.252z" fill="#212121" fill-rule="nonzero" mask="url(#k)"/></g><g transform="translate(50.768 116.1645)"><use fill="#000" filter="url(#f)" xlink:href="#e"/><use fill="#fff" fill-rule="evenodd" xlink:href="#e"/><g mask="url(#n)"><g fill="none" fill-opacity=".87" fill-rule="evenodd" mask="url(#o)" transform="translate(21.732 19.42)"><path d="m0 0h29.69457v29.69457h-29.69457z" fill="#000" transform="translate(-2.347285 -2.347285)"/></g></g><rect fill="#dbe8fb" height="8" mask="url(#n)" rx="4" width="70" x="417.732" y="27.92"/><rect fill="#dbe8fb" height="8" mask="url(#n)" rx="4" width="40" x="330.232" y="27.92"/><circle cx="409.232" cy="31.92" fill="#03dac5" mask="url(#n)" r="4"/><g mask="url(#n)"><g fill="none" fill-opacity=".87" fill-rule="evenodd" mask="url(#p)" transform="translate(513.232 19.92)"><path d="m0 0h24v24h-24z" fill="#000"/></g></g><path d="m70.436 36.92c1.6146667 0 2.8676667-.4316667 3.759-1.295s1.337-2.079 1.337-3.647c0-1.5586667-.4456667-2.7696667-1.337-3.633s-2.1443333-1.295-3.759-1.295h-2.772c-.2706667 0-.483.0746667-.637.224s-.231.3593333-.231.63v8.162c0 .2706667.077.4806667.231.63s.3663333.224.637.224zm-.112-1.47h-1.722v-6.93h1.722c2.268 0 3.402 1.1526667 3.402 3.458 0 2.3146667-1.134 3.472-3.402 3.472zm9.058 1.582c.448 0 .8423333-.1026667 1.183-.308s.5903333-.49.749-.854v.308c0 .2426667.077.4386667.231.588s.3523333.224.595.224c.2613333 0 .4666667-.0723333.616-.217s.224-.343.224-.595v-3.416c0-.9613333-.231-1.6776667-.693-2.149s-1.169-.707-2.121-.707c-.4386667 0-.8843333.0513333-1.337.154s-.8423333.2426667-1.169.42c-.1866667.1026667-.3196667.2123333-.399.329s-.119.2543333-.119.413c0 .196.0536667.3546667.161.476s.245.182.413.182c.112 0 .2893333-.0606667.532-.182.3826667-.1493333.714-.2636667.994-.343s.5553333-.119.826-.119c.4386667 0 .756.105.952.315s.294.5436667.294 1.001v.322h-.35c-1.0173333 0-1.8153333.0653333-2.394.196s-.9963333.3406667-1.253.63-.385.686-.385 1.19c0 .4013333.1073333.7653333.322 1.092s.5086667.5833333.882.77.7886667.28 1.246.28zm.35-1.26c-.308 0-.567-.0956667-.777-.287s-.315-.4363333-.315-.735c0-.2426667.0746667-.434.224-.574s.3966667-.238.742-.294.8306667-.084 1.456-.084h.252v.294c0 .4946667-.147.8983333-.441 1.211s-.6743333.469-1.141.469zm8.232 1.218c.336.0186667.595-.0303333.777-.147s.273-.287.273-.511c0-.392-.2333333-.602-.7-.63l-.378-.028c-.6346667-.0466667-.952-.4153333-.952-1.106v-3.178h1.19c.252 0 .4456667-.056.581-.168s.203-.2753333.203-.49-.0676667-.378-.203-.49-.329-.168-.581-.168h-1.19v-1.288c0-.252-.0793333-.4526667-.238-.602s-.3686667-.224-.63-.224c-.2706667 0-.4853333.0746667-.644.224s-.238.35-.238.602v1.288h-.7c-.252 0-.4456667.056-.581.168s-.203.2753333-.203.49.0676667.378.203.49.329.168.581.168h.7v3.052c0 1.568.784 2.408 2.352 2.52zm4.144.042c.448 0 .8423333-.1026667 1.183-.308s.5903333-.49.749-.854v.308c0 .2426667.077.4386667.231.588s.3523333.224.595.224c.2613333 0 .4666667-.0723333.616-.217s.224-.343.224-.595v-3.416c0-.9613333-.231-1.6776667-.693-2.149s-1.169-.707-2.121-.707c-.4386667 0-.8843333.0513333-1.337.154s-.8423333.2426667-1.169.42c-.1866667.1026667-.3196667.2123333-.399.329s-.119.2543333-.119.413c0 .196.0536667.3546667.161.476s.245.182.413.182c.112 0 .2893333-.0606667.532-.182.3826667-.1493333.714-.2636667.994-.343s.5553333-.119.826-.119c.4386667 0 .756.105.952.315s.294.5436667.294 1.001v.322h-.35c-1.0173333 0-1.8153333.0653333-2.394.196s-.9963333.3406667-1.253.63-.385.686-.385 1.19c0 .4013333.1073333.7653333.322 1.092s.5086667.5833333.882.77.7886667.28 1.246.28zm.35-1.26c-.308 0-.567-.0956667-.777-.287s-.315-.4363333-.315-.735c0-.2426667.0746667-.434.224-.574s.3966667-.238.742-.294.8306667-.084 1.456-.084h.252v.294c0 .4946667-.147.8983333-.441 1.211s-.6743333.469-1.141.469zm8.96 1.26c.588 0 1.113-.1493333 1.575-.448s.821333-.721 1.078-1.267.385-1.1736667.385-1.883-.128333-1.33-.385-1.862-.613667-.9426667-1.071-1.232-.984667-.434-1.582-.434c-.485333 0-.919333.1003333-1.302.301-.3826667.2006667-.6766667.4876667-.882.861v-3.304c0-.2426667-.0793333-.434-.238-.574s-.3686667-.21-.63-.21-.4736667.0746667-.637.224-.245.3453333-.245.588v8.372c0 .252.077.4526667.231.602s.3616667.224.623.224.4713333-.0746667.63-.224.238-.35.238-.602v-.35c.2053333.3826667.5016667.6813333.889.896.387333.2146667.828333.322 1.323.322zm-.462-1.358c-.56 0-.9916667-.1913333-1.295-.574s-.455-.9286667-.455-1.638.1516667-1.253.455-1.631.735-.567 1.295-.567.991667.1866667 1.295.56.455.91.455 1.61c0 .7093333-.154 1.26-.462 1.652s-.737333.588-1.288.588zm7.126 1.358c.448 0 .842333-.1026667 1.183-.308s.590333-.49.749-.854v.308c0 .2426667.077.4386667.231.588s.352333.224.595.224c.261333 0 .466667-.0723333.616-.217s.224-.343.224-.595v-3.416c0-.9613333-.231-1.6776667-.693-2.149s-1.169-.707-2.121-.707c-.438667 0-.884333.0513333-1.337.154s-.842333.2426667-1.169.42c-.186667.1026667-.319667.2123333-.399.329s-.119.2543333-.119.413c0 .196.053667.3546667.161.476s.245.182.413.182c.112 0 .289333-.0606667.532-.182.382667-.1493333.714-.2636667.994-.343s.555333-.119.826-.119c.438667 0 .756.105.952.315s.294.5436667.294 1.001v.322h-.35c-1.017333 0-1.815333.0653333-2.394.196s-.996333.3406667-1.253.63-.385.686-.385 1.19c0 .4013333.107333.7653333.322 1.092s.508667.5833333.882.77.788667.28 1.246.28zm.35-1.26c-.308 0-.567-.0956667-.777-.287s-.315-.4363333-.315-.735c0-.2426667.074667-.434.224-.574s.396667-.238.742-.294.830667-.084 1.456-.084h.252v.294c0 .4946667-.147.8983333-.441 1.211s-.674333.469-1.141.469zm7.504 1.26c.877333 0 1.579667-.1913333 2.107-.574s.791-.8913333.791-1.526c0-.392-.077-.714-.231-.966s-.408333-.462-.763-.63-.844667-.3173333-1.47-.448c-.588-.1213333-.984667-.2426667-1.19-.364s-.308-.2986667-.308-.532c0-.2426667.100333-.434.301-.574s.473667-.21.819-.21c.289333 0 .532.035.728.105s.429333.175.7.315c.149333.084.273.147.371.189s.198333.063.301.063c.149333 0 .275333-.063.378-.189s.154-.2823333.154-.469c0-.308-.149333-.5553333-.448-.742-.289333-.1866667-.616-.329-.98-.427s-.742-.147-1.134-.147c-.541333 0-1.024333.091-1.449.273s-.758333.4386667-1.001.77-.364.7023333-.364 1.113c0 .5413333.179667.966.539 1.274s.954333.546 1.785.714c.466667.1026667.814333.1936667 1.043.273s.387333.1656667.476.259.133.2193333.133.378c0 .2333333-.109667.4153333-.329.546s-.525.196-.917.196c-.382667 0-.697667-.0373333-.945-.112s-.520333-.182-.819-.322c-.28-.1493333-.499333-.224-.658-.224-.149333 0-.275333.0583333-.378.175s-.154.2683333-.154.455c0 .3266667.149333.5786667.448.756.625333.4013333 1.446667.602 2.464.602zm7.518 0c.364 0 .746667-.0536667 1.148-.161s.760667-.2496667 1.078-.427c.345333-.196.518-.4386667.518-.728 0-.2053333-.049-.3686667-.147-.49s-.226333-.182-.385-.182c-.130667 0-.336.0746667-.616.224-.289333.1306667-.548333.2333333-.777.308s-.492333.112-.791.112c-.588 0-1.036-.1516667-1.344-.455s-.49-.777-.546-1.421h4.13c.354667 0 .532-.2006667.532-.602 0-.672-.126-1.2553333-.378-1.75s-.606667-.8773333-1.064-1.148-.994-.406-1.61-.406c-.644 0-1.220333.1493333-1.729.448s-.903.7186667-1.183 1.26-.42 1.162-.42 1.862c0 1.1013333.322 1.9693333.966 2.604s1.516667.952 2.618.952zm1.302-4.158h-3.164c.056-.56.226333-.9893333.511-1.288s.665-.448 1.141-.448c.466667 0 .830667.147 1.092.441s.401333.7256667.42 1.295z" fill="#212121" fill-rule="nonzero" mask="url(#n)"/></g><g transform="translate(50.768 190.1645)"><use fill="#000" filter="url(#h)" xlink:href="#g"/><use fill="#fff" fill-rule="evenodd" xlink:href="#g"/><g mask="url(#q)"><g fill="none" fill-opacity=".87" fill-rule="evenodd" mask="url(#r)" transform="translate(21.232 19.42)"><path d="m0 0h32.313998v32.313998h-32.313998z" fill="#000" transform="translate(-4.031556 -4.031556)"/></g></g><rect fill="#dbe8fb" height="8" mask="url(#q)" rx="4" width="70" x="417.732" y="27.92"/><rect fill="#dbe8fb" height="8" mask="url(#q)" rx="4" width="30" x="330.232" y="27.92"/><circle cx="409.232" cy="31.92" fill="#03dac5" mask="url(#q)" r="4"/><g mask="url(#q)"><g fill="none" fill-opacity=".87" fill-rule="evenodd" mask="url(#s)" transform="translate(513.232 19.92)"><path d="m0 0h24v24h-24z" fill="#000"/></g></g><path d="m71.276 36.92c1.0546667 0 1.883-.238 2.485-.714s.903-1.134.903-1.974c0-.6066667-.1563333-1.12-.469-1.54s-.7536667-.7093333-1.323-.868c.4853333-.1773333.8656667-.4573333 1.141-.84s.413-.8353333.413-1.358c0-.812-.2916667-1.4443333-.875-1.897s-1.3883333-.679-2.415-.679h-3.472c-.2706667 0-.483.0746667-.637.224s-.231.3593333-.231.63v8.162c0 .2706667.077.4806667.231.63s.3663333.224.637.224zm-.434-5.712h-2.282v-2.758h2.282c.6253333 0 1.092.112 1.4.336s.462.5693333.462 1.036c0 .924-.6206667 1.386-1.862 1.386zm.238 4.312h-2.52v-2.912h2.52c.644 0 1.1176667.1213333 1.421.364s.455.6113333.455 1.106-.1493333.8586667-.448 1.092-.7746667.35-1.428.35zm7.308 1.512c.448 0 .8423333-.1026667 1.183-.308s.5903333-.49.749-.854v.308c0 .2426667.077.4386667.231.588s.3523333.224.595.224c.2613333 0 .4666667-.0723333.616-.217s.224-.343.224-.595v-3.416c0-.9613333-.231-1.6776667-.693-2.149s-1.169-.707-2.121-.707c-.4386667 0-.8843333.0513333-1.337.154s-.8423333.2426667-1.169.42c-.1866667.1026667-.3196667.2123333-.399.329s-.119.2543333-.119.413c0 .196.0536667.3546667.161.476s.245.182.413.182c.112 0 .2893333-.0606667.532-.182.3826667-.1493333.714-.2636667.994-.343s.5553333-.119.826-.119c.4386667 0 .756.105.952.315s.294.5436667.294 1.001v.322h-.35c-1.0173333 0-1.8153333.0653333-2.394.196s-.9963333.3406667-1.253.63-.385.686-.385 1.19c0 .4013333.1073333.7653333.322 1.092s.5086667.5833333.882.77.7886667.28 1.246.28zm.35-1.26c-.308 0-.567-.0956667-.777-.287s-.315-.4363333-.315-.735c0-.2426667.0746667-.434.224-.574s.3966667-.238.742-.294.8306667-.084 1.456-.084h.252v.294c0 .4946667-.147.8983333-.441 1.211s-.6743333.469-1.141.469zm8.064 1.26c.4013333 0 .7933333-.0536667 1.176-.161s.7186667-.2543333 1.008-.441c.1586667-.0933333.273-.1983333.343-.315s.105-.2543333.105-.413c0-.196-.0513333-.3593333-.154-.49s-.2286667-.196-.378-.196c-.1026667 0-.2053333.021-.308.063s-.224.105-.364.189c-.224.1213333-.427.217-.609.287s-.3896667.105-.623.105c-.5786667 0-1.0243333-.189-1.337-.567s-.469-.917-.469-1.617c0-.7093333.1563333-1.253.469-1.631s.7583333-.567 1.337-.567c.2426667 0 .4573333.035.644.105s.3826667.1656667.588.287c.112.0653333.224.1213333.336.168s.2193333.07.322.07c.1586667 0 .287-.063.385-.189s.147-.2916667.147-.497c0-.2986667-.1493333-.546-.448-.742-.28-.1773333-.6043333-.3173333-.973-.42s-.735-.154-1.099-.154c-.6906667 0-1.302.1493333-1.834.448s-.945.721-1.239 1.267-.441 1.1736667-.441 1.883.14 1.33.42 1.862.679.9426667 1.197 1.232 1.1176667.434 1.799.434zm9.394-.042c.2053333 0 .385-.084.539-.252s.231-.3593333.231-.574c0-.224-.0933333-.4246667-.28-.602l-2.436-2.184 2.198-2.044c.1773333-.1773333.266-.3733333.266-.588s-.0793333-.4013333-.238-.56-.3453333-.238-.56-.238-.406.084-.574.252l-2.996 2.87v-5.264c0-.2706667-.084-.476-.252-.616s-.378-.21-.63-.21-.4596667.07-.623.21-.245.3453333-.245.616v8.358c0 .2706667.0816667.476.245.616s.371.21.623.21.462-.07.63-.21.252-.3453333.252-.616v-2.394l3.276 2.968c.1773333.168.3686667.252.574.252zm5.11.042c.364 0 .746667-.0536667 1.148-.161s.760667-.2496667 1.078-.427c.345333-.196.518-.4386667.518-.728 0-.2053333-.049-.3686667-.147-.49s-.226333-.182-.385-.182c-.130667 0-.336.0746667-.616.224-.289333.1306667-.548333.2333333-.777.308s-.492333.112-.791.112c-.588 0-1.036-.1516667-1.344-.455s-.49-.777-.546-1.421h4.13c.354667 0 .532-.2006667.532-.602 0-.672-.126-1.2553333-.378-1.75s-.606667-.8773333-1.064-1.148-.994-.406-1.61-.406c-.644 0-1.2203333.1493333-1.729.448s-.903.7186667-1.183 1.26-.42 1.162-.42 1.862c0 1.1013333.322 1.9693333.966 2.604s1.516667.952 2.618.952zm1.302-4.158h-3.164c.056-.56.2263333-.9893333.511-1.288.284667-.2986667.665-.448 1.141-.448.466667 0 .830667.147 1.092.441s.401333.7256667.42 1.295zm8.47 4.13c.270667 0 .483-.0746667.637-.224s.231-.3546667.231-.616v-3.444c0-.9426667-.200667-1.6473333-.602-2.114s-1.012667-.7-1.834-.7c-.494667 0-.938.1026667-1.33.308s-.704667.4993333-.938.882v-.378c0-.2333333-.077-.4223333-.231-.567s-.352333-.217-.595-.217c-.270667 0-.485333.0746667-.644.224s-.238.3453333-.238.588v5.418c0 .2613333.077.4666667.231.616s.366333.224.637.224.485333-.0746667.644-.224.238-.3546667.238-.616v-3.122c0-.532.151667-.9566667.455-1.274s.707-.476 1.211-.476c.429333 0 .744333.1213333.945.364s.301.63.301 1.162v3.346c0 .2613333.079333.4666667.238.616s.373333.224.644.224zm5.306.028c.494667 0 .935667-.1073333 1.323-.322s.683667-.5133333.889-.896v.35c0 .252.079333.4526667.238.602s.368667.224.63.224.471333-.0746667.63-.224.238-.35.238-.602v-8.372c0-.2426667-.084-.4386667-.252-.588s-.382667-.224-.644-.224-.469.0723333-.623.217-.231.3336667-.231.567v3.318c-.205333-.3733333-.499333-.6626667-.882-.868s-.821333-.308-1.316-.308c-.597333 0-1.124667.1446667-1.582.434s-.814333.7-1.071 1.232-.385 1.1526667-.385 1.862.128333 1.337.385 1.883.616.9683333 1.078 1.267.987.448 1.575.448zm.462-1.358c-.550667 0-.98-.196-1.288-.588s-.462-.9426667-.462-1.652c0-.7.154-1.2366667.462-1.61s.742-.56 1.302-.56c.550667 0 .977667.189 1.281.567s.455.9216667.455 1.631-.151667 1.2553333-.455 1.638-.735.574-1.295.574zm19.222 1.344c.205333 0 .394333-.0513333.567-.154s.296333-.2473333.371-.434l3.01-8.33c.046667-.1586667.07-.28.07-.364 0-.2333333-.081667-.42-.245-.56s-.357-.21-.581-.21c-.177333 0-.338333.0466667-.483.14s-.249667.2333333-.315.42l-2.422 6.93-2.38-6.874c-.065333-.196-.175-.3476667-.329-.455s-.319667-.161-.497-.161-.340667.0536667-.49.161-.256667.2543333-.322.441l-2.45 6.804-2.38-6.846c-.065333-.1866667-.172667-.3266667-.322-.42s-.317333-.14-.504-.14c-.233333 0-.436333.07-.609.21s-.259.3266667-.259.56c0 .1026667.023333.224.07.364l3.01 8.33c.065333.1866667.184333.3313333.357.434s.361667.154.567.154.394333-.0513333.567-.154.296333-.2473333.371-.434l2.366-6.594 2.324 6.594c.065333.1866667.186667.3313333.364.434s.368667.154.574.154zm8.526.014c.7 0 1.313667-.1446667 1.841-.434s.933333-.7046667 1.218-1.246.427-1.1713333.427-1.89-.142333-1.3463333-.427-1.883-.690667-.9496667-1.218-1.239-1.141-.434-1.841-.434-1.313667.1446667-1.841.434-.935667.7023333-1.225 1.239-.434 1.1643333-.434 1.883.144667 1.3486667.434 1.89.697667.9566667 1.225 1.246 1.141.434 1.841.434zm-.014-1.358c-.56 0-.989333-.1866667-1.288-.56s-.448-.924-.448-1.652c0-.7186667.151667-1.267.455-1.645s.735-.567 1.295-.567.989333.189 1.288.567.448.9263333.448 1.645c0 .728-.149333 1.2786667-.448 1.652s-.732667.56-1.302.56zm5.81 1.33c.252 0 .462-.0723333.63-.217s.252-.3523333.252-.623v-2.94c0-.476.128333-.8726667.385-1.19s.660333-.504 1.211-.56l.42-.042c.317333-.0373333.536667-.1166667.658-.238s.182-.308.182-.56c0-.2426667-.07-.4246667-.21-.546s-.331333-.1726667-.574-.154l-.196.014c-.429333.028-.819.154-1.169.378s-.613667.5413333-.791.952v-.56c0-.252-.074667-.4456667-.224-.581s-.345333-.203-.588-.203-.445667.07-.609.21-.245.3406667-.245.602v5.418c0 .2706667.081667.4783333.245.623s.371.217.623.217zm10.094-.014c.205333 0 .385-.084.539-.252s.231-.3593333.231-.574c0-.224-.093333-.4246667-.28-.602l-2.436-2.184 2.198-2.044c.177333-.1773333.266-.3733333.266-.588s-.079333-.4013333-.238-.56-.345333-.238-.56-.238-.406.084-.574.252l-2.996 2.87v-5.264c0-.2706667-.084-.476-.252-.616s-.378-.21-.63-.21-.459667.07-.623.21-.245.3453333-.245.616v8.358c0 .2706667.081667.476.245.616s.371.21.623.21.462-.07.63-.21.252-.3453333.252-.616v-2.394l3.276 2.968c.177333.168.368667.252.574.252zm5.11.042c.364 0 .746667-.0536667 1.148-.161s.760667-.2496667 1.078-.427c.345333-.196.518-.4386667.518-.728 0-.2053333-.049-.3686667-.147-.49s-.226333-.182-.385-.182c-.130667 0-.336.0746667-.616.224-.289333.1306667-.548333.2333333-.777.308s-.492333.112-.791.112c-.588 0-1.036-.1516667-1.344-.455s-.49-.777-.546-1.421h4.13c.354667 0 .532-.2006667.532-.602 0-.672-.126-1.2553333-.378-1.75s-.606667-.8773333-1.064-1.148-.994-.406-1.61-.406c-.644 0-1.220333.1493333-1.729.448s-.903.7186667-1.183 1.26-.42 1.162-.42 1.862c0 1.1013333.322 1.9693333.966 2.604s1.516667.952 2.618.952zm1.302-4.158h-3.164c.056-.56.226333-.9893333.511-1.288s.665-.448 1.141-.448c.466667 0 .830667.147 1.092.441s.401333.7256667.42 1.295zm3.794 4.13c.252 0 .462-.0723333.63-.217s.252-.3523333.252-.623v-2.94c0-.476.128333-.8726667.385-1.19s.660333-.504 1.211-.56l.42-.042c.317333-.0373333.536667-.1166667.658-.238s.182-.308.182-.56c0-.2426667-.07-.4246667-.21-.546s-.331333-.1726667-.574-.154l-.196.014c-.429333.028-.819.154-1.169.378s-.613667.5413333-.791.952v-.56c0-.252-.074667-.4456667-.224-.581s-.345333-.203-.588-.203-.445667.07-.609.21-.245.3406667-.245.602v5.418c0 .2706667.081667.4783333.245.623s.371.217.623.217z" fill="#212121" fill-rule="nonzero" mask="url(#q)"/></g><g transform="translate(50.768 264.1645)"><use fill="#000" filter="url(#j)" xlink:href="#i"/><use fill="#fff" fill-rule="evenodd" xlink:href="#i"/><g mask="url(#t)"><g fill="none" fill-opacity=".87" fill-rule="evenodd" mask="url(#u)" transform="translate(21.232 19.42)"><path d="m0 0h29.69457v29.69457h-29.69457z" fill="#000" transform="translate(-2.347285 -2.347285)"/></g></g><rect fill="#dbe8fb" height="8" mask="url(#t)" rx="4" width="70" x="417.732" y="27.92"/><rect fill="#dbe8fb" height="8" mask="url(#t)" rx="4" width="40" x="330.232" y="27.92"/><circle cx="409.232" cy="31.92" fill="#03dac5" mask="url(#t)" r="4"/><g mask="url(#t)"><g fill="none" fill-opacity=".87" fill-rule="evenodd" mask="url(#v)" transform="translate(513.232 19.92)"><path d="m0 0h24v24h-24z" fill="#000"/></g></g><path d="m66.4655 37.0057857.1485-.0017857.448-.028c1.7453333-.1306667 2.618-1.078 2.618-2.842v-6.258c0-.2706667-.0816667-.4876667-.245-.651s-.385-.245-.665-.245c-.2706667 0-.4876667.0816667-.651.245s-.245.3803333-.245.651v6.258c0 .4573333-.098.798-.294 1.022s-.4853333.3453333-.868.364l-.448.028c-.252.0186667-.4363333.0863333-.553.203s-.175.287-.175.511c0 .5226667.3593333.77 1.078.742zm8.3105.0262143c.7 0 1.3136667-.1446667 1.841-.434s.9333333-.7046667 1.218-1.246.427-1.1713333.427-1.89-.1423333-1.3463333-.427-1.883-.6906667-.9496667-1.218-1.239-1.141-.434-1.841-.434-1.3136667.1446667-1.841.434-.9356667.7023333-1.225 1.239-.434 1.1643333-.434 1.883.1446667 1.3486667.434 1.89.6976667.9566667 1.225 1.246 1.141.434 1.841.434zm-.014-1.358c-.56 0-.9893333-.1866667-1.288-.56s-.448-.924-.448-1.652c0-.7186667.1516667-1.267.455-1.645s.735-.567 1.295-.567.9893333.189 1.288.567.448.9263333.448 1.645c0 .728-.1493333 1.2786667-.448 1.652s-.7326667.56-1.302.56zm8.876 1.358c.588 0 1.113-.1493333 1.575-.448s.8213333-.721 1.078-1.267.385-1.1736667.385-1.883-.1283333-1.33-.385-1.862-.6136667-.9426667-1.071-1.232-.9846667-.434-1.582-.434c-.4853333 0-.9193333.1003333-1.302.301s-.6766667.4876667-.882.861v-3.304c0-.2426667-.0793333-.434-.238-.574s-.3686667-.21-.63-.21-.4736667.0746667-.637.224-.245.3453333-.245.588v8.372c0 .252.077.4526667.231.602s.3616667.224.623.224.4713333-.0746667.63-.224.238-.35.238-.602v-.35c.2053333.3826667.5016667.6813333.889.896s.8283333.322 1.323.322zm-.462-1.358c-.56 0-.9916667-.1913333-1.295-.574s-.455-.9286667-.455-1.638.1516667-1.253.455-1.631.735-.567 1.295-.567.9916667.1866667 1.295.56.455.91.455 1.61c0 .7093333-.154 1.26-.462 1.652s-.7373333.588-1.288.588z" fill="#212121" fill-rule="nonzero" mask="url(#t)"/></g></g></svg>