<svg height="296" viewBox="0 0 350 296" width="350" xmlns="http://www.w3.org/2000/svg" xmlns:xlink="http://www.w3.org/1999/xlink"><defs><path id="a" d="m9 16.3333333h254c4.418278 0 8 3.581722 8 8v47.3333334c0 4.418278-3.581722 8-8 8h-254c-4.418278 0-8-3.581722-8-8v-47.3333334c0-4.418278 3.581722-8 8-8z"/><filter id="b" height="305.3%" width="148.1%" x="-24.1%" y="-86.8%"><feOffset dx="0" dy="10" in="SourceAlpha" result="shadowOffsetOuter1"/><feGaussianBlur in="shadowOffsetOuter1" result="shadowBlurOuter1" stdDeviation="20"/><feColorMatrix in="shadowBlurOuter1" result="shadowMatrixOuter1" type="matrix" values="0 0 0 0 0.25869511   0 0 0 0 0.461476445   0 0 0 0 0.570764243  0 0 0 0.100486866 0"/><feOffset dx="0" dy="2" in="SourceAlpha" result="shadowOffsetOuter2"/><feGaussianBlur in="shadowOffsetOuter2" result="shadowBlurOuter2" stdDeviation="2"/><feColorMatrix in="shadowBlurOuter2" result="shadowMatrixOuter2" type="matrix" values="0 0 0 0 0.25869511   0 0 0 0 0.461476445   0 0 0 0 0.570764243  0 0 0 0.0998358243 0"/><feMerge><feMergeNode in="shadowMatrixOuter1"/><feMergeNode in="shadowMatrixOuter2"/></feMerge></filter><circle id="c" cx="53.5" cy="48" r="15"/><filter id="d" height="146.7%" width="146.7%" x="-23.3%" y="-16.7%"><feOffset dx="0" dy="2" in="SourceAlpha" result="shadowOffsetOuter1"/><feGaussianBlur in="shadowOffsetOuter1" result="shadowBlurOuter1" stdDeviation="2"/><feColorMatrix in="shadowBlurOuter1" type="matrix" values="0 0 0 0 0.25869511   0 0 0 0 0.461476445   0 0 0 0 0.570764243  0 0 0 0.0998358243 0"/></filter><circle id="e" cx="33" cy="48" r="15"/><filter id="f" height="146.7%" width="146.7%" x="-23.3%" y="-16.7%"><feOffset dx="0" dy="2" in="SourceAlpha" result="shadowOffsetOuter1"/><feGaussianBlur in="shadowOffsetOuter1" result="shadowBlurOuter1" stdDeviation="2"/><feColorMatrix in="shadowBlurOuter1" type="matrix" values="0 0 0 0 0.25869511   0 0 0 0 0.461476445   0 0 0 0 0.570764243  0 0 0 0.0998358243 0"/></filter><path id="g" d="m8 15.3333333h254c4.418278 0 8 3.581722 8 8v47.3333334c0 4.418278-3.581722 8-8 8h-254c-4.418278 0-8-3.581722-8-8v-47.3333334c0-4.418278 3.581722-8 8-8z"/><filter id="h" height="305.3%" width="148.1%" x="-24.1%" y="-86.8%"><feOffset dx="0" dy="10" in="SourceAlpha" result="shadowOffsetOuter1"/><feGaussianBlur in="shadowOffsetOuter1" result="shadowBlurOuter1" stdDeviation="20"/><feColorMatrix in="shadowBlurOuter1" result="shadowMatrixOuter1" type="matrix" values="0 0 0 0 0.25869511   0 0 0 0 0.461476445   0 0 0 0 0.570764243  0 0 0 0.100486866 0"/><feOffset dx="0" dy="2" in="SourceAlpha" result="shadowOffsetOuter2"/><feGaussianBlur in="shadowOffsetOuter2" result="shadowBlurOuter2" stdDeviation="2"/><feColorMatrix in="shadowBlurOuter2" result="shadowMatrixOuter2" type="matrix" values="0 0 0 0 0.25869511   0 0 0 0 0.461476445   0 0 0 0 0.570764243  0 0 0 0.0998358243 0"/><feMerge><feMergeNode in="shadowMatrixOuter1"/><feMergeNode in="shadowMatrixOuter2"/></feMerge></filter><circle id="i" cx="52.5" cy="47" r="15"/><filter id="j" height="146.7%" width="146.7%" x="-23.3%" y="-16.7%"><feOffset dx="0" dy="2" in="SourceAlpha" result="shadowOffsetOuter1"/><feGaussianBlur in="shadowOffsetOuter1" result="shadowBlurOuter1" stdDeviation="2"/><feColorMatrix in="shadowBlurOuter1" type="matrix" values="0 0 0 0 0.25869511   0 0 0 0 0.461476445   0 0 0 0 0.570764243  0 0 0 0.0998358243 0"/></filter><circle id="k" cx="32" cy="47" r="15"/><filter id="l" height="146.7%" width="146.7%" x="-23.3%" y="-16.7%"><feOffset dx="0" dy="2" in="SourceAlpha" result="shadowOffsetOuter1"/><feGaussianBlur in="shadowOffsetOuter1" result="shadowBlurOuter1" stdDeviation="2"/><feColorMatrix in="shadowBlurOuter1" type="matrix" values="0 0 0 0 0.25869511   0 0 0 0 0.461476445   0 0 0 0 0.570764243  0 0 0 0.0998358243 0"/></filter><path id="m" d="m9 16.3333333h254c4.418278 0 8 3.581722 8 8v47.3333334c0 4.418278-3.581722 8-8 8h-254c-4.418278 0-8-3.581722-8-8v-47.3333334c0-4.418278 3.581722-8 8-8z"/><filter id="n" height="147.4%" width="111.1%" x="-5.6%" y="-23.7%"><feOffset dx="0" dy="0" in="SourceAlpha" result="shadowOffsetOuter1"/><feGaussianBlur in="shadowOffsetOuter1" result="shadowBlurOuter1" stdDeviation="5"/><feColorMatrix in="shadowBlurOuter1" result="shadowMatrixOuter1" type="matrix" values="0 0 0 0 0.25869511   0 0 0 0 0.461476445   0 0 0 0 0.570764243  0 0 0 0.07 0"/><feOffset dx="0" dy="2" in="SourceAlpha" result="shadowOffsetOuter2"/><feGaussianBlur in="shadowOffsetOuter2" result="shadowBlurOuter2" stdDeviation="2"/><feColorMatrix in="shadowBlurOuter2" result="shadowMatrixOuter2" type="matrix" values="0 0 0 0 0.25869511   0 0 0 0 0.461476445   0 0 0 0 0.570764243  0 0 0 0.0998358243 0"/><feMerge><feMergeNode in="shadowMatrixOuter1"/><feMergeNode in="shadowMatrixOuter2"/></feMerge></filter><circle id="o" cx="53.5" cy="48" r="15"/><filter id="p" height="146.7%" width="146.7%" x="-23.3%" y="-16.7%"><feOffset dx="0" dy="2" in="SourceAlpha" result="shadowOffsetOuter1"/><feGaussianBlur in="shadowOffsetOuter1" result="shadowBlurOuter1" stdDeviation="2"/><feColorMatrix in="shadowBlurOuter1" type="matrix" values="0 0 0 0 0.25869511   0 0 0 0 0.461476445   0 0 0 0 0.570764243  0 0 0 0.0998358243 0"/></filter><circle id="q" cx="33" cy="48" r="15"/><filter id="r" height="146.7%" width="146.7%" x="-23.3%" y="-16.7%"><feOffset dx="0" dy="2" in="SourceAlpha" result="shadowOffsetOuter1"/><feGaussianBlur in="shadowOffsetOuter1" result="shadowBlurOuter1" stdDeviation="2"/><feColorMatrix in="shadowBlurOuter1" type="matrix" values="0 0 0 0 0.25869511   0 0 0 0 0.461476445   0 0 0 0 0.570764243  0 0 0 0.0998358243 0"/></filter><mask id="s" fill="#fff"><path d="m7.49639419.49067308-3.38019231 5.52461538c-.37254808.59971154.06360577 1.38115385.77235577 1.38115385h6.75129805c.70875 0 1.1449039-.78144231.7723558-1.38115385l-3.37110577-5.52461538c-.354375-.58153846-1.19033654-.58153846-1.54471154 0zm5.76995191 8.72307692c-1.4608384 0-2.8107088.77934796-3.54112797 2.0444711-.73041922 1.2651232-.73041922 2.8238192 0 4.0889424.73041917 1.2651232 2.08028957 2.0444711 3.54112797 2.0444711s2.8107088-.7793479 3.541128-2.0444711.7304192-2.8238192 0-4.0889424c-.7304192-1.26512314-2.0802896-2.0444711-3.541128-2.0444711zm-12.26682691 7.7235577h5.45192307c.49975962 0 .90865385-.4088942.90865385-.9086539v-5.451923c0-.4997596-.40889423-.90865388-.90865385-.90865388h-5.45192307c-.49975962 0-.90865385.40889428-.90865385.90865388v5.451923c0 .4997597.40889423.9086539.90865385.9086539z" fill="#fff" fill-rule="evenodd"/></mask><mask id="t" fill="#fff"><path d="m0 .15963243h15.6775135v17.67818917h-15.6775135z" fill="#fff" fill-rule="evenodd"/></mask><mask id="u" fill="#fff"><path d="m9.89188608 1.59766201v.01781674c0 .59686086.40087672 1.09572964.96210402 1.27389706 2.5388858.79284502 4.3829186 3.15356335 4.3829186 5.95079185 0 .4632353-.0534502.89974548-.1514423 1.32734724-.1247172.5701358.1069004 1.1580883.6146776 1.4609729l.0089084.0089084c.7661199.4454185 1.7638574.0445418 1.96875-.8106618.1514423-.6414027.2316176-1.30953054.2316176-1.98656674 0-4.00876696-2.6546946-7.4117647-6.3071267-8.52531108-.8462952-.25834276-1.71040722.39196832-1.71040722 1.28280543zm-1.83512444 13.40709839c-2.66360294-.3830599-4.8283371-2.5477941-5.22030543-5.20248866-.48105203-3.20701358 1.4787896-6.0309672 4.30274322-6.91289593.57013574-.16925905.97101244-.6770362.97101244-1.27389706v-.01781674c0-.89083711-.86411199-1.54114819-1.71931561-1.28280543-4.01767534 1.2293552-6.82381222 5.22030543-6.21804299 9.76357462.52559389 3.9018666 3.67915724 7.0554299 7.58102376 7.5810238 2.79722847.3741516 5.38065607-.5434106 7.24250567-2.2538179.6592194-.6057692.5434106-1.6836821-.2316177-2.1291007-.5166855-.3028846-1.1580882-.2048925-1.6035068.1959842-1.3095305 1.1937217-3.1268382 1.8262161-5.10449656 1.5322398z" fill="#fff" fill-rule="evenodd"/></mask><mask id="v" fill="#fff"><path d="m16.1266968 0h-14.25339363c-.97992082 0-1.77276584.80175339-1.77276584 1.78167421l-.00890837 10.69004529c0 .9799208.80175339 1.7816742 1.78167421 1.7816742h14.25339363c.9799208 0 1.7816742-.8017534 1.7816742-1.7816742v-10.69004529c0-.97992082-.8017534-1.78167421-1.7816742-1.78167421zm-14.25339363 4.45418552h9.35378963v3.11792986h-9.35378963zm0 4.89960407h9.35378963v3.11792991h-8.46295253c-.48996041 0-.8908371-.4008767-.8908371-.8908371zm13.36255653 3.11792991h-2.2270927v-8.01753398h3.1179298v7.12669688c0 .4899604-.4008767.8908371-.8908371.8908371z" fill="#fff" fill-rule="evenodd"/></mask></defs><g fill="none" fill-rule="evenodd"><rect fill="#4e82ee" fill-opacity=".041193" height="251" rx="21" width="310" x="22.255682" y=".4"/><g transform="translate(39 17)"><use fill="#000" filter="url(#b)" xlink:href="#a"/><use fill="#fff" fill-rule="evenodd" xlink:href="#a"/><use fill="#000" filter="url(#d)" xlink:href="#c"/><use fill="#fff" fill-rule="evenodd" xlink:href="#c"/><g fill="#000" fill-opacity=".87" mask="url(#s)" transform="translate(44.5 39)"><path d="m0 0h21.807692v21.807692h-21.807692z" transform="translate(-3.180769 -2.180769)"/></g><rect fill="#dbe8fb" height="8" rx="4" width="50" x="130.997819" y="43.7"/><rect fill="#dbe8fb" height="8" rx="4" width="30" x="221.866667" y="43.7"/><g stroke="#7a68e8" stroke-width="1.8" transform="matrix(0 1 -1 0 212.497819 45.5)"><path d="m2.7.475896v12.292683" stroke-linecap="round" stroke-linejoin="round"/><ellipse cx="2.7" cy="6.622237" fill="#fff" rx="2.25" ry="2.195122"/></g><g stroke="#7a68e8" transform="translate(115.497819 41.45)"><path d="m1.35 1.792969v8.684665" stroke-linecap="round" stroke-linejoin="round" stroke-width="1.8"/><path d="m1.35 7.46341463c4.20131836-.0637715 6.30197754-1.52575702 6.30197754-4.38595655" stroke-linecap="round" stroke-linejoin="round" stroke-width="1.8"/><g fill="#7a68e8" stroke-width=".9"><ellipse cx="1.35" cy="1.317073" rx="1.35" ry="1.317073"/><ellipse cx="1.35" cy="11.562119" rx="1.35" ry="1.317073"/><ellipse cx="7.651978" cy="1.317073" rx="1.35" ry="1.317073"/></g></g><use fill="#000" filter="url(#f)" xlink:href="#e"/><use fill="#fff" fill-rule="evenodd" xlink:href="#e"/><g fill="#212121"><g transform="translate(25.135135 39)"><path d="m7.83713514 17.8378216c-.2365946 0-.47237838-.0619459-.6792973-.1817838l-2.16308108-1.2797837c-.32286487-.1806487-.16508108-.2447027-.05870271-.2818379.43102703-.1495135.51810811-.184054.978-.4448108.04783784-.0269189.11140541-.0168649.16086487.0123243l1.66167567.9865946c.06016217.0332433.14513514.0332433.2005946 0l6.47837841-3.7392973c.0601621-.0343784.099081-.1037838.099081-.1752973v-7.47616213c0-.07313514-.0389189-.14156757-.1007027-.17870271l-6.47562158-3.73589189c-.05983783-.03502702-.13929729-.03502702-.19962162 0l-6.474 3.73702703c-.06291892.036-.10281081.10637838-.10281081.17756757v7.47616213c0 .0715135.03989189.1392973.10216216.1731892l1.77470271 1.0253514c.96291892.4814594 1.55237838-.0854595 1.55237838-.6552973v-7.38162165c0-.10410811.084-.18648649.18843243-.18648649h.82135135c.10281081 0 .18778378.08237838.18778378.18648649v7.38162165c0 1.2851351-.69989189 2.0221621-1.91821621 2.0221621-.37443244 0-.66924325 0-1.49221622-.4055675l-1.69881081-.978c-.41967568-.2425946-.67945946-.6961622-.67945946-1.1818379v-7.47616213c0-.48583784.25978378-.93924325.67945946-1.18070271l6.47837838-3.74351351c.40978378-.23189189.95481081-.23189189 1.36135135 0l6.47789191 3.74351351c.4195135.2425946.6805946.69486487.6805946 1.18070271v7.47616213c0 .4856757-.2610811.9376217-.6805946 1.1818379l-6.47789191 3.7402702c-.20708108.1198379-.44205405.1817838-.68205405.1817838" mask="url(#t)" transform="translate(0 .002595)"/><path d="m9.8382 12.6897081c-2.83475676 0-3.42875676-1.3011892-3.42875676-2.3927027 0-.1039459.08351352-.1866486.1872973-.1866486h.83756757c.09356757 0 .17156757.0672973.18616216.1585946.12632432.8526486.50335135 1.283027 2.21772973 1.283027 1.3649189 0 1.9457838-.3087568 1.9457838-1.0328108 0-.4174054-.1647568-.72729733-2.28567569-.9348649-1.77243243-.17529729-2.86881081-.56708108-2.86881081-1.98518919 0-1.30702702 1.10172973-2.08654054 2.94891892-2.08654054 2.07535138 0 3.10232428.72032433 3.23254058 2.26572973.0047027.05335135-.0141082.10443244-.0496217.14432433-.0353513.03697297-.0848108.05967567-.137027.05967567h-.8408108c-.0872432 0-.1642703-.06194594-.1819459-.14643243-.2015676-.89724324-.6922703-1.18394595-2.02313518-1.18394595-1.49010811 0-1.6632973.51924325-1.6632973.90794595 0 .47124324.20448649.60843243 2.21643248.87486487 1.9908648.26302702 2.9364324.63583783 2.9364324 2.03497296 0 1.4116216-1.176973 2.22-3.2297838 2.22"/></g><path d="m4.528 9.06c.288.016.51-.026.666-.126s.234-.246.234-.438c0-.336-.2-.516-.6-.54l-.324-.024c-.544-.04-.816-.356-.816-.948v-2.724h1.02c.216 0 .382-.048.498-.144s.174-.236.174-.42-.058-.324-.174-.42-.282-.144-.498-.144h-1.02v-1.104c0-.216-.068-.388-.204-.516s-.316-.192-.54-.192c-.232 0-.416.064-.552.192s-.204.3-.204.516v1.104h-.6c-.216 0-.382.048-.498.144s-.174.236-.174.42.058.324.174.42.282.144.498.144h.6v2.616c0 1.344.672 2.064 2.016 2.16zm4.356.036c.6 0 1.126-.124 1.578-.372s.8-.604 1.044-1.068.366-1.004.366-1.62-.122-1.154-.366-1.614-.592-.814-1.044-1.062-.978-.372-1.578-.372-1.126.124-1.578.372-.802.602-1.05 1.062-.372.998-.372 1.614.124 1.156.372 1.62.598.82 1.05 1.068.978.372 1.578.372zm-.012-1.164c-.48 0-.848-.16-1.104-.48s-.384-.792-.384-1.416c0-.616.13-1.086.39-1.41s.63-.486 1.11-.486.848.162 1.104.486.384.794.384 1.41c0 .624-.128 1.096-.384 1.416s-.628.48-1.116.48zm6.516 1.164c.424 0 .802-.092 1.134-.276s.586-.44.762-.768v.3c0 .216.068.388.204.516s.316.192.54.192.404-.064.54-.192.204-.3.204-.516v-7.176c0-.208-.072-.376-.216-.504s-.328-.192-.552-.192-.402.062-.534.186-.198.286-.198.486v2.844c-.176-.32-.428-.568-.756-.744s-.704-.264-1.128-.264c-.512 0-.964.124-1.356.372s-.698.6-.918 1.056-.33.988-.33 1.596.11 1.146.33 1.614.528.83.924 1.086.846.384 1.35.384zm.396-1.164c-.472 0-.84-.168-1.104-.504s-.396-.808-.396-1.416c0-.6.132-1.06.396-1.38s.636-.48 1.116-.48c.472 0 .838.162 1.098.486s.39.79.39 1.398-.13 1.076-.39 1.404-.63.492-1.11.492zm7.212 1.164c.6 0 1.126-.124 1.578-.372s.8-.604 1.044-1.068.366-1.004.366-1.62-.122-1.154-.366-1.614-.592-.814-1.044-1.062-.978-.372-1.578-.372-1.126.124-1.578.372-.802.602-1.05 1.062-.372.998-.372 1.614.124 1.156.372 1.62.598.82 1.05 1.068.978.372 1.578.372zm-.012-1.164c-.48 0-.848-.16-1.104-.48s-.384-.792-.384-1.416c0-.616.13-1.086.39-1.41s.63-.486 1.11-.486.848.162 1.104.486.384.794.384 1.41c0 .624-.128 1.096-.384 1.416s-.628.48-1.116.48zm4.98 1.14c.216 0 .396-.062.54-.186s.216-.302.216-.534v-7.164c0-.232-.072-.408-.216-.528s-.324-.18-.54-.18-.394.06-.534.18-.21.296-.21.528v7.164c0 .232.07.41.21.534s.318.186.534.186zm3.048-7.128c.272 0 .488-.074.648-.222s.24-.342.24-.582-.082-.432-.246-.576-.378-.216-.642-.216c-.272 0-.488.072-.648.216s-.24.336-.24.576.08.434.24.582.376.222.648.222zm0 7.128c.216 0 .396-.062.54-.186s.216-.302.216-.534v-4.632c0-.232-.072-.408-.216-.528s-.324-.18-.54-.18-.394.06-.534.18-.21.296-.21.528v4.632c0 .232.07.41.21.534s.318.186.534.186zm4.428.024c.752 0 1.354-.164 1.806-.492s.678-.764.678-1.308c0-.336-.066-.612-.198-.828s-.35-.396-.654-.54-.724-.272-1.26-.384c-.504-.104-.844-.208-1.02-.312s-.264-.256-.264-.456c0-.208.086-.372.258-.492s.406-.18.702-.18c.248 0 .456.03.624.09s.368.15.6.27c.128.072.234.126.318.162s.17.054.258.054c.128 0 .236-.054.324-.162s.132-.242.132-.402c0-.264-.128-.476-.384-.636-.248-.16-.528-.282-.84-.366s-.636-.126-.972-.126c-.464 0-.878.078-1.242.234s-.65.376-.858.66-.312.602-.312.954c0 .464.154.828.462 1.092s.818.468 1.53.612c.4.088.698.166.894.234s.332.142.408.222.114.188.114.324c0 .2-.094.356-.282.468s-.45.168-.786.168c-.328 0-.598-.032-.81-.096s-.446-.156-.702-.276c-.24-.128-.428-.192-.564-.192-.128 0-.236.05-.324.15s-.132.23-.132.39c0 .28.128.496.384.648.536.344 1.24.516 2.112.516zm6.444-.036c.288.016.51-.026.666-.126s.234-.246.234-.438c0-.336-.2-.516-.6-.54l-.324-.024c-.544-.04-.816-.356-.816-.948v-2.724h1.02c.216 0 .382-.048.498-.144s.174-.236.174-.42-.058-.324-.174-.42-.282-.144-.498-.144h-1.02v-1.104c0-.216-.068-.388-.204-.516s-.316-.192-.54-.192c-.232 0-.416.064-.552.192s-.204.3-.204.516v1.104h-.6c-.216 0-.382.048-.498.144s-.174.236-.174.42.058.324.174.42.282.144.498.144h.6v2.616c0 1.344.672 2.064 2.016 2.16zm6.804.036c.384 0 .722-.088 1.014-.264s.506-.42.642-.732v.264c0 .208.066.376.198.504s.302.192.51.192c.224 0 .4-.062.528-.186s.192-.294.192-.51v-2.928c0-.824-.198-1.438-.594-1.842s-1.002-.606-1.818-.606c-.376 0-.758.044-1.146.132s-.722.208-1.002.36c-.16.088-.274.182-.342.282s-.102.218-.102.354c0 .168.046.304.138.408s.21.156.354.156c.096 0 .248-.052.456-.156.328-.128.612-.226.852-.294s.476-.102.708-.102c.376 0 .648.09.816.27s.252.466.252.858v.276h-.3c-.872 0-1.556.056-2.052.168s-.854.292-1.074.54-.33.588-.33 1.02c0 .344.092.656.276.936s.436.5.756.66.676.24 1.068.24zm.3-1.08c-.264 0-.486-.082-.666-.246s-.27-.374-.27-.63c0-.208.064-.372.192-.492s.34-.204.636-.252.712-.072 1.248-.072h.216v.252c0 .424-.126.77-.378 1.038s-.578.402-.978.402zm5.064 3.204c.224 0 .404-.06.54-.18s.204-.284.204-.492v-2.448c.176.312.428.556.756.732s.7.264 1.116.264c.512 0 .964-.124 1.356-.372s.698-.6.918-1.056.33-.988.33-1.596-.11-1.146-.33-1.614-.528-.83-.924-1.086-.846-.384-1.35-.384c-.424 0-.802.09-1.134.27s-.586.434-.762.762v-.3c0-.216-.068-.388-.204-.516s-.316-.192-.54-.192-.402.064-.534.192-.198.3-.198.516v6.804c0 .208.07.376.21.504s.322.192.546.192zm2.22-3.288c-.48 0-.85-.164-1.11-.492s-.39-.792-.39-1.392c0-.608.13-1.076.39-1.404s.63-.492 1.11-.492c.472 0 .84.168 1.104.504s.396.808.396 1.416c0 .592-.132 1.05-.396 1.374s-.632.486-1.104.486zm4.98-5.988c.272 0 .488-.074.648-.222s.24-.342.24-.582-.082-.432-.246-.576-.378-.216-.642-.216c-.272 0-.488.072-.648.216s-.24.336-.24.576.08.434.24.582.376.222.648.222zm0 7.128c.216 0 .396-.062.54-.186s.216-.302.216-.534v-4.632c0-.232-.072-.408-.216-.528s-.324-.18-.54-.18-.394.06-.534.18-.21.296-.21.528v4.632c0 .232.07.41.21.534s.318.186.534.186z" fill-rule="nonzero"/></g></g><g transform="translate(40 112)"><use fill="#000" filter="url(#h)" xlink:href="#g"/><use fill="#fff" fill-rule="evenodd" xlink:href="#g"/><use fill="#000" filter="url(#j)" xlink:href="#i"/><use fill="#fff" fill-rule="evenodd" xlink:href="#i"/><g fill="#000" fill-opacity=".87" mask="url(#u)" transform="translate(43.5 38)"><path d="m0 0h21.380091v21.380091h-21.380091z" transform="translate(-1.690045 -1.690045)"/></g><use fill="#000" filter="url(#l)" xlink:href="#k"/><use fill="#fff" fill-rule="evenodd" xlink:href="#k"/><g fill-rule="nonzero" transform="translate(27.5 38)"><path d="m4.489875 14.614875c.012-.006375.019875-.0105.019875-.0105 0-.00225-.000375-.0045-.000375-.00675-.00675.006-.01275.01125-.0195.01725z" fill="#083a45"/><g fill="#212121"><g><path d="m8.534625 6.891c-.913125-4.0245-3.814875-6.843375-3.814875-6.843375v.006c1.11075 4.713.225 15.427875.225 15.427875s4.539375-3.051375 3.589875-8.5905z"/><path d="m4.16325.053625c-.005625-.023625-.012375-.042-.017625-.053625-.027.355125-3.584625 3.51075-3.8025 8.08275-.219 4.572 4.0455 7.39875 4.0455 7.39875s.885375-10.7145-.225375-15.427875z"/></g><path d="m4.72425 16.038s-.276375-.184125-.683625-.531375c0 0-.001125-.000375-.001125-.000375.63975.926625.336 2.49375.336 2.49375h.6s-.109125-1.299375.02325-1.894125c.040125-.18.292125-.481875.400875-.614625-.39975.361125-.675375.54675-.675375.54675z"/></g></g><rect fill="#dbe8fb" height="8" rx="4" width="50" x="129.997819" y="42.7"/><rect fill="#dbe8fb" height="8" rx="4" width="30" x="220.866667" y="42.7"/><g stroke="#7a68e8" stroke-width="1.8" transform="matrix(0 1 -1 0 211.497819 44.5)"><path d="m2.7.475896v12.292683" stroke-linecap="round" stroke-linejoin="round"/><ellipse cx="2.7" cy="6.622237" fill="#fff" rx="2.25" ry="2.195122"/></g><g stroke="#7a68e8" transform="translate(114.497819 40.45)"><path d="m1.35 1.792969v8.684665" stroke-linecap="round" stroke-linejoin="round" stroke-width="1.8"/><path d="m1.35 7.46341463c4.20131836-.0637715 6.30197754-1.52575702 6.30197754-4.38595655" stroke-linecap="round" stroke-linejoin="round" stroke-width="1.8"/><g fill="#7a68e8" stroke-width=".9"><ellipse cx="1.35" cy="1.317073" rx="1.35" ry="1.317073"/><ellipse cx="1.35" cy="11.562119" rx="1.35" ry="1.317073"/><ellipse cx="7.651978" cy="1.317073" rx="1.35" ry="1.317073"/></g></g><path d="m8.976 9.072c.224 0 .406-.062.546-.186s.21-.302.21-.534v-2.952c0-.848-.17-1.462-.51-1.842s-.83-.57-1.47-.57c-.432 0-.82.1-1.164.3s-.604.468-.78.804c-.296-.736-.884-1.104-1.764-1.104-.4 0-.754.084-1.062.252s-.554.412-.738.732v-.288c0-.216-.066-.382-.198-.498s-.302-.174-.51-.174c-.216 0-.396.06-.54.18s-.216.292-.216.516v4.644c0 .232.07.41.21.534s.318.186.534.186.396-.062.54-.186.216-.302.216-.534v-2.676c0-.464.114-.83.342-1.098s.538-.402.93-.402c.32 0 .558.094.714.282s.234.502.234.942v2.952c0 .232.072.41.216.534s.324.186.54.186.394-.062.534-.186.21-.302.21-.534v-2.676c0-.464.116-.83.348-1.098s.544-.402.936-.402c.32 0 .558.094.714.282s.234.502.234.942v2.952c0 .232.07.41.21.534s.318.186.534.186zm4.956.024c.6 0 1.126-.124 1.578-.372s.8-.604 1.044-1.068.366-1.004.366-1.62-.122-1.154-.366-1.614-.592-.814-1.044-1.062-.978-.372-1.578-.372-1.126.124-1.578.372-.802.602-1.05 1.062-.372.998-.372 1.614.124 1.156.372 1.62.598.82 1.05 1.068.978.372 1.578.372zm-.012-1.164c-.48 0-.848-.16-1.104-.48s-.384-.792-.384-1.416c0-.616.13-1.086.39-1.41s.63-.486 1.11-.486.848.162 1.104.486.384.794.384 1.41c0 .624-.128 1.096-.384 1.416s-.628.48-1.116.48zm8.988 1.14c.232 0 .414-.064.546-.192s.198-.304.198-.528v-2.952c0-.808-.172-1.412-.516-1.812s-.868-.6-1.572-.6c-.424 0-.804.088-1.14.264s-.604.428-.804.756v-.324c0-.2-.066-.362-.198-.486s-.302-.186-.51-.186c-.232 0-.416.064-.552.192s-.204.296-.204.504v4.644c0 .224.066.4.198.528s.314.192.546.192.416-.064.552-.192.204-.304.204-.528v-2.676c0-.456.13-.82.39-1.092s.606-.408 1.038-.408c.368 0 .638.104.81.312s.258.54.258.996v2.868c0 .224.068.4.204.528s.32.192.552.192zm4.944 2.184c1 0 1.756-.236 2.268-.708s.768-1.168.768-2.088v-4.74c0-.216-.068-.388-.204-.516s-.316-.192-.54-.192-.404.064-.54.192-.204.296-.204.504v.312c-.176-.328-.432-.582-.768-.762s-.72-.27-1.152-.27c-.512 0-.968.122-1.368.366s-.71.588-.93 1.032-.33.954-.33 1.53.112 1.084.336 1.524.534.782.93 1.026.85.366 1.362.366c.432 0 .816-.09 1.152-.27s.592-.434.768-.762v.768c0 1.024-.524 1.536-1.572 1.536-.296 0-.558-.032-.786-.096s-.486-.156-.774-.276c-.112-.048-.22-.09-.324-.126s-.192-.054-.264-.054c-.136 0-.246.052-.33.156s-.126.244-.126.42c0 .248.148.46.444.636.584.328 1.312.492 2.184.492zm.024-3.588c-.472 0-.844-.156-1.116-.468s-.408-.74-.408-1.284c0-.552.136-.984.408-1.296s.644-.468 1.116-.468c.48 0 .854.156 1.122.468s.402.744.402 1.296c0 .544-.134.972-.402 1.284s-.642.468-1.122.468zm7.236 1.428c.6 0 1.126-.124 1.578-.372s.8-.604 1.044-1.068.366-1.004.366-1.62-.122-1.154-.366-1.614-.592-.814-1.044-1.062-.978-.372-1.578-.372-1.126.124-1.578.372-.802.602-1.05 1.062-.372.998-.372 1.614.124 1.156.372 1.62.598.82 1.05 1.068.978.372 1.578.372zm-.012-1.164c-.48 0-.848-.16-1.104-.48s-.384-.792-.384-1.416c0-.616.13-1.086.39-1.41s.63-.486 1.11-.486.848.162 1.104.486.384.794.384 1.41c0 .624-.128 1.096-.384 1.416s-.628.48-1.116.48zm6.516 1.164c.424 0 .802-.092 1.134-.276s.586-.44.762-.768v.3c0 .216.068.388.204.516s.316.192.54.192.404-.064.54-.192.204-.3.204-.516v-7.176c0-.208-.072-.376-.216-.504s-.328-.192-.552-.192-.402.062-.534.186-.198.286-.198.486v2.844c-.176-.32-.428-.568-.756-.744s-.704-.264-1.128-.264c-.512 0-.964.124-1.356.372s-.698.6-.918 1.056-.33.988-.33 1.596.11 1.146.33 1.614.528.83.924 1.086.846.384 1.35.384zm.396-1.164c-.472 0-.84-.168-1.104-.504s-.396-.808-.396-1.416c0-.6.132-1.06.396-1.38s.636-.48 1.116-.48c.472 0 .838.162 1.098.486s.39.79.39 1.398-.13 1.076-.39 1.404-.63.492-1.11.492zm7.908 1.164c.504 0 .954-.128 1.35-.384s.704-.618.924-1.086.33-1.006.33-1.614-.11-1.14-.33-1.596-.526-.808-.918-1.056-.844-.372-1.356-.372c-.416 0-.788.086-1.116.258s-.58.418-.756.738v-2.832c0-.208-.068-.372-.204-.492s-.316-.18-.54-.18-.406.064-.546.192-.21.296-.21.504v7.176c0 .216.066.388.198.516s.31.192.534.192.404-.064.54-.192.204-.3.204-.516v-.3c.176.328.43.584.762.768s.71.276 1.134.276zm-.396-1.164c-.48 0-.85-.164-1.11-.492s-.39-.796-.39-1.404.13-1.074.39-1.398.63-.486 1.11-.486.85.16 1.11.48.39.78.39 1.38c0 .608-.132 1.08-.396 1.416s-.632.504-1.104.504z" fill="#212121" fill-rule="nonzero"/></g><g transform="translate(39 206)"><path d="m4.528 9.06c.288.016.51-.026.666-.126s.234-.246.234-.438c0-.336-.2-.516-.6-.54l-.324-.024c-.544-.04-.816-.356-.816-.948v-2.724h1.02c.216 0 .382-.048.498-.144s.174-.236.174-.42-.058-.324-.174-.42-.282-.144-.498-.144h-1.02v-1.104c0-.216-.068-.388-.204-.516s-.316-.192-.54-.192c-.232 0-.416.064-.552.192s-.204.3-.204.516v1.104h-.6c-.216 0-.382.048-.498.144s-.174.236-.174.42.058.324.174.42.282.144.498.144h.6v2.616c0 1.344.672 2.064 2.016 2.16zm4.356.036c.6 0 1.126-.124 1.578-.372s.8-.604 1.044-1.068.366-1.004.366-1.62-.122-1.154-.366-1.614-.592-.814-1.044-1.062-.978-.372-1.578-.372-1.126.124-1.578.372-.802.602-1.05 1.062-.372.998-.372 1.614.124 1.156.372 1.62.598.82 1.05 1.068.978.372 1.578.372zm-.012-1.164c-.48 0-.848-.16-1.104-.48s-.384-.792-.384-1.416c0-.616.13-1.086.39-1.41s.63-.486 1.11-.486.848.162 1.104.486.384.794.384 1.41c0 .624-.128 1.096-.384 1.416s-.628.48-1.116.48zm6.516 1.164c.424 0 .802-.092 1.134-.276s.586-.44.762-.768v.3c0 .216.068.388.204.516s.316.192.54.192.404-.064.54-.192.204-.3.204-.516v-7.176c0-.208-.072-.376-.216-.504s-.328-.192-.552-.192-.402.062-.534.186-.198.286-.198.486v2.844c-.176-.32-.428-.568-.756-.744s-.704-.264-1.128-.264c-.512 0-.964.124-1.356.372s-.698.6-.918 1.056-.33.988-.33 1.596.11 1.146.33 1.614.528.83.924 1.086.846.384 1.35.384zm.396-1.164c-.472 0-.84-.168-1.104-.504s-.396-.808-.396-1.416c0-.6.132-1.06.396-1.38s.636-.48 1.116-.48c.472 0 .838.162 1.098.486s.39.79.39 1.398-.13 1.076-.39 1.404-.63.492-1.11.492zm7.212 1.164c.6 0 1.126-.124 1.578-.372s.8-.604 1.044-1.068.366-1.004.366-1.62-.122-1.154-.366-1.614-.592-.814-1.044-1.062-.978-.372-1.578-.372-1.126.124-1.578.372-.802.602-1.05 1.062-.372.998-.372 1.614.124 1.156.372 1.62.598.82 1.05 1.068.978.372 1.578.372zm-.012-1.164c-.48 0-.848-.16-1.104-.48s-.384-.792-.384-1.416c0-.616.13-1.086.39-1.41s.63-.486 1.11-.486.848.162 1.104.486.384.794.384 1.41c0 .624-.128 1.096-.384 1.416s-.628.48-1.116.48zm4.98 1.14c.216 0 .396-.062.54-.186s.216-.302.216-.534v-7.164c0-.232-.072-.408-.216-.528s-.324-.18-.54-.18-.394.06-.534.18-.21.296-.21.528v7.164c0 .232.07.41.21.534s.318.186.534.186zm3.048-7.128c.272 0 .488-.074.648-.222s.24-.342.24-.582-.082-.432-.246-.576-.378-.216-.642-.216c-.272 0-.488.072-.648.216s-.24.336-.24.576.08.434.24.582.376.222.648.222zm0 7.128c.216 0 .396-.062.54-.186s.216-.302.216-.534v-4.632c0-.232-.072-.408-.216-.528s-.324-.18-.54-.18-.394.06-.534.18-.21.296-.21.528v4.632c0 .232.07.41.21.534s.318.186.534.186zm4.428.024c.752 0 1.354-.164 1.806-.492s.678-.764.678-1.308c0-.336-.066-.612-.198-.828s-.35-.396-.654-.54-.724-.272-1.26-.384c-.504-.104-.844-.208-1.02-.312s-.264-.256-.264-.456c0-.208.086-.372.258-.492s.406-.18.702-.18c.248 0 .456.03.624.09s.368.15.6.27c.128.072.234.126.318.162s.17.054.258.054c.128 0 .236-.054.324-.162s.132-.242.132-.402c0-.264-.128-.476-.384-.636-.248-.16-.528-.282-.84-.366s-.636-.126-.972-.126c-.464 0-.878.078-1.242.234s-.65.376-.858.66-.312.602-.312.954c0 .464.154.828.462 1.092s.818.468 1.53.612c.4.088.698.166.894.234s.332.142.408.222.114.188.114.324c0 .2-.094.356-.282.468s-.45.168-.786.168c-.328 0-.598-.032-.81-.096s-.446-.156-.702-.276c-.24-.128-.428-.192-.564-.192-.128 0-.236.05-.324.15s-.132.23-.132.39c0 .28.128.496.384.648.536.344 1.24.516 2.112.516zm6.444-.036c.288.016.51-.026.666-.126s.234-.246.234-.438c0-.336-.2-.516-.6-.54l-.324-.024c-.544-.04-.816-.356-.816-.948v-2.724h1.02c.216 0 .382-.048.498-.144s.174-.236.174-.42-.058-.324-.174-.42-.282-.144-.498-.144h-1.02v-1.104c0-.216-.068-.388-.204-.516s-.316-.192-.54-.192c-.232 0-.416.064-.552.192s-.204.3-.204.516v1.104h-.6c-.216 0-.382.048-.498.144s-.174.236-.174.42.058.324.174.42.282.144.498.144h.6v2.616c0 1.344.672 2.064 2.016 2.16zm7.056.036c.752 0 1.354-.164 1.806-.492s.678-.764.678-1.308c0-.336-.066-.612-.198-.828s-.35-.396-.654-.54-.724-.272-1.26-.384c-.504-.104-.844-.208-1.02-.312s-.264-.256-.264-.456c0-.208.086-.372.258-.492s.406-.18.702-.18c.248 0 .456.03.624.09s.368.15.6.27c.128.072.234.126.318.162s.17.054.258.054c.128 0 .236-.054.324-.162s.132-.242.132-.402c0-.264-.128-.476-.384-.636-.248-.16-.528-.282-.84-.366s-.636-.126-.972-.126c-.464 0-.878.078-1.242.234s-.65.376-.858.66-.312.602-.312.954c0 .464.154.828.462 1.092s.818.468 1.53.612c.4.088.698.166.894.234s.332.142.408.222.114.188.114.324c0 .2-.094.356-.282.468s-.45.168-.786.168c-.328 0-.598-.032-.81-.096s-.446-.156-.702-.276c-.24-.128-.428-.192-.564-.192-.128 0-.236.05-.324.15s-.132.23-.132.39c0 .28.128.496.384.648.536.344 1.24.516 2.112.516zm4.452 2.124c.224 0 .404-.06.54-.18s.204-.284.204-.492v-2.448c.176.312.428.556.756.732s.7.264 1.116.264c.512 0 .964-.124 1.356-.372s.698-.6.918-1.056.33-.988.33-1.596-.11-1.146-.33-1.614-.528-.83-.924-1.086-.846-.384-1.35-.384c-.424 0-.802.09-1.134.27s-.586.434-.762.762v-.3c0-.216-.068-.388-.204-.516s-.316-.192-.54-.192-.402.064-.534.192-.198.3-.198.516v6.804c0 .208.07.376.21.504s.322.192.546.192zm2.22-3.288c-.48 0-.85-.164-1.11-.492s-.39-.792-.39-1.392c0-.608.13-1.076.39-1.404s.63-.492 1.11-.492c.472 0 .84.168 1.104.504s.396.808.396 1.416c0 .592-.132 1.05-.396 1.374s-.632.486-1.104.486zm6.108 1.164c.384 0 .722-.088 1.014-.264s.506-.42.642-.732v.264c0 .208.066.376.198.504s.302.192.51.192c.224 0 .4-.062.528-.186s.192-.294.192-.51v-2.928c0-.824-.198-1.438-.594-1.842s-1.002-.606-1.818-.606c-.376 0-.758.044-1.146.132s-.722.208-1.002.36c-.16.088-.274.182-.342.282s-.102.218-.102.354c0 .168.046.304.138.408s.21.156.354.156c.096 0 .248-.052.456-.156.328-.128.612-.226.852-.294s.476-.102.708-.102c.376 0 .648.09.816.27s.252.466.252.858v.276h-.3c-.872 0-1.556.056-2.052.168s-.854.292-1.074.54-.33.588-.33 1.02c0 .344.092.656.276.936s.436.5.756.66.676.24 1.068.24zm.3-1.08c-.264 0-.486-.082-.666-.246s-.27-.374-.27-.63c0-.208.064-.372.192-.492s.34-.204.636-.252.712-.072 1.248-.072h.216v.252c0 .424-.126.77-.378 1.038s-.578.402-.978.402z" fill="#212121" fill-rule="nonzero"/><use fill="#000" filter="url(#n)" xlink:href="#m"/><use fill="#fff" fill-rule="evenodd" xlink:href="#m"/><use fill="#000" filter="url(#p)" xlink:href="#o"/><use fill="#fff" fill-rule="evenodd" xlink:href="#o"/><g fill="#000" fill-opacity=".87" mask="url(#v)" transform="translate(44.5 40.852941)"><path d="m0 0h21.380091v21.380091h-21.380091z" transform="translate(-1.690045 -3.563348)"/></g><use fill="#000" filter="url(#r)" xlink:href="#q"/><use fill="#fff" fill-rule="evenodd" xlink:href="#q"/><g fill="#212121" fill-rule="nonzero" transform="translate(23 39)"><circle cx="9.818182" cy="8.983636" r="1.753364"/><path d="m18.6267273 7.236c-.6066818-.50604545-1.4649546-.95890909-2.4815455-1.30868182-.2037273-.07036363-.4148182-.13663636-.6320454-.19922727.036-.14604546.0687272-.29004546.0977727-.43118182.4872273-2.36495454.1411364-4.20790909-.9024546-4.81009091-.2552727-.14727272-.5567727-.22172727-.8971363-.22172727-.9793637 0-2.2205455.61077273-3.4948637 1.71940909-.1628181.14154545-.32604541.29168182-.48886359.44877273-.10881818-.10431818-.21722727-.20454546-.32522727-.30068182-1.323-1.17490909-2.66972728-1.84827273-3.6945-1.84827273-.351 0-.6615.07690909-.92331819.22827273-.51218181.29659091-.86031818.90163636-1.00636363 1.74927273-.13418182.7785-.09572727 1.74804545.11045454 2.80309091.04172728.21272727.09040909.42954545.14522728.65004545-.25077273.07118182-.49377273.14768182-.72654546.22909091-2.13381818.74413636-3.40731818 1.88018182-3.40731818 3.03954545 0 .60545455.35468182 1.22931814 1.026 1.80450004.63163636.5408181 1.51854545 1.0157727 2.56459091 1.3733181.17059091.0585.34813636.1137273.53059091.166091-.05890909.2380909-.11045455.4720909-.15381818.7007727-.42136364 2.2193182-.07363637 3.8900454.93068181 4.4693182.26427273.1525909.57968182.2299091.93763637.2299091 1.01945454 0 2.33468182-.639 3.609-1.7529546.13622727-.1190454.27286363-.2450454.4095-.3771818.17713638.1701818.35427268.3317727.53099998.4839545 1.2391364 1.0665 2.4533182 1.6535455 3.4187727 1.6535455.3481364 0 .657-.0765.918-.2278636.5240455-.3035455.886091-.9229091 1.0472728-1.7922273.1517727-.8177727.1182272-1.8229091-.0961364-2.9074091-.0339545-.1714091-.0732273-.3465-.1178182-.5248636.1243637-.0368182.2462728-.0744546.3649091-.1141364 2.2925455-.7592727 3.7161818-1.98 3.7161818-3.18477274 0-.59195454-.3493636-1.19618181-1.0096363-1.74763636zm-4.8158182-6.13186364c.1910454 0 .3518182.03681819.4778182.10963637.3043636.1755.5297727.61731818.6345 1.24445454.1219091.72859091.0752727 1.6515-.1341818 2.66931818-.0261819.12804546-.0560455.25813637-.0883637.39027273-.8165454-.18859091-1.7018182-.32809091-2.6263636-.41481818-.5408182-.7695-1.1004546-1.46822727-1.6596818-2.07122727.1509545-.14481818.3015-.2835.4520454-.41440909 1.089-.94745455 2.1898637-1.51322728 2.9442273-1.51322728zm-1.2526364 9.47700004c-.3088636.5355-.6230454 1.0427727-.9409091 1.5197727-.5829545.0417273-1.1855454.0634091-1.79959087.0634091-.61404546 0-1.20722728-.0188182-1.77586364-.0552273-.33545454-.4888636-.65822727-.9994091-.96177273-1.5234545-.30354545-.5244546-.58336363-1.05340913-.83740909-1.58072731.25486364-.53140909.53427273-1.06281818.83495455-1.58440909.30272727-.52486364.62140909-1.03131818.95113636-1.51486364.58745455-.045 1.18718182-.06831818 1.78895455-.06831818.60709087 0 1.20640907.02290909 1.79099997.0675.3248182.47945455.6418637.98509091.9466364 1.51077273.3096818.53509091.5923636 1.06077273.8468182 1.57418182-.2548637.52690909-.5371364 1.05954547-.8439546 1.59136367zm1.2972273-.62304549c.2638636.60054549.4843636 1.17899999.6594545 1.72881819-.5690454.1296818-1.183909.2344091-1.831909.3121364.202909-.3215455.4037727-.6549546.6021818-.999.2000454-.3473182.3902727-.6950455.5702727-1.04195459zm-4.00336364 4.43659089c-.39763636-.4295454-.79404545-.9045-1.18063636-1.4134091.37390909.0143182.75640909.0216818 1.14668182.0216818.40090908 0 .79731818-.009 1.18718178-.0265909-.3833181.5215909-.7690909.9961364-1.15322724 1.4183182zm-2.88040909-2.3788636c-.64513636-.0715909-1.25059091-.1689546-1.80940909-.2912727.17386364-.5600455.38781818-1.142591.63654546-1.73290914.1755.33913634.36122727.67786364.55595454 1.01454544.19922727.3444546.40540909.6815455.61690909 1.0096364zm-1.17531818-3.99886365c-.24340909-.57763637-.45245454-1.14668182-.62345454-1.69813637.56045454-.12518182 1.15854545-.22745454 1.77913636-.30518182-.20618182.32154546-.40663636.65086364-.60095455.98754546-.19431818.3375-.37922727.67663636-.55472727 1.01577273zm4.03077273-4.38545455c.38659088.41890909.77399998.88690909 1.15568178 1.395-.3841363-.018-.7731818-.02740909-1.16468178-.02740909-.38904546 0-.77481818.009-1.15609091.02659091.38045454-.50195455.77113636-.96913637 1.16509091-1.39418182zm3.45436368 3.36436364c-.1943182-.33586364-.3939546-.66354546-.5976819-.98263637.6250909.07895455 1.2256364.18409091 1.791.31336364-.1689545.54163636-.3800454 1.10863636-.6283636 1.69036364-.1775455-.33668182-.3657273-.67704546-.5649545-1.02109091zm-8.47022732-2.09127273c-.18695454-.95604546-.22418182-1.82045455-.10718182-2.49995455.10104546-.58622727.31418182-1.00022727.60013637-1.16590909.13254545-.0765.3015-.11536363.50318182-.11536363.81040909 0 1.98327272.612 3.13772727 1.63677272.09777273.08672728.19595454.17795455.29454545.27204546-.5715.61363636-1.13481818 1.31113636-1.67195454 2.06877273-.92331818.0850909-1.80654546.22213636-2.62145455.40745454-.05113636-.20495454-.09613636-.40663636-.135-.60381818zm-.9495 6.46281819c-.94663636-.3235909-1.73863636-.7441364-2.29009091-1.2166364-.4725-.40459088-.73309091-.81940906-.73309091-1.16713634 0-.86727272 1.42854546-1.75336363 2.844-2.24672727.21518182-.07527273.44140909-.14563636.67581819-.21231818.24627272.80059091.56863636 1.63554545.95645454 2.47827273-.39436364.85704545-.72122727 1.70509086-.96954545 2.51631816-.16609091-.0482727-.32768182-.0985909-.48354546-.1517727zm1.97386364 5.5210909c-.20863637 0-.38290909-.0396818-.51831818-.1178182-.75109091-.4332273-.8055-2.1133636-.52568182-3.5860909.04009091-.2115.08795454-.4287273.14359091-.6512727.79977272.1771363 1.6875.306 2.64518182.3833182.54245454.7641818 1.11068181 1.4661818 1.68586363 2.0826818-.12518182.1202727-.24954545.2352273-.3735.3436363-1.10740909.9679091-2.25 1.5455455-3.05713636 1.5455455zm9.01472728-3.9182727c.4262727 2.1534545.0143182 3.4846363-.5485909 3.8106818-.1317273.0760909-.2994546.1149545-.4978637.1149545-.3567272 0-1.350409-.1415454-2.8718181-1.4506363-.1632273-.1403182-.3276819-.2908637-.4929546-.45.5510455-.6021818 1.1037273-1.3037728 1.647-2.0908637.9507273-.0846818 1.8478637-.2229545 2.6582727-.4099091.0396819.161591.0752728.3203182.1059546.4757728zm.8063182-1.5983182c-.1071818.0355909-.2172273.0699545-.3293182.1030909-.2470909-.7834091-.5809091-1.61877273-.9949091-2.48931818.3919091-.84518182.7142727-1.67113637.9552273-2.44963637.2008636.05809091.3955909.11945455.5841818.1845.9212727.31704546 1.6879091.71836364 2.2172727 1.15977273.4569546.38127273.7085455.77318182.7085455 1.10331818-.0004091.64922728-.9830455 1.67359094-3.141 2.38827274z"/></g><rect fill="#dbe8fb" height="8" rx="4" width="50" x="130.997819" y="43.7"/><rect fill="#dbe8fb" height="8" rx="4" width="30" x="221.866667" y="43.7"/><g stroke="#7a68e8"><g stroke-width="1.8" transform="matrix(0 1 -1 0 212.497819 45.5)"><path d="m2.7.475896v12.292683" stroke-linecap="round" stroke-linejoin="round"/><ellipse cx="2.7" cy="6.622237" fill="#fff" rx="2.25" ry="2.195122"/></g><g transform="translate(115.497819 41.45)"><path d="m1.35 1.792969v8.684665" stroke-linecap="round" stroke-linejoin="round" stroke-width="1.8"/><path d="m1.35 7.46341463c4.20131836-.0637715 6.30197754-1.52575702 6.30197754-4.38595655" stroke-linecap="round" stroke-linejoin="round" stroke-width="1.8"/><g fill="#7a68e8" stroke-width=".9"><ellipse cx="1.35" cy="1.317073" rx="1.35" ry="1.317073"/><ellipse cx="1.35" cy="11.562119" rx="1.35" ry="1.317073"/><ellipse cx="7.651978" cy="1.317073" rx="1.35" ry="1.317073"/></g></g></g></g></g></svg>