<?xml version="1.0" encoding="UTF-8"?>
<svg width="41px" height="41px" viewBox="0 0 41 41" version="1.1" xmlns="http://www.w3.org/2000/svg" xmlns:xlink="http://www.w3.org/1999/xlink">
    <!-- Generator: Sketch 60.1 (88133) - https://sketch.com -->
    <title>icon-noframework-laravel</title>
    <desc>Created with Sketch.</desc>
    <g id="Home-Revamp" stroke="none" stroke-width="1" fill="none" fill-rule="evenodd">
        <g id="1---homepage-part-2" transform="translate(-1645.000000, -2678.000000)" fill="#FFFFFF">
            <g id="Techs" transform="translate(0.000000, 2488.400000)">
                <g id="icon-noframework-laravel" transform="translate(1645.310417, 190.032258)">
                    <path d="M5.0584127,0.228253968 C4.70063492,0.256190476 4.34920635,0.251746032 4.00285714,0.346666667 C3.24507937,0.554603175 2.57174603,0.886984127 1.97777778,1.39936508 C1.62857143,1.70031746 1.32380952,2.0247619 1.06507937,2.40698413 C0.665714286,2.99714286 0.393650794,3.63142857 0.257142857,4.34539683 C0.311746032,4.44095238 0.369206349,4.54126984 0.43015873,4.6431746 C0.817142857,5.29015873 1.20444444,5.93269841 1.59238095,6.57904762 L2.61206349,8.27460317 C2.92571429,8.79714286 3.23873016,9.32 3.55174603,9.84253968 L5.01460317,12.2831746 C5.34698413,12.8380952 5.67968254,13.3933333 6.01238095,13.9479365 C6.49714286,14.755873 6.9831746,15.5631746 7.46730159,16.3714286 L9.24793651,19.3463492 C9.76126984,20.2031746 10.2755556,21.0593651 10.7898413,21.9155556 L10.8584127,22.0152381 C10.9330159,22.0390476 10.992381,22.0187302 11.0539683,22.004127 C11.7314286,21.8415873 12.4088889,21.68 13.0863492,21.5180952 C14.1850794,21.2555556 15.2838095,20.9939683 16.3825397,20.7311111 L18.1034921,20.3193651 C19.2142857,20.0539683 20.3253968,19.7892063 21.4361905,19.5231746 C22.5590476,19.2546032 23.6815873,18.9847619 24.8047619,18.715873 C25.372381,18.5796825 25.94,18.444127 26.5079365,18.3085714 C27.6066667,18.0463492 28.7053968,17.7847619 29.804127,17.5231746 L33.3939683,16.668254 L33.5879365,16.615873 L33.5349206,16.5107937 L32.5552381,15.1260317 L31.587619,13.7561905 L30.5526984,12.2946032 L29.5634921,10.8936508 L28.5831746,9.50920635 L27.5711111,8.0784127 C27.2406349,7.61174603 26.9095238,7.14571429 26.5787302,6.67936508 L26.055873,5.94095238 C25.975873,5.82761905 25.9120635,5.70539683 25.8695238,5.57301587 C25.7660317,5.25206349 25.884127,5.0384127 26.0714286,4.88063492 C26.1926984,4.77809524 26.332381,4.70285714 26.4834921,4.6584127 C26.6939683,4.59650794 26.9063492,4.53714286 27.1215873,4.49650794 C27.5530159,4.41492063 27.9873016,4.34571429 28.4203175,4.27365079 L29.888254,4.03428571 C30.1977778,3.9831746 30.5069841,3.92952381 30.8165079,3.87714286 C31.2371429,3.80603175 31.6577778,3.73460317 32.0787302,3.66444444 C32.4873016,3.59587302 32.895873,3.52793651 33.3044444,3.46063492 L34.6419048,3.24190476 L35.5701587,3.08603175 C35.9231746,3.02698413 36.275873,2.96825397 36.6285714,2.91047619 C37.0685714,2.83873016 37.508254,2.76634921 37.948254,2.69746032 C38.2104762,2.65650794 38.4726984,2.64222222 38.7330159,2.71714286 C38.928254,2.77333333 39.1060317,2.8647619 39.2714286,2.9815873 L39.5003175,3.14126984 C39.5231746,3.08857143 39.4901587,3.06 39.4749206,3.02984127 C39.1447619,2.3615873 38.6946032,1.78698413 38.1225397,1.30857143 C37.5907937,0.863492063 36.9936508,0.536190476 36.3333333,0.327619048 C35.9431746,0.204126984 35.5422222,0.261587302 35.1339683,0.230793651 M17.3615873,40 C17.3419048,40 17.3244444,39.8571429 17.3022222,39.8193651 C16.8260317,39.0066667 16.3447619,38.1342857 15.8742857,37.3187302 C15.2815873,36.2907937 14.6942857,35.2596825 14.1101587,34.2266667 C13.4863492,33.1225397 12.8679365,32.0152381 12.2488889,30.9085714 C11.6603175,29.8565079 11.0736508,28.8034921 10.4873016,27.7504762 C10.1333333,27.1139683 9.7815873,26.4761905 9.42793651,25.8393651 L9.33396825,25.6936508 L9.16190476,25.727619 C8.8215873,25.8155556 8.48190476,25.904127 8.14222222,25.9936508 C7.66920635,26.1180952 7.19650794,26.2447619 6.7231746,26.368254 C5.66063492,26.6447619 4.59809524,26.9196825 3.53555556,27.1952381 C2.45492063,27.475873 1.32888889,27.7571429 0.247936508,28.0365079 C0.182222222,28.0533333 0.317460317,28.0590476 7.10542736e-15,28.0701587 L7.10542736e-15,34.7828571 C0.130793651,34.9911111 0.118412698,34.8930159 0.126666667,34.9615873 C0.151746032,35.1603175 0.192380952,35.3606349 0.227301587,35.5574603 C0.358095238,36.2907937 0.652380952,36.9622222 1.07777778,37.5736508 C1.7015873,38.4707937 2.53238095,39.1120635 3.55015873,39.5044444 C3.91365079,39.644127 4.29301587,39.7425397 4.68095238,39.7901587 L5.07492063,39.8942857" id="Shape"></path>
                    <path d="M1.26222222,24.3625397 C2.51269841,24.0650794 3.76349206,23.7679365 5.01396825,23.4711111 C5.5631746,23.3409524 6.11269841,23.212381 6.66190476,23.0815873 C6.93650794,23.0161905 7.21174603,22.9539683 7.48412698,22.8803175 C7.72666667,22.8149206 7.75650794,22.7346032 7.63174603,22.515873 C7.45142857,22.1996825 7.26793651,21.8853968 7.08539683,21.5701587 L5.47777778,18.8019048 L3.87079365,16.0333333 C3.32571429,15.0942857 2.78,14.1552381 2.23460317,13.2165079 C1.76761905,12.4133333 1.30063492,11.6101587 0.833968254,10.8069841 C0.632063492,10.4596825 0.386984127,10.1114286 0.184126984,9.76444444 C0.146349206,9.70126984 0.317460317,9.62571429 0,9.59206349 L0,24.6384127 C0,24.628254 0.143809524,24.6196825 0.192380952,24.6079365 L1.26222222,24.3625397 Z M39.7536508,35.1174603 C39.2634921,35.291746 38.7730159,35.4673016 38.2831746,35.6428571 C37.1673016,36.0428571 36.0514286,36.4428571 34.9355556,36.8431746 C34.3155556,37.0657143 33.6968254,37.2907937 33.0765079,37.512381 C31.812381,37.9634921 30.547619,38.4130159 29.2831746,38.8631746 C28.5504762,39.124127 27.8174603,39.4466667 27.0850794,39.7088889 C26.8844444,39.7809524 26.6866667,40 26.4879365,40 L34.8974603,40 L35.0784127,39.8961905 C35.292381,39.8869841 35.5028571,39.8234921 35.7130159,39.7850794 C36.5761905,39.6273016 37.3492063,39.2539683 38.0339683,38.708254 C38.56,38.2888889 38.9879365,37.7761905 39.3231746,37.1914286 C39.6679365,36.5895238 39.8726984,35.9384127 39.9711111,35.2546032 C39.9796825,35.1955556 39.9980952,35.1285714 39.9485714,35.067619 C39.8787302,35.0622222 39.8171429,35.0949206 39.7536508,35.1174603 L39.7536508,35.1174603 Z M39.0314286,23.8250794 C38.6606349,23.3177778 38.2888889,22.8114286 37.9187302,22.3038095 C37.4079365,21.6031746 36.8980952,20.9019048 36.3879365,20.2009524 C36.1806349,19.9165079 35.9704762,19.6342857 35.768254,19.3466667 C35.7073016,19.26 35.6377778,19.2368254 35.5428571,19.2625397 L35.4885714,19.2780952 C34.5495238,19.5063492 33.6101587,19.7339683 32.6707937,19.9615873 L30.987619,20.3701587 C29.8901587,20.6365079 28.792381,20.9031746 27.6949206,21.1698413 C26.6095238,21.4336508 25.524127,21.6977778 24.4384127,21.9609524 L21.0536508,22.7806349 C19.9434921,23.0501587 18.8339683,23.3206349 17.724127,23.5904762 L14.5044444,24.3720635 C13.9371429,24.5098413 13.3698413,24.6469841 12.8031746,24.7853968 C12.7196825,24.8057143 12.6298413,24.8107937 12.5409524,24.8780952 L12.6168254,25.0225397 C13.0920635,25.8434921 13.5673016,26.664127 14.0438095,27.4844444 C14.5831746,28.4133333 15.1228571,29.3419048 15.6638095,30.2698413 C16.2587302,31.2898413 16.8552381,32.3092063 17.4511111,33.3288889 C17.7936508,33.9146032 18.1339683,34.5009524 18.4793651,35.0850794 C18.8631746,35.7339683 19.248254,36.3815873 19.6390476,37.0263492 C19.7561905,37.2190476 19.8892063,37.4031746 20.0231746,37.5847619 C20.1130159,37.7060317 20.224127,37.8095238 20.3552381,37.8885714 C20.4904762,37.9701587 20.6361905,37.995873 20.7898413,37.9612698 C20.8692063,37.9431746 20.9469841,37.9171429 21.0238095,37.8904762 L21.3063492,37.7857143 C22.3339683,37.4342857 23.3612698,37.0828571 24.3892063,36.7326984 C25.1911111,36.4596825 25.9939683,36.1879365 26.7965079,35.9165079 C27.5930159,35.6463492 28.3901587,35.3774603 29.1869841,35.1085714 L31.5596825,34.3073016 C32.3685714,34.0339683 33.1771429,33.7606349 33.9857143,33.4866667 C34.9780952,33.1498413 35.9701587,32.811746 36.9631746,32.4755556 C37.9203175,32.151746 38.8784127,31.8298413 39.835873,31.5066667 C39.8946032,31.4869841 39.9593651,31.4787302 40.0079365,31.4142857 L40.0139683,31.2749206 C40.0142857,29.2892063 40.0136508,27.3031746 40.015873,25.3174603 C40.015873,25.2114286 39.987619,25.1257143 39.924127,25.0403175 C39.6231746,24.6374603 39.328254,24.2304762 39.0314286,23.8250794 L39.0314286,23.8250794 Z M38.8666667,5.11460317 C38.6438095,4.83238095 38.36,4.74285714 38.0120635,4.83365079 C37.8606349,4.87333333 37.7050794,4.8984127 37.5507937,4.92666667 C37.0447619,5.01936508 36.5380952,5.11047619 36.0320635,5.20222222 C35.2911111,5.3368254 34.5504762,5.47269841 33.8095238,5.60603175 C33.2228571,5.71142857 32.635873,5.8152381 32.0488889,5.91809524 L29.6939683,6.33015873 C29.5952381,6.34730159 29.4955556,6.36444444 29.4003175,6.39492063 C29.2615873,6.43936508 29.2215873,6.52634921 29.2850794,6.6568254 C29.3368254,6.76349206 29.4012698,6.86539683 29.4711111,6.96126984 C29.9580952,7.63238095 30.4473016,8.30190476 30.9365079,8.97174603 C31.6107937,9.8952381 32.2853968,10.8184127 32.96,11.7412698 C33.5307937,12.5222222 34.1022222,13.3031746 34.6733333,14.0838095 C35.1222222,14.6971429 35.5711111,15.3104762 36.0206349,15.9234921 L36.1092063,16.0307937 L40.0047619,15.0679365 L40.0139683,14.8660317 C40.0142857,12.164127 40.0136508,9.46222222 40.015873,6.76 C40.015873,6.64063492 39.9869841,6.5447619 39.911746,6.45015873 C39.584127,6.03650794 39.2625397,5.61809524 38.9384127,5.2015873 L38.8666667,5.11460317 L38.8666667,5.11460317 Z M39.9146032,18.2069841 C39.3253968,18.3485714 38.7339683,18.4831746 38.1304762,18.6428571 C38.1942857,18.7561905 39.8495238,20.9904762 39.9457143,21.0965079 L40.0060317,21.1298413 L40.0126984,20.9936508 L40.0130159,20.0530159 C40.0133333,19.5073016 40.0146032,18.9615873 40.0133333,18.415873 C40.0133333,18.3495238 40.0320635,18.2780952 39.9863492,18.2107937 L39.9146032,18.2069841 L39.9146032,18.2069841 Z" id="Shape"></path>
                </g>
            </g>
        </g>
    </g>
</svg>