<?xml version="1.0" encoding="UTF-8"?>
<svg width="140px" height="140px" viewBox="0 0 140 140" version="1.1" xmlns="http://www.w3.org/2000/svg" xmlns:xlink="http://www.w3.org/1999/xlink">
    <!-- Generator: Sketch 54.1 (76490) - https://sketchapp.com -->
    <title>teams-icon</title>
    <desc>Created with Sketch.</desc>
    <defs>
        <linearGradient x1="50%" y1="0%" x2="50%" y2="91.311349%" id="linearGradient-1">
            <stop stop-color="#EAF4F9" offset="0%"></stop>
            <stop stop-color="#FFFFFF" stop-opacity="0" offset="100%"></stop>
        </linearGradient>
        <linearGradient x1="50%" y1="0%" x2="50%" y2="100%" id="linearGradient-2">
            <stop stop-color="#FFFFFF" offset="0%"></stop>
            <stop stop-color="#E1F9ED" offset="100%"></stop>
        </linearGradient>
        <path d="M53.106078,14.7433628 C56.5345314,14.7433628 58.3588015,11.9036787 58.8363218,7.37168142 C59.3138421,2.8396841 56.5345314,0 53.106078,0 C49.6776245,0 46.8983138,2.8396841 47.3758342,7.37168142 C47.8533545,11.9036787 49.6776245,14.7433628 53.106078,14.7433628 Z" id="path-3"></path>
        <filter x="-60.5%" y="-33.9%" width="221.0%" height="195.0%" filterUnits="objectBoundingBox" id="filter-4">
            <feOffset dx="0" dy="2" in="SourceAlpha" result="shadowOffsetOuter1"></feOffset>
            <feGaussianBlur stdDeviation="2" in="shadowOffsetOuter1" result="shadowBlurOuter1"></feGaussianBlur>
            <feColorMatrix values="0 0 0 0 0.0470588235   0 0 0 0 0.295867967   0 0 0 0 0.364705882  0 0 0 0.101336051 0" type="matrix" in="shadowBlurOuter1"></feColorMatrix>
        </filter>
        <linearGradient x1="50%" y1="0%" x2="50%" y2="91.311349%" id="linearGradient-5">
            <stop stop-color="#EAF4F9" offset="0%"></stop>
            <stop stop-color="#FFFFFF" stop-opacity="0" offset="100%"></stop>
        </linearGradient>
        <path d="M20.5063073,40.0176991 C23.9347608,40.0176991 25.7590308,37.178015 26.2365512,32.6460177 C26.7140715,28.1140204 23.9347608,25.2743363 20.5063073,25.2743363 C17.0778539,25.2743363 14.2985432,28.1140204 14.7760635,32.6460177 C15.2535838,37.178015 17.0778539,40.0176991 20.5063073,40.0176991 Z" id="path-6"></path>
        <filter x="-60.5%" y="-33.9%" width="221.0%" height="195.0%" filterUnits="objectBoundingBox" id="filter-7">
            <feOffset dx="0" dy="2" in="SourceAlpha" result="shadowOffsetOuter1"></feOffset>
            <feGaussianBlur stdDeviation="2" in="shadowOffsetOuter1" result="shadowBlurOuter1"></feGaussianBlur>
            <feColorMatrix values="0 0 0 0 0.0470588235   0 0 0 0 0.295867967   0 0 0 0 0.364705882  0 0 0 0.101336051 0" type="matrix" in="shadowBlurOuter1"></feColorMatrix>
        </filter>
        <linearGradient x1="50%" y1="0%" x2="50%" y2="91.311349%" id="linearGradient-8">
            <stop stop-color="#EAF4F9" offset="0%"></stop>
            <stop stop-color="#FFFFFF" stop-opacity="0" offset="100%"></stop>
        </linearGradient>
        <path d="M84.6542431,40.0176991 C88.0826966,40.0176991 89.9069666,37.178015 90.3844869,32.6460177 C90.8620073,28.1140204 88.0826966,25.2743363 84.6542431,25.2743363 C81.2257897,25.2743363 78.446479,28.1140204 78.9239993,32.6460177 C79.4015196,37.178015 81.2257897,40.0176991 84.6542431,40.0176991 Z" id="path-9"></path>
        <filter x="-60.5%" y="-33.9%" width="221.0%" height="195.0%" filterUnits="objectBoundingBox" id="filter-10">
            <feOffset dx="0" dy="2" in="SourceAlpha" result="shadowOffsetOuter1"></feOffset>
            <feGaussianBlur stdDeviation="2" in="shadowOffsetOuter1" result="shadowBlurOuter1"></feGaussianBlur>
            <feColorMatrix values="0 0 0 0 0.0470588235   0 0 0 0 0.295867967   0 0 0 0 0.364705882  0 0 0 0.101336051 0" type="matrix" in="shadowBlurOuter1"></feColorMatrix>
        </filter>
        <linearGradient x1="50%" y1="0%" x2="50%" y2="91.311349%" id="linearGradient-11">
            <stop stop-color="#EAF4F9" offset="0%"></stop>
            <stop stop-color="#FFFFFF" stop-opacity="0" offset="100%"></stop>
        </linearGradient>
        <path d="M53.106078,63.1858407 C56.5345314,63.1858407 58.3588015,60.3461566 58.8363218,55.8141593 C59.3138421,51.282162 56.5345314,48.4424779 53.106078,48.4424779 C49.6776245,48.4424779 46.8983138,51.282162 47.3758342,55.8141593 C47.8533545,60.3461566 49.6776245,63.1858407 53.106078,63.1858407 Z" id="path-12"></path>
        <filter x="-60.5%" y="-33.9%" width="221.0%" height="195.0%" filterUnits="objectBoundingBox" id="filter-13">
            <feOffset dx="0" dy="2" in="SourceAlpha" result="shadowOffsetOuter1"></feOffset>
            <feGaussianBlur stdDeviation="2" in="shadowOffsetOuter1" result="shadowBlurOuter1"></feGaussianBlur>
            <feColorMatrix values="0 0 0 0 0.0470588235   0 0 0 0 0.295867967   0 0 0 0 0.364705882  0 0 0 0.101336051 0" type="matrix" in="shadowBlurOuter1"></feColorMatrix>
        </filter>
    </defs>
    <g id="WIP---May" stroke="none" stroke-width="1" fill="none" fill-rule="evenodd">
        <g id="8---for-teams" transform="translate(-590.000000, -140.000000)">
            <g id="main">
                <g id="content" transform="translate(0.000000, -214.000000)">
                    <g id="top" transform="translate(236.000000, 0.000000)">
                        <g id="art">
                            <g id="teams-icon" transform="translate(354.000000, 354.000000)">
                                <circle id="Oval-6-Copy-2" fill-opacity="0.2" fill="#FFFFFF" cx="70" cy="70" r="70"></circle>
                                <g id="Group-18" transform="translate(16.625000, 16.625000)">
                                    <path d="M76.6491133,33.4423447 C76.6491133,36.320169 76.4122304,42.5349294 77.2723142,45.645013 C78.2683659,49.24676 81.6619709,54.0804126 80.8490338,54.6427223 C80.0360966,55.205032 76.0462868,51.1922311 75.0433518,49.4563071 C73.1701751,46.2141304 72.3878151,44.0304454 71.8371979,41.3199014 C71.2865807,38.6093575 71.0386453,37.9275108 71.0386453,34.4744464 C71.0386453,33.7195145 71.0386453,32.2586244 71.0386453,31.3402249 C69.229743,36.8672974 68.8132043,60.0172961 60.6122034,60.0265459 C52.2705916,60.0359543 52.0681371,36.066821 50.1776652,31.071679 C49.9703179,31.8311812 49.7389931,33.0333907 49.4942114,33.8694967 C48.4407621,37.467786 47.8883026,38.4926496 46.9069704,40.2681888 C45.9256382,42.0437281 43.7512879,45.2311591 41.8653521,43.1704169 C39.5466745,40.6368224 37.0179858,38.1538327 35.2098851,36.4895115 C33.0248617,34.4782405 32.5997706,34.6871631 32.5997706,33.8694967 C32.5997706,33.0518304 34.2693712,33.198364 35.5435268,33.6733683 C37.5071752,34.4054149 40.2074508,36.2586984 42.8155885,38.4175048 C43.3813533,37.2662249 43.9708388,34.9292592 44.5526997,31.561226 C45.1345607,28.1931927 45.1121288,26.016053 46.5825064,24.4968009 C48.9805493,21.3778154 54.2374307,20.7116132 56.6708224,18.3053988 C57.1662622,17.8143238 57.6282006,16.8102196 57.7638738,16.2159968 C58.2384769,14.1373251 57.8771028,10.5309735 60.6114928,10.5309735 C63.3458828,10.5309735 62.9845087,14.1373251 63.4591119,16.2159968 C63.5943501,16.8083146 64.0578178,17.8121501 64.5558695,18.3057933 C67.1576192,20.8768896 72.8928916,21.4651163 75.0433518,25.0864684 C76.2443017,26.6989645 76.6491133,30.5645205 76.6491133,33.4423447 Z" id="Combined-Shape-Copy-4" fill="url(#linearGradient-1)" transform="translate(56.786697, 35.278761) scale(-1, 1) translate(-56.786697, -35.278761) "></path>
                                    <g id="Oval-2">
                                        <use fill="black" fill-opacity="1" filter="url(#filter-4)" xlink:href="#path-3"></use>
                                        <use fill="url(#linearGradient-2)" fill-rule="evenodd" xlink:href="#path-3"></use>
                                    </g>
                                    <path d="M42.9880728,58.716681 C42.9880728,61.5945053 42.7506605,67.8092657 43.6126664,70.9193492 C44.610944,74.5210963 48.0121331,79.3547489 47.1973792,79.9170586 C46.3826253,80.4793683 42.3838991,76.4665673 41.3787227,74.7306433 C39.5013598,71.4884667 38.7172514,69.3047816 38.1654037,66.5942377 C37.613556,63.8836938 37.3650665,63.2018471 37.3650665,59.7487826 C37.3650665,58.9938507 37.3650665,57.5329607 37.3650665,56.6145612 C35.5521216,62.1416337 35.134652,85.2916323 26.9153235,85.3008822 C18.55507,85.3102906 18.352163,61.3411572 16.4574663,56.3460153 C16.2098575,57.0977046 15.8338042,57.9318561 15.4647922,58.716681 C13.7722839,62.3163542 12.6812798,64.3175944 11.6977545,66.0931337 C10.7142293,67.868673 6.46933032,71.4950438 5.40402237,68.7016879 C2.65595919,61.4959607 -1.09373097,50.8553465 0.301230705,49.7711372 C1.69619237,48.6869279 5.07442072,56.6145612 7.84963643,62.9244105 C8.8105346,62.0204928 9.35019131,59.7487826 10.2288776,56.6145612 C11.1075639,53.4803397 11.3806095,51.2903893 12.854273,49.7711372 C15.257675,46.6521516 20.5263046,45.9859495 22.9651344,43.5797351 C23.4616814,43.0886601 23.9246521,42.0845559 24.0606285,41.4903331 C24.5362923,39.4116614 24.1741106,35.8053097 26.9146114,35.8053097 C29.6551122,35.8053097 29.2929305,39.4116614 29.7685943,41.4903331 C29.9041348,42.0826509 30.3686383,43.0864864 30.8678029,43.5801296 C33.4753671,46.1512259 39.2234567,46.7394526 41.3787227,50.3608047 C42.5823564,51.9733008 42.9880728,55.8388567 42.9880728,58.716681 Z" id="Combined-Shape-Copy-4" fill="url(#linearGradient-5)" transform="translate(23.661124, 60.553097) scale(-1, 1) translate(-23.661124, -60.553097) "></path>
                                    <g id="Oval-2-Copy-4">
                                        <use fill="black" fill-opacity="1" filter="url(#filter-7)" xlink:href="#path-6"></use>
                                        <use fill="url(#linearGradient-2)" fill-rule="evenodd" xlink:href="#path-6"></use>
                                    </g>
                                    <path d="M110.327959,58.5115125 C110.327959,61.4115469 110.092581,67.6742709 110.947201,70.8083572 C111.936926,74.4379014 115.308975,79.3088586 114.501201,79.8755081 C113.693428,80.4421575 109.728962,76.398387 108.732398,74.6490657 C106.87112,71.3818669 106.093729,69.1813288 105.54661,66.4498658 C104.99949,63.7184027 104.75313,63.0312937 104.75313,59.5515796 C104.75313,58.7908213 104.75313,57.3186566 104.75313,56.3931692 C102.955718,61.9628979 102.541825,85.2915611 94.3929176,85.3008824 C86.1042928,85.3103634 85.7853941,59.3192032 83.9069307,54.2855102 C80.7310716,53.5131378 73.5151626,51.7802204 71.1364734,50.9671017 C68.7577842,50.1539831 67.603958,45.754723 66.5480277,41.8837881 C65.2183969,37.0094944 63.5580387,30.1656152 64.3562842,29.5350018 C65.0696427,28.9714492 67.3990201,33.4429504 69.181333,37.6675096 C70.963646,41.8920687 72.5482423,45.0770351 74.0039477,45.6689892 C76.0773896,46.5121423 80.5265464,46.5121423 83.9069307,46.5121423 C87.2873151,46.5121423 88.0586383,45.6825291 90.4765728,43.2577443 C90.9688655,42.7628793 91.4278696,41.7510257 91.562681,41.152217 C92.0342694,39.0575027 91.6751908,35.4233183 94.3922116,35.4233183 C97.1092325,35.4233183 96.7501538,39.0575027 97.2217423,41.152217 C97.3561214,41.7491061 97.8166452,42.7606889 98.3115331,43.2581418 C100.896756,45.8490811 106.595598,46.4418475 108.732398,50.0911481 C109.925719,51.7160889 110.327959,55.6114781 110.327959,58.5115125 Z" id="Combined-Shape-Copy-4" fill="url(#linearGradient-8)" transform="translate(89.386468, 57.393805) scale(-1, 1) translate(-89.386468, -57.393805) "></path>
                                    <g id="Oval-2-Copy-2">
                                        <use fill="black" fill-opacity="1" filter="url(#filter-10)" xlink:href="#path-9"></use>
                                        <use fill="url(#linearGradient-2)" fill-rule="evenodd" xlink:href="#path-9"></use>
                                    </g>
                                    <path d="M69.5905587,80.1394002 C70.6545495,82.4542718 73.5137048,88.7420805 75.765144,91.0890298 C79.9929421,95.4961787 82.6783048,95.005434 83.0454805,96.4436424 C83.4126561,97.8818507 80.5283137,98.2639216 75.7945572,95.4346726 C72.4153979,93.4150329 69.5905587,91.0890298 68.1249369,89.2536019 C66.659315,87.418174 65.286732,85.2421054 64.1900708,81.8848226 C63.95198,81.1559392 63.7156606,80.4538325 63.4951313,79.7827028 C61.7010379,85.3097753 61.2879092,108.459774 53.1540473,108.469024 C44.8807258,108.478432 44.6799287,84.5092988 42.8049334,79.5141568 C42.5598994,80.2658462 42.2921317,81.058111 42.0220852,81.8848226 C40.925424,85.2421054 39.2392071,87.8564459 38.0872191,89.2536019 C36.9352311,90.6507579 33.7967581,93.4150329 30.4175988,95.4346726 C25.6838423,98.2639216 22.7994999,97.8818507 23.1666755,96.4436424 C23.5338511,95.005434 26.2192139,95.4961787 30.4470119,91.0890298 C32.6984512,88.7420805 35.5576064,82.4542718 36.6215973,80.1394002 C37.6855881,77.8245287 37.7808671,74.4585308 39.2392071,72.9392788 C41.6176179,69.8202932 46.831463,69.1540911 49.2449332,66.7478767 C49.736317,66.2568017 50.1944737,65.2526974 50.3290361,64.6584747 C50.7997539,62.579803 50.4413382,58.9734513 53.1533426,58.9734513 C55.865347,58.9734513 55.5069314,62.579803 55.9776491,64.6584747 C56.1117802,65.2507925 56.5714537,66.254628 57.0654279,66.7482712 C59.6458779,69.3193675 65.3341975,69.9075942 67.4670525,73.5289463 C68.6581706,75.1414423 68.5265679,77.8245287 69.5905587,80.1394002 Z" id="Combined-Shape-Copy-6" fill="url(#linearGradient-11)"></path>
                                    <g id="Oval-2-Copy-3">
                                        <use fill="black" fill-opacity="1" filter="url(#filter-13)" xlink:href="#path-12"></use>
                                        <use fill="url(#linearGradient-2)" fill-rule="evenodd" xlink:href="#path-12"></use>
                                    </g>
                                </g>
                            </g>
                        </g>
                    </g>
                </g>
            </g>
        </g>
    </g>
</svg>