<?xml version="1.0" encoding="UTF-8"?>
<svg width="1198px" height="433px" viewBox="0 0 1198 433" version="1.1" xmlns="http://www.w3.org/2000/svg" xmlns:xlink="http://www.w3.org/1999/xlink">
    <!-- Generator: Sketch 60.1 (88133) - https://sketch.com -->
    <title>Group 7</title>
    <desc>Created with Sketch.</desc>
    <defs>
        <linearGradient x1="-47.7599677%" y1="50.9316775%" x2="125.914601%" y2="48.116861%" id="linearGradient-1">
            <stop stop-color="#F7B500" offset="0%"></stop>
            <stop stop-color="#B620E0" offset="48.7416107%"></stop>
            <stop stop-color="#32C5FF" offset="100%"></stop>
        </linearGradient>
    </defs>
    <g id="Templates" stroke="none" stroke-width="1" fill="none" fill-rule="evenodd" opacity="0.502046131">
        <g id="Pricing---Marketing" transform="translate(-101.000000, -2191.000000)" fill="url(#linearGradient-1)">
            <g id="Group-7" transform="translate(101.000000, 2191.500000)">
                <path d="M644.235726,281.016312 C648.101719,281.016312 651.235726,284.150319 651.235726,288.016312 L651.235726,425 C651.235726,428.865993 648.101719,432 644.235726,432 L636.180483,432 C632.31449,432 629.180483,428.865993 629.180483,425 L629.180483,288.016312 C629.180483,284.150319 632.31449,281.016312 636.180483,281.016312 L644.235726,281.016312 Z M693.902384,317.397924 C697.768377,317.397924 700.902384,320.531931 700.902384,324.397924 L700.902384,425 C700.902384,428.865993 697.768377,432 693.902384,432 L685.84714,432 C681.981147,432 678.84714,428.865993 678.84714,425 L678.84714,324.397924 C678.84714,320.531931 681.981147,317.397924 685.84714,317.397924 L693.902384,317.397924 Z M743.569041,341.045971 C747.435034,341.045971 750.569041,344.179978 750.569041,348.045971 L750.569041,425 C750.569041,428.865993 747.435034,432 743.569041,432 L735.513798,432 C731.647804,432 728.513798,428.865993 728.513798,425 L728.513798,348.045971 C728.513798,344.179978 731.647804,341.045971 735.513798,341.045971 L743.569041,341.045971 Z M793.235698,281.016312 C797.02115,281.016312 800.104797,284.021096 800.231639,287.775663 L800.235698,288.016312 L800.235698,425 C800.235698,428.785452 797.230915,431.869099 793.476348,431.995941 L793.235698,432 L785.180455,432 C781.395003,432 778.311356,428.995217 778.184514,425.24065 L778.180455,425 L778.180455,288.016312 C778.180455,284.230861 781.185238,281.147214 784.939805,281.020371 L785.180455,281.016312 L793.235698,281.016312 Z M842.902356,306.48344 C846.687807,306.48344 849.771454,309.488224 849.898297,313.242791 L849.902356,313.48344 L849.902356,425 C849.902356,428.785452 846.897572,431.869099 843.143005,431.995941 L842.902356,432 L834.847112,432 C831.061661,432 827.978014,428.995217 827.851171,425.24065 L827.847112,425 L827.847112,313.48344 C827.847112,309.697989 830.851896,306.614342 834.606463,306.487499 L834.847112,306.48344 L842.902356,306.48344 Z M892.569013,317.397924 C896.435006,317.397924 899.569013,320.531931 899.569013,324.397924 L899.569013,425 C899.569013,428.865993 896.435006,432 892.569013,432 L884.51377,432 C880.647776,432 877.51377,428.865993 877.51377,425 L877.51377,324.397924 C877.51377,320.531931 880.647776,317.397924 884.51377,317.397924 L892.569013,317.397924 Z M942.23567,215.529412 C946.101664,215.529412 949.23567,218.663419 949.23567,222.529412 L949.23567,425 C949.23567,428.865993 946.101664,432 942.23567,432 L934.180427,432 C930.314434,432 927.180427,428.865993 927.180427,425 L927.180427,222.529412 C927.180427,218.663419 930.314434,215.529412 934.180427,215.529412 L942.23567,215.529412 Z M991.902328,250.091943 C995.768321,250.091943 998.902328,253.225949 998.902328,257.091943 L998.902328,425 C998.902328,428.865993 995.768321,432 991.902328,432 L983.847084,432 C979.981091,432 976.847084,428.865993 976.847084,425 L976.847084,257.091943 C976.847084,253.225949 979.981091,250.091943 983.847084,250.091943 L991.902328,250.091943 Z M1041.56899,228.262976 C1045.43498,228.262976 1048.56899,231.396983 1048.56899,235.262976 L1048.56899,425 C1048.56899,428.865993 1045.43498,432 1041.56899,432 L1033.51374,432 C1029.64775,432 1026.51374,428.865993 1026.51374,425 L1026.51374,235.262976 C1026.51374,231.396983 1029.64775,228.262976 1033.51374,228.262976 L1041.56899,228.262976 Z M1091.23564,361.055858 C1095.10164,361.055858 1098.23564,364.189864 1098.23564,368.055858 L1098.23564,425 C1098.23564,428.865993 1095.10164,432 1091.23564,432 L1083.1804,432 C1079.31441,432 1076.1804,428.865993 1076.1804,425 L1076.1804,368.055858 C1076.1804,364.189864 1079.31441,361.055858 1083.1804,361.055858 L1091.23564,361.055858 Z M1140.9023,384.703905 C1144.76829,384.703905 1147.9023,387.837912 1147.9023,391.703905 L1147.9023,425 C1147.9023,428.865993 1144.76829,432 1140.9023,432 L1132.84706,432 C1128.98106,432 1125.84706,428.865993 1125.84706,425 L1125.84706,391.703905 C1125.84706,387.837912 1128.98106,384.703905 1132.84706,384.703905 L1140.9023,384.703905 Z M1190.56896,361.055858 C1194.43495,361.055858 1197.56896,364.189864 1197.56896,368.055858 L1197.56896,425 C1197.56896,428.865993 1194.43495,432 1190.56896,432 L1182.51371,432 C1178.64772,432 1175.51371,428.865993 1175.51371,425 L1175.51371,368.055858 C1175.51371,364.189864 1178.64772,361.055858 1182.51371,361.055858 L1190.56896,361.055858 Z M290.861214,215.529412 C294.727207,215.529412 297.861214,218.663419 297.861214,222.529412 L297.861214,425 C297.861214,428.865993 294.727207,432 290.861214,432 L282.805971,432 C278.939978,432 275.805971,428.865993 275.805971,425 L275.805971,222.529412 C275.805971,218.663419 278.939978,215.529412 282.805971,215.529412 L290.861214,215.529412 Z M191.5279,228.262976 C195.393893,228.262976 198.5279,231.396983 198.5279,235.262976 L198.5279,425 C198.5279,428.865993 195.393893,432 191.5279,432 L183.472656,432 C179.606663,432 176.472656,428.865993 176.472656,425 L176.472656,235.262976 C176.472656,231.396983 179.606663,228.262976 183.472656,228.262976 L191.5279,228.262976 Z M241.194557,250.091943 C245.06055,250.091943 248.194557,253.225949 248.194557,257.091943 L248.194557,425 C248.194557,428.865993 245.06055,432 241.194557,432 L233.139313,432 C229.27332,432 226.139313,428.865993 226.139313,425 L226.139313,257.091943 C226.139313,253.225949 229.27332,250.091943 233.139313,250.091943 L241.194557,250.091943 Z M588.861158,281.016312 C592.727152,281.016312 595.861158,284.150319 595.861158,288.016312 L595.861158,425 C595.861158,428.865993 592.727152,432 588.861158,432 L580.805915,432 C576.939922,432 573.805915,428.865993 573.805915,425 L573.805915,288.016312 C573.805915,284.150319 576.939922,281.016312 580.805915,281.016312 L588.861158,281.016312 Z M439.861186,281.016312 C443.646638,281.016312 446.730285,284.021096 446.857127,287.775663 L446.861186,288.016312 L446.861186,425 C446.861186,428.785452 443.856403,431.869099 440.101836,431.995941 L439.861186,432 L431.805943,432 C428.020491,432 424.936844,428.995217 424.810002,425.24065 L424.805943,425 L424.805943,288.016312 C424.805943,284.230861 427.810726,281.147214 431.565293,281.020371 L431.805943,281.016312 L439.861186,281.016312 Z M390.194529,306.48344 C393.979981,306.48344 397.063628,309.488224 397.19047,313.242791 L397.194529,313.48344 L397.194529,425 C397.194529,428.785452 394.189746,431.869099 390.435179,431.995941 L390.194529,432 L382.139286,432 C378.353834,432 375.270187,428.995217 375.143345,425.24065 L375.139286,425 L375.139286,313.48344 C375.139286,309.697989 378.144069,306.614342 381.898636,306.487499 L382.139286,306.48344 L390.194529,306.48344 Z M539.194501,317.397924 C543.060494,317.397924 546.194501,320.531931 546.194501,324.397924 L546.194501,425 C546.194501,428.865993 543.060494,432 539.194501,432 L531.139258,432 C527.273264,432 524.139258,428.865993 524.139258,425 L524.139258,324.397924 C524.139258,320.531931 527.273264,317.397924 531.139258,317.397924 L539.194501,317.397924 Z M340.527872,317.397924 C344.393865,317.397924 347.527872,320.531931 347.527872,324.397924 L347.527872,425 C347.527872,428.865993 344.393865,432 340.527872,432 L332.472628,432 C328.606635,432 325.472628,428.865993 325.472628,425 L325.472628,324.397924 C325.472628,320.531931 328.606635,317.397924 332.472628,317.397924 L340.527872,317.397924 Z M489.527844,341.045971 C493.393837,341.045971 496.527844,344.179978 496.527844,348.045971 L496.527844,425 C496.527844,428.865993 493.393837,432 489.527844,432 L481.4726,432 C477.606607,432 474.4726,428.865993 474.4726,425 L474.4726,348.045971 C474.4726,344.179978 477.606607,341.045971 481.4726,341.045971 L489.527844,341.045971 Z M141.861242,361.055858 C145.727235,361.055858 148.861242,364.189864 148.861242,368.055858 L148.861242,425 C148.861242,428.865993 145.727235,432 141.861242,432 L133.805999,432 C129.940005,432 126.805999,428.865993 126.805999,425 L126.805999,368.055858 C126.805999,364.189864 129.940005,361.055858 133.805999,361.055858 L141.861242,361.055858 Z M42.5279274,361.055858 C46.3939207,361.055858 49.5279274,364.189864 49.5279274,368.055858 L49.5279274,425 C49.5279274,428.865993 46.3939207,432 42.5279274,432 L34.472684,432 C30.6066907,432 27.472684,428.865993 27.472684,425 L27.472684,368.055858 C27.472684,364.189864 30.6066907,361.055858 34.472684,361.055858 L42.5279274,361.055858 Z M92.1945848,384.703905 C96.060578,384.703905 99.1945848,387.837912 99.1945848,391.703905 L99.1945848,425 C99.1945848,428.865993 96.060578,432 92.1945848,432 L84.1393413,432 C80.2733481,432 77.1393413,428.865993 77.1393413,425 L77.1393413,391.703905 C77.1393413,387.837912 80.2733481,384.703905 84.1393413,384.703905 L92.1945848,384.703905 Z" id="Combined-Shape" transform="translate(612.520821, 323.764706) rotate(-180.000000) translate(-612.520821, -323.764706) "></path>
                <path d="M616.763042,65.4869006 C620.629036,65.4869006 623.763042,68.6209074 623.763042,72.4869006 L623.763042,209.470588 C623.763042,213.336581 620.629036,216.470588 616.763042,216.470588 L608.707799,216.470588 C604.841806,216.470588 601.707799,213.336581 601.707799,209.470588 L601.707799,72.4869006 C601.707799,68.6209074 604.841806,65.4869006 608.707799,65.4869006 L616.763042,65.4869006 Z M666.4297,101.868512 C670.295693,101.868512 673.4297,105.002519 673.4297,108.868512 L673.4297,209.470588 C673.4297,213.336581 670.295693,216.470588 666.4297,216.470588 L658.374456,216.470588 C654.508463,216.470588 651.374456,213.336581 651.374456,209.470588 L651.374456,108.868512 C651.374456,105.002519 654.508463,101.868512 658.374456,101.868512 L666.4297,101.868512 Z M716.096357,125.51656 C719.96235,125.51656 723.096357,128.650566 723.096357,132.51656 L723.096357,209.470588 C723.096357,213.336581 719.96235,216.470588 716.096357,216.470588 L708.041114,216.470588 C704.17512,216.470588 701.041114,213.336581 701.041114,209.470588 L701.041114,132.51656 C701.041114,128.650566 704.17512,125.51656 708.041114,125.51656 L716.096357,125.51656 Z M765.763014,65.4869006 C769.548466,65.4869006 772.632113,68.491684 772.758955,72.2462509 L772.763014,72.4869006 L772.763014,209.470588 C772.763014,213.25604 769.758231,216.339687 766.003664,216.466529 L765.763014,216.470588 L757.707771,216.470588 C753.922319,216.470588 750.838672,213.465805 750.71183,209.711238 L750.707771,209.470588 L750.707771,72.4869006 C750.707771,68.7014489 753.712554,65.617802 757.467121,65.4909597 L757.707771,65.4869006 L765.763014,65.4869006 Z M815.429672,90.9540287 C819.215123,90.9540287 822.29877,93.9588121 822.425613,97.7133789 L822.429672,97.9540287 L822.429672,209.470588 C822.429672,213.25604 819.424888,216.339687 815.670321,216.466529 L815.429672,216.470588 L807.374428,216.470588 C803.588977,216.470588 800.50533,213.465805 800.378487,209.711238 L800.374428,209.470588 L800.374428,97.9540287 C800.374428,94.1685769 803.379212,91.08493 807.133779,90.9580877 L807.374428,90.9540287 L815.429672,90.9540287 Z M865.096329,101.868512 C868.962322,101.868512 872.096329,105.002519 872.096329,108.868512 L872.096329,209.470588 C872.096329,213.336581 868.962322,216.470588 865.096329,216.470588 L857.041086,216.470588 C853.175092,216.470588 850.041086,213.336581 850.041086,209.470588 L850.041086,108.868512 C850.041086,105.002519 853.175092,101.868512 857.041086,101.868512 L865.096329,101.868512 Z M914.762986,1.27897692e-12 C918.62898,1.28004311e-12 921.762986,3.13400675 921.762986,7 L921.762986,209.470588 C921.762986,213.336581 918.62898,216.470588 914.762986,216.470588 L906.707743,216.470588 C902.84175,216.470588 899.707743,213.336581 899.707743,209.470588 L899.707743,7 C899.707743,3.13400675 902.84175,1.28146345e-12 906.707743,1.27897692e-12 L914.762986,1.27897692e-12 Z M964.429644,34.5625309 C968.295637,34.5625309 971.429644,37.6965376 971.429644,41.5625309 L971.429644,209.470588 C971.429644,213.336581 968.295637,216.470588 964.429644,216.470588 L956.3744,216.470588 C952.508407,216.470588 949.3744,213.336581 949.3744,209.470588 L949.3744,41.5625309 C949.3744,37.6965376 952.508407,34.5625309 956.3744,34.5625309 L964.429644,34.5625309 Z M1014.0963,12.733564 C1017.96229,12.733564 1021.0963,15.8675708 1021.0963,19.733564 L1021.0963,209.470588 C1021.0963,213.336581 1017.96229,216.470588 1014.0963,216.470588 L1006.04106,216.470588 C1002.17506,216.470588 999.041058,213.336581 999.041058,209.470588 L999.041058,19.733564 C999.041058,15.8675708 1002.17506,12.733564 1006.04106,12.733564 L1014.0963,12.733564 Z M1063.76296,145.526446 C1067.62895,145.526446 1070.76296,148.660453 1070.76296,152.526446 L1070.76296,209.470588 C1070.76296,213.336581 1067.62895,216.470588 1063.76296,216.470588 L1055.70772,216.470588 C1051.84172,216.470588 1048.70772,213.336581 1048.70772,209.470588 L1048.70772,152.526446 C1048.70772,148.660453 1051.84172,145.526446 1055.70772,145.526446 L1063.76296,145.526446 Z M1113.42962,169.174493 C1117.29561,169.174493 1120.42962,172.3085 1120.42962,176.174493 L1120.42962,209.470588 C1120.42962,213.336581 1117.29561,216.470588 1113.42962,216.470588 L1105.37437,216.470588 C1101.50838,216.470588 1098.37437,213.336581 1098.37437,209.470588 L1098.37437,176.174493 C1098.37437,172.3085 1101.50838,169.174493 1105.37437,169.174493 L1113.42962,169.174493 Z M1163.09627,145.526446 C1166.96227,145.526446 1170.09627,148.660453 1170.09627,152.526446 L1170.09627,209.470588 C1170.09627,213.336581 1166.96227,216.470588 1163.09627,216.470588 L1155.04103,216.470588 C1151.17504,216.470588 1148.04103,213.336581 1148.04103,209.470588 L1148.04103,152.526446 C1148.04103,148.660453 1151.17504,145.526446 1155.04103,145.526446 L1163.09627,145.526446 Z M263.38853,-1.22213351e-12 C267.254524,-1.22213351e-12 270.38853,3.13400675 270.38853,7 L270.38853,209.470588 C270.38853,213.336581 267.254524,216.470588 263.38853,216.470588 L255.333287,216.470588 C251.467294,216.470588 248.333287,213.336581 248.333287,209.470588 L248.333287,7 C248.333287,3.13400675 251.467294,-1.22213351e-12 255.333287,-1.22213351e-12 L263.38853,-1.22213351e-12 Z M164.055216,12.733564 C167.921209,12.733564 171.055216,15.8675708 171.055216,19.733564 L171.055216,209.470588 C171.055216,213.336581 167.921209,216.470588 164.055216,216.470588 L155.999972,216.470588 C152.133979,216.470588 148.999972,213.336581 148.999972,209.470588 L148.999972,19.733564 C148.999972,15.8675708 152.133979,12.733564 155.999972,12.733564 L164.055216,12.733564 Z M213.721873,34.5625309 C217.587866,34.5625309 220.721873,37.6965376 220.721873,41.5625309 L220.721873,209.470588 C220.721873,213.336581 217.587866,216.470588 213.721873,216.470588 L205.666629,216.470588 C201.800636,216.470588 198.666629,213.336581 198.666629,209.470588 L198.666629,41.5625309 C198.666629,37.6965376 201.800636,34.5625309 205.666629,34.5625309 L213.721873,34.5625309 Z M561.388474,65.4869006 C565.254468,65.4869006 568.388474,68.6209074 568.388474,72.4869006 L568.388474,209.470588 C568.388474,213.336581 565.254468,216.470588 561.388474,216.470588 L553.333231,216.470588 C549.467238,216.470588 546.333231,213.336581 546.333231,209.470588 L546.333231,72.4869006 C546.333231,68.6209074 549.467238,65.4869006 553.333231,65.4869006 L561.388474,65.4869006 Z M412.388502,65.4869006 C416.173954,65.4869006 419.257601,68.491684 419.384443,72.2462509 L419.388502,72.4869006 L419.388502,209.470588 C419.388502,213.25604 416.383719,216.339687 412.629152,216.466529 L412.388502,216.470588 L404.333259,216.470588 C400.547807,216.470588 397.46416,213.465805 397.337318,209.711238 L397.333259,209.470588 L397.333259,72.4869006 C397.333259,68.7014489 400.338042,65.617802 404.092609,65.4909597 L404.333259,65.4869006 L412.388502,65.4869006 Z M362.721845,90.9540287 C366.507297,90.9540287 369.590944,93.9588121 369.717786,97.7133789 L369.721845,97.9540287 L369.721845,209.470588 C369.721845,213.25604 366.717062,216.339687 362.962495,216.466529 L362.721845,216.470588 L354.666602,216.470588 C350.88115,216.470588 347.797503,213.465805 347.670661,209.711238 L347.666602,209.470588 L347.666602,97.9540287 C347.666602,94.1685769 350.671385,91.08493 354.425952,90.9580877 L354.666602,90.9540287 L362.721845,90.9540287 Z M511.721817,101.868512 C515.58781,101.868512 518.721817,105.002519 518.721817,108.868512 L518.721817,209.470588 C518.721817,213.336581 515.58781,216.470588 511.721817,216.470588 L503.666574,216.470588 C499.80058,216.470588 496.666574,213.336581 496.666574,209.470588 L496.666574,108.868512 C496.666574,105.002519 499.80058,101.868512 503.666574,101.868512 L511.721817,101.868512 Z M313.055188,101.868512 C316.921181,101.868512 320.055188,105.002519 320.055188,108.868512 L320.055188,209.470588 C320.055188,213.336581 316.921181,216.470588 313.055188,216.470588 L304.999944,216.470588 C301.133951,216.470588 297.999944,213.336581 297.999944,209.470588 L297.999944,108.868512 C297.999944,105.002519 301.133951,101.868512 304.999944,101.868512 L313.055188,101.868512 Z M462.05516,125.51656 C465.921153,125.51656 469.05516,128.650566 469.05516,132.51656 L469.05516,209.470588 C469.05516,213.336581 465.921153,216.470588 462.05516,216.470588 L453.999916,216.470588 C450.133923,216.470588 446.999916,213.336581 446.999916,209.470588 L446.999916,132.51656 C446.999916,128.650566 450.133923,125.51656 453.999916,125.51656 L462.05516,125.51656 Z M114.388558,145.526446 C118.254551,145.526446 121.388558,148.660453 121.388558,152.526446 L121.388558,209.470588 C121.388558,213.336581 118.254551,216.470588 114.388558,216.470588 L106.333315,216.470588 C102.467321,216.470588 99.3333147,213.336581 99.3333147,209.470588 L99.3333147,152.526446 C99.3333147,148.660453 102.467321,145.526446 106.333315,145.526446 L114.388558,145.526446 Z M15.0552434,145.526446 C18.9212367,145.526446 22.0552434,148.660453 22.0552434,152.526446 L22.0552434,209.470588 C22.0552434,213.336581 18.9212367,216.470588 15.0552434,216.470588 L7,216.470588 C3.13400675,216.470588 0,213.336581 0,209.470588 L0,152.526446 C0,148.660453 3.13400675,145.526446 7,145.526446 L15.0552434,145.526446 Z M64.7219008,169.174493 C68.5878941,169.174493 71.7219008,172.3085 71.7219008,176.174493 L71.7219008,209.470588 C71.7219008,213.336581 68.5878941,216.470588 64.7219008,216.470588 L56.6666574,216.470588 C52.8006641,216.470588 49.6666574,213.336581 49.6666574,209.470588 L49.6666574,176.174493 C49.6666574,172.3085 52.8006641,169.174493 56.6666574,169.174493 L64.7219008,169.174493 Z" id="Combined-Shape-Copy-2" transform="translate(585.048137, 108.235294) scale(-1, 1) translate(-585.048137, -108.235294) "></path>
            </g>
        </g>
    </g>
</svg>